<?xml version="1.0" encoding="utf-8"?>
<!-- Generator: Adobe Illustrator 16.0.0, SVG Export Plug-In . SVG Version: 6.00 Build 0)  -->
<!DOCTYPE svg PUBLIC "-//W3C//DTD SVG 1.1//EN" "http://www.w3.org/Graphics/SVG/1.1/DTD/svg11.dtd">
<svg version="1.1" id="Слой_1" xmlns="http://www.w3.org/2000/svg" xmlns:xlink="http://www.w3.org/1999/xlink" x="0px" y="0px"
	 width="214px" height="130px" viewBox="0 0 214 130" enable-background="new 0 0 214 130" xml:space="preserve">
<polyline fill="none" stroke="#999999" stroke-width="2" stroke-linecap="round" stroke-linejoin="round" stroke-miterlimit="10" points="
	7.236,23.832 9.43,31.903 15.061,37.698 "/>
<path fill="none" stroke="#999999" stroke-width="2" stroke-linecap="round" stroke-linejoin="round" stroke-miterlimit="10" d="
	M13.943,42.198l2.271,6.743c0,0,3.038,5.553,3.602,5.791s3.713,3.26,3.713,3.26"/>
<path fill="none" stroke="#999999" stroke-width="2" stroke-linecap="round" stroke-linejoin="round" stroke-miterlimit="10" d="
	M23.354,61.67l1.222,5.916c0,0,1.841,4.475,2.052,5.043s3.282,5.116,3.282,5.116l4.859,1.188l3.644,1.284"/>
<polyline fill="none" stroke="#999999" stroke-width="2" stroke-linecap="round" stroke-linejoin="round" stroke-miterlimit="10" points="
	38.854,82.366 41.587,86.643 44.655,88.454 47.874,89.571 "/>
<path fill="none" stroke="#999999" stroke-width="2" stroke-linecap="round" stroke-linejoin="round" stroke-miterlimit="10" d="
	M49.661,92.559c0,0,0.56,1.984,1.559,2.617s5.361,2.229,5.361,2.229l4.325,1.173l3.334,0.118l28.044,4.263L122,103.122l28.984-4.545
	l10.052-2.138l3.927-5.485l8.393-1.689l3.703-6.898l5.072-5.968l6.201-4.332l3.957-8.738"/>
<polyline fill="none" stroke="#999999" stroke-width="2" stroke-linecap="round" stroke-linejoin="round" stroke-miterlimit="10" points="
	189.789,56.686 196,49.666 199.146,41.113 "/>
<polyline fill="#CCCCCC" stroke="#999999" stroke-width="2" stroke-linecap="round" stroke-linejoin="round" stroke-miterlimit="10" points="
	197.832,36.741 202.253,32.37 205.361,22.643 206.023,20.5 "/>
<rect x="110.5" y="98.5" fill="#CCCCCC" stroke="#999999" stroke-linecap="round" stroke-linejoin="round" stroke-miterlimit="10" width="9" height="11"/>
<rect x="95.5" y="98.5" fill="#CCCCCC" stroke="#999999" stroke-linecap="round" stroke-linejoin="round" stroke-miterlimit="10" width="8" height="11"/>
<rect x="81.5" y="97.5" fill="#CCCCCC" stroke="#999999" stroke-linecap="round" stroke-linejoin="round" stroke-miterlimit="10" width="8" height="11"/>
<rect x="126.5" y="97.5" fill="#CCCCCC" stroke="#999999" stroke-linecap="round" stroke-linejoin="round" stroke-miterlimit="10" width="7" height="11"/>
<polygon fill="#CCCCCC" stroke="#999999" stroke-linecap="round" stroke-linejoin="round" stroke-miterlimit="10" points="
	156.344,92.073 156.52,102.922 161.232,101.541 163.5,98.621 163.5,88 159.922,91.273 "/>
<path fill="#CCCCCC" stroke="#999999" stroke-linecap="round" stroke-linejoin="round" stroke-miterlimit="10" d="M168.708,83.1
	c0.001,0.032,0.005,0.107,0.014,0.22c0.112,1.63,0.936,11.181,0.936,11.181H173l2.662-4.618l-0.391-9.425l-2.771,2.768L168.708,83.1
	z"/>
<polygon fill="#CCCCCC" stroke="#999999" stroke-linecap="round" stroke-linejoin="round" stroke-miterlimit="10" points="
	45.732,83.832 45.409,94.458 41.321,93.369 39.62,89.913 40.277,80.218 42.676,82.5 "/>
<path fill="#CCCCCC" stroke="#999999" stroke-linecap="round" stroke-linejoin="round" stroke-miterlimit="10" d="M31.647,82.221
	c-0.125-0.655,1.904-11.277,1.904-11.277l-3.548-0.444l-3.988-7.818l-2.736,13.704l2.736,5.419l4.867,0.417"/>
<path fill="#CCCCCC" stroke="#999999" stroke-linecap="round" stroke-linejoin="round" stroke-miterlimit="10" d="M19.815,59.101
	c0.001-0.072,1.464-11.385,1.465-11.385l-2.904-7.62L16.791,52l2.286,6.212"/>
<path fill="#CCCCCC" stroke="#999999" stroke-linecap="round" stroke-linejoin="round" stroke-miterlimit="10" d="M12.314,40.096
	c0.597-1.241,1.962-11.292,1.962-11.292l-1.962-3.362l-0.902-4.705L7.988,35.414l1.023,2.77L12.314,40.096z"/>
<path fill="#CCCCCC" stroke="#999999" stroke-linecap="round" stroke-linejoin="round" stroke-miterlimit="10" d="M182.651,68.395
	c0.147,0.405,1.63,13.826,1.63,13.826l4.051-2.752l3.422-8.013l-1.965-11.604l-3.586,5.606L182.651,68.395z"/>
<path fill="#CCCCCC" stroke="#999999" stroke-linecap="round" stroke-linejoin="round" stroke-miterlimit="10" d="M191.936,45.994
	c0.05,0.854,2.808,11.233,2.808,11.233l3.089-2.405l2.339-6.662l-2.964-9.021l-2.464,5.68l-1.927,0.608"/>
<path fill="#CCCCCC" stroke="#999999" stroke-linecap="round" stroke-linejoin="round" stroke-miterlimit="10" d="M199.146,29.33
	c0.237,0.338,2.468,9.883,2.468,9.883l2.567-1.515l1.181-5.279c0,0-1.277-9.052-1.361-9.719s-2.072,3.878-2.072,3.878L199.146,29.33
	z"/>
<polygon fill="#CCCCCC" stroke="#999999" stroke-linecap="round" stroke-linejoin="round" stroke-miterlimit="10" points="
	66.96,93.369 67.249,105.545 70.834,106.857 73.78,106.096 73.114,94.5 70.188,95.461 "/>
<path fill="#CCCCCC" stroke="#999999" stroke-linecap="round" stroke-linejoin="round" stroke-miterlimit="10" d="M141.5,108
	l4.137,0.5l2.863-4.141V93c0,0-3.6,2.278-3.5,2.461s-2.776-0.836-2.776-0.836L141.5,108z"/>
<path fill="#CCCCCC" stroke="#999999" stroke-linecap="round" stroke-linejoin="round" stroke-miterlimit="10" d="M52.5,87v12
	c0,0,0.876,3.085,1.224,3.443s7.744-1.693,7.744-1.693l-0.92-11.179c0,0-4.723,0.515-5.063,0.311S52.5,87,52.5,87z"/>
<path fill="#CCCCCC" stroke="#999999" stroke-linecap="round" stroke-linejoin="round" stroke-miterlimit="10" d="M97.528,100.514
	c-0.031,0.379,3.538,6.344,3.538,6.344"/>
<line fill="#CCCCCC" stroke="#999999" stroke-linecap="round" stroke-linejoin="round" stroke-miterlimit="10" x1="97" y1="106.857" x2="101.954" y2="100.113"/>
<line fill="#CCCCCC" stroke="#999999" stroke-linecap="round" stroke-linejoin="round" stroke-miterlimit="10" x1="112.172" y1="100.584" x2="117.307" y2="106.857"/>
<line fill="#CCCCCC" stroke="#999999" stroke-linecap="round" stroke-linejoin="round" stroke-miterlimit="10" x1="112.172" y1="106.857" x2="117.307" y2="100.124"/>
<line fill="#CCCCCC" stroke="#999999" stroke-linecap="round" stroke-linejoin="round" stroke-miterlimit="10" x1="128.401" y1="100.124" x2="131.476" y2="105.426"/>
<path fill="#CCCCCC" stroke="#999999" stroke-linecap="round" stroke-linejoin="round" stroke-miterlimit="10" d="M128.401,106.096
	c0.114-0.312,3.458-6.434,3.458-6.434"/>
<line fill="#CCCCCC" stroke="#999999" stroke-linecap="round" stroke-linejoin="round" stroke-miterlimit="10" x1="83.978" y1="99.662" x2="87.545" y2="106.096"/>
<line fill="#CCCCCC" stroke="#999999" stroke-linecap="round" stroke-linejoin="round" stroke-miterlimit="10" x1="83.415" y1="106.096" x2="87.724" y2="100.113"/>
<line fill="#CCCCCC" stroke="#999999" stroke-linecap="round" stroke-linejoin="round" stroke-miterlimit="10" x1="67.91" y1="95.461" x2="72.682" y2="103.721"/>
<line fill="#CCCCCC" stroke="#999999" stroke-linecap="round" stroke-linejoin="round" stroke-miterlimit="10" x1="67.91" y1="104.257" x2="72.2" y2="95.461"/>
<line fill="#CCCCCC" stroke="#999999" stroke-linecap="round" stroke-linejoin="round" stroke-miterlimit="10" x1="142.608" y1="96.955" x2="148.271" y2="102.485"/>
<line fill="#CCCCCC" stroke="#999999" stroke-linecap="round" stroke-linejoin="round" stroke-miterlimit="10" x1="142.224" y1="106.857" x2="147.886" y2="96.137"/>
<line fill="#CCCCCC" stroke="#999999" stroke-linecap="round" stroke-linejoin="round" stroke-miterlimit="10" x1="157.029" y1="102.485" x2="163" y2="91.801"/>
<line fill="#CCCCCC" stroke="#999999" stroke-linecap="round" stroke-linejoin="round" stroke-miterlimit="10" x1="156.512" y1="93.369" x2="163.5" y2="96.137"/>
<line fill="#CCCCCC" stroke="#999999" stroke-linecap="round" stroke-linejoin="round" stroke-miterlimit="10" x1="168.722" y1="83.319" x2="175.5" y2="87"/>
<line fill="#CCCCCC" stroke="#999999" stroke-linecap="round" stroke-linejoin="round" stroke-miterlimit="10" x1="169.657" y1="94.5" x2="175.271" y2="84.383"/>
<line fill="#CCCCCC" stroke="#999999" stroke-linecap="round" stroke-linejoin="round" stroke-miterlimit="10" x1="184.281" y1="81.348" x2="189.789" y2="63.671"/>
<line fill="#CCCCCC" stroke="#999999" stroke-linecap="round" stroke-linejoin="round" stroke-miterlimit="10" x1="183.104" y1="68.427" x2="191.124" y2="67.996"/>
<line fill="#CCCCCC" stroke="#999999" stroke-linecap="round" stroke-linejoin="round" stroke-miterlimit="10" x1="192.162" y1="45.428" x2="199.469" y2="46.022"/>
<line fill="#CCCCCC" stroke="#999999" stroke-linecap="round" stroke-linejoin="round" stroke-miterlimit="10" x1="194.467" y1="56.184" x2="198.035" y2="44.133"/>
<polyline fill="#CCCCCC" stroke="#999999" stroke-linecap="round" stroke-linejoin="round" stroke-miterlimit="10" points="
	201.371,38.184 204.785,28.324 199.146,29.33 "/>
<line fill="#CCCCCC" stroke="#999999" stroke-linecap="round" stroke-linejoin="round" stroke-miterlimit="10" x1="60.547" y1="89.571" x2="52.5" y2="96.137"/>
<line fill="#CCCCCC" stroke="#999999" stroke-linecap="round" stroke-linejoin="round" stroke-miterlimit="10" x1="61.468" y1="100.75" x2="52.804" y2="91.092"/>
<line fill="#CCCCCC" stroke="#999999" stroke-linecap="round" stroke-linejoin="round" stroke-miterlimit="10" x1="45.409" y1="94.458" x2="40.277" y2="83.319"/>
<line fill="#CCCCCC" stroke="#999999" stroke-linecap="round" stroke-linejoin="round" stroke-miterlimit="10" x1="45.732" y1="83.832" x2="39.706" y2="88.648"/>
<line fill="#CCCCCC" stroke="#999999" stroke-linecap="round" stroke-linejoin="round" stroke-miterlimit="10" x1="31.647" y1="81.348" x2="25.617" y2="67.284"/>
<path fill="#CCCCCC" stroke="#999999" stroke-linecap="round" stroke-linejoin="round" stroke-miterlimit="10" d="M33.552,70.943
	c0,0-9.078,1.344-9.251,1.271"/>
<line fill="#CCCCCC" stroke="#999999" stroke-linecap="round" stroke-linejoin="round" stroke-miterlimit="10" x1="21.28" y1="47.716" x2="17.45" y2="49.598"/>
<line fill="#CCCCCC" stroke="#999999" stroke-linecap="round" stroke-linejoin="round" stroke-miterlimit="10" x1="19.365" y1="59.101" x2="17.904" y2="45.606"/>
<line fill="#CCCCCC" stroke="#999999" stroke-linecap="round" stroke-linejoin="round" stroke-miterlimit="10" x1="12.076" y1="39.14" x2="9.797" y2="27.659"/>
<line fill="#CCCCCC" stroke="#999999" stroke-linecap="round" stroke-linejoin="round" stroke-miterlimit="10" x1="14.277" y1="28.804" x2="9.448" y2="30.766"/>
<g>
</g>
<g>
</g>
<g>
</g>
<g>
</g>
<g>
</g>
<g>
</g>
<g>
</g>
<g>
</g>
<g>
</g>
<g>
</g>
<g>
</g>
<g>
</g>
<g>
</g>
<g>
</g>
<g>
</g>
</svg>
