<?xml version="1.0" encoding="utf-8"?>
<!-- Generator: Adobe Illustrator 16.0.0, SVG Export Plug-In . SVG Version: 6.00 Build 0)  -->
<!DOCTYPE svg PUBLIC "-//W3C//DTD SVG 1.1//EN" "http://www.w3.org/Graphics/SVG/1.1/DTD/svg11.dtd">
<svg version="1.1" id="Слой_1" xmlns="http://www.w3.org/2000/svg" xmlns:xlink="http://www.w3.org/1999/xlink" x="0px" y="0px"
	 width="214px" height="260px" viewBox="0 0 214 260" enable-background="new 0 0 214 260" xml:space="preserve">
<polyline fill="none" stroke="#999999" stroke-linecap="round" stroke-linejoin="round" stroke-miterlimit="10" points="
	5.81,83.768 7.127,79.5 9,79.5 10.352,71.593 11.667,66.75 14.356,64.688 16.782,64.156 "/>
<polyline fill="none" stroke="#999999" stroke-width="2" stroke-linecap="round" stroke-linejoin="round" stroke-miterlimit="10" points="
	14.671,54.5 16.214,50.979 18.809,48.688 20.539,46.687 23.999,45 25.732,44.084 "/>
<path fill="none" stroke="#999999" stroke-width="2" stroke-linecap="round" stroke-linejoin="round" stroke-miterlimit="10" d="
	M26.149,37.91l2.351-3.427c0,0,2.606-1.756,2.707-1.836s3.172-1.807,3.172-1.807l1.932-1.497l1.24-1.958
	c1.261-0.569,1.382-2.775,1.382-2.775l1.345-1.37l2.002-1.291l1.21-0.991l4.384-0.618l2.329-0.607L52,18.5l2.484-0.787"/>
<polyline fill="none" stroke="#999999" stroke-width="2" stroke-linecap="round" stroke-linejoin="round" stroke-miterlimit="10" points="
	54.644,12.945 56.528,11.304 58.886,10.42 61.625,9.301 63.909,8.492 66.68,8 70,8 73,7.12 76.924,6.07 81,5.821 98.093,4.629 
	120.367,5.704 136,6.07 141.892,7.8 148.786,9.288 154.63,10.395 158.188,10.785 160.602,12.945 "/>
<path fill="none" stroke="#999999" stroke-width="2" stroke-linecap="round" stroke-linejoin="round" stroke-miterlimit="10" d="
	M160.616,17.713l2.841,0.52l3.125,1.267l3.932,1.459l2.09,1.24l1.569,1.732l0.714,2.042l0.434,2.561l3.451,3.032l2.946,0.612
	l2.735,1.479l1.432,1.422l1.219,1.423c0,0,0.676,0.424,0.813,1.409S188.273,40,188.273,40"/>
<path fill="none" stroke="#999999" stroke-width="2" stroke-linecap="round" stroke-linejoin="round" stroke-miterlimit="10" d="
	M188,45L188,45l3.324,1.687l2.791,1.48L196,49.634l1.864,2.791c0,0,0.141,1.439,0.216,2.075s0.871,3.738,0.871,3.738"/>
<path fill="none" stroke="#999999" stroke-width="2" stroke-linecap="round" stroke-linejoin="round" stroke-miterlimit="10" d="
	M198.08,62.704l1.658,0.677l1.895,2.059c0,0,1.474,1.557,1.589,1.902s1.2,1.517,1.2,1.517s0.756,1.692,0.758,1.987"/>
<polyline fill="none" stroke="#999999" stroke-width="2" stroke-linecap="round" stroke-linejoin="round" stroke-miterlimit="10" points="
	205.18,75.975 206.445,77.828 208.173,78.943 208.98,81.472 "/>
<path fill="#E6E6E6" stroke="#999999" stroke-linecap="round" stroke-linejoin="round" stroke-miterlimit="10" d="M113.688,0.88"/>
<rect x="113.5" y="0.5" fill="#CCCCCC" stroke="#999999" stroke-linecap="round" stroke-linejoin="round" stroke-miterlimit="10" width="8" height="10"/>
<rect x="93.5" y="0.5" fill="#CCCCCC" stroke="#999999" stroke-linecap="round" stroke-linejoin="round" stroke-miterlimit="10" width="8" height="10"/>
<rect x="76.5" y="2.5" fill="#CCCCCC" stroke="#999999" stroke-linecap="round" stroke-linejoin="round" stroke-miterlimit="10" width="7" height="9"/>
<rect x="131.5" y="2.5" fill="#CCCCCC" stroke="#999999" stroke-linecap="round" stroke-linejoin="round" stroke-miterlimit="10" width="7" height="9"/>
<polygon fill="#CCCCCC" stroke="#999999" stroke-linecap="round" stroke-linejoin="round" stroke-miterlimit="10" points="
	152.651,6.5 151.084,16.085 155.263,16.607 157.932,18.554 159.907,9.53 156.744,6.5 "/>
<path fill="#CCCCCC" stroke="#999999" stroke-linecap="round" stroke-linejoin="round" stroke-miterlimit="10" d="M63.213,4.629
	l1.027,11.241L59.388,16.5L57,18.554c0,0-1.061-9.596-1.056-9.767s2.22-3.287,2.22-3.287L63.213,4.629z"/>
<polygon fill="#CCCCCC" stroke="#999999" stroke-linecap="round" stroke-linejoin="round" stroke-miterlimit="10" points="
	168.111,16.5 166.582,25.973 171.559,27.04 172.938,28.856 173.529,20.341 171.918,17.713 "/>
<polygon fill="#CCCCCC" stroke="#999999" stroke-linecap="round" stroke-linejoin="round" stroke-miterlimit="10" points="47.5,26 
	47.5,15 43,15.986 41.25,18.5 41.31,28.856 43,26.106 "/>
<polygon fill="#CCCCCC" stroke="#999999" stroke-linecap="round" stroke-linejoin="round" stroke-miterlimit="10" points="
	32.805,27.864 33.5,38.465 29.25,41.198 28.5,43.599 27.5,33.656 28.612,30.494 "/>
<polygon fill="#CCCCCC" stroke="#999999" stroke-linecap="round" stroke-linejoin="round" stroke-miterlimit="10" points="
	181.455,28.856 180.318,37.91 185.178,38.998 185.885,41.363 187.104,32.574 185.885,30.149 "/>
<polygon fill="#CCCCCC" stroke="#999999" stroke-linecap="round" stroke-linejoin="round" stroke-miterlimit="10" points="
	21.542,43.599 22.269,53.35 18.295,54.5 17.223,56.567 16.089,49.198 17.223,46.083 "/>
<polygon fill="#CCCCCC" stroke="#999999" stroke-linecap="round" stroke-linejoin="round" stroke-miterlimit="10" points="
	193.476,45 190.698,55.208 195.218,56.847 195.846,59.208 198.08,50.66 196.855,48.167 "/>
<polygon fill="#CCCCCC" stroke="#999999" stroke-linecap="round" stroke-linejoin="round" stroke-miterlimit="10" points="
	14.356,70.48 11.296,61.917 10.121,65.44 9.43,70.48 11.894,74.466 "/>
<polyline fill="#CCCCCC" stroke="#999999" stroke-linecap="round" stroke-linejoin="round" stroke-miterlimit="10" points="
	200.459,70.48 202.531,62.453 205.088,63.381 204.373,72.219 200.459,71.343 "/>
<polygon fill="#CCCCCC" stroke="#999999" stroke-linecap="round" stroke-linejoin="round" stroke-miterlimit="10" points="
	9.43,83.282 7.588,75.246 5.141,78.584 7.285,87.5 "/>
<polygon fill="#CCCCCC" stroke="#999999" stroke-linecap="round" stroke-linejoin="round" stroke-miterlimit="10" points="
	207.08,74.718 204.488,84.24 207.828,84.5 208.98,77.5 "/>
<line fill="none" stroke="#999999" stroke-linecap="round" stroke-linejoin="round" stroke-miterlimit="10" x1="95.265" y1="2.5" x2="99.561" y2="7.8"/>
<line fill="none" stroke="#999999" stroke-linecap="round" stroke-linejoin="round" stroke-miterlimit="10" x1="99.561" y1="2.5" x2="95.675" y2="7.8"/>
<line fill="none" stroke="#999999" stroke-linecap="round" stroke-linejoin="round" stroke-miterlimit="10" x1="115.724" y1="2.5" x2="119.221" y2="7.8"/>
<line fill="none" stroke="#999999" stroke-linecap="round" stroke-linejoin="round" stroke-miterlimit="10" x1="119.221" y1="2.5" x2="115.373" y2="7.8"/>
<line fill="none" stroke="#999999" stroke-linecap="round" stroke-linejoin="round" stroke-miterlimit="10" x1="133.151" y1="4.446" x2="136.335" y2="8.787"/>
<line fill="none" stroke="#999999" stroke-linecap="round" stroke-linejoin="round" stroke-miterlimit="10" x1="136.335" y1="4.629" x2="133.151" y2="9.505"/>
<path fill="none" stroke="#999999" stroke-linecap="round" stroke-linejoin="round" stroke-miterlimit="10" d="M78.396,4.446
	c0.123,0.485,3.523,4.842,3.523,4.842"/>
<line fill="none" stroke="#999999" stroke-linecap="round" stroke-linejoin="round" stroke-miterlimit="10" x1="81.919" y1="4.446" x2="78.396" y2="9.288"/>
<line fill="none" stroke="#999999" stroke-linecap="round" stroke-linejoin="round" stroke-miterlimit="10" x1="58.165" y1="9.505" x2="61.696" y2="12.945"/>
<line fill="none" stroke="#999999" stroke-linecap="round" stroke-linejoin="round" stroke-miterlimit="10" x1="61.696" y1="7.8" x2="58.995" y2="14.432"/>
<path fill="none" stroke="#999999" stroke-linecap="round" stroke-linejoin="round" stroke-miterlimit="10" d="M46.5,16.966
	c-0.684,0.517-3.5,6.62-3.5,6.62"/>
<line fill="none" stroke="#999999" stroke-linecap="round" stroke-linejoin="round" stroke-miterlimit="10" x1="43" y1="18.554" x2="45.545" y2="22.678"/>
<line fill="none" stroke="#999999" stroke-linecap="round" stroke-linejoin="round" stroke-miterlimit="10" x1="27.557" y1="34.217" x2="32.69" y2="37.058"/>
<line fill="none" stroke="#999999" stroke-linecap="round" stroke-linejoin="round" stroke-miterlimit="10" x1="31.207" y1="30.264" x2="28.612" y2="39.613"/>
<line fill="none" stroke="#999999" stroke-linecap="round" stroke-linejoin="round" stroke-miterlimit="10" x1="16.782" y1="49.5" x2="21.578" y2="51.922"/>
<line fill="none" stroke="#999999" stroke-linecap="round" stroke-linejoin="round" stroke-miterlimit="10" x1="20.539" y1="46.083" x2="17.223" y2="54.5"/>
<line fill="none" stroke="#999999" stroke-linecap="round" stroke-linejoin="round" stroke-miterlimit="10" x1="10" y1="69.5" x2="14" y2="69.5"/>
<path fill="none" stroke="#999999" stroke-linecap="round" stroke-linejoin="round" stroke-miterlimit="10" d="M11.296,64
	c0.092,0.347,0.598,8.492,0.598,8.492"/>
<path fill="none" stroke="#999999" stroke-linecap="round" stroke-linejoin="round" stroke-miterlimit="10" d="M7.285,78.044
	c-0.042,0.466,0,7.085,0,7.085"/>
<line fill="none" stroke="#999999" stroke-linecap="round" stroke-linejoin="round" stroke-miterlimit="10" x1="8.5" y1="82.569" x2="5.973" y2="82.045"/>
<path fill="none" stroke="#999999" stroke-linecap="round" stroke-linejoin="round" stroke-miterlimit="10" d="M153.338,7.8
	c-0.32,0.471,3.406,8.7,3.406,8.7"/>
<path fill="none" stroke="#999999" stroke-linecap="round" stroke-linejoin="round" stroke-miterlimit="10" d="M152.651,14.432
	c0.136-0.519,6.832-4.927,6.832-4.927"/>
<path fill="none" stroke="#999999" stroke-linecap="round" stroke-linejoin="round" stroke-miterlimit="10" d="M169.26,18.554
	c-0.121,0.771,2.658,7.663,2.658,7.663"/>
<path fill="none" stroke="#999999" stroke-linecap="round" stroke-linejoin="round" stroke-miterlimit="10" d="M173.45,21.475
	c-0.005,0.065-5.743,3.492-5.743,3.492"/>
<path fill="none" stroke="#999999" stroke-linecap="round" stroke-linejoin="round" stroke-miterlimit="10" d="M182.61,31.07
	c0,0,2.78,8.642,2.931,9.144"/>
<path fill="none" stroke="#999999" stroke-linecap="round" stroke-linejoin="round" stroke-miterlimit="10" d="M180.762,37.058
	c0.352,0.23,6.342-3.756,6.342-3.756"/>
<path fill="none" stroke="#999999" stroke-linecap="round" stroke-linejoin="round" stroke-miterlimit="10" d="M191.324,54.5
	c0.383-0.055,6.54-2.578,6.54-2.578"/>
<line fill="none" stroke="#999999" stroke-linecap="round" stroke-linejoin="round" stroke-miterlimit="10" x1="193.395" y1="47.19" x2="195.846" y2="59.208"/>
<path fill="none" stroke="#999999" stroke-linecap="round" stroke-linejoin="round" stroke-miterlimit="10" d="M199.738,70.48
	c0.721,0,5.029-3.145,5.029-3.145"/>
<path fill="none" stroke="#999999" stroke-linecap="round" stroke-linejoin="round" stroke-miterlimit="10" d="M202.773,63.381
	c0.103,0.506,1.715,6.119,1.715,6.119"/>
<line fill="#CCCCCC" stroke="#999999" stroke-linecap="round" stroke-linejoin="round" stroke-miterlimit="10" x1="205.189" y1="83.282" x2="208.98" y2="77.5"/>
<line fill="none" stroke="#999999" stroke-width="2" stroke-linecap="round" stroke-linejoin="round" stroke-miterlimit="10" x1="206.734" y1="76.5" x2="208.232" y2="82.045"/>
<polyline fill="none" stroke="#999999" stroke-width="2" stroke-linecap="round" stroke-linejoin="round" stroke-miterlimit="10" points="
	7.236,173.832 9.43,181.903 15.061,187.698 "/>
<path fill="none" stroke="#999999" stroke-width="2" stroke-linecap="round" stroke-linejoin="round" stroke-miterlimit="10" d="
	M13.943,192.198l2.271,6.743c0,0,3.038,5.553,3.602,5.791s3.713,3.26,3.713,3.26"/>
<path fill="none" stroke="#999999" stroke-width="2" stroke-linecap="round" stroke-linejoin="round" stroke-miterlimit="10" d="
	M23.354,211.67l1.222,5.916c0,0,1.841,4.475,2.052,5.043s3.282,5.116,3.282,5.116l4.859,1.188l3.644,1.284"/>
<polyline fill="none" stroke="#999999" stroke-width="2" stroke-linecap="round" stroke-linejoin="round" stroke-miterlimit="10" points="
	38.854,232.366 41.587,236.643 44.655,238.454 47.874,239.571 "/>
<path fill="none" stroke="#999999" stroke-width="2" stroke-linecap="round" stroke-linejoin="round" stroke-miterlimit="10" d="
	M49.661,242.559c0,0,0.56,1.984,1.559,2.617s5.361,2.229,5.361,2.229l4.325,1.173l3.334,0.118l28.044,4.263L122,253.122
	l28.984-4.545l10.052-2.138l3.927-5.485l8.393-1.689l3.703-6.898l5.072-5.968l6.201-4.332l3.957-8.738"/>
<polyline fill="none" stroke="#999999" stroke-width="2" stroke-linecap="round" stroke-linejoin="round" stroke-miterlimit="10" points="
	189.789,206.686 196,199.666 199.146,191.113 "/>
<polyline fill="#CCCCCC" stroke="#999999" stroke-width="2" stroke-linecap="round" stroke-linejoin="round" stroke-miterlimit="10" points="
	197.832,186.741 202.253,182.37 205.361,172.643 206.023,170.5 "/>
<rect x="110.5" y="248.5" fill="#CCCCCC" stroke="#999999" stroke-linecap="round" stroke-linejoin="round" stroke-miterlimit="10" width="9" height="11"/>
<rect x="95.5" y="248.5" fill="#CCCCCC" stroke="#999999" stroke-linecap="round" stroke-linejoin="round" stroke-miterlimit="10" width="8" height="11"/>
<rect x="81.5" y="247.5" fill="#CCCCCC" stroke="#999999" stroke-linecap="round" stroke-linejoin="round" stroke-miterlimit="10" width="8" height="11"/>
<rect x="126.5" y="247.5" fill="#CCCCCC" stroke="#999999" stroke-linecap="round" stroke-linejoin="round" stroke-miterlimit="10" width="7" height="11"/>
<polygon fill="#CCCCCC" stroke="#999999" stroke-linecap="round" stroke-linejoin="round" stroke-miterlimit="10" points="
	156.344,242.073 156.52,252.922 161.232,251.541 163.5,248.621 163.5,238 159.922,241.273 "/>
<path fill="#CCCCCC" stroke="#999999" stroke-linecap="round" stroke-linejoin="round" stroke-miterlimit="10" d="M168.708,233.1
	c0.001,0.032,0.005,0.107,0.014,0.22c0.112,1.63,0.936,11.181,0.936,11.181H173l2.662-4.618l-0.391-9.425l-2.771,2.768
	L168.708,233.1z"/>
<polygon fill="#CCCCCC" stroke="#999999" stroke-linecap="round" stroke-linejoin="round" stroke-miterlimit="10" points="
	45.732,233.832 45.409,244.458 41.321,243.369 39.62,239.913 40.277,230.218 42.676,232.5 "/>
<path fill="#CCCCCC" stroke="#999999" stroke-linecap="round" stroke-linejoin="round" stroke-miterlimit="10" d="M31.647,232.221
	c-0.125-0.655,1.904-11.277,1.904-11.277l-3.548-0.444l-3.988-7.818l-2.736,13.704l2.736,5.419l4.867,0.417"/>
<path fill="#CCCCCC" stroke="#999999" stroke-linecap="round" stroke-linejoin="round" stroke-miterlimit="10" d="M19.815,209.101
	c0.001-0.072,1.464-11.385,1.465-11.385l-2.904-7.62L16.791,202l2.286,6.212"/>
<path fill="#CCCCCC" stroke="#999999" stroke-linecap="round" stroke-linejoin="round" stroke-miterlimit="10" d="M12.314,190.096
	c0.597-1.241,1.962-11.292,1.962-11.292l-1.962-3.362l-0.902-4.705l-3.425,14.678l1.023,2.77L12.314,190.096z"/>
<path fill="#CCCCCC" stroke="#999999" stroke-linecap="round" stroke-linejoin="round" stroke-miterlimit="10" d="M182.651,218.395
	c0.147,0.405,1.63,13.826,1.63,13.826l4.051-2.752l3.422-8.013l-1.965-11.604l-3.586,5.606L182.651,218.395z"/>
<path fill="#CCCCCC" stroke="#999999" stroke-linecap="round" stroke-linejoin="round" stroke-miterlimit="10" d="M191.936,195.994
	c0.05,0.854,2.808,11.233,2.808,11.233l3.089-2.405l2.339-6.662l-2.964-9.021l-2.464,5.68l-1.927,0.608"/>
<path fill="#CCCCCC" stroke="#999999" stroke-linecap="round" stroke-linejoin="round" stroke-miterlimit="10" d="M199.146,179.33
	c0.237,0.338,2.468,9.883,2.468,9.883l2.567-1.515l1.181-5.279c0,0-1.277-9.052-1.361-9.719s-2.072,3.878-2.072,3.878
	L199.146,179.33z"/>
<polygon fill="#CCCCCC" stroke="#999999" stroke-linecap="round" stroke-linejoin="round" stroke-miterlimit="10" points="
	66.96,243.369 67.249,255.545 70.834,256.857 73.78,256.096 73.114,244.5 70.188,245.461 "/>
<path fill="#CCCCCC" stroke="#999999" stroke-linecap="round" stroke-linejoin="round" stroke-miterlimit="10" d="M141.5,258
	l4.137,0.5l2.863-4.141V243c0,0-3.6,2.278-3.5,2.461s-2.776-0.836-2.776-0.836L141.5,258z"/>
<path fill="#CCCCCC" stroke="#999999" stroke-linecap="round" stroke-linejoin="round" stroke-miterlimit="10" d="M52.5,237v12
	c0,0,0.876,3.085,1.224,3.443s7.744-1.693,7.744-1.693l-0.92-11.179c0,0-4.723,0.515-5.063,0.311S52.5,237,52.5,237z"/>
<path fill="#CCCCCC" stroke="#999999" stroke-linecap="round" stroke-linejoin="round" stroke-miterlimit="10" d="M97.528,250.514
	c-0.031,0.379,3.538,6.344,3.538,6.344"/>
<line fill="#CCCCCC" stroke="#999999" stroke-linecap="round" stroke-linejoin="round" stroke-miterlimit="10" x1="97" y1="256.857" x2="101.954" y2="250.113"/>
<line fill="#CCCCCC" stroke="#999999" stroke-linecap="round" stroke-linejoin="round" stroke-miterlimit="10" x1="112.172" y1="250.584" x2="117.307" y2="256.857"/>
<line fill="#CCCCCC" stroke="#999999" stroke-linecap="round" stroke-linejoin="round" stroke-miterlimit="10" x1="112.172" y1="256.857" x2="117.307" y2="250.124"/>
<line fill="#CCCCCC" stroke="#999999" stroke-linecap="round" stroke-linejoin="round" stroke-miterlimit="10" x1="128.401" y1="250.124" x2="131.476" y2="255.426"/>
<path fill="#CCCCCC" stroke="#999999" stroke-linecap="round" stroke-linejoin="round" stroke-miterlimit="10" d="M128.401,256.096
	c0.114-0.312,3.458-6.434,3.458-6.434"/>
<line fill="#CCCCCC" stroke="#999999" stroke-linecap="round" stroke-linejoin="round" stroke-miterlimit="10" x1="83.978" y1="249.662" x2="87.545" y2="256.096"/>
<line fill="#CCCCCC" stroke="#999999" stroke-linecap="round" stroke-linejoin="round" stroke-miterlimit="10" x1="83.415" y1="256.096" x2="87.724" y2="250.113"/>
<line fill="#CCCCCC" stroke="#999999" stroke-linecap="round" stroke-linejoin="round" stroke-miterlimit="10" x1="67.91" y1="245.461" x2="72.682" y2="253.721"/>
<line fill="#CCCCCC" stroke="#999999" stroke-linecap="round" stroke-linejoin="round" stroke-miterlimit="10" x1="67.91" y1="254.257" x2="72.2" y2="245.461"/>
<line fill="#CCCCCC" stroke="#999999" stroke-linecap="round" stroke-linejoin="round" stroke-miterlimit="10" x1="142.608" y1="246.955" x2="148.271" y2="252.485"/>
<line fill="#CCCCCC" stroke="#999999" stroke-linecap="round" stroke-linejoin="round" stroke-miterlimit="10" x1="142.224" y1="256.857" x2="147.886" y2="246.137"/>
<line fill="#CCCCCC" stroke="#999999" stroke-linecap="round" stroke-linejoin="round" stroke-miterlimit="10" x1="157.029" y1="252.485" x2="163" y2="241.801"/>
<line fill="#CCCCCC" stroke="#999999" stroke-linecap="round" stroke-linejoin="round" stroke-miterlimit="10" x1="156.512" y1="243.369" x2="163.5" y2="246.137"/>
<line fill="#CCCCCC" stroke="#999999" stroke-linecap="round" stroke-linejoin="round" stroke-miterlimit="10" x1="168.722" y1="233.319" x2="175.5" y2="237"/>
<line fill="#CCCCCC" stroke="#999999" stroke-linecap="round" stroke-linejoin="round" stroke-miterlimit="10" x1="169.657" y1="244.5" x2="175.271" y2="234.383"/>
<line fill="#CCCCCC" stroke="#999999" stroke-linecap="round" stroke-linejoin="round" stroke-miterlimit="10" x1="184.281" y1="231.348" x2="189.789" y2="213.671"/>
<line fill="#CCCCCC" stroke="#999999" stroke-linecap="round" stroke-linejoin="round" stroke-miterlimit="10" x1="183.104" y1="218.427" x2="191.124" y2="217.996"/>
<line fill="#CCCCCC" stroke="#999999" stroke-linecap="round" stroke-linejoin="round" stroke-miterlimit="10" x1="192.162" y1="195.428" x2="199.469" y2="196.022"/>
<line fill="#CCCCCC" stroke="#999999" stroke-linecap="round" stroke-linejoin="round" stroke-miterlimit="10" x1="194.467" y1="206.184" x2="198.035" y2="194.133"/>
<polyline fill="#CCCCCC" stroke="#999999" stroke-linecap="round" stroke-linejoin="round" stroke-miterlimit="10" points="
	201.371,188.184 204.785,178.324 199.146,179.33 "/>
<line fill="#CCCCCC" stroke="#999999" stroke-linecap="round" stroke-linejoin="round" stroke-miterlimit="10" x1="60.547" y1="239.571" x2="52.5" y2="246.137"/>
<line fill="#CCCCCC" stroke="#999999" stroke-linecap="round" stroke-linejoin="round" stroke-miterlimit="10" x1="61.468" y1="250.75" x2="52.804" y2="241.092"/>
<line fill="#CCCCCC" stroke="#999999" stroke-linecap="round" stroke-linejoin="round" stroke-miterlimit="10" x1="45.409" y1="244.458" x2="40.277" y2="233.319"/>
<line fill="#CCCCCC" stroke="#999999" stroke-linecap="round" stroke-linejoin="round" stroke-miterlimit="10" x1="45.732" y1="233.832" x2="39.706" y2="238.648"/>
<line fill="#CCCCCC" stroke="#999999" stroke-linecap="round" stroke-linejoin="round" stroke-miterlimit="10" x1="31.647" y1="231.348" x2="25.617" y2="217.284"/>
<path fill="#CCCCCC" stroke="#999999" stroke-linecap="round" stroke-linejoin="round" stroke-miterlimit="10" d="M33.552,220.943
	c0,0-9.078,1.344-9.251,1.271"/>
<line fill="#CCCCCC" stroke="#999999" stroke-linecap="round" stroke-linejoin="round" stroke-miterlimit="10" x1="21.28" y1="197.716" x2="17.45" y2="199.598"/>
<line fill="#CCCCCC" stroke="#999999" stroke-linecap="round" stroke-linejoin="round" stroke-miterlimit="10" x1="19.365" y1="209.101" x2="17.904" y2="195.606"/>
<line fill="#CCCCCC" stroke="#999999" stroke-linecap="round" stroke-linejoin="round" stroke-miterlimit="10" x1="12.076" y1="189.14" x2="9.797" y2="177.659"/>
<line fill="#CCCCCC" stroke="#999999" stroke-linecap="round" stroke-linejoin="round" stroke-miterlimit="10" x1="14.277" y1="178.804" x2="9.448" y2="180.766"/>
<g>
</g>
<g>
</g>
<g>
</g>
<g>
</g>
<g>
</g>
<g>
</g>
<g>
</g>
<g>
</g>
<g>
</g>
<g>
</g>
<g>
</g>
<g>
</g>
<g>
</g>
<g>
</g>
<g>
</g>
</svg>
