<?xml version="1.0" encoding="utf-8"?>
<!-- Generator: Adobe Illustrator 16.0.0, SVG Export Plug-In . SVG Version: 6.00 Build 0)  -->
<!DOCTYPE svg PUBLIC "-//W3C//DTD SVG 1.1//EN" "http://www.w3.org/Graphics/SVG/1.1/DTD/svg11.dtd">
<svg version="1.1" id="Слой_1" xmlns="http://www.w3.org/2000/svg" xmlns:xlink="http://www.w3.org/1999/xlink" x="0px" y="0px"
	 width="214px" height="130px" viewBox="0 0 214 130" enable-background="new 0 0 214 130" xml:space="preserve">
<polyline fill="none" stroke="#999999" stroke-linecap="round" stroke-linejoin="round" stroke-miterlimit="10" points="
	5.81,104.768 7.127,100.5 9,100.5 10.352,92.594 11.667,87.75 14.356,85.688 16.782,85.156 "/>
<polyline fill="none" stroke="#999999" stroke-width="2" stroke-linecap="round" stroke-linejoin="round" stroke-miterlimit="10" points="
	14.671,75.5 16.214,71.979 18.809,69.688 20.539,67.688 23.999,66 25.732,65.084 "/>
<path fill="none" stroke="#999999" stroke-width="2" stroke-linecap="round" stroke-linejoin="round" stroke-miterlimit="10" d="
	M26.149,58.91l2.351-3.427c0,0,2.606-1.756,2.707-1.836s3.172-1.807,3.172-1.807l1.932-1.497l1.24-1.958
	c1.261-0.569,1.382-2.775,1.382-2.775l1.345-1.37l2.002-1.291l1.21-0.991l4.384-0.618l2.329-0.607L52,39.5l2.484-0.787"/>
<polyline fill="none" stroke="#999999" stroke-width="2" stroke-linecap="round" stroke-linejoin="round" stroke-miterlimit="10" points="
	54.644,33.945 56.528,32.304 58.886,31.42 61.625,30.301 63.909,29.492 66.68,29 70,29 73,28.12 76.924,27.07 81,26.821 
	98.093,25.629 120.367,26.704 136,27.07 141.892,28.8 148.786,30.288 154.63,31.395 158.188,31.785 160.602,33.945 "/>
<path fill="none" stroke="#999999" stroke-width="2" stroke-linecap="round" stroke-linejoin="round" stroke-miterlimit="10" d="
	M160.616,38.713l2.841,0.52l3.125,1.267l3.932,1.459l2.09,1.24l1.569,1.732l0.714,2.042l0.434,2.561l3.451,3.032l2.946,0.612
	l2.735,1.479l1.432,1.422l1.219,1.423c0,0,0.676,0.424,0.813,1.409S188.273,61,188.273,61"/>
<path fill="none" stroke="#999999" stroke-width="2" stroke-linecap="round" stroke-linejoin="round" stroke-miterlimit="10" d="
	M188,66L188,66l3.324,1.688l2.791,1.479L196,70.635l1.864,2.791c0,0,0.141,1.438,0.216,2.074s0.871,3.738,0.871,3.738"/>
<path fill="none" stroke="#999999" stroke-width="2" stroke-linecap="round" stroke-linejoin="round" stroke-miterlimit="10" d="
	M198.08,83.704l1.658,0.677l1.895,2.059c0,0,1.474,1.558,1.589,1.902s1.2,1.517,1.2,1.517s0.756,1.692,0.758,1.987"/>
<polyline fill="none" stroke="#999999" stroke-width="2" stroke-linecap="round" stroke-linejoin="round" stroke-miterlimit="10" points="
	205.18,96.975 206.445,98.828 208.173,99.943 208.98,102.472 "/>
<rect x="113.5" y="21.5" fill="#CCCCCC" stroke="#999999" stroke-linecap="round" stroke-linejoin="round" stroke-miterlimit="10" width="8" height="10"/>
<rect x="93.5" y="21.5" fill="#CCCCCC" stroke="#999999" stroke-linecap="round" stroke-linejoin="round" stroke-miterlimit="10" width="8" height="10"/>
<rect x="76.5" y="23.5" fill="#CCCCCC" stroke="#999999" stroke-linecap="round" stroke-linejoin="round" stroke-miterlimit="10" width="7" height="9"/>
<rect x="131.5" y="23.5" fill="#CCCCCC" stroke="#999999" stroke-linecap="round" stroke-linejoin="round" stroke-miterlimit="10" width="7" height="9"/>
<polygon fill="#CCCCCC" stroke="#999999" stroke-linecap="round" stroke-linejoin="round" stroke-miterlimit="10" points="
	152.651,27.5 151.084,37.085 155.263,37.607 157.932,39.554 159.907,30.53 156.744,27.5 "/>
<path fill="#CCCCCC" stroke="#999999" stroke-linecap="round" stroke-linejoin="round" stroke-miterlimit="10" d="M63.213,25.629
	l1.027,11.241L59.388,37.5L57,39.554c0,0-1.061-9.596-1.056-9.767s2.22-3.287,2.22-3.287L63.213,25.629z"/>
<polygon fill="#CCCCCC" stroke="#999999" stroke-linecap="round" stroke-linejoin="round" stroke-miterlimit="10" points="
	168.111,37.5 166.582,46.973 171.559,48.04 172.938,49.856 173.529,41.341 171.918,38.713 "/>
<polygon fill="#CCCCCC" stroke="#999999" stroke-linecap="round" stroke-linejoin="round" stroke-miterlimit="10" points="47.5,47 
	47.5,36 43,36.986 41.25,39.5 41.31,49.856 43,47.106 "/>
<polygon fill="#CCCCCC" stroke="#999999" stroke-linecap="round" stroke-linejoin="round" stroke-miterlimit="10" points="
	32.805,48.864 33.5,59.465 29.25,62.198 28.5,64.599 27.5,54.656 28.612,51.494 "/>
<polygon fill="#CCCCCC" stroke="#999999" stroke-linecap="round" stroke-linejoin="round" stroke-miterlimit="10" points="
	181.455,49.856 180.318,58.91 185.178,59.998 185.885,62.363 187.104,53.574 185.885,51.149 "/>
<polygon fill="#CCCCCC" stroke="#999999" stroke-linecap="round" stroke-linejoin="round" stroke-miterlimit="10" points="
	21.542,64.599 22.269,74.35 18.295,75.5 17.223,77.566 16.089,70.197 17.223,67.084 "/>
<polygon fill="#CCCCCC" stroke="#999999" stroke-linecap="round" stroke-linejoin="round" stroke-miterlimit="10" points="
	193.476,66 190.698,76.209 195.218,77.847 195.846,80.209 198.08,71.66 196.855,69.167 "/>
<polygon fill="#CCCCCC" stroke="#999999" stroke-linecap="round" stroke-linejoin="round" stroke-miterlimit="10" points="
	14.356,91.48 11.296,82.917 10.121,86.439 9.43,91.48 11.894,95.467 "/>
<polyline fill="#CCCCCC" stroke="#999999" stroke-linecap="round" stroke-linejoin="round" stroke-miterlimit="10" points="
	200.459,91.48 202.531,83.453 205.088,84.381 204.373,93.219 200.459,92.344 "/>
<polygon fill="#CCCCCC" stroke="#999999" stroke-linecap="round" stroke-linejoin="round" stroke-miterlimit="10" points="
	9.43,104.282 7.588,96.246 5.141,99.584 7.285,108.5 "/>
<polygon fill="#CCCCCC" stroke="#999999" stroke-linecap="round" stroke-linejoin="round" stroke-miterlimit="10" points="
	207.08,95.719 204.488,105.24 207.828,105.5 208.98,98.5 "/>
<line fill="none" stroke="#999999" stroke-linecap="round" stroke-linejoin="round" stroke-miterlimit="10" x1="95.265" y1="23.5" x2="99.561" y2="28.8"/>
<line fill="none" stroke="#999999" stroke-linecap="round" stroke-linejoin="round" stroke-miterlimit="10" x1="99.561" y1="23.5" x2="95.675" y2="28.8"/>
<line fill="none" stroke="#999999" stroke-linecap="round" stroke-linejoin="round" stroke-miterlimit="10" x1="115.724" y1="23.5" x2="119.221" y2="28.8"/>
<line fill="none" stroke="#999999" stroke-linecap="round" stroke-linejoin="round" stroke-miterlimit="10" x1="119.221" y1="23.5" x2="115.373" y2="28.8"/>
<line fill="none" stroke="#999999" stroke-linecap="round" stroke-linejoin="round" stroke-miterlimit="10" x1="133.151" y1="25.446" x2="136.335" y2="29.787"/>
<line fill="none" stroke="#999999" stroke-linecap="round" stroke-linejoin="round" stroke-miterlimit="10" x1="136.335" y1="25.629" x2="133.151" y2="30.505"/>
<path fill="none" stroke="#999999" stroke-linecap="round" stroke-linejoin="round" stroke-miterlimit="10" d="M78.396,25.446
	c0.123,0.485,3.523,4.842,3.523,4.842"/>
<line fill="none" stroke="#999999" stroke-linecap="round" stroke-linejoin="round" stroke-miterlimit="10" x1="81.919" y1="25.446" x2="78.396" y2="30.288"/>
<line fill="none" stroke="#999999" stroke-linecap="round" stroke-linejoin="round" stroke-miterlimit="10" x1="58.165" y1="30.505" x2="61.696" y2="33.945"/>
<line fill="none" stroke="#999999" stroke-linecap="round" stroke-linejoin="round" stroke-miterlimit="10" x1="61.696" y1="28.8" x2="58.995" y2="35.432"/>
<path fill="none" stroke="#999999" stroke-linecap="round" stroke-linejoin="round" stroke-miterlimit="10" d="M46.5,37.966
	c-0.684,0.517-3.5,6.62-3.5,6.62"/>
<line fill="none" stroke="#999999" stroke-linecap="round" stroke-linejoin="round" stroke-miterlimit="10" x1="43" y1="39.554" x2="45.545" y2="43.678"/>
<line fill="none" stroke="#999999" stroke-linecap="round" stroke-linejoin="round" stroke-miterlimit="10" x1="27.557" y1="55.217" x2="32.69" y2="58.058"/>
<line fill="none" stroke="#999999" stroke-linecap="round" stroke-linejoin="round" stroke-miterlimit="10" x1="31.207" y1="51.264" x2="28.612" y2="60.613"/>
<line fill="none" stroke="#999999" stroke-linecap="round" stroke-linejoin="round" stroke-miterlimit="10" x1="16.782" y1="70.5" x2="21.578" y2="72.922"/>
<line fill="none" stroke="#999999" stroke-linecap="round" stroke-linejoin="round" stroke-miterlimit="10" x1="20.539" y1="67.084" x2="17.223" y2="75.5"/>
<line fill="none" stroke="#999999" stroke-linecap="round" stroke-linejoin="round" stroke-miterlimit="10" x1="10" y1="90.5" x2="14" y2="90.5"/>
<path fill="none" stroke="#999999" stroke-linecap="round" stroke-linejoin="round" stroke-miterlimit="10" d="M11.296,85
	c0.092,0.348,0.598,8.492,0.598,8.492"/>
<path fill="none" stroke="#999999" stroke-linecap="round" stroke-linejoin="round" stroke-miterlimit="10" d="M7.285,99.044
	c-0.042,0.466,0,7.085,0,7.085"/>
<line fill="none" stroke="#999999" stroke-linecap="round" stroke-linejoin="round" stroke-miterlimit="10" x1="8.5" y1="103.568" x2="5.973" y2="103.045"/>
<path fill="none" stroke="#999999" stroke-linecap="round" stroke-linejoin="round" stroke-miterlimit="10" d="M153.338,28.8
	c-0.32,0.471,3.406,8.7,3.406,8.7"/>
<path fill="none" stroke="#999999" stroke-linecap="round" stroke-linejoin="round" stroke-miterlimit="10" d="M152.651,35.432
	c0.136-0.519,6.832-4.927,6.832-4.927"/>
<path fill="none" stroke="#999999" stroke-linecap="round" stroke-linejoin="round" stroke-miterlimit="10" d="M169.26,39.554
	c-0.121,0.771,2.658,7.663,2.658,7.663"/>
<path fill="none" stroke="#999999" stroke-linecap="round" stroke-linejoin="round" stroke-miterlimit="10" d="M173.45,42.475
	c-0.005,0.065-5.743,3.492-5.743,3.492"/>
<path fill="none" stroke="#999999" stroke-linecap="round" stroke-linejoin="round" stroke-miterlimit="10" d="M182.61,52.07
	c0,0,2.78,8.642,2.931,9.144"/>
<path fill="none" stroke="#999999" stroke-linecap="round" stroke-linejoin="round" stroke-miterlimit="10" d="M180.762,58.058
	c0.352,0.23,6.342-3.756,6.342-3.756"/>
<path fill="none" stroke="#999999" stroke-linecap="round" stroke-linejoin="round" stroke-miterlimit="10" d="M191.324,75.5
	c0.383-0.055,6.54-2.578,6.54-2.578"/>
<line fill="none" stroke="#999999" stroke-linecap="round" stroke-linejoin="round" stroke-miterlimit="10" x1="193.395" y1="68.19" x2="195.846" y2="80.209"/>
<path fill="none" stroke="#999999" stroke-linecap="round" stroke-linejoin="round" stroke-miterlimit="10" d="M199.738,91.48
	c0.721,0,5.029-3.145,5.029-3.145"/>
<path fill="none" stroke="#999999" stroke-linecap="round" stroke-linejoin="round" stroke-miterlimit="10" d="M202.773,84.381
	c0.103,0.506,1.715,6.119,1.715,6.119"/>
<line fill="#CCCCCC" stroke="#999999" stroke-linecap="round" stroke-linejoin="round" stroke-miterlimit="10" x1="205.189" y1="104.282" x2="208.98" y2="98.5"/>
<line fill="none" stroke="#999999" stroke-width="2" stroke-linecap="round" stroke-linejoin="round" stroke-miterlimit="10" x1="206.734" y1="97.5" x2="208.232" y2="103.045"/>
<g>
</g>
<g>
</g>
<g>
</g>
<g>
</g>
<g>
</g>
<g>
</g>
<g>
</g>
<g>
</g>
<g>
</g>
<g>
</g>
<g>
</g>
<g>
</g>
<g>
</g>
<g>
</g>
<g>
</g>
</svg>
