<?xml version="1.0" encoding="utf-8"?>
<!-- Generator: Adobe Illustrator 16.0.0, SVG Export Plug-In . SVG Version: 6.00 Build 0)  -->
<!DOCTYPE svg PUBLIC "-//W3C//DTD SVG 1.1//EN" "http://www.w3.org/Graphics/SVG/1.1/DTD/svg11.dtd">
<svg version="1.1" id="Слой_1" xmlns="http://www.w3.org/2000/svg" xmlns:xlink="http://www.w3.org/1999/xlink" x="0px" y="0px"
	 width="42px" height="42px" viewBox="0 0 42 42" enable-background="new 0 0 42 42" xml:space="preserve">
<path fill="#A6A674" stroke="#000000" stroke-miterlimit="10" d="M12.5,33.583c0.353,0.731,2.265,1.473,3.333,1.917
	s9.191,0.148,10.167,0s4.025-2.111,4.5-2.834c0.475-0.721,0.562-16.81,0-18.666S26,7.167,26,7.167s-0.479-1.867-4.542-2
	C17.396,5.033,16.542,6.5,16.542,6.5s-3.654,4.368-4.042,6.167S12.147,32.852,12.5,33.583z"/>
<g>
	<g>
		<g>
			<path opacity="0.1091" fill="#754C24" d="M23.262,10.97c0.396,0-1.069-1.956-1.594-1.956C21.274,9.015,22.736,10.97,23.262,10.97
				z"/>
			<path opacity="0.1091" fill="#754C24" d="M21.924,9.88c0.473,0-0.54-1.271-0.914-1.271C20.539,8.609,21.552,9.88,21.924,9.88z"/>
			<path opacity="0.1091" fill="#754C24" d="M22.374,8.711c0.235,0,0.414-0.481,0.077-0.481C22.218,8.23,22.039,8.711,22.374,8.711z
				"/>
			<path opacity="0.1091" fill="#754C24" d="M22.958,9.571c0.407,0-0.992-1.808-1.489-1.808C21.061,7.764,22.46,9.571,22.958,9.571z
				"/>
			<path opacity="0.1091" fill="#754C24" d="M23.058,8.393c0.475,0,0.198-0.68-0.134-0.68C22.449,7.713,22.726,8.393,23.058,8.393z"
				/>
			<path opacity="0.1091" fill="#754C24" d="M21.502,9.681c0.29,0,0.391-0.521,0.048-0.521C21.26,9.16,21.16,9.681,21.502,9.681z"/>
			<path opacity="0.1091" fill="#754C24" d="M22.395,10.986c0.463,0-0.69-1.481-1.1-1.481C20.832,9.505,21.984,10.986,22.395,10.986
				z"/>
			<path opacity="0.1091" fill="#754C24" d="M23.703,9.491c0.411,0-0.96-1.734-1.445-1.734C21.847,7.756,23.217,9.491,23.703,9.491z
				"/>
			<path opacity="0.1091" fill="#754C24" d="M21.829,9.076c0.366,0,0.326-0.582-0.017-0.582C21.445,8.494,21.485,9.076,21.829,9.076
				z"/>
			<path opacity="0.1091" fill="#754C24" d="M22.53,8.731c0.467,0-0.352-1.003-0.688-1.003C21.377,7.728,22.195,8.731,22.53,8.731z"
				/>
			<path opacity="0.1091" fill="#754C24" d="M23.708,10.32c0.371,0-1.159-2.033-1.714-2.033C21.623,8.287,23.153,10.32,23.708,10.32
				z"/>
			<path opacity="0.1091" fill="#754C24" d="M21.466,10.159c0.508,0,0.184-0.718-0.14-0.718
				C20.817,9.441,21.142,10.159,21.466,10.159z"/>
		</g>
	</g>
</g>
<g>
	<g>
		<g>
			<path opacity="0.1091" fill="#754C24" d="M21.085,9.696c-1.55,0.657-3.042,1.428-4.474,2.314c0.143-0.082,0.33-0.087,0.474-0.169
				c1.433-0.886,2.923-1.657,4.473-2.313C21.408,9.599,21.236,9.625,21.085,9.696z"/>
			<path opacity="0.1091" fill="#754C24" d="M20.139,8.613c-1.552,0.655-3.045,1.426-4.478,2.312
				c0.003-0.003,0.256,0.432,0.264,0.428c1.434-0.886,2.926-1.657,4.478-2.312C20.389,9.046,20.16,8.604,20.139,8.613z"/>
			<path opacity="0.1091" fill="#754C24" d="M20.173,7.328c-3.031,1.416-1.565,0.66-4.489,2.313
				c0.146-0.083,0.317-0.116,0.462-0.198c1.489-0.767,2.977-1.534,4.465-2.3C20.532,7.179,20.299,7.268,20.173,7.328z"/>
			<path opacity="0.1091" fill="#754C24" d="M21.281,8.222c-1.559,0.613-3.046,1.366-4.465,2.259
				c-0.068,0.037,0.176,0.479,0.238,0.443c1.344-0.824,2.736-1.557,4.176-2.202C21.308,8.684,21.205,8.256,21.281,8.222z"/>
			<path opacity="0.1091" fill="#754C24" d="M21.041,7.051c-1.55,0.653-3.042,1.423-4.475,2.306c0.101-0.057,0.38,0.198,0.484,0.14
				c1.431-0.885,2.923-1.653,4.474-2.306C21.411,7.243,21.156,6.997,21.041,7.051z"/>
			<path opacity="0.1091" fill="#754C24" d="M19.62,8.008c-1.552,0.655-3.045,1.424-4.478,2.31c-0.09,0.05,0.02,0.449-0.068,0.499
				c1.434-0.885,2.926-1.654,4.479-2.31C19.636,8.468,19.54,8.046,19.62,8.008z"/>
			<path opacity="0.1091" fill="#754C24" d="M20.336,9.69c-1.551,0.658-3.043,1.429-4.476,2.314c0.105-0.06,0.381,0.181,0.489,0.12
				c1.433-0.886,2.924-1.657,4.475-2.314C20.708,9.866,20.454,9.635,20.336,9.69z"/>
			<path opacity="0.1091" fill="#754C24" d="M21.869,8.051c-1.55,0.656-3.039,1.426-4.472,2.31
				c-0.057,0.032,0.119,0.469,0.068,0.499c1.431-0.885,2.921-1.654,4.47-2.31C21.985,8.527,21.827,8.071,21.869,8.051z"/>
			<path opacity="0.1091" fill="#754C24" d="M20.139,7.532c-1.552,0.655-3.043,1.424-4.478,2.309
				c-0.134,0.076-0.173,0.324-0.306,0.399c1.434-0.885,2.926-1.654,4.478-2.308C19.97,7.869,20.006,7.595,20.139,7.532z"/>
			<path opacity="0.1091" fill="#754C24" d="M20.583,7.669c-1.552,0.655-3.043,1.423-4.476,2.307
				c0.133-0.075,0.368,0.03,0.501-0.045c1.433-0.883,2.925-1.653,4.476-2.306C20.943,7.691,20.727,7.602,20.583,7.669z"/>
			<path opacity="0.1091" fill="#754C24" d="M21.924,8.786c-1.55,0.656-3.041,1.427-4.472,2.312c-0.13,0.075-0.143,0.353-0.27,0.425
				c1.431-0.884,2.922-1.655,4.472-2.311C21.783,9.15,21.798,8.846,21.924,8.786z"/>
			<path opacity="0.1091" fill="#754C24" d="M19.599,8.623c-1.553,0.656-3.045,1.427-4.479,2.312
				c-0.028,0.015,0.191,0.461,0.166,0.475c1.434-0.884,2.926-1.655,4.479-2.31C19.782,9.091,19.585,8.63,19.599,8.623z"/>
		</g>
	</g>
</g>
<g>
	<g>
		<g>
			<path opacity="0.1091" fill="#754C24" d="M21.649,11.905c-1.492,0.76-2.867,1.693-4.124,2.8c0.125-0.097,0.348-0.07,0.475-0.169
				c1.255-1.107,2.629-2.04,4.123-2.8C21.982,11.819,21.792,11.82,21.649,11.905z"/>
			<path opacity="0.1091" fill="#754C24" d="M22.882,9.624c-2.213,1.212-4.239,2.397-6.234,3.949
				c-0.045,0.034,0.247,0.443,0.27,0.425c1.993-1.55,4.017-2.735,6.229-3.946C23.141,10.054,22.892,9.618,22.882,9.624z"/>
			<path opacity="0.1091" fill="#754C24" d="M20.724,9.538c-1.493,0.758-2.869,1.69-4.126,2.796c0.127-0.1,0.335-0.097,0.464-0.197
				c1.257-1.106,2.631-2.039,4.125-2.796C21.044,9.426,20.867,9.454,20.724,9.538z"/>
			<path opacity="0.1091" fill="#754C24" d="M24.022,9.232c-2.275,1.197-4.309,2.371-6.339,3.952
				c-0.067,0.053,0.227,0.459,0.281,0.417c1.921-1.496,3.895-2.662,6.005-3.867C24.055,9.685,23.939,9.276,24.022,9.232z"/>
			<path opacity="0.1091" fill="#754C24" d="M21.604,9.255c-1.492,0.757-2.867,1.69-4.123,2.794c0.076-0.058,0.402,0.202,0.483,0.14
				c1.257-1.106,2.631-2.038,4.124-2.794C21.991,9.452,21.706,9.196,21.604,9.255z"/>
			<path opacity="0.1091" fill="#754C24" d="M20.182,10.215c-1.494,0.758-2.869,1.691-4.126,2.797
				c-0.097,0.075,0.025,0.427-0.068,0.5c1.258-1.107,2.632-2.04,4.127-2.799C20.205,10.66,20.094,10.267,20.182,10.215z"/>
			<path opacity="0.1091" fill="#754C24" d="M20.898,11.899c-1.492,0.76-2.868,1.693-4.125,2.8c0.08-0.063,0.404,0.186,0.489,0.121
				c1.257-1.107,2.632-2.041,4.125-2.8C21.286,12.079,21.004,11.837,20.898,11.899z"/>
			<path opacity="0.1091" fill="#754C24" d="M24.61,9.063c-2.233,1.227-4.282,2.428-6.299,3.993
				c-0.069,0.053,0.13,0.449,0.066,0.499c2.017-1.565,4.065-2.767,6.301-3.993C24.732,9.531,24.56,9.091,24.61,9.063z"/>
			<path opacity="0.1091" fill="#754C24" d="M22.884,8.544c-2.24,1.225-4.29,2.425-6.308,3.991c-0.13,0.1-0.18,0.3-0.308,0.4
				c2.02-1.565,4.069-2.766,6.309-3.992C22.712,8.869,22.749,8.618,22.884,8.544z"/>
			<path opacity="0.1091" fill="#754C24" d="M23.326,8.681c-2.239,1.031-4.109,2.159-6.058,3.673
				c-0.065,0.051,0.212,0.465,0.241,0.441c2.02-1.574,4.143-2.813,6.318-4.161C23.7,8.714,23.465,8.618,23.326,8.681z"/>
			<path opacity="0.1091" fill="#754C24" d="M24.666,9.797c-2.235,1.228-4.284,2.43-6.3,3.996c-0.126,0.097-0.147,0.328-0.27,0.425
				c2.017-1.565,4.065-2.768,6.301-3.996C24.525,10.149,24.537,9.867,24.666,9.797z"/>
			<path opacity="0.1091" fill="#754C24" d="M20.161,10.831c-1.493,0.758-2.869,1.691-4.127,2.799
				c-0.044,0.035,0.206,0.444,0.166,0.475c1.257-1.106,2.632-2.039,4.126-2.799C20.357,11.288,20.135,10.846,20.161,10.831z"/>
		</g>
	</g>
</g>
<g>
	<g>
		<g>
			<path opacity="0.1091" fill="#754C24" d="M21.985,14.157c-1.734,0.889-3.365,1.938-4.893,3.146
				c0.13-0.093,0.342-0.073,0.475-0.169c1.527-1.208,3.159-2.257,4.893-3.145C22.317,14.071,22.129,14.075,21.985,14.157z"/>
			<path opacity="0.1091" fill="#754C24" d="M23.458,11.452c-2.399,1.605-4.868,3.019-7.215,4.7
				c-0.054,0.038,0.229,0.453,0.274,0.421c2.345-1.679,4.811-3.089,7.205-4.693C23.729,11.875,23.455,11.455,23.458,11.452z"/>
			<path opacity="0.1091" fill="#754C24" d="M21.061,11.79c-1.736,0.886-3.368,1.934-4.896,3.142
				c0.133-0.094,0.329-0.101,0.463-0.196c1.528-1.208,3.159-2.256,4.895-3.142C21.379,11.676,21.205,11.707,21.061,11.79z"/>
			<path opacity="0.1091" fill="#754C24" d="M24.599,11.061c-2.471,1.587-4.98,3.023-7.369,4.732
				c-0.057,0.042,0.234,0.451,0.288,0.413c2.299-1.645,4.715-3.021,7.03-4.644C24.636,11.499,24.51,11.117,24.599,11.061z"/>
			<path opacity="0.1091" fill="#754C24" d="M21.941,11.507c-1.734,0.886-3.365,1.934-4.893,3.142
				c0.083-0.06,0.397,0.201,0.483,0.138c1.528-1.208,3.158-2.254,4.893-3.14C22.325,11.704,22.045,11.448,21.941,11.507z"/>
			<path opacity="0.1091" fill="#754C24" d="M20.518,12.468c-1.736,0.886-3.368,1.934-4.897,3.144
				c-0.094,0.068,0.025,0.433-0.066,0.498c1.528-1.209,3.16-2.257,4.896-3.143C20.542,12.914,20.432,12.517,20.518,12.468z"/>
			<path opacity="0.1091" fill="#754C24" d="M21.235,14.151c-1.734,0.889-3.366,1.938-4.894,3.147
				c0.087-0.062,0.398,0.184,0.488,0.119c1.528-1.208,3.16-2.257,4.895-3.146C21.621,14.331,21.341,14.09,21.235,14.151z"/>
			<path opacity="0.1091" fill="#754C24" d="M25.188,10.892c-2.429,1.627-4.93,3.062-7.309,4.763
				c-0.066,0.048,0.127,0.455,0.066,0.498c2.381-1.701,4.88-3.135,7.309-4.763C25.316,11.348,25.127,10.932,25.188,10.892z"/>
			<path opacity="0.1091" fill="#754C24" d="M23.459,10.373c-2.433,1.626-4.936,3.059-7.317,4.761
				c-0.13,0.093-0.176,0.306-0.306,0.398c2.382-1.701,4.885-3.135,7.318-4.76C23.286,10.684,23.328,10.461,23.459,10.373z"/>
			<path opacity="0.1091" fill="#754C24" d="M23.902,10.508c-2.409,1.452-4.791,2.813-7.08,4.451
				c-0.058,0.042,0.212,0.462,0.242,0.441c2.414-1.73,4.935-3.19,7.339-4.936C24.287,10.55,24.028,10.434,23.902,10.508z"/>
			<path opacity="0.1091" fill="#754C24" d="M25.242,11.625c-2.43,1.629-4.929,3.064-7.31,4.767c-0.127,0.09-0.144,0.335-0.27,0.423
				c2.381-1.701,4.88-3.136,7.309-4.766C25.101,11.964,25.116,11.711,25.242,11.625z"/>
			<path opacity="0.1091" fill="#754C24" d="M20.497,13.084c-1.735,0.886-3.367,1.935-4.897,3.145
				c-0.04,0.029,0.202,0.449,0.166,0.475c1.528-1.21,3.16-2.258,4.896-3.145C20.692,13.541,20.472,13.098,20.497,13.084z"/>
		</g>
	</g>
</g>
<g>
	<g>
		<g>
			<path opacity="0.1091" fill="#754C24" d="M23.131,16.172c-2.346,1.163-4.516,2.274-6.664,3.777
				c0.131-0.091,0.342-0.075,0.475-0.169c2.147-1.503,4.318-2.613,6.664-3.777C23.458,16.076,23.28,16.097,23.131,16.172z"/>
			<path opacity="0.1091" fill="#754C24" d="M24.325,13.712c-2.863,1.842-5.939,3.157-8.728,5.123
				c-0.061,0.043,0.134,0.457,0.075,0.497c2.875-1.95,6.001-3.316,8.917-5.19C24.594,14.139,24.324,13.714,24.325,13.712z"/>
			<path opacity="0.1091" fill="#754C24" d="M22.218,13.798c-2.378,1.176-4.517,2.266-6.678,3.78
				c0.134-0.093,0.329-0.103,0.463-0.197c2.115-1.443,4.333-2.699,6.655-3.767C22.577,13.653,22.342,13.736,22.218,13.798z"/>
			<path opacity="0.1091" fill="#754C24" d="M25.466,13.322c-2.889,1.774-5.956,3.104-8.74,5.041
				c-0.098,0.069,0.183,0.486,0.277,0.421c2.7-1.882,5.691-3.118,8.411-4.962C25.502,13.762,25.378,13.376,25.466,13.322z"/>
			<path opacity="0.1091" fill="#754C24" d="M23.087,13.521c-2.348,1.161-4.517,2.269-6.665,3.774
				c0.084-0.06,0.396,0.201,0.483,0.14c2.148-1.506,4.317-2.613,6.665-3.774C23.462,13.715,23.2,13.466,23.087,13.521z"/>
			<path opacity="0.1091" fill="#754C24" d="M21.664,14.482c-2.349,1.163-4.519,2.27-6.667,3.776
				c-0.095,0.066,0.024,0.435-0.068,0.498c2.148-1.506,4.32-2.613,6.667-3.776C21.684,14.937,21.583,14.522,21.664,14.482z"/>
			<path opacity="0.1091" fill="#754C24" d="M22.381,16.167c-2.346,1.164-4.518,2.274-6.666,3.778
				c0.088-0.062,0.397,0.184,0.488,0.119c2.148-1.504,4.32-2.615,6.666-3.777C22.758,16.342,22.499,16.108,22.381,16.167z"/>
			<path opacity="0.1091" fill="#754C24" d="M26.055,13.153c-2.938,1.853-6.067,3.222-8.931,5.2
				c-0.04,0.028,0.219,0.453,0.216,0.454c2.828-1.945,5.922-3.275,8.782-5.156C26.182,13.611,25.995,13.19,26.055,13.153z"/>
			<path opacity="0.1091" fill="#754C24" d="M22.183,14.004c-2.347,1.163-4.519,2.27-6.666,3.776
				c-0.131,0.091-0.177,0.307-0.306,0.398c2.146-1.506,4.318-2.613,6.666-3.774C22.015,14.336,22.05,14.071,22.183,14.004z"/>
			<path opacity="0.1091" fill="#754C24" d="M24.769,12.77c-2.88,1.638-5.838,2.938-8.548,4.863
				c-0.079,0.057,0.082,0.454,0.008,0.503c2.948-1.977,6.143-3.365,9.042-5.409C25.152,12.81,24.898,12.698,24.769,12.77z"/>
			<path opacity="0.1091" fill="#754C24" d="M26.109,13.887c-3.032,1.75-6.177,3.139-9.053,5.146
				c-0.052,0.038,0.177,0.461,0.147,0.48c1.41-1.107,2.934-2.023,4.573-2.748c1.495-0.589,2.849-1.408,4.063-2.456
				C25.96,14.22,25.979,13.961,26.109,13.887z"/>
			<path opacity="0.1091" fill="#754C24" d="M21.642,15.098c-2.348,1.163-4.52,2.271-6.667,3.777
				c-0.039,0.026,0.202,0.45,0.166,0.475c2.148-1.506,4.32-2.614,6.667-3.777C21.83,15.562,21.626,15.104,21.642,15.098z"/>
		</g>
	</g>
</g>
<g>
	<g>
		<g>
			<path opacity="0.1091" fill="#754C24" d="M25.463,16.673c-2.862,1.682-6.067,3.23-8.515,5.539
				c0.111-0.104,0.361-0.063,0.475-0.169c2.445-2.309,5.653-3.856,8.513-5.539C25.796,16.587,25.604,16.59,25.463,16.673z"/>
			<path opacity="0.1091" fill="#754C24" d="M24.517,15.59c-2.774,1.611-5.909,3.135-8.281,5.364
				c-0.131,0.123,0.169,0.526,0.291,0.411c2.362-2.226,5.49-3.739,8.255-5.347C24.779,16.02,24.522,15.586,24.517,15.59z"/>
			<path opacity="0.1091" fill="#754C24" d="M24.238,14.483c-2.713,1.529-5.889,3.156-8.217,5.355
				c0.112-0.106,0.348-0.087,0.462-0.197c2.33-2.199,5.504-3.824,8.219-5.355C24.557,14.368,24.384,14.401,24.238,14.483z"/>
			<path opacity="0.1091" fill="#754C24" d="M25.657,15.199c-1.783,0.789-3.7,2.148-5.145,3.018
				c-1.167,0.702-2.158,1.37-3.138,2.299c-0.21,0.201,0.207,0.5,0.453,0.267c0.904-0.825,1.887-1.538,2.948-2.137
				c1.479-0.89,2.961-1.78,4.441-2.67c0.171-0.044,0.299-0.137,0.388-0.275C25.664,15.625,25.584,15.232,25.657,15.199z"/>
			<path opacity="0.1091" fill="#754C24" d="M25.119,14.201c-2.713,1.532-5.887,3.156-8.215,5.355
				c0.058-0.056,0.418,0.201,0.483,0.138c2.328-2.198,5.503-3.824,8.214-5.354C25.504,14.396,25.224,14.142,25.119,14.201z"/>
			<path opacity="0.1091" fill="#754C24" d="M23.697,15.16c-2.714,1.531-5.892,3.159-8.22,5.358c-0.097,0.093,0.025,0.413-0.068,0.5
				c2.33-2.201,5.506-3.827,8.221-5.359C23.721,15.607,23.611,15.208,23.697,15.16z"/>
			<path opacity="0.1091" fill="#754C24" d="M24.413,16.843c-2.713,1.535-5.885,3.164-8.216,5.364
				c0.063-0.06,0.419,0.185,0.489,0.12c2.329-2.2,5.503-3.83,8.216-5.364C24.798,17.021,24.522,16.782,24.413,16.843z"/>
			<path opacity="0.1091" fill="#754C24" d="M26.247,15.03c-2.829,1.647-6.01,3.159-8.428,5.43c-0.1,0.094,0.22,0.48,0.308,0.397
				c2.347-2.209,5.441-3.73,8.187-5.329C26.371,15.495,26.192,15.061,26.247,15.03z"/>
			<path opacity="0.1091" fill="#754C24" d="M24.518,14.511c-3.074,1.764-6.248,3.238-8.902,5.592
				c0.008-0.007,0.367,0.339,0.395,0.313c0.98-0.959,2.049-1.614,3.208-2.339c1.783-1.115,3.269-2.176,4.994-3.167
				C24.347,14.832,24.384,14.587,24.518,14.511z"/>
			<path opacity="0.1091" fill="#754C24" d="M25.462,14.603c-0.202-0.018-0.404-0.038-0.604-0.057
				c-1.677,0.92-3.315,1.903-4.919,2.948c-1.136,0.687-2.14,1.356-3.109,2.266c-0.135,0.127,0.148,0.54,0.271,0.424
				C19.562,17.862,23.019,16.9,25.462,14.603z"/>
			<path opacity="0.1091" fill="#754C24" d="M26.301,15.764c-2.938,1.722-6.187,3.128-8.702,5.473
				c-0.056,0.053,0.284,0.423,0.335,0.376c2.331-2.177,5.386-3.838,8.097-5.424C26.161,16.112,26.174,15.838,26.301,15.764z"/>
			<path opacity="0.1091" fill="#754C24" d="M23.675,15.776c-2.714,1.532-5.889,3.16-8.22,5.361c-0.053,0.05,0.213,0.43,0.166,0.475
				c2.33-2.201,5.506-3.828,8.22-5.36C23.87,16.234,23.653,15.789,23.675,15.776z"/>
		</g>
	</g>
</g>
<g>
	<g>
		<g>
			<path opacity="0.1091" fill="#754C24" d="M25.753,18.839c-2.689,1.458-5.193,2.926-7.679,4.715
				c-0.058,0.041,0.174,0.462,0.148,0.479c2.64-1.867,5.384-3.471,8.004-5.364C26.098,18.763,25.894,18.762,25.753,18.839z"/>
			<path opacity="0.1091" fill="#754C24" d="M24.806,17.755c-2.525,1.6-5.072,3.064-7.506,4.804
				c-0.158,0.112,0.129,0.526,0.285,0.414c2.425-1.736,4.968-3.195,7.485-4.791C25.074,18.18,24.808,17.754,24.806,17.755z"/>
			<path opacity="0.1091" fill="#754C24" d="M24.828,16.477c-2.64,1.665-5.267,3.175-7.797,4.999
				c0.132-0.095,0.33-0.101,0.462-0.198c2.582-1.695,5.181-3.361,7.798-4.998C25.152,16.369,24.968,16.388,24.828,16.477z"/>
			<path opacity="0.1091" fill="#754C24" d="M25.948,17.364c-2.529,1.539-5.051,2.97-7.454,4.701
				c-0.26,0.187,0.023,0.602,0.285,0.413c2.308-1.662,4.743-3.046,7.116-4.613C25.983,17.807,25.86,17.417,25.948,17.364z"/>
			<path opacity="0.1091" fill="#754C24" d="M25.708,16.194c-2.628,1.658-5.271,3.18-7.793,4.998c0.08-0.058,0.396,0.202,0.483,0.14
				c2.523-1.819,5.166-3.34,7.794-4.998C26.098,16.392,25.803,16.133,25.708,16.194z"/>
			<path opacity="0.1091" fill="#754C24" d="M24.288,17.152c-2.631,1.661-5.276,3.184-7.801,5.003
				c-0.097,0.069,0.023,0.434-0.068,0.498c2.526-1.82,5.17-3.342,7.801-5.003C24.312,17.592,24.197,17.208,24.288,17.152z"/>
			<path opacity="0.1091" fill="#754C24" d="M25.004,18.832c-2.627,1.665-5.272,3.191-7.797,5.011
				c0.084-0.062,0.397,0.186,0.489,0.12c2.524-1.818,5.168-3.344,7.795-5.009C25.395,19.015,25.101,18.77,25.004,18.832z"/>
			<path opacity="0.1091" fill="#754C24" d="M26.536,17.195c-2.624,1.635-5.246,3.149-7.764,4.947
				c-0.066,0.049,0.233,0.452,0.305,0.401c2.446-1.747,5.001-3.224,7.525-4.85C26.663,17.653,26.479,17.229,26.536,17.195z"/>
			<path opacity="0.1091" fill="#754C24" d="M24.808,16.676c-2.831,1.597-5.524,3.164-8.176,5.046
				c-0.003,0.001,0.305,0.396,0.339,0.371c2.475-1.759,5.063-3.252,7.529-5.019C24.627,16.984,24.673,16.75,24.808,16.676z"/>
			<path opacity="0.1091" fill="#754C24" d="M25.25,16.813c-2.535,1.441-4.979,2.857-7.355,4.551
				c-0.163,0.116,0.108,0.54,0.269,0.425c2.479-1.774,5.083-3.282,7.587-5.02C25.632,16.85,25.379,16.739,25.25,16.813z"/>
			<path opacity="0.1091" fill="#754C24" d="M26.59,17.928c-2.747,1.579-5.333,3.046-7.841,4.987
				c-0.112,0.089-0.072,0.395-0.184,0.47c2.575-1.718,5.232-3.243,7.755-5.032C26.443,18.266,26.463,18.003,26.59,17.928z"/>
			<path opacity="0.1091" fill="#754C24" d="M24.267,17.767c-2.63,1.662-5.275,3.186-7.801,5.006
				c-0.042,0.03,0.201,0.45,0.166,0.475c2.526-1.82,5.171-3.344,7.801-5.006C24.464,18.22,24.234,17.786,24.267,17.767z"/>
		</g>
	</g>
</g>
<g>
	<g>
		<g>
			<path opacity="0.1091" fill="#754C24" d="M26.476,21.004c-1.358,0.715-2.716,1.431-4.074,2.146
				c-1.85,1.065-3.601,2.277-5.251,3.632c-0.057,0.043,0.186,0.458,0.162,0.477c3.113-2.307,6.369-4.342,9.636-6.424
				C26.812,20.922,26.612,20.915,26.476,21.004z"/>
			<path opacity="0.1091" fill="#754C24" d="M25.528,19.921c-3.101,1.961-6.214,3.697-9.178,5.884
				c-0.147,0.107,0.143,0.519,0.288,0.412c2.955-2.183,6.063-3.911,9.155-5.869C25.797,20.346,25.528,19.92,25.528,19.921z"/>
			<path opacity="0.1091" fill="#754C24" d="M25.552,18.643c-1.337,0.695-2.675,1.39-4.012,2.084
				c-1.898,1.104-3.701,2.344-5.412,3.72c0.004-0.003,0.321,0.382,0.354,0.357c3.071-2.287,6.29-4.321,9.533-6.361
				C25.873,18.532,25.691,18.555,25.552,18.643z"/>
			<path opacity="0.1091" fill="#754C24" d="M26.67,19.53c-3.108,1.816-6.102,3.553-9.006,5.697
				c-0.303,0.223-0.021,0.641,0.285,0.414c1.612-1.29,3.309-2.455,5.094-3.495c1.268-0.584,2.459-1.289,3.576-2.116
				C26.705,19.97,26.583,19.581,26.67,19.53z"/>
			<path opacity="0.1091" fill="#754C24" d="M26.431,18.36c-1.276,0.854-2.611,1.605-4.006,2.254
				c-1.888,1.101-3.683,2.333-5.387,3.703c-0.009,0.007,0.296,0.405,0.32,0.389c3.076-2.293,6.317-4.169,9.556-6.208
				C26.819,18.558,26.525,18.301,26.431,18.36z"/>
			<path opacity="0.1091" fill="#754C24" d="M25.01,19.316c-1.376,0.914-2.809,1.729-4.299,2.446
				c-1.888,1.1-3.683,2.336-5.386,3.707c0.003-0.001,0.314,0.391,0.339,0.371c2.99-2.226,6.134-4.044,9.28-6.023
				C25.036,19.758,24.919,19.374,25.01,19.316z"/>
			<path opacity="0.1091" fill="#754C24" d="M24.28,21.918c-2.83,1.478-5.318,3.083-7.872,5c-0.053,0.04,0.189,0.455,0.159,0.478
				c2.662-1.967,5.35-3.679,8.201-5.357C24.668,22.099,24.392,21.86,24.28,21.918z"/>
			<path opacity="0.1091" fill="#754C24" d="M27.259,19.359c-3.232,1.986-6.425,3.791-9.479,6.062
				c-0.031,0.021,0.281,0.416,0.325,0.383c2.975-2.21,6.137-3.922,9.22-5.946C27.386,19.819,27.2,19.396,27.259,19.359z"/>
			<path opacity="0.1091" fill="#754C24" d="M25.53,18.84c-3.464,1.817-6.659,3.785-9.811,6.101
				c-0.01,0.009,0.298,0.404,0.327,0.382c1.682-1.34,3.448-2.555,5.3-3.644c1.41-0.635,2.703-1.448,3.878-2.439
				C25.345,19.147,25.396,18.911,25.53,18.84z"/>
			<path opacity="0.1091" fill="#754C24" d="M25.973,18.978c-3.217,1.571-6.109,3.5-8.985,5.604c-0.17,0.124,0.102,0.546,0.27,0.425
				c1.729-1.185,3.456-2.368,5.184-3.552c1.46-0.663,2.805-1.504,4.033-2.522C26.361,19.018,26.103,18.915,25.973,18.978z"/>
			<path opacity="0.1091" fill="#754C24" d="M27.313,20.094c-3.403,1.795-6.555,3.708-9.618,6.042
				c-0.075,0.057,0.119,0.458,0.064,0.5c1.752-1.386,3.591-2.643,5.518-3.771c1.396-0.574,2.65-1.356,3.767-2.347
				C27.157,20.427,27.187,20.161,27.313,20.094z"/>
			<path opacity="0.1091" fill="#754C24" d="M24.988,19.931c-3.226,2.039-6.466,3.836-9.541,6.122
				c-0.015,0.012,0.281,0.418,0.287,0.414c3.034-2.262,6.233-4.047,9.422-6.061C25.188,20.386,24.957,19.952,24.988,19.931z"/>
		</g>
	</g>
</g>
<g>
	<g>
		<g>
			<path opacity="0.1091" fill="#754C24" d="M26.907,23.073c-0.846,0.761-1.704,1.274-2.692,1.835
				c-2.505,1.42-4.76,3.028-6.977,4.857c0.12-0.099,0.352-0.067,0.473-0.168c2.234-1.844,4.504-3.357,6.979-4.858
				c0.975-0.591,1.84-1.068,2.692-1.835C27.267,23.007,27.023,22.969,26.907,23.073z"/>
			<path opacity="0.1091" fill="#754C24" d="M25.96,21.989c-0.779,0.713-1.563,1.174-2.482,1.686
				c-2.56,1.423-4.861,3.095-7.115,4.951c-0.057,0.047,0.247,0.445,0.285,0.414c2.277-1.874,4.592-3.418,7.11-4.948
				c0.898-0.546,1.688-0.958,2.468-1.675C26.251,22.395,25.939,22.009,25.96,21.989z"/>
			<path opacity="0.1091" fill="#754C24" d="M25.983,20.71c-0.848,0.754-1.709,1.267-2.697,1.823
				c-2.509,1.413-4.763,3.03-6.976,4.859c0.122-0.101,0.338-0.093,0.462-0.196c2.233-1.845,4.501-3.359,6.978-4.861
				c0.972-0.589,1.841-1.061,2.696-1.823C26.328,20.619,26.103,20.605,25.983,20.71z"/>
			<path opacity="0.1091" fill="#754C24" d="M27.104,21.599c-0.836,0.662-1.659,1.169-2.593,1.683
				c-2.542,1.402-4.826,3.069-7.059,4.91c-0.115,0.095,0.189,0.494,0.297,0.406c2.256-1.86,4.554-3.389,7.052-4.905
				c0.855-0.52,1.578-0.836,2.249-1.595C27.134,22.006,27.01,21.672,27.104,21.599z"/>
			<path opacity="0.1091" fill="#754C24" d="M26.862,20.428c-0.847,0.754-1.705,1.265-2.691,1.821
				c-2.51,1.415-4.763,3.03-6.978,4.861c0.069-0.058,0.407,0.202,0.483,0.14c2.233-1.846,4.502-3.359,6.977-4.86
				c0.972-0.59,1.84-1.062,2.692-1.822C27.28,20.626,26.931,20.367,26.862,20.428z"/>
			<path opacity="0.1091" fill="#754C24" d="M25.442,21.386c-0.85,0.756-1.712,1.27-2.701,1.827
				c-2.508,1.414-4.762,3.029-6.976,4.859c-0.097,0.08,0.026,0.422-0.066,0.5c2.232-1.847,4.501-3.359,6.976-4.859
				c0.974-0.592,1.845-1.066,2.701-1.829C25.472,21.8,25.349,21.47,25.442,21.386z"/>
			<path opacity="0.1091" fill="#754C24" d="M26.158,23.067c-0.849,0.762-1.707,1.274-2.696,1.835
				c-2.505,1.421-4.76,3.029-6.977,4.858c0.075-0.063,0.41,0.186,0.488,0.119c2.234-1.842,4.504-3.356,6.977-4.856
				c0.977-0.593,1.843-1.07,2.696-1.837C26.577,23.25,26.229,23.004,26.158,23.067z"/>
			<path opacity="0.1091" fill="#754C24" d="M27.69,21.429c-0.847,0.714-1.678,1.225-2.643,1.764
				c-2.565,1.431-4.871,3.105-7.132,4.969c-0.004,0.003,0.325,0.381,0.347,0.362c2.267-1.864,4.575-3.4,7.08-4.925
				c0.891-0.541,1.677-0.926,2.415-1.672C27.827,21.858,27.621,21.487,27.69,21.429z"/>
			<path opacity="0.1091" fill="#754C24" d="M25.962,20.91c-0.851,0.756-1.711,1.268-2.699,1.825
				c-2.509,1.414-4.763,3.029-6.976,4.86c-0.127,0.105-0.181,0.296-0.307,0.398c2.232-1.845,4.502-3.357,6.978-4.859
				c0.973-0.591,1.844-1.063,2.698-1.824C25.779,21.199,25.84,21.019,25.962,20.91z"/>
			<path opacity="0.1091" fill="#754C24" d="M26.404,21.047c-0.757,0.538-1.544,0.993-2.356,1.444
				c-2.553,1.422-4.848,3.086-7.097,4.939c-0.063,0.052,0.22,0.459,0.246,0.438c2.277-1.874,4.594-3.418,7.113-4.948
				c1.035-0.629,1.745-1.021,2.595-1.918C26.821,21.092,26.513,20.971,26.404,21.047z"/>
			<path opacity="0.1091" fill="#754C24" d="M27.746,22.164c-0.922,0.622-1.844,1.189-2.815,1.731
				c-2.624,1.464-4.94,3.162-7.22,5.105c0.075-0.063,0.407,0.176,0.491,0.109c2.262-1.788,4.57-3.317,7.033-4.815
				c0.907-0.552,1.646-0.82,2.249-1.718C27.558,22.467,27.638,22.235,27.746,22.164z"/>
			<path opacity="0.1091" fill="#754C24" d="M25.421,22c-0.851,0.759-1.711,1.272-2.701,1.831c-2.506,1.416-4.761,3.029-6.976,4.858
				c-0.047,0.04,0.208,0.441,0.166,0.475c2.233-1.843,4.501-3.356,6.976-4.857c0.975-0.592,1.846-1.067,2.702-1.832
				C25.637,22.433,25.373,22.042,25.421,22z"/>
		</g>
	</g>
</g>
<g>
	<g>
		<g>
			<path opacity="0.1091" fill="#754C24" d="M26.606,25.806c-0.043,0.068-0.087,0.137-0.131,0.206
				c0.153-0.056,0.307-0.111,0.461-0.168c-0.972,0.281-0.646,0.135-1.345,0.487c-2.164,1.097-6.909,4.862-8.81,6.312
				c0.054-0.041,0.385,0.271,0.453,0.219c2.778-2.18,5.656-4.22,8.632-6.12c0.503-0.34,0.865-0.56,1.214-1.104
				C27.011,25.746,26.68,25.691,26.606,25.806z"/>
			<path opacity="0.1091" fill="#754C24" d="M25.72,24.587c-0.229,0.341-0.504,0.527-0.893,0.634
				c-1.066,0.293-8.042,5.79-8.929,6.471c-0.078,0.06,0.224,0.463,0.297,0.406c3.059-2.172,6.116-4.342,9.176-6.514
				c0.292-0.097,0.505-0.272,0.639-0.524c-0.003-0.006-0.004-0.012-0.007-0.016c-0.07-0.115-0.141-0.229-0.212-0.342
				C25.806,24.725,25.718,24.59,25.72,24.587z"/>
			<path opacity="0.1091" fill="#754C24" d="M25.682,23.439c-0.044,0.068-0.088,0.136-0.131,0.205
				C25.7,23.58,25.85,23.516,26,23.451c-3.731,1.172-6.851,4.366-9.787,6.79c-0.094,0.077-0.27,0.248-0.33,0.288
				c2.948-2.059,5.921-4.078,8.922-6.059c0.547-0.365,0.961-0.641,1.339-1.228C26.071,23.356,25.758,23.32,25.682,23.439z"/>
			<path opacity="0.1091" fill="#754C24" d="M26.86,24.197c0.023,0.278-0.777,0.462-0.944,0.475
				c-0.78,0.058-8.262,6.003-8.799,6.416c-0.245,0.188,0.114,0.543,0.349,0.363c3.092-2.363,6.109-4.514,9.409-6.589
				c0.026-0.014,0.039-0.035,0.035-0.067C26.894,24.596,26.877,24.396,26.86,24.197z"/>
			<path opacity="0.1091" fill="#754C24" d="M26.563,23.157c-0.106,0.232-0.291,0.384-0.554,0.454
				c-3.384,1.999-6.213,4.235-9.303,6.648c0.103-0.081,0.392,0.077,0.502-0.002c2.77-2.074,5.609-4.049,8.516-5.921
				c0.487-0.327,0.984-0.518,1.32-1.04C27.023,23.332,26.592,23.111,26.563,23.157z"/>
			<path opacity="0.1091" fill="#754C24" d="M25.14,24.116c-0.17,0.328-0.451,0.544-0.843,0.646
				c-3.225,1.997-6.038,4.083-9.042,6.388c-0.084,0.063,0.075,0.445-0.001,0.502c2.819-2.184,5.733-4.235,8.742-6.15
				c0.441-0.297,0.779-0.425,1.077-0.886C25.156,24.486,25.06,24.242,25.14,24.116z"/>
			<path opacity="0.1091" fill="#754C24" d="M25.856,25.8c-0.125,0.263-0.339,0.435-0.64,0.517c-3.282,2-6.149,4.166-9.201,6.492
				c0.066-0.051,0.395,0.237,0.469,0.182c2.725-2.119,5.544-4.104,8.459-5.953c0.519-0.346,1.046-0.564,1.4-1.117
				C26.318,25.962,25.889,25.751,25.856,25.8z"/>
			<path opacity="0.1091" fill="#754C24" d="M27.449,24.026c-0.33,0.421-0.252,0.43-0.714,0.64c-2.978,1.356-6.65,4.551-9.255,6.537
				c-0.028,0.021,0.287,0.414,0.325,0.384c2.609-1.992,6.174-5.159,9.196-6.507c0.705-0.314,0.547-0.391,0.45-1.04
				C27.451,24.035,27.449,24.031,27.449,24.026z"/>
			<path opacity="0.1091" fill="#754C24" d="M26,23.597c-1,0.31-0.971,0.529-1.412,0.717c-1.86,0.787-7.17,5.049-8.778,6.309
				c-0.1,0.079-0.046,0.426-0.14,0.495c3.037-2.362,6.377-4.555,9.651-6.577c0.365-0.179,0.68-0.488,0.68-0.93
				C26,23.605,26,23.602,26,23.597z"/>
			<path opacity="0.1091" fill="#754C24" d="M26.164,23.645c-0.218,0.212-0.471,0.342-0.763,0.389
				c-1.135,0.313-7.928,5.707-8.901,6.454c-0.091,0.071,0.192,0.483,0.269,0.425c6.918-5.318,6.053-4.43,9.692-6.866
				c0.046-0.03,0.287-0.451,0.191-0.444C26.604,23.604,26.164,23.635,26.164,23.645z"/>
			<path opacity="0.1091" fill="#754C24" d="M27.232,25.186c-0.219,0.031-0.428,0.1-0.626,0.202
				c-2.822,1.151-6.833,4.688-9.267,6.545c-0.057,0.043,0.191,0.458,0.17,0.474c2.685-2.038,6.277-5.197,9.371-6.616
				c0.519-0.236,0.72-0.53,0.624-1.028C27.512,24.796,27.235,25.186,27.232,25.186z"/>
			<path opacity="0.1091" fill="#754C24" d="M25.119,24.732c-0.155,0.296-0.4,0.508-0.732,0.637
				c-0.186,0.102-0.37,0.202-0.556,0.304c-2.971,1.871-5.827,3.902-8.568,6.097c-0.043,0.033,0.209,0.447,0.176,0.472
				c2.783-2.203,5.675-4.255,8.674-6.15c0.434-0.291,0.878-0.426,1.173-0.884C25.343,25.117,25.064,24.815,25.119,24.732z"/>
		</g>
	</g>
</g>
<g>
	<g>
		<g>
			<path opacity="0.1091" fill="#754C24" d="M26.763,28.461c-0.309,0.597-0.637,0.685-1.273,1.069
				c-2.525,1.523-4.908,3.278-7.345,4.938c0.104-0.072,0.385,0.113,0.501,0.044c2.094-1.248,4.061-2.629,6.113-3.938
				c0.939-0.601,1.949-1.262,2.478-2.281C27.181,28.401,26.819,28.352,26.763,28.461z"/>
			<path opacity="0.1091" fill="#754C24" d="M25.816,27.379c-0.351,0.563-0.729,0.802-1.279,1.257
				c-0.664,0.412-1.33,0.826-1.995,1.238c-1.671,1.23-3.387,2.394-5.149,3.49c-0.126,0.081,0.152,0.499,0.28,0.418
				c2.078-1.352,4.073-2.827,6.175-4.135c0.689-0.429,1.952-0.994,2.233-1.841C26.109,27.721,25.774,27.445,25.816,27.379z"/>
			<path opacity="0.1091" fill="#754C24" d="M25.839,26.099c-0.316,0.601-0.814,0.885-1.359,1.336
				c-0.733,0.468-1.469,0.936-2.204,1.402c-1.64,1.188-3.324,2.313-5.052,3.368c0.139-0.088,0.323-0.107,0.462-0.196
				c2.065-1.319,4.057-2.736,6.122-4.049c0.869-0.552,1.992-1.105,2.494-2.057C26.241,26.017,25.899,25.983,25.839,26.099z"/>
			<path opacity="0.1091" fill="#754C24" d="M26.96,26.987c0.018,0.134-1.482,1.287-1.306,1.145
				c-0.621,0.362-1.244,0.727-1.865,1.091c-1.674,1.254-3.394,2.44-5.162,3.556c-0.295,0.195,0.039,0.571,0.318,0.389
				c2.339-1.523,4.585-3.159,6.97-4.608C26.867,27.981,27.081,27.874,26.96,26.987z"/>
			<path opacity="0.1091" fill="#754C24" d="M26.719,25.816c-0.314,0.601-0.813,0.885-1.357,1.336
				c-0.732,0.468-1.468,0.936-2.201,1.401c-1.64,1.189-3.325,2.312-5.053,3.368c0.09-0.057,0.386,0.202,0.483,0.14
				c2.065-1.319,4.057-2.735,6.122-4.049c0.866-0.551,1.991-1.104,2.49-2.056C27.187,25.985,26.734,25.787,26.719,25.816z"/>
			<path opacity="0.1091" fill="#754C24" d="M25.299,26.775c-0.318,0.601-0.815,0.885-1.362,1.337
				c-0.734,0.47-1.47,0.938-2.205,1.405c-1.64,1.188-3.325,2.312-5.054,3.367c-0.094,0.062,0.021,0.443-0.066,0.498
				c2.065-1.317,4.057-2.734,6.123-4.048c0.87-0.554,1.992-1.109,2.496-2.062C25.306,27.134,25.226,26.914,25.299,26.775z"/>
			<path opacity="0.1091" fill="#754C24" d="M26.013,28.459c-0.314,0.602-0.813,0.887-1.357,1.34
				c-0.733,0.47-1.469,0.939-2.204,1.407c-1.638,1.19-3.323,2.313-5.052,3.367c0.094-0.06,0.388,0.185,0.489,0.121
				c2.065-1.319,4.057-2.734,6.122-4.05c0.868-0.556,1.996-1.113,2.493-2.069C26.483,28.61,26.032,28.421,26.013,28.459z"/>
			<path opacity="0.1091" fill="#754C24" d="M27.547,26.818c-0.089,0.232-0.176,0.467-0.265,0.7
				c0.109-0.127,0.217-0.255,0.326-0.382c-2.796,2.018-5.752,3.877-8.647,5.744c-0.069,0.044,0.216,0.458,0.296,0.407
				c2.081-1.346,4.083-2.806,6.183-4.118c0.849-0.53,1.614-0.985,2.174-1.854C27.681,27.212,27.475,26.914,27.547,26.818z"/>
			<path opacity="0.1091" fill="#754C24" d="M25.512,26.698c-0.047,0.088-0.093,0.176-0.14,0.264c0.1-0.13,0.198-0.26,0.298-0.39
				c-0.805,0.598-1.635,1.155-2.493,1.672c-2.156,1.359-4.23,2.85-6.367,4.242c0.047-0.03,0.353,0.317,0.421,0.274
				c2.1-1.326,4.112-2.768,6.21-4.089c0.86-0.543,1.348-0.965,1.965-1.75c0.164-0.207,0.288-0.389,0.411-0.622
				C25.74,26.444,25.589,26.552,25.512,26.698z"/>
			<path opacity="0.1091" fill="#754C24" d="M26.261,26.437c-2.563,2.122-5.473,3.908-8.268,5.729
				c-0.135,0.089,0.125,0.52,0.256,0.434c2.075-1.353,4.071-2.828,6.17-4.14c0.893-0.557,1.908-1.067,2.342-2.068
				C26.731,26.463,26.333,26.377,26.261,26.437z"/>
			<path opacity="0.1091" fill="#754C24" d="M27.332,27.977c-0.044,0.085-0.089,0.169-0.132,0.254
				c0.088-0.139,0.176-0.275,0.264-0.413c-0.668,0.718-1.666,1.181-2.494,1.698c-2.086,1.305-4.08,2.752-6.15,4.084
				c-0.053,0.034,0.238,0.441,0.313,0.394c2.079-1.338,4.08-2.787,6.17-4.101c1.107-0.695,1.123-0.567,1.899-1.661
				c0.153-0.216,0.278-0.445,0.398-0.68C27.524,27.7,27.408,27.829,27.332,27.977z"/>
			<path opacity="0.1091" fill="#754C24" d="M25.278,27.389c-0.318,0.604-0.815,0.886-1.363,1.341
				c-0.734,0.47-1.469,0.938-2.206,1.405c-1.639,1.188-3.323,2.312-5.052,3.367c-0.036,0.023,0.194,0.458,0.166,0.477
				c2.065-1.319,4.057-2.735,6.122-4.05c0.871-0.554,1.995-1.11,2.497-2.063C25.495,27.763,25.224,27.489,25.278,27.389z"/>
		</g>
	</g>
</g>
<g>
	<g>
		<g>
			<path opacity="0.1091" fill="#754C24" d="M26.619,31.494c-1.603,1.646-3.462,2.946-5.581,3.903
				c0.144-0.079,0.329-0.089,0.475-0.169c2.083-1.146,3.799-2.287,5.58-3.903C26.979,31.429,26.734,31.389,26.619,31.494z"/>
			<path opacity="0.1091" fill="#754C24" d="M25.67,30.411c-1.725,1.568-3.396,2.685-5.44,3.8c-0.09,0.049,0.179,0.472,0.287,0.414
				c2.036-1.111,3.702-2.221,5.417-3.786C25.959,30.815,25.648,30.43,25.67,30.411z"/>
			<path opacity="0.1091" fill="#754C24" d="M25.694,29.13c-1.604,1.636-3.462,2.932-5.572,3.888
				c0.076-0.043,0.318-0.117,0.44-0.184c2.084-1.146,3.809-2.288,5.595-3.9C26.041,29.038,25.813,29.023,25.694,29.13z"/>
			<path opacity="0.1091" fill="#754C24" d="M26.814,30.019c-1.79,1.52-3.506,2.688-5.567,3.807
				c-0.124,0.067,0.163,0.478,0.303,0.401c1.996-1.084,3.596-2.105,5.211-3.707C26.852,30.43,26.722,30.098,26.814,30.019z"/>
			<path opacity="0.1091" fill="#754C24" d="M26.575,28.848c-1.77,1.599-3.494,2.744-5.581,3.894c0.1-0.056,0.376,0.197,0.483,0.14
				c2.087-1.148,3.812-2.295,5.581-3.894C26.994,29.044,26.642,28.786,26.575,28.848z"/>
			<path opacity="0.1091" fill="#754C24" d="M25.153,29.806c-1.771,1.6-3.498,2.748-5.586,3.898
				c-0.091,0.05,0.016,0.453-0.068,0.498c2.09-1.149,3.816-2.299,5.587-3.897C25.183,30.218,25.06,29.892,25.153,29.806z"/>
			<path opacity="0.1091" fill="#754C24" d="M25.869,31.488c-1.77,1.604-3.492,2.753-5.583,3.903
				c0.104-0.059,0.376,0.182,0.489,0.12c2.09-1.15,3.813-2.299,5.582-3.903C26.29,31.67,25.939,31.425,25.869,31.488z"/>
			<path opacity="0.1091" fill="#754C24" d="M27.402,29.85c-1.781,1.563-3.483,2.717-5.563,3.85
				c-0.058,0.031,0.216,0.448,0.308,0.398c2.012-1.1,3.66-2.168,5.321-3.75C27.541,30.278,27.335,29.909,27.402,29.85z"/>
			<path opacity="0.1091" fill="#754C24" d="M25.673,29.329c-1.865,1.442-3.687,2.67-5.753,3.801
				c-0.057,0.032,0.188,0.471,0.25,0.438c0.646-0.354,1.293-0.709,1.941-1.062c1.302-0.673,2.388-1.598,3.255-2.776
				C25.473,29.611,25.548,29.426,25.673,29.329z"/>
			<path opacity="0.1091" fill="#754C24" d="M26.115,29.464c-1.688,1.406-3.381,2.508-5.308,3.563
				c-0.09,0.05,0.157,0.488,0.25,0.438c2.165-1.188,3.788-2.313,5.559-4.046C26.525,29.511,26.219,29.378,26.115,29.464z"/>
			<path opacity="0.1091" fill="#754C24" d="M27.456,30.583c-1.865,1.468-3.662,2.693-5.745,3.827
				c-0.047,0.025,0.232,0.435,0.322,0.385c2.02-1.104,3.604-2.077,5.153-3.787C27.292,30.892,27.336,30.679,27.456,30.583z"/>
			<path opacity="0.1091" fill="#754C24" d="M25.131,30.421c-1.77,1.602-3.496,2.751-5.586,3.9
				c-0.029,0.016,0.186,0.464,0.166,0.475c2.09-1.149,3.816-2.299,5.586-3.9C25.347,30.851,25.086,30.463,25.131,30.421z"/>
		</g>
	</g>
</g>
<g>
	<g>
		<g>
			<path opacity="0.1091" fill="#754C24" d="M26.186,33.371c-0.915,1.309-2.149,2.242-3.702,2.796
				c0.146-0.076,0.325-0.093,0.474-0.169c1.522-0.781,2.558-1.465,3.703-2.795C26.566,33.312,26.283,33.259,26.186,33.371z"/>
			<path opacity="0.1091" fill="#754C24" d="M25.237,32.287c-1.082,1.271-2.052,1.923-3.542,2.667
				c-0.101,0.052,0.173,0.468,0.302,0.404c1.475-0.739,2.442-1.376,3.506-2.644C25.539,32.672,25.209,32.323,25.237,32.287z"/>
			<path opacity="0.1091" fill="#754C24" d="M25.262,31.007c-0.918,1.3-2.15,2.227-3.696,2.78c0.079-0.04,0.315-0.12,0.44-0.184
				c1.525-0.782,2.567-1.466,3.718-2.795C25.627,30.921,25.361,30.891,25.262,31.007z"/>
			<path opacity="0.1091" fill="#754C24" d="M26.376,31.896c-1.162,1.208-2.151,1.921-3.65,2.661
				c-0.144,0.071,0.153,0.471,0.317,0.391c1.428-0.707,2.356-1.241,3.28-2.553C26.403,32.283,26.287,31.988,26.376,31.896z"/>
			<path opacity="0.1091" fill="#754C24" d="M26.142,30.725c-1.132,1.308-2.168,1.997-3.704,2.786
				c0.105-0.054,0.372,0.196,0.483,0.139c1.536-0.788,2.571-1.478,3.704-2.787C26.583,30.912,26.191,30.668,26.142,30.725z"/>
			<path opacity="0.1091" fill="#754C24" d="M24.72,31.683c-1.135,1.311-2.171,2.001-3.709,2.791
				c-0.088,0.045,0.014,0.456-0.068,0.498c1.538-0.79,2.575-1.48,3.709-2.79C24.746,32.074,24.63,31.786,24.72,31.683z"/>
			<path opacity="0.1091" fill="#754C24" d="M25.436,33.366c-1.132,1.313-2.166,2.005-3.705,2.795
				c0.109-0.056,0.372,0.18,0.488,0.12c1.539-0.79,2.573-1.48,3.705-2.794C25.879,33.541,25.488,33.306,25.436,33.366z"/>
			<path opacity="0.1091" fill="#754C24" d="M26.974,31.725c-1.151,1.257-2.142,1.956-3.661,2.716
				c-0.072,0.036,0.205,0.447,0.315,0.392c1.452-0.728,2.42-1.316,3.412-2.607C27.11,32.132,26.901,31.804,26.974,31.725z"/>
			<path opacity="0.1091" fill="#754C24" d="M25.229,31.216c-1.009,1.253-2.241,2.179-3.698,2.779
				c-0.137,0.07-0.174,0.331-0.306,0.398c1.587-0.815,2.576-1.479,3.718-2.797C25.034,31.491,25.173,31.282,25.229,31.216z"/>
			<path opacity="0.1091" fill="#754C24" d="M25.684,31.345c-1.027,1.105-2.06,1.745-3.406,2.422
				c-0.104,0.053,0.155,0.48,0.276,0.419c1.62-0.813,2.496-1.454,3.631-2.887C26.114,31.388,25.767,31.253,25.684,31.345z"/>
			<path opacity="0.1091" fill="#754C24" d="M27.027,32.463c-1.247,1.144-2.338,1.939-3.848,2.693
				c-0.059,0.029,0.22,0.436,0.326,0.382c0.446-0.223,0.892-0.447,1.336-0.671c1.063-0.484,1.79-1.282,2.18-2.394
				C27.023,32.47,27.026,32.467,27.027,32.463z"/>
			<path opacity="0.1091" fill="#754C24" d="M24.698,32.298c-1.134,1.313-2.171,2.003-3.709,2.793
				c-0.025,0.013,0.183,0.467,0.166,0.476c1.539-0.791,2.575-1.481,3.709-2.794C24.921,32.706,24.646,32.357,24.698,32.298z"/>
		</g>
	</g>
</g>
<g>
	<g>
		<g>
			<path opacity="0.1091" fill="#754C24" d="M27.101,34.768c-0.545,0.354-1.091,0.708-1.636,1.063
				c0.136-0.088,0.336-0.08,0.475-0.169c0.545-0.354,1.089-0.708,1.635-1.063C27.439,34.686,27.237,34.678,27.101,34.768z"/>
			<path opacity="0.1091" fill="#754C24" d="M26.188,33.661c-0.465,0.299-0.93,0.6-1.394,0.9c-0.159,0.104,0.112,0.527,0.272,0.423
				c0.461-0.299,0.923-0.598,1.386-0.896C26.489,34.065,26.219,33.641,26.188,33.661z"/>
			<path opacity="0.1091" fill="#754C24" d="M26.186,32.393c-0.549,0.354-1.099,0.71-1.648,1.064
				c0.138-0.089,0.324-0.107,0.463-0.197c0.542-0.35,1.083-0.7,1.626-1.05C26.556,32.255,26.301,32.317,26.186,32.393z"/>
			<path opacity="0.1091" fill="#754C24" d="M27.242,33.286c-0.52,0.309-1.037,0.619-1.556,0.929
				c-0.146,0.088,0.179,0.483,0.338,0.374c0.389-0.269,0.777-0.536,1.165-0.803C27.293,33.716,27.2,33.312,27.242,33.286z"/>
			<path opacity="0.1091" fill="#754C24" d="M27.057,32.117c-0.546,0.353-1.091,0.704-1.636,1.057
				c0.088-0.058,0.387,0.201,0.482,0.139c0.546-0.352,1.091-0.704,1.636-1.056C27.454,32.312,27.154,32.053,27.057,32.117z"/>
			<path opacity="0.1091" fill="#754C24" d="M25.631,33.077c-0.545,0.354-1.092,0.706-1.638,1.059
				c-0.096,0.062,0.021,0.442-0.067,0.499c0.547-0.354,1.092-0.705,1.638-1.058C25.66,33.515,25.545,33.133,25.631,33.077z"/>
			<path opacity="0.1091" fill="#754C24" d="M26.35,34.766c-0.546,0.354-1.091,0.706-1.637,1.06c0.093-0.062,0.39,0.184,0.489,0.118
				c0.545-0.353,1.09-0.704,1.636-1.057C26.746,34.944,26.45,34.701,26.35,34.766z"/>
			<path opacity="0.1091" fill="#754C24" d="M27.865,33.124c-0.502,0.317-1.004,0.635-1.507,0.952
				c-0.104,0.067,0.181,0.486,0.288,0.413c0.43-0.289,0.857-0.577,1.286-0.866C28.008,33.571,27.826,33.149,27.865,33.124z"/>
			<path opacity="0.1091" fill="#754C24" d="M26.157,32.604c-0.613,0.33-1.227,0.659-1.84,0.99
				c-0.053,0.026,0.188,0.461,0.179,0.469c0.455-0.355,0.91-0.711,1.364-1.066C25.976,32.905,26.035,32.669,26.157,32.604z"/>
			<path opacity="0.1091" fill="#754C24" d="M26.613,32.775c-0.412,0.212-0.824,0.425-1.237,0.637
				c-0.162,0.085,0.086,0.548,0.208,0.458c0.502-0.369,1.005-0.739,1.507-1.109C27.093,32.759,26.709,32.728,26.613,32.775z"/>
			<path opacity="0.1091" fill="#754C24" d="M27.93,33.851c-0.592,0.33-1.186,0.659-1.778,0.99c-0.053,0.029,0.245,0.447,0.31,0.396
				c0.403-0.322,0.808-0.646,1.21-0.97C27.782,34.179,27.819,33.913,27.93,33.851z"/>
			<path opacity="0.1091" fill="#754C24" d="M25.61,33.694c-0.547,0.354-1.093,0.706-1.639,1.06
				c-0.038,0.024,0.194,0.456,0.166,0.475c0.547-0.354,1.092-0.706,1.639-1.06C25.814,34.144,25.584,33.711,25.61,33.694z"/>
		</g>
	</g>
</g>
<g>
	<g>
		<g>
			<path opacity="0.1091" fill="#754C24" d="M22.722,7.723c-1.283,0.534-2.562,1.08-3.835,1.636c0.08-0.035,0.321-0.103,0.45-0.158
				c1.283-0.558,2.569-1.107,3.858-1.647C23.041,7.62,22.875,7.658,22.722,7.723z"/>
			<path opacity="0.1091" fill="#754C24" d="M21.775,6.64c-1.228,0.505-2.449,1.023-3.664,1.554
				c-0.084,0.038,0.115,0.499,0.201,0.462c1.238-0.54,2.48-1.068,3.728-1.589C22.017,7.077,21.801,6.628,21.775,6.64z"/>
			<path opacity="0.1091" fill="#754C24" d="M22.261,5.164c-1.42,0.59-2.781,1.166-4.193,1.773
				c-0.304,0.132,0.147-0.058,0.218-0.087c1.171-0.497,2.342-0.993,3.511-1.489C21.952,5.295,22.105,5.229,22.261,5.164z"/>
			<path opacity="0.1091" fill="#754C24" d="M22.917,6.249c-1.26,0.487-2.505,1.005-3.739,1.553
				c-0.131,0.057,0.07,0.518,0.204,0.459c1.164-0.496,2.325-1,3.482-1.513C22.94,6.716,22.843,6.278,22.917,6.249z"/>
			<path opacity="0.1091" fill="#754C24" d="M22.676,5.078c-1.287,0.53-2.57,1.073-3.846,1.631c0.116-0.05,0.361,0.191,0.483,0.14
				c1.276-0.558,2.559-1.101,3.848-1.63C23.04,5.268,22.798,5.028,22.676,5.078z"/>
			<path opacity="0.1091" fill="#754C24" d="M21.257,6.036c-1.291,0.531-2.576,1.077-3.856,1.636
				c-0.082,0.035,0.01,0.465-0.066,0.499c1.279-0.558,2.565-1.103,3.855-1.636C21.268,6.502,21.178,6.069,21.257,6.036z"/>
			<path opacity="0.1091" fill="#754C24" d="M20.064,8.522c-0.648,0.28-1.295,0.559-1.943,0.837c0.122-0.051,0.364,0.174,0.489,0.12
				c0.647-0.279,1.295-0.558,1.943-0.837C20.434,8.693,20.19,8.468,20.064,8.522z"/>
			<path opacity="0.1091" fill="#754C24" d="M23.505,6.079c-1.27,0.518-2.53,1.05-3.786,1.6c-0.055,0.025,0.147,0.484,0.208,0.459
				c1.213-0.527,2.427-1.046,3.645-1.562C23.614,6.559,23.466,6.094,23.505,6.079z"/>
			<path opacity="0.1091" fill="#754C24" d="M21.776,5.56c-1.291,0.531-2.576,1.075-3.854,1.633
				c-0.136,0.058-0.173,0.342-0.306,0.398c1.279-0.558,2.563-1.102,3.854-1.632C21.604,5.903,21.642,5.617,21.776,5.56z"/>
			<path opacity="0.1091" fill="#754C24" d="M22.219,5.697C21,6.001,19.827,6.436,18.705,7.001c-0.094,0.04,0.089,0.508,0.169,0.475
				c1.322-0.523,2.604-1.131,3.846-1.823C22.584,5.722,22.366,5.653,22.219,5.697z"/>
			<path opacity="0.1091" fill="#754C24" d="M23.559,6.814c-1.285,0.536-2.567,1.083-3.843,1.639
				c-0.13,0.056-0.146,0.371-0.271,0.424c1.277-0.557,2.559-1.102,3.845-1.639C23.418,7.184,23.433,6.867,23.559,6.814z"/>
			<path opacity="0.1091" fill="#754C24" d="M21.235,6.65c-1.29,0.535-2.574,1.08-3.854,1.639c-0.014,0.005,0.173,0.472,0.166,0.475
				c1.28-0.558,2.564-1.104,3.854-1.639C21.411,7.121,21.225,6.655,21.235,6.65z"/>
		</g>
	</g>
</g>
<g>
	<g>
		<g>
			<path opacity="0.1091" fill="#754C24" d="M21.386,7.622c-0.292,0.115-0.585,0.229-0.877,0.342
				c0.155-0.061,0.317-0.108,0.473-0.169c0.285-0.111,0.569-0.222,0.854-0.333C21.752,7.496,21.516,7.572,21.386,7.622z"/>
			<path opacity="0.1091" fill="#754C24" d="M20.427,6.544c-0.288,0.112-0.577,0.224-0.865,0.336c0.025-0.01,0.232,0.44,0.264,0.428
				c0.288-0.112,0.578-0.224,0.867-0.336C20.666,6.981,20.458,6.532,20.427,6.544z"/>
			<path opacity="0.1091" fill="#754C24" d="M20.9,5.073c-0.284,0.111-0.569,0.222-0.854,0.332C19.891,5.466,19.74,5.539,19.583,5.6
				c0.292-0.113,0.585-0.227,0.879-0.34C20.593,5.208,20.817,5.104,20.9,5.073z"/>
			<path opacity="0.1091" fill="#754C24" d="M21.57,6.152c-0.289,0.112-0.577,0.226-0.866,0.338c-0.074,0.027,0.018,0.472-0.053,0.5
				c0.289-0.112,0.577-0.224,0.866-0.336C21.591,6.625,21.5,6.18,21.57,6.152z"/>
			<path opacity="0.1091" fill="#754C24" d="M21.329,4.981c-0.288,0.112-0.577,0.224-0.865,0.336
				c0.124-0.047,0.358,0.188,0.483,0.14c0.288-0.112,0.577-0.224,0.866-0.336C21.69,5.168,21.455,4.933,21.329,4.981z"/>
			<path opacity="0.1091" fill="#754C24" d="M19.909,5.939c-0.29,0.114-0.578,0.226-0.867,0.338
				c-0.076,0.029,0.008,0.469-0.068,0.499c0.29-0.112,0.579-0.225,0.868-0.336C19.918,6.408,19.834,5.968,19.909,5.939z"/>
			<path opacity="0.1091" fill="#754C24" d="M20.625,7.622c-0.289,0.112-0.577,0.225-0.866,0.338c0.127-0.05,0.36,0.167,0.488,0.118
				c0.29-0.112,0.577-0.224,0.867-0.336C20.986,7.791,20.753,7.571,20.625,7.622z"/>
			<path opacity="0.1091" fill="#754C24" d="M22.157,5.983c-0.289,0.112-0.578,0.224-0.867,0.336
				c-0.039,0.015,0.101,0.486,0.067,0.498c0.288-0.112,0.577-0.224,0.867-0.336C22.265,6.465,22.123,5.996,22.157,5.983z"/>
			<path opacity="0.1091" fill="#754C24" d="M20.428,5.464c-0.29,0.112-0.578,0.224-0.867,0.336
				c-0.134,0.053-0.173,0.347-0.306,0.398c0.289-0.112,0.577-0.224,0.866-0.336C20.256,5.811,20.296,5.516,20.428,5.464z"/>
			<path opacity="0.1091" fill="#754C24" d="M20.871,5.6c-0.288,0.113-0.577,0.226-0.867,0.338c0.149-0.058,0.352,0.014,0.501-0.044
				c0.29-0.112,0.579-0.226,0.867-0.338C21.224,5.614,21.022,5.542,20.871,5.6z"/>
			<path opacity="0.1091" fill="#754C24" d="M22.212,6.717c-0.288,0.112-0.577,0.224-0.866,0.337
				c-0.127,0.048-0.146,0.375-0.27,0.424c0.29-0.112,0.579-0.225,0.867-0.336C22.069,7.092,22.089,6.766,22.212,6.717z"/>
			<path opacity="0.1091" fill="#754C24" d="M19.888,6.555c-0.289,0.112-0.579,0.224-0.868,0.336
				c-0.006,0.002,0.171,0.473,0.166,0.475c0.289-0.112,0.577-0.224,0.866-0.336C20.06,7.027,19.884,6.557,19.888,6.555z"/>
		</g>
	</g>
</g>
<g>
	<g>
		<g>
			<path opacity="0.1091" fill="#754C24" d="M27.534,10.947c0.886,1.31,1.64,2.689,2.263,4.143c0.01,0.02,0.467-0.183,0.474-0.167
				c-0.622-1.453-1.377-2.834-2.263-4.144C27.989,10.748,27.551,10.976,27.534,10.947z"/>
			<path opacity="0.1091" fill="#754C24" d="M26.613,9.91c0.743,1.365,1.488,2.729,2.231,4.094c0.073,0.149,0.192,0.278,0.266,0.428
				c-1.359-2.796-0.677-1.55-2.285-4.186C26.792,10.192,26.547,9.801,26.613,9.91z"/>
			<path opacity="0.1091" fill="#754C24" d="M26.609,8.584c0.886,1.306,1.639,2.684,2.261,4.135
				c0.004,0.009,0.459-0.202,0.462-0.197c-0.62-1.451-1.373-2.828-2.259-4.131C27.06,8.368,26.622,8.605,26.609,8.584z"/>
			<path opacity="0.1091" fill="#754C24" d="M27.677,9.974c0.723,1.24,1.377,2.514,1.965,3.823c0.042,0.085,0.484-0.151,0.437-0.25
				c-0.591-1.467-1.375-2.825-2.349-4.074C27.801,9.581,27.613,9.856,27.677,9.974z"/>
			<path opacity="0.1091" fill="#754C24" d="M27.489,8.3c0.888,1.307,1.642,2.684,2.264,4.136c0.05,0.103,0.435,0.04,0.482,0.139
				c-0.62-1.451-1.375-2.828-2.264-4.132C27.906,8.338,27.555,8.407,27.489,8.3z"/>
			<path opacity="0.1091" fill="#754C24" d="M26.002,9.759c0.883,1.307,1.636,2.687,2.257,4.137
				c-0.061-0.125,0.129-0.373,0.067-0.499c-0.622-1.45-1.373-2.83-2.257-4.138C26.138,9.372,25.934,9.647,26.002,9.759z"/>
			<path opacity="0.1091" fill="#754C24" d="M28.003,12.943c0.348,0.714,0.695,1.427,1.043,2.141
				c0.047,0.098,0.441,0.026,0.488,0.121c-0.348-0.714-0.695-1.429-1.042-2.143C28.443,12.963,28.049,13.036,28.003,12.943z"/>
			<path opacity="0.1091" fill="#754C24" d="M28.384,9.802c0.889,1.305,1.645,2.685,2.266,4.137
				c-0.069-0.143,0.004-0.354-0.066-0.499c-0.621-1.453-1.377-2.832-2.266-4.138C28.396,9.433,28.304,9.671,28.384,9.802z"/>
			<path opacity="0.1091" fill="#754C24" d="M26.283,9.184c0.883,1.307,1.636,2.685,2.257,4.136c-0.031-0.065,0.341-0.33,0.306-0.4
				c-0.621-1.451-1.373-2.828-2.257-4.135C26.619,8.835,26.25,9.131,26.283,9.184z"/>
			<path opacity="0.1091" fill="#754C24" d="M27.031,8.922c0.886,1.305,1.641,2.683,2.261,4.133
				c0.027,0.057,0.478-0.095,0.501-0.044c-0.62-1.451-1.375-2.829-2.261-4.134C27.492,8.811,27.069,8.983,27.031,8.922z"/>
			<path opacity="0.1091" fill="#754C24" d="M28.102,10.462c0.889,1.307,1.643,2.687,2.266,4.14
				c-0.037-0.076,0.311-0.343,0.27-0.424c-0.622-1.453-1.377-2.833-2.266-4.141C28.409,10.099,28.063,10.397,28.102,10.462z"/>
			<path opacity="0.1091" fill="#754C24" d="M26.214,10.35c0.883,1.308,1.635,2.688,2.256,4.14
				c-0.072-0.149-0.093-0.325-0.165-0.476c-0.621-1.451-1.374-2.831-2.257-4.14C26.133,10.014,26.128,10.209,26.214,10.35z"/>
		</g>
	</g>
</g>
<g>
	<g>
		<g>
			<path opacity="0.1091" fill="#754C24" d="M28.496,15.952c0.512,1.164,0.962,2.353,1.348,3.565
				c0.002,0.003,0.477-0.163,0.474-0.167c-0.385-1.214-0.835-2.403-1.348-3.567C28.965,15.773,28.497,15.958,28.496,15.952z"/>
			<path opacity="0.1091" fill="#754C24" d="M27.549,14.868c0.337,1.249,0.729,2.48,1.177,3.693
				c0.029,0.084,0.507-0.075,0.479-0.154c-0.277-1.126-0.742-2.167-1.398-3.123C27.733,15.153,27.591,15.011,27.549,14.868z"/>
			<path opacity="0.1091" fill="#754C24" d="M27.571,13.588c0.512,1.163,0.961,2.347,1.344,3.557
				c-0.001-0.008,0.468-0.184,0.464-0.198c-0.385-1.208-0.833-2.395-1.344-3.556C28.035,13.393,27.57,13.585,27.571,13.588z"/>
			<path opacity="0.1091" fill="#754C24" d="M28.639,14.978c0.318,1.055,0.664,2.101,1.036,3.139
				c0.048,0.14,0.517-0.043,0.467-0.188c-0.341-1.209-0.823-2.36-1.45-3.452C28.753,14.604,28.596,14.839,28.639,14.978z"/>
			<path opacity="0.1091" fill="#754C24" d="M28.451,13.305c0.514,1.162,0.964,2.346,1.349,3.556
				c0.032,0.094,0.452,0.051,0.483,0.14c-0.385-1.21-0.835-2.395-1.349-3.556C28.895,13.348,28.49,13.401,28.451,13.305z"/>
			<path opacity="0.1091" fill="#754C24" d="M26.964,14.763c0.509,1.163,0.956,2.351,1.341,3.56
				c-0.048-0.14,0.116-0.355,0.066-0.498c-0.385-1.21-0.832-2.397-1.341-3.56C27.086,14.397,26.908,14.627,26.964,14.763z"/>
			<path opacity="0.1091" fill="#754C24" d="M27.746,15.946c0.512,1.166,0.96,2.354,1.345,3.567c0.03,0.088,0.46,0.036,0.489,0.119
				c-0.387-1.213-0.835-2.4-1.346-3.565C28.197,15.974,27.783,16.036,27.746,15.946z"/>
			<path opacity="0.1091" fill="#754C24" d="M29.346,14.806c0.517,1.163,0.966,2.349,1.353,3.56
				c-0.054-0.154-0.013-0.342-0.068-0.499c-0.385-1.211-0.836-2.398-1.351-3.56C29.34,14.456,29.283,14.655,29.346,14.806z"/>
			<path opacity="0.1091" fill="#754C24" d="M27.243,14.187c0.511,1.163,0.958,2.349,1.343,3.559c-0.029-0.084,0.338-0.31,0.306-0.4
				c-0.385-1.21-0.832-2.396-1.343-3.557C27.581,13.865,27.21,14.107,27.243,14.187z"/>
			<path opacity="0.1091" fill="#754C24" d="M27.993,13.925c0.487,1.12,0.915,2.26,1.285,3.424c0.033,0.093,0.504-0.083,0.469-0.184
				c-0.349-1.123-0.766-2.217-1.253-3.286C28.474,13.832,28.01,13.967,27.993,13.925z"/>
			<path opacity="0.1091" fill="#754C24" d="M29.063,15.466c0.515,1.164,0.966,2.352,1.351,3.564
				c-0.033-0.096,0.306-0.324,0.271-0.425c-0.385-1.212-0.836-2.4-1.352-3.564C29.369,15.128,29.026,15.375,29.063,15.466z"/>
			<path opacity="0.1091" fill="#754C24" d="M27.174,15.354c0.42,1.108,0.839,2.217,1.257,3.326
				c0.032,0.091,0.136,0.376,0.043,0.109c-0.516-1.493-0.869-2.447-1.464-3.91C27.071,15.034,27.112,15.199,27.174,15.354z"/>
		</g>
	</g>
</g>
<g>
	<g>
		<g>
			<path opacity="0.1091" fill="#754C24" d="M29.65,20.475c0.065,0.74,0.13,1.479,0.193,2.218c-0.003-0.037,0.478-0.121,0.474-0.168
				c-0.063-0.74-0.129-1.479-0.192-2.219C30.128,20.346,29.647,20.431,29.65,20.475z"/>
			<path opacity="0.1091" fill="#754C24" d="M28.703,19.391c0.017,0.724,0.033,1.448,0.052,2.173
				c0.003,0.161,0.527,0.125,0.502-0.023c-0.097-0.575-0.192-1.147-0.289-1.722C28.944,19.674,28.708,19.534,28.703,19.391z"/>
			<path opacity="0.1091" fill="#754C24" d="M28.728,18.111c0.062,0.736,0.126,1.473,0.188,2.209
				c-0.004-0.048,0.468-0.141,0.464-0.198c-0.063-0.735-0.126-1.471-0.189-2.208C29.193,17.964,28.722,18.057,28.728,18.111z"/>
			<path opacity="0.1091" fill="#754C24" d="M29.794,19.5c-0.021,0.55-0.044,1.098-0.066,1.647c-0.008,0.21,0.54,0.162,0.5-0.056
				c-0.127-0.697-0.255-1.395-0.381-2.091C29.873,19.152,29.8,19.346,29.794,19.5z"/>
			<path opacity="0.1091" fill="#754C24" d="M29.606,17.829c0.064,0.736,0.128,1.471,0.193,2.208
				c0.006,0.065,0.479,0.084,0.483,0.14c-0.064-0.736-0.129-1.472-0.192-2.208C30.085,17.906,29.611,17.887,29.606,17.829z"/>
			<path opacity="0.1091" fill="#754C24" d="M28.118,19.286c0.063,0.738,0.123,1.476,0.186,2.212
				c-0.014-0.162,0.08-0.333,0.067-0.499c-0.062-0.738-0.124-1.474-0.186-2.212C28.198,18.95,28.104,19.123,28.118,19.286z"/>
			<path opacity="0.1091" fill="#754C24" d="M28.901,20.47c0.063,0.74,0.126,1.479,0.189,2.22c0.006,0.057,0.484,0.07,0.489,0.119
				c-0.064-0.739-0.126-1.479-0.19-2.219C29.385,20.535,28.905,20.521,28.901,20.47z"/>
			<path opacity="0.1091" fill="#754C24" d="M30.434,18.831c-0.013,0.76-0.026,1.519-0.04,2.278
				c-0.003,0.115,0.524,0.057,0.498-0.07c-0.152-0.732-0.303-1.463-0.454-2.195C30.437,18.839,30.436,18.835,30.434,18.831z"/>
			<path opacity="0.1091" fill="#754C24" d="M28.399,18.71c0.062,0.736,0.124,1.474,0.187,2.21c-0.01-0.121,0.317-0.273,0.306-0.399
				c-0.063-0.738-0.124-1.474-0.187-2.21C28.715,18.432,28.388,18.584,28.399,18.71z"/>
			<path opacity="0.1091" fill="#754C24" d="M29.147,18.446c0.058,0.649,0.112,1.298,0.169,1.948
				c0.013,0.149,0.514,0.106,0.501-0.044c-0.057-0.649-0.111-1.298-0.169-1.947C29.648,18.397,29.147,18.442,29.147,18.446z"/>
			<path opacity="0.1091" fill="#754C24" d="M30.219,19.989c0.022,0.62,0.043,1.24,0.065,1.86c0.003,0.097,0.512,0.043,0.498-0.066
				c-0.098-0.739-0.195-1.479-0.293-2.217C30.506,19.692,30.215,19.855,30.219,19.989z"/>
			<path opacity="0.1091" fill="#754C24" d="M28.164,19.402c0.062,0.739,0.124,1.477,0.186,2.216
				c0.014,0.162,0.152,0.314,0.166,0.475c-0.063-0.739-0.125-1.477-0.186-2.216C28.316,19.715,28.178,19.563,28.164,19.402z"/>
		</g>
	</g>
</g>
<g>
	<g>
		<g>
			<path opacity="0.1091" fill="#754C24" d="M29.796,25.721c0.08,0.61,0.16,1.221,0.242,1.833c-0.005-0.032,0.479-0.131,0.473-0.169
				c-0.08-0.61-0.16-1.223-0.242-1.833C30.273,25.581,29.79,25.681,29.796,25.721z"/>
			<path opacity="0.1091" fill="#754C24" d="M28.848,24.637c0.029,0.599,0.058,1.196,0.087,1.796c0.007,0.141,0.531,0.076,0.5-0.05
				c-0.106-0.439-0.215-0.878-0.322-1.318C29.077,24.922,28.854,24.778,28.848,24.637z"/>
			<path opacity="0.1091" fill="#754C24" d="M28.871,23.355c0.079,0.609,0.159,1.217,0.238,1.825
				c-0.006-0.041,0.469-0.149,0.464-0.197c-0.081-0.608-0.159-1.217-0.24-1.824C29.339,23.199,28.864,23.307,28.871,23.355z"/>
			<path opacity="0.1091" fill="#754C24" d="M29.933,24.732c-0.007,0.438-0.016,0.875-0.022,1.313
				c-0.004,0.168,0.54,0.099,0.496-0.08c-0.14-0.573-0.28-1.147-0.421-1.721C30.019,24.383,29.936,24.587,29.933,24.732z"/>
			<path opacity="0.1091" fill="#754C24" d="M29.751,23.073c0.081,0.607,0.161,1.217,0.241,1.824c0.01,0.07,0.477,0.076,0.484,0.14
				c-0.082-0.609-0.162-1.217-0.242-1.824C30.225,23.141,29.76,23.136,29.751,23.073z"/>
			<path opacity="0.1091" fill="#754C24" d="M28.262,24.53c0.079,0.609,0.158,1.22,0.237,1.828
				c-0.021-0.158,0.087-0.337,0.066-0.498c-0.079-0.61-0.158-1.219-0.237-1.828C28.35,24.191,28.241,24.37,28.262,24.53z"/>
			<path opacity="0.1091" fill="#754C24" d="M29.046,25.717c0.08,0.61,0.159,1.221,0.239,1.831c0.008,0.063,0.481,0.063,0.488,0.12
				c-0.08-0.61-0.159-1.222-0.239-1.832C29.525,25.772,29.053,25.772,29.046,25.717z"/>
			<path opacity="0.1091" fill="#754C24" d="M30.597,24.209c0.081,0.609,0.161,1.219,0.241,1.829c0.01,0.076,0.08,0.559,0.037,0.229
				c-0.08-0.609-0.16-1.218-0.24-1.827C30.625,24.363,30.554,23.88,30.597,24.209z"/>
			<path opacity="0.1091" fill="#754C24" d="M28.543,23.955c0.079,0.608,0.158,1.218,0.236,1.826
				c-0.014-0.114,0.323-0.277,0.307-0.399c-0.079-0.607-0.158-1.217-0.237-1.826C28.864,23.67,28.526,23.834,28.543,23.955z"/>
			<path opacity="0.1091" fill="#754C24" d="M29.293,23.693c0.068,0.516,0.136,1.033,0.204,1.55c0.018,0.14,0.516,0.073,0.498-0.066
				c-0.068-0.509-0.135-1.019-0.201-1.528C29.791,23.635,29.293,23.694,29.293,23.693z"/>
			<path opacity="0.1091" fill="#754C24" d="M30.367,25.236c0.079,0.609,0.159,1.22,0.239,1.828
				c-0.017-0.124,0.288-0.295,0.271-0.425c-0.081-0.608-0.159-1.218-0.24-1.828C30.652,24.936,30.35,25.106,30.367,25.236z"/>
			<path opacity="0.1091" fill="#754C24" d="M28.308,24.648c0.079,0.608,0.158,1.219,0.236,1.829
				c0.021,0.164,0.145,0.313,0.167,0.476c-0.079-0.611-0.158-1.22-0.237-1.83C28.451,24.96,28.328,24.811,28.308,24.648z"/>
		</g>
	</g>
</g>
<g>
	<g>
		<g>
			<path opacity="0.1091" fill="#754C24" d="M29.843,29.859c0.242,0.537,0.386,1.101,0.435,1.688
				c-0.004-0.025,0.479-0.136,0.474-0.169c-0.048-0.587-0.192-1.15-0.435-1.688C30.314,29.687,29.841,29.854,29.843,29.859z"/>
			<path opacity="0.1091" fill="#754C24" d="M28.892,28.775c0.083,0.561,0.166,1.12,0.252,1.679c0.021,0.136,0.513,0.035,0.491-0.11
				c-0.156-1.037,0.006-0.551-0.734-1.558C28.897,28.782,28.895,28.779,28.892,28.775z"/>
			<path opacity="0.1091" fill="#754C24" d="M28.918,27.494c0.239,0.535,0.384,1.096,0.432,1.682
				c-0.005-0.036,0.47-0.155,0.463-0.198c-0.047-0.585-0.191-1.145-0.432-1.682C29.383,27.303,28.912,27.479,28.918,27.494z"/>
			<path opacity="0.1091" fill="#754C24" d="M29.982,28.884c0.021,0.402,0.066,0.803,0.139,1.2c0.023,0.163,0.511,0.04,0.484-0.138
				c-0.003-0.584-0.192-1.104-0.57-1.563C30.092,28.487,29.973,28.756,29.982,28.884z"/>
			<path opacity="0.1091" fill="#754C24" d="M29.799,27.212c0.242,0.534,0.387,1.095,0.435,1.68c0.012,0.075,0.472,0.072,0.482,0.14
				c-0.047-0.585-0.192-1.146-0.435-1.682C30.248,27.255,29.829,27.299,29.799,27.212z"/>
			<path opacity="0.1091" fill="#754C24" d="M28.31,28.669c0.237,0.537,0.38,1.099,0.429,1.685c-0.026-0.158,0.094-0.341,0.067-0.5
				c-0.048-0.585-0.192-1.146-0.43-1.683C28.424,28.31,28.259,28.525,28.31,28.669z"/>
			<path opacity="0.1091" fill="#754C24" d="M29.093,29.854c0.239,0.539,0.383,1.101,0.433,1.688
				c0.012,0.068,0.478,0.057,0.489,0.119c-0.05-0.587-0.194-1.15-0.434-1.687C29.549,29.884,29.121,29.937,29.093,29.854z"/>
			<path opacity="0.1091" fill="#754C24" d="M30.696,28.712c0.143,0.557,0.287,1.114,0.431,1.671
				c-0.015-0.088-0.039-0.335-0.061-0.473c-0.179-1.081-0.066-0.647-0.438-1.698C30.683,28.366,30.642,28.556,30.696,28.712z"/>
			<path opacity="0.1091" fill="#754C24" d="M28.59,28.093c0.238,0.537,0.382,1.098,0.431,1.684c-0.018-0.109,0.325-0.284,0.306-0.4
				c-0.048-0.585-0.19-1.146-0.431-1.682C28.925,27.776,28.559,28.002,28.59,28.093z"/>
			<path opacity="0.1091" fill="#754C24" d="M29.339,27.829c0.219,0.459,0.342,0.942,0.369,1.449c0.02,0.13,0.509,0.018,0.487-0.128
				c-0.02-0.481-0.138-0.937-0.355-1.366C29.823,27.739,29.353,27.865,29.339,27.829z"/>
			<path opacity="0.1091" fill="#754C24" d="M30.413,29.373c0.242,0.537,0.388,1.1,0.435,1.687c-0.021-0.121,0.291-0.299,0.27-0.425
				c-0.047-0.587-0.192-1.149-0.435-1.685C30.716,29.044,30.378,29.273,30.413,29.373z"/>
			<path opacity="0.1091" fill="#754C24" d="M28.396,28.914c0.13,0.519,0.259,1.038,0.389,1.557
				c0.026,0.164,0.139,0.313,0.165,0.476c-0.151-0.898-0.204-1.047-0.511-1.925C28.407,28.931,28.305,28.646,28.396,28.914z"/>
		</g>
	</g>
</g>
<g>
	<g>
		<g>
			<path opacity="0.1091" fill="#754C24" d="M29.747,32.218c0.188,0.276,0.253,0.583,0.192,0.915c0-0.05,0.475-0.111,0.474-0.17
				c0.061-0.331-0.003-0.637-0.192-0.914C30.214,32.032,29.75,32.224,29.747,32.218z"/>
			<path opacity="0.1091" fill="#754C24" d="M28.801,31.133c0.051,0.328,0.063,0.658,0.038,0.989
				c-0.002,0.088,0.491,0.046,0.497-0.079C29.362,31.419,29.412,31.718,28.801,31.133z"/>
			<path opacity="0.1091" fill="#754C24" d="M28.822,29.853c0.188,0.276,0.252,0.581,0.191,0.913c0-0.06,0.464-0.129,0.464-0.197
				c0.06-0.331-0.005-0.636-0.192-0.912C29.282,29.647,28.821,29.85,28.822,29.853z"/>
			<path opacity="0.1091" fill="#754C24" d="M29.932,30.753c-0.079,0.517-0.089,0.526-0.119,0.95
				c-0.016,0.223,0.48,0.071,0.484-0.029c0.109-0.382-0.013-0.693-0.363-0.933C29.933,30.745,29.932,30.749,29.932,30.753z"/>
			<path opacity="0.1091" fill="#754C24" d="M29.703,29.57c0.189,0.276,0.253,0.581,0.192,0.912c0,0.054,0.482,0.097,0.482,0.14
				c0.062-0.332-0.002-0.637-0.192-0.914C30.141,29.606,29.744,29.664,29.703,29.57z"/>
			<path opacity="0.1091" fill="#754C24" d="M28.214,31.027c0.063,0.305,0.127,0.609,0.19,0.914
				c-0.003-0.165,0.069-0.333,0.068-0.499c-0.01-0.631,0.055-0.349-0.192-0.915C28.337,30.656,28.154,30.894,28.214,31.027z"/>
			<path opacity="0.1091" fill="#754C24" d="M28.997,32.212c0.188,0.278,0.252,0.583,0.192,0.915c0,0.046,0.487,0.082,0.488,0.121
				c0.06-0.333-0.004-0.637-0.192-0.915C29.442,32.234,29.036,32.302,28.997,32.212z"/>
			<path opacity="0.1091" fill="#754C24" d="M30.533,30.585c0.049,0.409,0.047,0.816-0.007,1.223
				c0.006-0.061,0.453-0.137,0.445-0.232c0.074-0.423-0.073-0.758-0.438-1.005C30.533,30.576,30.533,30.58,30.533,30.585z"/>
			<path opacity="0.1091" fill="#754C24" d="M28.492,30.449c0.188,0.278,0.252,0.582,0.192,0.915
				c-0.002-0.129,0.309-0.265,0.306-0.399c0.06-0.332-0.004-0.637-0.192-0.915C28.828,30.119,28.457,30.371,28.492,30.449z"/>
			<path opacity="0.1091" fill="#754C24" d="M29.243,30.191c0.178,0.226,0.229,0.477,0.156,0.752
				c-0.002,0.083,0.487,0.026,0.493-0.106c0.076-0.261,0.027-0.49-0.148-0.689C29.713,30.086,29.267,30.24,29.243,30.191z"/>
			<path opacity="0.1091" fill="#754C24" d="M30.317,31.733c0.191,0.276,0.255,0.581,0.192,0.913
				c-0.001-0.138,0.271-0.28,0.27-0.425c0.063-0.332-0.001-0.637-0.19-0.913C30.623,31.389,30.278,31.644,30.317,31.733z"/>
			<path opacity="0.1091" fill="#754C24" d="M28.418,31.607c0.063,0.14,0.124,0.281,0.185,0.421
				c-0.053-0.153-0.106-0.309-0.159-0.463c0.003,0.164,0.004,0.328,0.007,0.493c0.003,0.16,0.163,0.317,0.166,0.475
				c-0.008-0.568-0.122-0.855-0.352-1.377C28.3,31.236,28.363,31.479,28.418,31.607z"/>
		</g>
	</g>
</g>
<g>
	<g>
		<g>
			<path opacity="0.1091" fill="#754C24" d="M13.445,14.177c-0.118,0.674-0.191,1.34-0.249,2.021
				c0.005-0.066,0.468-0.097,0.473-0.169c0.058-0.681,0.131-1.347,0.249-2.021C13.905,14.086,13.459,14.093,13.445,14.177z"/>
			<path opacity="0.1091" fill="#754C24" d="M12.68,12.703c-0.441,0.766-0.455,1.574-0.526,2.443
				c-0.007,0.085,0.487,0.158,0.49,0.109c0.057-0.711,0.082-1.44,0.302-2.125C12.973,13.042,12.638,12.777,12.68,12.703z"/>
			<path opacity="0.1091" fill="#754C24" d="M12.519,11.811c-0.119,0.671-0.193,1.334-0.252,2.014
				c0.007-0.076,0.456-0.116,0.464-0.198c0.058-0.678,0.133-1.341,0.252-2.012C12.966,11.701,12.536,11.718,12.519,11.811z"/>
			<path opacity="0.1091" fill="#754C24" d="M13.82,12.312c-0.386,0.306-0.572,0.702-0.558,1.188c-0.042,0.385-0.075,0.77-0.1,1.156
				c-0.011,0.151,0.487,0.219,0.497,0.079C13.719,13.917,13.89,13.125,13.82,12.312z"/>
			<path opacity="0.1091" fill="#754C24" d="M13.401,11.528c-0.118,0.671-0.191,1.334-0.25,2.012
				c-0.003,0.036,0.486,0.111,0.484,0.14c0.058-0.678,0.131-1.343,0.249-2.013C13.888,11.646,13.398,11.542,13.401,11.528z"/>
			<path opacity="0.1091" fill="#754C24" d="M11.974,12.501c-0.148,0.832-0.244,1.643-0.317,2.488
				c0.007-0.088,0.053-0.333,0.065-0.473c0.034-0.518,0.098-1.031,0.191-1.543C11.938,12.836,11.958,12.588,11.974,12.501z"/>
			<path opacity="0.1091" fill="#754C24" d="M12.695,14.172c-0.119,0.674-0.193,1.34-0.252,2.021
				c-0.002,0.027,0.49,0.097,0.489,0.12c0.058-0.681,0.133-1.348,0.252-2.021C13.185,14.278,12.694,14.18,12.695,14.172z"/>
			<path opacity="0.1091" fill="#754C24" d="M14.41,12.143c-0.349,0.753-0.358,1.586-0.427,2.404
				c-0.014,0.165,0.08,0.336,0.066,0.499c0.07-0.817,0.08-1.651,0.428-2.404C14.536,12.512,14.351,12.27,14.41,12.143z"/>
			<path opacity="0.1091" fill="#754C24" d="M12.191,12.411c-0.119,0.671-0.195,1.334-0.253,2.014
				c0.012-0.139,0.293-0.258,0.306-0.4c0.058-0.678,0.134-1.342,0.253-2.014C12.471,12.155,12.217,12.262,12.191,12.411z"/>
			<path opacity="0.1091" fill="#754C24" d="M13.124,11.761c-0.392,0.615-0.345,1.46-0.401,2.172
				c-0.007,0.095,0.489,0.163,0.494,0.097c0.063-0.8,0.101-1.567,0.408-2.313C13.593,11.792,13.172,11.685,13.124,11.761z"/>
			<path opacity="0.1091" fill="#754C24" d="M14.192,13.3c-0.346,0.756-0.355,1.59-0.426,2.41c0.013-0.146,0.258-0.275,0.27-0.425
				c0.069-0.819,0.079-1.654,0.429-2.408C14.395,13.027,14.262,13.149,14.192,13.3z"/>
			<path opacity="0.1091" fill="#754C24" d="M11.956,13.104c-0.121,0.672-0.195,1.338-0.255,2.018
				c-0.012,0.153,0.18,0.324,0.166,0.475c0.06-0.68,0.134-1.345,0.255-2.017C12.147,13.433,11.931,13.246,11.956,13.104z"/>
		</g>
	</g>
</g>
<g>
	<g>
		<g>
			<path opacity="0.1091" fill="#754C24" d="M13.26,18.258c-0.127,0.859-0.346,1.679-0.594,2.511
				c0.028-0.091,0.446-0.071,0.475-0.167c0.247-0.833,0.466-1.653,0.592-2.512C13.724,18.161,13.272,18.175,13.26,18.258z"/>
			<path opacity="0.1091" fill="#754C24" d="M12.247,16.792c-0.063,0.998-0.323,1.932-0.615,2.884
				c-0.023,0.076,0.462,0.202,0.492,0.108c0.104-0.333,0.203-0.667,0.297-1.003c0.265-0.912,0.346-1.168-0.166-1.978
				C12.252,16.8,12.25,16.796,12.247,16.792z"/>
			<path opacity="0.1091" fill="#754C24" d="M12.334,15.89c-0.129,0.858-0.349,1.676-0.595,2.505c0.029-0.1,0.43-0.091,0.462-0.196
				c0.248-0.831,0.468-1.648,0.595-2.505C12.785,15.774,12.348,15.798,12.334,15.89z"/>
			<path opacity="0.1091" fill="#754C24" d="M13.389,16.402c-0.173,0.372-0.27,0.762-0.292,1.171
				c-0.083,0.556-0.293,1.114-0.462,1.651c-0.041,0.13,0.45,0.229,0.497,0.079C13.448,18.292,13.872,17.389,13.389,16.402z"/>
			<path opacity="0.1091" fill="#754C24" d="M13.215,15.607c-0.127,0.857-0.346,1.675-0.594,2.505c0,0.001,0.482,0.144,0.483,0.139
				c0.248-0.829,0.467-1.647,0.594-2.504C13.703,15.719,13.213,15.624,13.215,15.607z"/>
			<path opacity="0.1091" fill="#754C24" d="M11.782,16.619c-0.143,0.833-0.339,1.651-0.588,2.457
				c-0.047,0.159-0.02,0.34-0.066,0.499c0.253-0.85,0.475-1.683,0.607-2.561C11.743,16.951,11.801,16.493,11.782,16.619z"/>
			<path opacity="0.1091" fill="#754C24" d="M12.508,18.252c-0.127,0.86-0.348,1.681-0.595,2.512
				c0.002-0.005,0.486,0.13,0.488,0.119c0.248-0.832,0.468-1.651,0.595-2.511C13.001,18.352,12.507,18.262,12.508,18.252z"/>
			<path opacity="0.1091" fill="#754C24" d="M14.043,16.731c0.021,0.122,0.043,0.244,0.065,0.366
				c-0.021-0.162-0.043-0.324-0.064-0.486c-0.126,0.858-0.345,1.677-0.591,2.508c-0.044,0.148,0.109,0.353,0.066,0.498
				c0.353-1.186,0.675-2.187,0.457-3.385C14.007,16.396,14.014,16.566,14.043,16.731z"/>
			<path opacity="0.1091" fill="#754C24" d="M12.006,16.49c-0.13,0.857-0.35,1.676-0.598,2.505c0.044-0.148,0.262-0.248,0.306-0.399
				c0.248-0.83,0.468-1.648,0.598-2.506C12.29,16.233,12.028,16.342,12.006,16.49z"/>
			<path opacity="0.1091" fill="#754C24" d="M12.691,15.851c0.277,0.76-0.266,1.899-0.496,2.646
				c-0.021,0.068,0.466,0.19,0.494,0.098c0.281-0.916,0.606-1.823,0.502-2.79C13.19,15.786,12.699,15.873,12.691,15.851z"/>
			<path opacity="0.1091" fill="#754C24" d="M13.761,17.39c0.17,0.959-0.252,1.977-0.523,2.892c0.045-0.154,0.223-0.27,0.27-0.425
				c0.271-0.914,0.695-1.932,0.523-2.89C14.053,17.087,13.74,17.268,13.761,17.39z"/>
			<path opacity="0.1091" fill="#754C24" d="M11.771,17.184c-0.13,0.858-0.35,1.678-0.598,2.509
				c-0.04,0.132,0.204,0.346,0.166,0.475c0.248-0.832,0.468-1.651,0.597-2.51C11.958,17.509,11.748,17.328,11.771,17.184z"/>
		</g>
	</g>
</g>
<g>
	<g>
		<g>
			<path opacity="0.1091" fill="#754C24" d="M13.819,20.716c-0.256,1.076-0.512,2.152-0.768,3.229
				c0.021-0.086,0.453-0.078,0.475-0.169c0.256-1.077,0.512-2.152,0.768-3.229C14.273,20.634,13.841,20.625,13.819,20.716z"/>
			<path opacity="0.1091" fill="#754C24" d="M12.872,19.632c-0.274,1.043-0.549,2.087-0.823,3.13
				c-0.033,0.128,0.459,0.254,0.486,0.132c0.201-0.945,0.401-1.889,0.602-2.834C13.163,19.942,12.843,19.743,12.872,19.632z"/>
			<path opacity="0.1091" fill="#754C24" d="M12.896,18.353c-0.257,1.073-0.515,2.144-0.772,3.217
				c0.022-0.094,0.438-0.097,0.462-0.196c0.258-1.073,0.515-2.146,0.772-3.218C13.334,18.252,12.919,18.255,12.896,18.353z"/>
			<path opacity="0.1091" fill="#754C24" d="M14.016,19.24c-0.326,1.04-0.649,2.079-0.975,3.117
				c-0.051,0.165,0.465,0.279,0.493,0.105c0.143-0.907,0.287-1.815,0.429-2.721C13.988,19.581,13.967,19.394,14.016,19.24z"/>
			<path opacity="0.1091" fill="#754C24" d="M13.774,18.071c-0.256,1.071-0.512,2.144-0.768,3.217
				c-0.003,0.011,0.484,0.136,0.483,0.138c0.256-1.071,0.512-2.144,0.769-3.216C14.26,18.201,13.773,18.076,13.774,18.071z"/>
			<path opacity="0.1091" fill="#754C24" d="M12.354,19.029c-0.259,1.074-0.518,2.148-0.776,3.222
				c-0.039,0.162-0.028,0.336-0.066,0.498c0.259-1.074,0.516-2.148,0.775-3.222C12.327,19.365,12.316,19.19,12.354,19.029z"/>
			<path opacity="0.1091" fill="#754C24" d="M13.07,20.71c-0.258,1.075-0.515,2.152-0.772,3.229c0,0.004,0.488,0.122,0.488,0.12
				c0.258-1.076,0.515-2.153,0.772-3.229C13.559,20.828,13.07,20.71,13.07,20.71z"/>
			<path opacity="0.1091" fill="#754C24" d="M14.603,19.072c-0.314,1.092-0.628,2.185-0.944,3.278
				c-0.018,0.063,0.482,0.167,0.496,0.085c0.172-0.955,0.345-1.91,0.516-2.865C14.698,19.416,14.561,19.217,14.603,19.072z"/>
			<path opacity="0.1091" fill="#754C24" d="M12.568,18.951c-0.259,1.074-0.517,2.147-0.775,3.22
				c0.036-0.147,0.27-0.248,0.306-0.399c0.259-1.073,0.516-2.147,0.775-3.219C12.837,18.701,12.604,18.802,12.568,18.951z"/>
			<path opacity="0.1091" fill="#754C24" d="M13.316,18.689c-0.235,0.963-0.469,1.927-0.705,2.892
				c-0.029,0.122,0.459,0.244,0.487,0.123c0.239-1.02,0.479-2.04,0.718-3.06C13.807,18.692,13.33,18.634,13.316,18.689z"/>
			<path opacity="0.1091" fill="#754C24" d="M14.388,20.23c-0.254,1.076-0.511,2.151-0.765,3.226c0.036-0.152,0.232-0.27,0.27-0.425
				c0.255-1.075,0.511-2.151,0.766-3.225C14.622,19.959,14.424,20.075,14.388,20.23z"/>
			<path opacity="0.1091" fill="#754C24" d="M12.333,19.643c-0.259,1.076-0.517,2.149-0.775,3.225
				c-0.033,0.139,0.198,0.341,0.165,0.475c0.259-1.075,0.518-2.149,0.776-3.225C12.532,19.979,12.3,19.779,12.333,19.643z"/>
		</g>
	</g>
</g>
<g>
	<g>
		<g>
			<path opacity="0.1091" fill="#754C24" d="M13.772,24.951c-0.081,0.852-0.159,1.702-0.24,2.555
				c0.007-0.067,0.468-0.095,0.475-0.168c0.079-0.852,0.159-1.704,0.238-2.556C14.24,24.849,13.779,24.877,13.772,24.951z"/>
			<path opacity="0.1091" fill="#754C24" d="M12.822,23.867c-0.115,0.876-0.231,1.754-0.347,2.63
				c-0.007,0.053,0.494,0.113,0.495,0.083c0.039-0.761,0.079-1.522,0.118-2.285C13.095,24.161,12.806,23.995,12.822,23.867z"/>
			<path opacity="0.1091" fill="#754C24" d="M12.847,22.586c-0.082,0.849-0.162,1.697-0.244,2.547
				c0.008-0.078,0.456-0.115,0.464-0.198c0.08-0.849,0.162-1.697,0.242-2.545C13.303,22.466,12.854,22.503,12.847,22.586z"/>
			<path opacity="0.1091" fill="#754C24" d="M13.96,23.488c-0.162,0.818-0.322,1.636-0.484,2.454
				c-0.029,0.152,0.502,0.196,0.502,0.036c-0.005-0.835-0.011-1.668-0.015-2.503C13.961,23.479,13.96,23.484,13.96,23.488z"/>
			<path opacity="0.1091" fill="#754C24" d="M13.728,22.304c-0.08,0.849-0.159,1.696-0.239,2.545
				c-0.003,0.035,0.486,0.111,0.483,0.14c0.08-0.848,0.159-1.696,0.239-2.545C14.213,22.407,13.725,22.33,13.728,22.304z"/>
			<path opacity="0.1091" fill="#754C24" d="M12.238,23.748c-0.082,0.851-0.164,1.7-0.245,2.55c0.008-0.089,0.053-0.333,0.065-0.474
				c0.082-0.848,0.165-1.698,0.247-2.548C12.296,23.363,12.252,23.608,12.238,23.748z"/>
			<path opacity="0.1091" fill="#754C24" d="M13.021,24.947c-0.08,0.851-0.16,1.702-0.242,2.554
				c-0.002,0.026,0.492,0.098,0.489,0.12c0.08-0.853,0.162-1.704,0.242-2.555C13.513,25.037,13.021,24.967,13.021,24.947z"/>
			<path opacity="0.1091" fill="#754C24" d="M14.558,23.306c-0.081,0.85-0.161,1.699-0.241,2.55
				c-0.016,0.163,0.083,0.337,0.067,0.498c0.081-0.85,0.161-1.7,0.241-2.55C14.641,23.641,14.543,23.468,14.558,23.306z"/>
			<path opacity="0.1091" fill="#754C24" d="M12.519,23.187c-0.082,0.849-0.163,1.697-0.245,2.547c0.014-0.14,0.292-0.256,0.306-0.4
				c0.082-0.849,0.164-1.698,0.245-2.547C12.811,22.925,12.533,23.041,12.519,23.187z"/>
			<path opacity="0.1091" fill="#754C24" d="M13.268,22.924c-0.073,0.771-0.148,1.543-0.223,2.315
				c-0.007,0.08,0.494,0.13,0.501,0.053c0.075-0.805,0.149-1.61,0.223-2.414C13.768,22.902,13.272,22.888,13.268,22.924z"/>
			<path opacity="0.1091" fill="#754C24" d="M14.342,24.467c-0.079,0.85-0.159,1.699-0.24,2.55c0.014-0.146,0.255-0.274,0.27-0.424
				c0.08-0.85,0.161-1.699,0.241-2.551C14.6,24.188,14.357,24.316,14.342,24.467z"/>
			<path opacity="0.1091" fill="#754C24" d="M12.284,23.879c-0.082,0.85-0.163,1.701-0.245,2.551
				c-0.015,0.152,0.18,0.325,0.165,0.475c0.082-0.85,0.164-1.701,0.245-2.551C12.464,24.199,12.269,24.028,12.284,23.879z"/>
		</g>
	</g>
</g>
<g>
	<g>
		<g>
			<path opacity="0.1091" fill="#754C24" d="M13.867,29.667c-0.095,0.69-0.191,1.381-0.286,2.072
				c0.009-0.073,0.462-0.089,0.473-0.169c0.096-0.691,0.192-1.382,0.288-2.072C14.333,29.568,13.88,29.585,13.867,29.667z"/>
			<path opacity="0.1091" fill="#754C24" d="M12.92,28.582c-0.119,0.708-0.238,1.416-0.355,2.123
				c-0.015,0.087,0.404,0.231,0.395,0.312c0.076-0.669,0.151-1.337,0.226-2.007C13.199,28.879,12.9,28.705,12.92,28.582z"/>
			<path opacity="0.1091" fill="#754C24" d="M12.943,27.302c-0.097,0.688-0.194,1.377-0.291,2.064
				c0.013-0.083,0.452-0.109,0.464-0.196c0.097-0.688,0.194-1.377,0.291-2.066C13.394,27.186,12.955,27.212,12.943,27.302z"/>
			<path opacity="0.1091" fill="#754C24" d="M14,28.19c0,0.688-0.324,1.377-0.5,2.064c-0.025,0.096,0.483,0.161,0.485,0.056
				C13.995,29.608,14,28.905,14,28.204C14,28.198,14,28.194,14,28.19z"/>
			<path opacity="0.1091" fill="#754C24" d="M13.823,27.02c-0.096,0.688-0.191,1.375-0.288,2.064
				c-0.003,0.025,0.487,0.118,0.484,0.139c0.096-0.688,0.191-1.376,0.287-2.065C14.31,27.13,13.82,27.037,13.823,27.02z"/>
			<path opacity="0.1091" fill="#754C24" d="M12.392,28.029c-0.097,0.689-0.195,1.38-0.292,2.069
				c-0.008,0.063-0.067,0.521-0.05,0.395c0.097-0.689,0.195-1.38,0.293-2.069C12.353,28.361,12.41,27.903,12.392,28.029z"/>
			<path opacity="0.1091" fill="#754C24" d="M13.117,29.661c-0.096,0.69-0.192,1.382-0.29,2.073
				c-0.002,0.019,0.49,0.105,0.489,0.119c0.097-0.69,0.194-1.381,0.29-2.071C13.61,29.76,13.116,29.674,13.117,29.661z"/>
			<path opacity="0.1091" fill="#754C24" d="M14.655,28.02c-0.097,0.691-0.192,1.38-0.289,2.071
				c-0.022,0.16,0.088,0.339,0.066,0.498c0.097-0.69,0.192-1.38,0.289-2.069C14.744,28.357,14.633,28.179,14.655,28.02z"/>
			<path opacity="0.1091" fill="#754C24" d="M12.615,27.9c-0.097,0.689-0.194,1.379-0.292,2.066
				c0.021-0.143,0.287-0.251,0.306-0.398c0.099-0.689,0.195-1.378,0.292-2.067C12.901,27.644,12.635,27.754,12.615,27.9z"/>
			<path opacity="0.1091" fill="#754C24" d="M13.365,27.64c-0.093,0.65-0.186,1.301-0.279,1.951
				c-0.003,0.023,0.491,0.109,0.49,0.115c0.097-0.703,0.194-1.408,0.291-2.111C13.862,27.625,13.372,27.595,13.365,27.64z"/>
			<path opacity="0.1091" fill="#754C24" d="M14.439,29.183c-0.097,0.689-0.192,1.378-0.289,2.069
				c0.021-0.151,0.248-0.272,0.27-0.425c0.097-0.691,0.192-1.38,0.29-2.069C14.688,28.905,14.461,29.029,14.439,29.183z"/>
			<path opacity="0.1091" fill="#754C24" d="M12.379,28.593c-0.097,0.69-0.195,1.382-0.292,2.07
				c-0.021,0.149,0.186,0.33,0.166,0.476c0.097-0.689,0.194-1.381,0.292-2.071C12.566,28.918,12.359,28.738,12.379,28.593z"/>
		</g>
	</g>
</g>
<g>
	<g>
		<g>
			<path opacity="0.1091" fill="#754C24" d="M13.82,33.227c-0.08,0.61-0.161,1.221-0.241,1.831c0.01-0.07,0.463-0.088,0.475-0.167
				c0.08-0.61,0.159-1.223,0.239-1.833C14.284,33.129,13.83,33.146,13.82,33.227z"/>
			<path opacity="0.1091" fill="#754C24" d="M12.875,32.142c-0.111,0.596-0.222,1.191-0.331,1.788
				c-0.021,0.108,0.489,0.183,0.496,0.086c0.033-0.483,0.066-0.965,0.1-1.446C13.149,32.437,12.853,32.258,12.875,32.142z"/>
			<path opacity="0.1091" fill="#754C24" d="M12.895,30.861c-0.081,0.609-0.161,1.217-0.243,1.824
				c0.011-0.08,0.452-0.107,0.464-0.196c0.081-0.607,0.161-1.217,0.242-1.824C13.347,30.744,12.907,30.771,12.895,30.861z"/>
			<path opacity="0.1091" fill="#754C24" d="M13.998,31.763c-0.155,0.575-0.312,1.151-0.468,1.726
				c-0.044,0.162,0.503,0.225,0.501,0.046c-0.008-0.591-0.018-1.181-0.026-1.771C14.004,31.746,14.001,31.746,13.998,31.763z"/>
			<path opacity="0.1091" fill="#754C24" d="M13.774,30.579c-0.079,0.607-0.159,1.217-0.239,1.824
				c-0.003,0.029,0.486,0.119,0.483,0.14c0.081-0.609,0.161-1.217,0.241-1.824C14.263,30.687,13.773,30.597,13.774,30.579z"/>
			<path opacity="0.1091" fill="#754C24" d="M12.3,31.902c-0.082,0.61-0.162,1.22-0.243,1.828c-0.038,0.281,0.007-0.02,0.019-0.114
				c0.083-0.609,0.165-1.219,0.247-1.829C12.382,31.35,12.331,31.674,12.3,31.902z"/>
			<path opacity="0.1091" fill="#754C24" d="M13.07,33.222c-0.082,0.611-0.162,1.222-0.243,1.832
				c-0.002,0.022,0.49,0.105,0.489,0.12c0.081-0.61,0.161-1.222,0.242-1.832C13.562,33.318,13.067,33.233,13.07,33.222z"/>
			<path opacity="0.1091" fill="#754C24" d="M14.604,31.581c-0.149,0.687-0.297,1.373-0.447,2.061
				c0.005-0.024,0.498-0.011,0.498-0.067c0.006-0.502,0.011-1.005,0.017-1.507C14.673,31.919,14.573,31.723,14.604,31.581z"/>
			<path opacity="0.1091" fill="#754C24" d="M12.563,31.459c-0.08,0.609-0.161,1.22-0.239,1.829c0.018-0.142,0.286-0.254,0.306-0.4
				c0.081-0.609,0.161-1.218,0.24-1.828C12.852,31.2,12.583,31.313,12.563,31.459z"/>
			<path opacity="0.1091" fill="#754C24" d="M13.316,31.203c-0.069,0.508-0.137,1.015-0.206,1.522
				c-0.017,0.115,0.483,0.185,0.497,0.07c0.071-0.545,0.142-1.09,0.21-1.637C13.815,31.186,13.323,31.157,13.316,31.203z"/>
			<path opacity="0.1091" fill="#754C24" d="M14.391,32.742c-0.081,0.609-0.161,1.22-0.241,1.828c0.019-0.147,0.25-0.272,0.27-0.425
				c0.081-0.608,0.161-1.218,0.241-1.827C14.641,32.466,14.411,32.59,14.391,32.742z"/>
			<path opacity="0.1091" fill="#754C24" d="M12.331,32.154c-0.082,0.608-0.162,1.219-0.244,1.828
				c-0.021,0.151,0.186,0.329,0.166,0.477c0.081-0.61,0.162-1.221,0.244-1.83C12.517,32.478,12.312,32.3,12.331,32.154z"/>
		</g>
	</g>
</g>
<g>
</g>
<g>
</g>
<g>
</g>
<g>
</g>
<g>
</g>
<g>
</g>
<g>
</g>
<g>
</g>
<g>
</g>
<g>
</g>
<g>
</g>
<g>
</g>
<g>
</g>
<g>
</g>
<g>
</g>
</svg>
