<?xml version="1.0" encoding="utf-8"?>
<!-- Generator: Adobe Illustrator 16.0.0, SVG Export Plug-In . SVG Version: 6.00 Build 0)  -->
<!DOCTYPE svg PUBLIC "-//W3C//DTD SVG 1.1//EN" "http://www.w3.org/Graphics/SVG/1.1/DTD/svg11.dtd">
<svg version="1.1" id="Слой_1" xmlns="http://www.w3.org/2000/svg" xmlns:xlink="http://www.w3.org/1999/xlink" x="0px" y="0px"
	 width="42px" height="42px" viewBox="0 0 42 42" enable-background="new 0 0 42 42" xml:space="preserve">
<path fill="#A6A674" stroke="#000000" stroke-miterlimit="10" d="M13.088,32.616c0,0,0.247-16.938,0.334-18.217
	s3.154-5.98,3.154-5.98S18.2,5.979,18.99,5.5s2.169-0.41,3.01,0c0.842,0.41,2.668,2.73,2.668,2.73
	c0.532,0.475,3.295,3.559,3.605,4.444c0.346,0.987,0.987,18.897,0.197,19.941s-6.666,3.218-6.666,3.218l-5.629,0.641
	c0,0-2.469-0.443-2.864-1.185S13.088,32.616,13.088,32.616z"/>
<g>
	<g>
		<g>
			<path opacity="0.1091" fill="#754C24" d="M20.089,7.83c-0.736,0.466-1.474,0.934-2.21,1.4c0.137-0.087,0.335-0.08,0.474-0.169
				c0.737-0.466,1.474-0.934,2.211-1.4C20.425,7.748,20.228,7.743,20.089,7.83z"/>
			<path opacity="0.1091" fill="#754C24" d="M19.142,6.748c-0.738,0.465-1.477,0.932-2.216,1.396
				c-0.004,0.003,0.263,0.429,0.264,0.428c0.739-0.465,1.479-0.932,2.217-1.396C19.411,7.172,19.144,6.746,19.142,6.748z"/>
			<path opacity="0.1091" fill="#754C24" d="M16.95,6.858c0.155,0,0.31-0.198,0.464-0.198C17.258,6.66,17.104,6.858,16.95,6.858z"/>
			<path opacity="0.1091" fill="#754C24" d="M20.284,6.356c-0.732,0.44-1.463,0.88-2.195,1.32c-0.086,0.053,0.188,0.479,0.274,0.422
				c0.623-0.414,1.246-0.828,1.869-1.243C20.32,6.797,20.197,6.408,20.284,6.356z"/>
			<path opacity="0.1091" fill="#754C24" d="M20.044,5.188c-0.738,0.462-1.474,0.925-2.21,1.387c0.093-0.058,0.388,0.201,0.483,0.14
				c0.736-0.464,1.474-0.927,2.211-1.391C20.434,5.383,20.14,5.128,20.044,5.188z"/>
			<path opacity="0.1091" fill="#754C24" d="M16.339,8.036c0.023,0,0.046-0.499,0.066-0.499C16.382,7.538,16.359,8.036,16.339,8.036
				z"/>
			<path opacity="0.1091" fill="#754C24" d="M17.614,9.346c-0.162,0-0.325-0.119-0.489-0.119
				C17.288,9.227,17.451,9.346,17.614,9.346z"/>
			<path opacity="0.1091" fill="#754C24" d="M20.872,6.186c-0.735,0.465-1.471,0.93-2.208,1.395
				c-0.062,0.039,0.123,0.464,0.066,0.499c0.736-0.465,1.473-0.93,2.209-1.394C21.001,6.646,20.815,6.222,20.872,6.186z"/>
			<path opacity="0.1091" fill="#754C24" d="M19.145,5.668c-0.741,0.463-1.479,0.927-2.219,1.391
				c-0.133,0.084-0.173,0.317-0.306,0.4c0.739-0.464,1.479-0.929,2.219-1.393C18.972,5.983,19.012,5.751,19.145,5.668z"/>
			<path opacity="0.1091" fill="#754C24" d="M19.586,5.804c-0.738,0.463-1.476,0.929-2.213,1.392
				c0.125-0.079,0.374,0.035,0.501-0.045c0.737-0.464,1.475-0.927,2.213-1.391C19.963,5.838,19.715,5.723,19.586,5.804z"/>
			<path opacity="0.1091" fill="#754C24" d="M20.928,6.92c-0.736,0.467-1.473,0.932-2.209,1.398
				c-0.129,0.082-0.143,0.345-0.27,0.425c0.736-0.466,1.473-0.933,2.209-1.399C20.787,7.264,20.8,7.001,20.928,6.92z"/>
			<path opacity="0.1091" fill="#754C24" d="M18.609,6.756c-0.742,0.466-1.482,0.933-2.224,1.399
				C16.352,8.176,16.58,8.61,16.55,8.63c0.739-0.465,1.477-0.93,2.214-1.395C18.799,7.212,18.575,6.778,18.609,6.756z"/>
		</g>
	</g>
</g>
<g>
	<g>
		<g>
			<path opacity="0.1091" fill="#754C24" d="M21.341,8.793c-1.478,1.194-2.985,2.35-4.521,3.467
				c0.127-0.095,0.344-0.072,0.473-0.169c1.538-1.115,3.045-2.272,4.522-3.467C21.69,8.723,21.466,8.695,21.341,8.793z"/>
			<path opacity="0.1091" fill="#754C24" d="M20.392,7.711c-1.479,1.193-2.987,2.347-4.523,3.464
				c-0.014,0.011,0.274,0.421,0.265,0.428c1.536-1.117,3.045-2.271,4.523-3.464C20.673,8.125,20.379,7.721,20.392,7.711z"/>
			<path opacity="0.1091" fill="#754C24" d="M20.417,6.429c-1.479,1.192-2.988,2.345-4.525,3.461c0.13-0.097,0.333-0.1,0.462-0.196
				c1.538-1.117,3.045-2.27,4.525-3.462C20.753,6.333,20.544,6.33,20.417,6.429z"/>
			<path opacity="0.1091" fill="#754C24" d="M21.537,7.318c-1.524,1.143-3.05,2.284-4.579,3.42c-0.054,0.04,0.252,0.439,0.314,0.393
				c1.463-1.028,2.866-2.133,4.211-3.312C21.575,7.743,21.444,7.387,21.537,7.318z"/>
			<path opacity="0.1091" fill="#754C24" d="M21.296,6.147c-1.479,1.191-2.985,2.345-4.522,3.46c0.08-0.06,0.401,0.202,0.484,0.14
				c1.535-1.116,3.042-2.27,4.522-3.46C21.704,6.345,21.375,6.084,21.296,6.147z"/>
			<path opacity="0.1091" fill="#754C24" d="M19.876,7.104c-1.481,1.193-2.99,2.348-4.528,3.464
				c-0.094,0.071,0.026,0.429-0.066,0.499c1.538-1.117,3.046-2.271,4.526-3.463C19.903,7.528,19.782,7.178,19.876,7.104z"/>
			<path opacity="0.1091" fill="#754C24" d="M20.591,8.788c-1.478,1.194-2.985,2.35-4.523,3.467
				c0.084-0.063,0.401,0.186,0.489,0.121c1.538-1.117,3.045-2.273,4.523-3.467C21,8.97,20.673,8.723,20.591,8.788z"/>
			<path opacity="0.1091" fill="#754C24" d="M22.125,7.149c-1.477,1.193-2.984,2.348-4.521,3.463
				c-0.068,0.051,0.13,0.453,0.068,0.499c1.535-1.116,3.042-2.27,4.519-3.463C22.262,7.592,22.06,7.199,22.125,7.149z"/>
			<path opacity="0.1091" fill="#754C24" d="M20.395,6.628c-1.48,1.192-2.988,2.346-4.526,3.463c-0.13,0.097-0.177,0.303-0.306,0.4
				c1.538-1.117,3.046-2.271,4.526-3.463C20.216,6.927,20.268,6.729,20.395,6.628z"/>
			<path opacity="0.1091" fill="#754C24" d="M20.838,6.763c-1.479,1.193-2.986,2.348-4.523,3.464
				c0.113-0.084,0.386,0.042,0.501-0.044c1.538-1.117,3.045-2.271,4.523-3.464C21.229,6.804,20.95,6.675,20.838,6.763z"/>
			<path opacity="0.1091" fill="#754C24" d="M22.179,7.882c-1.477,1.195-2.982,2.351-4.521,3.467
				c-0.126,0.094-0.145,0.331-0.27,0.423c1.538-1.115,3.043-2.271,4.521-3.465C22.035,8.209,22.056,7.979,22.179,7.882z"/>
			<path opacity="0.1091" fill="#754C24" d="M19.854,7.721c-1.479,1.193-2.988,2.347-4.526,3.466
				c-0.042,0.03,0.205,0.445,0.166,0.475c1.538-1.117,3.046-2.273,4.526-3.466C20.064,8.161,19.813,7.752,19.854,7.721z"/>
		</g>
	</g>
</g>
<g>
	<g>
		<g>
			<path opacity="0.1091" fill="#754C24" d="M21.434,10.904c-1.785,1.431-3.651,2.726-5.481,4.1
				c0.127-0.096,0.345-0.072,0.474-0.169c1.828-1.373,3.695-2.667,5.485-4.09C21.789,10.843,21.558,10.806,21.434,10.904z"/>
			<path opacity="0.1091" fill="#754C24" d="M20.49,9.826c-1.791,1.426-3.658,2.718-5.488,4.093
				c-0.015,0.01,0.274,0.419,0.264,0.428c1.83-1.375,3.698-2.667,5.488-4.091C20.771,10.241,20.477,9.837,20.49,9.826z"/>
			<path opacity="0.1091" fill="#754C24" d="M18.737,9.958c-1.272,0.843-2.508,1.734-3.711,2.674
				c0.13-0.097,0.332-0.098,0.464-0.197c1.201-0.939,2.438-1.831,3.71-2.674C19.066,9.855,18.872,9.865,18.737,9.958z"/>
			<path opacity="0.1091" fill="#754C24" d="M21.631,9.436c-1.834,1.375-3.712,2.675-5.545,4.051
				c-0.054,0.04,0.253,0.438,0.31,0.396c1.748-1.312,3.522-2.524,5.184-3.947C21.669,9.857,21.54,9.505,21.631,9.436z"/>
			<path opacity="0.1091" fill="#754C24" d="M19.618,9.676c-1.272,0.843-2.508,1.734-3.71,2.674c0.08-0.06,0.401,0.201,0.484,0.14
				c1.201-0.94,2.438-1.831,3.709-2.676C20.016,9.874,19.707,9.614,19.618,9.676z"/>
			<path opacity="0.1091" fill="#754C24" d="M18.195,10.635c-1.272,0.845-2.509,1.736-3.712,2.677
				c-0.096,0.07,0.025,0.429-0.068,0.498c1.203-0.941,2.44-1.833,3.713-2.677C18.223,11.069,18.104,10.699,18.195,10.635z"/>
			<path opacity="0.1091" fill="#754C24" d="M18.913,12.32c-1.272,0.844-2.508,1.738-3.711,2.678
				c0.083-0.062,0.401,0.184,0.489,0.121c1.203-0.941,2.44-1.834,3.71-2.68C19.311,12.501,19.005,12.255,18.913,12.32z"/>
			<path opacity="0.1091" fill="#754C24" d="M22.221,9.265c-1.789,1.426-3.654,2.717-5.483,4.09
				c-0.068,0.051,0.13,0.452,0.068,0.499c1.827-1.373,3.693-2.665,5.481-4.089C22.356,9.709,22.154,9.318,22.221,9.265z"/>
			<path opacity="0.1091" fill="#754C24" d="M20.492,8.748c-1.791,1.423-3.66,2.714-5.489,4.087
				c-0.129,0.097-0.177,0.302-0.306,0.398c1.83-1.373,3.698-2.665,5.489-4.087C20.313,9.045,20.364,8.849,20.492,8.748z"/>
			<path opacity="0.1091" fill="#754C24" d="M20.935,8.883c-1.79,1.423-3.658,2.714-5.487,4.087
				c0.114-0.084,0.386,0.042,0.501-0.044c1.828-1.373,3.697-2.665,5.486-4.087C21.326,8.925,21.045,8.796,20.935,8.883z"/>
			<path opacity="0.1091" fill="#754C24" d="M22.274,10c-1.787,1.426-3.654,2.719-5.481,4.092c-0.127,0.095-0.147,0.331-0.27,0.425
				c1.827-1.373,3.693-2.667,5.481-4.093C22.129,10.325,22.151,10.099,22.274,10z"/>
			<path opacity="0.1091" fill="#754C24" d="M18.175,11.251c-1.272,0.844-2.511,1.737-3.714,2.677
				c-0.042,0.032,0.205,0.446,0.167,0.475c1.203-0.939,2.44-1.833,3.712-2.677C18.378,11.7,18.139,11.275,18.175,11.251z"/>
		</g>
	</g>
</g>
<g>
	<g>
		<g>
			<path opacity="0.1091" fill="#754C24" d="M18.767,15.243c-0.842,0.61-1.683,1.221-2.526,1.83c0.13-0.093,0.343-0.073,0.475-0.168
				c0.841-0.609,1.683-1.22,2.524-1.83C19.112,15.168,18.898,15.147,18.767,15.243z"/>
			<path opacity="0.1091" fill="#754C24" d="M20.346,12.328c-1.65,1.193-3.298,2.386-4.947,3.58c-0.063,0.047,0.23,0.455,0.293,0.41
				c1.639-1.188,3.279-2.374,4.918-3.562C20.622,12.748,20.336,12.335,20.346,12.328z"/>
			<path opacity="0.1091" fill="#754C24" d="M17.841,12.875c-0.843,0.609-1.685,1.218-2.527,1.827
				c0.133-0.096,0.331-0.101,0.463-0.197c0.842-0.609,1.685-1.218,2.526-1.827C18.172,12.774,17.974,12.779,17.841,12.875z"/>
			<path opacity="0.1091" fill="#754C24" d="M21.487,11.937c-1.715,1.164-3.405,2.361-5.071,3.592
				c-0.087,0.062,0.214,0.465,0.305,0.4c1.597-1.128,3.169-2.292,4.714-3.491C21.524,12.37,21.396,12,21.487,11.937z"/>
			<path opacity="0.1091" fill="#754C24" d="M18.723,12.593c-0.841,0.609-1.685,1.218-2.526,1.827
				c0.082-0.06,0.397,0.201,0.483,0.139c0.843-0.609,1.685-1.218,2.526-1.827C19.124,12.791,18.809,12.53,18.723,12.593z"/>
			<path opacity="0.1091" fill="#754C24" d="M17.298,13.553c-0.843,0.609-1.686,1.218-2.527,1.828
				c-0.097,0.069,0.024,0.432-0.068,0.499c0.843-0.609,1.686-1.219,2.529-1.829C17.328,13.982,17.207,13.618,17.298,13.553z"/>
			<path opacity="0.1091" fill="#754C24" d="M18.017,15.238c-0.843,0.61-1.685,1.221-2.527,1.831
				c0.085-0.063,0.398,0.184,0.488,0.119c0.843-0.61,1.685-1.22,2.527-1.83C18.419,15.42,18.105,15.172,18.017,15.238z"/>
			<path opacity="0.1091" fill="#754C24" d="M22.075,11.768c-1.682,1.219-3.365,2.439-5.048,3.657
				c-0.068,0.049,0.127,0.454,0.068,0.499c1.682-1.218,3.365-2.438,5.046-3.657C22.207,12.219,22.012,11.813,22.075,11.768z"/>
			<path opacity="0.1091" fill="#754C24" d="M17.819,13.076c-0.843,0.609-1.686,1.218-2.529,1.827
				c-0.13,0.095-0.176,0.306-0.306,0.4c0.843-0.609,1.686-1.218,2.529-1.829C17.643,13.38,17.689,13.168,17.819,13.076z"/>
			<path opacity="0.1091" fill="#754C24" d="M20.789,11.386c-1.651,1.042-3.255,2.154-4.813,3.333
				c-0.065,0.047,0.215,0.463,0.266,0.428c1.727-1.208,3.41-2.477,5.048-3.805C21.18,11.429,20.91,11.307,20.789,11.386z"/>
			<path opacity="0.1091" fill="#754C24" d="M22.131,12.501c-1.684,1.221-3.365,2.441-5.048,3.659
				c-0.128,0.093-0.146,0.335-0.271,0.425c1.684-1.22,3.366-2.439,5.048-3.66C21.985,12.833,22.003,12.593,22.131,12.501z"/>
			<path opacity="0.1091" fill="#754C24" d="M17.278,14.169c-0.843,0.609-1.686,1.22-2.529,1.829
				c-0.042,0.03,0.202,0.45,0.166,0.476c0.843-0.61,1.685-1.219,2.527-1.83C17.484,14.613,17.24,14.195,17.278,14.169z"/>
		</g>
	</g>
</g>
<g>
	<g>
		<g>
			<path opacity="0.1091" fill="#754C24" d="M21.485,15.674c-1.99,1.412-3.874,2.785-5.676,4.432
				c0.112-0.104,0.358-0.063,0.474-0.169c1.802-1.647,3.687-3.02,5.676-4.432C21.827,15.598,21.617,15.58,21.485,15.674z"/>
			<path opacity="0.1091" fill="#754C24" d="M20.539,14.59c-1.962,1.385-3.816,2.732-5.589,4.356
				c-0.065,0.06,0.257,0.444,0.306,0.398c1.761-1.611,3.6-2.95,5.548-4.327C20.814,15.011,20.532,14.594,20.539,14.59z"/>
			<path opacity="0.1091" fill="#754C24" d="M20.561,13.311c-1.992,1.408-3.877,2.776-5.681,4.422
				c0.116-0.105,0.346-0.09,0.464-0.196c1.803-1.646,3.687-3.015,5.68-4.422C20.89,13.208,20.695,13.217,20.561,13.311z"/>
			<path opacity="0.1091" fill="#754C24" d="M21.681,14.2c-2.04,1.367-3.909,2.707-5.721,4.367
				c-0.083,0.075,0.247,0.456,0.323,0.385c1.701-1.557,3.501-2.871,5.347-4.252C21.718,14.633,21.591,14.259,21.681,14.2z"/>
			<path opacity="0.1091" fill="#754C24" d="M21.441,13.029c-1.99,1.407-3.875,2.776-5.677,4.42c0.062-0.055,0.417,0.202,0.484,0.14
				c1.802-1.645,3.685-3.013,5.676-4.421C21.838,13.229,21.525,12.968,21.441,13.029z"/>
			<path opacity="0.1091" fill="#754C24" d="M20.021,13.986c-1.993,1.409-3.879,2.779-5.685,4.426
				c-0.097,0.089,0.026,0.414-0.066,0.499c1.804-1.646,3.69-3.018,5.683-4.426C20.047,14.418,19.928,14.053,20.021,13.986z"/>
			<path opacity="0.1091" fill="#754C24" d="M18.782,17.054c-1.352,0.88-2.594,1.896-3.726,3.046
				c0.066-0.061,0.418,0.186,0.489,0.12c1.132-1.15,2.374-2.166,3.726-3.048C19.185,17.235,18.871,16.988,18.782,17.054z"/>
			<path opacity="0.1091" fill="#754C24" d="M22.269,14.029c-2.005,1.39-3.879,2.736-5.679,4.385
				c-0.055,0.051,0.278,0.428,0.327,0.383c1.722-1.578,3.529-2.902,5.418-4.27C22.4,14.48,22.207,14.072,22.269,14.029z"/>
			<path opacity="0.1091" fill="#754C24" d="M20.54,13.51c-1.993,1.408-3.878,2.778-5.683,4.424c-0.122,0.112-0.184,0.289-0.306,0.4
				c1.805-1.646,3.69-3.016,5.683-4.424C20.364,13.817,20.41,13.603,20.54,13.51z"/>
			<path opacity="0.1091" fill="#754C24" d="M20.983,13.647c-1.987,1.237-3.72,2.521-5.448,4.104
				c-0.071,0.065,0.237,0.457,0.277,0.419c1.806-1.657,3.738-3.062,5.672-4.567C21.374,13.689,21.106,13.571,20.983,13.647z"/>
			<path opacity="0.1091" fill="#754C24" d="M22.323,14.764c-1.989,1.411-3.873,2.784-5.674,4.429
				c-0.121,0.109-0.152,0.315-0.27,0.423c1.801-1.646,3.685-3.019,5.673-4.429C22.181,15.098,22.197,14.853,22.323,14.764z"/>
			<path opacity="0.1091" fill="#754C24" d="M19.999,14.601c-1.992,1.41-3.878,2.782-5.683,4.428
				c-0.051,0.048,0.211,0.435,0.166,0.476c1.803-1.647,3.69-3.019,5.683-4.429C20.202,15.049,19.961,14.627,19.999,14.601z"/>
		</g>
	</g>
</g>
<g>
	<g>
		<g>
			<path opacity="0.1091" fill="#754C24" d="M22.543,17.599c-1.86,1.231-3.672,2.533-5.436,3.901
				c0.127-0.094,0.345-0.072,0.475-0.168c1.762-1.369,3.574-2.67,5.435-3.902C22.885,17.521,22.677,17.506,22.543,17.599z"/>
			<path opacity="0.1091" fill="#754C24" d="M21.596,16.515c-1.819,1.196-3.586,2.464-5.304,3.802
				c-0.093,0.069,0.202,0.476,0.291,0.41c1.709-1.332,3.469-2.592,5.277-3.784C21.87,16.936,21.593,16.518,21.596,16.515z"/>
			<path opacity="0.1091" fill="#754C24" d="M21.62,15.235c-1.866,1.226-3.677,2.523-5.439,3.894c0.129-0.097,0.332-0.1,0.462-0.198
				c1.762-1.369,3.575-2.667,5.439-3.892C21.946,15.131,21.755,15.142,21.62,15.235z"/>
			<path opacity="0.1091" fill="#754C24" d="M22.739,16.124c-1.882,1.166-3.691,2.433-5.427,3.806
				c-0.121,0.09,0.186,0.49,0.307,0.397c1.664-1.27,3.353-2.504,5.067-3.703C22.776,16.56,22.649,16.183,22.739,16.124z"/>
			<path opacity="0.1091" fill="#754C24" d="M22.499,14.953c-1.863,1.226-3.675,2.523-5.436,3.892
				c0.077-0.057,0.398,0.203,0.483,0.14c1.76-1.369,3.572-2.666,5.435-3.892C22.896,15.152,22.587,14.892,22.499,14.953z"/>
			<path opacity="0.1091" fill="#754C24" d="M21.079,15.912c-1.866,1.227-3.681,2.526-5.442,3.896
				c-0.097,0.072,0.023,0.43-0.068,0.498c1.763-1.37,3.578-2.67,5.442-3.896C21.105,16.345,20.987,15.974,21.079,15.912z"/>
			<path opacity="0.1091" fill="#754C24" d="M21.794,17.593c-1.863,1.232-3.675,2.532-5.438,3.902
				c0.082-0.061,0.4,0.187,0.489,0.121c1.763-1.371,3.575-2.671,5.438-3.903C22.191,17.776,21.887,17.53,21.794,17.593z"/>
			<path opacity="0.1091" fill="#754C24" d="M23.326,15.955c-1.866,1.197-3.67,2.479-5.416,3.846
				c-0.069,0.051,0.238,0.45,0.312,0.395c1.685-1.302,3.409-2.549,5.173-3.743C23.459,16.407,23.267,15.995,23.326,15.955z"/>
			<path opacity="0.1091" fill="#754C24" d="M21.598,15.436c-1.985,1.102-3.856,2.37-5.617,3.802
				c-0.064,0.048,0.214,0.463,0.254,0.435c1.703-1.257,3.387-2.537,5.056-3.838C21.416,15.739,21.465,15.516,21.598,15.436z"/>
			<path opacity="0.1091" fill="#754C24" d="M22.04,15.571c-1.818,1.045-3.54,2.231-5.165,3.559
				c-0.094,0.069,0.181,0.488,0.257,0.432c1.797-1.354,3.599-2.699,5.41-4.035C22.428,15.611,22.165,15.494,22.04,15.571z"/>
			<path opacity="0.1091" fill="#754C24" d="M23.382,16.688c-1.97,1.125-3.838,2.4-5.603,3.826
				c-0.058,0.043,0.256,0.435,0.328,0.381c1.68-1.245,3.35-2.504,5.004-3.781C23.233,17.021,23.254,16.769,23.382,16.688z"/>
			<path opacity="0.1091" fill="#754C24" d="M21.056,16.526c-1.864,1.229-3.679,2.529-5.441,3.899
				c-0.045,0.033,0.201,0.448,0.165,0.475c1.763-1.37,3.578-2.67,5.442-3.899C21.26,16.975,21.022,16.55,21.056,16.526z"/>
		</g>
	</g>
</g>
<g>
	<g>
		<g>
			<path opacity="0.1091" fill="#754C24" d="M21.966,20.1c-1.752,1.554-3.622,2.902-5.436,4.384c0.121-0.098,0.35-0.067,0.474-0.168
				c1.813-1.482,3.684-2.831,5.437-4.384C22.324,20.035,22.083,19.996,21.966,20.1z"/>
			<path opacity="0.1091" fill="#754C24" d="M21.019,19.018c-1.719,1.52-3.554,2.839-5.332,4.291
				c-0.078,0.063,0.238,0.456,0.313,0.396c1.76-1.44,3.582-2.746,5.283-4.259C21.308,19.423,21.001,19.034,21.019,19.018z"/>
			<path opacity="0.1091" fill="#754C24" d="M21.042,17.737c-1.755,1.549-3.627,2.894-5.439,4.375
				c0.123-0.101,0.336-0.094,0.462-0.196c1.812-1.481,3.685-2.827,5.439-4.375C21.386,17.645,21.162,17.632,21.042,17.737z"/>
			<path opacity="0.1091" fill="#754C24" d="M22.162,18.626c-1.791,1.482-3.662,2.831-5.463,4.299
				c-0.101,0.083,0.226,0.465,0.33,0.381c1.717-1.402,3.481-2.644,5.081-4.18C22.199,19.04,22.068,18.704,22.162,18.626z"/>
			<path opacity="0.1091" fill="#754C24" d="M21.921,17.455c-1.753,1.549-3.625,2.894-5.436,4.374
				c0.071-0.057,0.406,0.204,0.483,0.14c1.81-1.479,3.682-2.825,5.435-4.374C22.34,17.653,21.991,17.394,21.921,17.455z"/>
			<path opacity="0.1091" fill="#754C24" d="M20.501,18.413c-1.756,1.55-3.631,2.897-5.442,4.379
				c-0.098,0.079,0.025,0.424-0.068,0.498c1.813-1.482,3.688-2.829,5.442-4.379C20.53,18.827,20.407,18.496,20.501,18.413z"/>
			<path opacity="0.1091" fill="#754C24" d="M21.217,20.094c-1.753,1.555-3.625,2.903-5.439,4.385
				c0.076-0.062,0.408,0.187,0.489,0.12c1.813-1.482,3.686-2.831,5.439-4.385C21.635,20.277,21.289,20.031,21.217,20.094z"/>
			<path opacity="0.1091" fill="#754C24" d="M22.749,18.456c-1.77,1.52-3.639,2.865-5.445,4.34
				c-0.054,0.043,0.272,0.425,0.336,0.374c1.735-1.419,3.528-2.693,5.177-4.216C22.888,18.889,22.682,18.514,22.749,18.456z"/>
			<path opacity="0.1091" fill="#754C24" d="M21.021,17.937c-1.756,1.55-3.629,2.896-5.441,4.377
				c-0.127,0.104-0.182,0.297-0.306,0.399c1.812-1.481,3.685-2.828,5.441-4.376C20.838,18.227,20.897,18.046,21.021,17.937z"/>
			<path opacity="0.1091" fill="#754C24" d="M21.463,18.074c-1.712,1.38-3.492,2.652-5.195,4.045
				c-0.079,0.065,0.22,0.468,0.283,0.417c1.842-1.51,3.688-2.858,5.413-4.507C21.87,18.119,21.57,17.988,21.463,18.074z"/>
			<path opacity="0.1091" fill="#754C24" d="M22.805,19.19c-1.873,1.445-3.786,2.814-5.618,4.311
				c-0.051,0.041,0.279,0.419,0.346,0.365c1.728-1.413,3.473-2.625,5.002-4.25C22.643,19.5,22.683,19.285,22.805,19.19z"/>
			<path opacity="0.1091" fill="#754C24" d="M20.479,19.027c-1.755,1.552-3.629,2.899-5.442,4.382
				c-0.047,0.039,0.208,0.441,0.166,0.475c1.813-1.482,3.687-2.829,5.442-4.38C20.694,19.459,20.434,19.069,20.479,19.027z"/>
		</g>
	</g>
</g>
<g>
	<g>
		<g>
			<path opacity="0.1091" fill="#754C24" d="M21.437,22.507c-2.066,1.409-3.938,2.826-5.773,4.527
				c0.112-0.104,0.36-0.063,0.473-0.169c1.835-1.701,3.708-3.118,5.773-4.527C21.777,22.43,21.571,22.416,21.437,22.507z"/>
			<path opacity="0.1091" fill="#754C24" d="M20.487,21.424c-2.042,1.387-3.885,2.777-5.692,4.458
				c-0.06,0.056,0.264,0.438,0.307,0.398c1.794-1.669,3.624-3.053,5.65-4.429C20.762,21.847,20.485,21.427,20.487,21.424z"/>
			<path opacity="0.1091" fill="#754C24" d="M20.512,20.143c-2.069,1.406-3.94,2.819-5.776,4.519
				c0.115-0.105,0.346-0.089,0.462-0.196c1.837-1.701,3.708-3.115,5.777-4.52C20.84,20.039,20.649,20.05,20.512,20.143z"/>
			<path opacity="0.1091" fill="#754C24" d="M21.632,21.031c-2.122,1.372-3.973,2.748-5.823,4.468
				c-0.075,0.071,0.256,0.449,0.324,0.385c1.731-1.609,3.526-2.976,5.446-4.351C21.669,21.469,21.543,21.089,21.632,21.031z"/>
			<path opacity="0.1091" fill="#754C24" d="M21.393,19.86c-2.068,1.406-3.938,2.819-5.773,4.52c0.061-0.057,0.417,0.2,0.483,0.14
				c1.835-1.701,3.706-3.114,5.773-4.519C21.79,20.059,21.483,19.8,21.393,19.86z"/>
			<path opacity="0.1091" fill="#754C24" d="M19.971,20.82c-2.069,1.406-3.942,2.821-5.779,4.522
				c-0.097,0.09,0.026,0.412-0.066,0.498c1.835-1.701,3.708-3.115,5.779-4.522C19.999,21.254,19.88,20.88,19.971,20.82z"/>
			<path opacity="0.1091" fill="#754C24" d="M20.687,22.501c-2.067,1.409-3.939,2.827-5.775,4.527
				c0.065-0.061,0.418,0.185,0.489,0.121c1.835-1.701,3.708-3.118,5.774-4.527C21.085,22.685,20.781,22.438,20.687,22.501z"/>
			<path opacity="0.1091" fill="#754C24" d="M22.221,20.863c-2.053,1.479-4.009,3.05-5.956,4.667
				c0.054-0.045,0.415,0.237,0.468,0.184c0.598-0.611,1.196-1.224,1.794-1.835c1.222-0.888,2.475-1.728,3.761-2.518
				C22.354,21.318,22.162,20.904,22.221,20.863z"/>
			<path opacity="0.1091" fill="#754C24" d="M20.49,20.342c-2.069,1.406-3.94,2.821-5.777,4.522
				c-0.122,0.112-0.186,0.286-0.306,0.398c1.836-1.701,3.708-3.114,5.777-4.521C20.317,20.652,20.36,20.432,20.49,20.342z"/>
			<path opacity="0.1091" fill="#754C24" d="M20.935,20.477c-2.073,1.236-3.79,2.567-5.557,4.212
				c-0.063,0.06,0.248,0.448,0.278,0.418c1.836-1.711,3.773-3.166,5.78-4.674C21.322,20.518,21.059,20.402,20.935,20.477z"/>
			<path opacity="0.1091" fill="#754C24" d="M22.275,21.596c-2.065,1.409-3.936,2.827-5.771,4.526
				c-0.119,0.111-0.152,0.314-0.27,0.424c1.833-1.7,3.705-3.116,5.771-4.524C22.133,21.934,22.149,21.682,22.275,21.596z"/>
			<path opacity="0.1091" fill="#754C24" d="M19.951,21.434c-2.069,1.408-3.942,2.823-5.779,4.525
				c-0.053,0.047,0.212,0.432,0.165,0.475c1.837-1.701,3.709-3.117,5.779-4.524C20.154,21.883,19.916,21.458,19.951,21.434z"/>
		</g>
	</g>
</g>
<g>
	<g>
		<g>
			<path opacity="0.1091" fill="#754C24" d="M22.784,24.912c-2.074,1.411-3.883,2.924-5.724,4.625
				c0.111-0.103,0.358-0.063,0.473-0.169c1.841-1.701,3.65-3.214,5.723-4.625C23.124,24.835,22.918,24.821,22.784,24.912z"/>
			<path opacity="0.1091" fill="#754C24" d="M21.837,23.829c-2.04,1.377-3.808,2.853-5.611,4.524
				c-0.092,0.084,0.231,0.471,0.311,0.396c1.789-1.658,3.542-3.128,5.564-4.492C22.109,24.251,21.834,23.83,21.837,23.829z"/>
			<path opacity="0.1091" fill="#754C24" d="M21.859,22.55c-2.078,1.403-3.885,2.913-5.728,4.613
				c0.115-0.105,0.346-0.089,0.462-0.196c1.842-1.701,3.65-3.21,5.729-4.613C22.186,22.444,21.996,22.457,21.859,22.55z"/>
			<path opacity="0.1091" fill="#754C24" d="M22.979,23.438c-2.122,1.36-3.889,2.815-5.737,4.526
				c-0.118,0.107,0.217,0.482,0.332,0.376c1.721-1.593,3.441-3.044,5.354-4.402C23.017,23.874,22.891,23.495,22.979,23.438z"/>
			<path opacity="0.1091" fill="#754C24" d="M22.739,22.268c-2.077,1.403-3.884,2.913-5.725,4.613
				c0.06-0.056,0.417,0.202,0.483,0.139c1.842-1.7,3.648-3.209,5.725-4.613C23.136,22.466,22.829,22.205,22.739,22.268z"/>
			<path opacity="0.1091" fill="#754C24" d="M21.318,23.226c-2.079,1.406-3.888,2.916-5.73,4.618
				c-0.098,0.09,0.025,0.413-0.068,0.499c1.844-1.703,3.653-3.213,5.731-4.619C21.346,23.66,21.227,23.286,21.318,23.226z"/>
			<path opacity="0.1091" fill="#754C24" d="M22.033,24.907c-2.074,1.41-3.883,2.923-5.726,4.624c0.063-0.06,0.417,0.187,0.488,0.12
				c1.842-1.701,3.651-3.215,5.727-4.624C22.431,25.09,22.128,24.844,22.033,24.907z"/>
			<path opacity="0.1091" fill="#754C24" d="M23.567,23.269c-2.094,1.392-3.887,2.867-5.73,4.574
				c-0.066,0.061,0.274,0.432,0.339,0.371c1.753-1.624,3.486-3.094,5.458-4.447C23.698,23.722,23.508,23.307,23.567,23.269z"/>
			<path opacity="0.1091" fill="#754C24" d="M21.838,22.749c-2.252,1.313-3.995,2.748-5.903,4.514
				c-0.072,0.066,0.237,0.458,0.278,0.419c1.718-1.596,3.479-3.079,5.318-4.534C21.654,23.051,21.706,22.826,21.838,22.749z"/>
			<path opacity="0.1091" fill="#754C24" d="M22.281,22.886c-2.072,1.226-3.712,2.646-5.474,4.283
				c-0.09,0.083,0.212,0.479,0.277,0.419c1.833-1.705,3.694-3.246,5.698-4.747C22.669,22.927,22.407,22.812,22.281,22.886z"/>
			<path opacity="0.1091" fill="#754C24" d="M23.622,24.003c-2.235,1.355-4.006,2.788-5.921,4.557
				c-0.054,0.051,0.295,0.412,0.356,0.355c1.709-1.582,3.453-3.062,5.295-4.488C23.473,24.334,23.495,24.079,23.622,24.003z"/>
			<path opacity="0.1091" fill="#754C24" d="M21.297,23.84c-2.079,1.407-3.888,2.919-5.732,4.621
				c-0.052,0.049,0.212,0.434,0.167,0.476c1.843-1.703,3.652-3.214,5.73-4.622C21.5,24.29,21.263,23.863,21.297,23.84z"/>
		</g>
	</g>
</g>
<g>
	<g>
		<g>
			<path opacity="0.1091" fill="#754C24" d="M22.592,26.885c-1.872,1.27-3.639,2.672-5.302,4.205
				c-0.03,0.026,0.312,0.392,0.364,0.348c1.826-1.549,3.63-3.121,5.412-4.722C22.95,26.819,22.719,26.792,22.592,26.885z"/>
			<path opacity="0.1091" fill="#754C24" d="M21.645,25.801c-1.816,1.42-3.589,2.895-5.316,4.421c-0.1,0.086,0.22,0.474,0.317,0.391
				c1.712-1.512,3.467-2.973,5.265-4.384C21.928,26.214,21.632,25.813,21.645,25.801z"/>
			<path opacity="0.1091" fill="#754C24" d="M21.668,24.522c-1.859,1.451-3.672,2.958-5.441,4.518
				c0.121-0.103,0.341-0.092,0.464-0.196c1.769-1.561,3.582-3.066,5.44-4.519C22.006,24.427,21.794,24.421,21.668,24.522z"/>
			<path opacity="0.1091" fill="#754C24" d="M22.788,25.411c-1.888,1.383-3.703,2.856-5.444,4.419
				c-0.13,0.111,0.206,0.486,0.338,0.374c1.675-1.443,3.359-2.874,5.053-4.294C22.826,25.834,22.696,25.481,22.788,25.411z"/>
			<path opacity="0.1091" fill="#754C24" d="M22.547,24.24c-1.856,1.451-3.667,2.957-5.435,4.518
				c0.065-0.057,0.41,0.202,0.483,0.138c1.768-1.558,3.579-3.064,5.437-4.516C22.957,24.439,22.623,24.179,22.547,24.24z"/>
			<path opacity="0.1091" fill="#754C24" d="M21.128,25.197c-1.86,1.454-3.675,2.961-5.445,4.523
				c-0.098,0.083,0.025,0.42-0.066,0.498c1.769-1.561,3.583-3.068,5.444-4.522C21.156,25.62,21.033,25.273,21.128,25.197z"/>
			<path opacity="0.1091" fill="#754C24" d="M21.843,26.879c-1.855,1.459-3.668,2.97-5.44,4.529c0.071-0.06,0.411,0.187,0.489,0.12
				c1.771-1.56,3.585-3.069,5.439-4.528C22.254,27.063,21.921,26.815,21.843,26.879z"/>
			<path opacity="0.1091" fill="#754C24" d="M23.376,25.24c-1.87,1.42-3.682,2.911-5.437,4.47c-0.072,0.063,0.264,0.436,0.345,0.366
				c1.692-1.478,3.412-2.923,5.158-4.337C23.512,25.682,23.31,25.293,23.376,25.24z"/>
			<path opacity="0.1091" fill="#754C24" d="M21.646,24.722c-1.99,1.321-3.863,2.793-5.615,4.416
				c-0.073,0.063,0.231,0.461,0.282,0.417c1.713-1.434,3.39-2.912,5.027-4.434C21.46,25.014,21.517,24.815,21.646,24.722z"/>
			<path opacity="0.1091" fill="#754C24" d="M22.089,24.858c-1.816,1.283-3.542,2.676-5.181,4.18
				c-0.097,0.083,0.202,0.484,0.284,0.414c1.798-1.547,3.597-3.095,5.398-4.638C22.487,24.902,22.202,24.774,22.089,24.858z"/>
			<path opacity="0.1091" fill="#754C24" d="M23.43,25.976c-1.984,1.354-3.863,2.84-5.636,4.461
				c-0.054,0.046,0.291,0.409,0.363,0.349c1.701-1.424,3.369-2.886,5.003-4.386C23.278,26.294,23.306,26.066,23.43,25.976z"/>
			<path opacity="0.1091" fill="#754C24" d="M21.106,25.813c-1.859,1.456-3.674,2.965-5.444,4.525
				c-0.051,0.043,0.208,0.439,0.166,0.475c1.771-1.561,3.585-3.069,5.444-4.525C21.316,26.251,21.063,25.847,21.106,25.813z"/>
		</g>
	</g>
</g>
<g>
	<g>
		<g>
			<path opacity="0.1091" fill="#754C24" d="M22.447,29.051c-1.98,0.997-3.808,2.223-5.479,3.684
				c-0.058,0.044,0.257,0.435,0.327,0.382c1.849-1.446,3.726-2.856,5.627-4.234C22.796,28.977,22.587,28.971,22.447,29.051z"/>
			<path opacity="0.1091" fill="#754C24" d="M21.5,27.967c-1.93,1.179-3.768,2.487-5.512,3.926
				c-0.119,0.091,0.176,0.498,0.289,0.411c1.736-1.433,3.565-2.735,5.488-3.909C21.772,28.39,21.5,27.967,21.5,27.967z"/>
			<path opacity="0.1091" fill="#754C24" d="M21.523,26.686c-1.986,1.215-3.88,2.562-5.681,4.039
				c0.129-0.097,0.334-0.097,0.464-0.197c1.799-1.478,3.693-2.823,5.68-4.038C21.85,26.579,21.661,26.594,21.523,26.686z"/>
			<path opacity="0.1091" fill="#754C24" d="M22.639,27.575c-1.992,1.144-3.869,2.451-5.632,3.922
				c-0.152,0.114,0.162,0.508,0.316,0.392c1.686-1.366,3.441-2.637,5.264-3.813C22.677,28.013,22.553,27.63,22.639,27.575z"/>
			<path opacity="0.1091" fill="#754C24" d="M22.403,26.403c-1.985,1.215-3.877,2.561-5.676,4.039
				c0.075-0.058,0.4,0.203,0.483,0.138c1.799-1.477,3.691-2.822,5.678-4.037C22.799,26.6,22.497,26.341,22.403,26.403z"/>
			<path opacity="0.1091" fill="#754C24" d="M20.981,27.362c-1.987,1.217-3.882,2.563-5.683,4.043
				c-0.098,0.075,0.024,0.429-0.068,0.498c1.802-1.478,3.696-2.826,5.683-4.043C21.009,27.799,20.892,27.421,20.981,27.362z"/>
			<path opacity="0.1091" fill="#754C24" d="M21.697,29.047c-1.985,1.22-3.877,2.568-5.679,4.047
				c0.081-0.061,0.401,0.186,0.489,0.119c1.802-1.479,3.694-2.826,5.679-4.047C22.095,29.227,21.795,28.981,21.697,29.047z"/>
			<path opacity="0.1091" fill="#754C24" d="M23.235,27.405c-1.988,1.185-3.872,2.512-5.656,3.986
				c-0.081,0.061,0.229,0.457,0.315,0.392c1.721-1.406,3.522-2.7,5.407-3.88C23.366,27.86,23.178,27.442,23.235,27.405z"/>
			<path opacity="0.1091" fill="#754C24" d="M21.5,26.886c-2.098,1.089-4.043,2.4-5.836,3.939c-0.079,0.062,0.196,0.478,0.249,0.438
				c1.734-1.362,3.495-2.688,5.282-3.978C21.322,27.192,21.371,26.964,21.5,26.886z"/>
			<path opacity="0.1091" fill="#754C24" d="M21.945,27.023c-1.928,1.026-3.719,2.257-5.37,3.688
				c-0.116,0.089,0.148,0.514,0.244,0.44c1.826-1.461,3.701-2.852,5.628-4.174C22.331,27.061,22.072,26.945,21.945,27.023z"/>
			<path opacity="0.1091" fill="#754C24" d="M23.289,28.142c-2.091,1.11-4.039,2.432-5.842,3.963
				c-0.071,0.054,0.249,0.441,0.331,0.379c1.716-1.348,3.463-2.653,5.241-3.917C23.143,28.477,23.161,28.219,23.289,28.142z"/>
			<path opacity="0.1091" fill="#754C24" d="M20.959,27.979c-1.986,1.217-3.881,2.564-5.682,4.044
				c-0.047,0.035,0.202,0.447,0.165,0.475c1.802-1.478,3.696-2.826,5.683-4.044C21.165,28.428,20.929,27.998,20.959,27.979z"/>
		</g>
	</g>
</g>
<g>
	<g>
		<g>
			<path opacity="0.1091" fill="#754C24" d="M22.158,30.782c-1.74,1.489-3.504,2.951-5.29,4.385c0.12-0.098,0.349-0.067,0.473-0.169
				c1.787-1.434,3.55-2.896,5.292-4.385C22.514,30.715,22.28,30.682,22.158,30.782z"/>
			<path opacity="0.1091" fill="#754C24" d="M21.211,29.698c-1.704,1.451-3.427,2.877-5.171,4.277
				c-0.099,0.08,0.217,0.471,0.315,0.392c1.73-1.387,3.437-2.8,5.121-4.241C21.498,30.108,21.196,29.713,21.211,29.698z"/>
			<path opacity="0.1091" fill="#754C24" d="M21.235,28.42c-1.745,1.482-3.51,2.939-5.295,4.374
				c0.123-0.102,0.337-0.095,0.462-0.197c1.785-1.434,3.55-2.891,5.295-4.375C21.575,28.326,21.358,28.316,21.235,28.42z"/>
			<path opacity="0.1091" fill="#754C24" d="M22.354,29.309c-1.774,1.413-3.539,2.837-5.295,4.272
				c-0.13,0.105,0.204,0.483,0.338,0.374c1.69-1.316,3.326-2.699,4.905-4.147C22.394,29.728,22.262,29.382,22.354,29.309z"/>
			<path opacity="0.1091" fill="#754C24" d="M22.114,28.136c-1.743,1.484-3.506,2.941-5.292,4.374
				c0.071-0.057,0.406,0.203,0.484,0.14c1.784-1.433,3.548-2.89,5.29-4.374C22.527,28.335,22.188,28.075,22.114,28.136z"/>
			<path opacity="0.1091" fill="#754C24" d="M20.694,29.096c-1.746,1.483-3.513,2.943-5.298,4.378
				c-0.098,0.08,0.023,0.423-0.068,0.498c1.787-1.435,3.553-2.895,5.298-4.378C20.723,29.514,20.6,29.174,20.694,29.096z"/>
			<path opacity="0.1091" fill="#754C24" d="M21.409,30.777c-1.743,1.489-3.507,2.95-5.294,4.385
				c0.075-0.062,0.407,0.187,0.488,0.119c1.787-1.435,3.552-2.896,5.294-4.384C21.823,30.96,21.485,30.713,21.409,30.777z"/>
			<path opacity="0.1091" fill="#754C24" d="M22.941,29.138c-1.755,1.451-3.518,2.894-5.289,4.326
				c-0.07,0.057,0.26,0.435,0.342,0.368c1.709-1.353,3.381-2.752,5.015-4.195C23.08,29.575,22.875,29.192,22.941,29.138z"/>
			<path opacity="0.1091" fill="#754C24" d="M21.213,28.619c-1.88,1.353-3.703,2.775-5.47,4.27c-0.07,0.059,0.229,0.461,0.285,0.416
				c1.733-1.309,3.359-2.736,4.879-4.287C21.023,28.907,21.085,28.715,21.213,28.619z"/>
			<path opacity="0.1091" fill="#754C24" d="M21.656,28.756c-1.703,1.313-3.381,2.658-5.034,4.033
				c-0.097,0.079,0.199,0.484,0.285,0.414c1.814-1.421,3.565-2.919,5.25-4.491C22.057,28.801,21.765,28.67,21.656,28.756z"/>
			<path opacity="0.1091" fill="#754C24" d="M22.997,29.873c-1.872,1.382-3.7,2.818-5.484,4.311
				c-0.056,0.045,0.282,0.416,0.358,0.354c1.719-1.299,3.337-2.712,4.855-4.24C22.842,30.188,22.874,29.967,22.997,29.873z"/>
			<path opacity="0.1091" fill="#754C24" d="M20.671,29.71c-1.745,1.486-3.51,2.946-5.298,4.381
				c-0.048,0.04,0.207,0.442,0.167,0.475c1.787-1.435,3.553-2.895,5.298-4.381C20.885,30.146,20.627,29.747,20.671,29.71z"/>
		</g>
	</g>
</g>
<g>
	<g>
		<g>
			<path opacity="0.1091" fill="#754C24" d="M24.468,31.986c-2.143,1.519-4.322,2.979-6.542,4.384
				c0.136-0.089,0.336-0.08,0.475-0.169c2.219-1.403,4.4-2.865,6.543-4.384C24.811,31.909,24.603,31.894,24.468,31.986z"/>
			<path opacity="0.1091" fill="#754C24" d="M23.519,30.904c-2.103,1.486-4.241,2.918-6.417,4.294
				c-0.082,0.052,0.195,0.473,0.278,0.418c2.171-1.372,4.306-2.801,6.403-4.284C23.793,31.325,23.515,30.905,23.519,30.904z"/>
			<path opacity="0.1091" fill="#754C24" d="M23.544,29.621c-2.182,1.459-4.364,2.918-6.546,4.375
				c0.137-0.088,0.324-0.106,0.462-0.196c4.353-2.833,2.269-1.439,6.545-4.375C23.872,29.518,23.68,29.528,23.544,29.621z"/>
			<path opacity="0.1091" fill="#754C24" d="M24.662,30.511c-2.163,1.459-4.343,2.892-6.542,4.301
				c-0.109,0.072,0.18,0.481,0.299,0.405c2.124-1.313,4.187-2.715,6.19-4.206C24.701,30.947,24.573,30.569,24.662,30.511z"/>
			<path opacity="0.1091" fill="#754C24" d="M24.424,29.339c-2.144,1.513-4.325,2.971-6.542,4.375
				c0.088-0.058,0.387,0.201,0.483,0.139c2.217-1.403,4.398-2.862,6.543-4.374C24.822,29.537,24.514,29.276,24.424,29.339z"/>
			<path opacity="0.1091" fill="#754C24" d="M23.002,30.298c-2.146,1.513-4.329,2.974-6.548,4.378
				c-0.095,0.063,0.021,0.441-0.068,0.5c2.219-1.406,4.402-2.865,6.548-4.38C23.03,30.731,22.911,30.36,23.002,30.298z"/>
			<path opacity="0.1091" fill="#754C24" d="M23.718,31.981c-2.143,1.518-4.325,2.979-6.544,4.383
				c0.093-0.061,0.389,0.185,0.489,0.121c2.219-1.405,4.402-2.867,6.544-4.384C24.118,32.162,23.813,31.916,23.718,31.981z"/>
			<path opacity="0.1091" fill="#754C24" d="M25.254,30.341c-2.15,1.492-4.332,2.94-6.542,4.345
				c-0.053,0.035,0.234,0.447,0.302,0.403c2.149-1.348,4.252-2.763,6.309-4.25C25.388,30.794,25.196,30.381,25.254,30.341z"/>
			<path opacity="0.1091" fill="#754C24" d="M23.521,29.822c-2.253,1.43-4.502,2.869-6.746,4.315
				c-0.053,0.034,0.174,0.466,0.155,0.479c2.176-1.35,4.271-2.815,6.286-4.395C23.345,30.126,23.392,29.905,23.521,29.822z"/>
			<path opacity="0.1091" fill="#754C24" d="M23.966,29.956c-2.104,1.333-4.195,2.684-6.275,4.053
				c-0.084,0.057,0.167,0.49,0.235,0.445c2.263-1.395,4.443-2.909,6.542-4.542C24.352,29.995,24.089,29.877,23.966,29.956z"/>
			<path opacity="0.1091" fill="#754C24" d="M25.307,31.076c-2.252,1.421-4.493,2.86-6.721,4.318
				c-0.046,0.03,0.249,0.435,0.319,0.389c2.14-1.29,4.185-2.719,6.132-4.282C25.16,31.408,25.181,31.156,25.307,31.076z"/>
			<path opacity="0.1091" fill="#754C24" d="M22.98,30.914c-2.146,1.514-4.328,2.975-6.548,4.379
				c-0.038,0.025,0.195,0.457,0.166,0.477c2.22-1.406,4.401-2.866,6.548-4.381C23.186,31.361,22.947,30.937,22.98,30.914z"/>
		</g>
	</g>
</g>
<g>
	<g>
		<g>
			<path opacity="0.1091" fill="#754C24" d="M23.567,34.34c-0.617,0.348-1.234,0.694-1.854,1.043
				c0.061-0.033,0.374,0.295,0.441,0.241c0.624-0.481,1.25-0.965,1.874-1.446C23.912,34.268,23.7,34.264,23.567,34.34z"/>
			<path opacity="0.1091" fill="#754C24" d="M22.634,33.242c-0.538,0.359-1.078,0.72-1.616,1.079
				c-0.176,0.116,0.103,0.536,0.278,0.42c0.534-0.357,1.068-0.715,1.604-1.071C22.931,33.649,22.658,33.229,22.634,33.242z"/>
			<path opacity="0.1091" fill="#754C24" d="M22.627,31.976c-0.624,0.417-1.25,0.835-1.875,1.251
				c0.136-0.09,0.325-0.104,0.462-0.196c0.625-0.418,1.251-0.835,1.876-1.253C22.955,31.869,22.766,31.883,22.627,31.976z"/>
			<path opacity="0.1091" fill="#754C24" d="M23.704,32.864c-0.594,0.367-1.188,0.735-1.783,1.102
				c-0.17,0.105,0.165,0.493,0.34,0.37c0.464-0.324,0.928-0.648,1.392-0.972C23.756,33.292,23.651,32.896,23.704,32.864z"/>
			<path opacity="0.1091" fill="#754C24" d="M23.511,31.693c-0.625,0.416-1.25,0.833-1.876,1.25c0.086-0.057,0.389,0.202,0.483,0.14
				c0.625-0.417,1.251-0.833,1.877-1.251C23.91,31.889,23.605,31.63,23.511,31.693z"/>
			<path opacity="0.1091" fill="#754C24" d="M22.083,32.655c-0.625,0.417-1.251,0.835-1.876,1.251
				c-0.096,0.063,0.022,0.44-0.066,0.5c0.625-0.418,1.251-0.836,1.876-1.253C22.112,33.089,21.996,32.713,22.083,32.655z"/>
			<path opacity="0.1091" fill="#754C24" d="M22.803,34.343c-0.625,0.418-1.251,0.836-1.876,1.252
				c0.091-0.061,0.392,0.186,0.489,0.121c0.625-0.418,1.251-0.835,1.877-1.253C23.203,34.522,22.901,34.277,22.803,34.343z"/>
			<path opacity="0.1091" fill="#754C24" d="M24.324,32.701c-0.564,0.366-1.13,0.734-1.692,1.103
				c-0.148,0.096,0.144,0.511,0.29,0.41c0.49-0.338,0.98-0.677,1.47-1.015C24.466,33.147,24.28,32.729,24.324,32.701z"/>
			<path opacity="0.1091" fill="#754C24" d="M22.609,32.181c-0.671,0.378-1.343,0.756-2.013,1.134
				c-0.085,0.047,0.19,0.482,0.247,0.437c0.487-0.39,0.973-0.78,1.46-1.172C22.423,32.483,22.483,32.251,22.609,32.181z"/>
			<path opacity="0.1091" fill="#754C24" d="M23.067,32.345c-0.49,0.275-0.979,0.55-1.468,0.825
				c-0.175,0.099,0.079,0.558,0.219,0.454c0.574-0.434,1.15-0.866,1.726-1.3C23.531,32.334,23.164,32.29,23.067,32.345z"/>
			<path opacity="0.1091" fill="#754C24" d="M24.388,33.431c-0.63,0.361-1.258,0.722-1.887,1.083c-0.14,0.081,0.166,0.513,0.3,0.406
				c0.438-0.356,0.877-0.71,1.315-1.066C24.232,33.761,24.269,33.498,24.388,33.431z"/>
			<path opacity="0.1091" fill="#754C24" d="M22.063,33.272c-0.625,0.417-1.251,0.835-1.877,1.251
				c-0.04,0.026,0.195,0.456,0.167,0.477c0.625-0.418,1.251-0.835,1.876-1.253C22.269,33.72,22.033,33.292,22.063,33.272z"/>
		</g>
	</g>
</g>
<g>
	<g>
		<g>
			<path opacity="0.1091" fill="#754C24" d="M25.624,12.403c0.462,1.098,1.046,1.809,1.83,2.699
				c0.043,0.048,0.435-0.213,0.473-0.169c-0.783-0.89-1.367-1.602-1.829-2.699C26.093,12.222,25.625,12.409,25.624,12.403z"/>
			<path opacity="0.1091" fill="#754C24" d="M24.675,11.319c0.32,1.377,0.743,1.885,1.663,2.919
				c0.063,0.071,0.463-0.226,0.432-0.259c-0.763-0.85-1.428-1.715-2.088-2.649C24.679,11.328,24.677,11.323,24.675,11.319z"/>
			<path opacity="0.1091" fill="#754C24" d="M24.699,10.038c0.461,1.095,1.045,1.803,1.826,2.69c0.037,0.042,0.43-0.235,0.463-0.198
				c-0.781-0.887-1.366-1.594-1.826-2.689C25.162,9.839,24.698,10.035,24.699,10.038z"/>
			<path opacity="0.1091" fill="#754C24" d="M25.767,11.427c0.246,1.048,0.768,1.56,1.482,2.349
				c0.105,0.115,0.505-0.187,0.411-0.291c-0.749-0.829-1.313-1.568-1.843-2.558C25.882,11.045,25.734,11.292,25.767,11.427z"/>
			<path opacity="0.1091" fill="#754C24" d="M25.58,9.755c0.462,1.093,1.047,1.802,1.829,2.689c0.095,0.108,0.391,0.035,0.483,0.14
				c-0.782-0.887-1.367-1.596-1.83-2.689C26.02,9.795,25.62,9.851,25.58,9.755z"/>
			<path opacity="0.1091" fill="#754C24" d="M24.091,11.212c0.459,1.097,1.04,1.805,1.822,2.694
				c-0.07-0.081,0.142-0.414,0.068-0.499c-0.782-0.889-1.365-1.597-1.823-2.693C24.214,10.846,24.033,11.079,24.091,11.212z"/>
			<path opacity="0.1091" fill="#754C24" d="M24.874,12.397c0.461,1.098,1.043,1.809,1.827,2.699
				c0.091,0.104,0.398,0.018,0.488,0.121c-0.783-0.891-1.366-1.602-1.827-2.7C25.323,12.422,24.911,12.487,24.874,12.397z"/>
			<path opacity="0.1091" fill="#754C24" d="M26.474,11.255c0.465,1.095,1.051,1.807,1.834,2.694
				c-0.091-0.103,0.026-0.392-0.067-0.499c-0.782-0.889-1.369-1.599-1.833-2.693C26.47,10.905,26.41,11.106,26.474,11.255z"/>
			<path opacity="0.1091" fill="#754C24" d="M24.371,10.637c0.46,1.096,1.042,1.804,1.824,2.692c-0.02-0.022,0.33-0.373,0.306-0.4
				c-0.781-0.887-1.364-1.596-1.824-2.69C24.708,10.312,24.338,10.558,24.371,10.637z"/>
			<path opacity="0.1091" fill="#754C24" d="M25.12,10.373c0.451,1.11,0.966,1.765,1.761,2.65c0.07,0.079,0.462-0.232,0.408-0.293
				c-0.702-0.782-1.268-1.424-1.668-2.401C25.602,10.278,25.138,10.414,25.12,10.373z"/>
			<path opacity="0.1091" fill="#754C24" d="M26.191,11.916c0.464,1.097,1.049,1.808,1.833,2.698
				c-0.028-0.032,0.303-0.386,0.27-0.425c-0.782-0.889-1.367-1.6-1.833-2.696C26.497,11.577,26.154,11.826,26.191,11.916z"/>
			<path opacity="0.1091" fill="#754C24" d="M24.297,11.792c0.465,1.114,1.017,1.786,1.828,2.708
				c-0.101-0.115-0.063-0.357-0.166-0.475c-0.77-0.775-1.376-1.669-1.817-2.684C24.176,11.423,24.242,11.664,24.297,11.792z"/>
		</g>
	</g>
</g>
<g>
	<g>
		<g>
			<path opacity="0.1091" fill="#754C24" d="M25.575,14.134c0.363,0.846,0.845,1.618,1.445,2.316
				c0.03,0.043,0.447-0.205,0.474-0.169c-0.601-0.698-1.083-1.47-1.445-2.315C26.036,13.941,25.584,14.151,25.575,14.134z"/>
			<path opacity="0.1091" fill="#754C24" d="M24.625,13.052c0.14,0.936,0.542,1.735,1.205,2.397c0.1,0.13,0.527-0.131,0.438-0.249
				C25.727,14.48,25.179,13.764,24.625,13.052z"/>
			<path opacity="0.1091" fill="#754C24" d="M24.649,11.769c0.362,0.843,0.843,1.611,1.442,2.306
				c0.024,0.034,0.441-0.226,0.462-0.197c-0.599-0.695-1.079-1.463-1.44-2.306C25.104,11.557,24.653,11.777,24.649,11.769z"/>
			<path opacity="0.1091" fill="#754C24" d="M25.715,13.159c0.174,0.735,0.53,1.369,1.07,1.902c0.126,0.166,0.544-0.114,0.421-0.277
				c-0.547-0.663-1.025-1.372-1.439-2.125C25.834,12.77,25.667,13.03,25.715,13.159z"/>
			<path opacity="0.1091" fill="#754C24" d="M25.531,11.487c0.362,0.841,0.845,1.609,1.443,2.304
				c0.082,0.109,0.407,0.035,0.484,0.14c-0.599-0.695-1.081-1.463-1.444-2.305C25.959,11.52,25.582,11.586,25.531,11.487z"/>
			<path opacity="0.1091" fill="#754C24" d="M24.042,12.944c0.358,0.844,0.839,1.614,1.437,2.31c-0.069-0.096,0.142-0.4,0.068-0.499
				c-0.6-0.696-1.079-1.466-1.438-2.31C24.171,12.565,23.977,12.821,24.042,12.944z"/>
			<path opacity="0.1091" fill="#754C24" d="M24.825,14.129c0.361,0.847,0.842,1.618,1.442,2.315
				c0.077,0.107,0.414,0.02,0.488,0.121c-0.601-0.698-1.082-1.469-1.442-2.315C25.262,14.148,24.875,14.225,24.825,14.129z"/>
			<path opacity="0.1091" fill="#754C24" d="M26.428,12.987c0.132,0.767,0.48,1.419,1.048,1.958
				c0.089,0.119,0.501-0.169,0.415-0.284c-0.549-0.695-1.06-1.419-1.529-2.172C26.439,12.605,26.384,12.85,26.428,12.987z"/>
			<path opacity="0.1091" fill="#754C24" d="M24.323,12.37c0.359,0.843,0.84,1.611,1.438,2.306
				c-0.024-0.033,0.337-0.358,0.306-0.399c-0.598-0.695-1.078-1.464-1.438-2.307C24.659,12.028,24.287,12.302,24.323,12.37z"/>
			<path opacity="0.1091" fill="#754C24" d="M25.071,12.105c0.309,0.807,0.751,1.532,1.325,2.174
				c0.097,0.129,0.512-0.154,0.421-0.275c-0.518-0.584-0.932-1.232-1.245-1.945C25.541,12,25.098,12.157,25.071,12.105z"/>
			<path opacity="0.1091" fill="#754C24" d="M26.146,13.65c0.308,0.802,0.749,1.522,1.322,2.162
				c0.036,0.048,0.444-0.245,0.415-0.287c-0.595-0.699-1.084-1.466-1.467-2.3C26.454,13.294,26.107,13.571,26.146,13.65z"/>
			<path opacity="0.1091" fill="#754C24" d="M24.252,13.537c0.36,0.846,0.839,1.615,1.438,2.312
				c-0.094-0.127-0.069-0.345-0.165-0.475c-0.599-0.696-1.079-1.467-1.439-2.311C24.162,13.208,24.176,13.389,24.252,13.537z"/>
		</g>
	</g>
</g>
<g>
	<g>
		<g>
			<path opacity="0.1091" fill="#754C24" d="M26.154,16.737c0.355,0.998,0.787,1.959,1.3,2.888c0.011,0.021,0.466-0.184,0.473-0.17
				c-0.511-0.927-0.943-1.89-1.298-2.887C26.623,16.555,26.154,16.735,26.154,16.737z"/>
			<path opacity="0.1091" fill="#754C24" d="M25.226,15.651c0.164,1.076,0.528,2.076,1.092,3.003
				c0.05,0.101,0.512-0.098,0.469-0.181c-0.394-0.843-0.833-1.664-1.315-2.459C25.421,15.927,25.235,15.69,25.226,15.651z"/>
			<path opacity="0.1091" fill="#754C24" d="M25.227,14.364c0.354,0.998,0.788,1.96,1.299,2.887
				c0.007,0.014,0.461-0.202,0.463-0.196c-0.511-0.928-0.943-1.89-1.299-2.888C25.688,14.165,25.223,14.354,25.227,14.364z"/>
			<path opacity="0.1091" fill="#754C24" d="M26.254,15.74c0.474,1.621,0.187,0.896,0.982,2.468c0.085,0.169,0.527-0.073,0.44-0.244
				c-0.461-0.894-0.914-1.792-1.356-2.696C26.333,15.293,26.222,15.632,26.254,15.74z"/>
			<path opacity="0.1091" fill="#754C24" d="M26.109,14.082c0.356,0.997,0.789,1.958,1.299,2.887
				c0.053,0.104,0.435,0.04,0.484,0.138c-0.511-0.927-0.944-1.889-1.3-2.887C26.553,14.121,26.146,14.172,26.109,14.082z"/>
			<path opacity="0.1091" fill="#754C24" d="M24.615,15.542c0.354,0.998,0.787,1.961,1.3,2.887c-0.062-0.122,0.13-0.372,0.066-0.498
				c-0.513-0.926-0.945-1.889-1.299-2.887C24.735,15.175,24.56,15.405,24.615,15.542z"/>
			<path opacity="0.1091" fill="#754C24" d="M25.402,16.732c0.354,0.998,0.786,1.96,1.299,2.887c0.05,0.1,0.441,0.025,0.488,0.119
				c-0.513-0.926-0.944-1.889-1.299-2.887C25.853,16.756,25.438,16.817,25.402,16.732z"/>
			<path opacity="0.1091" fill="#754C24" d="M26.99,15.575c0.181,0.969,0.528,1.874,1.041,2.716
				c0.008,0.017,0.448-0.224,0.426-0.267c-0.505-0.98-1.016-1.958-1.529-2.935C26.991,15.21,26.95,15.436,26.99,15.575z"/>
			<path opacity="0.1091" fill="#754C24" d="M24.9,14.968c0.353,0.997,0.784,1.958,1.295,2.884c-0.031-0.062,0.341-0.331,0.306-0.4
				c-0.511-0.926-0.942-1.887-1.295-2.884C25.235,14.64,24.865,14.88,24.9,14.968z"/>
			<path opacity="0.1091" fill="#754C24" d="M25.653,14.734c0.316,0.937,0.72,1.836,1.207,2.698c0.061,0.12,0.513-0.1,0.455-0.216
				c-0.457-0.81-0.845-1.652-1.161-2.526C26.125,14.62,25.66,14.75,25.653,14.734z"/>
			<path opacity="0.1091" fill="#754C24" d="M26.719,16.245c0.351,0.99,0.776,1.948,1.279,2.871
				c-0.028-0.055,0.355-0.322,0.322-0.386c-0.523-0.933-0.968-1.903-1.332-2.909C27.021,15.902,26.679,16.147,26.719,16.245z"/>
			<path opacity="0.1091" fill="#754C24" d="M24.821,16.125c0.354,1.002,0.79,1.968,1.305,2.898
				c-0.074-0.148-0.091-0.325-0.166-0.475c-0.509-0.923-0.939-1.881-1.292-2.875C24.701,15.755,24.769,15.995,24.821,16.125z"/>
		</g>
	</g>
</g>
<g>
	<g>
		<g>
			<path opacity="0.1091" fill="#754C24" d="M26.201,18.898c0.309,1.023,0.793,1.669,1.446,2.508
				c0.034,0.044,0.444-0.208,0.474-0.169c-0.653-0.839-1.137-1.485-1.446-2.508C26.676,18.732,26.197,18.886,26.201,18.898z"/>
			<path opacity="0.1091" fill="#754C24" d="M25.253,17.815c0.139,1.237,0.448,1.637,1.213,2.58
				c0.104,0.128,0.534-0.122,0.446-0.231c-0.604-0.739-1.118-1.499-1.629-2.306C25.275,17.842,25.264,17.829,25.253,17.815z"/>
			<path opacity="0.1091" fill="#754C24" d="M25.276,16.533c0.308,1.019,0.792,1.662,1.442,2.497
				c0.029,0.037,0.438-0.227,0.462-0.197c-0.65-0.834-1.135-1.478-1.441-2.497C25.743,16.349,25.27,16.511,25.276,16.533z"/>
			<path opacity="0.1091" fill="#754C24" d="M26.337,17.923c0.046,0.948,0.469,1.33,1.079,2.08c0.132,0.164,0.557-0.105,0.428-0.264
				c-0.613-0.756-1.06-1.421-1.454-2.315C26.44,17.537,26.331,17.79,26.337,17.923z"/>
			<path opacity="0.1091" fill="#754C24" d="M26.157,16.251c0.31,1.017,0.794,1.662,1.444,2.497c0.086,0.109,0.403,0.035,0.484,0.14
				c-0.65-0.835-1.136-1.48-1.446-2.497C26.612,16.299,26.182,16.334,26.157,16.251z"/>
			<path opacity="0.1091" fill="#754C24" d="M24.668,17.708c0.304,1.021,0.787,1.666,1.438,2.501
				c-0.069-0.09,0.142-0.403,0.068-0.499c-0.652-0.836-1.134-1.479-1.439-2.501C24.776,17.354,24.623,17.56,24.668,17.708z"/>
			<path opacity="0.1091" fill="#754C24" d="M25.451,18.895c0.307,1.023,0.79,1.667,1.443,2.506
				c0.082,0.105,0.408,0.018,0.488,0.121c-0.653-0.839-1.136-1.484-1.443-2.508C25.913,18.929,25.475,18.972,25.451,18.895z"/>
			<path opacity="0.1091" fill="#754C24" d="M27,17.267c0,1.326,0.308,1.622,1.11,2.618c0.097,0.12,0.515-0.161,0.427-0.27
				C27.924,18.85,27,18.129,27,17.253C27,17.257,27,17.261,27,17.267z"/>
			<path opacity="0.1091" fill="#754C24" d="M24.945,17.131c0.308,1.021,0.792,1.665,1.444,2.501
				c-0.023-0.029,0.335-0.361,0.306-0.399c-0.652-0.836-1.137-1.481-1.443-2.501C25.279,16.822,24.917,17.034,24.945,17.131z"/>
			<path opacity="0.1091" fill="#754C24" d="M25.698,16.872c0.285,0.997,0.686,1.556,1.332,2.356
				c0.101,0.126,0.521-0.148,0.429-0.262c-0.568-0.706-1.026-1.254-1.259-2.14C26.19,16.792,25.704,16.895,25.698,16.872z"/>
			<path opacity="0.1091" fill="#754C24" d="M26.771,18.414c0.217,0.966,0.676,1.514,1.284,2.282
				c0.063,0.079,0.475-0.208,0.428-0.266c-0.644-0.811-1.101-1.456-1.44-2.44C27.076,18.087,26.748,18.303,26.771,18.414z"/>
			<path opacity="0.1091" fill="#754C24" d="M24.716,17.838c0.382,1.284,0.712,1.823,1.602,2.966
				c-0.097-0.125-0.066-0.349-0.165-0.475c-0.426-0.515-0.817-1.055-1.175-1.619c0.054,0.153,0.108,0.307,0.163,0.462
				c-0.088-0.295-0.177-0.59-0.266-0.885C24.836,18.154,24.741,17.923,24.716,17.838z"/>
		</g>
	</g>
</g>
<g>
	<g>
		<g>
			<path opacity="0.1091" fill="#754C24" d="M26.104,21.353c0.448,0.908,1.016,1.734,1.703,2.478
				c0.048,0.059,0.451-0.238,0.421-0.275c-0.661-0.713-1.211-1.503-1.651-2.371C26.56,21.152,26.118,21.375,26.104,21.353z"/>
			<path opacity="0.1091" fill="#754C24" d="M25.156,20.269c0.229,1.014,0.721,1.874,1.474,2.577
				c0.128,0.156,0.553-0.111,0.431-0.262C26.426,21.812,25.791,21.041,25.156,20.269z"/>
			<path opacity="0.1091" fill="#754C24" d="M25.18,18.987c0.462,0.912,1.038,1.744,1.73,2.497c0.031,0.041,0.437-0.227,0.462-0.196
				c-0.69-0.753-1.268-1.586-1.73-2.497C25.628,18.767,25.188,19.002,25.18,18.987z"/>
			<path opacity="0.1091" fill="#754C24" d="M26.242,20.377c0.271,0.8,0.715,1.495,1.328,2.081c0.164,0.204,0.568-0.095,0.402-0.3
				c-0.627-0.71-1.187-1.471-1.679-2.282C26.364,19.981,26.185,20.255,26.242,20.377z"/>
			<path opacity="0.1091" fill="#754C24" d="M26.06,18.705c0.466,0.911,1.044,1.743,1.734,2.496c0.088,0.111,0.4,0.036,0.483,0.14
				c-0.69-0.753-1.27-1.586-1.734-2.497C26.478,18.735,26.121,18.806,26.06,18.705z"/>
			<path opacity="0.1091" fill="#754C24" d="M24.57,20.162c0.46,0.914,1.034,1.748,1.727,2.501
				c-0.069-0.087,0.143-0.404,0.067-0.498c-0.691-0.753-1.268-1.587-1.728-2.501C24.702,19.775,24.501,20.046,24.57,20.162z"/>
			<path opacity="0.1091" fill="#754C24" d="M25.354,21.347c0.46,0.917,1.038,1.752,1.731,2.508c0.084,0.106,0.408,0.019,0.488,0.12
				c-0.693-0.756-1.271-1.592-1.731-2.508C25.781,21.364,25.412,21.445,25.354,21.347z"/>
			<path opacity="0.1091" fill="#754C24" d="M26.958,20.205c0.232,0.833,0.667,1.546,1.306,2.137
				c0.119,0.148,0.518-0.159,0.398-0.307c-0.633-0.744-1.224-1.52-1.771-2.328C26.974,19.82,26.901,20.069,26.958,20.205z"/>
			<path opacity="0.1091" fill="#754C24" d="M24.852,19.586c0.389,0.831,0.901,1.577,1.535,2.24
				c0.083,0.104,0.492-0.187,0.418-0.278c-0.657-0.71-1.207-1.498-1.647-2.36C25.187,19.236,24.817,19.527,24.852,19.586z"/>
			<path opacity="0.1091" fill="#754C24" d="M25.602,19.323c0.398,0.879,0.931,1.669,1.594,2.37
				c0.124,0.152,0.525-0.149,0.402-0.302c-0.594-0.636-1.092-1.341-1.495-2.112C26.063,19.214,25.634,19.382,25.602,19.323z"/>
			<path opacity="0.1091" fill="#754C24" d="M26.676,20.868c0.372,0.816,0.871,1.55,1.495,2.196
				c0.106,0.132,0.511-0.167,0.406-0.295c-0.647-0.703-1.191-1.478-1.632-2.326C26.983,20.504,26.636,20.797,26.676,20.868z"/>
			<path opacity="0.1091" fill="#754C24" d="M24.782,20.755c0.458,0.915,1.034,1.749,1.727,2.504
				c-0.098-0.122-0.065-0.351-0.165-0.475c-0.693-0.755-1.27-1.589-1.728-2.506C24.699,20.42,24.698,20.612,24.782,20.755z"/>
		</g>
	</g>
</g>
<g>
	<g>
		<g>
			<path opacity="0.1091" fill="#754C24" d="M26.442,24.479c0.461,0.658,0.894,1.334,1.301,2.027
				c0.021,0.033,0.458-0.193,0.474-0.169c-0.406-0.693-0.841-1.368-1.302-2.026C26.892,24.274,26.464,24.513,26.442,24.479z"/>
			<path opacity="0.1091" fill="#754C24" d="M25.495,23.396c0.244,0.762,0.597,1.466,1.059,2.117
				c0.092,0.149,0.526-0.105,0.435-0.254C26.63,24.53,26.132,23.909,25.495,23.396z"/>
			<path opacity="0.1091" fill="#754C24" d="M25.518,22.116c0.461,0.653,0.893,1.325,1.297,2.015
				c0.015,0.026,0.452-0.214,0.462-0.197c-0.404-0.688-0.836-1.36-1.295-2.014C25.962,21.891,25.534,22.142,25.518,22.116z"/>
			<path opacity="0.1091" fill="#754C24" d="M26.585,23.505c0.275,0.555,0.581,1.092,0.919,1.611
				c0.121,0.199,0.538-0.08,0.418-0.281c-0.354-0.661-0.781-1.271-1.283-1.83C26.713,23.101,26.525,23.393,26.585,23.505z"/>
			<path opacity="0.1091" fill="#754C24" d="M26.397,21.834c0.463,0.652,0.897,1.323,1.301,2.013
				c0.066,0.108,0.42,0.038,0.483,0.141c-0.404-0.691-0.839-1.362-1.301-2.014C26.808,21.866,26.468,21.939,26.397,21.834z"/>
			<path opacity="0.1091" fill="#754C24" d="M24.91,23.29c0.456,0.658,0.887,1.33,1.291,2.021c-0.065-0.108,0.137-0.387,0.067-0.5
				c-0.405-0.689-0.836-1.363-1.292-2.02C25.045,22.896,24.839,23.186,24.91,23.29z"/>
			<path opacity="0.1091" fill="#754C24" d="M25.691,24.476c0.46,0.658,0.892,1.334,1.299,2.025
				c0.063,0.105,0.428,0.022,0.488,0.121c-0.407-0.692-0.839-1.369-1.298-2.028C26.111,24.49,25.761,24.576,25.691,24.476z"/>
			<path opacity="0.1091" fill="#754C24" d="M27.292,23.335c0.236,0.587,0.535,1.141,0.896,1.66c0.086,0.141,0.501-0.144,0.411-0.29
				c-0.358-0.695-0.816-1.317-1.374-1.87C27.312,22.936,27.233,23.207,27.292,23.335z"/>
			<path opacity="0.1091" fill="#754C24" d="M25.189,22.716c0.408,0.603,0.799,1.218,1.168,1.847
				c0.033,0.054,0.464-0.206,0.432-0.258c-0.396-0.685-0.829-1.348-1.294-1.989C25.524,22.357,25.159,22.667,25.189,22.716z"/>
			<path opacity="0.1091" fill="#754C24" d="M25.939,22.45c0.41,0.627,0.806,1.263,1.188,1.907c0.086,0.14,0.505-0.137,0.417-0.282
				c-0.323-0.587-0.691-1.144-1.104-1.669C26.391,22.337,25.981,22.516,25.939,22.45z"/>
			<path opacity="0.1091" fill="#754C24" d="M27.011,23.995c0.391,0.588,0.767,1.188,1.128,1.795
				c0.057,0.094,0.478-0.182,0.415-0.282c-0.383-0.673-0.808-1.319-1.273-1.938C27.316,23.621,26.972,23.936,27.011,23.995z"/>
			<path opacity="0.1091" fill="#754C24" d="M25.12,23.883c0.457,0.657,0.889,1.331,1.293,2.022
				c-0.085-0.139-0.079-0.335-0.165-0.476c-0.405-0.69-0.836-1.364-1.293-2.021C25.044,23.542,25.03,23.747,25.12,23.883z"/>
		</g>
	</g>
</g>
<g>
	<g>
		<g>
			<path opacity="0.1091" fill="#754C24" d="M26.683,26.646c0.385,0.611,0.771,1.222,1.156,1.834
				c0.021,0.034,0.456-0.196,0.473-0.169c-0.385-0.612-0.771-1.223-1.155-1.834C27.134,26.442,26.699,26.673,26.683,26.646z"/>
			<path opacity="0.1091" fill="#754C24" d="M25.731,25.563c0.304,0.634,0.605,1.269,0.908,1.902
				c0.078,0.162,0.541-0.12,0.437-0.252C26.627,26.665,26.181,26.114,25.731,25.563z"/>
			<path opacity="0.1091" fill="#754C24" d="M25.758,24.281c0.384,0.607,0.769,1.216,1.152,1.823
				c0.017,0.026,0.451-0.216,0.462-0.197c-0.384-0.607-0.769-1.216-1.151-1.824C26.204,24.057,25.77,24.301,25.758,24.281z"/>
			<path opacity="0.1091" fill="#754C24" d="M26.822,25.67c0.261,0.475,0.521,0.948,0.781,1.423c0.104,0.189,0.547-0.098,0.419-0.28
				c-0.383-0.546-0.766-1.095-1.147-1.643C26.947,25.273,26.759,25.554,26.822,25.67z"/>
			<path opacity="0.1091" fill="#754C24" d="M26.639,23.998c0.385,0.607,0.77,1.215,1.155,1.822c0.068,0.109,0.418,0.037,0.483,0.14
				c-0.385-0.607-0.771-1.215-1.156-1.822C27.053,24.029,26.703,24.102,26.639,23.998z"/>
			<path opacity="0.1091" fill="#754C24" d="M25.149,25.456c0.382,0.609,0.766,1.219,1.148,1.827
				c-0.066-0.106,0.137-0.388,0.066-0.498c-0.382-0.609-0.766-1.22-1.148-1.828C25.282,25.063,25.078,25.345,25.149,25.456z"/>
			<path opacity="0.1091" fill="#754C24" d="M25.933,26.64c0.385,0.612,0.769,1.223,1.153,1.834c0.064,0.105,0.426,0.021,0.488,0.12
				c-0.385-0.611-0.77-1.222-1.153-1.833C26.354,26.656,25.995,26.739,25.933,26.64z"/>
			<path opacity="0.1091" fill="#754C24" d="M27.535,25.498c0.252,0.491,0.503,0.981,0.755,1.472
				c0.069,0.135,0.511-0.152,0.413-0.285c-0.411-0.563-0.823-1.123-1.234-1.685C27.554,25.116,27.468,25.365,27.535,25.498z"/>
			<path opacity="0.1091" fill="#754C24" d="M25.43,24.881c0.384,0.607,0.768,1.217,1.15,1.824c-0.028-0.045,0.34-0.345,0.306-0.398
				c-0.383-0.609-0.767-1.217-1.149-1.826C25.764,24.526,25.396,24.827,25.43,24.881z"/>
			<path opacity="0.1091" fill="#754C24" d="M26.179,24.616c0.342,0.561,0.686,1.121,1.027,1.682
				c0.09,0.148,0.515-0.132,0.419-0.276c-0.315-0.483-0.63-0.967-0.945-1.451C26.636,24.504,26.217,24.677,26.179,24.616z"/>
			<path opacity="0.1091" fill="#754C24" d="M27.253,26.161c0.329,0.537,0.66,1.075,0.989,1.612
				c0.053,0.086,0.477-0.189,0.419-0.279c-0.38-0.586-0.759-1.171-1.139-1.757C27.561,25.793,27.213,26.096,27.253,26.161z"/>
			<path opacity="0.1091" fill="#754C24" d="M25.359,26.048c0.384,0.61,0.767,1.219,1.15,1.829
				c-0.086-0.137-0.079-0.336-0.166-0.475c-0.384-0.61-0.767-1.22-1.148-1.83C25.28,25.71,25.272,25.909,25.359,26.048z"/>
		</g>
	</g>
</g>
<g>
	<g>
		<g>
			<path opacity="0.1091" fill="#754C24" d="M26.489,28.474c0.365,0.553,0.684,1.128,0.956,1.73c0.011,0.021,0.461-0.205,0.45-0.226
				c-0.264-0.584-0.573-1.142-0.932-1.672C26.94,28.269,26.501,28.496,26.489,28.474z"/>
			<path opacity="0.1091" fill="#754C24" d="M25.574,27.385c0.165,0.608,0.398,1.19,0.701,1.741c0.086,0.177,0.556-0.01,0.471-0.179
				c-0.515-1.025-0.206-0.555-1.125-1.545C25.634,27.416,25.556,27.33,25.574,27.385z"/>
			<path opacity="0.1091" fill="#754C24" d="M25.563,26.105c0.368,0.551,0.688,1.128,0.962,1.731c0.008,0.016,0.461-0.2,0.463-0.196
				c-0.273-0.604-0.595-1.181-0.963-1.731C26.009,25.882,25.571,26.119,25.563,26.105z"/>
			<path opacity="0.1091" fill="#754C24" d="M26.566,27.479c0.178,0.425,0.362,0.845,0.558,1.261
				c0.132,0.29,0.569,0.023,0.478-0.166c-0.482-1.003-0.26-0.628-0.959-1.566C26.63,26.991,26.529,27.39,26.566,27.479z"/>
			<path opacity="0.1091" fill="#754C24" d="M26.444,25.823c0.37,0.551,0.691,1.128,0.965,1.73c0.053,0.106,0.434,0.043,0.483,0.14
				c-0.274-0.604-0.596-1.18-0.964-1.73C26.861,25.853,26.506,25.924,26.444,25.823z"/>
			<path opacity="0.1091" fill="#754C24" d="M24.952,27.283c0.367,0.551,0.688,1.13,0.961,1.733c-0.06-0.121,0.132-0.373,0.068-0.5
				c-0.274-0.604-0.594-1.181-0.962-1.731C25.084,26.892,24.882,27.169,24.952,27.283z"/>
			<path opacity="0.1091" fill="#754C24" d="M25.737,28.473c0.368,0.552,0.689,1.129,0.964,1.732
				c0.051,0.102,0.441,0.026,0.488,0.121c-0.274-0.604-0.596-1.183-0.964-1.733C26.162,28.487,25.797,28.569,25.737,28.473z"/>
			<path opacity="0.1091" fill="#754C24" d="M27.313,27.316c0.137,0.467,0.327,0.909,0.569,1.33
				c0.081,0.166,0.509-0.098,0.423-0.271c-0.227-0.597-0.577-1.112-1.05-1.545C27.318,26.907,27.273,27.204,27.313,27.316z"/>
			<path opacity="0.1091" fill="#754C24" d="M25.239,26.71c0.306,0.483,0.577,0.986,0.811,1.508c0.031,0.06,0.48-0.165,0.45-0.226
				c-0.263-0.593-0.58-1.153-0.955-1.681C25.57,26.352,25.203,26.648,25.239,26.71z"/>
			<path opacity="0.1091" fill="#754C24" d="M25.99,26.497c0.328,0.497,0.609,1.018,0.846,1.563
				c0.069,0.145,0.494-0.126,0.416-0.282c-0.198-0.473-0.451-0.915-0.76-1.324C26.431,26.363,26,26.516,25.99,26.497z"/>
			<path opacity="0.1091" fill="#754C24" d="M27.05,27.982c0.278,0.45,0.525,0.915,0.744,1.396c0.069,0.139,0.507-0.109,0.434-0.256
				c-0.239-0.558-0.543-1.08-0.908-1.565C27.349,27.604,27.005,27.907,27.05,27.982z"/>
			<path opacity="0.1091" fill="#754C24" d="M25.164,27.877c0.32,0.577,0.642,1.154,0.961,1.733
				c-0.073-0.148-0.09-0.327-0.165-0.477c-0.58-1.152-0.285-0.62-0.962-1.732C25.083,27.539,25.078,27.736,25.164,27.877z"/>
		</g>
	</g>
</g>
<g>
	<g>
		<g>
			<path opacity="0.1091" fill="#754C24" d="M26.685,31.076c0.221,0.58,0.511,1.125,0.864,1.636c0.02,0.033,0.459-0.193,0.474-0.169
				c-0.354-0.511-0.643-1.056-0.865-1.636C27.149,30.888,26.686,31.081,26.685,31.076z"/>
			<path opacity="0.1091" fill="#754C24" d="M25.756,29.991c0.014,0.645,0.224,1.212,0.628,1.703
				c0.079,0.131,0.53-0.091,0.461-0.202c-0.302-0.525-0.653-1.019-1.054-1.477C25.794,30.02,25.746,29.946,25.756,29.991z"/>
			<path opacity="0.1091" fill="#754C24" d="M25.756,28.703c0.223,0.58,0.512,1.126,0.866,1.637
				c0.014,0.024,0.452-0.214,0.462-0.197c-0.354-0.511-0.642-1.056-0.865-1.636C26.215,28.497,25.756,28.701,25.756,28.703z"/>
			<path opacity="0.1091" fill="#754C24" d="M26.782,30.079c0.182,0.809,0.054,0.474,0.533,1.246
				c0.106,0.172,0.528-0.104,0.421-0.277c-0.306-0.479-0.604-0.964-0.895-1.454C26.886,29.667,26.756,29.966,26.782,30.079z"/>
			<path opacity="0.1091" fill="#754C24" d="M26.639,28.421c0.224,0.58,0.512,1.126,0.865,1.637c0.066,0.107,0.422,0.037,0.484,0.14
				c-0.354-0.513-0.643-1.058-0.865-1.638C27.076,28.456,26.682,28.516,26.639,28.421z"/>
			<path opacity="0.1091" fill="#754C24" d="M25.146,29.882c0.221,0.581,0.509,1.126,0.864,1.636
				c-0.066-0.108,0.138-0.385,0.068-0.498c-0.355-0.51-0.646-1.055-0.866-1.637C25.269,29.509,25.084,29.75,25.146,29.882z"/>
			<path opacity="0.1091" fill="#754C24" d="M25.932,31.071c0.221,0.58,0.511,1.126,0.864,1.635c0.064,0.104,0.43,0.022,0.489,0.121
				c-0.354-0.51-0.644-1.055-0.865-1.637C26.376,31.093,25.972,31.16,25.932,31.071z"/>
			<path opacity="0.1091" fill="#754C24" d="M27.511,29.876c0.014,0.544,0.203,1.021,0.568,1.43
				c0.037,0.063,0.463-0.208,0.423-0.272c-0.331-0.546-0.68-1.081-1.044-1.604C27.515,29.515,27.489,29.768,27.511,29.876z"/>
			<path opacity="0.1091" fill="#754C24" d="M25.429,29.307c0.234,0.608,0.554,1.166,0.962,1.674
				c-0.066-0.099,0.159-0.384,0.102-0.493c-0.295-0.506-0.549-1.032-0.758-1.58C25.764,28.974,25.393,29.229,25.429,29.307z"/>
			<path opacity="0.1091" fill="#754C24" d="M26.182,29.073c0.177,0.525,0.429,1.012,0.756,1.459
				c0.08,0.129,0.514-0.128,0.436-0.252c-0.285-0.388-0.515-0.805-0.69-1.251C26.649,28.957,26.191,29.096,26.182,29.073z"/>
			<path opacity="0.1091" fill="#754C24" d="M27.247,30.585c0.175,0.544,0.43,1.047,0.768,1.508
				c0.014,0.024,0.439-0.243,0.422-0.272c-0.357-0.525-0.663-1.079-0.919-1.661C27.554,30.23,27.21,30.492,27.247,30.585z"/>
			<path opacity="0.1091" fill="#754C24" d="M25.35,30.464c0.504,1.113,0.23,0.594,0.872,1.647c-0.084-0.139-0.08-0.335-0.166-0.475
				c-0.286-0.541-0.573-1.083-0.859-1.624C25.232,30.092,25.293,30.337,25.35,30.464z"/>
		</g>
	</g>
</g>
<g>
	<g>
		<g>
			<path opacity="0.1091" fill="#754C24" d="M26.586,32.997c0.148,0.308,0.325,0.597,0.531,0.869
				c0.028,0.04,0.454-0.198,0.474-0.169c-0.206-0.272-0.382-0.562-0.53-0.869C27.047,32.802,26.597,33.017,26.586,32.997z"/>
			<path opacity="0.1091" fill="#754C24" d="M25.637,31.915c-0.049,0.398,0.06,0.734,0.325,1.009
				c0.103,0.144,0.535-0.112,0.438-0.246C26.214,32.36,25.959,32.107,25.637,31.915z"/>
			<path opacity="0.1091" fill="#754C24" d="M25.661,30.633c0.148,0.305,0.325,0.593,0.529,0.864
				c0.021,0.031,0.448-0.219,0.463-0.197c-0.204-0.271-0.38-0.559-0.528-0.864C26.115,30.419,25.668,30.645,25.661,30.633z"/>
			<path opacity="0.1091" fill="#754C24" d="M26.729,32.022c-0.007,0.335-0.023,0.204,0.22,0.553
				c0.116,0.164,0.539-0.108,0.424-0.271c-0.182-0.272-0.378-0.533-0.591-0.782C26.834,31.588,26.729,31.925,26.729,32.022z"/>
			<path opacity="0.1091" fill="#754C24" d="M26.542,30.351c0.15,0.303,0.326,0.591,0.529,0.862c0.076,0.11,0.414,0.037,0.484,0.14
				c-0.203-0.271-0.38-0.559-0.529-0.863C26.967,30.384,26.599,30.452,26.542,30.351z"/>
			<path opacity="0.1091" fill="#754C24" d="M25.054,31.807c0.146,0.308,0.321,0.597,0.526,0.866
				c-0.068-0.098,0.14-0.392,0.067-0.498c-0.206-0.27-0.382-0.56-0.527-0.866C25.184,31.426,24.988,31.687,25.054,31.807z"/>
			<path opacity="0.1091" fill="#754C24" d="M25.837,32.991c0.146,0.309,0.322,0.599,0.529,0.869
				c0.071,0.107,0.42,0.021,0.488,0.121c-0.206-0.271-0.384-0.563-0.529-0.869C26.271,33.011,25.89,33.089,25.837,32.991z"/>
			<path opacity="0.1091" fill="#754C24" d="M27.371,31.365c0.025,0.828-0.108,0.558,0.246,1.067
				c0.089,0.127,0.504-0.158,0.415-0.284c-0.184-0.296-0.404-0.562-0.661-0.797C27.371,31.356,27.371,31.361,27.371,31.365z"/>
			<path opacity="0.1091" fill="#754C24" d="M25.335,31.232c0.104,0.266,0.246,0.509,0.426,0.73c0.035,0.052,0.46-0.213,0.447-0.23
				c-0.215-0.284-0.404-0.583-0.567-0.9C25.673,30.888,25.303,31.164,25.335,31.232z"/>
			<path opacity="0.1091" fill="#754C24" d="M26.083,30.967c0.108,0.286,0.258,0.549,0.449,0.786c0.1,0.141,0.521-0.133,0.425-0.271
				c-0.136-0.18-0.259-0.366-0.372-0.561C26.547,30.861,26.109,31.021,26.083,30.967z"/>
			<path opacity="0.1091" fill="#754C24" d="M27.154,32.511c0.082,0.247,0.208,0.47,0.378,0.666c0.071,0.103,0.49-0.176,0.421-0.273
				c-0.19-0.264-0.366-0.534-0.528-0.817C27.465,32.15,27.12,32.431,27.154,32.511z"/>
			<path opacity="0.1091" fill="#754C24" d="M25.264,32.399c0.308,0.571,0.161,0.33,0.527,0.866
				c-0.09-0.132-0.073-0.339-0.166-0.475c-0.174-0.289-0.35-0.577-0.525-0.866C25.177,32.069,25.187,32.252,25.264,32.399z"/>
		</g>
	</g>
</g>
<g>
</g>
<g>
</g>
<g>
</g>
<g>
</g>
<g>
</g>
<g>
</g>
<g>
</g>
<g>
</g>
<g>
</g>
<g>
</g>
<g>
</g>
<g>
</g>
<g>
</g>
<g>
</g>
<g>
</g>
</svg>
