<?xml version="1.0" encoding="utf-8"?>
<!-- Generator: Adobe Illustrator 16.0.0, SVG Export Plug-In . SVG Version: 6.00 Build 0)  -->
<!DOCTYPE svg PUBLIC "-//W3C//DTD SVG 1.1//EN" "http://www.w3.org/Graphics/SVG/1.1/DTD/svg11.dtd">
<svg version="1.1" id="Слой_1" xmlns="http://www.w3.org/2000/svg" xmlns:xlink="http://www.w3.org/1999/xlink" x="0px" y="0px"
	 width="42px" height="42px" viewBox="0 0 42 42" enable-background="new 0 0 42 42" xml:space="preserve">
<path fill="#A6A674" stroke="#000000" stroke-miterlimit="10" d="M14.406,9.847c0,0,0.03-0.044,0.085-0.126
	c0.649-0.969,4.812-7.169,4.887-7.169c0.088,0,1.289-1.318,2.236-1.247c0.948,0.071,1.786,0.82,2.349,1.266
	c0.562,0.445,3.277,3.96,3.547,4.542s2.816,5.948,2.99,6.534s0.135,9.78,0,10.354s-1.545,6.943-1.7,7.276s-2.261,5.304-2.636,5.682
	s-3.711,3.632-3.711,3.632s-4.547-6.385-4.84-6.707s-1.786-0.439-2.226-0.615s-2.197-2.431-2.666-3.484
	c-0.468-1.055-0.059-16.664,0.322-17.806s1.392-2.175,1.392-2.175"/>
<g>
	<g>
		<g>
			<path opacity="0.1091" fill="#754C24" d="M18.515,31.927c2.265,0.506,4.124,3.568,5.307,5.27c0.024,0.036,0.449-0.205,0.473-0.17
				c-1.185-1.701-3.041-4.762-5.306-5.27C18.85,31.727,18.654,31.958,18.515,31.927z"/>
			<path opacity="0.1091" fill="#754C24" d="M17.833,31.271c0.653,0.149,1.157,0.761,1.625,1.199
				c1.339,1.256,2.392,2.635,3.476,4.107c-0.043-0.059,0.264-0.383,0.211-0.457c-1.321-1.883-3.108-4.807-5.576-5.277
				C17.679,30.864,17.719,31.245,17.833,31.271z"/>
			<path opacity="0.1091" fill="#754C24" d="M18.195,29.693c1.927,1.377,3.355,3.198,4.7,5.134c0.02,0.028,0.443-0.225,0.463-0.197
				c-1.346-1.935-2.772-3.756-4.701-5.133C18.583,29.444,18.262,29.741,18.195,29.693z"/>
			<path opacity="0.1091" fill="#754C24" d="M18.658,30.953c0.77,0.107,1.185,0.605,1.733,1.126
				c1.354,1.287,2.427,2.649,3.526,4.149c-0.007-0.009,0.356-0.336,0.313-0.395c-1.123-1.511-2.233-2.829-3.555-4.168
				c-0.631-0.64-1.089-1.03-1.967-1.214C18.72,30.454,18.646,30.951,18.658,30.953z"/>
			<path opacity="0.1091" fill="#754C24" d="M19.077,29.411c1.928,1.376,3.355,3.197,4.7,5.132c0.075,0.108,0.408,0.033,0.483,0.142
				c-1.346-1.937-2.771-3.758-4.701-5.134C19.43,29.458,19.203,29.501,19.077,29.411z"/>
			<path opacity="0.1091" fill="#754C24" d="M17.585,30.87c1.924,1.38,3.355,3.199,4.7,5.133c-0.07-0.101,0.139-0.396,0.066-0.498
				c-1.345-1.934-2.775-3.755-4.699-5.134C17.712,30.414,17.517,30.821,17.585,30.87z"/>
			<path opacity="0.1091" fill="#754C24" d="M18.37,32.056c1.923,1.382,3.354,3.2,4.702,5.133c0.072,0.104,0.414,0.021,0.487,0.124
				c-1.345-1.935-2.776-3.755-4.7-5.136C18.731,32.085,18.495,32.146,18.37,32.056z"/>
			<path opacity="0.1091" fill="#754C24" d="M19.365,30.781c0.795,0.188,1.241,0.68,1.83,1.231c1.222,1.149,2.221,2.407,3.209,3.753
				c0.069,0.097,0.431-0.016,0.496,0.08c-1.236-1.811-3.156-5.104-5.602-5.563C19.351,30.293,19.308,30.768,19.365,30.781z"/>
			<path opacity="0.1091" fill="#754C24" d="M17.264,30.164c2.261,0.488,4.126,3.572,5.302,5.262
				c-0.027-0.04,0.336-0.355,0.306-0.398c-1.175-1.689-3.041-4.775-5.302-5.264C17.499,29.749,17.333,30.178,17.264,30.164z"/>
			<path opacity="0.1091" fill="#754C24" d="M18.013,29.9c0.633-0.102,1.657,1.051,2.036,1.408c1.319,1.244,2.339,2.566,3.383,4.04
				c-0.011-0.016,0.372-0.329,0.346-0.364c-1.088-1.486-2.158-2.804-3.464-4.105C19.479,30.05,19.193,29.708,18.013,29.9z"/>
			<path opacity="0.1091" fill="#754C24" d="M19.084,31.441c2.267,0.5,4.125,3.566,5.307,5.268
				c-0.036-0.053,0.309-0.371,0.271-0.425c-1.184-1.701-3.041-4.769-5.31-5.268C19.296,31.004,19.138,31.454,19.084,31.441z"/>
			<path opacity="0.1091" fill="#754C24" d="M17.797,31.462c1.922,1.382,3.354,3.201,4.7,5.134
				c-0.093-0.133-0.074-0.342-0.166-0.475c-1.347-1.933-2.776-3.754-4.7-5.134C17.74,31.066,17.683,31.381,17.797,31.462z"/>
		</g>
	</g>
</g>
<g>
	<g>
		<g>
			<path opacity="0.1091" fill="#754C24" d="M18.439,29.162c0.716,0.459,1.431,0.919,2.147,1.378
				c1.279,1.124,2.408,2.381,3.393,3.771c0.036,0.047,0.442-0.208,0.473-0.169c-0.532-0.667-1.066-1.334-1.6-2.001
				c-1.093-1.323-2.407-2.373-3.939-3.147C18.822,28.935,18.52,29.214,18.439,29.162z"/>
			<path opacity="0.1091" fill="#754C24" d="M16.82,28.035c0.854,0.654,1.752,1.244,2.695,1.769
				c1.268,1.104,2.389,2.339,3.364,3.707c0.046,0.055,0.43-0.271,0.377-0.335c-1.939-2.389-3.747-4.46-6.701-5.568
				C16.676,27.651,16.712,27.955,16.82,28.035z"/>
			<path opacity="0.1091" fill="#754C24" d="M17.512,26.792c0.715,0.46,1.431,0.918,2.146,1.377c1.279,1.123,2.408,2.38,3.392,3.77
				c0.031,0.038,0.438-0.229,0.463-0.197c-0.534-0.667-1.066-1.334-1.601-2.001c-1.092-1.323-2.405-2.371-3.936-3.145
				C17.891,26.542,17.586,26.841,17.512,26.792z"/>
			<path opacity="0.1091" fill="#754C24" d="M17.643,27.717c2.523,1.327,4.302,3.148,6.015,5.313
				c0.176,0.221,0.489-0.184,0.385-0.314c-1.924-2.431-3.542-4.155-6.349-5.499C17.747,27.24,17.589,27.688,17.643,27.717z"/>
			<path opacity="0.1091" fill="#754C24" d="M18.394,26.51c0.717,0.458,1.432,0.918,2.148,1.377
				c1.279,1.123,2.409,2.378,3.391,3.768c0.087,0.109,0.4,0.036,0.484,0.14c-0.534-0.667-1.067-1.334-1.602-2.001
				c-1.093-1.322-2.405-2.371-3.938-3.144C18.741,26.561,18.528,26.596,18.394,26.51z"/>
			<path opacity="0.1091" fill="#754C24" d="M16.901,27.969c0.715,0.459,1.431,0.919,2.146,1.378c1.278,1.124,2.409,2.38,3.392,3.77
				c-0.071-0.087,0.141-0.405,0.066-0.498c-0.533-0.668-1.067-1.335-1.601-2.002c-1.093-1.323-2.405-2.371-3.936-3.146
				C17.023,27.506,16.837,27.927,16.901,27.969z"/>
			<path opacity="0.1091" fill="#754C24" d="M17.688,29.156c0.715,0.459,1.431,0.919,2.146,1.38
				c1.278,1.124,2.408,2.381,3.392,3.769c0.084,0.106,0.406,0.02,0.488,0.121c-0.533-0.667-1.067-1.335-1.6-2.002
				c-1.094-1.323-2.407-2.372-3.938-3.147C18.041,29.189,17.819,29.24,17.688,29.156z"/>
			<path opacity="0.1091" fill="#754C24" d="M18.351,27.545c0.976,0.538,1.924,1.124,2.841,1.758
				c1.268,1.106,2.389,2.347,3.362,3.719c0.023,0.029,0.381-0.313,0.325-0.385c-1.944-2.393-3.734-4.307-6.595-5.59
				C18.367,27.084,18.268,27.498,18.351,27.545z"/>
			<path opacity="0.1091" fill="#754C24" d="M17.224,27.416c0.724,0.463,1.449,0.927,2.173,1.389c1.424,0.963,2.53,2.206,3.318,3.73
				c-0.02-0.028,0.342-0.364,0.315-0.393c-0.627-0.678-1.254-1.354-1.881-2.033c-0.966-1.385-2.216-2.439-3.747-3.164
				C17.419,26.957,17.184,27.392,17.224,27.416z"/>
			<path opacity="0.1091" fill="#754C24" d="M16.998,26.665c1.026,0.66,2.054,1.314,3.085,1.965
				c1.273,1.107,2.399,2.351,3.377,3.728c0.033,0.042,0.378-0.313,0.307-0.398c-1.713-2.106-3.522-4.547-6.269-5.339
				C17.371,26.583,17.106,26.734,16.998,26.665z"/>
			<path opacity="0.1091" fill="#754C24" d="M18.068,28.205c2.745,1.377,4.512,3.166,6.409,5.536
				c0.017,0.021,0.419-0.273,0.431-0.26c-1.969-2.408-3.747-4.295-6.568-5.701C18.323,27.772,18.083,28.212,18.068,28.205z"/>
			<path opacity="0.1091" fill="#754C24" d="M17.113,28.563c0.715,0.459,1.431,0.919,2.145,1.379
				c1.279,1.122,2.409,2.379,3.391,3.769c-0.097-0.122-0.065-0.351-0.165-0.475c-0.534-0.667-1.067-1.335-1.6-2.002
				c-1.093-1.323-2.406-2.372-3.938-3.146C17.055,28.155,17,28.489,17.113,28.563z"/>
		</g>
	</g>
</g>
<g>
	<g>
		<g>
			<path opacity="0.1091" fill="#754C24" d="M17.775,26.155c1.337,0.908,2.654,1.743,3.901,2.773c1.463,1.21,2.333,3.23,3.159,4.875
				c0.011,0.021,0.467-0.186,0.475-0.169c-0.916-1.821-1.845-3.312-3.158-4.874c-0.976-1.159-2.666-1.934-3.903-2.774
				C18.165,25.93,17.855,26.211,17.775,26.155z"/>
			<path opacity="0.1091" fill="#754C24" d="M17.092,25.499c1.101,0.947,2.303,1.684,3.421,2.612
				c1.535,1.273,2.483,3.36,3.408,5.068c-0.031-0.058,0.313-0.339,0.27-0.425c-0.973-1.885-1.978-3.423-3.361-5.034
				c-1.003-1.168-2.696-1.913-4.002-2.649C16.953,25.143,16.98,25.404,17.092,25.499z"/>
			<path opacity="0.1091" fill="#754C24" d="M16.85,23.793c1.337,0.903,2.652,1.734,3.897,2.763
				c1.464,1.208,2.333,3.233,3.162,4.877c0.006,0.012,0.458-0.204,0.462-0.196c-0.916-1.822-1.845-3.314-3.16-4.878
				c-0.975-1.156-2.663-1.928-3.897-2.762C17.238,23.545,16.925,23.844,16.85,23.793z"/>
			<path opacity="0.1091" fill="#754C24" d="M17.917,25.181c0.763,0.57,1.552,1.098,2.371,1.582c2,1.705,3.542,3.727,4.627,6.06
				c-0.02-0.035,0.351-0.319,0.306-0.399c-1.04-1.897-2.05-3.448-3.453-5.066c-0.981-1.131-2.562-1.872-3.798-2.675
				C18.035,24.723,17.852,25.134,17.917,25.181z"/>
			<path opacity="0.1091" fill="#754C24" d="M17.73,23.511c1.338,0.902,2.655,1.734,3.902,2.763
				c1.464,1.207,2.333,3.231,3.159,4.877c0.053,0.103,0.433,0.039,0.484,0.14c-0.917-1.825-1.844-3.315-3.16-4.879
				c-0.975-1.157-2.666-1.928-3.902-2.763C18.081,23.561,17.862,23.599,17.73,23.511z"/>
			<path opacity="0.1091" fill="#754C24" d="M16.243,24.967c1.334,0.906,2.649,1.738,3.893,2.768
				c1.463,1.209,2.334,3.232,3.163,4.877c-0.063-0.124,0.129-0.374,0.066-0.499c-0.918-1.821-1.847-3.314-3.162-4.876
				c-0.974-1.157-2.66-1.93-3.894-2.769C16.371,24.51,16.18,24.924,16.243,24.967z"/>
			<path opacity="0.1091" fill="#754C24" d="M17.024,26.149c1.336,0.91,2.653,1.744,3.899,2.775c1.461,1.209,2.333,3.229,3.16,4.874
				c0.05,0.098,0.44,0.023,0.489,0.12c-0.918-1.821-1.847-3.313-3.16-4.875c-0.976-1.158-2.663-1.934-3.899-2.773
				C17.383,26.182,17.155,26.237,17.024,26.149z"/>
			<path opacity="0.1091" fill="#754C24" d="M18.625,25.01c0.746,0.599,1.532,1.138,2.361,1.615c2.168,1.37,3.408,3.884,4.674,6.028
				c-0.073-0.124,0.048-0.366-0.016-0.502c-0.554-1.204-1.008-2.407-1.889-3.432c-1.584-1.839-3.153-2.938-5.198-4.209
				C18.649,24.567,18.533,24.941,18.625,25.01z"/>
			<path opacity="0.1091" fill="#754C24" d="M16.522,24.392c1.29,0.872,2.558,1.671,3.758,2.666c1.503,1.25,2.416,3.272,3.285,4.965
				c-0.029-0.057,0.354-0.328,0.324-0.386c-0.977-1.854-1.956-3.395-3.319-4.99c-0.951-1.112-2.543-1.845-3.741-2.654
				C16.818,23.985,16.529,24.396,16.522,24.392z"/>
			<path opacity="0.1091" fill="#754C24" d="M17.272,24.129c0.833,0.69,1.717,1.307,2.652,1.851c2.03,1.647,3.537,3.641,4.522,5.98
				c-0.013-0.023,0.393-0.292,0.361-0.35c-1.055-1.867-2.032-3.438-3.419-5.048c-0.937-1.088-2.396-1.773-3.615-2.478
				C17.66,24.019,17.371,24.204,17.272,24.129z"/>
			<path opacity="0.1091" fill="#754C24" d="M18.342,25.67c1.284,0.869,2.546,1.663,3.741,2.656
				c1.512,1.255,2.435,3.295,3.321,4.989c-0.038-0.072,0.311-0.348,0.271-0.424c-0.962-1.86-1.938-3.386-3.302-4.977
				c-0.957-1.119-2.558-1.856-3.761-2.669C18.613,25.246,18.336,25.665,18.342,25.67z"/>
			<path opacity="0.1091" fill="#754C24" d="M16.453,25.558c0.87,0.61,1.757,1.194,2.661,1.749c2.101,1.336,3.328,3.781,4.396,5.896
				c-0.074-0.147-0.09-0.325-0.164-0.475c-1.156-2.291-0.537-1.193-1.901-3.377c-1.219-1.952-3.319-3.019-5.156-4.269
				C16.399,25.159,16.342,25.481,16.453,25.558z"/>
		</g>
	</g>
</g>
<g>
	<g>
		<g>
			<path opacity="0.1091" fill="#754C24" d="M18.594,24.244c3.638,1.326,5.896,4.797,7.958,7.882c0.024,0.036,0.452-0.2,0.475-0.168
				c-2.062-3.086-4.318-6.557-7.959-7.883C18.944,24.031,18.713,24.287,18.594,24.244z"/>
			<path opacity="0.1091" fill="#754C24" d="M17.909,23.589c3.441,1.547,5.66,4.93,7.738,7.91c-0.042-0.061,0.266-0.377,0.213-0.455
				c-2.109-3.124-4.413-6.773-8.215-7.883C17.764,23.196,17.79,23.535,17.909,23.589z"/>
			<path opacity="0.1091" fill="#754C24" d="M17.669,21.88c3.642,1.317,5.896,4.792,7.955,7.876c0.02,0.027,0.447-0.222,0.464-0.197
				c-2.06-3.083-4.314-6.558-7.956-7.875C18.016,21.641,17.783,21.921,17.669,21.88z"/>
			<path opacity="0.1091" fill="#754C24" d="M18.737,23.27c3.583,1.234,5.826,4.908,7.886,7.866c-0.027-0.04,0.318-0.36,0.275-0.421
				c-2.087-2.992-4.466-6.692-8.111-7.946C18.822,22.779,18.698,23.256,18.737,23.27z"/>
			<path opacity="0.1091" fill="#754C24" d="M18.562,21.602c3.653,1.322,5.897,4.802,7.945,7.871
				c0.072,0.108,0.414,0.033,0.483,0.139c-2.065-3.096-4.318-6.561-7.97-7.879C18.889,21.685,18.646,21.632,18.562,21.602z"/>
			<path opacity="0.1091" fill="#754C24" d="M17.061,23.055c3.637,1.322,5.894,4.796,7.953,7.879
				c-0.069-0.104,0.139-0.394,0.067-0.5c-2.06-3.081-4.315-6.555-7.953-7.878C17.159,22.567,17.024,23.041,17.061,23.055z"/>
			<path opacity="0.1091" fill="#754C24" d="M17.844,24.238c3.638,1.327,5.896,4.799,7.956,7.883
				c0.069,0.104,0.421,0.018,0.488,0.12c-2.061-3.084-4.318-6.557-7.956-7.883C18.176,24.301,18,24.295,17.844,24.238z"/>
			<path opacity="0.1091" fill="#754C24" d="M19.444,23.098c3.517,1.333,5.798,4.936,7.848,7.863
				c-0.059-0.083,0.195-0.391,0.131-0.485c-2.055-3.071-4.354-6.673-8.045-7.876C19.444,22.62,19.369,23.069,19.444,23.098z"/>
			<path opacity="0.1091" fill="#754C24" d="M17.341,22.479c3.611,1.307,5.869,4.789,7.915,7.842
				c-0.014-0.021,0.383-0.321,0.368-0.342c-2.06-3.01-4.349-6.64-7.977-7.9C17.595,22.062,17.386,22.494,17.341,22.479z"/>
			<path opacity="0.1091" fill="#754C24" d="M18.09,22.214c3.592,1.731,5.833,4.776,8.041,8.04
				c-0.002-0.002,0.401-0.301,0.383-0.325c-1.578-2.251-3.102-4.282-5.096-6.185c-0.869-0.827-1.651-1.369-2.826-1.575
				C18.453,22.146,18.212,22.273,18.09,22.214z"/>
			<path opacity="0.1091" fill="#754C24" d="M19.162,23.758c3.611,1.267,5.898,4.867,7.948,7.873
				c-0.032-0.049,0.313-0.362,0.275-0.422c-2.055-3.017-4.338-6.6-7.952-7.876C19.393,23.319,19.193,23.77,19.162,23.758z"/>
			<path opacity="0.1091" fill="#754C24" d="M17.272,23.646c3.637,1.324,5.894,4.798,7.953,7.879
				c-0.09-0.134-0.075-0.339-0.166-0.475c-2.06-3.081-4.316-6.557-7.954-7.88C17.205,23.207,17.17,23.608,17.272,23.646z"/>
		</g>
	</g>
</g>
<g>
	<g>
		<g>
			<path opacity="0.1091" fill="#754C24" d="M19.374,22.566c0.663,0.129,1.053,0.398,1.601,0.785
				c2.922,2.064,5.014,4.409,6.904,7.41c0.021,0.036,0.456-0.195,0.473-0.167c-1.252-1.991-2.577-3.618-4.211-5.308
				c-0.725-0.745-2.843-2.608-4.294-2.89C19.706,22.37,19.515,22.594,19.374,22.566z"/>
			<path opacity="0.1091" fill="#754C24" d="M18.691,21.91c0.469,0.024,0.911,0.49,1.285,0.757c2.825,2.018,4.901,4.326,6.771,7.222
				c0.056,0.086,0.474-0.194,0.416-0.284c-1.315-2.023-2.702-3.685-4.402-5.397c-1.243-1.255-2.629-2.357-4.333-2.724
				C18.528,21.505,18.588,21.906,18.691,21.91z"/>
			<path opacity="0.1091" fill="#754C24" d="M18.45,20.204c0.662,0.125,1.049,0.392,1.596,0.777
				c2.926,2.056,5.018,4.411,6.904,7.409c0.017,0.026,0.451-0.216,0.463-0.197c-1.252-1.988-2.577-3.617-4.211-5.305
				c-0.722-0.743-2.839-2.609-4.29-2.88C18.775,19.982,18.587,20.23,18.45,20.204z"/>
			<path opacity="0.1091" fill="#754C24" d="M19.517,21.592c0.547,0.065,0.85,0.321,1.288,0.646c2.962,2.205,4.8,4.162,6.723,7.118
				c0.166,0.258,0.558-0.058,0.447-0.23c-1.232-1.914-2.576-3.964-4.41-5.379c-0.915-0.706-2.552-2.418-3.996-2.655
				C19.574,21.092,19.51,21.592,19.517,21.592z"/>
			<path opacity="0.1091" fill="#754C24" d="M19.812,20.061c0.188,0.035,0.375,0.069,0.563,0.105
				c-0.162-0.047-0.323-0.094-0.483-0.14c3.383,2.023,5.865,4.782,7.94,8.079c0.069,0.109,0.419,0.037,0.484,0.14
				c-1.253-1.988-2.577-3.616-4.213-5.304c0.21,0.216-2.774-2.473-3.742-2.781c-0.347-0.109-0.671-0.171-1.034-0.238
				C19.492,19.953,19.649,20.029,19.812,20.061z"/>
			<path opacity="0.1091" fill="#754C24" d="M17.841,21.377c0.662,0.126,1.049,0.395,1.594,0.781
				c2.923,2.063,5.014,4.408,6.902,7.409c-0.066-0.105,0.139-0.387,0.068-0.498c-1.253-1.989-2.577-3.618-4.212-5.306
				c-0.714-0.736-2.839-2.609-4.284-2.884C17.917,20.88,17.833,21.376,17.841,21.377z"/>
			<path opacity="0.1091" fill="#754C24" d="M19.187,22.67c3.377,2.039,5.86,4.786,7.939,8.088c0.066,0.104,0.426,0.021,0.488,0.119
				c-2.079-3.302-4.562-6.046-7.94-8.088C19.537,22.706,19.322,22.752,19.187,22.67z"/>
			<path opacity="0.1091" fill="#754C24" d="M20.223,21.42c0.665,0.126,1.055,0.395,1.603,0.781c2.74,1.927,4.806,4.418,6.59,7.211
				c0.034,0.056,0.428-0.25,0.369-0.341c-1.296-2.012-2.664-3.66-4.345-5.364c-0.684-0.693-2.883-2.519-4.284-2.785
				C20.207,20.932,20.169,21.411,20.223,21.42z"/>
			<path opacity="0.1091" fill="#754C24" d="M18.122,20.803c0.662,0.125,1.049,0.393,1.596,0.778
				c2.924,2.06,5.015,4.409,6.902,7.409c-0.027-0.045,0.34-0.347,0.307-0.4c-1.253-1.987-2.576-3.616-4.212-5.304
				c-0.719-0.74-2.838-2.609-4.287-2.883C18.352,20.389,18.194,20.817,18.122,20.803z"/>
			<path opacity="0.1091" fill="#754C24" d="M18.871,20.54c0.422-0.09,1.352,0.714,1.683,0.954c2.816,2.039,4.896,4.333,6.763,7.241
				c0.049,0.076,0.438-0.237,0.37-0.342c-1.313-2.019-2.696-3.674-4.391-5.383c-0.978-0.818-1.988-1.591-3.031-2.317
				C19.856,20.286,19.391,20.236,18.871,20.54z"/>
			<path opacity="0.1091" fill="#754C24" d="M19.942,22.081c0.663,0.127,1.053,0.396,1.601,0.783
				c2.871,2.021,4.919,4.306,6.767,7.254c0.03,0.049,0.438-0.241,0.392-0.315c-1.243-1.982-2.558-3.585-4.193-5.257
				c-0.734-0.749-2.841-2.611-4.297-2.889C20.148,21.645,20,22.092,19.942,22.081z"/>
			<path opacity="0.1091" fill="#754C24" d="M18.053,21.968c0.66,0.127,1.049,0.398,1.595,0.783c2.922,2.067,5.012,4.409,6.902,7.41
				c-0.086-0.137-0.077-0.337-0.165-0.475c-1.252-1.989-2.577-3.618-4.211-5.306c-0.716-0.737-2.841-2.609-4.287-2.887
				C17.97,21.51,17.97,21.953,18.053,21.968z"/>
		</g>
	</g>
</g>
<g>
	<g>
		<g>
			<path opacity="0.1091" fill="#754C24" d="M19.101,20.11c4.108,1.003,6.341,3.831,8.036,7.572
				c0.009,0.019,0.471-0.176,0.475-0.168c-1.696-3.741-3.93-6.569-8.037-7.573C19.437,19.908,19.235,20.143,19.101,20.11z"/>
			<path opacity="0.1091" fill="#754C24" d="M18.418,19.454c3.75,1.06,5.793,3.541,7.543,7.308c0.061,0.129,0.471-0.153,0.399-0.306
				c-0.578-1.233-1.268-2.984-2.285-3.957c-0.837-0.959-1.794-1.772-2.869-2.438c-0.917-0.634-1.936-0.979-3.053-1.035
				C18.265,19.048,18.302,19.422,18.418,19.454z"/>
			<path opacity="0.1091" fill="#754C24" d="M18.176,17.747c4.109,0.99,6.339,3.824,8.033,7.56c0.003,0.01,0.464-0.193,0.463-0.196
				c-1.694-3.736-3.924-6.57-8.032-7.562C18.507,17.517,18.306,17.777,18.176,17.747z"/>
			<path opacity="0.1091" fill="#754C24" d="M19.245,19.135c3.726,0.839,5.815,3.547,7.311,6.987
				c0.137,0.317,0.708,0.244,0.574-0.063c-1.588-3.628-3.83-6.505-7.834-7.423C19.314,18.64,19.223,19.131,19.245,19.135z"/>
			<path opacity="0.1091" fill="#754C24" d="M19.527,17.6c0.494,0.119,0.988,0.238,1.482,0.357
				c-0.156-0.046-0.313-0.091-0.471-0.137c0.981,0.425,1.892,0.967,2.731,1.626c1.927,1.329,2.899,3.542,3.823,5.578
				c0.047,0.104,0.439,0.045,0.482,0.14c-1.367-3.019-3.237-6.052-6.564-7.209c-0.61-0.212-1.378-0.353-1.942-0.489
				C19.156,17.487,19.391,17.568,19.527,17.6z"/>
			<path opacity="0.1091" fill="#754C24" d="M17.568,18.921c4.105,0.998,6.334,3.831,8.029,7.565
				c-0.059-0.126,0.126-0.367,0.066-0.498c-1.694-3.736-3.922-6.569-8.029-7.566C17.65,18.425,17.549,18.917,17.568,18.921z"/>
			<path opacity="0.1091" fill="#754C24" d="M18.595,20.165c4.041,0.995,6.161,3.923,7.789,7.512c0.046,0.098,0.448,0.03,0.488,0.12
				c-0.521-1.445-1.257-2.77-2.206-3.975c-1.016-1.527-2.778-2.427-4.345-3.235c-0.398-0.207-2.371-0.582-1.918-0.471
				C18.251,20.079,18.588,20.164,18.595,20.165z"/>
			<path opacity="0.1091" fill="#754C24" d="M19.951,18.963c3.796,0.919,5.76,3.175,7.704,7.331
				c0.035,0.074,0.441-0.203,0.384-0.325c-1.75-3.651-4.017-6.587-8.154-7.503C19.938,18.478,19.89,18.948,19.951,18.963z"/>
			<path opacity="0.1091" fill="#754C24" d="M17.848,18.345c4.001,0.988,6.217,3.745,7.902,7.386
				c0.021,0.044,0.467-0.186,0.436-0.252c-1.71-3.581-3.987-6.649-8.032-7.532C18.083,17.931,17.912,18.361,17.848,18.345z"/>
			<path opacity="0.1091" fill="#754C24" d="M18.598,18.083c1.046,0.271,2.029,0.689,2.95,1.255
				c2.375,1.583,4.022,3.662,4.941,6.232c0.098,0.216,0.451-0.167,0.396-0.282c-1.506-3.244-3.865-6.907-7.787-7.25
				C18.951,18.025,18.734,18.129,18.598,18.083z"/>
			<path opacity="0.1091" fill="#754C24" d="M19.669,19.624c3.992,0.955,6.212,3.759,7.884,7.374
				c0.028,0.065,0.458-0.19,0.409-0.292c-1.715-3.604-3.987-6.583-8.023-7.506C19.881,19.187,19.719,19.636,19.669,19.624z"/>
			<path opacity="0.1091" fill="#754C24" d="M17.779,19.512c4.112,1.002,6.28,3.712,8.024,7.558
				c-0.036-0.081-0.096-0.325-0.154-0.451c-1.676-3.696-3.923-6.579-8.034-7.581C17.7,19.058,17.689,19.49,17.779,19.512z"/>
		</g>
	</g>
</g>
<g>
	<g>
		<g>
			<path opacity="0.1091" fill="#754C24" d="M19.139,17.769c1.657,0.104,2.763,0.846,4.086,1.801
				c2.438,1.759,4.073,3.964,5.589,6.512c0.02,0.033,0.461-0.191,0.475-0.167c-1.549-2.604-3.198-4.632-5.591-6.514
				c-1.264-0.995-2.469-1.7-4.084-1.801C19.459,17.592,19.293,17.779,19.139,17.769z"/>
			<path opacity="0.1091" fill="#754C24" d="M18.457,17.114c1.446,0.031,2.548,0.9,3.679,1.724c2.394,1.744,4.028,3.87,5.539,6.375
				c0.057,0.093,0.467-0.196,0.4-0.306c-2.089-3.429-5.467-7.966-9.882-8.222C18.284,16.691,18.36,17.112,18.457,17.114z"/>
			<path opacity="0.1091" fill="#754C24" d="M18.215,15.406c1.655,0.099,2.76,0.839,4.083,1.791
				c2.438,1.758,4.073,3.964,5.589,6.513c0.014,0.023,0.454-0.212,0.463-0.198c-1.548-2.602-3.196-4.631-5.59-6.511
				c-1.263-0.992-2.467-1.695-4.081-1.791C18.528,15.2,18.364,15.415,18.215,15.406z"/>
			<path opacity="0.1091" fill="#754C24" d="M19.283,16.795c1.188,0.025,1.873,0.397,2.888,1.006c2.774,1.661,4.64,4.183,6.232,6.9
				c0.167,0.286,0.564-0.05,0.438-0.265c-1.861-3.167-5.354-7.902-9.507-8.142C19.322,16.293,19.292,16.795,19.283,16.795z"/>
			<path opacity="0.1091" fill="#754C24" d="M19.578,15.263c0.333,0.019,0.666,0.04,0.998,0.06c-0.161-0.047-0.323-0.093-0.483-0.14
				c3.893,1.509,6.603,4.754,8.676,8.244c0.065,0.108,0.424,0.039,0.483,0.14c-2.117-3.563-5.566-8.17-10.158-8.443
				C19.258,15.132,19.415,15.253,19.578,15.263z"/>
			<path opacity="0.1091" fill="#754C24" d="M17.607,16.58c1.655,0.101,2.758,0.842,4.079,1.795
				c2.438,1.759,4.074,3.964,5.589,6.512c-0.065-0.109,0.136-0.382,0.066-0.498c-1.548-2.603-3.197-4.63-5.588-6.513
				c-1.262-0.992-2.466-1.697-4.08-1.795C17.66,16.081,17.617,16.582,17.607,16.58z"/>
			<path opacity="0.1091" fill="#754C24" d="M18.879,17.884c0.332,0.021,0.664,0.042,0.997,0.063
				c-0.164-0.04-0.326-0.08-0.489-0.121c3.875,1.51,6.599,4.763,8.675,8.252c0.062,0.104,0.431,0.021,0.489,0.119
				c-2.136-3.589-5.562-8.148-10.161-8.434C18.554,17.775,18.713,17.875,18.879,17.884z"/>
			<path opacity="0.1091" fill="#754C24" d="M19.991,16.623c1.539,0.063,2.586,0.815,3.803,1.705
				c2.403,1.757,4.043,3.891,5.559,6.411c0.033,0.055,0.422-0.252,0.361-0.35c-1.604-2.616-3.313-4.605-5.718-6.522
				c-1.271-1.013-2.443-1.662-4.073-1.742C19.949,16.126,19.956,16.622,19.991,16.623z"/>
			<path opacity="0.1091" fill="#754C24" d="M17.887,16.004c1.655,0.1,2.76,0.84,4.082,1.794c2.396,1.729,3.987,3.863,5.476,6.373
				c0.02,0.033,0.444-0.234,0.416-0.282c-1.539-2.597-3.201-4.614-5.586-6.489c-1.262-0.992-2.468-1.697-4.082-1.793
				C18.097,15.6,17.978,16.01,17.887,16.004z"/>
			<path opacity="0.1091" fill="#754C24" d="M18.637,15.74c0.96-0.17,2.412,0.808,3.167,1.261c2.544,1.528,5.369,5.28,6.441,7.067
				c0.049,0.081,0.413-0.249,0.337-0.374c-1.426-2.353-2.859-4.039-4.908-5.875c-0.546-0.453-1.108-0.883-1.691-1.287
				C20.787,15.657,20.063,15.487,18.637,15.74z"/>
			<path opacity="0.1091" fill="#754C24" d="M19.708,17.285c1.621,0.091,2.686,0.804,3.976,1.744
				c2.404,1.752,4.045,3.895,5.562,6.413c0.03,0.048,0.436-0.241,0.385-0.324c-1.603-2.62-3.31-4.619-5.718-6.537
				c-1.214-0.966-2.372-1.661-3.935-1.72C19.891,16.855,19.787,17.289,19.708,17.285z"/>
			<path opacity="0.1091" fill="#754C24" d="M17.817,17.172c1.656,0.101,2.76,0.842,4.081,1.797c2.436,1.76,4.072,3.964,5.589,6.512
				c-0.083-0.14-0.082-0.332-0.166-0.475c-1.548-2.603-3.197-4.63-5.588-6.512c-1.263-0.994-2.467-1.699-4.081-1.798
				C17.715,16.701,17.751,17.168,17.817,17.172z"/>
		</g>
	</g>
</g>
<g>
	<g>
		<g>
			<path opacity="0.1091" fill="#754C24" d="M20.705,15.377c0.078-0.039,0.154-0.078,0.23-0.116
				c-0.158,0.055-0.317,0.112-0.475,0.169c4.401,0.678,6.861,4.22,8.674,8c-0.029-0.06,0.341-0.32,0.304-0.401
				c-0.557-1.537-1.345-2.943-2.364-4.22c-0.994-1.226-2.205-2.173-3.636-2.84c-0.708-0.432-1.7-0.584-2.503-0.707
				c-0.173-0.028-0.552,0.208-0.703,0.285C20.379,15.47,20.557,15.452,20.705,15.377z"/>
			<path opacity="0.1091" fill="#754C24" d="M19.55,14.89c0.066-0.179,0.134-0.357,0.202-0.536c-0.09,0.137-0.18,0.273-0.269,0.41
				c4.004,0.709,6.654,4.147,8.423,7.626c0.031,0.06,0.486-0.152,0.467-0.188c-0.627-1.209-1.588-3.337-2.621-4.325
				c-2.251-2.155-1.08-1.25-3.761-2.891c-0.766-0.469-1.842-0.745-2.708-0.523C19.285,14.462,19.56,14.864,19.55,14.89z"/>
			<path opacity="0.1091" fill="#754C24" d="M19.771,12.987c0.072-0.039,0.144-0.076,0.216-0.115
				c-0.151,0.064-0.302,0.126-0.453,0.19c4.317,0.649,6.864,4.058,8.547,7.839c0.002,0.005,0.463-0.197,0.463-0.197
				c-1.683-3.781-4.23-7.19-8.546-7.839c-0.152-0.022-0.566,0.252-0.689,0.318C19.455,13.104,19.624,13.066,19.771,12.987z"/>
			<path opacity="0.1091" fill="#754C24" d="M20.375,14.572c0.382-0.285,0.995,0.028,1.4,0.141c3.35,0.941,5.08,4.293,6.818,7.021
				c0.159,0.25,0.576-0.001,0.467-0.192c-0.721-1.39-1.542-2.717-2.462-3.984c-0.941-1.403-2.317-2.079-3.688-2.941
				c-0.554-0.349-1.886-0.875-2.483-0.544C20.338,14.121,20.458,14.51,20.375,14.572z"/>
			<path opacity="0.1091" fill="#754C24" d="M20.67,13.041c1.265-0.673,3.956,1.667,4.472,2.039
				c1.938,1.394,2.932,3.635,3.853,5.729c0.005,0.01,0.463-0.198,0.46-0.204c-1.616-3.367-3.482-6.27-7.204-7.399
				c-0.575-0.174-1.506-0.602-2.064-0.304C20.294,12.845,20.563,13.096,20.67,13.041z"/>
			<path opacity="0.1091" fill="#754C24" d="M18.702,14.357c0.634-0.339,1.694,0.211,2.325,0.422c3.303,1.102,5.132,4.359,6.443,7.3
				c-0.058-0.128,0.126-0.367,0.066-0.498c-0.525-1.528-1.299-2.918-2.321-4.169c-1.033-1.253-2.275-2.242-3.726-2.969
				c-0.582-0.371-2.097-0.915-2.723-0.584C18.68,13.905,18.787,14.312,18.702,14.357z"/>
			<path opacity="0.1091" fill="#754C24" d="M20.185,15.542c4.165,0.645,6.501,4.2,8.072,7.727c0.043,0.097,0.448,0.028,0.488,0.12
				c-1.5-3.371-3.516-6.317-7.159-7.539c-0.619-0.208-1.225-0.326-1.864-0.424C19.809,15.439,20.047,15.521,20.185,15.542z"/>
			<path opacity="0.1091" fill="#754C24" d="M21.083,14.4c0.364-0.281,1.049,0.054,1.43,0.16c3.637,1.012,5.59,4.301,7.085,7.376
				c0.013,0.026,0.471-0.173,0.478-0.158c-1.065-2.116-2.232-4.749-4.369-6.058c-0.878-0.539-3.397-2.432-4.691-1.819
				C20.957,13.93,21.134,14.36,21.083,14.4z"/>
			<path opacity="0.1091" fill="#754C24" d="M18.98,13.783c0.832,0.011,1.44,0.146,2.283,0.435c3.337,1.144,5.104,4.364,6.511,7.31
				c-0.016-0.033,0.381-0.292,0.348-0.364c-0.586-1.592-1.428-3.031-2.526-4.32c-1.085-1.257-2.376-2.245-3.873-2.965
				c-0.716-0.439-1.63-0.605-2.436-0.496C19.178,13.398,19.084,13.784,18.98,13.783z"/>
			<path opacity="0.1091" fill="#754C24" d="M20.23,13.476c0.013,0.21,1.629,0.58,1.822,0.648c3.224,1.125,4.933,4.281,6.405,7.078
				c0.032,0.058,0.468-0.192,0.428-0.266c-1.932-3.547-4.438-7.286-8.757-7.809c0.568,0.069-0.78,0.428-0.264,0.383
				C19.884,13.507,20.23,13.48,20.23,13.476z"/>
			<path opacity="0.1091" fill="#754C24" d="M20.8,15.061c0.692-0.263,1.594,0.198,2.256,0.423c3.34,1.141,5.103,4.374,6.531,7.311
				c-0.022-0.044,0.368-0.306,0.335-0.375c-0.607-1.581-1.453-3.021-2.537-4.32c-1.074-1.253-2.355-2.235-3.844-2.95
				c-0.491-0.3-2.005-0.92-2.472-0.515C20.971,14.723,20.917,15.016,20.8,15.061z"/>
			<path opacity="0.1091" fill="#754C24" d="M18.911,14.948c0.639-0.335,1.694,0.213,2.328,0.425
				c2.502,0.837,4.082,3.037,5.495,5.089c-0.075-0.145-0.149-0.291-0.225-0.436c0.386,0.885,0.773,1.768,1.161,2.65
				c-0.066-0.151-0.073-0.33-0.143-0.481c-0.066-0.144-0.643-1.615-1.016-2.17c-1.46-2.165-2.928-4.097-5.44-5.127
				c-0.595-0.244-1.717-0.745-2.327-0.425C18.724,14.485,18.933,14.937,18.911,14.948z"/>
		</g>
	</g>
</g>
<g>
	<g>
		<g>
			<path opacity="0.1091" fill="#754C24" d="M19.139,12.543c1.667,0.148,3.229,0.628,4.691,1.442c2.286,0.98,3.84,3.225,5.218,5.154
				c0.029,0.042,0.45-0.202,0.474-0.168c-0.854-1.437-1.921-2.692-3.2-3.769c-1.818-1.808-4.314-2.358-6.707-2.828
				C19.47,12.346,19.279,12.57,19.139,12.543z"/>
			<path opacity="0.1091" fill="#754C24" d="M18.457,11.887c1.535,0.18,2.98,0.646,4.334,1.399c2.2,0.945,3.743,3.113,5.086,4.963
				c0.078,0.105,0.468-0.212,0.382-0.328c-0.869-1.427-1.955-2.666-3.259-3.715c-1.924-1.844-4.302-2.317-6.807-2.748
				C18.301,11.479,18.344,11.863,18.457,11.887z"/>
			<path opacity="0.1091" fill="#754C24" d="M18.215,10.18c1.665,0.144,3.228,0.623,4.688,1.435c2.288,0.979,3.84,3.222,5.217,5.152
				c0.025,0.033,0.446-0.223,0.464-0.198c-0.855-1.437-1.923-2.694-3.201-3.769c-1.817-1.805-4.312-2.353-6.703-2.818
				C18.54,9.956,18.351,10.207,18.215,10.18z"/>
			<path opacity="0.1091" fill="#754C24" d="M19.283,11.568c1.59,0.122,3.08,0.576,4.47,1.359c2.063,1.191,3.683,2.794,4.855,4.811
				c0.19,0.27,0.58-0.068,0.438-0.267c-1.004-1.413-1.694-2.634-3.16-3.656c-0.649-0.451-1.299-0.904-1.947-1.355
				c-1.432-0.8-2.966-1.265-4.603-1.392C19.347,11.07,19.268,11.565,19.283,11.568z"/>
			<path opacity="0.1091" fill="#754C24" d="M19.578,10.036c0.81,0.158,1.62,0.314,2.431,0.472
				c-0.158-0.046-0.314-0.091-0.471-0.137c1.575,0.5,2.996,1.282,4.265,2.343c1.28,1.076,2.346,2.332,3.201,3.769
				c0.077,0.109,0.408,0.036,0.483,0.14c-1.974-2.766-4.139-5.117-7.516-6.13c-0.954-0.285-1.816-0.39-2.876-0.595
				C19.258,9.928,19.415,10.004,19.578,10.036z"/>
			<path opacity="0.1091" fill="#754C24" d="M17.607,11.354c1.664,0.146,3.226,0.625,4.685,1.438
				c2.287,0.98,3.839,3.225,5.217,5.153c-0.069-0.097,0.14-0.396,0.066-0.498c-0.855-1.437-1.922-2.694-3.2-3.771
				c-1.816-1.805-4.31-2.354-6.7-2.821C17.682,10.857,17.596,11.351,17.607,11.354z"/>
			<path opacity="0.1091" fill="#754C24" d="M18.879,12.658c0.808,0.159,1.618,0.317,2.428,0.476
				c-0.158-0.04-0.317-0.079-0.475-0.118c1.575,0.502,2.997,1.286,4.263,2.349c1.278,1.077,2.345,2.334,3.2,3.771
				c0.076,0.105,0.417,0.018,0.489,0.119c-1.913-2.677-4.158-5.273-7.515-6.133c-0.951-0.243-1.906-0.393-2.879-0.584
				C18.554,12.569,18.714,12.626,18.879,12.658z"/>
			<path opacity="0.1091" fill="#754C24" d="M19.991,11.396c1.587,0.143,3.077,0.605,4.468,1.384
				c2.199,0.944,3.75,3.129,5.096,4.975c0.059,0.079,0.44-0.245,0.368-0.343c-0.892-1.439-2-2.687-3.326-3.741
				c-1.894-1.79-4.219-2.318-6.674-2.772C19.971,10.907,19.934,11.386,19.991,11.396z"/>
			<path opacity="0.1091" fill="#754C24" d="M17.887,10.778c1.654,0.155,3.206,0.633,4.657,1.434
				c2.28,0.977,3.886,3.249,5.267,5.169c-0.026-0.037,0.323-0.365,0.284-0.417c-0.938-1.458-2.069-2.743-3.396-3.857
				c-1.804-1.756-4.137-2.305-6.504-2.728C18.117,10.366,17.959,10.793,17.887,10.778z"/>
			<path opacity="0.1091" fill="#754C24" d="M18.637,10.517c4.523,1.186,6.619,2.159,9.802,6.569
				c0.074,0.105,0.432-0.244,0.339-0.371c-1.91-2.602-0.886-1.442-3.243-3.676c-1.845-1.75-3.975-2.311-6.397-2.566
				C18.981,10.456,18.785,10.555,18.637,10.517z"/>
			<path opacity="0.1091" fill="#754C24" d="M19.708,12.057c1.643,0.143,3.185,0.614,4.625,1.416
				c2.219,0.951,3.785,3.157,5.145,5.016c0.042,0.057,0.44-0.249,0.394-0.314c-0.905-1.456-2.025-2.721-3.361-3.797
				c-1.842-1.753-4.137-2.3-6.533-2.745C19.913,11.621,19.765,12.068,19.708,12.057z"/>
			<path opacity="0.1091" fill="#754C24" d="M17.819,11.945c1.664,0.148,3.227,0.627,4.685,1.441
				c2.285,0.98,3.838,3.225,5.217,5.153c-0.093-0.13-0.072-0.343-0.166-0.475c-0.855-1.437-1.923-2.693-3.201-3.769
				c-1.816-1.806-4.309-2.357-6.701-2.825C17.734,11.487,17.733,11.928,17.819,11.945z"/>
		</g>
	</g>
</g>
<g>
	<g>
		<g>
			<path opacity="0.1091" fill="#754C24" d="M21.168,10.358c0.658,0.072,1.282,0.256,1.873,0.553
				c2.385,0.939,3.419,2.578,4.486,4.757c0.011,0.022,0.469-0.18,0.475-0.167c-0.465-1.474-1.307-2.684-2.526-3.629
				c-0.909-0.947-2.564-1.43-3.833-1.682C21.5,10.162,21.308,10.386,21.168,10.358z"/>
			<path opacity="0.1091" fill="#754C24" d="M20.486,9.703c2.638,0.743,4.389,2.159,5.897,5.123c0.043,0.084,0.428-0.222,0.36-0.352
				c-1.375-2.653-0.542-1.517-2.637-3.602c-0.98-0.974-2.556-1.439-3.887-1.597C20.326,9.287,20.375,9.672,20.486,9.703z"/>
			<path opacity="0.1091" fill="#754C24" d="M20.244,7.996c0.656,0.065,1.279,0.246,1.868,0.541
				c2.387,0.932,3.423,2.584,4.487,4.759c0.006,0.012,0.461-0.201,0.462-0.198c-0.463-1.474-1.306-2.684-2.525-3.629
				c-0.912-0.95-2.557-1.427-3.83-1.671C20.569,7.772,20.379,8.021,20.244,7.996z"/>
			<path opacity="0.1091" fill="#754C24" d="M21.311,9.384c2.566,0.305,4.462,1.932,5.689,4.882c0.147,0.311,0.628,0.09,0.502-0.174
				c-0.678-1.429-1.089-2.82-2.597-3.661c-1.331-0.742-2.104-1.293-3.542-1.546C21.374,8.886,21.297,9.381,21.311,9.384z"/>
			<path opacity="0.1091" fill="#754C24" d="M21.607,7.852c3.236,0.619,4.581,2.516,5.875,5.16c0.052,0.105,0.437,0.042,0.483,0.14
				c-0.332-0.681-0.666-1.361-0.998-2.04c-0.903-1.238-2.066-2.143-3.488-2.719c-0.297-0.171-0.639-0.275-0.971-0.376
				c-0.466-0.143-0.883-0.209-1.385-0.304C21.288,7.744,21.442,7.82,21.607,7.852z"/>
			<path opacity="0.1091" fill="#754C24" d="M19.635,9.17c0.655,0.069,1.278,0.25,1.866,0.545c2.386,0.937,3.42,2.582,4.488,4.759
				c-0.06-0.122,0.13-0.371,0.067-0.499c-0.465-1.474-1.308-2.684-2.527-3.629c-0.909-0.945-2.556-1.427-3.826-1.675
				C19.709,8.673,19.624,9.167,19.635,9.17z"/>
			<path opacity="0.1091" fill="#754C24" d="M20.907,10.474c0.313,0.062,0.625,0.125,0.937,0.187
				c-0.159-0.039-0.317-0.079-0.476-0.118c1.03,0.354,1.991,0.852,2.881,1.492c1.219,0.947,2.062,2.155,2.526,3.629
				c0.049,0.1,0.443,0.026,0.488,0.119c-0.333-0.679-0.667-1.359-0.999-2.039c-0.903-1.236-2.066-2.143-3.488-2.718
				c0.209,0.12-0.661-0.298-0.97-0.378c-0.461-0.121-0.918-0.201-1.388-0.295C20.583,10.386,20.742,10.44,20.907,10.474z"/>
			<path opacity="0.1091" fill="#754C24" d="M22.019,9.212c2.716,0.529,4.628,2.326,6.05,5.122c0.022,0.044,0.405-0.253,0.346-0.366
				c-1.41-2.678-0.554-1.522-2.674-3.624c-0.911-0.902-2.523-1.42-3.789-1.63C21.998,8.723,21.963,9.202,22.019,9.212z"/>
			<path opacity="0.1091" fill="#754C24" d="M19.916,8.594c0.664,0.083,1.297,0.273,1.895,0.569c2.327,0.936,3.32,2.479,4.361,4.622
				c0.003,0.006,0.432-0.244,0.404-0.3c-0.495-1.5-1.372-2.725-2.631-3.676c-0.858-0.872-2.496-1.421-3.724-1.612
				C20.143,8.183,19.985,8.609,19.916,8.594z"/>
			<path opacity="0.1091" fill="#754C24" d="M20.665,8.33c0.339,0.123,0.677,0.248,1.016,0.371c2.666,0.85,4.414,2.497,5.243,4.939
				c0.088,0.176,0.392-0.246,0.343-0.34c-0.708-1.388-1.182-2.828-2.664-3.647c-1.605-0.889-2.179-1.512-3.924-1.326
				C20.673,8.328,20.669,8.328,20.665,8.33z"/>
			<path opacity="0.1091" fill="#754C24" d="M21.736,9.873c3.019,0.617,4.787,2.257,6.224,5.163c0.02,0.036,0.425-0.241,0.374-0.338
				c-1.39-2.693-0.527-1.519-2.654-3.651c-0.853-0.854-2.463-1.395-3.674-1.597C21.941,9.438,21.794,9.885,21.736,9.873z"/>
			<path opacity="0.1091" fill="#754C24" d="M19.847,9.761c3.107,0.612,4.892,2.325,6.354,5.307
				c-0.074-0.148-0.093-0.325-0.167-0.475c-1.315-2.687-0.478-1.498-2.525-3.629c-0.908-0.944-2.56-1.427-3.827-1.677
				C19.762,9.303,19.761,9.744,19.847,9.761z"/>
		</g>
	</g>
</g>
<g>
	<g>
		<g>
			<path opacity="0.1091" fill="#754C24" d="M22.182,7.824c2.714,1.15,4.208,2.467,5.657,5.036c0.015,0.027,0.461-0.191,0.473-0.169
				c-1.449-2.569-2.942-3.885-5.655-5.036C22.54,7.605,22.294,7.872,22.182,7.824z"/>
			<path opacity="0.1091" fill="#754C24" d="M21.498,7.169c2.03,0.86,3.21,1.697,4.693,3.331c-0.087-0.139-0.173-0.278-0.259-0.417
				c0.319,0.568,0.641,1.135,0.961,1.703c0.068,0.121,0.209,0.327,0.253,0.404c-1.498-2.653-2.825-4.14-5.913-5.448
				C21.357,6.794,21.371,7.116,21.498,7.169z"/>
			<path opacity="0.1091" fill="#754C24" d="M21.257,5.46c2.716,1.145,4.206,2.461,5.654,5.028c0.011,0.018,0.455-0.21,0.464-0.197
				c-1.449-2.567-2.938-3.884-5.654-5.028C21.611,5.217,21.364,5.504,21.257,5.46z"/>
			<path opacity="0.1091" fill="#754C24" d="M22.325,6.85c2.615,1.093,4.046,2.405,5.418,4.884c0.008,0.015,0.379-0.287,0.325-0.385
				c-1.445-2.605-2.947-3.86-5.691-5C22.42,6.367,22.278,6.829,22.325,6.85z"/>
			<path opacity="0.1091" fill="#754C24" d="M22.138,5.178c3.021,1.273,4.167,2.388,5.656,5.027c0.06,0.106,0.425,0.037,0.483,0.14
				c-1.453-2.577-2.999-3.909-5.657-5.028C22.467,5.252,22.291,5.242,22.138,5.178z"/>
			<path opacity="0.1091" fill="#754C24" d="M20.649,6.634c2.713,1.149,4.202,2.467,5.651,5.031
				c-0.065-0.115,0.134-0.38,0.067-0.498c-1.449-2.566-2.939-3.882-5.652-5.031C20.755,6.152,20.606,6.616,20.649,6.634z"/>
			<path opacity="0.1091" fill="#754C24" d="M21.433,7.819c2.712,1.151,4.205,2.468,5.654,5.035
				c0.057,0.101,0.434,0.021,0.488,0.119c-1.449-2.566-2.942-3.884-5.654-5.035C21.768,7.874,21.585,7.882,21.433,7.819z"/>
			<path opacity="0.1091" fill="#754C24" d="M23.033,6.678c2.715,1.146,4.209,2.461,5.658,5.031c-0.076-0.134,0.011-0.363-0.066-0.5
				c-1.449-2.569-2.943-3.884-5.66-5.031C23.04,6.21,22.951,6.644,23.033,6.678z"/>
			<path opacity="0.1091" fill="#754C24" d="M20.931,6.06c2.713,1.146,4.203,2.462,5.651,5.03c-0.03-0.055,0.34-0.34,0.307-0.4
				c-1.449-2.566-2.939-3.882-5.652-5.03C21.193,5.642,20.965,6.075,20.931,6.06z"/>
			<path opacity="0.1091" fill="#754C24" d="M21.679,5.794c2.715,1.147,4.207,2.462,5.656,5.031
				c0.036,0.063,0.469-0.101,0.501-0.044c-1.449-2.569-2.94-3.884-5.655-5.031C22.042,5.691,21.813,5.851,21.679,5.794z"/>
			<path opacity="0.1091" fill="#754C24" d="M22.751,7.338c2.715,1.149,4.209,2.464,5.658,5.033c-0.038-0.065,0.31-0.352,0.27-0.423
				c-1.449-2.569-2.942-3.885-5.658-5.034C22.991,6.901,22.772,7.347,22.751,7.338z"/>
			<path opacity="0.1091" fill="#754C24" d="M20.861,7.227c2.711,1.15,4.202,2.466,5.651,5.032c-0.08-0.143-0.085-0.331-0.166-0.475
				c-1.449-2.566-2.94-3.884-5.651-5.033C20.797,6.794,20.755,7.182,20.861,7.227z"/>
		</g>
	</g>
</g>
<g>
	<g>
		<g>
			<path opacity="0.1091" fill="#754C24" d="M23.625,6.771c1.054,0.408,1.926,1.06,2.615,1.955c0.054,0.052,0.425-0.219,0.475-0.169
				C26.025,7.663,25.153,7.01,24.1,6.602C24,6.548,23.721,6.824,23.625,6.771z"/>
			<path opacity="0.1091" fill="#754C24" d="M22.941,6.116c1.052,0.407,1.924,1.058,2.612,1.95
				c-0.115-0.115-0.148-0.313-0.265-0.428c-0.689-0.893-1.56-1.543-2.613-1.95C22.803,5.758,22.812,6.046,22.941,6.116z"/>
			<path opacity="0.1091" fill="#754C24" d="M22.701,4.407c1.053,0.405,1.924,1.053,2.611,1.946
				c0.047,0.046,0.419-0.241,0.462-0.198c-0.688-0.892-1.559-1.541-2.61-1.945C23.071,4.159,22.791,4.457,22.701,4.407z"/>
			<path opacity="0.1091" fill="#754C24" d="M23.768,5.796c0.931,0.359,1.69,0.941,2.281,1.746c0.075,0.076,0.392-0.31,0.298-0.406
				c-0.648-0.876-1.489-1.489-2.526-1.841C23.874,5.325,23.711,5.765,23.768,5.796z"/>
			<path opacity="0.1091" fill="#754C24" d="M23.581,4.125c1.054,0.404,1.925,1.052,2.614,1.945c0.105,0.105,0.38,0.037,0.483,0.14
				c-0.689-0.893-1.562-1.541-2.614-1.944C23.92,4.186,23.724,4.204,23.581,4.125z"/>
			<path opacity="0.1091" fill="#754C24" d="M22.093,5.582c1.051,0.407,1.922,1.056,2.608,1.949
				c-0.071-0.07,0.141-0.426,0.067-0.498c-0.688-0.893-1.557-1.543-2.609-1.949C22.211,5.111,22.038,5.552,22.093,5.582z"/>
			<path opacity="0.1091" fill="#754C24" d="M22.877,6.766c1.052,0.408,1.922,1.06,2.611,1.954c0.103,0.103,0.388,0.02,0.488,0.121
				c-0.689-0.894-1.56-1.546-2.611-1.955C23.223,6.807,23.018,6.844,22.877,6.766z"/>
			<path opacity="0.1091" fill="#754C24" d="M24.477,5.625c1.055,0.406,1.927,1.056,2.617,1.949
				c-0.093-0.091,0.029-0.404-0.066-0.498c-0.69-0.894-1.564-1.543-2.619-1.949C24.493,5.172,24.385,5.575,24.477,5.625z"/>
			<path opacity="0.1091" fill="#754C24" d="M22.373,5.006c1.052,0.405,1.922,1.055,2.61,1.947c-0.014-0.014,0.322-0.383,0.306-0.4
				c-0.688-0.891-1.559-1.541-2.61-1.946C22.653,4.592,22.392,5.018,22.373,5.006z"/>
			<path opacity="0.1091" fill="#754C24" d="M23.123,4.742c1.053,0.406,1.924,1.056,2.613,1.949
				c0.078,0.077,0.426-0.119,0.501-0.044c-0.689-0.894-1.561-1.543-2.613-1.95C23.499,4.628,23.243,4.807,23.123,4.742z"/>
			<path opacity="0.1091" fill="#754C24" d="M24.194,6.285c1.055,0.407,1.927,1.059,2.617,1.953
				c-0.023-0.023,0.298-0.397,0.27-0.425c-0.69-0.895-1.563-1.545-2.617-1.953C24.45,5.854,24.199,6.288,24.194,6.285z"/>
			<path opacity="0.1091" fill="#754C24" d="M22.304,6.173c1.052,0.408,1.921,1.059,2.608,1.951
				c-0.106-0.105-0.058-0.368-0.164-0.475c-0.688-0.894-1.559-1.543-2.609-1.952C22.247,5.758,22.192,6.112,22.304,6.173z"/>
		</g>
	</g>
</g>
<g>
	<g>
		<g>
			<path opacity="0.1091" fill="#754C24" d="M24.093,5.795c0.281,0.176,0.563,0.353,0.845,0.528
				c0.089,0.057,0.386-0.223,0.474-0.168c-0.281-0.176-0.563-0.352-0.845-0.529C24.478,5.571,24.181,5.851,24.093,5.795z"/>
			<path opacity="0.1091" fill="#754C24" d="M23.17,3.434c0.279,0.174,0.561,0.349,0.842,0.523c0.083,0.051,0.382-0.248,0.462-0.196
				c-0.279-0.176-0.561-0.35-0.842-0.525C23.549,3.185,23.25,3.484,23.17,3.434z"/>
			<path opacity="0.1091" fill="#754C24" d="M24.049,3.15c0.281,0.174,0.562,0.349,0.845,0.523c0.137,0.086,0.346,0.056,0.482,0.141
				c-0.281-0.176-0.563-0.35-0.844-0.524C24.395,3.204,24.186,3.236,24.049,3.15z"/>
			<path opacity="0.1091" fill="#754C24" d="M22.561,4.606c0.281,0.176,0.561,0.352,0.842,0.526
				c-0.058-0.036,0.126-0.461,0.066-0.499c-0.279-0.174-0.561-0.35-0.84-0.526C22.687,4.144,22.503,4.57,22.561,4.606z"/>
			<path opacity="0.1091" fill="#754C24" d="M23.345,5.79c0.28,0.177,0.562,0.353,0.841,0.529c0.136,0.086,0.354,0.036,0.489,0.121
				c-0.28-0.177-0.561-0.353-0.842-0.529C23.697,5.824,23.479,5.874,23.345,5.79z"/>
			<path opacity="0.1091" fill="#754C24" d="M22.772,5.197c0.281,0.176,0.561,0.352,0.842,0.527
				c-0.11-0.068-0.054-0.404-0.166-0.475c-0.281-0.176-0.561-0.352-0.842-0.527C22.718,4.792,22.662,5.128,22.772,5.197z"/>
			<path opacity="0.1091" fill="#754C24" d="M23.411,5.141C24,5.452,24.533,5.842,25.008,6.312
				c-0.122-0.104-0.143-0.324-0.265-0.428c-0.475-0.469-1.007-0.859-1.597-1.172C23.272,4.792,23.282,5.059,23.411,5.141z"/>
			<path opacity="0.1091" fill="#754C24" d="M24.237,4.821c0.59,0.312,1.122,0.702,1.597,1.171c-0.07-0.061,0.126-0.438,0.053-0.501
				c-0.475-0.469-1.008-0.858-1.599-1.169C24.351,4.36,24.174,4.782,24.237,4.821z"/>
			<path opacity="0.1091" fill="#754C24" d="M24.943,4.649c0.592,0.311,1.125,0.702,1.601,1.171c-0.094-0.081,0.029-0.418-0.066-0.5
				c-0.476-0.469-1.009-0.858-1.601-1.169C24.965,4.206,24.852,4.592,24.943,4.649z"/>
			<path opacity="0.1091" fill="#754C24" d="M22.842,4.032c0.59,0.31,1.121,0.701,1.596,1.168c-0.007-0.006,0.313-0.393,0.306-0.4
				c-0.475-0.468-1.006-0.857-1.596-1.167C23.133,3.622,22.853,4.039,22.842,4.032z"/>
			<path opacity="0.1091" fill="#754C24" d="M23.591,3.769c0.591,0.31,1.124,0.699,1.599,1.168c0.09,0.076,0.412-0.12,0.501-0.045
				c-0.475-0.468-1.008-0.857-1.599-1.167C23.977,3.653,23.703,3.839,23.591,3.769z"/>
			<path opacity="0.1091" fill="#754C24" d="M24.662,5.311c0.591,0.311,1.124,0.702,1.6,1.171c-0.017-0.016,0.29-0.409,0.271-0.425
				c-0.477-0.469-1.01-0.859-1.601-1.171C24.928,4.883,24.66,5.31,24.662,5.311z"/>
		</g>
	</g>
</g>
<g>
	<g>
		<g>
			<path opacity="0.1091" fill="#754C24" d="M19.686,35.478c1.589,1.162,2.21,2.534,2.926,4.333
				c0.004,0.009,0.474-0.171,0.475-0.168c-0.717-1.8-1.338-3.172-2.927-4.334C20.082,35.252,19.761,35.531,19.686,35.478z"/>
			<path opacity="0.1091" fill="#754C24" d="M19.004,34.821c1.258,1.164,1.867,2.527,2.479,4.103c0.023,0.06,0.47-0.16,0.433-0.256
				c-0.281-0.812-0.623-1.596-1.024-2.354c-0.457-0.921-1.175-1.56-2.152-1.92C18.863,34.47,18.895,34.719,19.004,34.821z"/>
			<path opacity="0.1091" fill="#754C24" d="M18.762,33.113c1.589,1.158,2.208,2.528,2.923,4.325c0,0,0.467-0.189,0.463-0.196
				c-0.715-1.797-1.333-3.167-2.922-4.325C19.153,32.865,18.83,33.163,18.762,33.113z"/>
			<path opacity="0.1091" fill="#754C24" d="M19.829,34.503c1.431,1.059,1.992,2.407,2.616,4.036
				c0.036,0.094,0.461-0.158,0.408-0.294c-0.275-0.807-0.612-1.589-1.013-2.343c-0.428-0.862-1.081-1.495-1.957-1.9
				C19.948,34.048,19.761,34.452,19.829,34.503z"/>
			<path opacity="0.1091" fill="#754C24" d="M19.642,32.831c1.59,1.158,2.21,2.526,2.926,4.324c0.039,0.1,0.447,0.047,0.483,0.14
				c-0.716-1.798-1.334-3.167-2.926-4.324C19.996,32.878,19.768,32.924,19.642,32.831z"/>
			<path opacity="0.1091" fill="#754C24" d="M18.154,34.288c1.586,1.161,2.205,2.532,2.92,4.328
				c-0.054-0.134,0.122-0.361,0.066-0.498c-0.715-1.797-1.334-3.168-2.92-4.329C18.284,33.836,18.087,34.24,18.154,34.288z"/>
			<path opacity="0.1091" fill="#754C24" d="M18.936,35.472c1.587,1.164,2.208,2.536,2.924,4.334
				c0.038,0.093,0.453,0.031,0.489,0.12c-0.717-1.799-1.337-3.17-2.925-4.334C19.3,35.499,19.061,35.563,18.936,35.472z"/>
			<path opacity="0.1091" fill="#754C24" d="M20.536,34.331c1.592,1.16,2.213,2.529,2.93,4.328c-0.06-0.149-0.007-0.346-0.067-0.498
				c-0.716-1.8-1.337-3.17-2.929-4.328C20.561,33.899,20.44,34.261,20.536,34.331z"/>
			<path opacity="0.1091" fill="#754C24" d="M18.434,33.713c1.587,1.159,2.206,2.53,2.922,4.326
				c-0.031-0.076,0.339-0.315,0.306-0.399c-0.715-1.796-1.334-3.166-2.922-4.325C18.734,33.309,18.435,33.713,18.434,33.713z"/>
			<path opacity="0.1091" fill="#754C24" d="M19.184,33.449c1.524,1.23,2.173,2.5,2.872,4.308c0.018,0.047,0.447-0.19,0.407-0.295
				c-0.653-1.686-1.188-3.093-2.778-4.057C19.575,33.339,19.276,33.525,19.184,33.449z"/>
			<path opacity="0.1091" fill="#754C24" d="M20.255,34.991c1.59,1.161,2.212,2.532,2.928,4.331
				c-0.035-0.087,0.309-0.329,0.27-0.424c-0.716-1.8-1.337-3.169-2.927-4.332C20.53,34.57,20.243,34.983,20.255,34.991z"/>
			<path opacity="0.1091" fill="#754C24" d="M18.366,34.88c1.519,1.112,2.227,2.594,2.915,4.318
				c-0.033-0.083-0.104-0.321-0.155-0.451c-0.733-1.844-1.298-3.149-2.926-4.343C18.309,34.485,18.252,34.796,18.366,34.88z"/>
		</g>
	</g>
</g>
<g>
	<g>
		<g>
			<path opacity="0.1091" fill="#754C24" d="M13.64,13.481c0.222,0.155,0.442,0.312,0.663,0.468
				c0.083,0.058,0.399-0.223,0.475-0.169c-0.222-0.157-0.443-0.313-0.665-0.468C14.032,13.254,13.716,13.534,13.64,13.481z"/>
			<path opacity="0.1091" fill="#754C24" d="M12.955,12.825c0.097,0.131,0.195,0.262,0.292,0.393
				c0.035,0.044,0.371-0.365,0.316-0.393c-0.291-0.143-0.582-0.285-0.872-0.428C12.794,12.449,12.882,12.727,12.955,12.825z"/>
			<path opacity="0.1091" fill="#754C24" d="M12.716,11.116c0.22,0.155,0.441,0.312,0.663,0.466
				c0.075,0.054,0.393-0.245,0.462-0.196c-0.22-0.157-0.441-0.312-0.663-0.468C13.104,10.865,12.785,11.164,12.716,11.116z"/>
			<path opacity="0.1091" fill="#754C24" d="M13.78,12.505c0.128,0.103,0.256,0.206,0.383,0.309c0.112,0.091,0.41-0.333,0.285-0.414
				c-0.205-0.133-0.411-0.265-0.616-0.396C13.898,12.046,13.714,12.45,13.78,12.505z"/>
			<path opacity="0.1091" fill="#754C24" d="M13.596,10.832c0.221,0.156,0.441,0.312,0.663,0.468c0.13,0.093,0.355,0.05,0.483,0.14
				c-0.22-0.156-0.441-0.311-0.663-0.468C13.949,10.88,13.725,10.923,13.596,10.832z"/>
			<path opacity="0.1091" fill="#754C24" d="M12.107,12.291c0.221,0.155,0.441,0.311,0.663,0.466
				c-0.061-0.042,0.133-0.451,0.067-0.499c-0.22-0.155-0.442-0.311-0.663-0.468C12.234,11.834,12.041,12.244,12.107,12.291z"/>
			<path opacity="0.1091" fill="#754C24" d="M12.89,13.476c0.222,0.155,0.441,0.312,0.663,0.468
				c0.128,0.091,0.363,0.031,0.488,0.121c-0.221-0.156-0.441-0.313-0.663-0.469C13.25,13.505,13.016,13.564,12.89,13.476z"/>
			<path opacity="0.1091" fill="#754C24" d="M14.494,12.333c0.22,0.156,0.442,0.313,0.663,0.468
				c-0.09-0.063,0.029-0.431-0.068-0.499c-0.22-0.155-0.441-0.311-0.663-0.468C14.517,11.898,14.397,12.266,14.494,12.333z"/>
			<path opacity="0.1091" fill="#754C24" d="M12.388,11.715c0.222,0.155,0.441,0.312,0.663,0.468c0.01,0.007,0.304-0.4,0.306-0.4
				c-0.221-0.155-0.441-0.311-0.663-0.468C12.684,11.308,12.389,11.715,12.388,11.715z"/>
			<path opacity="0.1091" fill="#754C24" d="M13.137,11.451c0.216,0.188,0.432,0.376,0.647,0.565
				c0.072,0.063,0.36-0.384,0.274-0.422c-0.14-0.063-0.279-0.125-0.42-0.188C13.527,11.355,13.221,11.522,13.137,11.451z"/>
			<path opacity="0.1091" fill="#754C24" d="M14.209,12.994c0.22,0.156,0.442,0.311,0.663,0.468
				c-0.001-0.001,0.281-0.417,0.27-0.424c-0.222-0.156-0.441-0.313-0.663-0.468C14.48,12.572,14.198,12.987,14.209,12.994z"/>
			<path opacity="0.1091" fill="#754C24" d="M12.318,12.882c0.22,0.156,0.442,0.313,0.662,0.468
				c-0.109-0.076-0.051-0.395-0.165-0.475c-0.222-0.156-0.441-0.312-0.663-0.468C12.262,12.485,12.205,12.802,12.318,12.882z"/>
		</g>
	</g>
</g>
<g>
	<g>
		<g>
			<path opacity="0.1091" fill="#754C24" d="M13.484,15.314c0.34,0.134,0.536,0.382,0.585,0.742c0.004,0.01,0.475-0.169,0.475-0.169
				c-0.051-0.36-0.246-0.606-0.585-0.742C13.878,15.087,13.557,15.366,13.484,15.314z"/>
			<path opacity="0.1091" fill="#754C24" d="M12.536,14.23c0.172,0.295,0.301,0.607,0.385,0.937c0.028,0.09,0.45-0.154,0.409-0.293
				C13.157,14.295,13.29,14.548,12.536,14.23z"/>
			<path opacity="0.1091" fill="#754C24" d="M12.56,12.948c0.34,0.134,0.536,0.381,0.585,0.741c0,0,0.465-0.188,0.462-0.198
				c-0.05-0.358-0.245-0.604-0.584-0.739C12.95,12.698,12.626,12.997,12.56,12.948z"/>
			<path opacity="0.1091" fill="#754C24" d="M13.623,14.338c0.087,0.144,0.173,0.29,0.26,0.433c0.057,0.215,0.461-0.125,0.427-0.232
				c-0.022-0.385-0.234-0.619-0.634-0.702C13.733,13.872,13.556,14.291,13.623,14.338z"/>
			<path opacity="0.1091" fill="#754C24" d="M13.439,12.666c0.342,0.133,0.536,0.379,0.585,0.739c0.039,0.1,0.447,0.048,0.483,0.14
				c-0.048-0.36-0.244-0.606-0.584-0.741C13.794,12.711,13.567,12.756,13.439,12.666z"/>
			<path opacity="0.1091" fill="#754C24" d="M11.95,14.124c0.339,0.136,0.535,0.382,0.584,0.74c-0.053-0.133,0.122-0.36,0.067-0.498
				c-0.051-0.358-0.245-0.606-0.584-0.741C12.079,13.669,11.882,14.074,11.95,14.124z"/>
			<path opacity="0.1091" fill="#754C24" d="M12.735,15.308c0.337,0.136,0.533,0.383,0.584,0.742
				c0.037,0.094,0.454,0.033,0.488,0.12c-0.051-0.358-0.246-0.606-0.584-0.742C13.096,15.336,12.858,15.398,12.735,15.308z"/>
			<path opacity="0.1091" fill="#754C24" d="M14.338,14.167c0.222,0.162,0.345,0.382,0.371,0.66c-0.02-0.06,0.362-0.292,0.322-0.386
				c-0.072-0.419-0.325-0.677-0.76-0.772C14.356,13.715,14.262,14.084,14.338,14.167z"/>
			<path opacity="0.1091" fill="#754C24" d="M12.231,13.548c0.339,0.134,0.534,0.382,0.584,0.74
				c-0.029-0.075,0.34-0.314,0.307-0.398c-0.051-0.36-0.246-0.606-0.585-0.741C12.529,13.142,12.23,13.546,12.231,13.548z"/>
			<path opacity="0.1091" fill="#754C24" d="M12.981,13.286c0.305,0.137,0.469,0.361,0.494,0.672
				c0.051,0.182,0.443-0.159,0.416-0.246c-0.151-0.484-0.007-0.374-0.409-0.472C13.375,13.214,13.054,13.348,12.981,13.286z"/>
			<path opacity="0.1091" fill="#754C24" d="M14.056,14.829c0.34,0.134,0.536,0.381,0.585,0.741
				c-0.035-0.087,0.307-0.328,0.27-0.425c-0.05-0.358-0.245-0.606-0.585-0.741C14.33,14.407,14.043,14.82,14.056,14.829z"/>
			<path opacity="0.1091" fill="#754C24" d="M12.162,14.716c0.192,0.242,0.386,0.486,0.579,0.729
				c-0.033-0.083-0.104-0.323-0.155-0.451c-0.236-0.601-0.052-0.363-0.589-0.754C12.105,14.32,12.049,14.633,12.162,14.716z"/>
		</g>
	</g>
</g>
<g>
	<g>
		<g>
			<path opacity="0.1091" fill="#754C24" d="M13.563,17.341c0.347,0.417,0.595,0.885,0.742,1.406
				c0.004,0.011,0.474-0.17,0.474-0.167c-0.147-0.521-0.395-0.991-0.742-1.408C14.01,17.134,13.582,17.371,13.563,17.341z"/>
			<path opacity="0.1091" fill="#754C24" d="M12.618,16.255c0.162,0.521,0.344,1.034,0.545,1.541
				c0.034,0.086,0.496-0.109,0.457-0.21C13.506,16.994,13.171,16.55,12.618,16.255z"/>
			<path opacity="0.1091" fill="#754C24" d="M12.638,14.976c0.346,0.414,0.592,0.882,0.739,1.401c0,0.001,0.466-0.188,0.462-0.197
				c-0.146-0.521-0.392-0.987-0.739-1.401C13.08,14.748,12.652,14.997,12.638,14.976z"/>
			<path opacity="0.1091" fill="#754C24" d="M13.693,16.364c0.165,0.327,0.302,0.663,0.41,1.012c0.056,0.152,0.499-0.083,0.436-0.25
				c-0.108-0.514-0.372-0.933-0.793-1.261C13.812,15.941,13.643,16.255,13.693,16.364z"/>
			<path opacity="0.1091" fill="#754C24" d="M13.519,14.694c0.349,0.412,0.595,0.88,0.742,1.4c0.039,0.099,0.446,0.047,0.483,0.14
				c-0.147-0.521-0.393-0.988-0.742-1.402C13.927,14.723,13.588,14.796,13.519,14.694z"/>
			<path opacity="0.1091" fill="#754C24" d="M12.029,16.151c0.345,0.416,0.591,0.883,0.738,1.404
				c-0.054-0.133,0.122-0.361,0.066-0.499c-0.146-0.52-0.392-0.988-0.738-1.403C12.164,15.752,11.958,16.043,12.029,16.151z"/>
			<path opacity="0.1091" fill="#754C24" d="M12.813,17.336c0.346,0.417,0.594,0.886,0.741,1.408
				c0.036,0.093,0.453,0.032,0.488,0.12c-0.148-0.521-0.394-0.991-0.74-1.407C13.23,17.35,12.879,17.436,12.813,17.336z"/>
			<path opacity="0.1091" fill="#754C24" d="M14.414,16.194c0.187,0.416,0.352,0.839,0.494,1.272
				c-0.013-0.032,0.411-0.257,0.382-0.327c-0.152-0.585-0.466-1.067-0.942-1.443C14.429,15.786,14.363,16.072,14.414,16.194z"/>
			<path opacity="0.1091" fill="#754C24" d="M12.308,15.574c0.347,0.416,0.594,0.883,0.74,1.404
				c-0.03-0.075,0.339-0.316,0.306-0.399c-0.147-0.521-0.393-0.989-0.741-1.405C12.64,15.214,12.274,15.524,12.308,15.574z"/>
			<path opacity="0.1091" fill="#754C24" d="M13.061,15.318c0.313,0.385,0.533,0.816,0.662,1.294
				c0.033,0.089,0.483-0.128,0.44-0.245c-0.088-0.428-0.289-0.793-0.601-1.094C13.505,15.202,13.099,15.379,13.061,15.318z"/>
			<path opacity="0.1091" fill="#754C24" d="M14.134,16.857c0.348,0.416,0.594,0.883,0.741,1.403
				c-0.036-0.087,0.307-0.329,0.27-0.423c-0.147-0.522-0.393-0.99-0.741-1.405C14.439,16.483,14.094,16.797,14.134,16.857z"/>
			<path opacity="0.1091" fill="#754C24" d="M12.24,16.744c0.245,0.463,0.488,0.929,0.733,1.392
				c-0.033-0.082-0.104-0.321-0.155-0.451c-0.392-0.988-0.155-0.537-0.744-1.417C12.164,16.402,12.15,16.608,12.24,16.744z"/>
		</g>
	</g>
</g>
<g>
	<g>
		<g>
			<path opacity="0.1091" fill="#754C24" d="M13.64,19.759c0.274,0.469,0.547,0.938,0.821,1.408
				c0.017,0.029,0.459-0.194,0.474-0.169c-0.273-0.469-0.547-0.938-0.821-1.407C14.097,19.56,13.654,19.783,13.64,19.759z"/>
			<path opacity="0.1091" fill="#754C24" d="M12.696,18.688c0.274,0.468,0.547,0.937,0.819,1.405
				c0.071,0.12,0.208,0.327,0.253,0.404c-0.274-0.468-0.547-0.937-0.819-1.405C12.879,18.972,12.742,18.766,12.696,18.688z"/>
			<path opacity="0.1091" fill="#754C24" d="M12.716,17.396c0.272,0.466,0.545,0.934,0.818,1.4c0.013,0.021,0.454-0.213,0.462-0.196
				c-0.272-0.468-0.545-0.934-0.818-1.402C13.166,17.177,12.724,17.409,12.716,17.396z"/>
			<path opacity="0.1091" fill="#754C24" d="M13.782,18.784c0.16,0.343,0.319,0.685,0.48,1.028c0.063,0.134,0.518-0.133,0.431-0.26
				c-0.287-0.423-0.572-0.846-0.858-1.268C13.906,18.389,13.725,18.662,13.782,18.784z"/>
			<path opacity="0.1091" fill="#754C24" d="M13.596,17.112c0.272,0.468,0.546,0.934,0.819,1.402
				c0.063,0.106,0.423,0.036,0.484,0.139c-0.274-0.467-0.547-0.935-0.821-1.401C14.017,17.145,13.656,17.214,13.596,17.112z"/>
			<path opacity="0.1091" fill="#754C24" d="M12.107,18.569c0.272,0.468,0.544,0.937,0.816,1.405
				c-0.066-0.114,0.134-0.383,0.066-0.5c-0.271-0.468-0.544-0.936-0.815-1.403C12.24,18.183,12.039,18.453,12.107,18.569z"/>
			<path opacity="0.1091" fill="#754C24" d="M12.89,19.754c0.272,0.469,0.545,0.938,0.819,1.408c0.06,0.103,0.431,0.021,0.489,0.121
				c-0.274-0.469-0.547-0.938-0.819-1.408C13.319,19.772,12.948,19.852,12.89,19.754z"/>
			<path opacity="0.1091" fill="#754C24" d="M14.494,18.612c0.273,0.468,0.545,0.938,0.818,1.405
				c-0.076-0.133,0.012-0.364-0.066-0.499c-0.273-0.469-0.547-0.937-0.819-1.405C14.504,18.245,14.416,18.478,14.494,18.612z"/>
			<path opacity="0.1091" fill="#754C24" d="M12.388,17.995c0.273,0.467,0.545,0.935,0.817,1.402c-0.029-0.053,0.34-0.342,0.306-0.4
				c-0.271-0.467-0.544-0.935-0.816-1.402C12.724,17.646,12.353,17.935,12.388,17.995z"/>
			<path opacity="0.1091" fill="#754C24" d="M13.137,17.729c0.344,0.541,0.688,1.083,1.031,1.624
				c-0.069-0.108,0.132-0.379,0.071-0.498c-0.201-0.391-0.4-0.779-0.601-1.17C13.606,17.62,13.172,17.786,13.137,17.729z"/>
			<path opacity="0.1091" fill="#754C24" d="M14.209,19.273c0.273,0.468,0.547,0.937,0.821,1.405
				c-0.036-0.063,0.312-0.354,0.27-0.424c-0.274-0.469-0.547-0.937-0.821-1.406C14.515,18.911,14.167,19.203,14.209,19.273z"/>
			<path opacity="0.1091" fill="#754C24" d="M12.318,19.162c0.271,0.468,0.544,0.937,0.817,1.405
				c-0.083-0.141-0.083-0.332-0.166-0.475c-0.273-0.468-0.544-0.937-0.817-1.405C12.235,18.828,12.235,19.019,12.318,19.162z"/>
		</g>
	</g>
</g>
<g>
	<g>
		<g>
			<path opacity="0.1091" fill="#754C24" d="M13.915,21.943c0.13,0.378,0.259,0.756,0.389,1.134
				c0.001,0.003,0.476-0.163,0.475-0.169c-0.13-0.378-0.26-0.756-0.391-1.133C14.386,21.772,13.912,21.937,13.915,21.943z"/>
			<path opacity="0.1091" fill="#754C24" d="M12.965,20.86c0.071,0.403,0.14,0.806,0.21,1.209c0.022,0.128,0.536-0.061,0.481-0.145
				c-0.22-0.341-0.441-0.68-0.662-1.02C12.986,20.889,12.976,20.874,12.965,20.86z"/>
			<path opacity="0.1091" fill="#754C24" d="M12.988,19.578c0.13,0.376,0.26,0.753,0.389,1.129
				c-0.001-0.007,0.469-0.181,0.463-0.196c-0.13-0.376-0.26-0.753-0.389-1.129C13.454,19.389,12.983,19.563,12.988,19.578z"/>
			<path opacity="0.1091" fill="#754C24" d="M14.051,20.968c0.032,0.241,0.064,0.482,0.096,0.723
				c0.02,0.148,0.547-0.022,0.471-0.177c-0.172-0.349-0.342-0.698-0.514-1.045C14.161,20.583,14.035,20.833,14.051,20.968z"/>
			<path opacity="0.1091" fill="#754C24" d="M13.869,19.296c0.13,0.376,0.26,0.753,0.391,1.129c0.033,0.095,0.454,0.053,0.484,0.14
				c-0.13-0.376-0.26-0.753-0.391-1.129C14.32,19.34,13.899,19.383,13.869,19.296z"/>
			<path opacity="0.1091" fill="#754C24" d="M12.379,20.753c0.13,0.378,0.259,0.754,0.389,1.131
				c-0.049-0.14,0.116-0.354,0.066-0.499c-0.129-0.376-0.259-0.754-0.388-1.131C12.494,20.395,12.331,20.609,12.379,20.753z"/>
			<path opacity="0.1091" fill="#754C24" d="M13.164,21.938c0.129,0.377,0.259,0.755,0.389,1.133
				c0.03,0.089,0.459,0.038,0.488,0.121c-0.13-0.378-0.26-0.756-0.389-1.134C13.621,21.97,13.192,22.021,13.164,21.938z"/>
			<path opacity="0.1091" fill="#754C24" d="M14.767,20.796c0.13,0.377,0.26,0.754,0.39,1.132c-0.054-0.155-0.014-0.343-0.068-0.5
				c-0.128-0.376-0.259-0.754-0.389-1.131C14.753,20.452,14.714,20.64,14.767,20.796z"/>
			<path opacity="0.1091" fill="#754C24" d="M12.661,20.177c0.13,0.378,0.259,0.754,0.389,1.131
				c-0.029-0.083,0.338-0.307,0.306-0.398c-0.128-0.378-0.259-0.754-0.389-1.131C12.995,19.862,12.628,20.086,12.661,20.177z"/>
			<path opacity="0.1091" fill="#754C24" d="M13.411,19.916c0.109,0.322,0.217,0.645,0.325,0.967c0.04,0.118,0.516-0.05,0.475-0.169
				c-0.1-0.281-0.199-0.562-0.299-0.844C13.896,19.827,13.422,19.948,13.411,19.916z"/>
			<path opacity="0.1091" fill="#754C24" d="M14.485,21.459c0.13,0.376,0.26,0.755,0.389,1.131
				c-0.032-0.094,0.306-0.321,0.271-0.424c-0.13-0.377-0.26-0.754-0.391-1.132C14.788,21.13,14.45,21.357,14.485,21.459z"/>
			<path opacity="0.1091" fill="#754C24" d="M12.468,20.998c0.129,0.378,0.259,0.754,0.388,1.133
				c0.013,0.034,0.155,0.433,0.108,0.296c-0.137-0.403-0.275-0.806-0.414-1.21C12.525,21.145,12.36,20.684,12.468,20.998z"/>
		</g>
	</g>
</g>
<g>
	<g>
		<g>
			<path opacity="0.1091" fill="#754C24" d="M13.408,24.325c0.104,0.377,0.208,0.753,0.312,1.13
				c-0.003-0.009,0.478-0.153,0.473-0.169c-0.104-0.376-0.208-0.753-0.311-1.129C13.884,24.164,13.402,24.309,13.408,24.325z"/>
			<path opacity="0.1091" fill="#754C24" d="M12.462,23.236c0.061,0.434,0.121,0.868,0.181,1.301
				c0.008,0.062,0.485-0.015,0.502,0.025c-0.141-0.305-0.282-0.607-0.423-0.911C12.665,23.527,12.48,23.366,12.462,23.236z"/>
			<path opacity="0.1091" fill="#754C24" d="M12.482,21.958c0.104,0.376,0.208,0.752,0.312,1.13
				c-0.006-0.019,0.469-0.173,0.462-0.197c-0.104-0.377-0.208-0.753-0.311-1.13C12.948,21.776,12.474,21.93,12.482,21.958z"/>
			<path opacity="0.1091" fill="#754C24" d="M13.532,23.332c0.026,0.288,0.051,0.574,0.076,0.862c0.003,0.031,0.5-0.112,0.471-0.182
				c-0.165-0.389-0.328-0.777-0.491-1.167C13.635,22.958,13.521,23.202,13.532,23.332z"/>
			<path opacity="0.1091" fill="#754C24" d="M13.362,21.674c0.104,0.378,0.208,0.754,0.311,1.131
				c0.025,0.087,0.461,0.058,0.485,0.14c-0.104-0.377-0.209-0.754-0.313-1.131C13.82,21.724,13.384,21.752,13.362,21.674z"/>
			<path opacity="0.1091" fill="#754C24" d="M11.873,23.133c0.104,0.376,0.208,0.754,0.311,1.131
				c-0.04-0.148,0.108-0.349,0.066-0.499c-0.104-0.377-0.208-0.754-0.311-1.131C11.979,22.779,11.832,22.981,11.873,23.133z"/>
			<path opacity="0.1091" fill="#754C24" d="M12.656,24.317c0.104,0.378,0.208,0.754,0.312,1.132
				c0.022,0.081,0.468,0.043,0.488,0.119c-0.104-0.376-0.208-0.754-0.311-1.131C13.121,24.354,12.677,24.391,12.656,24.317z"/>
			<path opacity="0.1091" fill="#754C24" d="M14.253,23.163c0.105,0.381,0.21,0.763,0.317,1.144
				c-0.044-0.159-0.023-0.338-0.068-0.499c-0.102-0.372-0.205-0.746-0.309-1.118C14.217,22.772,14.216,23.03,14.253,23.163z"/>
			<path opacity="0.1091" fill="#754C24" d="M12.151,22.556c0.104,0.376,0.209,0.754,0.313,1.131
				c-0.026-0.095,0.333-0.299,0.306-0.399c-0.104-0.377-0.209-0.754-0.313-1.132C12.482,22.248,12.124,22.453,12.151,22.556z"/>
			<path opacity="0.1091" fill="#754C24" d="M12.904,22.301c0.103,0.376,0.207,0.753,0.309,1.129
				c0.001,0.005,0.483-0.14,0.476-0.163c-0.094-0.336-0.19-0.674-0.284-1.01C13.394,22.218,12.91,22.32,12.904,22.301z"/>
			<path opacity="0.1091" fill="#754C24" d="M13.977,23.837c0.104,0.378,0.208,0.755,0.312,1.131c-0.029-0.105,0.3-0.313,0.27-0.425
				c-0.104-0.377-0.208-0.753-0.312-1.13C14.276,23.518,13.946,23.725,13.977,23.837z"/>
			<path opacity="0.1091" fill="#754C24" d="M11.921,23.263c0.103,0.372,0.205,0.744,0.309,1.118
				c0.044,0.161,0.122,0.313,0.166,0.475c-0.105-0.382-0.21-0.763-0.315-1.145C12.044,23.577,11.943,23.347,11.921,23.263z"/>
		</g>
	</g>
</g>
<g>
	<g>
		<g>
			<path opacity="0.1091" fill="#754C24" d="M13.485,26.782c0.104,0.272,0.208,0.546,0.312,0.818
				c0.002,0.007,0.475-0.168,0.475-0.168c-0.104-0.272-0.208-0.545-0.312-0.817C13.956,26.605,13.485,26.781,13.485,26.782z"/>
			<path opacity="0.1091" fill="#754C24" d="M12.544,25.69c0.057,0.335,0.114,0.67,0.169,1.003c0.011,0.063,0.487-0.077,0.5-0.059
				c-0.212-0.301-0.424-0.603-0.636-0.903C12.569,25.717,12.558,25.703,12.544,25.69z"/>
			<path opacity="0.1091" fill="#754C24" d="M12.558,24.411c0.105,0.274,0.209,0.547,0.313,0.821
				c-0.001-0.003,0.467-0.188,0.464-0.198c-0.105-0.272-0.209-0.547-0.313-0.819C13.021,24.215,12.554,24.4,12.558,24.411z"/>
			<path opacity="0.1091" fill="#754C24" d="M13.603,25.789c0.022,0.187,0.044,0.372,0.066,0.559
				c0.007,0.053,0.501-0.134,0.447-0.231c-0.152-0.271-0.306-0.542-0.458-0.814C13.707,25.389,13.589,25.673,13.603,25.789z"/>
			<path opacity="0.1091" fill="#754C24" d="M13.441,24.128c0.104,0.273,0.208,0.548,0.312,0.82c0.038,0.097,0.448,0.049,0.483,0.14
				c-0.104-0.272-0.208-0.546-0.311-0.82C13.887,24.169,13.476,24.218,13.441,24.128z"/>
			<path opacity="0.1091" fill="#754C24" d="M11.948,25.589c0.104,0.273,0.209,0.547,0.313,0.82
				c-0.051-0.136,0.121-0.36,0.068-0.499c-0.105-0.273-0.209-0.547-0.314-0.819C12.066,25.226,11.894,25.449,11.948,25.589z"/>
			<path opacity="0.1091" fill="#754C24" d="M12.734,26.775c0.105,0.272,0.209,0.546,0.313,0.818
				c0.035,0.091,0.456,0.033,0.489,0.12c-0.104-0.272-0.208-0.545-0.313-0.819C13.187,26.801,12.767,26.858,12.734,26.775z"/>
			<path opacity="0.1091" fill="#754C24" d="M14.328,25.62c0.053,0.263,0.105,0.525,0.158,0.789c-0.019-0.098,0.293-0.35,0.242-0.44
				c-0.153-0.278-0.309-0.557-0.462-0.835C14.33,25.25,14.302,25.485,14.328,25.62z"/>
			<path opacity="0.1091" fill="#754C24" d="M12.229,25.012c0.105,0.273,0.209,0.547,0.313,0.819
				c-0.029-0.078,0.339-0.313,0.307-0.398c-0.105-0.273-0.209-0.547-0.314-0.82C12.563,24.689,12.195,24.925,12.229,25.012z"/>
			<path opacity="0.1091" fill="#754C24" d="M12.983,24.765c0.105,0.282,0.21,0.565,0.315,0.849c0-0.002,0.459-0.2,0.446-0.235
				c-0.087-0.219-0.173-0.439-0.26-0.658C13.462,24.663,12.993,24.792,12.983,24.765z"/>
			<path opacity="0.1091" fill="#754C24" d="M14.053,26.294c0.105,0.272,0.209,0.547,0.313,0.819
				c-0.035-0.09,0.307-0.328,0.27-0.425c-0.104-0.272-0.208-0.546-0.312-0.819C14.357,25.956,14.016,26.194,14.053,26.294z"/>
			<path opacity="0.1091" fill="#754C24" d="M12.152,26.171c0.105,0.272,0.21,0.545,0.314,0.817
				c-0.032-0.081-0.105-0.319-0.155-0.449c-0.104-0.272-0.208-0.547-0.313-0.819C12.031,25.803,12.103,26.041,12.152,26.171z"/>
		</g>
	</g>
</g>
<g>
	<g>
		<g>
			<path opacity="0.1091" fill="#754C24" d="M13.251,29.046c0.156,0.26,0.312,0.519,0.468,0.778c0.02,0.032,0.459-0.193,0.473-0.168
				c-0.155-0.259-0.311-0.52-0.466-0.779C13.706,28.844,13.265,29.069,13.251,29.046z"/>
			<path opacity="0.1091" fill="#754C24" d="M12.308,27.955c0.106,0.337,0.213,0.675,0.319,1.013
				c0.018,0.057,0.474-0.182,0.467-0.189C12.831,28.504,12.569,28.23,12.308,27.955z"/>
			<path opacity="0.1091" fill="#754C24" d="M12.326,26.677c0.156,0.261,0.311,0.521,0.468,0.779
				c0.014,0.024,0.454-0.211,0.463-0.196c-0.156-0.26-0.313-0.521-0.468-0.78C12.774,26.454,12.334,26.691,12.326,26.677z"/>
			<path opacity="0.1091" fill="#754C24" d="M13.379,28.065c0.06,0.166,0.12,0.331,0.181,0.497c0.04,0.11,0.508-0.163,0.415-0.284
				c-0.181-0.237-0.362-0.476-0.545-0.714C13.494,27.647,13.336,27.948,13.379,28.065z"/>
			<path opacity="0.1091" fill="#754C24" d="M13.207,26.394c0.155,0.26,0.312,0.521,0.466,0.78c0.065,0.108,0.422,0.038,0.485,0.14
				c-0.157-0.26-0.313-0.52-0.468-0.78C13.624,26.424,13.267,26.494,13.207,26.394z"/>
			<path opacity="0.1091" fill="#754C24" d="M11.716,27.853c0.157,0.26,0.312,0.521,0.468,0.78c-0.065-0.11,0.136-0.385,0.068-0.499
				c-0.156-0.26-0.313-0.52-0.468-0.779C11.849,27.462,11.647,27.736,11.716,27.853z"/>
			<path opacity="0.1091" fill="#754C24" d="M12.501,29.037c0.155,0.26,0.311,0.521,0.466,0.78c0.062,0.104,0.43,0.021,0.488,0.121
				c-0.155-0.261-0.311-0.521-0.468-0.781C12.926,29.053,12.56,29.134,12.501,29.037z"/>
			<path opacity="0.1091" fill="#754C24" d="M14.101,27.896c0.087,0.233,0.176,0.468,0.263,0.701
				c-0.017-0.047,0.354-0.34,0.31-0.396c-0.213-0.269-0.426-0.536-0.641-0.805C14.114,27.497,14.053,27.768,14.101,27.896z"/>
			<path opacity="0.1091" fill="#754C24" d="M11.995,27.275c0.156,0.26,0.313,0.521,0.469,0.78c-0.029-0.05,0.339-0.343,0.306-0.399
				c-0.156-0.261-0.313-0.521-0.469-0.781C12.33,26.924,11.96,27.217,11.995,27.275z"/>
			<path opacity="0.1091" fill="#754C24" d="M12.749,27.021c0.152,0.271,0.306,0.542,0.459,0.813
				c0.015,0.026,0.439-0.247,0.41-0.292c-0.123-0.188-0.246-0.376-0.368-0.564C13.205,26.907,12.778,27.074,12.749,27.021z"/>
			<path opacity="0.1091" fill="#754C24" d="M13.82,28.557c0.156,0.261,0.312,0.521,0.468,0.781
				c-0.036-0.062,0.312-0.356,0.27-0.426c-0.155-0.26-0.312-0.52-0.468-0.778C14.126,28.191,13.779,28.487,13.82,28.557z"/>
			<path opacity="0.1091" fill="#754C24" d="M11.928,28.444c0.155,0.261,0.312,0.52,0.468,0.779
				c-0.084-0.14-0.082-0.333-0.166-0.475c-0.156-0.26-0.312-0.521-0.468-0.779C11.845,28.108,11.842,28.302,11.928,28.444z"/>
		</g>
	</g>
</g>
<g>
	<g>
		<g>
			<path opacity="0.1091" fill="#754C24" d="M13.679,30.915c0.104,0.221,0.209,0.441,0.313,0.662
				c0.008,0.02,0.468-0.179,0.474-0.169c-0.104-0.22-0.208-0.441-0.312-0.662C14.144,30.726,13.683,30.924,13.679,30.915z"/>
			<path opacity="0.1091" fill="#754C24" d="M12.734,29.829c0.058,0.295,0.116,0.588,0.176,0.883c0.01,0.051,0.48-0.125,0.49-0.112
				c-0.219-0.253-0.438-0.508-0.656-0.761C12.739,29.836,12.736,29.832,12.734,29.829z"/>
			<path opacity="0.1091" fill="#754C24" d="M12.754,28.549c0.104,0.221,0.208,0.442,0.313,0.664
				c0.004,0.01,0.461-0.199,0.462-0.196c-0.104-0.222-0.208-0.443-0.313-0.665C13.213,28.341,12.754,28.55,12.754,28.549z"/>
			<path opacity="0.1091" fill="#754C24" d="M13.811,29.938c0.017,0.129,0.033,0.259,0.05,0.389c0.011,0.08,0.518-0.13,0.443-0.241
				c-0.146-0.216-0.293-0.432-0.44-0.648C13.918,29.521,13.797,29.823,13.811,29.938z"/>
			<path opacity="0.1091" fill="#754C24" d="M13.635,28.267c0.104,0.221,0.208,0.442,0.312,0.664
				c0.048,0.103,0.438,0.041,0.484,0.139c-0.104-0.221-0.208-0.442-0.313-0.663C14.069,28.302,13.681,28.361,13.635,28.267z"/>
			<path opacity="0.1091" fill="#754C24" d="M12.146,29.724c0.104,0.222,0.209,0.443,0.313,0.664
				c-0.06-0.126,0.127-0.369,0.066-0.499c-0.104-0.221-0.208-0.441-0.312-0.663C12.271,29.35,12.084,29.595,12.146,29.724z"/>
			<path opacity="0.1091" fill="#754C24" d="M12.929,30.91c0.104,0.22,0.209,0.441,0.313,0.661c0.046,0.099,0.444,0.027,0.489,0.12
				c-0.104-0.221-0.209-0.441-0.313-0.662C13.371,30.929,12.972,31.001,12.929,30.91z"/>
			<path opacity="0.1091" fill="#754C24" d="M14.532,29.768c0.08,0.219,0.162,0.439,0.244,0.659
				c-0.048-0.129,0.134-0.377,0.065-0.498c-0.126-0.221-0.25-0.44-0.376-0.66C14.537,29.398,14.478,29.623,14.532,29.768z"/>
			<path opacity="0.1091" fill="#754C24" d="M12.424,29.146c0.104,0.222,0.209,0.443,0.313,0.664
				c-0.03-0.066,0.341-0.326,0.306-0.399c-0.104-0.222-0.208-0.441-0.313-0.663C12.76,28.813,12.389,29.073,12.424,29.146z"/>
			<path opacity="0.1091" fill="#754C24" d="M13.177,28.891c0.105,0.233,0.209,0.466,0.314,0.7c0.006,0.014,0.454-0.215,0.436-0.251
				c-0.083-0.164-0.166-0.329-0.249-0.494C13.647,28.786,13.196,28.935,13.177,28.891z"/>
			<path opacity="0.1091" fill="#754C24" d="M14.251,30.43c0.104,0.222,0.208,0.442,0.311,0.663c-0.036-0.078,0.31-0.34,0.27-0.425
				c-0.104-0.221-0.208-0.442-0.312-0.662C14.557,30.082,14.21,30.345,14.251,30.43z"/>
			<path opacity="0.1091" fill="#754C24" d="M12.351,30.305c0.106,0.225,0.213,0.45,0.318,0.675
				c-0.071-0.15-0.094-0.324-0.165-0.476c-0.103-0.217-0.205-0.435-0.307-0.65C12.234,29.932,12.292,30.179,12.351,30.305z"/>
		</g>
	</g>
</g>
<g>
	<g>
		<g>
			<path opacity="0.1091" fill="#754C24" d="M14.817,13.624c0.054-0.091,0.109-0.183,0.163-0.272
				c-0.158,0.055-0.315,0.112-0.473,0.169c0.375,0.126,0.563,0.322,0.811,0.625c0.04,0.048,0.441-0.209,0.475-0.169
				c-0.249-0.303-0.436-0.5-0.813-0.625c-0.052-0.018-0.445,0.122-0.473,0.169c-0.055,0.09-0.109,0.181-0.165,0.272
				C14.407,13.685,14.748,13.737,14.817,13.624z"/>
			<path opacity="0.1091" fill="#754C24" d="M13.527,12.855c0.079-0.144,0.158-0.287,0.235-0.429
				C13.685,12.569,13.606,12.711,13.527,12.855c0.31,0.053,0.53,0.238,0.659,0.555c0.09,0.137,0.305-0.328,0.245-0.416
				c-0.189-0.284-0.336-0.479-0.668-0.585C13.708,12.393,13.524,12.854,13.527,12.855z"/>
			<path opacity="0.1091" fill="#754C24" d="M13.881,11.23c0.054-0.093,0.108-0.184,0.162-0.275
				c-0.153,0.065-0.309,0.13-0.462,0.197c0.376,0.125,0.562,0.32,0.811,0.623c0.033,0.041,0.436-0.228,0.462-0.196
				c-0.249-0.303-0.435-0.499-0.811-0.623c-0.05-0.017-0.435,0.148-0.462,0.197c-0.054,0.091-0.109,0.184-0.164,0.275
				C13.485,11.313,13.811,11.348,13.881,11.23z"/>
			<path opacity="0.1091" fill="#754C24" d="M14.482,12.817c0.068-0.215,0.136-0.431,0.204-0.645
				c-0.047,0.115-0.093,0.229-0.139,0.342c0.321,0.106,0.431,0.256,0.608,0.54c0.105,0.167,0.318-0.31,0.245-0.419
				c-0.195-0.296-0.354-0.484-0.696-0.598c-0.019,0.007-0.032,0.022-0.036,0.044c-0.044,0.079-0.089,0.158-0.133,0.235
				C14.46,12.451,14.529,12.67,14.482,12.817z"/>
			<path opacity="0.1091" fill="#754C24" d="M14.781,11.285c0.056-0.093,0.109-0.184,0.165-0.277
				c-0.158-0.044-0.314-0.088-0.472-0.134c0.342,0.122,0.607,0.328,0.8,0.619c0.09,0.109,0.399,0.035,0.484,0.14
				c-0.264-0.321-0.441-0.502-0.825-0.629c-0.048-0.016-0.457-0.159-0.471-0.133c-0.055,0.092-0.109,0.183-0.165,0.276
				C14.317,11.112,14.757,11.325,14.781,11.285z"/>
			<path opacity="0.1091" fill="#754C24" d="M12.809,12.602c0.322-0.545,0.681-0.004,0.973,0.351
				c-0.071-0.084,0.141-0.407,0.066-0.499c-0.291-0.354-0.651-0.896-0.972-0.35C12.796,12.238,12.886,12.471,12.809,12.602z"/>
			<path opacity="0.1091" fill="#754C24" d="M14.081,13.908c0.055-0.092,0.109-0.183,0.163-0.274
				c-0.158-0.037-0.317-0.076-0.476-0.115c0.339,0.125,0.605,0.332,0.799,0.623c0.087,0.105,0.405,0.018,0.488,0.119
				c-0.263-0.319-0.44-0.502-0.823-0.631c-0.048-0.017-0.459-0.141-0.476-0.115c-0.054,0.092-0.108,0.182-0.164,0.273
				C13.615,13.749,14.054,13.953,14.081,13.908z"/>
			<path opacity="0.1091" fill="#754C24" d="M15.196,12.645c0.052-0.242,0.104-0.484,0.156-0.727
				c-0.042,0.144-0.084,0.29-0.126,0.433c0.327,0.108,0.454,0.27,0.642,0.552c0.078,0.117,0.269-0.349,0.21-0.433
				c-0.212-0.3-0.374-0.49-0.728-0.606c-0.004,0.002-0.008,0.007-0.011,0.009c-0.07,0.092-0.141,0.182-0.21,0.273
				C15.058,12.238,15.221,12.53,15.196,12.645z"/>
			<path opacity="0.1091" fill="#754C24" d="M13.396,11.628c0.052-0.089,0.104-0.176,0.156-0.265c-0.1,0.13-0.199,0.259-0.299,0.388
				c0.375,0.126,0.561,0.323,0.81,0.625c-0.021-0.025,0.333-0.366,0.306-0.399c-0.248-0.303-0.435-0.5-0.81-0.624
				c-0.032-0.011-0.274,0.342-0.3,0.387c-0.055,0.096-0.112,0.191-0.169,0.287C13.174,11.884,13.311,11.771,13.396,11.628z"/>
			<path opacity="0.1091" fill="#754C24" d="M14.341,11.718c0.158,0.03,0.346,0.398,0.425,0.523
				c0.083,0.131,0.274-0.339,0.209-0.435c-0.208-0.308-0.37-0.49-0.725-0.605c-0.004,0.004-0.007,0.008-0.011,0.011
				c-0.133,0.184-0.266,0.367-0.398,0.55C13.866,11.725,14.281,11.707,14.341,11.718z"/>
			<path opacity="0.1091" fill="#754C24" d="M15.178,12.896c-0.035,0.064,0.634,0.677,0.706,0.767
				c-0.026-0.032,0.255-0.378,0.186-0.468c-0.229-0.296-0.401-0.486-0.761-0.605c-0.012,0.012-0.022,0.028-0.029,0.044
				C14.561,13.953,15.013,13.21,15.178,12.896z"/>
			<path opacity="0.1091" fill="#754C24" d="M13.021,13.195c0.322-0.545,0.682-0.003,0.971,0.352
				c-0.098-0.121-0.063-0.353-0.165-0.476c-0.291-0.353-0.65-0.896-0.973-0.352C12.797,12.815,13.074,13.104,13.021,13.195z"/>
		</g>
	</g>
</g>
<g>
	<g>
		<g>
			<path opacity="0.1091" fill="#754C24" d="M14.85,12.662c0.325,0.064,0.649,0.129,0.975,0.194
				c0.142,0.029,0.333-0.196,0.475-0.169c-0.325-0.065-0.65-0.13-0.976-0.193C15.181,12.464,14.988,12.689,14.85,12.662z"/>
			<path opacity="0.1091" fill="#754C24" d="M14.165,12.006c0.325,0.065,0.65,0.13,0.976,0.195
				c-0.111-0.022-0.151-0.405-0.264-0.428c-0.325-0.065-0.651-0.13-0.976-0.195C14.01,11.6,14.05,11.983,14.165,12.006z"/>
			<path opacity="0.1091" fill="#754C24" d="M13.925,10.296c0.326,0.065,0.649,0.13,0.975,0.195
				c0.137,0.027,0.328-0.225,0.464-0.197c-0.326-0.065-0.651-0.13-0.976-0.196C14.251,10.072,14.058,10.323,13.925,10.296z"/>
			<path opacity="0.1091" fill="#754C24" d="M14.99,11.686c0.302,0.06,0.602,0.121,0.902,0.181c0.02,0.004,0.117-0.49,0.094-0.494
				c-0.314-0.062-0.63-0.126-0.944-0.188C15.055,11.188,14.972,11.682,14.99,11.686z"/>
			<path opacity="0.1091" fill="#754C24" d="M15.276,10.149c0.33,0.067,0.657,0.133,0.987,0.2c-0.163-0.033-0.318-0.107-0.483-0.14
				c-0.321-0.065-0.641-0.128-0.962-0.194C14.904,10.033,15.139,10.124,15.276,10.149z"/>
			<path opacity="0.1091" fill="#754C24" d="M13.316,11.472c0.325,0.065,0.65,0.13,0.975,0.195c-0.008-0.002,0.08-0.497,0.068-0.498
				c-0.326-0.065-0.651-0.132-0.976-0.197C13.39,10.973,13.301,11.469,13.316,11.472z"/>
			<path opacity="0.1091" fill="#754C24" d="M14.576,12.774c0.329,0.065,0.657,0.131,0.987,0.196
				c-0.164-0.032-0.324-0.087-0.487-0.12c-0.321-0.064-0.642-0.127-0.963-0.192C14.2,12.676,14.439,12.746,14.576,12.774z"/>
			<path opacity="0.1091" fill="#754C24" d="M15.703,11.514c0.325,0.065,0.65,0.13,0.975,0.195c-0.05-0.011-0.01-0.487-0.066-0.498
				c-0.326-0.066-0.649-0.132-0.975-0.197C15.686,11.024,15.646,11.502,15.703,11.514z"/>
			<path opacity="0.1091" fill="#754C24" d="M13.598,10.896c0.325,0.065,0.65,0.13,0.974,0.195c0.075,0.015,0.237-0.414,0.307-0.398
				c-0.325-0.065-0.65-0.132-0.976-0.197C13.826,10.48,13.665,10.91,13.598,10.896z"/>
			<path opacity="0.1091" fill="#754C24" d="M14.346,10.63c0.325,0.065,0.65,0.131,0.976,0.197c0.158,0.032,0.344-0.076,0.501-0.044
				c-0.325-0.066-0.651-0.131-0.976-0.197C14.689,10.554,14.502,10.662,14.346,10.63z"/>
			<path opacity="0.1091" fill="#754C24" d="M15.419,12.175c0.324,0.065,0.649,0.13,0.975,0.195c0.062,0.013,0.213-0.436,0.27-0.425
				c-0.325-0.065-0.65-0.129-0.974-0.194C15.624,11.737,15.473,12.186,15.419,12.175z"/>
			<path opacity="0.1091" fill="#754C24" d="M13.528,12.063c0.324,0.065,0.649,0.13,0.974,0.195
				c-0.082-0.017-0.08-0.458-0.165-0.475c-0.325-0.065-0.65-0.13-0.976-0.195C13.442,11.604,13.441,12.046,13.528,12.063z"/>
		</g>
	</g>
</g>
<g>
	<g>
		<g>
			<path opacity="0.1091" fill="#754C24" d="M15.358,11.377c0.22,0.103,0.441,0.206,0.663,0.31c0.111,0.052,0.37-0.217,0.473-0.169
				c-0.221-0.104-0.441-0.206-0.663-0.31C15.719,11.156,15.46,11.424,15.358,11.377z"/>
			<path opacity="0.1091" fill="#754C24" d="M14.681,10.696c0.091,0.086,0.183,0.17,0.274,0.255
				c0.069,0.063,0.351-0.392,0.292-0.411c-0.272-0.087-0.545-0.176-0.816-0.263C14.505,10.3,14.604,10.626,14.681,10.696z"/>
			<path opacity="0.1091" fill="#754C24" d="M14.431,9.005c0.22,0.104,0.441,0.209,0.663,0.313c0.104,0.05,0.365-0.242,0.463-0.197
				c-0.221-0.104-0.443-0.209-0.664-0.313C14.788,8.759,14.526,9.051,14.431,9.005z"/>
			<path opacity="0.1091" fill="#754C24" d="M15.462,10.395c0.141,0.072,0.282,0.144,0.423,0.216
				c0.149,0.076,0.352-0.394,0.191-0.465c-0.187-0.084-0.375-0.167-0.562-0.25C15.531,9.902,15.387,10.357,15.462,10.395z"/>
			<path opacity="0.1091" fill="#754C24" d="M15.314,8.723c0.22,0.104,0.441,0.208,0.663,0.313c0.149,0.07,0.333,0.069,0.483,0.14
				c-0.222-0.105-0.442-0.209-0.663-0.314C15.646,8.791,15.462,8.792,15.314,8.723z"/>
			<path opacity="0.1091" fill="#754C24" d="M13.819,10.183c0.222,0.104,0.443,0.209,0.665,0.313
				c-0.042-0.02,0.118-0.475,0.066-0.498c-0.222-0.105-0.443-0.209-0.663-0.313C13.925,9.703,13.768,10.159,13.819,10.183z"/>
			<path opacity="0.1091" fill="#754C24" d="M14.605,11.373c0.222,0.103,0.443,0.207,0.665,0.31c0.149,0.071,0.34,0.051,0.488,0.121
				c-0.221-0.104-0.443-0.208-0.664-0.312C14.944,11.421,14.753,11.441,14.605,11.373z"/>
			<path opacity="0.1091" fill="#754C24" d="M16.198,10.229c0.152,0.086,0.306,0.172,0.458,0.257c0.036,0.021,0.24-0.445,0.17-0.473
				c-0.232-0.094-0.464-0.188-0.696-0.282C16.197,9.756,16.109,10.179,16.198,10.229z"/>
			<path opacity="0.1091" fill="#754C24" d="M14.104,9.608c0.194,0.073,0.388,0.148,0.582,0.223
				c0.098,0.036,0.362-0.276,0.448-0.231c-0.242-0.13-0.483-0.26-0.724-0.392C14.371,9.188,14.132,9.62,14.104,9.608z"/>
			<path opacity="0.1091" fill="#754C24" d="M14.857,9.377c0.239,0.156,0.478,0.313,0.717,0.469c0.061,0.04,0.227-0.479,0.121-0.489
				c-0.118-0.011-0.234-0.022-0.35-0.033C15.246,9.316,14.914,9.415,14.857,9.377z"/>
			<path opacity="0.1091" fill="#754C24" d="M15.921,10.886c0.212,0.1,0.425,0.201,0.637,0.302c0.033,0.016,0.253-0.437,0.229-0.448
				c-0.198-0.093-0.396-0.186-0.595-0.278C16.162,10.447,15.93,10.889,15.921,10.886z"/>
			<path opacity="0.1091" fill="#754C24" d="M14.031,10.777c0.221,0.104,0.443,0.208,0.664,0.311
				c-0.102-0.047-0.057-0.423-0.166-0.475c-0.221-0.104-0.443-0.208-0.664-0.312C13.967,10.349,13.92,10.726,14.031,10.777z"/>
		</g>
	</g>
</g>
<g>
	<g>
		<g>
			<path opacity="0.1091" fill="#754C24" d="M15.902,9.813c0.222,0.104,0.443,0.208,0.663,0.311c0.111,0.053,0.37-0.217,0.475-0.168
				c-0.221-0.104-0.443-0.208-0.663-0.312C16.266,9.593,16.007,9.863,15.902,9.813z"/>
			<path opacity="0.1091" fill="#754C24" d="M15.218,9.159c0.093,0.053,0.186,0.105,0.277,0.158
				c0.109,0.063,0.374-0.181,0.486-0.131c-0.342-0.152-0.685-0.303-1.027-0.456C15.079,8.785,15.095,9.086,15.218,9.159z"/>
			<path opacity="0.1091" fill="#754C24" d="M14.978,7.448c0.221,0.105,0.443,0.209,0.663,0.313
				c0.104,0.048,0.366-0.244,0.464-0.197c-0.221-0.104-0.443-0.209-0.663-0.313C15.336,7.203,15.076,7.495,14.978,7.448z"/>
			<path opacity="0.1091" fill="#754C24" d="M16.041,8.837c0.155,0.079,0.31,0.157,0.463,0.234c0.076,0.039,0.29-0.422,0.208-0.458
				c-0.207-0.091-0.413-0.184-0.619-0.275C16.139,8.357,15.986,8.811,16.041,8.837z"/>
			<path opacity="0.1091" fill="#754C24" d="M15.858,7.166c0.221,0.105,0.443,0.209,0.663,0.313c0.151,0.07,0.335,0.069,0.484,0.14
				c-0.221-0.104-0.443-0.209-0.663-0.313C16.191,7.235,16.007,7.236,15.858,7.166z"/>
			<path opacity="0.1091" fill="#754C24" d="M14.368,8.625c0.222,0.104,0.443,0.208,0.665,0.311
				c-0.043-0.019,0.115-0.476,0.066-0.498c-0.221-0.104-0.443-0.209-0.663-0.313C14.478,8.144,14.318,8.601,14.368,8.625z"/>
			<path opacity="0.1091" fill="#754C24" d="M15.153,9.809c0.22,0.104,0.441,0.208,0.663,0.312c0.15,0.07,0.341,0.05,0.489,0.119
				c-0.221-0.104-0.443-0.208-0.665-0.312C15.491,9.859,15.3,9.878,15.153,9.809z"/>
			<path opacity="0.1091" fill="#754C24" d="M16.756,8.666c0.222,0.105,0.441,0.209,0.663,0.313
				c-0.079-0.037,0.018-0.458-0.068-0.498c-0.22-0.104-0.441-0.209-0.662-0.313C16.767,8.205,16.67,8.626,16.756,8.666z"/>
			<path opacity="0.1091" fill="#754C24" d="M14.649,8.048c0.221,0.104,0.443,0.208,0.665,0.312
				c0.036,0.018,0.276-0.412,0.306-0.398c-0.222-0.104-0.443-0.209-0.665-0.313C14.918,7.632,14.677,8.061,14.649,8.048z"/>
			<path opacity="0.1091" fill="#754C24" d="M15.399,7.786c0.298,0.177,0.594,0.353,0.892,0.53
				c-0.043-0.026,0.054-0.493-0.003-0.504c-0.13-0.023-0.259-0.047-0.388-0.071C15.772,7.718,15.503,7.848,15.399,7.786z"/>
			<path opacity="0.1091" fill="#754C24" d="M16.474,9.329c0.221,0.104,0.441,0.208,0.663,0.311c0.022,0.011,0.253-0.432,0.27-0.423
				c-0.222-0.104-0.442-0.208-0.663-0.312C16.72,8.894,16.489,9.336,16.474,9.329z"/>
			<path opacity="0.1091" fill="#754C24" d="M14.58,9.215c0.222,0.104,0.443,0.208,0.663,0.312
				c-0.104-0.048-0.057-0.424-0.165-0.475c-0.222-0.104-0.443-0.208-0.665-0.312C14.518,8.789,14.471,9.164,14.58,9.215z"/>
		</g>
	</g>
</g>
<g>
	<g>
		<g>
			<path opacity="0.1091" fill="#754C24" d="M16.371,9.111c0.195,0.039,0.389,0.078,0.584,0.118
				c0.144,0.028,0.336-0.196,0.475-0.168c-0.195-0.039-0.391-0.079-0.585-0.118C16.702,8.914,16.51,9.139,16.371,9.111z"/>
			<path opacity="0.1091" fill="#754C24" d="M15.686,8.457c0.115,0.044,0.229,0.09,0.343,0.134c0.03,0.011,0.173-0.471,0.179-0.471
				c-0.262-0.03-0.525-0.061-0.786-0.091C15.524,8.04,15.58,8.416,15.686,8.457z"/>
			<path opacity="0.1091" fill="#754C24" d="M15.447,6.748c0.193,0.039,0.389,0.078,0.584,0.116c0.138,0.028,0.33-0.223,0.463-0.197
				c-0.195-0.039-0.39-0.079-0.585-0.117C15.772,6.522,15.58,6.774,15.447,6.748z"/>
			<path opacity="0.1091" fill="#754C24" d="M16.512,8.136c0.136,0.028,0.273,0.055,0.409,0.083
				c0.134,0.028,0.232-0.466,0.098-0.493c-0.152-0.03-0.303-0.061-0.454-0.09C16.578,7.639,16.494,8.133,16.512,8.136z"/>
			<path opacity="0.1091" fill="#754C24" d="M16.81,6.604c0.191,0.039,0.38,0.076,0.571,0.115c-0.085-0.018-0.321-0.108-0.457-0.134
				c-0.199-0.04-0.398-0.08-0.598-0.12C16.49,6.497,16.645,6.57,16.81,6.604z"/>
			<path opacity="0.1091" fill="#754C24" d="M14.837,7.921c0.195,0.04,0.391,0.079,0.584,0.118
				c-0.006-0.001,0.083-0.496,0.068-0.499c-0.195-0.039-0.391-0.079-0.586-0.118C14.912,7.424,14.824,7.918,14.837,7.921z"/>
			<path opacity="0.1091" fill="#754C24" d="M16.097,9.224c0.194,0.039,0.389,0.079,0.584,0.118
				c-0.087-0.018-0.325-0.088-0.462-0.116c-0.195-0.039-0.39-0.078-0.585-0.116C15.721,9.125,15.96,9.196,16.097,9.224z"/>
			<path opacity="0.1091" fill="#754C24" d="M17.224,7.964c0.195,0.039,0.391,0.079,0.585,0.117
				c-0.048-0.009-0.009-0.487-0.066-0.498c-0.195-0.04-0.39-0.079-0.585-0.118C17.207,7.476,17.167,7.953,17.224,7.964z"/>
			<path opacity="0.1091" fill="#754C24" d="M15.119,7.345c0.195,0.041,0.389,0.079,0.584,0.118
				c0.078,0.016,0.239-0.412,0.306-0.398c-0.194-0.04-0.389-0.079-0.584-0.118C15.348,6.932,15.187,7.359,15.119,7.345z"/>
			<path opacity="0.1091" fill="#754C24" d="M15.867,7.081c0.258,0.112,0.515,0.224,0.772,0.338
				c0.025,0.011,0.076-0.508,0.043-0.502C16.41,6.972,16.139,7.026,15.867,7.081z"/>
			<path opacity="0.1091" fill="#754C24" d="M16.938,8.626c0.195,0.039,0.391,0.077,0.585,0.116c0.064,0.014,0.216-0.435,0.27-0.424
				c-0.195-0.039-0.39-0.079-0.585-0.118C17.145,8.188,16.994,8.637,16.938,8.626z"/>
			<path opacity="0.1091" fill="#754C24" d="M15.049,8.514c0.194,0.039,0.389,0.078,0.584,0.118
				c-0.08-0.017-0.079-0.458-0.166-0.476c-0.194-0.039-0.389-0.078-0.584-0.116C14.963,8.054,14.962,8.496,15.049,8.514z"/>
		</g>
	</g>
</g>
<g>
	<g>
		<g>
			<path opacity="0.1091" fill="#754C24" d="M17.229,8.176c0.143,0.065,0.285,0.13,0.429,0.195c0.112,0.051,0.368-0.217,0.474-0.169
				c-0.143-0.065-0.287-0.13-0.429-0.195C17.589,7.956,17.334,8.224,17.229,8.176z"/>
			<path opacity="0.1091" fill="#754C24" d="M16.306,7.138c0.103,0.174,0.205,0.348,0.309,0.521c0.08,0.136,0.339-0.401,0.247-0.423
				c-0.194-0.047-0.388-0.096-0.582-0.143C16.287,7.109,16.296,7.124,16.306,7.138z"/>
			<path opacity="0.1091" fill="#754C24" d="M16.303,5.811c0.144,0.065,0.287,0.13,0.429,0.195c0.106,0.048,0.364-0.243,0.464-0.197
				c-0.144-0.065-0.287-0.13-0.429-0.195C16.661,5.565,16.403,5.856,16.303,5.811z"/>
			<path opacity="0.1091" fill="#754C24" d="M17.368,7.2c0.081,0.042,0.159,0.082,0.24,0.123c0.123,0.064,0.335-0.405,0.202-0.461
				c-0.128-0.054-0.259-0.108-0.389-0.163C17.465,6.718,17.315,7.172,17.368,7.2z"/>
			<path opacity="0.1091" fill="#754C24" d="M17.185,5.528c0.143,0.065,0.285,0.13,0.429,0.195c0.151,0.069,0.333,0.071,0.483,0.139
				c-0.144-0.065-0.287-0.13-0.429-0.195C17.516,5.599,17.334,5.596,17.185,5.528z"/>
			<path opacity="0.1091" fill="#754C24" d="M15.694,6.985c0.144,0.065,0.287,0.13,0.429,0.195
				c-0.039-0.018,0.116-0.476,0.068-0.498c-0.143-0.065-0.287-0.13-0.429-0.195C15.802,6.505,15.647,6.963,15.694,6.985z"/>
			<path opacity="0.1091" fill="#754C24" d="M16.479,8.17c0.143,0.065,0.285,0.13,0.429,0.195c0.151,0.069,0.339,0.052,0.489,0.12
				c-0.144-0.065-0.287-0.13-0.429-0.195C16.817,8.222,16.627,8.238,16.479,8.17z"/>
			<path opacity="0.1091" fill="#754C24" d="M18.082,7.028c0.104,0.06,0.208,0.121,0.312,0.182
				c-0.007-0.004,0.184-0.467,0.141-0.483c-0.173-0.066-0.346-0.131-0.519-0.196C18.092,6.558,18.001,6.981,18.082,7.028z"/>
			<path opacity="0.1091" fill="#754C24" d="M15.975,6.41c0.144,0.065,0.287,0.13,0.431,0.195c0.04,0.02,0.277-0.411,0.306-0.398
				c-0.144-0.065-0.287-0.13-0.429-0.195C16.243,5.993,16.006,6.424,15.975,6.41z"/>
			<path opacity="0.1091" fill="#754C24" d="M16.726,6.147c0.161,0.119,0.32,0.238,0.479,0.358c0.087,0.063,0.332-0.499,0.152-0.468
				c-0.206,0.036-0.412,0.07-0.619,0.106C16.734,6.146,16.729,6.146,16.726,6.147z"/>
			<path opacity="0.1091" fill="#754C24" d="M17.8,7.691c0.143,0.065,0.286,0.13,0.429,0.195c0.026,0.011,0.255-0.432,0.27-0.425
				c-0.143-0.065-0.285-0.13-0.429-0.195C18.044,7.255,17.816,7.698,17.8,7.691z"/>
			<path opacity="0.1091" fill="#754C24" d="M15.906,7.578c0.143,0.065,0.287,0.13,0.429,0.195
				c-0.101-0.047-0.057-0.426-0.166-0.475c-0.143-0.065-0.285-0.131-0.429-0.196C15.842,7.149,15.798,7.528,15.906,7.578z"/>
		</g>
	</g>
</g>
<g>
	<g>
		<g>
			<path opacity="0.1091" fill="#754C24" d="M17.618,7.396c0.118,0.077,0.234,0.155,0.352,0.232
				c0.084,0.057,0.392-0.223,0.474-0.169c-0.116-0.078-0.234-0.154-0.351-0.231C18.006,7.169,17.7,7.449,17.618,7.396z"/>
			<path opacity="0.1091" fill="#754C24" d="M16.935,6.741c0.116,0.077,0.234,0.156,0.352,0.234
				c-0.126-0.084-0.137-0.343-0.266-0.428c-0.116-0.078-0.234-0.156-0.352-0.234C16.795,6.396,16.806,6.656,16.935,6.741z"/>
			<path opacity="0.1091" fill="#754C24" d="M16.694,5.031c0.118,0.078,0.235,0.156,0.352,0.235
				c0.077,0.051,0.387-0.248,0.463-0.198c-0.118-0.077-0.235-0.156-0.352-0.234C17.079,4.781,16.767,5.08,16.694,5.031z"/>
			<path opacity="0.1091" fill="#754C24" d="M17.759,6.421c0.083,0.065,0.166,0.131,0.25,0.198c-0.01-0.007,0.257-0.432,0.231-0.445
				c-0.143-0.084-0.285-0.169-0.428-0.253C17.875,5.957,17.696,6.368,17.759,6.421z"/>
			<path opacity="0.1091" fill="#754C24" d="M17.574,4.749c0.118,0.077,0.234,0.156,0.352,0.235c0.133,0.088,0.351,0.05,0.483,0.138
				c-0.118-0.078-0.234-0.156-0.35-0.235C17.924,4.797,17.706,4.836,17.574,4.749z"/>
			<path opacity="0.1091" fill="#754C24" d="M16.086,6.207c0.116,0.077,0.234,0.155,0.352,0.234c-0.06-0.041,0.13-0.458,0.068-0.499
				c-0.118-0.079-0.235-0.156-0.353-0.235C16.21,5.746,16.021,6.164,16.086,6.207z"/>
			<path opacity="0.1091" fill="#754C24" d="M16.87,7.391c0.116,0.076,0.234,0.154,0.35,0.231c0.133,0.089,0.358,0.033,0.49,0.121
				c-0.118-0.078-0.235-0.155-0.352-0.232C17.225,7.423,17,7.477,16.87,7.391z"/>
			<path opacity="0.1091" fill="#754C24" d="M18.472,6.249c0.116,0.078,0.234,0.155,0.35,0.234c-0.09-0.061,0.028-0.436-0.066-0.5
				c-0.118-0.078-0.234-0.155-0.35-0.234C18.495,5.809,18.377,6.186,18.472,6.249z"/>
			<path opacity="0.1091" fill="#754C24" d="M16.366,5.63c0.118,0.078,0.235,0.157,0.353,0.235c0.011,0.007,0.299-0.404,0.306-0.4
				c-0.118-0.078-0.235-0.156-0.352-0.235C16.659,5.222,16.371,5.633,16.366,5.63z"/>
			<path opacity="0.1091" fill="#754C24" d="M17.116,5.365c0.116,0.079,0.234,0.156,0.352,0.235
				c0.109,0.073,0.393-0.116,0.501-0.044c-0.118-0.079-0.235-0.156-0.352-0.235C17.506,5.247,17.222,5.437,17.116,5.365z"/>
			<path opacity="0.1091" fill="#754C24" d="M18.187,6.91c0.116,0.077,0.234,0.155,0.35,0.234c0-0.001,0.276-0.421,0.27-0.425
				c-0.116-0.077-0.234-0.155-0.35-0.234C18.456,6.484,18.18,6.905,18.187,6.91z"/>
			<path opacity="0.1091" fill="#754C24" d="M16.296,6.797c0.118,0.078,0.235,0.156,0.353,0.234
				c-0.111-0.073-0.054-0.401-0.166-0.475c-0.118-0.079-0.235-0.157-0.352-0.234C16.24,6.395,16.183,6.723,16.296,6.797z"/>
		</g>
	</g>
</g>
<g>
	<g>
		<g>
			<path opacity="0.1091" fill="#754C24" d="M18.438,6.655c0.078,0.051,0.157,0.103,0.234,0.154
				c0.086,0.057,0.392-0.223,0.474-0.169c-0.078-0.051-0.155-0.103-0.234-0.154C18.825,6.428,18.52,6.709,18.438,6.655z"/>
			<path opacity="0.1091" fill="#754C24" d="M17.752,5.999c0.079,0.053,0.156,0.104,0.235,0.157
				c-0.126-0.084-0.137-0.343-0.264-0.428c-0.079-0.053-0.157-0.104-0.235-0.157C17.614,5.655,17.625,5.914,17.752,5.999z"/>
			<path opacity="0.1091" fill="#754C24" d="M17.513,4.291c0.079,0.051,0.156,0.104,0.235,0.157
				c0.077,0.051,0.387-0.248,0.462-0.198c-0.077-0.051-0.156-0.104-0.234-0.156C17.898,4.042,17.588,4.34,17.513,4.291z"/>
			<path opacity="0.1091" fill="#754C24" d="M18.58,5.679c0.063,0.048,0.124,0.097,0.184,0.145c-0.037-0.029,0.192-0.455,0.149-0.48
				c-0.092-0.056-0.187-0.111-0.281-0.165C18.696,5.217,18.517,5.629,18.58,5.679z"/>
			<path opacity="0.1091" fill="#754C24" d="M18.394,4.007c0.077,0.053,0.156,0.105,0.234,0.158c0.133,0.089,0.352,0.051,0.483,0.14
				c-0.078-0.053-0.156-0.105-0.234-0.158C18.744,4.058,18.525,4.096,18.394,4.007z"/>
			<path opacity="0.1091" fill="#754C24" d="M16.905,5.464c0.078,0.053,0.157,0.104,0.235,0.156
				c-0.061-0.04,0.129-0.458,0.066-0.498c-0.079-0.053-0.156-0.104-0.235-0.156C17.031,5.005,16.842,5.423,16.905,5.464z"/>
			<path opacity="0.1091" fill="#754C24" d="M17.688,6.648c0.079,0.053,0.156,0.104,0.235,0.155
				c0.131,0.087,0.357,0.033,0.488,0.121c-0.079-0.051-0.156-0.104-0.235-0.155C18.044,6.681,17.819,6.735,17.688,6.648z"/>
			<path opacity="0.1091" fill="#754C24" d="M19.288,5.507c0.079,0.053,0.156,0.104,0.234,0.156c-0.09-0.06,0.028-0.436-0.066-0.498
				c-0.079-0.053-0.157-0.104-0.234-0.156C19.31,5.068,19.193,5.445,19.288,5.507z"/>
			<path opacity="0.1091" fill="#754C24" d="M17.185,4.889c0.079,0.053,0.156,0.105,0.235,0.156
				c0.011,0.008,0.299-0.404,0.306-0.398c-0.079-0.053-0.156-0.104-0.235-0.156C17.479,4.482,17.192,4.893,17.185,4.889z"/>
			<path opacity="0.1091" fill="#754C24" d="M17.934,4.625c0.079,0.052,0.156,0.104,0.235,0.156
				c0.109,0.073,0.393-0.116,0.501-0.044c-0.079-0.053-0.157-0.105-0.234-0.156C18.326,4.507,18.042,4.695,17.934,4.625z"/>
			<path opacity="0.1091" fill="#754C24" d="M19.005,6.167c0.079,0.053,0.156,0.104,0.234,0.156c0-0.001,0.275-0.42,0.27-0.425
				c-0.077-0.051-0.155-0.104-0.234-0.155C19.275,5.743,19,6.164,19.005,6.167z"/>
			<path opacity="0.1091" fill="#754C24" d="M17.116,6.057c0.079,0.051,0.158,0.103,0.235,0.155
				c-0.111-0.073-0.054-0.401-0.165-0.475c-0.079-0.053-0.158-0.104-0.235-0.157C17.061,5.654,17.004,5.982,17.116,6.057z"/>
		</g>
	</g>
</g>
<g>
	<g>
		<g>
			<path opacity="0.1091" fill="#754C24" d="M18.684,5.638c-0.162,0-0.325-0.121-0.489-0.121
				C18.357,5.517,18.521,5.638,18.684,5.638z"/>
			<path opacity="0.1091" fill="#754C24" d="M18.946,5.522c0.155,0.118,0.311,0.234,0.466,0.35c0.075,0.056,0.4-0.224,0.473-0.168
				c-0.155-0.117-0.311-0.233-0.466-0.351C19.341,5.297,19.016,5.577,18.946,5.522z"/>
			<path opacity="0.1091" fill="#754C24" d="M18.26,4.868c0.157,0.118,0.312,0.234,0.468,0.352
				c-0.125-0.094-0.139-0.335-0.265-0.429c-0.156-0.116-0.313-0.233-0.469-0.35C18.119,4.533,18.135,4.774,18.26,4.868z"/>
			<path opacity="0.1091" fill="#754C24" d="M18.02,3.159c0.157,0.118,0.313,0.235,0.469,0.352c0.066,0.051,0.396-0.247,0.464-0.195
				c-0.157-0.118-0.313-0.235-0.469-0.353C18.414,2.909,18.084,3.207,18.02,3.159z"/>
			<path opacity="0.1091" fill="#754C24" d="M19.087,4.548c0.156,0.116,0.312,0.234,0.468,0.35c-0.068-0.05,0.122-0.447,0.053-0.5
				c-0.157-0.118-0.313-0.234-0.468-0.352C19.206,4.098,19.016,4.494,19.087,4.548z"/>
			<path opacity="0.1091" fill="#754C24" d="M18.9,2.876c0.156,0.118,0.313,0.235,0.468,0.352c0.126,0.096,0.358,0.047,0.483,0.142
				c-0.155-0.118-0.311-0.235-0.466-0.353C19.258,2.92,19.024,2.969,18.9,2.876z"/>
			<path opacity="0.1091" fill="#754C24" d="M17.412,4.333c0.156,0.116,0.313,0.234,0.469,0.352c-0.065-0.05,0.133-0.45,0.066-0.5
				c-0.156-0.116-0.313-0.234-0.469-0.35C17.542,3.882,17.344,4.282,17.412,4.333z"/>
			<path opacity="0.1091" fill="#754C24" d="M19.795,4.376c0.155,0.118,0.312,0.234,0.466,0.352c-0.093-0.07,0.029-0.426-0.068-0.5
				c-0.155-0.116-0.31-0.234-0.465-0.35C19.82,3.946,19.699,4.303,19.795,4.376z"/>
			<path opacity="0.1091" fill="#754C24" d="M17.693,3.758c0.157,0.118,0.313,0.235,0.469,0.352
				c0.001,0.003,0.306-0.398,0.306-0.398c-0.157-0.118-0.313-0.235-0.469-0.352C17.993,3.355,17.69,3.756,17.693,3.758z"/>
			<path opacity="0.1091" fill="#754C24" d="M18.442,3.492c0.156,0.118,0.312,0.235,0.468,0.353
				c0.101,0.075,0.403-0.119,0.501-0.044c-0.156-0.118-0.312-0.235-0.468-0.353C18.842,3.372,18.539,3.565,18.442,3.492z"/>
			<path opacity="0.1091" fill="#754C24" d="M19.513,5.037c0.155,0.116,0.312,0.234,0.466,0.35c-0.008-0.005,0.282-0.415,0.27-0.425
				c-0.155-0.116-0.31-0.232-0.466-0.349C19.79,4.617,19.499,5.027,19.513,5.037z"/>
			<path opacity="0.1091" fill="#754C24" d="M17.624,4.925c0.155,0.118,0.311,0.234,0.468,0.352
				c-0.111-0.083-0.053-0.393-0.165-0.476c-0.156-0.117-0.313-0.234-0.469-0.351C17.567,4.532,17.51,4.84,17.624,4.925z"/>
		</g>
	</g>
</g>
<g>
	<g>
		<g>
			<path opacity="0.1091" fill="#754C24" d="M21.254,6.374c0.396,0-1.069-1.956-1.593-1.956C19.267,4.418,20.729,6.374,21.254,6.374
				z"/>
			<path opacity="0.1091" fill="#754C24" d="M19.917,5.283c0.473,0-0.54-1.271-0.914-1.271C18.532,4.013,19.545,5.283,19.917,5.283z
				"/>
			<path opacity="0.1091" fill="#754C24" d="M20.367,4.115c0.235,0,0.414-0.481,0.078-0.481C20.21,3.633,20.032,4.115,20.367,4.115z
				"/>
			<path opacity="0.1091" fill="#754C24" d="M20.951,4.975c0.407,0-0.992-1.808-1.489-1.808C19.055,3.167,20.453,4.975,20.951,4.975
				z"/>
			<path opacity="0.1091" fill="#754C24" d="M21.051,3.796c0.475,0,0.198-0.678-0.133-0.678C20.442,3.118,20.719,3.796,21.051,3.796
				z"/>
			<path opacity="0.1091" fill="#754C24" d="M19.495,5.084c0.289,0,0.39-0.521,0.048-0.521C19.253,4.563,19.153,5.084,19.495,5.084z
				"/>
			<path opacity="0.1091" fill="#754C24" d="M20.388,6.389c0.462,0-0.689-1.481-1.1-1.481C18.825,4.908,19.977,6.389,20.388,6.389z"
				/>
			<path opacity="0.1091" fill="#754C24" d="M21.697,4.896c0.409,0-0.96-1.734-1.446-1.734C19.84,3.161,21.21,4.896,21.697,4.896z"
				/>
			<path opacity="0.1091" fill="#754C24" d="M19.822,4.479c0.367,0,0.325-0.58-0.017-0.58C19.438,3.899,19.479,4.479,19.822,4.479z"
				/>
			<path opacity="0.1091" fill="#754C24" d="M20.523,4.136c0.466,0-0.352-1.005-0.688-1.005C19.371,3.131,20.188,4.136,20.523,4.136
				z"/>
			<path opacity="0.1091" fill="#754C24" d="M21.701,5.723c0.371,0-1.16-2.033-1.715-2.033C19.616,3.69,21.146,5.723,21.701,5.723z"
				/>
			<path opacity="0.1091" fill="#754C24" d="M19.459,5.563c0.509,0,0.184-0.718-0.14-0.718C18.812,4.844,19.135,5.563,19.459,5.563z
				"/>
		</g>
	</g>
</g>
<g>
	<g>
		<g>
			<path opacity="0.1091" fill="#754C24" d="M19.802,4.432c0.161,0,0.318-0.169,0.475-0.169C20.118,4.263,19.959,4.432,19.802,4.432
				z"/>
			<path opacity="0.1091" fill="#754C24" d="M18.878,2.066c0.156,0,0.312-0.196,0.463-0.196C19.185,1.87,19.03,2.066,18.878,2.066z"
				/>
			<path opacity="0.1091" fill="#754C24" d="M20.243,1.922c-0.161,0-0.321-0.138-0.484-0.138
				C19.918,1.784,20.079,1.922,20.243,1.922z"/>
			<path opacity="0.1091" fill="#754C24" d="M18.269,3.242c0.028,0,0.05-0.499,0.068-0.499C18.309,2.743,18.287,3.242,18.269,3.242z
				"/>
			<path opacity="0.1091" fill="#754C24" d="M19.541,4.547c-0.161,0-0.324-0.121-0.487-0.121
				C19.214,4.426,19.377,4.547,19.541,4.547z"/>
			<path opacity="0.1091" fill="#754C24" d="M18.48,3.834c-0.051,0-0.106-0.476-0.166-0.476C18.366,3.358,18.421,3.834,18.48,3.834z
				"/>
			<path opacity="0.1091" fill="#754C24" d="M19.119,3.776c0.17,0.065,0.339,0.129,0.509,0.194c-0.125-0.047-0.14-0.379-0.266-0.428
				c-0.169-0.065-0.339-0.129-0.508-0.194C18.976,3.394,18.991,3.728,19.119,3.776z"/>
			<path opacity="0.1091" fill="#754C24" d="M19.942,3.456c0.168,0.065,0.337,0.13,0.506,0.194c-0.039-0.014,0.094-0.483,0.053-0.5
				c-0.17-0.065-0.339-0.13-0.508-0.195C20.029,2.969,19.896,3.438,19.942,3.456z"/>
			<path opacity="0.1091" fill="#754C24" d="M20.656,3.285c0.169,0.065,0.336,0.13,0.505,0.195c-0.073-0.029,0.01-0.469-0.066-0.498
				c-0.169-0.065-0.336-0.13-0.505-0.195C20.661,2.813,20.578,3.254,20.656,3.285z"/>
			<path opacity="0.1091" fill="#754C24" d="M18.55,2.666c0.17,0.065,0.34,0.131,0.511,0.196c0.044,0.018,0.262-0.417,0.305-0.4
				c-0.169-0.065-0.339-0.13-0.51-0.195C18.807,2.248,18.588,2.681,18.55,2.666z"/>
			<path opacity="0.1091" fill="#754C24" d="M19.3,2.403c0.169,0.065,0.338,0.131,0.508,0.196c0.14,0.054,0.361-0.098,0.501-0.044
				c-0.17-0.066-0.339-0.132-0.508-0.197C19.658,2.303,19.437,2.457,19.3,2.403z"/>
			<path opacity="0.1091" fill="#754C24" d="M20.374,3.947c0.169,0.064,0.336,0.129,0.505,0.194c0.032,0.011,0.239-0.437,0.27-0.425
				c-0.168-0.065-0.336-0.129-0.505-0.194C20.608,3.509,20.4,3.957,20.374,3.947z"/>
		</g>
	</g>
</g>
<g>
	<g>
		<g>
			<path opacity="0.1091" fill="#754C24" d="M22.112,5.361c0.395,0-1.068-1.958-1.593-1.958C20.125,3.403,21.588,5.361,22.112,5.361
				z"/>
			<path opacity="0.1091" fill="#754C24" d="M20.775,4.27C21.249,4.27,20.236,3,19.862,3C19.39,3,20.402,4.27,20.775,4.27z"/>
			<path opacity="0.1091" fill="#754C24" d="M21.225,3.101c0.234,0,0.413-0.48,0.078-0.48C21.069,2.62,20.89,3.101,21.225,3.101z"/>
			<path opacity="0.1091" fill="#754C24" d="M21.81,3.961c0.406,0-0.993-1.809-1.49-1.809C19.912,2.152,21.311,3.961,21.81,3.961z"
				/>
			<path opacity="0.1091" fill="#754C24" d="M21.908,2.782c0.476,0,0.199-0.678-0.133-0.678C21.3,2.104,21.577,2.782,21.908,2.782z"
				/>
			<path opacity="0.1091" fill="#754C24" d="M20.353,4.069c0.29,0,0.391-0.519,0.049-0.519C20.111,3.55,20.011,4.069,20.353,4.069z"
				/>
			<path opacity="0.1091" fill="#754C24" d="M21.246,5.375c0.462,0-0.691-1.479-1.101-1.479C19.683,3.895,20.835,5.375,21.246,5.375
				z"/>
			<path opacity="0.1091" fill="#754C24" d="M22.554,3.881c0.411,0-0.959-1.734-1.445-1.734C20.698,2.147,22.068,3.881,22.554,3.881
				z"/>
			<path opacity="0.1091" fill="#754C24" d="M20.68,3.464c0.366,0,0.326-0.58-0.017-0.58C20.296,2.884,20.336,3.464,20.68,3.464z"/>
			<path opacity="0.1091" fill="#754C24" d="M21.382,3.121c0.466,0-0.352-1.003-0.688-1.003C20.229,2.118,21.047,3.121,21.382,3.121
				z"/>
			<path opacity="0.1091" fill="#754C24" d="M22.56,4.708c0.371,0-1.16-2.032-1.715-2.032C20.474,2.677,22.005,4.708,22.56,4.708z"
				/>
			<path opacity="0.1091" fill="#754C24" d="M20.317,4.549c0.508,0,0.184-0.718-0.14-0.718C19.668,3.831,19.993,4.549,20.317,4.549z
				"/>
		</g>
	</g>
</g>
<g>
</g>
<g>
</g>
<g>
</g>
<g>
</g>
<g>
</g>
<g>
</g>
<g>
</g>
<g>
</g>
<g>
</g>
<g>
</g>
<g>
</g>
<g>
</g>
<g>
</g>
<g>
</g>
<g>
</g>
</svg>
