<?xml version="1.0" encoding="utf-8"?>
<!-- Generator: Adobe Illustrator 16.0.0, SVG Export Plug-In . SVG Version: 6.00 Build 0)  -->
<!DOCTYPE svg PUBLIC "-//W3C//DTD SVG 1.1//EN" "http://www.w3.org/Graphics/SVG/1.1/DTD/svg11.dtd">
<svg version="1.1" id="Слой_1" xmlns="http://www.w3.org/2000/svg" xmlns:xlink="http://www.w3.org/1999/xlink" x="0px" y="0px"
	 width="42px" height="42px" viewBox="0 0 42 42" enable-background="new 0 0 42 42" xml:space="preserve">
<path fill="#A6A674" stroke="#000000" stroke-miterlimit="10" d="M13.5,29c-0.353-0.692,0-17,0-17s1.58-3.85,2.604-4.5
	s9.271-0.374,9.896,0s2.107,1.928,2.426,2.951s-0.564,17.054-0.918,18.007s-3.777,4.816-4.131,5.215s-1.624,0.706-1.73,0.905
	s-3.319,0.153-3.99,0S13.853,29.692,13.5,29z"/>
<g>
	<g>
		<g>
			<path opacity="0.1091" fill="#754C24" d="M21.868,34.262c-0.512-0.15-1.034-0.216-1.564-0.196
				c-1.118-0.11-2.068-0.566-2.846-1.369c-0.051,0.159-0.101,0.32-0.151,0.479c1.15,0.775,2.132,1.167,3.5,0.757
				c0.736-0.22,0.962-0.292,1.127-1.201c-0.096-0.139-0.191-0.275-0.287-0.414c0.005,0.955,0.882-0.116,0.955-0.193
				c-0.047,0.05-0.422-0.221-0.474-0.171c-0.166,0.45-0.294,0.582-0.448,0.399C21.775,32.489,22,32.628,22,32.766
				c0-0.012,0-0.023,0-0.034c0-0.113-0.351-0.317-0.319-0.414c-0.049,0.72-0.389,1.27-0.985,1.651
				c0.16-0.049,0.313-0.097,0.473-0.146c-1.428-0.034-2.514-0.338-3.707-1.127c0.021,0.015-0.205,0.446-0.153,0.479
				c1.54,0.975,2.777,1.752,4.547,1.091C21.86,34.265,21.863,34.264,21.868,34.262z"/>
			<path opacity="0.1091" fill="#754C24" d="M20.446,33.348c-1.216-0.1-2.347-0.526-3.394-1.276c-0.1,0.14-0.199,0.279-0.299,0.419
				c1.056,0.749,1.951,1.074,3.215,0.893c0.795-0.114,0.795-1.467,0.876-1.858c-0.111,0.126-0.222,0.252-0.331,0.378
				c-0.012,0.024-0.005,0.041,0.021,0.051c0.004-0.001,0.008-0.003,0.012-0.005c0.303-0.166,0.606-0.334,0.91-0.5
				c0.019-0.011-0.29-0.402-0.278-0.419c-0.213,0.304-0.425,0.608-0.637,0.913c0.121-0.11,0.242-0.22,0.363-0.329
				c-0.039-0.02-0.058-0.049-0.06-0.089c0.019,0.087-0.333,0.265-0.331,0.378c0.004,0.316,0.01,0.634,0.015,0.951
				c0.017-0.149,0.032-0.3,0.049-0.449c-1.294,1.138-2.533,0.404-3.525-0.333c-0.273-0.204-0.511,0.26-0.299,0.419
				c1.347,1.021,2.344,1.336,3.957,1.285C20.625,33.777,20.542,33.358,20.446,33.348z"/>
			<path opacity="0.1091" fill="#754C24" d="M20.932,31.87c-0.495-0.147-1.002-0.21-1.517-0.187c-1.141-0.177-2.154-0.638-3.04-1.38
				c0.04,0.162,0.079,0.325,0.119,0.488c0.943,0.605,1.664,0.832,2.779,0.972c1.26,0.158,1.573-0.909,1.73-1.825
				c-0.1,0.134-0.201,0.269-0.302,0.402c-0.008,0.029,0.001,0.052,0.032,0.066c0.003-0.004,0.005-0.007,0.01-0.01
				c0.297-0.295,0.595-0.59,0.893-0.884c-0.116,0.114-0.31,0.16-0.417,0.283c-0.151,0.218-0.223,0.265-0.216,0.142
				c0.001,0.121-0.257,0.279-0.302,0.402c-0.1,0.279-0.199,0.561-0.3,0.842c0.141-0.085,0.281-0.169,0.42-0.254
				c-0.365,0.188-0.73,0.377-1.096,0.565c0.151,0.008,0.3,0.017,0.45,0.024c-1.499-0.103-2.561-0.355-3.801-1.215
				c0.09,0.063,0.01,0.407,0.119,0.488c1.2,0.888,2.432,1.708,3.974,1.275C20.588,32.034,20.817,31.847,20.932,31.87z"/>
			<path opacity="0.1091" fill="#754C24" d="M21.589,32.955c-1.119,0.046-2.139-0.333-3.062-1.14
				c-0.21,0.094-0.422,0.189-0.634,0.283c1.013,0.74,1.869,1.156,3.134,0.925c0.725-0.132,0.472-1.037,0.475-1.436
				c0,0.068,0.038,0.078,0.076,0.023c0.14-0.203,0.281-0.406,0.421-0.61c0.05-0.07,0.155-0.562,0.046-0.404
				c-0.19,0.632-0.381,1.263-0.57,1.894c0.032-0.146,0.063-0.293,0.095-0.439c-0.763,0.983-1.777,0.906-3.042-0.235
				c-0.258-0.225-0.972-0.003-0.634,0.283c1.196,1.014,2.101,1.322,3.643,1.356C21.552,33.457,21.577,32.955,21.589,32.955z"/>
			<path opacity="0.1091" fill="#754C24" d="M21.832,31.925c-0.469-0.3-0.977-0.417-1.521-0.356c-1.138-0.18-2.151-0.64-3.04-1.38
				c0.04,0.163,0.08,0.325,0.119,0.489c0.923,0.596,1.656,0.837,2.742,1.005c1.326,0.204,1.643-0.811,1.82-1.803
				c-0.137,0.097-0.272,0.194-0.41,0.291c-0.009,0.029,0.001,0.05,0.032,0.063c0.017,0.017,0.364-0.246,0.404-0.275
				c0.198-0.146,0.396-0.289,0.594-0.435c-0.093,0.069-0.437-0.057-0.503,0.033c-0.165,0.226-0.331,0.451-0.495,0.677
				c0.137-0.094,0.275-0.189,0.414-0.284c-0.032-0.015-0.043-0.038-0.036-0.07c0.001,0.093-0.374,0.191-0.41,0.291
				c-0.38,1.051-0.614,1.093-1.715,1.111c-0.922,0.017-1.838-0.6-2.556-1.094c0.088,0.06,0.01,0.407,0.119,0.489
				C18.882,31.79,20.02,32.227,21.832,31.925z"/>
			<path opacity="0.1091" fill="#754C24" d="M19.927,32.742c-1.725-0.046-2.837-0.432-4.303-1.419
				c0.001,0.168,0.001,0.335,0.003,0.503c1.32,0.873,2.728,1.416,4.132,0.5c-1.867,1.219,1.919-2.533,0.818-1.397
				c0.097-0.1-0.01-0.398,0.087-0.495c-0.195,0.564-0.389,0.736-0.581,0.518c0.005-0.568-0.269-0.119-0.822,1.351
				c-0.947,0.739-2.891-0.477-3.636-0.979c0.067,0.045-0.084,0.443,0.003,0.503c1.434,0.982,2.533,1.377,4.234,1.414
				C19.881,33.242,19.912,32.742,19.927,32.742z"/>
			<path opacity="0.1091" fill="#754C24" d="M21.132,34.545c-0.494-0.274-1.017-0.388-1.569-0.34
				c-1.128-0.109-2.086-0.567-2.875-1.373c-0.045,0.162-0.093,0.323-0.14,0.484c1.396,0.938,4.13,1.796,4.681-0.498
				c-0.131-0.105-0.262-0.21-0.393-0.314c-0.01,0.031-0.001,0.058,0.029,0.075c0.032,0.04,0.399,0.308,0.401,0.303
				c0.197-0.221,0.395-0.441,0.591-0.661c-0.063,0.069-0.424-0.152-0.496-0.087c-0.166,0.147-0.331,0.297-0.497,0.445
				c0.13,0.099,0.262,0.195,0.392,0.293c-0.009-0.018-0.018-0.035-0.027-0.054c-0.004-0.086-0.413-0.243-0.393-0.314
				c0,0.729-0.295,1.286-0.883,1.675c0.137-0.097,0.274-0.193,0.413-0.29c-1.433,0.044-2.483-0.268-3.678-1.057
				c0.022,0.016-0.196,0.447-0.14,0.484C18.119,34.304,19.3,34.92,21.132,34.545z"/>
			<path opacity="0.1091" fill="#754C24" d="M22.176,32.785c-1.311,0.022-2.533-0.391-3.666-1.237
				c-0.093,0.136-0.186,0.27-0.278,0.405c1.099,0.759,2.013,1.077,3.318,0.901c0.623-0.084,0.872-1.139,1.02-1.502
				c-0.133-0.103-0.266-0.203-0.4-0.306c0.228,0.641,0.481,0.616,0.766-0.07c0.084-0.103,0.02-0.418,0.115-0.49
				c-0.207,0.395-0.48,0.576-0.822,0.543c0.097,0.137,0.192,0.273,0.289,0.412c0.017-0.03,0.034-0.06,0.053-0.089
				c0.021-0.034-0.401-0.255-0.4-0.306c-0.011,0.438-0.021,0.879-0.034,1.319c0.05-0.156,0.098-0.312,0.147-0.468
				c-1.357,1.103-2.696,0.405-3.772-0.351c-0.217-0.153-0.397,0.321-0.278,0.405c1.362,0.975,2.364,1.299,4.013,1.33
				C22.222,33.283,22.207,32.787,22.176,32.785z"/>
			<path opacity="0.1091" fill="#754C24" d="M20.447,32.267c-1.751-0.159-2.18-0.023-4.167-1.358
				c-0.053-0.034-0.363,0.338-0.386,0.321c0.862,0.586,3.434,2.009,4.26,0.553c0.22-0.39,0.299-0.991,0.385-1.368
				c-0.048,0.156-0.097,0.313-0.145,0.468c0.004,0.401,1.169-1.131,0.561-0.488c0.106-0.112,0.073-0.364,0.181-0.469
				c0.63-0.612-0.591,0.876-0.597,0.477c0.001,0.126-0.101,0.305-0.134,0.43c-0.087,0.315-0.173,0.631-0.259,0.948
				c0.063-0.152,0.124-0.304,0.186-0.454c-1.337,1.01-2.758,0.432-4.051-0.417c-0.129,0.108-0.257,0.215-0.386,0.321
				c1.412,0.918,2.494,1.571,4.248,1.437C20.243,32.658,20.354,32.258,20.447,32.267z"/>
			<path opacity="0.1091" fill="#754C24" d="M21.391,32.359c-1.283-0.357-2.524-0.835-3.722-1.435
				c-0.112,0.133-0.226,0.266-0.338,0.398c0.754,0.536,3.187,1.882,3.757,0.347c0.415-1.121-0.382-0.503,0.994-1.488
				c-0.026,0.02-0.411-0.29-0.425-0.269c-0.21,0.457-0.327,0.58-0.346,0.372c0.017,0.124-0.144,0.327-0.159,0.464
				c-1.224,1.207-2.385,1.267-3.482,0.176c-0.281-0.209-0.566,0.223-0.338,0.398C18.679,32.351,19.758,32.861,21.391,32.359z"/>
			<path opacity="0.1091" fill="#754C24" d="M22.231,33.521c-1.453-0.03-2.81-0.486-4.069-1.366
				c-0.054,0.159-0.108,0.316-0.163,0.476c1.118,0.76,2.065,1.071,3.416,0.919c0.721-0.081,0.757-0.916,0.884-1.387
				c-0.012-0.149-0.023-0.3-0.035-0.449c0.04,0.681-0.063,0.647,0.592-0.028c0.092-0.095-0.04-0.419,0.049-0.501
				c-0.394,0.361-2.397,2.002-2.219,1.979c-0.885,0.106-1.845-0.547-2.523-1.009c-0.06-0.042-0.27,0.404-0.163,0.476
				c1.307,0.886,2.364,1.404,3.962,1.315C22.053,33.939,22.149,33.515,22.231,33.521z"/>
			<path opacity="0.1091" fill="#754C24" d="M19.906,33.356c-1.668-0.081-2.742-0.439-4.143-1.424
				c-0.028,0.166-0.056,0.331-0.083,0.497c0.843,0.566,1.479,0.835,2.491,0.953c1.399,0.168,1.697-0.117,1.988-1.361
				c-0.013-0.162-0.025-0.325-0.038-0.489c-0.008,0.705-0.022,0.648,0.638,0.002c0.07-0.068-0.156-0.425-0.09-0.496
				c-0.182,0.56-0.444,0.732-0.628,0.517C20.055,31.717,20,31.88,20,32.042c0-0.011,0-0.022,0-0.033
				c0-0.146,0.004-0.353,0.042-0.488c-0.296,1.05-0.474,1.267-1.512,1.557c-0.773,0.218-2.183-0.746-2.787-1.145
				c0.044,0.029-0.141,0.451-0.073,0.497c1.501,0.985,2.636,1.4,4.396,1.403C20.011,33.833,19.967,33.361,19.906,33.356z"/>
		</g>
	</g>
</g>
<g>
	<g>
		<g>
			<path opacity="0.1091" fill="#754C24" d="M23.322,31.216c-0.248,0.335-0.496,0.67-0.743,1.005
				c-0.006,0.006,0.432,0.252,0.461,0.199c0.252-0.457,0.504-0.915,0.757-1.373C23.743,31.144,23.402,31.107,23.322,31.216z"/>
			<path opacity="0.1091" fill="#754C24" d="M22.453,30.092c-0.232,0.352-0.467,0.702-0.699,1.054
				c-0.126,0.189,0.277,0.504,0.392,0.315c0.191-0.314,0.382-0.627,0.573-0.941C22.784,30.413,22.47,30.068,22.453,30.092z"/>
			<path opacity="0.1091" fill="#754C24" d="M22.401,28.86c-0.224,0.297-0.447,0.594-0.671,0.89c-0.05,0.067,0.284,0.379,0.25,0.438
				c0.293-0.508,0.588-1.017,0.883-1.524C22.802,28.771,22.486,28.748,22.401,28.86z"/>
			<path opacity="0.1091" fill="#754C24" d="M23.401,29.749c-0.304,0.375-0.606,0.751-0.91,1.126
				c-0.157,0.196,0.386,0.308,0.464,0.165c0.155-0.284,0.312-0.566,0.468-0.85C23.459,30.125,23.452,29.684,23.401,29.749z"/>
			<path opacity="0.1091" fill="#754C24" d="M23.279,28.579c-0.238,0.365-0.475,0.732-0.713,1.098
				c-0.02,0.031,0.386,0.321,0.379,0.331c0.273-0.431,0.546-0.86,0.817-1.289C23.746,28.746,23.313,28.527,23.279,28.579z"/>
			<path opacity="0.1091" fill="#754C24" d="M21.86,29.535c-0.321,0.42-0.644,0.841-0.966,1.261
				c-0.043,0.058,0.322,0.361,0.302,0.403c0.199-0.389,0.398-0.778,0.598-1.166C21.86,29.903,21.78,29.64,21.86,29.535z"/>
			<path opacity="0.1091" fill="#754C24" d="M22.575,31.217c-0.265,0.415-0.529,0.831-0.793,1.246c0.025-0.04,0.456,0.17,0.489,0.12
				c0.264-0.415,0.528-0.832,0.793-1.247C23.041,31.372,22.61,31.162,22.575,31.217z"/>
			<path opacity="0.1091" fill="#754C24" d="M24.048,29.599c-0.269,0.374-0.536,0.748-0.805,1.121
				c-0.079,0.109,0.384,0.356,0.458,0.211c0.146-0.288,0.292-0.576,0.438-0.862C24.183,29.979,24.062,29.58,24.048,29.599z"/>
			<path opacity="0.1091" fill="#754C24" d="M22.351,29.104c-0.344,0.372-0.687,0.743-1.03,1.115
				c-0.057,0.062,0.36,0.368,0.376,0.334c0.231-0.49,0.461-0.979,0.692-1.469C22.413,29.036,22.335,29.119,22.351,29.104z"/>
			<path opacity="0.1091" fill="#754C24" d="M22.842,29.272c-0.189,0.281-0.379,0.563-0.567,0.846
				c-0.054,0.079,0.243,0.51,0.349,0.335c0.232-0.389,0.467-0.778,0.699-1.167C23.388,29.179,22.895,29.193,22.842,29.272z"/>
			<path opacity="0.1091" fill="#754C24" d="M24.093,30.33c-0.325,0.375-0.648,0.75-0.974,1.124
				c-0.065,0.076,0.402,0.342,0.456,0.212c0.183-0.439,0.365-0.878,0.547-1.316C24.146,30.293,24.136,30.281,24.093,30.33z"/>
			<path opacity="0.1091" fill="#754C24" d="M21.84,30.148c-0.292,0.425-0.585,0.85-0.877,1.274
				c-0.029,0.043,0.372,0.335,0.367,0.345c0.226-0.382,0.451-0.763,0.677-1.145C22.063,30.527,21.79,30.222,21.84,30.148z"/>
		</g>
	</g>
</g>
<g>
	<g>
		<g>
			<path opacity="0.1091" fill="#754C24" d="M22.324,31.431c-0.103,0.145-0.206,0.29-0.31,0.436
				c-0.956,1.407-1.976,0.776-3.062-1.894c-0.608-1.979-1.171-3.937-1.563-5.968c0.013,0.066-0.429,0.2-0.422,0.272
				c0.186,2.167,1.247,4.408,1.907,6.359c0.001,0,0.476-0.163,0.476-0.166c-0.735-2.15-1.67-4.217-1.961-6.466
				c-0.141,0.091-0.282,0.181-0.422,0.272c0.358,1.877,0.843,3.638,1.56,5.427c0.231,0.579,0.604,1.893,1.02,2.387
				c0.279,0.333,0.653,1.028,1.043,1.036c1.235,0.025,1.76-0.753,2.208-1.865C22.76,31.355,22.395,31.331,22.324,31.431z"/>
			<path opacity="0.1091" fill="#754C24" d="M21.419,30.32c-0.825,2.069-2.021,1.705-3.586-1.092
				c-0.835-1.93-1.121-3.739-1.642-5.687c-0.038-0.138-0.109-0.289-0.126-0.432c0.266,2.355,1.019,3.896,1.871,6.438
				c0.053,0.156,0.187,0.285,0.242,0.44c-0.67-1.979-1.338-3.956-2.007-5.936c0.033,0.165,0.065,0.33,0.097,0.494
				c-0.021-0.318-0.042-0.635-0.065-0.953c-0.045-0.161-0.091-0.323-0.138-0.483c0.396,2.69,0.976,5.986,2.647,8.269
				c1.114,1.522,2.316,0.821,2.971-0.631C21.733,30.64,21.401,30.356,21.419,30.32z"/>
			<path opacity="0.1091" fill="#754C24" d="M21.399,29.063c-0.289,0.736-0.805,1.29-1.549,1.661
				c0.148-0.068,0.296-0.138,0.444-0.206c-1.601-0.031-1.925-1.965-2.331-3.229c-0.601-1.873-1.11-3.714-1.485-5.636
				c0.008,0.042-0.463,0.159-0.459,0.207c0.237,2.217,1.222,4.332,1.931,6.412c-0.004-0.013,0.466-0.188,0.46-0.203
				c-0.708-2.079-1.702-4.196-1.932-6.416c-0.153,0.068-0.306,0.137-0.459,0.207c0.37,1.99,1.042,3.835,1.589,5.785
				c0.227,0.809,0.815,3.638,2.244,3.084c0.944-0.367,1.53-0.965,2.01-1.863C21.804,28.977,21.463,28.943,21.399,29.063z"/>
			<path opacity="0.1091" fill="#754C24" d="M22.444,29.96c-0.176,0.278-0.352,0.557-0.527,0.835
				c-1.085,1.233-2.086,0.49-3.006-2.229c-0.515-1.857-1.303-3.645-1.537-5.564c-0.008-0.068-0.487-0.078-0.49-0.116
				c0.177,2.287,1.233,4.54,1.931,6.651c0.018,0.053,0.499-0.079,0.496-0.086c-0.619-1.87-1.705-4.288-1.937-6.449
				c-0.163-0.038-0.327-0.077-0.49-0.116c0.336,2.148,1.016,4.084,1.82,6.114c0.449,1.135,0.764,1.827,1.588,2.653
				c0.866,0.869,2.064-0.54,2.161-1.336C22.457,30.283,22.473,29.916,22.444,29.96z"/>
			<path opacity="0.1091" fill="#754C24" d="M22.281,28.781c-0.196,0.497-0.497,0.923-0.901,1.278
				c-1.224,0.176-1.91-0.319-2.06-1.486c-0.24-0.746-0.466-1.496-0.683-2.249c-0.509-1.737-0.944-2.923-1.254-4.615
				c-0.012-0.067-0.478-0.072-0.484-0.137c0.231,2.224,1.217,4.324,1.931,6.416c0.032,0.09,0.456,0.047,0.484,0.136
				c-0.7-2.065-1.694-4.202-1.931-6.415c-0.162-0.045-0.324-0.091-0.484-0.137c0.549,2.785,1.261,5.615,2.45,8.204
				c0.895,1.944,2.845,0.21,3.415-0.856C22.753,28.941,22.302,28.742,22.281,28.781z"/>
			<path opacity="0.1091" fill="#754C24" d="M20.855,29.741c-0.196,0.492-0.497,0.91-0.901,1.253
				c-0.816,0.899-1.417,0.299-2.048-0.341c-0.728-0.736-0.952-2.437-1.243-3.4c-0.496-1.645-0.85-3.085-1.191-4.721
				c0.033,0.154-0.076,0.34-0.06,0.499c0.235,2.215,1.226,4.344,1.929,6.414c-0.048-0.141,0.112-0.355,0.063-0.498
				c-0.716-2.095-1.704-4.189-1.932-6.415c-0.02,0.166-0.041,0.332-0.06,0.499c0.413,2.397,1.257,4.633,1.956,6.962
				c0.312,1.038,0.739,1.896,1.862,1.91c0.7,0.009,1.301-1.176,1.56-1.663C20.864,30.099,20.784,29.876,20.855,29.741z"/>
			<path opacity="0.1091" fill="#754C24" d="M21.574,31.428c-0.518,0.976-1.046,1.672-2.209,1.658
				c0.163,0.04,0.327,0.08,0.488,0.119c-0.94-0.967-1.239-1.869-1.639-3.149c-0.595-1.905-1.153-3.762-1.534-5.718
				c-0.012-0.063-0.481-0.06-0.487-0.122c0.231,2.222,1.22,4.333,1.931,6.417c0.029,0.087,0.459,0.036,0.488,0.12
				c-0.671-1.805-1.282-3.627-1.833-5.471c-0.134-0.032-0.269-0.063-0.403-0.095c0.167,1.297,0.521,2.55,1.056,3.757
				c0.336,1.047,0.662,3.75,1.943,4.146c1.276,0.395,2.09-0.421,2.685-1.542C22.048,31.577,21.598,31.385,21.574,31.428z"/>
			<path opacity="0.1091" fill="#754C24" d="M23.086,29.787c-0.151,0.235-0.304,0.473-0.456,0.707
				c-0.927,1.422-1.956,0.753-3.082-2.004c-0.417-1.185-0.835-2.369-1.251-3.555c0.068-0.684-0.075-1.313-0.43-1.892
				c-0.058-0.133-0.198-0.296-0.219-0.438c0.35,2.393,1.307,4.592,2.094,6.882c-0.054-0.157-0.043-0.335-0.096-0.493
				c-0.62-1.817-1.239-3.633-1.857-5.45c0.047,0.156,0.094,0.313,0.141,0.469c-0.02-0.318-0.039-0.638-0.058-0.956
				c-0.075-0.151-0.149-0.301-0.224-0.451c0.141,2.383,0.816,4.887,1.968,6.979c0.131,0.239,0.451,1.026,0.8,1.356
				c0.879,0.831,0.509,0.746,1.471,0.818c0.662,0.048,1.174-0.995,1.272-1.488C23.181,30.164,23.041,29.856,23.086,29.787z"/>
			<path opacity="0.1091" fill="#754C24" d="M21.371,29.276c-0.172,0.183-0.345,0.367-0.518,0.55
				c-1.187,1.701-2.375,0.794-3.567-2.72c-0.36-1.061-0.72-2.12-1.08-3.18c-0.004-0.571-0.046-1.141-0.126-1.706
				c0.001,0.005-0.497,0.074-0.496,0.081c0.31,2.188,1.366,4.582,2.02,6.556c-0.025-0.076,0.364-0.295,0.336-0.375
				c-0.796-2.281-1.696-4.002-1.86-6.262c-0.165,0.027-0.331,0.054-0.496,0.081c0.181,0.715,0.382,1.423,0.602,2.128
				c0.29,1.597,0.806,3.117,1.55,4.558c-0.054-0.159,0.48,1.171,0.789,1.465c0.229,0.218,0.866,1.106,1.435,0.767
				c0.966-0.58,1.067-0.909,1.42-1.95C21.379,29.271,21.375,29.273,21.371,29.276z"/>
			<path opacity="0.1091" fill="#754C24" d="M21.827,29.462c-2.148,1.313-3.307,0.717-3.473-1.794
				c-0.815-1.825-1.319-3.729-1.509-5.708c0.008,0.133-0.267,0.282-0.27,0.425c-0.039,1.988,1.291,4.729,1.802,6.254
				c0.008,0.026,0.487-0.113,0.494-0.096c-0.944-2.67-1.625-4.143-2.026-6.583c-0.09,0.142-0.18,0.282-0.27,0.425
				c0.956,3.043-0.476-0.147,1.107,4.424c0.352,1.014,0.853,2.848,1.671,3.608c0.887,0.826,0.466,0.706,1.394,0.785
				c0.626,0.053,1.309-1.406,1.568-1.77C22.347,29.393,21.844,29.366,21.827,29.462z"/>
			<path opacity="0.1091" fill="#754C24" d="M23.141,30.521c-1.183,1.279-2.148,3.221-3.722-1.161
				c-0.733-2.044-1.028-4.089-1.78-6.08c0.05,0.13-0.008,0.349,0,0.49c0.122,2.338,1.003,4.001,1.83,6.396
				c-0.039-0.109,0.26-0.336,0.222-0.451c-0.635-1.892-1.69-4.303-2.051-6.435c0,0.123,0,0.246-0.001,0.369
				c0.007,2.338,0.951,4.46,1.86,6.597c0.191,0.446,0.397,0.938,0.727,1.313c0.266,0.302,0.554,0.835,0.947,0.861
				c1.245,0.082,1.733-0.73,1.979-1.894C23.156,30.51,23.153,30.509,23.141,30.521z"/>
			<path opacity="0.1091" fill="#754C24" d="M20.835,30.357c-0.421,0.789-0.806,1.197-1.568,1.665
				c-1.561,0.959-3.191-6.15-3.455-6.945c0.044,0.162,0.088,0.322,0.133,0.484c-0.09-0.649-0.198-1.295-0.324-1.939
				c-0.029-0.16-0.152-0.311-0.169-0.473c0.231,2.226,1.222,4.339,1.937,6.428c0.045,0.131,0.13,0.364,0.159,0.448
				c-0.708-2.076-1.693-4.188-1.927-6.403c-0.056-0.157-0.112-0.315-0.169-0.473c0.403,2.018,0.891,3.725,1.522,5.734
				c0.188,0.599,0.317,1.105,0.561,1.648c0.681,1.511,0.244,0.896,1.26,1.954c0.732,0.763,1.996-1.258,2.206-1.654
				C21.058,30.726,20.785,30.452,20.835,30.357z"/>
		</g>
	</g>
</g>
<g>
	<g>
		<g>
			<path opacity="0.1091" fill="#754C24" d="M21.798,33.53c0.394,0-1.069-1.956-1.595-1.956
				C19.809,31.574,21.272,33.53,21.798,33.53z"/>
			<path opacity="0.1091" fill="#754C24" d="M20.461,32.439c0.472,0-0.542-1.271-0.914-1.271
				C19.074,31.169,20.087,32.439,20.461,32.439z"/>
			<path opacity="0.1091" fill="#754C24" d="M20.911,31.271c0.234,0,0.413-0.482,0.078-0.482
				C20.753,30.789,20.575,31.271,20.911,31.271z"/>
			<path opacity="0.1091" fill="#754C24" d="M21.494,32.131c0.407,0-0.991-1.808-1.489-1.808
				C19.598,30.323,20.997,32.131,21.494,32.131z"/>
			<path opacity="0.1091" fill="#754C24" d="M21.593,30.953c0.475,0,0.198-0.68-0.133-0.68
				C20.984,30.273,21.261,30.953,21.593,30.953z"/>
			<path opacity="0.1091" fill="#754C24" d="M20.038,32.24c0.291,0,0.391-0.521,0.048-0.521C19.797,31.72,19.696,32.24,20.038,32.24
				z"/>
			<path opacity="0.1091" fill="#754C24" d="M20.931,33.544c0.462,0-0.689-1.479-1.101-1.479
				C19.368,32.064,20.521,33.544,20.931,33.544z"/>
			<path opacity="0.1091" fill="#754C24" d="M22.24,32.051c0.409,0-0.959-1.734-1.447-1.734
				C20.384,30.316,21.752,32.051,22.24,32.051z"/>
			<path opacity="0.1091" fill="#754C24" d="M20.364,31.635c0.367,0,0.327-0.581-0.017-0.581
				C19.981,31.054,20.022,31.635,20.364,31.635z"/>
			<path opacity="0.1091" fill="#754C24" d="M21.067,31.29c0.465,0-0.353-1.003-0.688-1.003
				C19.913,30.287,20.731,31.29,21.067,31.29z"/>
			<path opacity="0.1091" fill="#754C24" d="M22.245,32.88c0.371,0-1.161-2.034-1.716-2.034
				C20.158,30.846,21.689,32.88,22.245,32.88z"/>
			<path opacity="0.1091" fill="#754C24" d="M20.001,32.719c0.51,0,0.186-0.718-0.138-0.718
				C19.354,32.001,19.678,32.719,20.001,32.719z"/>
		</g>
	</g>
</g>
<g>
	<g>
		<g>
			<path opacity="0.1091" fill="#754C24" d="M22.255,30.395c-0.057,0.471-0.079,0.943-0.067,1.416c0-0.054,0.473-0.106,0.473-0.169
				c-0.011-0.473,0.013-0.945,0.069-1.416C22.725,30.29,22.262,30.32,22.255,30.395z"/>
			<path opacity="0.1091" fill="#754C24" d="M21.308,29.31c-0.156,0.45-0.216,0.909-0.177,1.382c0,0.123,0.501,0.15,0.501,0.043
				c0.03-0.337,0.011-0.667-0.06-0.995C21.555,29.618,21.285,29.416,21.308,29.31z"/>
			<path opacity="0.1091" fill="#754C24" d="M21.331,28.029c-0.058,0.47-0.082,0.94-0.071,1.412
				c0.001-0.063,0.462-0.126,0.464-0.196c-0.011-0.473,0.012-0.943,0.07-1.412C21.787,27.906,21.337,27.946,21.331,28.029z"/>
			<path opacity="0.1091" fill="#754C24" d="M22.443,28.918c-0.288,0.424-0.398,0.882-0.332,1.373c0,0.168,0.502,0.173,0.504,0.007
				C22.655,29.829,22.599,29.368,22.443,28.918z"/>
			<path opacity="0.1091" fill="#754C24" d="M22.211,27.747c-0.057,0.47-0.079,0.939-0.068,1.412c-0.001,0.048,0.483,0.1,0.483,0.14
				c-0.011-0.474,0.011-0.944,0.069-1.412C22.698,27.849,22.209,27.773,22.211,27.747z"/>
			<path opacity="0.1091" fill="#754C24" d="M20.723,29.192c-0.082,0.913-0.06,0.511-0.073,1.427c0.003-0.166,0.065-0.332,0.068-0.5
				c0.023-0.466,0.047-0.933,0.072-1.399C20.781,28.808,20.734,29.053,20.723,29.192z"/>
			<path opacity="0.1091" fill="#754C24" d="M21.505,30.39c-0.057,0.471-0.081,0.942-0.069,1.417c0,0.042,0.489,0.086,0.489,0.119
				c-0.011-0.474,0.012-0.945,0.069-1.416C21.996,30.479,21.503,30.41,21.505,30.39z"/>
			<path opacity="0.1091" fill="#754C24" d="M23.043,28.749c-0.065,0.604-0.142,1.207-0.229,1.808
				c0.014-0.103,0.396-0.213,0.385-0.323c-0.03-0.333-0.062-0.666-0.09-1C23.097,29.084,23.024,28.897,23.043,28.749z"/>
			<path opacity="0.1091" fill="#754C24" d="M21,28.627c-0.057,0.47-0.08,0.941-0.068,1.415c0.001-0.132,0.303-0.263,0.306-0.4
				c-0.013-0.473,0.011-0.943,0.069-1.413C21.294,28.366,21.012,28.483,21,28.627z"/>
			<path opacity="0.1091" fill="#754C24" d="M21.752,28.368c-0.055,0.374-0.075,0.752-0.058,1.13c0,0.126,0.503,0.146,0.503,0.027
				c-0.015-0.401,0.005-0.803,0.057-1.201C22.252,28.347,21.757,28.331,21.752,28.368z"/>
			<path opacity="0.1091" fill="#754C24" d="M22.826,29.91c-0.057,0.47-0.08,0.941-0.068,1.413c0.001-0.14,0.267-0.277,0.27-0.423
				c-0.011-0.474,0.013-0.944,0.069-1.415C23.084,29.631,22.839,29.76,22.826,29.91z"/>
			<path opacity="0.1091" fill="#754C24" d="M20.767,29.322c-0.058,0.469-0.082,0.941-0.071,1.414
				c-0.002,0.159,0.167,0.318,0.165,0.476c-0.01-0.474,0.014-0.945,0.072-1.415C20.947,29.642,20.755,29.472,20.767,29.322z"/>
		</g>
	</g>
</g>
<g>
	<g>
		<g>
			<path opacity="0.1091" fill="#754C24" d="M23.153,28.397c-0.034,0.622-0.069,1.242-0.104,1.863
				c0.004-0.061,0.471-0.1,0.475-0.169c0.034-0.621,0.067-1.241,0.103-1.863C23.624,28.287,23.157,28.327,23.153,28.397z"/>
			<path opacity="0.1091" fill="#754C24" d="M22.224,27.299c-0.072,0.6-0.146,1.198-0.218,1.798c-0.018,0.144,0.501,0.188,0.5,0.06
				c-0.006-0.477-0.012-0.954-0.019-1.43C22.486,27.588,22.211,27.408,22.224,27.299z"/>
			<path opacity="0.1091" fill="#754C24" d="M22.226,26.026c-0.034,0.62-0.068,1.242-0.104,1.862
				c0.004-0.069,0.458-0.118,0.464-0.197c0.033-0.621,0.067-1.241,0.103-1.862C22.686,25.896,22.23,25.946,22.226,26.026z"/>
			<path opacity="0.1091" fill="#754C24" d="M23.292,26.967c-0.111,0.562-0.223,1.124-0.334,1.686
				c-0.054,0.276,0.508,0.223,0.493,0.029c-0.045-0.584-0.089-1.168-0.132-1.753C23.315,26.872,23.286,26.99,23.292,26.967z"/>
			<path opacity="0.1091" fill="#754C24" d="M23.109,25.743c-0.035,0.621-0.069,1.241-0.104,1.863
				c-0.003,0.041,0.484,0.106,0.483,0.14c0.034-0.622,0.069-1.243,0.104-1.863C23.595,25.839,23.107,25.773,23.109,25.743z"/>
			<path opacity="0.1091" fill="#754C24" d="M21.614,27.19c-0.035,0.622-0.068,1.242-0.103,1.863
				c0.005-0.089,0.058-0.334,0.066-0.472c0.035-0.622,0.069-1.242,0.104-1.863C21.676,26.806,21.623,27.053,21.614,27.19z"/>
			<path opacity="0.1091" fill="#754C24" d="M22.401,28.394c-0.034,0.62-0.068,1.241-0.104,1.861
				c-0.003,0.036,0.49,0.095,0.488,0.121c0.035-0.622,0.069-1.242,0.104-1.862C22.892,28.477,22.4,28.417,22.401,28.394z"/>
			<path opacity="0.1091" fill="#754C24" d="M23.926,26.765c-0.102,0.651-0.202,1.305-0.302,1.957
				c-0.009,0.05,0.509,0.053,0.502-0.022c-0.044-0.501-0.088-1.002-0.131-1.503C23.985,27.088,23.917,26.815,23.926,26.765z"/>
			<path opacity="0.1091" fill="#754C24" d="M21.899,26.629c-0.023,0.627-0.048,1.254-0.072,1.881
				c0.006-0.149,0.225-0.292,0.237-0.444c0.047-0.611,0.094-1.224,0.141-1.835C22.194,26.363,21.905,26.486,21.899,26.629z"/>
			<path opacity="0.1091" fill="#754C24" d="M22.652,26.395c-0.03,0.507-0.06,1.012-0.09,1.518
				c-0.009,0.143,0.494,0.176,0.502,0.034c0.029-0.531,0.059-1.064,0.089-1.596C23.153,26.345,22.655,26.344,22.652,26.395z"/>
			<path opacity="0.1091" fill="#754C24" d="M23.718,27.906c-0.07,0.541-0.14,1.081-0.209,1.622c0-0.003,0.5-0.003,0.5-0.057
				c-0.007-0.663-0.014-1.326-0.021-1.989C23.989,27.614,23.736,27.764,23.718,27.906z"/>
			<path opacity="0.1091" fill="#754C24" d="M21.66,27.323c-0.033,0.62-0.068,1.24-0.102,1.862
				c-0.008,0.156,0.174,0.322,0.166,0.475c0.033-0.62,0.068-1.242,0.103-1.861C21.834,27.641,21.651,27.475,21.66,27.323z"/>
		</g>
	</g>
</g>
<g>
	<g>
		<g>
			<path opacity="0.1091" fill="#754C24" d="M26.385,31.046c0.396,0-1.068-1.956-1.593-1.956
				C24.397,29.09,25.86,31.046,26.385,31.046z"/>
			<path opacity="0.1091" fill="#754C24" d="M25.048,29.956c0.474,0-0.539-1.271-0.913-1.271
				C23.663,28.685,24.676,29.956,25.048,29.956z"/>
			<path opacity="0.1091" fill="#754C24" d="M25.498,28.786c0.235,0,0.414-0.481,0.077-0.481
				C25.342,28.305,25.163,28.786,25.498,28.786z"/>
			<path opacity="0.1091" fill="#754C24" d="M26.082,29.647c0.407,0-0.992-1.809-1.489-1.809
				C24.186,27.839,25.584,29.647,26.082,29.647z"/>
			<path opacity="0.1091" fill="#754C24" d="M26.182,28.468c0.475,0,0.198-0.678-0.133-0.678
				C25.572,27.79,25.85,28.468,26.182,28.468z"/>
			<path opacity="0.1091" fill="#754C24" d="M24.626,29.756c0.289,0,0.391-0.52,0.049-0.52
				C24.384,29.236,24.284,29.756,24.626,29.756z"/>
			<path opacity="0.1091" fill="#754C24" d="M25.519,31.061c0.463,0-0.689-1.48-1.101-1.48
				C23.956,29.58,25.107,31.061,25.519,31.061z"/>
			<path opacity="0.1091" fill="#754C24" d="M26.827,29.567c0.41,0-0.96-1.734-1.445-1.734
				C24.971,27.833,26.341,29.567,26.827,29.567z"/>
			<path opacity="0.1091" fill="#754C24" d="M24.952,29.15c0.367,0,0.326-0.58-0.017-0.58C24.569,28.57,24.609,29.15,24.952,29.15z"
				/>
			<path opacity="0.1091" fill="#754C24" d="M25.654,28.808c0.467,0-0.352-1.004-0.688-1.004
				C24.501,27.804,25.319,28.808,25.654,28.808z"/>
			<path opacity="0.1091" fill="#754C24" d="M26.832,30.395c0.371,0-1.159-2.031-1.715-2.031
				C24.746,28.363,26.277,30.395,26.832,30.395z"/>
			<path opacity="0.1091" fill="#754C24" d="M24.59,30.234c0.51,0,0.185-0.717-0.14-0.717C23.94,29.518,24.267,30.234,24.59,30.234z
				"/>
		</g>
	</g>
</g>
<g>
	<g>
		<g>
			<path opacity="0.1091" fill="#754C24" d="M24.083,29.981c-0.296,0.14-0.592,0.28-0.89,0.422c0.159-0.057,0.317-0.113,0.475-0.169
				c-1.357,0.284-2.715,0.384-4.094,0.53c-1.499,0.159-2.618-0.999-3.674-1.88c-0.158,0.057-0.315,0.112-0.473,0.169
				c1.058-0.065,1.99,0.084,3.035,0.242c1.657,0.249,2.644-0.179,4.208-0.588c0.162-0.043,0.313-0.128,0.474-0.169
				c-1.731,0.647-3.46,0.794-5.186,0.439c-0.68-0.171-1.365-0.203-2.057-0.094c-0.082,0.006-0.426,0.209-0.473,0.169
				c1.163,0.971,2.105,1.845,3.673,1.88c1.334,0.029,2.796-0.259,4.093-0.53c0.435-0.092,1.042-0.438,1.365-0.591
				C24.407,29.883,24.234,29.909,24.083,29.981z"/>
			<path opacity="0.1091" fill="#754C24" d="M23.134,28.898c-0.981,0.482-1.838,0.601-2.924,0.709
				c-0.582,0.037-1.16,0.094-1.737,0.17c-1.366-0.227-2.548-0.787-3.543-1.679c-0.076,0.144-0.153,0.289-0.231,0.434
				c0.905-0.295,1.82-0.241,2.743,0.159c1.549,0.128,3.054-0.072,4.514-0.603c0.068-0.018-0.01-0.505-0.017-0.502
				c-1.47,0.528-2.984,0.729-4.541,0.604c-0.839,0.019-1.657-0.125-2.502-0.099c-0.089,0.003-0.324,0.367-0.231,0.434
				c0.789,0.578,2.003,1.725,3.104,1.739c1.881,0.023,3.931-0.117,5.632-0.939C23.388,29.332,23.152,28.889,23.134,28.898z"/>
			<path opacity="0.1091" fill="#754C24" d="M23.171,27.61c-0.297,0.14-0.594,0.279-0.891,0.419c0.15-0.063,0.302-0.127,0.451-0.19
				c-1.359,0.282-2.717,0.378-4.096,0.525c-1.499,0.161-2.618-0.999-3.673-1.88c-0.155,0.065-0.309,0.132-0.464,0.197
				c0.692-0.109,1.377-0.078,2.058,0.094c1.889,0.27,3.348,0.04,5.186-0.438c0.161-0.043,0.303-0.155,0.462-0.198
				c-1.356,0.524-2.758,0.72-4.208,0.587c-1.027,0.022-1.983-0.306-3.035-0.241c-0.081,0.005-0.418,0.234-0.464,0.197
				c1.164,0.97,2.105,1.848,3.675,1.879c1.334,0.028,2.796-0.256,4.095-0.524c0.371-0.077,1.169-0.53,1.342-0.611
				C23.529,27.464,23.297,27.551,23.171,27.61z"/>
			<path opacity="0.1091" fill="#754C24" d="M24.277,28.506c-1.32,0.597-2.572,0.697-4.003,0.813
				c-1.736,0.142-2.818-0.588-4.23-1.562c-0.047,0.159-0.093,0.317-0.138,0.476c0.992-0.128,1.729-0.049,2.721,0.137
				c1.544,0.286,2.534-0.188,3.961-0.622c0.144-0.042,0.074-0.534-0.039-0.501c-2.184,0.237-4.375,0.403-6.569,0.499
				c-0.169,0.007-0.281,0.376-0.139,0.473c1.25,0.849,2.32,1.617,3.87,1.674c1.46,0.054,3.235-0.196,4.512-0.888
				C24.307,28.961,24.199,28.54,24.277,28.506z"/>
			<path opacity="0.1091" fill="#754C24" d="M24.039,27.333c-1.748,0.825-3.87,0.969-5.794,0.929
				c0.161,0.046,0.323,0.093,0.483,0.139c-0.753-0.219-1.416-0.597-1.991-1.134c-1.211-0.673-1.175-0.936,0.107-0.789
				c0.687,0.096,1.372,0.195,2.057,0.301c1.448,0.133,2.851-0.063,4.208-0.586c-0.139,0.036-0.344-0.176-0.484-0.14
				c-1.357,0.524-2.759,0.72-4.207,0.587c-1.027,0.022-1.983-0.306-3.037-0.24c0.292,0.242,0.583,0.485,0.874,0.728
				c0.574,0.537,1.237,0.916,1.99,1.135c0.041,0.017,0.087,0.026,0.129,0.039c0.106,0.03,0.242,0.099,0.354,0.1
				c1.925,0.04,4.046-0.103,5.794-0.928C24.411,27.525,24.155,27.278,24.039,27.333z"/>
			<path opacity="0.1091" fill="#754C24" d="M22.617,28.292c-1.359,0.643-2.694,0.731-4.178,0.861
				c-0.537,0.093-1.077,0.116-1.619,0.07c-1.023-0.021-2.15-1.266-2.864-1.862c-0.023,0.166-0.046,0.332-0.068,0.498
				c0.69-0.109,1.377-0.077,2.057,0.094c1.889,0.271,3.348,0.04,5.187-0.438c0.065-0.018,0.008-0.484,0.067-0.5
				c-1.356,0.524-2.76,0.72-4.209,0.587c-1.027,0.023-1.982-0.306-3.034-0.24c0,0-0.093,0.478-0.068,0.498
				c1.164,0.97,2.105,1.847,3.673,1.88c1.645,0.035,3.513-0.251,4.988-0.948C22.636,28.751,22.537,28.33,22.617,28.292z"/>
			<path opacity="0.1091" fill="#754C24" d="M23.333,29.976c-1.748,0.829-3.868,0.978-5.795,0.935c0.163,0.04,0.325,0.08,0.488,0.12
				c-0.753-0.219-1.416-0.597-1.99-1.135c-1.211-0.67-1.176-0.934,0.105-0.788c0.685,0.105,1.372,0.206,2.057,0.304
				c1.449,0.133,2.851-0.063,4.208-0.589c-0.142,0.038-0.345-0.157-0.489-0.12c-1.668,0.645-3.393,0.793-5.172,0.443
				c-1.326-0.2-0.803-0.175-2.071-0.098c0.291,0.242,0.583,0.486,0.874,0.729c0.574,0.537,1.237,0.915,1.99,1.134
				c0.039,0.017,0.093,0.024,0.13,0.034c0.111,0.027,0.244,0.083,0.358,0.086c1.927,0.041,4.047-0.105,5.796-0.935
				C23.707,30.15,23.454,29.919,23.333,29.976z"/>
			<path opacity="0.1091" fill="#754C24" d="M24.869,28.335c-1.357,0.643-2.69,0.731-4.173,0.862
				c-0.537,0.092-1.077,0.115-1.621,0.069c-1.035-0.021-2.181-1.25-2.919-1.845c0.061,0.155,0.123,0.312,0.184,0.468
				c0.61-0.087,1.212-0.049,1.809,0.116c1.935,0.311,3.471,0.033,5.349-0.444c0.082-0.021,0.045-0.48,0.098-0.492
				c-1.482,0.515-3.007,0.71-4.569,0.584c-0.983,0.021-1.857-0.311-2.871-0.231c0.043-0.004,0.131,0.422,0.184,0.468
				c1.141,0.982,2.051,1.859,3.612,1.893c1.642,0.035,3.509-0.251,4.984-0.948C24.987,28.811,24.828,28.354,24.869,28.335z"/>
			<path opacity="0.1091" fill="#754C24" d="M23.137,27.816c-1.359,0.641-2.693,0.729-4.177,0.859
				c-0.537,0.093-1.077,0.116-1.621,0.069c-1.021-0.021-2.148-1.267-2.862-1.861c-0.103,0.133-0.205,0.266-0.308,0.398
				c0.692-0.109,1.377-0.078,2.058,0.094c1.89,0.271,3.348,0.04,5.187-0.438c0.13-0.034,0.18-0.367,0.306-0.4
				c-1.356,0.524-2.76,0.72-4.208,0.587c-1.027,0.022-1.983-0.307-3.035-0.24c-0.047,0.002-0.296,0.406-0.308,0.398
				c1.164,0.97,2.105,1.847,3.675,1.88c1.643,0.034,3.51-0.25,4.987-0.947C22.968,28.151,23.005,27.879,23.137,27.816z"/>
			<path opacity="0.1091" fill="#754C24" d="M23.581,27.95c-0.933,0.217-1.834,0.376-2.788,0.471
				c-0.569,0.036-1.136,0.092-1.703,0.169c-1.366-0.232-2.559-0.783-3.579-1.655c-0.087,0.139-0.174,0.277-0.262,0.415
				c0.943-0.156,1.859-0.101,2.751,0.166c1.417,0.335,3.153-0.273,4.489-0.615c0.083-0.021,0.026-0.499,0.039-0.501
				c-1.49,0.545-3.024,0.755-4.604,0.632c-0.816,0.02-1.63-0.117-2.45-0.107c-0.088,0.001-0.361,0.346-0.262,0.416
				c0.828,0.589,2.056,1.711,3.188,1.734c1.974,0.042,3.996-0.114,5.68-1.169C23.967,27.977,23.717,27.919,23.581,27.95z"/>
			<path opacity="0.1091" fill="#754C24" d="M24.922,29.07c-1.356,0.644-2.689,0.732-4.17,0.865
				c-0.537,0.091-1.078,0.114-1.622,0.067c-1.021-0.021-2.147-1.265-2.862-1.861c-0.09,0.142-0.18,0.282-0.27,0.425
				c0.681-0.076,1.355-0.033,2.021,0.128c1.956,0.297,3.512,0.024,5.421-0.431c0.038-0.01-0.051-0.499-0.034-0.503
				c-1.439,0.526-2.92,0.719-4.447,0.576c-0.941,0.018-1.726-0.317-2.69-0.195c-0.042,0.006-0.266,0.428-0.27,0.425
				c1.163,0.971,2.104,1.845,3.673,1.88c1.642,0.034,3.507-0.254,4.981-0.952C24.782,29.433,24.796,29.13,24.922,29.07z"/>
			<path opacity="0.1091" fill="#754C24" d="M22.596,28.907c-1.359,0.644-2.695,0.732-4.177,0.863
				c-0.537,0.093-1.077,0.116-1.621,0.069c-1.021-0.022-2.148-1.267-2.864-1.861c0.056,0.157,0.111,0.316,0.167,0.475
				c0.69-0.109,1.377-0.077,2.057,0.094c1.889,0.271,3.348,0.04,5.186-0.439c-0.01,0.002-0.149-0.479-0.165-0.476
				c-1.358,0.525-2.76,0.722-4.209,0.587c-1.027,0.023-1.983-0.306-3.036-0.24c0.043-0.003,0.114,0.431,0.167,0.475
				c1.163,0.97,2.105,1.847,3.673,1.88c1.643,0.035,3.511-0.252,4.988-0.95C22.781,29.373,22.583,28.914,22.596,28.907z"/>
		</g>
	</g>
</g>
<g>
	<g>
		<g>
			<path opacity="0.1091" fill="#754C24" d="M21.073,24.052c-1.194,0.262-1.418,0.063-0.674-0.597
				c0.457-0.301,0.936-0.56,1.436-0.779c-0.15,0.073-0.324,0.097-0.475,0.169c-0.5,0.22-0.977,0.48-1.434,0.779
				c-0.746,0.66-0.521,0.858,0.674,0.597C20.757,24.226,20.919,24.048,21.073,24.052z"/>
			<path opacity="0.1091" fill="#754C24" d="M20.139,21.66c-1.196,0.262-1.421,0.061-0.675-0.601c0.455-0.3,0.933-0.562,1.431-0.783
				c-0.149,0.073-0.312,0.123-0.462,0.196c-0.5,0.222-0.977,0.483-1.433,0.784c-0.745,0.663-0.519,0.862,0.675,0.601
				C19.829,21.862,19.988,21.654,20.139,21.66z"/>
			<path opacity="0.1091" fill="#754C24" d="M20.555,21.574c-0.368-0.013-0.736-0.024-1.104-0.036
				c0.162,0.047,0.323,0.093,0.484,0.14c0.529-0.695,1.087-0.969,1.863-1.35c-0.111,0.054-0.371-0.193-0.483-0.14
				c-0.777,0.381-1.334,0.655-1.865,1.35c0.028-0.035,0.416,0.137,0.484,0.14c0.367,0.011,0.735,0.023,1.104,0.036
				C20.876,21.708,20.719,21.58,20.555,21.574z"/>
			<path opacity="0.1091" fill="#754C24" d="M19.134,22.532c-0.368-0.012-0.736-0.022-1.104-0.035
				c-0.022,0.166-0.044,0.332-0.068,0.498c0.527-0.693,1.084-0.964,1.859-1.345c0.084-0.042-0.015-0.458,0.068-0.499
				c-0.775,0.379-1.332,0.652-1.859,1.345c-0.035,0.045-0.042,0.5-0.068,0.498c0.368,0.013,0.736,0.023,1.106,0.036
				C19.087,23.031,19.12,22.532,19.134,22.532z"/>
			<path opacity="0.1091" fill="#754C24" d="M19.85,24.215c-0.368-0.011-0.735-0.022-1.104-0.034c0.162,0.04,0.326,0.08,0.489,0.12
				c0.529-0.692,1.085-0.964,1.862-1.341c-0.116,0.057-0.373-0.176-0.489-0.121c-0.776,0.378-1.333,0.649-1.862,1.342
				c0.028-0.038,0.418,0.117,0.489,0.12c0.368,0.011,0.735,0.022,1.103,0.034C20.175,24.33,20.014,24.221,19.85,24.215z"/>
			<path opacity="0.1091" fill="#754C24" d="M19.112,23.147c-0.368-0.011-0.736-0.023-1.104-0.034
				c0.055,0.157,0.111,0.315,0.166,0.475c0.527-0.693,1.083-0.965,1.859-1.344c0.02-0.009-0.183-0.467-0.165-0.475
				c-0.777,0.379-1.332,0.651-1.86,1.344c-0.015,0.021,0.156,0.475,0.166,0.475c0.368,0.011,0.736,0.023,1.104,0.034
				C19.221,23.621,19.175,23.149,19.112,23.147z"/>
			<path opacity="0.1091" fill="#754C24" d="M19.65,23.138c-0.368-0.012-0.735-0.023-1.103-0.035
				c0.089,0.143,0.176,0.285,0.265,0.427c0.994-1.304,3.54-2.263,4.761-2.931c-0.007,0.004-0.256-0.432-0.264-0.428
				c-1.221,0.668-3.768,1.628-4.762,2.932c-0.007,0.009,0.237,0.427,0.265,0.427c0.368,0.013,0.736,0.025,1.103,0.036
				C19.825,23.563,19.746,23.141,19.65,23.138z"/>
			<path opacity="0.1091" fill="#754C24" d="M20.795,22.745c-0.366-0.011-0.731-0.023-1.096-0.035
				c-0.001,0.168-0.004,0.335-0.007,0.503c1.055-1.413,3.23-2.14,4.663-2.944c0.105-0.059,0.043-0.424,0.149-0.48
				c-1.029,0.547-3.907,1.701-4.805,2.921c-0.031,0.042-0.003,0.503-0.007,0.503c0.35,0.011,0.7,0.022,1.05,0.033
				C20.757,23.246,20.785,22.745,20.795,22.745z"/>
			<path opacity="0.1091" fill="#754C24" d="M21.383,22.576c-0.368-0.013-0.736-0.023-1.104-0.036
				c0.024,0.166,0.046,0.332,0.068,0.498c0.997-1.302,3.54-2.261,4.763-2.931c0.054-0.029-0.119-0.469-0.068-0.499
				c-1.222,0.67-3.765,1.629-4.763,2.932c-0.025,0.033,0.071,0.498,0.068,0.498c0.368,0.013,0.736,0.023,1.104,0.036
				C21.427,23.073,21.415,22.576,21.383,22.576z"/>
			<path opacity="0.1091" fill="#754C24" d="M19.653,22.056c-0.235-0.186-0.471-0.371-0.707-0.556
				c-0.091,0.119-0.183,0.238-0.274,0.357c1.404-0.842,2.903-1.587,4.333-2.368c0.134-0.073,0.17-0.327,0.305-0.4
				c-1.955,1.068-3.746,1.593-5.034,3.29c-0.011,0.014-0.022,0.028-0.032,0.042c0.368,0.013,0.736,0.023,1.104,0.036
				C19.448,22.458,19.559,22.053,19.653,22.056z"/>
			<path opacity="0.1091" fill="#754C24" d="M20.598,22.146c-1.196,0.263-1.42,0.063-0.675-0.598
				c0.428-0.561,4.913-2.687,4.332-2.368c-0.134,0.073-0.366-0.029-0.501,0.044c-1.165,0.696-2.358,1.336-3.581,1.92
				c-0.25,0.149-0.501,0.299-0.751,0.448c-0.745,0.662-0.521,0.861,0.675,0.599C20.263,22.195,20.432,22.14,20.598,22.146z"/>
			<path opacity="0.1091" fill="#754C24" d="M21.438,23.31c-0.368-0.011-0.736-0.022-1.104-0.034c-0.09,0.141-0.18,0.283-0.27,0.425
				c0.995-1.3,3.544-2.263,4.761-2.932c0.13-0.071,0.143-0.353,0.271-0.424c-1.22,0.669-3.766,1.631-4.763,2.931
				c-0.044,0.058-0.219,0.426-0.27,0.425c0.368,0.011,0.736,0.023,1.104,0.034C21.257,23.737,21.357,23.309,21.438,23.31z"/>
		</g>
	</g>
</g>
<g>
	<g>
		<g>
			<path opacity="0.1091" fill="#754C24" d="M24.636,21.047c-0.173,0.115-0.346,0.229-0.518,0.344c0.134-0.09,0.338-0.08,0.474-0.17
				c0.173-0.115,0.344-0.229,0.518-0.343C24.975,20.968,24.771,20.957,24.636,21.047z"/>
			<path opacity="0.1091" fill="#754C24" d="M23.688,19.963c-0.172,0.115-0.345,0.23-0.517,0.345
				c-0.007,0.004,0.268,0.426,0.265,0.428c0.173-0.115,0.345-0.23,0.518-0.345C23.96,20.385,23.687,19.964,23.688,19.963z"/>
			<path opacity="0.1091" fill="#754C24" d="M23.711,18.683c-0.173,0.115-0.345,0.231-0.518,0.346
				c0.137-0.091,0.325-0.105,0.464-0.198c0.172-0.115,0.345-0.229,0.517-0.344C24.038,18.578,23.848,18.591,23.711,18.683z"/>
			<path opacity="0.1091" fill="#754C24" d="M24.831,19.571c-0.173,0.115-0.345,0.229-0.518,0.345
				c-0.09,0.061,0.036,0.443-0.053,0.501c0.173-0.115,0.346-0.23,0.518-0.345C24.868,20.011,24.743,19.631,24.831,19.571z"/>
			<path opacity="0.1091" fill="#754C24" d="M24.592,18.4c-0.174,0.115-0.347,0.229-0.52,0.346c0.09-0.059,0.394,0.2,0.484,0.139
				c0.172-0.115,0.345-0.23,0.518-0.345C24.986,18.6,24.683,18.339,24.592,18.4z"/>
			<path opacity="0.1091" fill="#754C24" d="M23.17,19.358c-0.172,0.116-0.345,0.231-0.517,0.346
				c-0.093,0.061,0.023,0.438-0.067,0.498c0.173-0.115,0.345-0.229,0.517-0.344C23.196,19.795,23.078,19.419,23.17,19.358z"/>
			<path opacity="0.1091" fill="#754C24" d="M23.886,21.041c-0.172,0.115-0.345,0.229-0.518,0.343
				c0.094-0.062,0.395,0.184,0.488,0.121c0.173-0.115,0.346-0.23,0.518-0.343C24.281,21.223,23.981,20.978,23.886,21.041z"/>
			<path opacity="0.1091" fill="#754C24" d="M25.419,19.402c-0.173,0.115-0.346,0.23-0.519,0.345
				c-0.064,0.042,0.126,0.459,0.066,0.498c0.173-0.115,0.346-0.229,0.519-0.344C25.549,19.858,25.361,19.44,25.419,19.402z"/>
			<path opacity="0.1091" fill="#754C24" d="M23.688,18.882c-0.171,0.116-0.344,0.231-0.516,0.346
				c-0.133,0.088-0.175,0.312-0.306,0.398c0.171-0.115,0.345-0.229,0.516-0.345C23.516,19.193,23.558,18.971,23.688,18.882z"/>
			<path opacity="0.1091" fill="#754C24" d="M24.132,19.021c-0.172,0.115-0.345,0.229-0.517,0.345
				c0.121-0.081,0.377,0.037,0.501-0.044c0.172-0.115,0.345-0.231,0.517-0.346C24.513,19.055,24.257,18.938,24.132,19.021z"/>
			<path opacity="0.1091" fill="#754C24" d="M25.473,20.136c-0.171,0.115-0.345,0.23-0.518,0.345
				c-0.128,0.086-0.144,0.341-0.27,0.425c0.173-0.115,0.346-0.229,0.518-0.344C25.333,20.475,25.347,20.22,25.473,20.136z"/>
			<path opacity="0.1091" fill="#754C24" d="M23.149,19.974c-0.173,0.115-0.345,0.229-0.518,0.345
				c-0.036,0.023,0.199,0.451,0.166,0.475c0.171-0.115,0.345-0.23,0.516-0.345C23.352,20.424,23.116,19.996,23.149,19.974z"/>
		</g>
	</g>
</g>
<g>
	<g>
		<g>
			<path opacity="0.1091" fill="#754C24" d="M19.243,19.8c0.104,0,0.206-0.397,0.309-0.397C19.449,19.402,19.347,19.8,19.243,19.8z"
				/>
			<path opacity="0.1091" fill="#754C24" d="M19.549,20.48c-0.126,0.217-0.252,0.436-0.379,0.655
				c-0.04,0.069,0.304,0.36,0.266,0.428c0.126-0.219,0.252-0.438,0.378-0.655C19.855,20.838,19.51,20.547,19.549,20.48z"/>
			<path opacity="0.1091" fill="#754C24" d="M20.691,20.089c-0.127,0.219-0.253,0.438-0.38,0.656
				c-0.078,0.131,0.023,0.368-0.053,0.5c0.127-0.219,0.253-0.438,0.379-0.655C20.714,20.457,20.613,20.22,20.691,20.089z"/>
			<path opacity="0.1091" fill="#754C24" d="M21.279,19.92c-0.127,0.217-0.255,0.436-0.381,0.655
				c-0.066,0.115,0.133,0.385,0.068,0.498c0.126-0.218,0.252-0.436,0.379-0.654C21.412,20.302,21.213,20.034,21.279,19.92z"/>
			<path opacity="0.1091" fill="#754C24" d="M19.993,19.538c-0.125,0.219-0.253,0.438-0.379,0.656
				c0.047-0.083,0.453,0.039,0.501-0.045c0.126-0.219,0.253-0.438,0.379-0.656C20.447,19.575,20.042,19.452,19.993,19.538z"/>
			<path opacity="0.1091" fill="#754C24" d="M21.063,21.077c-0.127,0.219-0.253,0.438-0.381,0.655
				c0.084-0.144,0.188-0.278,0.271-0.424c0.127-0.217,0.253-0.436,0.379-0.654C21.25,20.799,21.148,20.933,21.063,21.077z"/>
		</g>
	</g>
</g>
<g>
	<g>
		<g>
			<path opacity="0.1091" fill="#754C24" d="M20.349,18.835c0.396,0-1.068-1.956-1.593-1.956
				C18.361,16.879,19.825,18.835,20.349,18.835z"/>
			<path opacity="0.1091" fill="#754C24" d="M19.012,17.744c0.473,0-0.54-1.271-0.914-1.271
				C17.626,16.474,18.64,17.744,19.012,17.744z"/>
			<path opacity="0.1091" fill="#754C24" d="M19.462,16.576c0.235,0,0.414-0.482,0.078-0.482
				C19.306,16.094,19.127,16.576,19.462,16.576z"/>
			<path opacity="0.1091" fill="#754C24" d="M20.046,17.436c0.407,0-0.992-1.808-1.489-1.808
				C18.15,15.628,19.548,17.436,20.046,17.436z"/>
			<path opacity="0.1091" fill="#754C24" d="M20.146,16.258c0.475,0,0.198-0.68-0.134-0.68
				C19.537,15.578,19.813,16.258,20.146,16.258z"/>
			<path opacity="0.1091" fill="#754C24" d="M18.59,17.545c0.29,0,0.39-0.521,0.048-0.521C18.348,17.024,18.248,17.545,18.59,17.545
				z"/>
			<path opacity="0.1091" fill="#754C24" d="M19.482,18.85c0.462,0-0.69-1.481-1.1-1.481C17.92,17.369,19.072,18.85,19.482,18.85z"
				/>
			<path opacity="0.1091" fill="#754C24" d="M20.791,17.356c0.411,0-0.959-1.735-1.445-1.735
				C18.935,15.621,20.305,17.356,20.791,17.356z"/>
			<path opacity="0.1091" fill="#754C24" d="M18.917,16.94c0.365,0,0.325-0.58-0.017-0.58C18.533,16.36,18.573,16.94,18.917,16.94z"
				/>
			<path opacity="0.1091" fill="#754C24" d="M19.618,16.597c0.467,0-0.352-1.005-0.688-1.005
				C18.465,15.592,19.283,16.597,19.618,16.597z"/>
			<path opacity="0.1091" fill="#754C24" d="M20.796,18.185c0.371,0-1.16-2.034-1.715-2.034
				C18.71,16.151,20.241,18.185,20.796,18.185z"/>
			<path opacity="0.1091" fill="#754C24" d="M18.554,18.024c0.508,0,0.184-0.718-0.14-0.718
				C17.905,17.306,18.23,18.024,18.554,18.024z"/>
		</g>
	</g>
</g>
<g>
	<g>
		<g>
			<path opacity="0.1091" fill="#754C24" d="M18.013,15.044c-0.763,1.002-1.326,1.66-2.448,2.246
				c0.148-0.076,0.328-0.091,0.475-0.167c1.121-0.588,1.686-1.246,2.447-2.246C18.403,14.986,18.099,14.932,18.013,15.044z"/>
			<path opacity="0.1091" fill="#754C24" d="M17.066,13.961c-0.764,1-1.33,1.657-2.453,2.244c0.008-0.005,0.252,0.435,0.265,0.428
				c1.123-0.587,1.688-1.244,2.453-2.244C17.369,14.338,17.031,14.006,17.066,13.961z"/>
			<path opacity="0.1091" fill="#754C24" d="M17.088,12.681c-0.764,0.998-1.331,1.653-2.452,2.238
				c0.148-0.078,0.316-0.119,0.464-0.197c1.121-0.585,1.687-1.24,2.451-2.238C17.463,12.6,17.178,12.565,17.088,12.681z"/>
			<path opacity="0.1091" fill="#754C24" d="M18.208,13.57c-0.763,1-1.328,1.655-2.449,2.242c-0.084,0.043,0.029,0.458-0.052,0.5
				c1.121-0.587,1.686-1.241,2.45-2.242C18.244,13.956,18.122,13.683,18.208,13.57z"/>
			<path opacity="0.1091" fill="#754C24" d="M17.968,12.399c-0.763,0.998-1.327,1.651-2.448,2.238
				c0.108-0.057,0.376,0.195,0.483,0.139c1.121-0.585,1.686-1.239,2.449-2.238C18.416,12.584,18.006,12.349,17.968,12.399z"/>
			<path opacity="0.1091" fill="#754C24" d="M16.547,13.356c-0.764,1-1.332,1.656-2.453,2.242c-0.087,0.044,0.018,0.454-0.068,0.499
				c1.123-0.587,1.689-1.243,2.454-2.242C16.569,13.739,16.46,13.472,16.547,13.356z"/>
			<path opacity="0.1091" fill="#754C24" d="M17.263,15.038c-0.763,1.002-1.328,1.66-2.45,2.247c0.111-0.058,0.378,0.18,0.489,0.121
				c1.123-0.587,1.687-1.245,2.45-2.247C17.712,15.211,17.304,14.984,17.263,15.038z"/>
			<path opacity="0.1091" fill="#754C24" d="M18.796,13.399c-0.761,1.001-1.324,1.655-2.444,2.242
				c-0.053,0.028,0.115,0.472,0.066,0.499c1.121-0.587,1.683-1.242,2.444-2.242C18.936,13.802,18.726,13.492,18.796,13.399z"/>
			<path opacity="0.1091" fill="#754C24" d="M16.913,13.08c-0.526,0.984-1.292,1.664-2.299,2.041c-0.134,0.07-0.171,0.329-0.306,0.4
				c1.237-0.646,1.803-1.387,2.607-2.439C17.092,12.85,17.089,12.849,16.913,13.08z"/>
			<path opacity="0.1091" fill="#754C24" d="M17.51,13.018c-0.764,0.998-1.329,1.652-2.45,2.238c0.137-0.07,0.362,0.028,0.501-0.044
				c1.121-0.585,1.686-1.24,2.45-2.238C17.943,13.061,17.581,12.925,17.51,13.018z"/>
			<path opacity="0.1091" fill="#754C24" d="M18.852,14.134c-0.761,1.002-1.325,1.657-2.446,2.244
				c-0.13,0.069-0.143,0.359-0.271,0.425c1.123-0.587,1.685-1.243,2.447-2.244C18.683,14.425,18.75,14.268,18.852,14.134z"/>
			<path opacity="0.1091" fill="#754C24" d="M16.526,13.971c-0.764,1-1.332,1.657-2.454,2.244c-0.022,0.012,0.187,0.465,0.166,0.476
				c1.123-0.588,1.688-1.244,2.453-2.244C16.749,14.373,16.471,14.043,16.526,13.971z"/>
		</g>
	</g>
</g>
<g>
	<g>
		<g>
			<path opacity="0.1091" fill="#754C24" d="M17.391,15.804c-0.035,0.046-0.069,0.091-0.104,0.138
				c0.083-0.11,0.389-0.055,0.475-0.168c0.035-0.046,0.069-0.093,0.104-0.139C17.783,15.744,17.477,15.69,17.391,15.804z"/>
			<path opacity="0.1091" fill="#754C24" d="M16.443,14.721c-0.035,0.046-0.069,0.091-0.104,0.139
				c-0.039,0.051,0.3,0.38,0.266,0.428c0.033-0.047,0.068-0.093,0.103-0.139C16.748,15.095,16.409,14.767,16.443,14.721z"/>
			<path opacity="0.1091" fill="#754C24" d="M16.467,13.438c-0.035,0.047-0.069,0.094-0.103,0.14
				c0.084-0.115,0.375-0.079,0.462-0.197c0.035-0.047,0.069-0.093,0.104-0.14C16.846,13.356,16.554,13.321,16.467,13.438z"/>
			<path opacity="0.1091" fill="#754C24" d="M17.691,14.806c-0.09,0-0.702-0.296-0.342-0.137c0.107,0.047,0.216,0.105,0.328,0.135
				C16.502,14.485,17.593,14.806,17.691,14.806z"/>
			<path opacity="0.1091" fill="#754C24" d="M17.347,13.156c-0.035,0.047-0.069,0.093-0.104,0.14
				c0.033-0.044,0.447,0.189,0.484,0.14c0.035-0.047,0.069-0.094,0.104-0.14C17.798,13.338,17.386,13.104,17.347,13.156z"/>
			<path opacity="0.1091" fill="#754C24" d="M15.925,14.115c-0.034,0.047-0.069,0.093-0.102,0.14
				c-0.089,0.119,0.019,0.381-0.068,0.498c0.035-0.047,0.069-0.092,0.103-0.14C15.946,14.494,15.84,14.231,15.925,14.115z"/>
			<path opacity="0.1091" fill="#754C24" d="M16.643,15.799c-0.035,0.046-0.069,0.092-0.104,0.137
				c0.038-0.05,0.447,0.174,0.489,0.121c0.035-0.046,0.069-0.093,0.103-0.139C17.094,15.968,16.684,15.743,16.643,15.799z"/>
			<path opacity="0.1091" fill="#754C24" d="M18.179,14.158c-0.035,0.047-0.069,0.093-0.104,0.138
				c-0.074,0.098,0.135,0.406,0.066,0.5c0.035-0.047,0.069-0.093,0.104-0.14C18.32,14.558,18.11,14.251,18.179,14.158z"/>
			<path opacity="0.1091" fill="#754C24" d="M16.169,13.995c-0.042,0.058-0.084,0.115-0.126,0.172
				c0.044-0.06,0.195-0.245,0.269-0.345c0.035-0.047,0.069-0.093,0.104-0.139C16.492,13.58,16.207,13.943,16.169,13.995z"/>
			<path opacity="0.1091" fill="#754C24" d="M16.889,13.774c-0.029,0.069-0.058,0.137-0.087,0.205
				c0.035-0.082,0.383-0.125,0.471-0.177c0.039-0.023,0.079-0.048,0.117-0.072C17.314,13.776,16.921,13.7,16.889,13.774z"/>
			<path opacity="0.1091" fill="#754C24" d="M18.225,14.905c-0.035,0.046-0.069,0.093-0.104,0.139
				c-0.097,0.13-0.165,0.284-0.262,0.414c0.038-0.05,0.075-0.1,0.112-0.148C18.054,15.197,18.172,14.976,18.225,14.905z"/>
			<path opacity="0.1091" fill="#754C24" d="M15.903,14.731c-0.033,0.046-0.068,0.093-0.103,0.139
				c-0.058,0.077,0.22,0.401,0.166,0.475c0.035-0.046,0.068-0.093,0.103-0.139C16.127,15.127,15.85,14.803,15.903,14.731z"/>
		</g>
	</g>
</g>
<g>
	<g>
		<g>
			<path opacity="0.1091" fill="#754C24" d="M19.832,13.42c0.396,0-1.069-1.956-1.593-1.956
				C17.844,11.464,19.307,13.42,19.832,13.42z"/>
			<path opacity="0.1091" fill="#754C24" d="M18.495,12.33c0.473,0-0.54-1.271-0.914-1.271C17.109,11.059,18.122,12.33,18.495,12.33
				z"/>
			<path opacity="0.1091" fill="#754C24" d="M18.944,11.162c0.235,0,0.414-0.482,0.078-0.482
				C18.788,10.68,18.609,11.162,18.944,11.162z"/>
			<path opacity="0.1091" fill="#754C24" d="M19.528,12.021c0.407,0-0.992-1.808-1.489-1.808
				C17.632,10.213,19.03,12.021,19.528,12.021z"/>
			<path opacity="0.1091" fill="#754C24" d="M19.628,10.843c0.475,0,0.198-0.68-0.133-0.68
				C19.019,10.164,19.296,10.843,19.628,10.843z"/>
			<path opacity="0.1091" fill="#754C24" d="M18.072,12.13c0.289,0,0.39-0.521,0.048-0.521C17.83,11.61,17.73,12.13,18.072,12.13z"
				/>
			<path opacity="0.1091" fill="#754C24" d="M18.965,13.434c0.462,0-0.689-1.479-1.1-1.479
				C17.402,11.955,18.554,13.434,18.965,13.434z"/>
			<path opacity="0.1091" fill="#754C24" d="M20.274,11.94c0.41,0-0.96-1.734-1.446-1.734C18.417,10.207,19.787,11.94,20.274,11.94z
				"/>
			<path opacity="0.1091" fill="#754C24" d="M18.399,11.525c0.367,0,0.325-0.581-0.017-0.581
				C18.016,10.944,18.056,11.525,18.399,11.525z"/>
			<path opacity="0.1091" fill="#754C24" d="M19.101,11.181c0.466,0-0.352-1.003-0.688-1.003
				C17.948,10.177,18.766,11.181,19.101,11.181z"/>
			<path opacity="0.1091" fill="#754C24" d="M20.278,12.77c0.371,0-1.16-2.033-1.715-2.033C18.193,10.736,19.724,12.77,20.278,12.77
				z"/>
			<path opacity="0.1091" fill="#754C24" d="M18.036,12.609c0.509,0,0.184-0.719-0.14-0.719
				C17.389,11.891,17.712,12.609,18.036,12.609z"/>
		</g>
	</g>
</g>
<g>
	<g>
		<g>
			<path opacity="0.1091" fill="#754C24" d="M19.049,10.013c0.436,1.135,1.139,3.946,2.518,4.14
				c0.064,0.008,0.446-0.116,0.473-0.169c0.625-1.13,0.805-2.48,1.725-3.45c-0.159,0.057-0.316,0.112-0.475,0.168
				c0.447,1.122,0.486,2.218,1.347,3.106c0.016,0.016,0.451-0.133,0.474-0.168c0.331-0.426,0.571-0.898,0.724-1.416
				c-0.04,0.103-0.432,0.065-0.473,0.169c-0.152,0.518-0.395,0.989-0.725,1.416c0.158-0.057,0.315-0.112,0.474-0.168
				c-0.861-0.889-0.898-1.985-1.346-3.106c0.003,0.008-0.439,0.133-0.475,0.168c-0.92,0.971-1.099,2.32-1.723,3.451
				c0.158-0.057,0.316-0.112,0.473-0.169c-1.378-0.193-2.081-3.005-2.517-4.14C19.519,9.834,19.048,10.01,19.049,10.013z"/>
			<path opacity="0.1091" fill="#754C24" d="M18.119,8.929c0.21,1.189,0.897,4.191,2.354,4.36c0.103,0.013,0.368-0.135,0.421-0.223
				c0.655-1.058,0.96-2.35,1.731-3.356c-0.097,0.115-0.193,0.23-0.291,0.345c0.337,1.046,0.335,2.001,1.141,2.801
				c0.09,0.09,0.363-0.086,0.424-0.163c0.321-0.375,0.617-0.769,0.892-1.179c-0.029,0.042-0.471-0.132-0.497-0.069
				c-0.14,0.523-0.407,0.967-0.802,1.333c0.142-0.054,0.282-0.108,0.425-0.164c-0.827-0.815-0.823-1.899-1.262-2.948
				c-0.016,0.01-0.028,0.022-0.039,0.038c-0.891,0.976-1.481,2.073-1.997,3.301c-0.082,0.195-1.321-1.939-1.347-1.992
				c-0.303-0.614-0.597-1.204-0.951-1.791C18.288,9.167,18.121,8.936,18.119,8.929z"/>
			<path opacity="0.1091" fill="#754C24" d="M18.121,7.64c0.438,1.138,1.139,3.942,2.519,4.14c0.061,0.008,0.433-0.144,0.462-0.197
				c0.625-1.129,0.806-2.478,1.724-3.448c-0.153,0.065-0.309,0.13-0.462,0.197c0.447,1.121,0.484,2.214,1.346,3.103
				c0.012,0.012,0.438-0.161,0.462-0.197c0.331-0.425,0.573-0.896,0.726-1.412c-0.043,0.108-0.42,0.086-0.464,0.195
				c-0.152,0.516-0.395,0.988-0.724,1.413c0.153-0.065,0.307-0.131,0.462-0.197c-0.86-0.89-0.898-1.983-1.346-3.103
				c0.006,0.013-0.426,0.158-0.462,0.197c-0.919,0.971-1.099,2.318-1.725,3.448c0.154-0.065,0.309-0.132,0.462-0.197
				c-1.38-0.198-2.082-3.003-2.518-4.14C18.584,7.442,18.117,7.629,18.121,7.64z"/>
			<path opacity="0.1091" fill="#754C24" d="M19.15,9.016c0.217,1.108,0.932,3.776,2.265,3.859c0.105,0.007,0.335-0.123,0.374-0.227
				c0.416-1.116,1.186-2.205,1.959-3.146c-0.128,0.078-0.256,0.155-0.385,0.234c0.325,1.038,0.294,2.018,1.06,2.81
				c0.103,0.105,0.285-0.116,0.333-0.188c0.363-0.446,0.646-0.938,0.848-1.477c0-0.001-0.331,0.179-0.385,0.284
				c-0.172,0.459-0.43,0.864-0.774,1.212c0.112-0.062,0.224-0.125,0.334-0.187c-0.357-0.907-0.69-1.82-1.004-2.744
				c-0.018-0.051-0.356,0.21-0.386,0.234c-0.683,0.569-1.008,1.169-1.509,1.932c-0.226,0.345-0.254,0.794-0.504,1.142
				c0.125-0.076,0.25-0.152,0.375-0.228C20.413,12.409,19.74,9.5,19.208,8.53C19.254,8.612,19.127,8.898,19.15,9.016z"/>
			<path opacity="0.1091" fill="#754C24" d="M19.004,7.358c0.433,1.125,1.073,3.781,2.379,4.158
				c0.223,0.064,0.375,0.086,0.623,0.121c0.14,0.021,1.311-3.012,1.724-3.448c-0.161-0.046-0.323-0.093-0.483-0.139
				c0.448,1.12,0.485,2.213,1.347,3.102c0.032,0.033,0.475,0.152,0.483,0.14c0.329-0.425,0.571-0.896,0.724-1.412
				c-0.006,0.014-0.478-0.157-0.483-0.14c-0.152,0.517-0.395,0.987-0.724,1.412c0.16,0.047,0.321,0.094,0.483,0.14
				c-0.86-0.889-0.898-1.983-1.347-3.103c-0.01-0.026-0.471-0.152-0.483-0.139c-0.681,0.718-0.921,1.516-1.344,2.449
				c-0.236,0.521-0.067,1.043-0.76,0.944c0.161,0.047,0.323,0.093,0.483,0.14c-1.046-1.147-1.588-2.653-2.137-4.086
				C19.449,7.396,19.039,7.446,19.004,7.358z"/>
			<path opacity="0.1091" fill="#754C24" d="M17.51,8.818c0.374,0.974,0.788,1.918,1.247,2.854c0.216,0.472,0.512,0.881,0.89,1.231
				c0.432,0.474,0.628-0.502,0.677-0.647c0.163-0.641,0.422-1.246,0.775-1.816c0.385-0.844,0.508-1.3,0.96-0.161
				c0.105,0.609,0.271,1.201,0.497,1.776c0.53,1.567,1.12-0.489,1.268-0.855c0.062-0.151,0.006-0.349,0.066-0.5
				c-0.153,0.518-0.396,0.988-0.727,1.415c-0.485-0.342-0.761-0.813-0.827-1.411c-0.085-0.591-0.256-1.156-0.517-1.694
				c-0.101-0.256-1.715,3.259-1.345,2.45c-0.368,0.808-0.317,1.431-1.197,0.468c-0.839-0.919-1.261-2.462-1.701-3.608
				C17.628,8.454,17.457,8.678,17.51,8.818z"/>
			<path opacity="0.1091" fill="#754C24" d="M18.296,10.007c0.421,1.097,1.084,3.832,2.381,4.151
				c0.36,0.087,0.561,0.228,0.778-0.165c0.573-1.038,0.723-2.279,1.572-3.176c-0.162-0.04-0.325-0.081-0.488-0.121
				c0.446,1.123,0.484,2.217,1.345,3.106c0.032,0.033,0.48,0.134,0.489,0.121c0.33-0.426,0.572-0.898,0.725-1.416
				c-0.008,0.021-0.479-0.143-0.488-0.121c-0.152,0.518-0.395,0.99-0.726,1.416c0.164,0.04,0.327,0.08,0.489,0.121
				c-0.861-0.889-0.898-1.985-1.346-3.106c-0.01-0.023-0.475-0.134-0.488-0.121c-0.681,0.72-0.921,1.519-1.344,2.45
				c-0.231,0.508-0.071,1.045-0.748,0.95c0.158,0.04,0.317,0.079,0.475,0.119c-1.046-1.147-1.588-2.655-2.137-4.087
				C18.749,10.033,18.328,10.091,18.296,10.007z"/>
			<path opacity="0.1091" fill="#754C24" d="M19.885,8.852c0.547,1.431,1.08,2.941,2.112,4.097c0.635,0.711,1.78-3.359,1.813-3.473
				c-0.066,0.154-0.134,0.307-0.202,0.461c0.616,0.054,0.868,0.417,0.758,1.088c0.054,0.57,0.316,1.009,0.788,1.319
				c0.088,0.086,0.396-0.115,0.45-0.193c0.344-0.403,0.594-0.855,0.754-1.359c-0.052,0.122-0.346,0.154-0.413,0.285
				c-0.185,0.446-0.439,0.846-0.766,1.2c0.142-0.052,0.283-0.105,0.425-0.158c-0.477-0.317-0.743-0.764-0.802-1.341
				c-0.067-0.302-0.137-0.603-0.206-0.903c-0.098-0.904-0.359-1.037-0.786-0.398c-0.887,0.807-1.513,2.328-1.444,3.527
				c0.014-0.167,0.027-0.335,0.041-0.502c-1.406-0.194-2.125-2.966-2.577-4.124C19.858,8.449,19.837,8.724,19.885,8.852z"/>
			<path opacity="0.1091" fill="#754C24" d="M17.794,8.244c0.436,1.136,1.136,3.94,2.517,4.137c0.047,0.007,0.274-0.343,0.306-0.398
				c0.529-0.954,0.833-2.051,1.333-3.036c-0.103,0.133-0.204,0.266-0.306,0.4c0.38-0.654,0.614-0.536,0.699,0.356
				c0.384,0.966,0.278,1.55,1.037,2.333c-0.006-0.005,0.274-0.347,0.301-0.388c0.333-0.429,0.577-0.904,0.731-1.425
				c-0.06,0.149-0.246,0.249-0.306,0.4c-0.152,0.512-0.392,0.98-0.72,1.402c0.1-0.13,0.201-0.259,0.301-0.389
				c-0.861-0.889-0.9-1.982-1.346-3.103c-0.023-0.058-0.446,0.481-0.545,0.613c-0.732,0.957-0.916,2.207-1.485,3.235
				c0.101-0.133,0.203-0.266,0.306-0.398c-1.38-0.197-2.08-3.002-2.516-4.139C18.129,7.918,17.761,8.155,17.794,8.244z"/>
			<path opacity="0.1091" fill="#754C24" d="M18.547,8.007c0.449,0.957,0.786,1.925,1.24,2.875c0.29,0.604,0.567,1.151,1.243,1.207
				c0.116,0.01,0.344-0.164,0.4-0.259c0.613-1.066,1.031-2.291,1.852-3.255c-0.138,0.09-0.272,0.18-0.41,0.269
				c0.38,1.035,0.361,2.039,1.167,2.84c0.094,0.093,0.353-0.122,0.411-0.195c0.325-0.392,0.627-0.802,0.901-1.23
				c-0.055,0.079-0.454-0.022-0.499,0.073c-0.141,0.505-0.409,0.929-0.804,1.272c0.137-0.066,0.274-0.131,0.411-0.197
				c-0.81-0.803-0.779-1.809-1.171-2.844c-0.003-0.007-0.375,0.231-0.41,0.269c-0.779,0.837-1.251,1.925-1.712,2.969
				c-0.088,0.198-1.396-2.055-1.417-2.098c-0.374-0.745-0.477-1.02-0.702-1.738C19.027,7.895,18.557,8.028,18.547,8.007z"/>
			<path opacity="0.1091" fill="#754C24" d="M19.614,9.521c0.516,1.295,1.063,2.495,1.974,3.565
				c-0.096-0.117-0.189-0.233-0.285-0.349c0.376,0.598,0.272,0.548,0.78,0.751c0.879,0.351,1.508-2.905,1.688-3.265
				c-0.103,0.109-0.205,0.218-0.309,0.328c0.663,0.183,0.963,0.63,0.898,1.343c0.076,0.609,0.364,1.088,0.862,1.434
				c0.001-0.003,0.004-0.007,0.007-0.01c0.806-1.298,0.515-0.703,0.984-1.831c-0.063,0.149-0.242,0.253-0.299,0.404
				c-0.095,0.253-0.19,0.505-0.284,0.757c0.082-0.126,0.163-0.252,0.245-0.378c-0.895,1.341-1.604-2.181-1.714-2.461
				c-0.014,0.011-0.026,0.023-0.037,0.038c-1.004,1.06-1.416,2.307-2.092,3.582c0.161,0.023,0.323,0.048,0.484,0.073
				c-0.283-0.063-0.567-0.125-0.85-0.187c0.155,0.064,0.31,0.127,0.465,0.191c-0.276-0.256-0.553-0.513-0.83-0.77
				c0.106,0.13,0.213,0.259,0.32,0.389c-0.689-1.307-1.225-2.646-1.738-4.031C19.916,9.182,19.574,9.421,19.614,9.521z"/>
			<path opacity="0.1091" fill="#754C24" d="M17.701,9.363c0.557,1.451,1.098,2.975,2.158,4.134c0.467,0.511,0.706-0.753,0.76-0.946
				c0.289-0.692,0.607-1.371,0.954-2.035c0.379-0.651,0.61-0.536,0.693,0.346c-0.052-0.155-0.106-0.309-0.16-0.463
				c0.168,0.733,0.367,1.416,0.616,2.125c0.53,1.504,1.06-0.096,1.314-0.731c0.047-0.118-0.213-0.358-0.166-0.475
				c-0.1,0.248-0.199,0.497-0.299,0.746c-0.239,0.854-0.563,0.89-0.968,0.111c0.05,0.141,0.1,0.282,0.151,0.425
				c-0.225-0.662-0.339-1.319-0.563-1.964c-0.217-0.623-0.069-1.349-0.784-0.595c-0.745,0.787-0.816,2.102-1.334,3.037
				c-0.381,0.029-0.653-0.148-0.817-0.532c-0.749-0.821-1.273-2.5-1.68-3.56C17.53,8.867,17.678,9.304,17.701,9.363z"/>
		</g>
	</g>
</g>
<g>
	<g>
		<g>
			<path opacity="0.1091" fill="#754C24" d="M25.574,12c-0.019,0.091-0.036,0.183-0.053,0.275c-0.079,0.413,0.584-0.106,0.577-0.1
				c0.305-0.286,0.742-0.654,0.84-1.078c0.019-0.079,0.035-0.156,0.053-0.234c0.095-0.408-0.585,0.094-0.574,0.084
				C26.125,11.214,25.651,11.588,25.574,12z"/>
			<path opacity="0.1091" fill="#754C24" d="M24.496,11.22c-0.02,0.095-0.039,0.191-0.059,0.286
				c-0.104,0.507,0.776-0.282,0.717-0.227c0.385-0.359,1.146-0.925,1.271-1.474c0.018-0.075,0.034-0.15,0.051-0.225
				c0.113-0.501-0.772,0.262-0.713,0.208C25.393,10.125,24.604,10.689,24.496,11.22z"/>
			<path opacity="0.1091" fill="#754C24" d="M24.557,9.58c-0.013,0.084-0.026,0.168-0.039,0.254
				c-0.081,0.529,0.755,0.111,0.777-0.231c0.004-0.064,0.008-0.127,0.011-0.191C25.34,8.876,24.606,9.264,24.557,9.58z"/>
			<path opacity="0.1091" fill="#754C24" d="M25.693,10.665c-0.019,0.096-0.036,0.191-0.056,0.287
				c-0.08,0.411,0.581-0.093,0.577-0.089c0.294-0.269,0.77-0.649,0.847-1.063c0.016-0.076,0.029-0.151,0.043-0.227
				C27.173,9.215,25.777,10.235,25.693,10.665z"/>
			<path opacity="0.1091" fill="#754C24" d="M25.269,9.654c-0.017,0.094-0.033,0.188-0.05,0.282
				c-0.042,0.238,0.429,0.441,0.485,0.105c0.017-0.102,0.033-0.205,0.052-0.307C25.794,9.502,25.326,9.322,25.269,9.654z"/>
			<path opacity="0.1091" fill="#754C24" d="M23.78,10.668c-0.023,0.097-0.047,0.195-0.07,0.293
				c-0.108,0.444,0.656-0.152,0.624-0.125c0.321-0.286,0.915-0.728,1.005-1.181c0.014-0.069,0.027-0.14,0.041-0.209
				C25.449,9.099,23.889,10.217,23.78,10.668z"/>
			<path opacity="0.1091" fill="#754C24" d="M24.665,12.299c-0.019,0.091-0.036,0.183-0.055,0.274
				c-0.097,0.491,0.736-0.253,0.686-0.205c0.377-0.36,1.028-0.868,1.164-1.4c0.02-0.076,0.039-0.154,0.058-0.23
				c0.125-0.487-0.747,0.249-0.684,0.191C25.479,11.257,24.766,11.789,24.665,12.299z"/>
			<path opacity="0.1091" fill="#754C24" d="M26.171,10.557c-0.021,0.095-0.043,0.192-0.063,0.288
				c-0.121,0.542,0.738,0.065,0.807-0.257c0.02-0.094,0.039-0.187,0.058-0.279C27.086,9.761,26.241,10.242,26.171,10.557z"/>
			<path opacity="0.1091" fill="#754C24" d="M24.318,9.905c-0.021,0.095-0.044,0.191-0.066,0.286
				c-0.173,0.762,1.187-0.4,1.249-0.813c0.011-0.068,0.021-0.136,0.031-0.204C25.599,8.731,24.38,9.636,24.318,9.905z"/>
			<path opacity="0.1091" fill="#754C24" d="M25.24,9.756c-0.021,0.096-0.041,0.191-0.062,0.288
				c-0.152,0.696,1.014-0.192,1.063-0.522c0.011-0.075,0.022-0.148,0.033-0.223C26.38,8.59,25.306,9.459,25.24,9.756z"/>
			<path opacity="0.1091" fill="#754C24" d="M26.118,11.19c-0.017,0.09-0.035,0.181-0.052,0.273
				c-0.133,0.695,0.974-0.208,1.03-0.523c0.014-0.078,0.027-0.155,0.041-0.234C27.262,10.013,26.176,10.882,26.118,11.19z"/>
			<path opacity="0.1091" fill="#754C24" d="M23.76,11.387c-0.021,0.095-0.043,0.191-0.065,0.286
				c-0.114,0.5,0.767-0.264,0.705-0.208c0.377-0.349,1.111-0.889,1.237-1.424c0.017-0.073,0.033-0.145,0.05-0.217
				c0.114-0.49-0.752,0.235-0.698,0.187C24.618,10.342,23.88,10.867,23.76,11.387z"/>
		</g>
	</g>
</g>
<g>
	<g>
		<g>
			<path opacity="0.1091" fill="#754C24" d="M21.303,17.538c0.978-0.371,1.954-0.742,2.933-1.113
				c0.132-0.044,0.364-0.133,0.449-0.161c-1.465,0.487-2.41,0.833-3.832,1.431C20.935,17.661,21.174,17.592,21.303,17.538z"/>
			<path opacity="0.1091" fill="#754C24" d="M20.157,17.046c1.093-0.512,2.22-0.938,3.38-1.276
				c-0.035,0.011-0.226-0.441-0.265-0.428c-1.16,0.338-2.287,0.764-3.381,1.276C19.912,16.609,20.129,17.058,20.157,17.046z"/>
			<path opacity="0.1091" fill="#754C24" d="M20.041,15.286c1.085-0.41,2.17-0.819,3.254-1.229c0.159-0.054,0.306-0.144,0.463-0.197
				c-1.918,0.642-1.629,0.537-3.503,1.33C20.185,15.221,19.734,15.416,20.041,15.286z"/>
			<path opacity="0.1091" fill="#754C24" d="M20.981,16.726c1.125-0.501,2.278-0.927,3.461-1.278
				c0.017-0.005-0.132-0.485-0.128-0.487c-1.131,0.325-2.225,0.746-3.28,1.265C20.958,16.259,21.054,16.696,20.981,16.726z"/>
			<path opacity="0.1091" fill="#754C24" d="M21.279,15.193c1.095-0.514,2.222-0.94,3.383-1.28c-0.13,0.044-0.354-0.184-0.484-0.14
				c-1.16,0.34-2.287,0.767-3.381,1.28C20.914,15.004,21.157,15.245,21.279,15.193z"/>
			<path opacity="0.1091" fill="#754C24" d="M19.308,16.511c1.092-0.512,2.217-0.937,3.376-1.276
				c0.071-0.023-0.002-0.476,0.066-0.499c-1.158,0.338-2.283,0.764-3.376,1.276C19.293,16.047,19.383,16.479,19.308,16.511z"/>
			<path opacity="0.1091" fill="#754C24" d="M20.58,17.816c1.094-0.511,2.221-0.936,3.379-1.273
				c-0.135,0.044-0.354-0.165-0.488-0.119c-1.159,0.338-2.286,0.761-3.379,1.272C20.213,17.645,20.454,17.869,20.58,17.816z"/>
			<path opacity="0.1091" fill="#754C24" d="M21.694,16.554c1.094-0.512,2.222-0.937,3.38-1.276c0.033-0.011-0.094-0.49-0.066-0.499
				c-1.16,0.339-2.286,0.764-3.38,1.276C21.583,16.075,21.73,16.539,21.694,16.554z"/>
			<path opacity="0.1091" fill="#754C24" d="M19.589,15.937c1.092-0.514,2.217-0.94,3.375-1.279c0.133-0.046,0.176-0.356,0.308-0.4
				c-1.16,0.34-2.285,0.767-3.377,1.279C19.758,15.595,19.721,15.88,19.589,15.937z"/>
			<path opacity="0.1091" fill="#754C24" d="M20.839,15.626c1.094-0.512,2.221-0.937,3.38-1.276
				c-0.153,0.051-0.346-0.007-0.501,0.044c-1.159,0.338-2.286,0.764-3.38,1.276C20.483,15.61,20.691,15.689,20.839,15.626z"/>
			<path opacity="0.1091" fill="#754C24" d="M21.409,17.215c1.095-0.512,2.223-0.937,3.385-1.274
				c0.124-0.042,0.147-0.384,0.27-0.424c-1.161,0.338-2.288,0.763-3.384,1.273C21.55,16.846,21.534,17.163,21.409,17.215z"/>
			<path opacity="0.1091" fill="#754C24" d="M19.519,17.104c1.094-0.512,2.219-0.937,3.377-1.275c-0.001,0-0.161-0.476-0.166-0.476
				c-1.158,0.339-2.284,0.764-3.375,1.276C19.34,16.634,19.525,17.101,19.519,17.104z"/>
		</g>
	</g>
</g>
<g>
	<g>
		<g>
			<path opacity="0.1091" fill="#754C24" d="M25.073,17.321c-0.204,0.41-0.407,0.821-0.61,1.23c-0.327,0.66,1.025,0.001,1.176-0.262
				c0.219-0.382,0.438-0.763,0.656-1.143C26.658,16.515,25.247,16.972,25.073,17.321z"/>
			<path opacity="0.1091" fill="#754C24" d="M23.963,16.547c-0.22,0.472-0.44,0.944-0.659,1.416
				c-0.211,0.457,0.785-0.007,0.753,0.008c0.485-0.226,1.369-0.523,1.668-1.008c0.238-0.386,0.477-0.772,0.713-1.16
				c0.265-0.428-0.78-0.071-0.74-0.084C25.307,15.855,24.164,16.115,23.963,16.547z"/>
			<path opacity="0.1091" fill="#754C24" d="M24.135,14.929c-0.203,0.41-0.407,0.818-0.609,1.228
				c-0.313,0.63,0.951,0.086,1.101-0.182c0.231-0.414,0.462-0.828,0.695-1.24C25.53,14.363,24.295,14.608,24.135,14.929z"/>
			<path opacity="0.1091" fill="#754C24" d="M25.236,16.083c-0.226,0.455-0.45,0.911-0.674,1.366
				c-0.179,0.361,1.431-0.288,1.629-0.62c0.229-0.386,0.458-0.771,0.688-1.155C27.074,15.346,25.435,15.682,25.236,16.083z"/>
			<path opacity="0.1091" fill="#754C24" d="M24.889,14.792c-0.239,0.461-0.479,0.923-0.718,1.384
				c-0.178,0.344,0.438,0.435,0.599,0.133c0.23-0.436,0.46-0.872,0.691-1.308C25.644,14.653,25.047,14.487,24.889,14.792z"/>
			<path opacity="0.1091" fill="#754C24" d="M23.101,16.034c-0.222,0.477-0.441,0.955-0.663,1.432
				c-0.206,0.449,0.76-0.001,0.729,0.013c0.479-0.227,1.284-0.515,1.586-0.987c0.238-0.375,0.477-0.749,0.715-1.124
				c0.263-0.413-0.742-0.096-0.709-0.106C24.385,15.386,23.292,15.621,23.101,16.034z"/>
			<path opacity="0.1091" fill="#754C24" d="M24.231,17.499c-0.223,0.468-0.444,0.936-0.666,1.404
				c-0.189,0.398,0.63,0.044,0.619,0.05c0.409-0.208,0.973-0.451,1.225-0.855c0.235-0.379,0.473-0.758,0.709-1.138
				C26.292,16.678,24.451,17.033,24.231,17.499z"/>
			<path opacity="0.1091" fill="#754C24" d="M25.601,15.943c-0.205,0.426-0.41,0.854-0.614,1.282
				c-0.23,0.476,0.639,0.263,0.786-0.021c0.196-0.379,0.393-0.76,0.589-1.141C26.605,15.593,25.741,15.647,25.601,15.943z"/>
			<path opacity="0.1091" fill="#754C24" d="M23.722,15.423c-0.223,0.465-0.445,0.929-0.667,1.394
				c-0.167,0.349,1.67-0.395,1.896-0.758c0.232-0.373,0.465-0.745,0.697-1.119C25.834,14.644,23.94,14.966,23.722,15.423z"/>
			<path opacity="0.1091" fill="#754C24" d="M24.751,15.279c-0.224,0.454-0.444,0.908-0.668,1.362
				c-0.19,0.39,1.285-0.159,1.429-0.407c0.252-0.429,0.503-0.858,0.753-1.288C26.468,14.598,24.934,14.904,24.751,15.279z"/>
			<path opacity="0.1091" fill="#754C24" d="M25.574,16.605c-0.222,0.436-0.444,0.872-0.666,1.308
				c-0.273,0.537,0.766,0.158,0.915-0.113c0.209-0.376,0.418-0.752,0.627-1.128C26.736,16.152,25.721,16.317,25.574,16.605z"/>
			<path opacity="0.1091" fill="#754C24" d="M23.138,16.667c-0.22,0.48-0.439,0.96-0.661,1.439c-0.213,0.465,0.81-0.031,0.77-0.011
				c0.505-0.245,1.376-0.555,1.695-1.055c0.242-0.376,0.483-0.751,0.724-1.128c0.277-0.429-0.805-0.063-0.753-0.082
				C24.52,15.967,23.339,16.233,23.138,16.667z"/>
		</g>
	</g>
</g>
<g>
	<g>
		<g>
			<path opacity="0.1091" fill="#754C24" d="M20.47,18.959c0.327-0.02,0.654-0.039,0.981-0.058c0.158-0.01,0.306-0.187,0.464-0.197
				c-0.328,0.02-0.655,0.039-0.983,0.058C20.774,18.772,20.626,18.951,20.47,18.959z"/>
			<path opacity="0.1091" fill="#754C24" d="M21.832,18.817c0.328-0.02,0.656-0.039,0.984-0.058
				c-0.157,0.008-0.325-0.149-0.482-0.14c-0.328,0.019-0.657,0.039-0.984,0.058C21.506,18.667,21.674,18.827,21.832,18.817z"/>
			<path opacity="0.1091" fill="#754C24" d="M19.862,20.133c0.327-0.018,0.653-0.038,0.98-0.057
				c0.033-0.001,0.036-0.496,0.068-0.499c-0.328,0.02-0.655,0.039-0.981,0.057C19.895,19.638,19.893,20.132,19.862,20.133z"/>
			<path opacity="0.1091" fill="#754C24" d="M21.132,21.437c0.327-0.018,0.655-0.036,0.982-0.054c-0.16,0.008-0.329-0.13-0.488-0.12
				c-0.328,0.018-0.656,0.036-0.982,0.054C20.803,21.308,20.972,21.445,21.132,21.437z"/>
			<path opacity="0.1091" fill="#754C24" d="M20.072,20.724c0.327-0.018,0.655-0.036,0.981-0.055
				c-0.046,0.002-0.119-0.478-0.166-0.475c-0.327,0.018-0.653,0.038-0.981,0.056C19.952,20.247,20.025,20.727,20.072,20.724z"/>
			<path opacity="0.1091" fill="#754C24" d="M21.393,21.322c0.655-0.061,1.311-0.072,1.967-0.033
				c0.156,0.002,0.318-0.169,0.475-0.165c-0.656-0.043-1.312-0.033-1.968,0.029C21.706,21.163,21.553,21.314,21.393,21.322z"/>
			<path opacity="0.1091" fill="#754C24" d="M20.71,20.667c0.655-0.063,1.309-0.075,1.964-0.035
				c-0.091-0.001-0.172-0.425-0.265-0.428c-0.656-0.04-1.311-0.029-1.964,0.035C20.523,20.234,20.629,20.671,20.71,20.667z"/>
			<path opacity="0.1091" fill="#754C24" d="M21.537,20.348c0.655-0.062,1.309-0.075,1.965-0.035c0.016,0,0.04-0.501,0.053-0.5
				c-0.656-0.04-1.313-0.029-1.967,0.035C21.56,19.85,21.562,20.346,21.537,20.348z"/>
			<path opacity="0.1091" fill="#754C24" d="M22.244,20.176c0.654-0.063,1.311-0.075,1.968-0.035
				c-0.024-0.001-0.04-0.499-0.067-0.499c-0.656-0.04-1.313-0.029-1.969,0.035C22.186,19.678,22.228,20.177,22.244,20.176z"/>
			<path opacity="0.1091" fill="#754C24" d="M20.142,19.559c0.653-0.065,1.308-0.077,1.963-0.037c0.1,0.003,0.207-0.401,0.306-0.399
				c-0.655-0.04-1.31-0.027-1.963,0.036C20.336,19.166,20.25,19.552,20.142,19.559z"/>
			<path opacity="0.1091" fill="#754C24" d="M20.904,19.296c0.65-0.013,1.301-0.025,1.951-0.038
				c0.168,0.004,0.335-0.048,0.501-0.044c-1.292-0.026-0.687-0.038-1.978,0.037C21.239,19.26,20.993,19.29,20.904,19.296z"/>
			<path opacity="0.1091" fill="#754C24" d="M21.961,20.838c0.655-0.064,1.311-0.075,1.968-0.035
				c0.087,0.002,0.185-0.426,0.27-0.424c-0.657-0.042-1.313-0.029-1.968,0.033C22.132,20.418,22.057,20.832,21.961,20.838z"/>
		</g>
	</g>
</g>
<g>
	<g>
		<g>
			<path opacity="0.1091" fill="#754C24" d="M23.926,24.513c-0.021,0.166-0.042,0.332-0.063,0.498
				c-0.06,0.475,1.303-0.57,1.393-0.896c0.027-0.102,0.056-0.202,0.083-0.304C25.444,23.422,23.981,24.079,23.926,24.513z"/>
			<path opacity="0.1091" fill="#754C24" d="M22.818,23.75c-0.017,0.169-0.032,0.339-0.049,0.509
				c-0.04,0.434,2.058-0.977,2.217-1.435c0.037-0.105,0.073-0.212,0.11-0.317c0.165-0.475-0.778,0.09-0.745,0.07
				C24.053,22.758,22.857,23.326,22.818,23.75z"/>
			<path opacity="0.1091" fill="#754C24" d="M22.954,22.147c-0.02,0.123-0.039,0.244-0.059,0.366
				c-0.098,0.61,0.818,0.096,0.882-0.21c0.023-0.118,0.049-0.235,0.072-0.353C23.977,21.331,23.014,21.782,22.954,22.147z"/>
			<path opacity="0.1091" fill="#754C24" d="M24.062,23.23c-0.021,0.164-0.043,0.328-0.065,0.493
				c-0.063,0.476,1.427-0.607,1.528-0.948c0.031-0.105,0.063-0.209,0.093-0.314C25.729,22.088,24.122,22.77,24.062,23.23z"/>
			<path opacity="0.1091" fill="#754C24" d="M23.639,22.082c-0.025,0.169-0.051,0.339-0.075,0.508
				c-0.045,0.294,0.455,0.47,0.509,0.132c0.026-0.166,0.053-0.332,0.08-0.498C24.201,21.92,23.688,21.747,23.639,22.082z"/>
			<path opacity="0.1091" fill="#754C24" d="M22.042,23.227c-0.016,0.168-0.03,0.337-0.046,0.505
				c-0.044,0.478,1.802-0.824,1.939-1.215c0.036-0.104,0.071-0.208,0.107-0.31C24.152,21.895,22.093,22.667,22.042,23.227z"/>
			<path opacity="0.1091" fill="#754C24" d="M23.028,24.753c-0.018,0.171-0.037,0.342-0.055,0.513
				c-0.049,0.451,1.77-0.864,1.903-1.27c0.034-0.103,0.067-0.205,0.102-0.308C25.078,23.385,23.09,24.194,23.028,24.753z"/>
			<path opacity="0.1091" fill="#754C24" d="M24.45,23.24c-0.007,0.105-0.013,0.212-0.02,0.317
				c-0.036,0.577,0.781,0.114,0.812-0.199c0.014-0.135,0.026-0.268,0.04-0.401C25.326,22.509,24.47,22.922,24.45,23.24z"/>
			<path opacity="0.1091" fill="#754C24" d="M22.615,22.594c-0.02,0.165-0.039,0.33-0.057,0.496
				c-0.059,0.495,1.435-0.596,1.537-0.922c0.033-0.105,0.066-0.209,0.099-0.313C24.312,21.48,22.667,22.129,22.615,22.594z"/>
			<path opacity="0.1091" fill="#754C24" d="M23.582,22.44c-0.021,0.162-0.041,0.324-0.062,0.484
				c-0.063,0.491,1.183-0.431,1.265-0.729c0.029-0.105,0.057-0.211,0.086-0.317C24.983,21.469,23.635,22.038,23.582,22.44z"/>
			<path opacity="0.1091" fill="#754C24" d="M24.423,23.879c-0.021,0.159-0.043,0.318-0.064,0.476
				c-0.061,0.454,0.961-0.229,1.008-0.471c0.029-0.144,0.057-0.289,0.086-0.435C25.538,23.012,24.47,23.534,24.423,23.879z"/>
			<path opacity="0.1091" fill="#754C24" d="M22.035,23.903c-0.016,0.17-0.032,0.342-0.049,0.514
				c-0.04,0.438,2.049-0.979,2.212-1.429c0.037-0.104,0.076-0.209,0.113-0.313c0.173-0.472-0.78,0.089-0.743,0.066
				C23.272,22.919,22.075,23.482,22.035,23.903z"/>
		</g>
	</g>
</g>
<g>
	<g>
		<g>
			<path opacity="0.1091" fill="#754C24" d="M23.867,28.39c0.396,0-1.068-1.956-1.593-1.956C21.88,26.434,23.343,28.39,23.867,28.39
				z"/>
			<path opacity="0.1091" fill="#754C24" d="M22.53,27.299c0.474,0-0.54-1.271-0.914-1.271
				C21.145,26.028,22.158,27.299,22.53,27.299z"/>
			<path opacity="0.1091" fill="#754C24" d="M22.98,26.131c0.235,0,0.414-0.482,0.077-0.482
				C22.824,25.648,22.646,26.131,22.98,26.131z"/>
			<path opacity="0.1091" fill="#754C24" d="M23.564,26.991c0.407,0-0.991-1.809-1.489-1.809
				C21.668,25.183,23.066,26.991,23.564,26.991z"/>
			<path opacity="0.1091" fill="#754C24" d="M23.664,25.813c0.475,0,0.198-0.679-0.133-0.679
				C23.055,25.134,23.332,25.813,23.664,25.813z"/>
			<path opacity="0.1091" fill="#754C24" d="M22.108,27.1c0.289,0,0.391-0.52,0.049-0.52C21.868,26.58,21.767,27.1,22.108,27.1z"/>
			<path opacity="0.1091" fill="#754C24" d="M23.001,28.404c0.462,0-0.689-1.48-1.1-1.48C21.438,26.924,22.59,28.404,23.001,28.404z
				"/>
			<path opacity="0.1091" fill="#754C24" d="M24.311,26.911c0.409,0-0.961-1.734-1.446-1.734
				C22.453,25.177,23.823,26.911,24.311,26.911z"/>
			<path opacity="0.1091" fill="#754C24" d="M22.435,26.494c0.367,0,0.325-0.579-0.017-0.579
				C22.052,25.915,22.092,26.494,22.435,26.494z"/>
			<path opacity="0.1091" fill="#754C24" d="M23.137,26.151c0.467,0-0.352-1.005-0.688-1.005
				C21.984,25.146,22.802,26.151,23.137,26.151z"/>
			<path opacity="0.1091" fill="#754C24" d="M24.314,27.739c0.371,0-1.16-2.033-1.715-2.033
				C22.229,25.706,23.76,27.739,24.314,27.739z"/>
			<path opacity="0.1091" fill="#754C24" d="M22.072,27.578c0.51,0,0.185-0.717-0.14-0.717
				C21.424,26.861,21.749,27.578,22.072,27.578z"/>
		</g>
	</g>
</g>
<g>
	<g>
		<g>
			<path opacity="0.1091" fill="#754C24" d="M17.427,22.808c0.166,0.478,0.419,0.902,0.758,1.277
				c0.031,0.041,0.447-0.206,0.475-0.169c-0.341-0.375-0.594-0.8-0.76-1.277C17.891,22.619,17.43,22.815,17.427,22.808z"/>
			<path opacity="0.1091" fill="#754C24" d="M16.48,21.722c0.053,0.565,0.262,1.063,0.627,1.497c0.047,0.077,0.446-0.109,0.5-0.05
				c-0.431-0.434-0.803-0.911-1.119-1.437C16.486,21.729,16.483,21.725,16.48,21.722z"/>
			<path opacity="0.1091" fill="#754C24" d="M16.501,20.442c0.166,0.476,0.419,0.899,0.758,1.273
				c0.025,0.033,0.44-0.227,0.462-0.197c-0.339-0.374-0.591-0.797-0.757-1.273C16.959,20.234,16.501,20.442,16.501,20.442z"/>
			<path opacity="0.1091" fill="#754C24" d="M17.562,21.832c-0.001,0.407,0.159,0.741,0.483,1.002
				c0.057,0.073,0.467-0.215,0.422-0.273c-0.32-0.386-0.605-0.795-0.854-1.23C17.674,21.424,17.538,21.708,17.562,21.832z"/>
			<path opacity="0.1091" fill="#754C24" d="M17.381,20.16c0.167,0.476,0.421,0.899,0.76,1.272c0.08,0.109,0.404,0.035,0.483,0.14
				c-0.339-0.373-0.592-0.797-0.758-1.273C17.817,20.194,17.427,20.255,17.381,20.16z"/>
			<path opacity="0.1091" fill="#754C24" d="M15.892,21.617c0.167,0.476,0.418,0.901,0.757,1.275c-0.071-0.096,0.14-0.4,0.066-0.498
				c-0.338-0.374-0.59-0.799-0.756-1.275C16.018,21.243,15.833,21.485,15.892,21.617z"/>
			<path opacity="0.1091" fill="#754C24" d="M16.677,22.802c0.166,0.478,0.418,0.902,0.757,1.277
				c0.078,0.105,0.414,0.019,0.489,0.12c-0.339-0.375-0.591-0.8-0.759-1.277C17.119,22.824,16.719,22.894,16.677,22.802z"/>
			<path opacity="0.1091" fill="#754C24" d="M18.278,21.66c0.167,0.476,0.419,0.901,0.76,1.275
				c-0.087-0.115,0.021-0.379-0.068-0.498c-0.339-0.374-0.593-0.799-0.759-1.275C18.278,21.304,18.21,21.513,18.278,21.66z"/>
			<path opacity="0.1091" fill="#754C24" d="M16.17,21.04c0.167,0.477,0.421,0.901,0.76,1.276c-0.025-0.034,0.335-0.359,0.306-0.399
				c-0.339-0.374-0.592-0.799-0.759-1.276C16.508,20.706,16.136,20.965,16.17,21.04z"/>
			<path opacity="0.1091" fill="#754C24" d="M16.923,20.781c0.188,0.497,0.45,0.95,0.784,1.359c0.007,0.009,0.408-0.294,0.398-0.308
				c-0.331-0.305-0.558-0.67-0.681-1.095C17.402,20.68,16.946,20.825,16.923,20.781z"/>
			<path opacity="0.1091" fill="#754C24" d="M17.998,22.323c0.166,0.476,0.419,0.9,0.758,1.274c-0.033-0.046,0.308-0.374,0.27-0.425
				c-0.339-0.374-0.592-0.799-0.758-1.275C18.303,21.976,17.958,22.237,17.998,22.323z"/>
			<path opacity="0.1091" fill="#754C24" d="M16.099,22.197c0.167,0.479,0.42,0.91,0.763,1.288
				c-0.096-0.129-0.071-0.346-0.167-0.476c-0.336-0.37-0.585-0.792-0.75-1.264C15.981,21.825,16.041,22.071,16.099,22.197z"/>
		</g>
	</g>
</g>
<g>
	<g>
		<g>
			<path opacity="0.1091" fill="#754C24" d="M17.495,15.459c0.116,0.829,0.231,1.658,0.346,2.487
				c-0.004-0.03,0.479-0.131,0.475-0.167c-0.116-0.829-0.231-1.66-0.346-2.489C17.973,15.319,17.49,15.42,17.495,15.459z"/>
			<path opacity="0.1091" fill="#754C24" d="M16.547,14.375c0.115,0.829,0.229,1.657,0.343,2.484
				c0.021,0.153,0.244,0.277,0.265,0.428c-0.114-0.828-0.229-1.656-0.343-2.484C16.791,14.649,16.568,14.526,16.547,14.375z"/>
			<path opacity="0.1091" fill="#754C24" d="M16.57,13.094c0.115,0.826,0.229,1.654,0.343,2.48
				c-0.005-0.042,0.469-0.152,0.462-0.196c-0.113-0.828-0.229-1.654-0.343-2.48C17.038,12.936,16.563,13.046,16.57,13.094z"/>
			<path opacity="0.1091" fill="#754C24" d="M17.633,14.483c0.033,0.693,0.066,1.385,0.1,2.079c0.004,0.081,0.517,0.007,0.497-0.083
				c-0.181-0.832-0.363-1.664-0.544-2.496C17.719,14.133,17.626,14.327,17.633,14.483z"/>
			<path opacity="0.1091" fill="#754C24" d="M17.451,12.811c0.115,0.827,0.231,1.653,0.346,2.479c0.01,0.071,0.475,0.075,0.483,0.14
				c-0.115-0.827-0.229-1.653-0.346-2.479C17.924,12.879,17.459,12.875,17.451,12.811z"/>
			<path opacity="0.1091" fill="#754C24" d="M15.961,14.269c0.114,0.828,0.227,1.656,0.34,2.483
				c-0.022-0.159,0.089-0.338,0.068-0.499c-0.115-0.828-0.228-1.655-0.342-2.483C16.05,13.93,15.939,14.108,15.961,14.269z"/>
			<path opacity="0.1091" fill="#754C24" d="M16.745,15.455c0.115,0.829,0.229,1.658,0.344,2.487
				c0.008,0.062,0.48,0.059,0.489,0.119c-0.115-0.829-0.23-1.658-0.345-2.487C17.225,15.509,16.753,15.512,16.745,15.455z"/>
			<path opacity="0.1091" fill="#754C24" d="M18.328,14.179c0.119,0.855,0.238,1.709,0.356,2.565
				c0.018,0.126-0.04-0.333-0.048-0.395c-0.111-0.801-0.222-1.602-0.333-2.403C18.258,13.617,18.317,14.103,18.328,14.179z"/>
			<path opacity="0.1091" fill="#754C24" d="M16.243,13.694c0.113,0.826,0.227,1.653,0.342,2.48c-0.017-0.115,0.322-0.281,0.306-0.4
				c-0.113-0.826-0.229-1.652-0.342-2.48C16.563,13.406,16.226,13.573,16.243,13.694z"/>
			<path opacity="0.1091" fill="#754C24" d="M16.993,13.431c0.113,0.822,0.229,1.646,0.343,2.469c0.001,0.016,0.501-0.04,0.502-0.03
				c-0.115-0.828-0.23-1.655-0.345-2.484C17.491,13.372,16.993,13.433,16.993,13.431z"/>
			<path opacity="0.1091" fill="#754C24" d="M18.067,14.975c0.115,0.828,0.229,1.655,0.344,2.483
				c-0.018-0.125,0.288-0.294,0.27-0.423c-0.115-0.828-0.229-1.655-0.345-2.484C18.353,14.674,18.049,14.846,18.067,14.975z"/>
			<path opacity="0.1091" fill="#754C24" d="M16.007,14.386c0.113,0.828,0.227,1.657,0.34,2.484
				c0.023,0.164,0.144,0.313,0.166,0.475c-0.113-0.828-0.227-1.657-0.34-2.484C16.15,14.698,16.029,14.548,16.007,14.386z"/>
		</g>
	</g>
</g>
<g>
	<g>
		<g>
			<path opacity="0.1091" fill="#754C24" d="M18.625,16.946c-0.342-0.835-0.844-1.557-1.509-2.167
				c-0.622-0.713-1.053-1.145-0.702-1.978c-0.159,0.057-0.317,0.113-0.475,0.169c0.652-0.079,0.749,0.167,1.246,0.561
				c0.072,0.057,0.406-0.223,0.475-0.169c-0.498-0.393-0.595-0.64-1.246-0.561c-0.075,0.01-0.448,0.108-0.475,0.169
				c-0.213,0.285-0.235,0.588-0.064,0.908c0.256,0.356,0.511,0.713,0.767,1.069c0.664,0.611,1.167,1.334,1.507,2.168
				C18.164,17.139,18.613,16.925,18.625,16.946z"/>
			<path opacity="0.1091" fill="#754C24" d="M17.469,16.458c-0.176-0.493-0.352-0.985-0.527-1.479
				c-0.783-0.678-1.283-1.535-1.499-2.566c-0.138,0.044-0.278,0.088-0.417,0.133c0.395,0.044,0.767,0.156,1.117,0.338
				c0.025,0.011,0.404,0.131,0.352,0.076c-0.437-0.468-0.513-0.649-1.121-0.674c-0.104-0.004-0.375,0.013-0.418,0.134
				C14.475,13.799,16.71,15.498,17.469,16.458z"/>
			<path opacity="0.1091" fill="#754C24" d="M17.689,14.555c-0.342-0.839-0.846-1.564-1.512-2.177
				c-0.621-0.713-1.056-1.145-0.703-1.978c-0.153,0.065-0.309,0.13-0.462,0.196c0.652-0.078,0.749,0.169,1.247,0.563
				c0.063,0.051,0.401-0.245,0.462-0.197c-0.497-0.395-0.595-0.642-1.247-0.563c-0.075,0.008-0.436,0.133-0.462,0.196
				c-0.215,0.284-0.235,0.587-0.065,0.907c0.256,0.357,0.512,0.714,0.769,1.071c0.666,0.613,1.169,1.34,1.511,2.177
				C17.235,14.767,17.682,14.543,17.689,14.555z"/>
			<path opacity="0.1091" fill="#754C24" d="M18.346,15.64c-0.18-0.768-0.584-1.399-1.211-1.892
				c-0.627-1.091-0.663-1.433-0.105-1.024c0.069,0.04,0.603,0.191,0.422-0.032c-0.372-0.461-0.457-0.674-1.056-0.71
				c-0.087-0.006-0.34,0.002-0.383,0.105c-0.214,0.506-0.208,0.368-0.026,0.897c0.141,0.401,0.385,0.749,0.729,1.042
				c0.641,0.618,1.167,1.323,1.578,2.114C18.223,16.029,18.396,15.766,18.346,15.64z"/>
			<path opacity="0.1091" fill="#754C24" d="M18.588,14.608c-0.647-1.204-1.481-2.139-2.274-3.249
				c-0.428-0.598,0.072-0.908,0.552-0.965c-0.162-0.047-0.322-0.093-0.484-0.14c0.246,0.216,0.5,0.423,0.758,0.623
				c0.122,0.097,0.363,0.043,0.483,0.14c-0.436-0.348-0.68-0.609-1.19-0.75c-0.532-0.146-0.548,0.066-0.713,0.457
				c0.07,0.622,0.363,1.145,0.876,1.568c0.666,0.613,1.168,1.339,1.509,2.177C18.162,14.573,18.535,14.507,18.588,14.608z"/>
			<path opacity="0.1091" fill="#754C24" d="M16.686,15.427c-0.343-0.837-0.849-1.562-1.514-2.173
				c-0.517-0.422-0.809-0.945-0.878-1.567c-0.023,0.166-0.045,0.332-0.068,0.498c0.384-0.904,0.89-0.27,1.423,0.152
				c-0.065-0.053,0.135-0.446,0.067-0.5c-0.638-0.504-1.316-0.97-1.46,0.098c-0.008,0.063-0.046,0.183-0.031,0.249
				c0.069,0.623,0.363,1.145,0.878,1.567c0.667,0.612,1.171,1.337,1.516,2.173C16.554,15.808,16.75,15.546,16.686,15.427z"/>
			<path opacity="0.1091" fill="#754C24" d="M17.89,17.229c-0.65-1.2-1.484-2.132-2.278-3.238c-0.429-0.598,0.075-0.909,0.552-0.967
				c-0.163-0.04-0.325-0.079-0.489-0.119c0.247,0.215,0.5,0.421,0.76,0.619c0.12,0.096,0.368,0.026,0.487,0.121
				c-0.445-0.353-0.672-0.606-1.196-0.729c-0.538-0.126-0.542,0.057-0.713,0.461c0.069,0.622,0.361,1.143,0.876,1.565
				c0.666,0.61,1.169,1.333,1.511,2.167C17.455,17.208,17.835,17.131,17.89,17.229z"/>
			<path opacity="0.1091" fill="#754C24" d="M18.933,15.47c-0.133-0.796-0.526-1.442-1.179-1.939
				c-0.663-0.469-0.892-1.063-0.684-1.78c-0.139,0.046-0.277,0.09-0.417,0.136c-0.205,0.02,1.908,0.097,1.459,0.493
				c0.017-0.015-0.156-0.199-0.155-0.198c-0.358-0.406-0.385-0.509-0.948-0.502c-0.082,0.001-0.382,0.043-0.415,0.136
				c-0.209,0.581-0.191,0.314-0.001,0.955c0.242,0.338,0.484,0.676,0.725,1.013c0.656,0.655,1.217,1.383,1.683,2.186
				C18.922,15.852,18.98,15.608,18.933,15.47z"/>
			<path opacity="0.1091" fill="#754C24" d="M17.205,14.951c-0.343-0.837-0.847-1.563-1.513-2.174
				c-0.623-0.713-1.056-1.145-0.704-1.979c-0.101,0.133-0.204,0.267-0.306,0.4c0.653-0.079,0.75,0.169,1.249,0.563
				c0,0,0.31-0.396,0.306-0.398c-0.497-0.395-0.595-0.643-1.248-0.565c-0.068,0.008-0.276,0.33-0.306,0.4
				c-0.213,0.284-0.235,0.587-0.063,0.907c0.256,0.357,0.512,0.714,0.768,1.071c0.666,0.613,1.169,1.338,1.513,2.176
				C16.867,15.293,17.238,15.013,17.205,14.951z"/>
			<path opacity="0.1091" fill="#754C24" d="M18.148,15.044c-0.305-0.84-0.789-1.557-1.454-2.149
				c-0.629-0.431-0.856-0.975-0.682-1.635c-0.141,0.042-0.281,0.083-0.421,0.125c0.395,0.047,0.767,0.162,1.116,0.345
				c0.023,0.01,0.423,0.122,0.358,0.055c-0.466-0.484-0.549-0.65-1.207-0.671c-0.09-0.002-0.3,0.028-0.336,0.129
				c-0.201,0.548-0.18,0.324,0.03,0.923c0.241,0.333,0.48,0.668,0.72,1.002c0.601,0.54,1.059,1.181,1.375,1.921
				C17.681,15.149,18.121,14.988,18.148,15.044z"/>
			<path opacity="0.1091" fill="#754C24" d="M18.989,16.205c-0.28-0.785-0.735-1.452-1.365-2.001
				c-0.247-0.343-0.493-0.688-0.738-1.031c0.257-0.459,0.513-0.54,0.767-0.241c0.048,0.036,0.368-0.335,0.388-0.321
				c-0.608-0.417-0.468-0.475-1.141-0.387c-0.084,0.011-0.382,0.159-0.411,0.241c-0.216,0.609-0.194,0.312-0.022,0.987
				c0.244,0.34,0.488,0.683,0.732,1.023c0.659,0.61,1.166,1.329,1.52,2.155C18.68,16.561,19.027,16.281,18.989,16.205z"/>
			<path opacity="0.1091" fill="#754C24" d="M16.663,16.042c-0.652-1.202-1.486-2.133-2.281-3.242
				c0.055,0.159,0.109,0.317,0.165,0.476c-0.171-0.321-0.149-0.623,0.065-0.908c0.208-0.49,1.135,0.472,1.249,0.562
				c-0.111-0.087-0.054-0.387-0.166-0.475c-0.533-0.422-1.04-1.056-1.423-0.151c-0.032,0.078,0.093,0.454,0.152,0.624
				c0.039,0.112,0.075,0.226,0.118,0.335c0.184,0.403,0.443,0.764,0.773,1.083c0.666,0.61,1.171,1.334,1.514,2.17
				C16.75,16.371,16.742,16.187,16.663,16.042z"/>
		</g>
	</g>
</g>
<g>
	<g>
		<g>
			<path opacity="0.1091" fill="#754C24" d="M25.73,22.838c0.395,0-1.068-1.958-1.593-1.958
				C23.741,20.88,25.204,22.838,25.73,22.838z"/>
			<path opacity="0.1091" fill="#754C24" d="M24.394,21.747c0.474,0-0.54-1.271-0.914-1.271
				C23.007,20.477,24.02,21.747,24.394,21.747z"/>
			<path opacity="0.1091" fill="#754C24" d="M24.844,20.578c0.233,0,0.412-0.48,0.077-0.48
				C24.686,20.097,24.507,20.578,24.844,20.578z"/>
			<path opacity="0.1091" fill="#754C24" d="M25.426,21.438c0.408,0-0.991-1.809-1.489-1.809
				C23.529,19.629,24.929,21.438,25.426,21.438z"/>
			<path opacity="0.1091" fill="#754C24" d="M25.525,20.259c0.477,0,0.199-0.678-0.133-0.678
				C24.918,19.581,25.195,20.259,25.525,20.259z"/>
			<path opacity="0.1091" fill="#754C24" d="M23.97,21.546c0.291,0,0.392-0.519,0.05-0.519
				C23.729,21.027,23.628,21.546,23.97,21.546z"/>
			<path opacity="0.1091" fill="#754C24" d="M24.862,22.852c0.464,0-0.688-1.481-1.099-1.481
				C23.3,21.371,24.453,22.852,24.862,22.852z"/>
			<path opacity="0.1091" fill="#754C24" d="M26.172,21.358c0.411,0-0.959-1.734-1.445-1.734
				C24.316,19.624,25.687,21.358,26.172,21.358z"/>
			<path opacity="0.1091" fill="#754C24" d="M24.297,20.941c0.366,0,0.326-0.58-0.017-0.58
				C23.915,20.361,23.955,20.941,24.297,20.941z"/>
			<path opacity="0.1091" fill="#754C24" d="M25,20.598c0.465,0-0.354-1.003-0.688-1.003C23.846,19.595,24.663,20.598,25,20.598z"/>
			<path opacity="0.1091" fill="#754C24" d="M26.178,22.186c0.371,0-1.161-2.032-1.717-2.032
				C24.091,20.154,25.622,22.186,26.178,22.186z"/>
			<path opacity="0.1091" fill="#754C24" d="M23.934,22.026c0.51,0,0.186-0.718-0.138-0.718
				C23.286,21.308,23.61,22.026,23.934,22.026z"/>
		</g>
	</g>
</g>
<g>
	<g>
		<g>
			<path opacity="0.1091" fill="#754C24" d="M26.222,26.222c0.161,0.5,0.185,1.007,0.07,1.519c0.006-0.067,0.469-0.099,0.474-0.169
				c0.115-0.512,0.092-1.019-0.07-1.519C26.699,26.072,26.215,26.188,26.222,26.222z"/>
			<path opacity="0.1091" fill="#754C24" d="M25.275,25.136c0.16,0.501,0.183,1.007,0.067,1.52
				c-0.013,0.136,0.277,0.296,0.265,0.428c0.115-0.513,0.093-1.019-0.066-1.52C25.514,25.408,25.303,25.286,25.275,25.136z"/>
			<path opacity="0.1091" fill="#754C24" d="M25.296,23.856c0.16,0.498,0.184,1.004,0.07,1.516c0.007-0.077,0.456-0.118,0.463-0.196
				c0.113-0.513,0.091-1.018-0.069-1.518C25.765,23.688,25.289,23.813,25.296,23.856z"/>
			<path opacity="0.1091" fill="#754C24" d="M26.374,24.994c-0.047,0.495-0.104,0.989-0.169,1.483
				c0.003-0.017,0.494-0.012,0.498-0.076c0.149-0.591,0.052-1.145-0.297-1.656C26.423,24.785,26.378,24.957,26.374,24.994z"/>
			<path opacity="0.1091" fill="#754C24" d="M26.178,23.572c0.16,0.5,0.184,1.005,0.07,1.518c-0.003,0.031,0.486,0.107,0.483,0.139
				c0.113-0.511,0.09-1.017-0.071-1.516C26.646,23.634,26.19,23.641,26.178,23.572z"/>
			<path opacity="0.1091" fill="#754C24" d="M24.688,25.031c0.021,0.506,0.046,1.011,0.067,1.518
				c0.016-0.168,0.052-0.332,0.066-0.499c0.092-0.999,0.113-0.515-0.067-1.518C24.782,24.687,24.659,24.872,24.688,25.031z"/>
			<path opacity="0.1091" fill="#754C24" d="M25.472,26.217c0.16,0.499,0.184,1.006,0.069,1.518
				c-0.002,0.026,0.491,0.096,0.488,0.121c0.113-0.513,0.092-1.02-0.069-1.521C25.946,26.264,25.482,26.278,25.472,26.217z"/>
			<path opacity="0.1091" fill="#754C24" d="M27.07,25.061c0.046,0.253,0.093,0.507,0.139,0.76
				c-0.021-0.162-0.042-0.323-0.063-0.485c-0.022,0.253-0.046,0.505-0.068,0.758c-0.016,0.164,0.082,0.337,0.066,0.499
				c0.073-0.814,0.016-1.192-0.133-2.003C27.026,24.675,27.044,24.924,27.07,25.061z"/>
			<path opacity="0.1091" fill="#754C24" d="M24.967,24.453c0.159,0.499,0.184,1.006,0.07,1.519
				c0.013-0.141,0.293-0.257,0.306-0.399c0.113-0.512,0.09-1.019-0.07-1.518C25.292,24.161,24.944,24.338,24.967,24.453z"/>
			<path opacity="0.1091" fill="#754C24" d="M25.718,24.197c0.162,0.498,0.185,1.002,0.071,1.513
				c0.002-0.026,0.498-0.013,0.501-0.045c0.113-0.511,0.091-1.016-0.069-1.514C26.215,24.128,25.72,24.202,25.718,24.197z"/>
			<path opacity="0.1091" fill="#754C24" d="M26.792,25.737c0.162,0.498,0.185,1.005,0.069,1.516
				c0.014-0.146,0.258-0.274,0.27-0.424c0.116-0.512,0.093-1.017-0.067-1.517C27.084,25.429,26.77,25.611,26.792,25.737z"/>
			<path opacity="0.1091" fill="#754C24" d="M24.732,25.147c0.161,0.5,0.183,1.007,0.069,1.519c-0.014,0.152,0.18,0.322,0.166,0.475
				c0.113-0.512,0.09-1.019-0.069-1.519C24.869,25.459,24.762,25.31,24.732,25.147z"/>
		</g>
	</g>
</g>
<g>
</g>
<g>
</g>
<g>
</g>
<g>
</g>
<g>
</g>
<g>
</g>
<g>
</g>
<g>
</g>
<g>
</g>
<g>
</g>
<g>
</g>
<g>
</g>
<g>
</g>
<g>
</g>
<g>
</g>
</svg>
