<?xml version="1.0" encoding="utf-8"?>
<!-- Generator: Adobe Illustrator 16.0.0, SVG Export Plug-In . SVG Version: 6.00 Build 0)  -->
<!DOCTYPE svg PUBLIC "-//W3C//DTD SVG 1.1//EN" "http://www.w3.org/Graphics/SVG/1.1/DTD/svg11.dtd">
<svg version="1.1" id="Слой_1" xmlns="http://www.w3.org/2000/svg" xmlns:xlink="http://www.w3.org/1999/xlink" x="0px" y="0px"
	 width="42px" height="42px" viewBox="0 0 42 42" enable-background="new 0 0 42 42" xml:space="preserve">
<path fill="#A6A674" stroke="#000000" stroke-miterlimit="10" d="M13.5,28c-0.463-1.061,0-18,0-18s1.267-2.095,2.256-2.729
	s10.203-0.391,10.875,0c0.67,0.391,1.271,1.062,1.518,1.768c0.248,0.706-1.518,15.575-1.729,16.402s-4.802,7.558-5.438,8.059
	s-2.22,0.276-2.981,0S13.963,29.061,13.5,28z"/>
<g>
	<g>
		<g>
			<path opacity="0.1091" fill="#754C24" d="M18.905,32.122c-0.782-0.791-1.563-1.583-2.344-2.375
				c-0.041-0.04-0.45,0.206-0.474,0.169c0.942,1.493,1.612,2.225,3.207,2.999c0.108,0.053,0.371-0.219,0.475-0.169
				c-1.594-0.774-2.264-1.506-3.208-2.999c-0.158,0.057-0.316,0.113-0.474,0.169c0.781,0.792,1.563,1.583,2.343,2.375
				C18.483,32.344,18.857,32.074,18.905,32.122z"/>
			<path opacity="0.1091" fill="#754C24" d="M17.481,31.209c-0.62-0.726-1.242-1.449-1.863-2.173
				c-0.082-0.096-0.413,0.252-0.343,0.368c0.854,1.401,1.439,2.09,2.955,2.744c0.091,0.039,0.356-0.319,0.408-0.295
				c-1.538-0.739-2.14-1.366-3.02-2.817c-0.113,0.121-0.229,0.244-0.343,0.368c0.825,0.743,1.648,1.487,2.472,2.232
				C17.629,31.53,17.586,31.331,17.481,31.209z"/>
			<path opacity="0.1091" fill="#754C24" d="M17.97,29.73c-0.783-0.796-1.565-1.59-2.347-2.386
				c-0.035-0.035-0.446,0.227-0.464,0.197c0.944,1.494,1.615,2.225,3.208,3.002c0.101,0.051,0.367-0.243,0.463-0.196
				c-1.594-0.777-2.266-1.509-3.208-3.003c-0.155,0.066-0.309,0.131-0.464,0.197c0.783,0.795,1.565,1.589,2.348,2.385
				C17.552,29.973,17.928,29.688,17.97,29.73z"/>
			<path opacity="0.1091" fill="#754C24" d="M18.626,30.815c-0.656-0.69-1.311-1.383-1.967-2.073
				c-0.129-0.136-0.453,0.198-0.366,0.346c0.797,1.356,1.379,2.021,2.837,2.635c0.121,0.051,0.397-0.347,0.336-0.374
				c-1.493-0.662-1.982-1.208-2.808-2.606c-0.122,0.115-0.244,0.231-0.366,0.346c0.76,0.744,1.52,1.485,2.28,2.228
				C18.5,31.243,18.701,30.895,18.626,30.815z"/>
			<path opacity="0.1091" fill="#754C24" d="M18.87,29.783c-0.781-0.795-1.563-1.591-2.343-2.385
				c-0.093-0.094-0.418-0.036-0.483-0.14c0.943,1.493,1.614,2.226,3.207,3.003c0.149,0.072,0.335,0.066,0.483,0.139
				c-1.593-0.776-2.265-1.509-3.207-3.002c-0.162-0.047-0.323-0.093-0.483-0.14c0.781,0.794,1.563,1.59,2.343,2.386
				C18.49,29.75,18.769,29.681,18.87,29.783z"/>
			<path opacity="0.1091" fill="#754C24" d="M16.965,30.603c-0.783-0.793-1.567-1.586-2.352-2.381
				c0.073,0.073-0.127,0.403-0.066,0.498c0.944,1.495,1.615,2.227,3.21,3.003c-0.044-0.022,0.116-0.476,0.068-0.499
				c-1.596-0.776-2.268-1.507-3.211-3.002c-0.022,0.166-0.044,0.332-0.066,0.498c0.784,0.795,1.568,1.588,2.352,2.381
				C16.828,31.03,17.04,30.678,16.965,30.603z"/>
			<path opacity="0.1091" fill="#754C24" d="M18.17,32.404c-0.783-0.79-1.565-1.582-2.347-2.373c-0.09-0.09-0.425-0.02-0.489-0.121
				c0.944,1.495,1.612,2.226,3.208,3c0.148,0.071,0.342,0.048,0.488,0.12c-1.594-0.775-2.266-1.505-3.208-2.999
				c-0.164-0.04-0.325-0.081-0.489-0.121c0.782,0.792,1.564,1.584,2.348,2.375C17.783,32.388,18.071,32.305,18.17,32.404z"/>
			<path opacity="0.1091" fill="#754C24" d="M19.214,30.646c-0.659-0.719-1.319-1.437-1.979-2.155
				c-0.065-0.07-0.429,0.246-0.375,0.337c0.902,1.47,1.535,2.101,3.086,2.87c0.038,0.019,0.27-0.424,0.28-0.419
				c-1.531-0.656-2.124-1.379-2.991-2.788c-0.125,0.112-0.249,0.225-0.375,0.337c0.808,0.771,1.615,1.544,2.422,2.318
				C19.188,31.055,19.307,30.746,19.214,30.646z"/>
			<path opacity="0.1091" fill="#754C24" d="M17.485,30.126c-0.783-0.794-1.567-1.589-2.35-2.383
				c0.021,0.021-0.331,0.361-0.306,0.399c0.943,1.494,1.614,2.226,3.208,3.003c0.033,0.017,0.28-0.413,0.307-0.4
				c-1.596-0.776-2.266-1.507-3.209-3.002c-0.103,0.134-0.205,0.267-0.306,0.399c0.784,0.795,1.565,1.59,2.349,2.384
				C17.166,30.513,17.503,30.146,17.485,30.126z"/>
			<path opacity="0.1091" fill="#754C24" d="M18.429,30.217c-0.745-0.781-1.488-1.562-2.231-2.343
				c-0.097-0.102-0.441,0.222-0.37,0.343c0.875,1.437,1.477,2.068,3.005,2.787c0.061,0.029,0.305-0.393,0.325-0.384
				c-1.517-0.665-2.103-1.338-2.96-2.746c-0.123,0.114-0.247,0.228-0.37,0.343c0.7,0.681,1.399,1.363,2.1,2.044
				C18.007,30.337,18.357,30.142,18.429,30.217z"/>
			<path opacity="0.1091" fill="#754C24" d="M19.27,31.381c-0.781-0.792-1.562-1.585-2.34-2.377c0.03,0.03-0.302,0.375-0.271,0.424
				c0.942,1.493,1.614,2.224,3.207,3c0.021,0.01,0.256-0.432,0.27-0.425c-1.593-0.774-2.263-1.506-3.206-2.999
				c-0.09,0.142-0.18,0.282-0.271,0.424c0.781,0.793,1.561,1.585,2.342,2.378C18.976,31.782,19.298,31.411,19.27,31.381z"/>
			<path opacity="0.1091" fill="#754C24" d="M16.944,31.219c-0.784-0.793-1.568-1.587-2.352-2.378
				c0.102,0.103,0.085,0.348,0.166,0.475c0.944,1.493,1.614,2.225,3.209,2.999c-0.105-0.05-0.057-0.422-0.166-0.475
				c-1.594-0.775-2.266-1.506-3.209-2.999c0.055,0.157,0.11,0.315,0.166,0.475c0.783,0.792,1.567,1.585,2.35,2.378
				C17.004,31.587,17.051,31.326,16.944,31.219z"/>
		</g>
	</g>
</g>
<g>
	<g>
		<g>
			<path opacity="0.1091" fill="#754C24" d="M20.284,33.123c0.264-0.115,0.529-0.229,0.794-0.345
				c-0.154,0.066-0.321,0.103-0.475,0.169c-0.265,0.115-0.529,0.229-0.793,0.345C19.964,33.226,20.13,33.189,20.284,33.123z"/>
			<path opacity="0.1091" fill="#754C24" d="M19.128,32.636c0.264-0.115,0.529-0.229,0.793-0.345
				c-0.018,0.009-0.239-0.438-0.264-0.428c-0.265,0.115-0.529,0.229-0.794,0.345C18.882,32.2,19.102,32.646,19.128,32.636z"/>
			<path opacity="0.1091" fill="#754C24" d="M19.301,30.753c0.277-0.12,0.552-0.24,0.829-0.36c-0.082,0.035-0.312,0.13-0.438,0.185
				c-0.252,0.109-0.505,0.219-0.757,0.328C18.817,30.957,19.243,30.778,19.301,30.753z"/>
			<path opacity="0.1091" fill="#754C24" d="M19.953,32.317c0.293-0.116,0.585-0.231,0.877-0.348
				c0.024-0.008-0.167-0.473-0.166-0.475c-0.22,0.108-0.438,0.215-0.659,0.321C19.93,31.854,20.028,32.288,19.953,32.317z"/>
			<path opacity="0.1091" fill="#754C24" d="M20.25,30.785c0.264-0.115,0.529-0.229,0.793-0.345c-0.118,0.05-0.364-0.192-0.483-0.14
				c-0.265,0.115-0.529,0.229-0.793,0.345C19.883,30.595,20.129,30.837,20.25,30.785z"/>
			<path opacity="0.1091" fill="#754C24" d="M18.278,32.103c0.265-0.114,0.529-0.229,0.793-0.345
				c0.08-0.035-0.011-0.465,0.066-0.499c-0.265,0.114-0.529,0.229-0.793,0.345C18.263,31.64,18.356,32.068,18.278,32.103z"/>
			<path opacity="0.1091" fill="#754C24" d="M19.549,33.407c0.264-0.115,0.53-0.231,0.794-0.347
				c-0.122,0.054-0.366-0.172-0.49-0.119c-0.264,0.115-0.529,0.23-0.793,0.345C19.182,33.233,19.426,33.459,19.549,33.407z"/>
			<path opacity="0.1091" fill="#754C24" d="M20.661,32.146c0.264-0.114,0.529-0.229,0.793-0.345
				c0.046-0.021-0.105-0.481-0.066-0.498c-0.264,0.115-0.529,0.229-0.793,0.345C20.548,31.667,20.699,32.129,20.661,32.146z"/>
			<path opacity="0.1091" fill="#754C24" d="M18.558,31.527c0.264-0.115,0.529-0.229,0.793-0.345
				c0.136-0.06,0.174-0.342,0.307-0.398c-0.264,0.113-0.53,0.229-0.794,0.343C18.729,31.187,18.691,31.469,18.558,31.527z"/>
			<path opacity="0.1091" fill="#754C24" d="M19.809,31.217c0.265-0.114,0.529-0.229,0.793-0.345
				c-0.146,0.064-0.354-0.018-0.501,0.046c-0.265,0.115-0.529,0.229-0.795,0.344C19.452,31.199,19.661,31.28,19.809,31.217z"/>
			<path opacity="0.1091" fill="#754C24" d="M20.379,32.806c0.265-0.114,0.529-0.229,0.793-0.345
				c0.128-0.057,0.144-0.369,0.27-0.425c-0.264,0.115-0.529,0.23-0.793,0.345C20.52,32.438,20.504,32.752,20.379,32.806z"/>
			<path opacity="0.1091" fill="#754C24" d="M18.489,32.694c0.265-0.115,0.529-0.23,0.793-0.345
				c0.014-0.006-0.174-0.471-0.165-0.475c-0.264,0.114-0.529,0.229-0.793,0.344C18.311,32.225,18.499,32.689,18.489,32.694z"/>
		</g>
	</g>
</g>
<g>
	<g>
		<g>
			<path opacity="0.1091" fill="#754C24" d="M21.802,31.985c-0.275-0.023-0.552-0.047-0.828-0.069
				c-0.153-0.014-0.322,0.182-0.475,0.169c0.277,0.022,0.552,0.046,0.829,0.069C21.483,32.167,21.651,31.972,21.802,31.985z"/>
			<path opacity="0.1091" fill="#754C24" d="M20.379,31.07c-0.277-0.022-0.552-0.046-0.828-0.067
				c0.097,0.008,0.164,0.418,0.265,0.428c0.275,0.021,0.552,0.045,0.828,0.067C20.547,31.491,20.482,31.079,20.379,31.07z"/>
			<path opacity="0.1091" fill="#754C24" d="M20.867,29.592c-0.275-0.021-0.552-0.045-0.828-0.067
				c-0.148-0.013-0.315,0.209-0.462,0.196c0.275,0.022,0.551,0.046,0.828,0.068C20.554,29.801,20.72,29.58,20.867,29.592z"/>
			<path opacity="0.1091" fill="#754C24" d="M21.523,30.678c-0.269-0.022-0.537-0.045-0.806-0.066c-0.008,0-0.048,0.501-0.039,0.502
				c0.264,0.021,0.527,0.043,0.792,0.065C21.477,31.179,21.521,30.678,21.523,30.678z"/>
			<path opacity="0.1091" fill="#754C24" d="M21.285,29.506c-0.277-0.021-0.552-0.045-0.829-0.067
				c0.164,0.014,0.32,0.126,0.483,0.14c0.276,0.022,0.552,0.045,0.829,0.068C21.604,29.632,21.448,29.521,21.285,29.506z"/>
			<path opacity="0.1091" fill="#754C24" d="M19.862,30.466c-0.275-0.023-0.551-0.046-0.826-0.069c-0.01,0-0.061,0.499-0.068,0.499
				c0.275,0.022,0.552,0.045,0.828,0.068C19.808,30.965,19.858,30.464,19.862,30.466z"/>
			<path opacity="0.1091" fill="#754C24" d="M20.579,32.147c-0.276-0.022-0.553-0.045-0.828-0.068
				c0.165,0.014,0.323,0.105,0.489,0.119c0.275,0.023,0.552,0.047,0.828,0.069C20.903,32.254,20.745,32.161,20.579,32.147z"/>
			<path opacity="0.1091" fill="#754C24" d="M22.112,30.509c-0.277-0.023-0.552-0.046-0.829-0.068
				c0.032,0.002,0.028,0.494,0.066,0.498c0.277,0.022,0.554,0.046,0.829,0.068C22.148,31.004,22.152,30.511,22.112,30.509z"/>
			<path opacity="0.1091" fill="#754C24" d="M20.382,29.989c-0.275-0.023-0.552-0.046-0.828-0.067
				c-0.093-0.009-0.217,0.405-0.306,0.398c0.276,0.022,0.551,0.046,0.828,0.067C20.17,30.396,20.295,29.982,20.382,29.989z"/>
			<path opacity="0.1091" fill="#754C24" d="M21.326,30.078c-0.275-0.022-0.552-0.045-0.828-0.068
				c-0.165-0.012-0.336,0.059-0.501,0.046c0.275,0.022,0.552,0.045,0.828,0.068C20.991,30.136,21.163,30.065,21.326,30.078z"/>
			<path opacity="0.1091" fill="#754C24" d="M22.168,31.243c-0.277-0.023-0.554-0.046-0.829-0.069
				c-0.081-0.007-0.195,0.431-0.27,0.425c0.275,0.022,0.552,0.046,0.828,0.068C21.979,31.674,22.093,31.236,22.168,31.243z"/>
			<path opacity="0.1091" fill="#754C24" d="M19.841,31.08c-0.275-0.022-0.552-0.046-0.828-0.067
				c0.066,0.005,0.097,0.469,0.166,0.475c0.275,0.021,0.551,0.045,0.828,0.067C19.942,31.549,19.912,31.086,19.841,31.08z"/>
		</g>
	</g>
</g>
<g>
	<g>
		<g>
			<path opacity="0.1091" fill="#754C24" d="M21.19,30.947c-0.126,0.229-0.253,0.458-0.379,0.688
				c0.06-0.106,0.412-0.057,0.473-0.167c0.127-0.229,0.253-0.46,0.379-0.689C21.606,30.885,21.253,30.834,21.19,30.947z"/>
			<path opacity="0.1091" fill="#754C24" d="M20.241,29.863c-0.126,0.229-0.252,0.46-0.379,0.689
				c-0.04,0.075,0.303,0.358,0.266,0.428c0.126-0.229,0.252-0.46,0.378-0.689C20.547,30.217,20.204,29.933,20.241,29.863z"/>
			<path opacity="0.1091" fill="#754C24" d="M20.266,28.582c-0.127,0.229-0.253,0.459-0.379,0.689
				c0.063-0.114,0.399-0.079,0.462-0.197c0.127-0.229,0.253-0.459,0.379-0.69C20.666,28.497,20.331,28.464,20.266,28.582z"/>
			<path opacity="0.1091" fill="#754C24" d="M21.382,29.471c-0.188,0.237-0.378,0.476-0.566,0.713
				c-0.048,0.061,0.441,0.282,0.45,0.223c0.024-0.149,0.046-0.299,0.068-0.448C21.35,29.847,21.315,29.555,21.382,29.471z"/>
			<path opacity="0.1091" fill="#754C24" d="M21.146,28.298c-0.126,0.231-0.253,0.461-0.379,0.69
				c0.015-0.028,0.464,0.175,0.483,0.141c0.126-0.23,0.253-0.461,0.379-0.691C21.614,28.467,21.166,28.262,21.146,28.298z"/>
			<path opacity="0.1091" fill="#754C24" d="M19.724,29.259c-0.126,0.229-0.252,0.459-0.378,0.689
				c-0.076,0.137,0.007,0.362-0.068,0.498c0.126-0.229,0.253-0.46,0.379-0.689C19.733,29.618,19.65,29.393,19.724,29.259z"/>
			<path opacity="0.1091" fill="#754C24" d="M20.44,30.941c-0.126,0.23-0.253,0.46-0.379,0.689c0.02-0.036,0.467,0.16,0.489,0.119
				c0.126-0.229,0.253-0.46,0.379-0.688C20.91,31.096,20.464,30.9,20.44,30.941z"/>
			<path opacity="0.1091" fill="#754C24" d="M21.977,29.3c-0.126,0.231-0.253,0.461-0.379,0.691
				c-0.066,0.118,0.13,0.382,0.066,0.498c0.127-0.229,0.253-0.46,0.381-0.689C22.111,29.68,21.913,29.416,21.977,29.3z"/>
			<path opacity="0.1091" fill="#754C24" d="M19.938,29.181c-0.126,0.23-0.253,0.46-0.379,0.689
				c0.079-0.144,0.226-0.253,0.306-0.398c0.126-0.229,0.253-0.459,0.379-0.689C20.165,28.927,20.018,29.036,19.938,29.181z"/>
			<path opacity="0.1091" fill="#754C24" d="M20.687,28.917c-0.054,0.285-0.108,0.568-0.164,0.853
				c-0.003,0.018-0.007,0.034-0.008,0.053c0.224-0.317,0.449-0.633,0.674-0.95C21.149,28.928,20.699,28.854,20.687,28.917z"/>
			<path opacity="0.1091" fill="#754C24" d="M21.768,30.45c-0.127,0.229-0.253,0.46-0.38,0.689c0.043-0.077,0.191-0.279,0.259-0.401
				c0.126-0.229,0.253-0.46,0.379-0.689C21.982,30.126,21.834,30.328,21.768,30.45z"/>
			<path opacity="0.1091" fill="#754C24" d="M19.703,29.873c-0.126,0.229-0.253,0.46-0.379,0.689
				c-0.055,0.101,0.219,0.379,0.167,0.475c0.126-0.229,0.252-0.46,0.378-0.689C19.924,30.247,19.65,29.969,19.703,29.873z"/>
		</g>
	</g>
</g>
<g>
	<g>
		<g>
			<path opacity="0.1091" fill="#754C24" d="M21.51,31.345c-0.263,0.088-0.526,0.177-0.79,0.264
				c-0.132,0.045-0.364,0.135-0.449,0.162c0.29-0.096,0.577-0.192,0.867-0.288C21.198,31.462,21.632,31.305,21.51,31.345z"/>
			<path opacity="0.1091" fill="#754C24" d="M20.139,30.416c-0.277,0.091-0.552,0.184-0.828,0.275
				c0.033-0.012,0.224,0.441,0.264,0.428c0.275-0.092,0.552-0.185,0.828-0.275C20.371,30.854,20.179,30.401,20.139,30.416z"/>
			<path opacity="0.1091" fill="#754C24" d="M20.612,28.94c-0.271,0.091-0.543,0.181-0.814,0.272
				c-0.159,0.053-0.306,0.144-0.464,0.196c0.28-0.093,0.561-0.187,0.84-0.28C20.306,29.086,20.529,28.968,20.612,28.94z"/>
			<path opacity="0.1091" fill="#754C24" d="M21.278,30.022c-0.266,0.08-0.533,0.162-0.799,0.244
				c-0.07,0.021,0.096,0.501,0.169,0.473c0.192-0.071,0.385-0.144,0.579-0.217C21.296,30.496,21.217,30.041,21.278,30.022z"/>
			<path opacity="0.1091" fill="#754C24" d="M21.042,28.851c-0.275,0.093-0.551,0.184-0.828,0.276
				c0.129-0.043,0.352,0.185,0.483,0.14c0.277-0.093,0.552-0.186,0.828-0.276C21.398,29.033,21.177,28.806,21.042,28.851z"/>
			<path opacity="0.1091" fill="#754C24" d="M19.62,29.81c-0.275,0.093-0.551,0.184-0.826,0.276c-0.073,0.023,0,0.477-0.068,0.499
				c0.275-0.092,0.552-0.185,0.828-0.277C19.626,30.284,19.555,29.832,19.62,29.81z"/>
			<path opacity="0.1091" fill="#754C24" d="M20.336,31.494c-0.275,0.091-0.551,0.184-0.828,0.275
				c0.134-0.045,0.353,0.166,0.489,0.12c0.277-0.093,0.552-0.184,0.828-0.276C20.694,31.657,20.474,31.448,20.336,31.494z"/>
			<path opacity="0.1091" fill="#754C24" d="M21.875,29.853c-0.277,0.093-0.552,0.184-0.829,0.276
				c-0.033,0.012,0.093,0.49,0.066,0.499c0.277-0.093,0.552-0.185,0.829-0.277C21.976,30.34,21.85,29.86,21.875,29.853z"/>
			<path opacity="0.1091" fill="#754C24" d="M20.14,29.333c-0.275,0.093-0.551,0.185-0.828,0.277
				c-0.133,0.044-0.176,0.355-0.306,0.398c0.277-0.092,0.552-0.185,0.828-0.275C19.968,29.688,20.011,29.376,20.14,29.333z"/>
			<path opacity="0.1091" fill="#754C24" d="M21.033,29.428c-0.306,0.02-0.612,0.038-0.916,0.058
				c-0.089,0.006-0.109,0.431-0.188,0.467c0.386-0.176,0.771-0.352,1.157-0.527C21.067,29.423,21.049,29.425,21.033,29.428z"/>
			<path opacity="0.1091" fill="#754C24" d="M21.928,30.589c-0.277,0.093-0.552,0.184-0.829,0.276
				c-0.125,0.042-0.148,0.384-0.27,0.424c0.277-0.092,0.552-0.183,0.829-0.275C21.784,30.972,21.808,30.629,21.928,30.589z"/>
			<path opacity="0.1091" fill="#754C24" d="M19.599,30.426c-0.276,0.091-0.551,0.184-0.828,0.275c0,0.001,0.161,0.478,0.167,0.476
				c0.275-0.093,0.551-0.184,0.828-0.276C19.767,30.9,19.606,30.423,19.599,30.426z"/>
		</g>
	</g>
</g>
<g>
	<g>
		<g>
			<path opacity="0.1091" fill="#754C24" d="M19.018,26.668c-0.011,1.537,0.151,3.057,0.484,4.558
				c-0.005-0.028,0.479-0.138,0.474-0.169c-0.334-1.5-0.496-3.021-0.485-4.558C19.494,26.547,19.015,26.619,19.018,26.668z"/>
			<path opacity="0.1091" fill="#754C24" d="M18.071,25.585c-0.012,1.536,0.147,3.055,0.48,4.556
				c0.025,0.153,0.239,0.275,0.264,0.428c-0.333-1.501-0.493-3.02-0.48-4.556C18.328,25.865,18.078,25.73,18.071,25.585z"/>
			<path opacity="0.1091" fill="#754C24" d="M18.205,26.593c0.123,0.754,0.247,1.509,0.37,2.263
				c-0.005-0.038,0.469-0.156,0.462-0.197c-0.124-0.753-0.247-1.508-0.37-2.262C18.673,26.434,18.198,26.553,18.205,26.593z"/>
			<path opacity="0.1091" fill="#754C24" d="M19.16,25.694c-0.229,1.429-0.146,2.842,0.25,4.237
				c0.007,0.048,0.504-0.031,0.499-0.072c-0.28-1.548-0.512-3.104-0.698-4.666C19.232,25.35,19.168,25.535,19.16,25.694z"/>
			<path opacity="0.1091" fill="#754C24" d="M19.085,26.311c0.125,0.754,0.248,1.509,0.372,2.262c0.011,0.071,0.472,0.07,0.483,0.14
				c-0.125-0.754-0.248-1.509-0.373-2.263C19.558,26.377,19.097,26.38,19.085,26.311z"/>
			<path opacity="0.1091" fill="#754C24" d="M17.595,27.77c0.123,0.754,0.247,1.509,0.37,2.263
				c-0.025-0.158,0.093-0.339,0.066-0.498c-0.123-0.755-0.245-1.509-0.368-2.265C17.688,27.428,17.57,27.61,17.595,27.77z"/>
			<path opacity="0.1091" fill="#754C24" d="M18.379,28.954c0.124,0.756,0.247,1.512,0.371,2.266c0.01,0.066,0.478,0.057,0.489,0.12
				c-0.125-0.755-0.248-1.51-0.371-2.266C18.857,29.008,18.391,29.018,18.379,28.954z"/>
			<path opacity="0.1091" fill="#754C24" d="M19.801,25.023c0.111,2.216,0.188,2.84,0.551,5.039
				c-0.014-0.087-0.039-0.335-0.061-0.473c-0.125-0.755-0.249-1.509-0.373-2.264c0.021,0.162,0.042,0.324,0.064,0.486
				c-0.039-0.765-0.076-1.527-0.115-2.29C19.859,25.355,19.809,25.19,19.801,25.023z"/>
			<path opacity="0.1091" fill="#754C24" d="M17.767,24.904c-0.014,1.535,0.146,3.052,0.479,4.551
				c-0.018-0.11,0.325-0.284,0.306-0.398c-0.333-1.499-0.493-3.016-0.479-4.551C18.078,24.633,17.759,24.775,17.767,24.904z"/>
			<path opacity="0.1091" fill="#754C24" d="M18.515,24.643c-0.012,1.535,0.149,3.051,0.482,4.55c0.002,0.015,0.5-0.055,0.501-0.046
				c-0.333-1.498-0.494-3.015-0.482-4.55C19.016,24.601,18.514,24.633,18.515,24.643z"/>
			<path opacity="0.1091" fill="#754C24" d="M19.585,26.183c-0.01,1.537,0.152,3.056,0.487,4.556
				c-0.021-0.122,0.291-0.299,0.27-0.424c-0.335-1.5-0.497-3.02-0.487-4.557C19.862,25.894,19.578,26.045,19.585,26.183z"/>
			<path opacity="0.1091" fill="#754C24" d="M17.641,27.886c0.123,0.756,0.246,1.51,0.369,2.266c0.026,0.163,0.14,0.312,0.167,0.475
				c-0.124-0.756-0.247-1.51-0.37-2.265C17.78,28.198,17.668,28.049,17.641,27.886z"/>
		</g>
	</g>
</g>
<g>
	<g>
		<g>
			<path opacity="0.1091" fill="#754C24" d="M18.562,26.62c-0.092-0.073-0.185-0.146-0.276-0.221
				c-0.018-0.015-0.461,0.14-0.475,0.169c-0.571,1.317,0.403,2.558-0.275,3.864c0.158-0.057,0.315-0.114,0.474-0.171
				c-1.29,0.309-1.854-1.431-2.104-2.448c-0.158,0.057-0.315,0.112-0.474,0.169c0.305,0.201,0.558,0.454,0.759,0.759
				c0.685,0.733,1.513,1.228,2.483,1.483c0.116,0.047,0.36-0.216,0.475-0.169c-0.97-0.256-1.798-0.75-2.483-1.483
				c-0.202-0.305-0.455-0.558-0.76-0.759c-0.028-0.022-0.471,0.18-0.474,0.169c0.259,1.056,0.871,2.889,2.231,2.404
				c0.054-0.019,0.318-0.07,0.346-0.125c0.679-1.305-0.296-2.545,0.277-3.862c-0.158,0.057-0.317,0.113-0.475,0.169
				c0.093,0.073,0.184,0.146,0.277,0.218C18.157,26.842,18.492,26.565,18.562,26.62z"/>
			<path opacity="0.1091" fill="#754C24" d="M18.853,29.979c-0.458-1.467-0.876-2.962-1.709-4.266
				c-0.666-1.044-0.302,2.051-0.284,2.148c0.176,0.552,0.083,1.048-0.275,1.483c-0.354,0.686-1.287-0.578-1.388-0.706
				c0.085,0.139,0.171,0.277,0.259,0.415c0.009,0.02-1.456-2.333-0.305-1.401c0.118,0.143,0.235,0.286,0.354,0.43
				c0.685,0.734,1.513,1.229,2.483,1.484c-0.125-0.053-0.138-0.375-0.266-0.428c-1.178-0.491-2.013-0.912-2.836-1.914
				c-0.885-1.077-0.081,0.665-0.044,0.758c0.129,0.326,0.355,0.663,0.547,0.971c0.393,0.633,0.708,0.999,1.46,0.819
				c0.717-0.17,0.161-2.1,0.1-2.428c-0.055-0.301-0.296-1.812,0.453-1.215c-0.086-0.139-0.171-0.277-0.257-0.417
				c0.687,1.19,1.04,2.537,1.443,3.838C18.636,29.707,18.804,29.824,18.853,29.979z"/>
			<path opacity="0.1091" fill="#754C24" d="M16.885,24.199c-0.575,1.316,0.401,2.556-0.277,3.862
				c0.155-0.065,0.309-0.132,0.464-0.196c-1.29,0.306-1.855-1.432-2.104-2.45c-0.155,0.066-0.309,0.132-0.464,0.198
				c0.305,0.2,0.558,0.453,0.76,0.758c0.686,0.733,1.513,1.228,2.483,1.484c0.108,0.044,0.355-0.242,0.462-0.197
				c-0.97-0.256-1.798-0.751-2.483-1.483c-0.202-0.306-0.454-0.558-0.758-0.76c-0.023-0.019-0.462,0.202-0.464,0.198
				c0.247,1,0.893,2.962,2.229,2.396c0.058-0.023,0.309-0.086,0.339-0.144c0.677-1.307-0.296-2.547,0.275-3.865
				C17.298,24.112,16.933,24.088,16.885,24.199z"/>
			<path opacity="0.1091" fill="#754C24" d="M19.729,29.16c-0.406-1.305-0.757-2.657-1.448-3.851
				c-0.091-0.073-0.183-0.146-0.275-0.22c-0.536,0.422-0.671,0.935-0.406,1.54c0.141,0.978,0.404,1.473-0.062,2.381
				c-0.328-0.143-0.658-0.283-0.985-0.425c-0.379-0.604-0.615-1.264-0.709-1.98c-0.088,0.137-0.178,0.273-0.267,0.409
				c0.882,0.897,1.878,1.495,3.018,2.038c0.115,0.055,0.355-0.252,0.45-0.224c-0.583-0.174-1.166-0.347-1.748-0.52
				c0.128,0.101,0.256,0.201,0.385,0.301c-0.76-0.7-1.149-1.337-1.841-2.024c-0.015-0.014-0.296,0.352-0.263,0.429
				c0.313,0.762,0.617,1.545,1.289,2.062c2.043,1.568,1.11-3.116,1.141-3.986c-0.017,0.167-0.035,0.333-0.053,0.501
				c1.08,0.858,1.34,2.839,1.723,4.07C19.631,29.515,19.775,29.309,19.729,29.16z"/>
			<path opacity="0.1091" fill="#754C24" d="M17.767,23.916c-0.371,0.853-0.169,1.476,0,2.378c0.155,0.823,0.07,1.402-0.763,1.6
				c0.162,0.047,0.322,0.093,0.484,0.14c-0.941-0.563-1.363-1.526-1.618-2.564c-0.161-0.047-0.322-0.093-0.483-0.14
				c0.304,0.201,0.556,0.454,0.758,0.759c0.685,0.733,1.513,1.229,2.483,1.484c0.154,0.064,0.33,0.075,0.483,0.139
				c-0.97-0.256-1.798-0.75-2.483-1.483c-0.201-0.305-0.454-0.558-0.758-0.759c-0.069-0.056-0.466-0.07-0.483-0.14
				c0.256,1.042,0.73,2.311,1.859,2.636c0.342,0.1,0.238,0.07,0.728-0.046c0.358-0.438,0.451-0.933,0.277-1.485
				c-0.05-0.959-0.399-1.463,0-2.379C18.241,24.073,17.775,23.896,17.767,23.916z"/>
			<path opacity="0.1091" fill="#754C24" d="M16.351,24.878c-0.576,1.271-0.105,2.335-0.032,3.744
				c0.022-0.166,0.044-0.332,0.067-0.5c-0.994,1.92-2.168-0.784-2.424-1.831c-0.022,0.166-0.045,0.332-0.068,0.498
				c0.305,0.201,0.558,0.454,0.76,0.759c0.686,0.733,1.513,1.228,2.483,1.483c-0.039-0.017,0.108-0.481,0.066-0.498
				c-0.97-0.256-1.798-0.75-2.483-1.483c-0.202-0.305-0.454-0.558-0.758-0.759c0.057,0.046-0.088,0.411-0.068,0.498
				c0.216,0.878,0.583,1.575,1.145,2.282c0.505,0.636,1.197,0.148,1.288-0.502c0.145-1.048-0.144-2.065-0.238-3.108
				c-0.022,0.166-0.044,0.332-0.068,0.498c0.082-0.195,0.164-0.391,0.245-0.586C16.328,25.224,16.283,25.026,16.351,24.878z"/>
			<path opacity="0.1091" fill="#754C24" d="M16.806,27.146c0.096,1.052,0.925,3.054-0.508,3.396c0.162,0.04,0.325,0.08,0.489,0.12
				c-0.941-0.562-1.364-1.526-1.618-2.564c-0.164-0.04-0.325-0.081-0.489-0.121c0.305,0.201,0.558,0.454,0.759,0.759
				c0.685,0.733,1.513,1.228,2.483,1.483c0.154,0.064,0.336,0.056,0.489,0.119c-0.97-0.254-1.798-0.748-2.483-1.482
				c-0.201-0.304-0.454-0.558-0.758-0.758c-0.066-0.055-0.472-0.053-0.489-0.121c0.25,1.021,0.727,2.348,1.862,2.626
				c1.707,0.419,0.828-2.515,0.753-3.336C17.289,27.212,16.812,27.2,16.806,27.146z"/>
			<path opacity="0.1091" fill="#754C24" d="M20.317,28.99c-0.404-1.303-0.754-2.657-1.444-3.851
				c-0.647-1.118-0.435,1.421-0.451,1.228c0.043,0.474,0.154,0.959,0.24,1.417c-0.022-0.161-0.043-0.323-0.065-0.485
				c0.05,0.976-0.095,1.998-1.234,1.317c-0.65-0.391-0.979-1.602-1.145-2.282c0.022,0.166,0.044,0.332,0.066,0.498
				c0.304,0.201,0.558,0.454,0.758,0.759c0.685,0.733,1.513,1.229,2.483,1.483c-0.075-0.031,0.014-0.465-0.066-0.498
				c-0.97-0.256-1.798-0.75-2.483-1.483c-0.202-0.305-0.454-0.559-0.758-0.759c0.069,0.057,0.042,0.4,0.066,0.498
				c0.254,1.04,0.677,2.002,1.618,2.565c0.879,0.525,0.777-1.494,0.757-1.653c-0.018-0.144-0.032-0.289-0.06-0.432
				c-0.447-1.774-0.333-2.332,0.34-1.675c0.714,0.57,1.19,3.034,1.444,3.852C20.335,29.332,20.367,29.149,20.317,28.99z"/>
			<path opacity="0.1091" fill="#754C24" d="M18.591,28.474c-0.383-1.237-0.648-3.212-1.73-4.074
				c0.007,0.005-0.285,0.352-0.306,0.399c-0.573,1.316,0.401,2.557-0.275,3.863c0.101-0.133,0.204-0.268,0.306-0.4
				c-1.29,0.308-1.855-1.431-2.104-2.448c-0.103,0.133-0.205,0.266-0.307,0.398c0.304,0.202,0.558,0.454,0.76,0.76
				c0.685,0.732,1.513,1.229,2.483,1.482c0.042,0.019,0.269-0.415,0.306-0.398c-0.97-0.256-1.798-0.75-2.483-1.483
				c-0.202-0.305-0.454-0.558-0.758-0.759c0.018,0.014-0.318,0.352-0.307,0.398c0.134,0.546,1.268,3.538,2.187,2.344
				c0.072-0.093,0.17-0.188,0.225-0.294c0.677-1.307-0.298-2.545,0.275-3.862c-0.103,0.133-0.204,0.266-0.306,0.399
				c1.077,0.858,1.341,2.842,1.728,4.072C18.253,28.779,18.619,28.565,18.591,28.474z"/>
			<path opacity="0.1091" fill="#754C24" d="M19.533,28.563c-0.384-1.233-0.645-3.214-1.725-4.073
				c-0.028-0.022-0.493,0.025-0.501,0.044c-0.371,0.854-0.168,1.476,0,2.38c0.154,0.823,0.071,1.402-0.762,1.6
				c0.167-0.015,0.335-0.03,0.501-0.044c-0.94-0.563-1.362-1.526-1.617-2.564c-0.167,0.014-0.335,0.028-0.501,0.044
				c0.304,0.2,0.556,0.454,0.758,0.759c0.685,0.733,1.513,1.228,2.483,1.483c0.139,0.059,0.366-0.101,0.501-0.044
				c-0.971-0.257-1.798-0.751-2.483-1.484c-0.202-0.305-0.454-0.558-0.758-0.758c-0.047-0.039-0.493,0.078-0.501,0.044
				c0.205,0.836,0.749,2.644,1.867,2.544c0.278-0.025,0.427-0.066,0.737-0.14c0.359-0.438,0.45-0.932,0.276-1.484
				c-0.049-0.959-0.399-1.463,0-2.379c-0.167,0.016-0.334,0.029-0.501,0.044c1.08,0.861,1.341,2.841,1.725,4.075
				C19.042,28.644,19.523,28.532,19.533,28.563z"/>
			<path opacity="0.1091" fill="#754C24" d="M20.373,29.725c-0.383-1.231-0.644-3.209-1.722-4.067
				c0.01,0.007-0.248,0.375-0.27,0.424c-0.572,1.317,0.403,2.558-0.275,3.864c0.09-0.143,0.18-0.284,0.27-0.425
				c-1.29,0.307-1.855-1.432-2.104-2.45c-0.09,0.143-0.18,0.284-0.27,0.425c0.305,0.201,0.557,0.454,0.759,0.759
				c0.685,0.733,1.513,1.228,2.483,1.483c0.029,0.012,0.247-0.435,0.27-0.425c-0.97-0.255-1.798-0.75-2.483-1.482
				c-0.201-0.306-0.454-0.558-0.758-0.76c0.025,0.021-0.284,0.369-0.27,0.425c0.118,0.481,1.366,3.605,2.177,2.337
				c0.065-0.103,0.141-0.204,0.197-0.312c0.678-1.307-0.296-2.546,0.275-3.863c-0.09,0.141-0.18,0.282-0.27,0.424
				c1.078,0.859,1.338,2.836,1.721,4.067C20.069,30.046,20.404,29.829,20.373,29.725z"/>
			<path opacity="0.1091" fill="#754C24" d="M16.318,25.494c-0.454,1.048-0.012,2.131,0.046,3.245
				c-0.065,0.507-0.333,0.75-0.807,0.733c-0.663,0.157-1.461-1.995-1.5-2.094c0.054,0.155,0.108,0.309,0.16,0.462
				c-0.238-0.572-0.141-0.617,0.293-0.131c0.118,0.144,0.235,0.288,0.353,0.432c0.687,0.733,1.514,1.228,2.484,1.482
				c-0.102-0.043-0.062-0.431-0.166-0.475c-0.97-0.255-1.798-0.75-2.483-1.482c-0.253-0.206-0.919-1.412-0.646-0.301
				c0.035,0.145,0.097,0.287,0.147,0.427c0.313,0.883,0.696,1.659,1.524,2.155c0.873,0.521,0.77-1.455,0.762-1.601
				c-0.05-0.959-0.4-1.463,0.001-2.381C16.536,25.855,16.27,25.605,16.318,25.494z"/>
		</g>
	</g>
</g>
<g>
	<g>
		<g>
			<path opacity="0.1091" fill="#754C24" d="M26.39,28.079c0.395,0-1.068-1.955-1.594-1.955C24.4,26.124,25.865,28.079,26.39,28.079
				z"/>
			<path opacity="0.1091" fill="#754C24" d="M25.053,26.988c0.473,0-0.54-1.271-0.914-1.271
				C23.667,25.718,24.679,26.988,25.053,26.988z"/>
			<path opacity="0.1091" fill="#754C24" d="M25.502,25.82c0.234,0,0.413-0.481,0.078-0.481
				C25.346,25.339,25.167,25.82,25.502,25.82z"/>
			<path opacity="0.1091" fill="#754C24" d="M26.086,26.68c0.407,0-0.992-1.808-1.489-1.808
				C24.188,24.872,25.588,26.68,26.086,26.68z"/>
			<path opacity="0.1091" fill="#754C24" d="M26.185,25.502c0.476,0,0.199-0.68-0.133-0.68
				C25.577,24.822,25.854,25.502,26.185,25.502z"/>
			<path opacity="0.1091" fill="#754C24" d="M24.63,26.789c0.289,0,0.391-0.521,0.049-0.521
				C24.388,26.269,24.287,26.789,24.63,26.789z"/>
			<path opacity="0.1091" fill="#754C24" d="M25.522,28.095c0.463,0-0.69-1.481-1.1-1.481C23.96,26.613,25.111,28.095,25.522,28.095
				z"/>
			<path opacity="0.1091" fill="#754C24" d="M26.831,26.6c0.411,0-0.959-1.734-1.445-1.734C24.975,24.865,26.345,26.6,26.831,26.6z"
				/>
			<path opacity="0.1091" fill="#754C24" d="M24.957,26.185c0.365,0,0.325-0.581-0.017-0.581
				C24.573,25.604,24.613,26.185,24.957,26.185z"/>
			<path opacity="0.1091" fill="#754C24" d="M25.658,25.84c0.467,0-0.352-1.004-0.688-1.004
				C24.506,24.836,25.323,25.84,25.658,25.84z"/>
			<path opacity="0.1091" fill="#754C24" d="M26.836,27.429c0.371,0-1.159-2.033-1.715-2.033
				C24.751,25.396,26.281,27.429,26.836,27.429z"/>
			<path opacity="0.1091" fill="#754C24" d="M24.594,27.269c0.509,0,0.185-0.719-0.14-0.719
				C23.945,26.55,24.271,27.269,24.594,27.269z"/>
		</g>
	</g>
</g>
<g>
	<g>
		<g>
			<path opacity="0.1091" fill="#754C24" d="M24.675,26.635c-1.516,1.179-3.005,2.37-4.173,3.901
				c0.075-0.099,0.361-0.103,0.475-0.169c1.29-0.76,2.503-1.838,3.656-2.726c-0.126,0.098-0.348,0.071-0.474,0.169
				c-1.153,0.888-2.367,1.964-3.657,2.726c0.158-0.057,0.317-0.113,0.475-0.169c1.167-1.53,2.656-2.721,4.171-3.903
				C25.021,26.563,24.801,26.536,24.675,26.635z"/>
			<path opacity="0.1091" fill="#754C24" d="M23.728,25.551c-1.44,1.118-2.926,2.24-4.011,3.715
				c-0.097,0.133,0.229,0.429,0.361,0.35c1.179-0.7,2.485-1.846,3.494-2.584c-0.083,0.06-0.395-0.174-0.493-0.104
				c-1.089,0.789-2.137,1.664-3.32,2.314c0.106,0.124,0.213,0.249,0.319,0.373c1.064-1.447,2.5-2.539,3.915-3.637
				C24.009,25.966,23.715,25.561,23.728,25.551z"/>
			<path opacity="0.1091" fill="#754C24" d="M23.751,24.273c-1.521,1.175-3.009,2.358-4.177,3.892
				c0.077-0.101,0.349-0.13,0.463-0.198c1.29-0.76,2.504-1.836,3.657-2.724c-0.129,0.099-0.335,0.099-0.464,0.196
				c-1.151,0.888-2.367,1.965-3.656,2.726c0.155-0.066,0.309-0.132,0.463-0.198c1.167-1.532,2.656-2.717,4.174-3.894
				C24.085,24.174,23.88,24.174,23.751,24.273z"/>
			<path opacity="0.1091" fill="#754C24" d="M24.869,25.159c-1.477,1.052-2.92,2.14-4.006,3.602
				c-0.118,0.159,0.098,0.519,0.288,0.406c1.098-0.657,2.139-1.525,3.177-2.242c0.066-0.046-0.248-0.438-0.335-0.375
				c-0.987,0.767-2.007,1.486-3.059,2.159c0.096,0.136,0.191,0.271,0.287,0.405c0.992-1.34,2.332-2.373,3.598-3.454
				C24.907,25.584,24.778,25.226,24.869,25.159z"/>
			<path opacity="0.1091" fill="#754C24" d="M24.629,23.989c-1.518,1.177-3.005,2.361-4.172,3.893
				c0.039-0.052,0.413,0.181,0.483,0.14c1.291-0.762,2.505-1.837,3.657-2.725c-0.077,0.06-0.404-0.202-0.482-0.14
				c-1.153,0.888-2.367,1.964-3.657,2.725c0.162,0.047,0.323,0.093,0.483,0.14c1.167-1.532,2.655-2.718,4.173-3.894
				C25.036,24.188,24.708,23.929,24.629,23.989z"/>
			<path opacity="0.1091" fill="#754C24" d="M23.209,24.947c-1.52,1.177-3.011,2.362-4.178,3.896
				c-0.068,0.088,0.017,0.449-0.068,0.498c1.29-0.76,2.505-1.838,3.657-2.724c0.096-0.074-0.026-0.427,0.068-0.499
				c-1.153,0.888-2.367,1.964-3.657,2.725c-0.023,0.166-0.045,0.332-0.068,0.498c1.168-1.534,2.659-2.719,4.18-3.896
				C23.237,25.372,23.116,25.02,23.209,24.947z"/>
			<path opacity="0.1091" fill="#754C24" d="M22.592,27.665c-1.034,0.941-1.996,1.757-2.842,2.865
				c0.042-0.055,0.414,0.164,0.488,0.121c1.29-0.762,2.504-1.839,3.657-2.726c-0.082,0.063-0.406-0.186-0.489-0.12
				c-1.152,0.887-2.367,1.965-3.656,2.725c0.163,0.04,0.325,0.081,0.488,0.121c0.846-1.11,1.807-1.924,2.842-2.865
				C23.011,27.849,22.66,27.602,22.592,27.665z"/>
			<path opacity="0.1091" fill="#754C24" d="M25.458,24.99c-1.532,1.19-3.12,2.405-4.299,3.953
				c-0.007,0.008,0.358,0.323,0.408,0.295c1.234-0.735,2.418-1.761,3.531-2.6c0.02-0.014-0.271-0.422-0.264-0.428
				c-1.162,0.896-2.37,1.977-3.675,2.732c0.137,0.098,0.273,0.196,0.408,0.295c1.12-1.482,2.492-2.609,3.958-3.75
				C25.594,25.435,25.393,25.04,25.458,24.99z"/>
			<path opacity="0.1091" fill="#754C24" d="M23.729,24.471c-1.677,1.297-3.141,2.529-4.405,4.186c0,0-0.063,0.099-0.08,0.108
				c1.292-0.76,2.505-1.837,3.657-2.724c0.129-0.101,0.179-0.301,0.306-0.399c-0.85,0.655-1.701,1.31-2.552,1.966
				c-0.505,0.604-0.662,0.578-0.468-0.073c-0.076,0.097-0.151,0.193-0.227,0.29c1.135-1.022,2.254-2.018,3.463-2.955
				C23.551,24.77,23.601,24.57,23.729,24.471z"/>
			<path opacity="0.1091" fill="#754C24" d="M24.172,24.608c-1.353,1.046-2.868,2.087-3.878,3.463
				c-0.097,0.133,0.22,0.438,0.354,0.358c1.167-0.696,2.453-1.836,3.483-2.563c-0.071,0.05-0.39-0.209-0.483-0.14
				c-1.015,0.914-2.119,1.688-3.311,2.32c0.104,0.127,0.208,0.254,0.312,0.382c1.127-1.541,2.521-2.702,4.025-3.866
				C24.563,24.648,24.284,24.521,24.172,24.608z"/>
			<path opacity="0.1091" fill="#754C24" d="M25.512,25.724c-1.519,1.184-3.008,2.376-4.179,3.91
				c-0.077,0.104-0.153,0.352-0.261,0.415c1.29-0.761,2.503-1.838,3.657-2.726c0.126-0.097,0.146-0.329,0.27-0.425
				c-1.151,0.888-2.366,1.966-3.657,2.726c-0.087,0.139-0.174,0.275-0.261,0.414c1.164-1.527,2.651-2.713,4.162-3.89
				C25.368,26.052,25.389,25.82,25.512,25.724z"/>
			<path opacity="0.1091" fill="#754C24" d="M23.187,25.562c-1.519,1.18-3.009,2.365-4.177,3.899
				c-0.038,0.048,0.204,0.452,0.166,0.475c1.29-0.76,2.504-1.837,3.657-2.726c0.043-0.033-0.206-0.442-0.166-0.475
				c-1.151,0.888-2.367,1.964-3.657,2.726c0.055,0.157,0.111,0.316,0.166,0.475c1.168-1.534,2.659-2.722,4.18-3.899
				C23.396,26.003,23.146,25.594,23.187,25.562z"/>
		</g>
	</g>
</g>
<g>
	<g>
		<g>
			<path opacity="0.1091" fill="#754C24" d="M21.88,26.368c-0.133-0.229-0.267-0.461-0.4-0.691c-0.177-0.306-0.653,0.01-0.482,0.309
				c0.129,0.223,0.258,0.447,0.388,0.67C21.563,26.964,22.052,26.665,21.88,26.368z"/>
			<path opacity="0.1091" fill="#754C24" d="M20.67,25.849c-0.127-0.218-0.255-0.436-0.382-0.652
				c-0.227-0.389-0.58,0.896-0.468,1.127c0.105,0.214,0.209,0.429,0.314,0.644C20.321,27.35,20.857,26.171,20.67,25.849z"/>
			<path opacity="0.1091" fill="#754C24" d="M20.878,23.943c-0.14-0.229-0.28-0.458-0.421-0.687
				c-0.212-0.346-0.749,1.866-0.587,2.292c0.071,0.185,0.14,0.37,0.21,0.554c0.169,0.444,0.5-0.506,0.49-0.476
				C20.679,25.282,21.101,24.305,20.878,23.943z"/>
			<path opacity="0.1091" fill="#754C24" d="M21.643,25.561c-0.134-0.223-0.269-0.446-0.403-0.669
				c-0.224-0.371-0.765,1.65-0.606,2.04c0.078,0.186,0.154,0.373,0.231,0.558C20.997,27.81,21.915,26.012,21.643,25.561z"/>
			<path opacity="0.1091" fill="#754C24" d="M21.822,23.69c-0.144-0.232-0.288-0.465-0.431-0.696
				c-0.266-0.429-0.475,0.638-0.475,0.637c-0.123,0.558-0.448,1.497-0.242,2.067c0.068,0.19,0.136,0.378,0.204,0.566
				c0.177,0.493,0.546-0.644,0.526-0.578C21.524,25.31,22.066,24.088,21.822,23.69z"/>
			<path opacity="0.1091" fill="#754C24" d="M20.089,25.207c-0.122-0.217-0.242-0.436-0.364-0.653
				c-0.314-0.565-0.625,0.584-0.485,0.859c0.086,0.172,0.173,0.344,0.26,0.516C19.783,26.489,20.24,25.479,20.089,25.207z"/>
			<path opacity="0.1091" fill="#754C24" d="M21.19,26.291c-0.143-0.222-0.285-0.441-0.427-0.661
				c-0.105-0.164-0.622-0.141-0.444,0.128c0.143,0.218,0.285,0.435,0.428,0.652C20.85,26.568,21.365,26.559,21.19,26.291z"/>
			<path opacity="0.1091" fill="#754C24" d="M22.334,25.267c-0.135-0.223-0.268-0.447-0.401-0.67
				c-0.229-0.381-0.724,1.598-0.58,1.97c0.069,0.179,0.139,0.358,0.209,0.538C21.685,27.426,22.601,25.714,22.334,25.267z"/>
			<path opacity="0.1091" fill="#754C24" d="M20.417,24.637c-0.133-0.226-0.267-0.451-0.4-0.677
				c-0.222-0.375-0.63,1.492-0.489,1.843c0.072,0.18,0.144,0.359,0.216,0.539C19.873,26.663,20.67,25.066,20.417,24.637z"/>
			<path opacity="0.1091" fill="#754C24" d="M21.289,24.486c-0.14-0.228-0.281-0.454-0.421-0.683
				c-0.198-0.318-0.901,2.096-0.708,2.583c0.075,0.192,0.151,0.383,0.227,0.574c0.186,0.472,0.529-0.598,0.515-0.554
				C21.021,26.036,21.53,24.875,21.289,24.486z"/>
			<path opacity="0.1091" fill="#754C24" d="M22.212,25.966c-0.126-0.213-0.252-0.428-0.377-0.641
				c-0.23-0.394-0.584,0.856-0.477,1.079c0.101,0.209,0.201,0.417,0.302,0.626C21.848,27.419,22.397,26.283,22.212,25.966z"/>
			<path opacity="0.1091" fill="#754C24" d="M20.213,25.689c-0.123-0.224-0.246-0.447-0.37-0.67
				c-0.216-0.393-0.632,0.184-0.47,0.479c0.109,0.198,0.218,0.397,0.328,0.596C19.915,26.48,20.377,25.985,20.213,25.689z"/>
		</g>
	</g>
</g>
<g>
	<g>
		<g>
			<path opacity="0.1091" fill="#754C24" d="M20.078,24c-0.195,0-0.39,0-0.587,0c0.622-1,1.278-2.692,1.967-4.007
				c-0.054,0.106-0.388,0.07-0.474,0.164c-0.819,0.895-1.147,1.584-1.449,2.757c-0.401,1.562,0.562,2.477,1.622,3.345
				c0.066,0.056,0.407-0.223,0.474-0.169c-1.356-1.111-1.574-1.594-1.621-3.347c-0.029-1.075,0.785-2.036,1.448-2.759
				c-0.158,0.055-0.316,0.112-0.474,0.168c-0.336,0.662-0.673,1.323-1.009,1.986c-1.466,1.517-1.589,2.197-0.371,2.021
				C19.762,24.16,19.92,24,20.078,24z"/>
			<path opacity="0.1091" fill="#754C24" d="M18.656,23c-0.195,0-0.39,0-0.585,0c0.089,0,0.177,0.318,0.265,0.461
				c0.62-1.35,1.274-2.666,1.964-3.982c0.029-0.06-0.302-0.379-0.266-0.419c-1.396,1.525-2.001,3.401-0.85,5.295
				c0.388,0.637,0.428,0.539,1.287,1.244c-0.122-0.102-0.141-0.326-0.264-0.427c-0.35-0.287-0.699-0.573-1.049-0.859
				c0.089,0.143,0.177,0.286,0.265,0.429c-0.97-1.99-0.591-3.643,0.877-5.246c-0.089-0.143-0.177-0.285-0.266-0.428
				c-0.689,1.316-1.343,2.402-1.963,3.752C18.06,22.842,18.311,23,18.335,23c0.195,0,0.392,0,0.586,0C18.836,23,18.748,23,18.656,23
				z"/>
			<path opacity="0.1091" fill="#754C24" d="M19.142,22c-0.195,0-0.39,0-0.585,0c0.62-2,1.275-2.891,1.964-4.209
				c-0.057,0.112-0.374-0.004-0.462,0.095c-0.819,0.894-1.147,1.535-1.449,2.707c-0.401,1.563,0.562,2.451,1.621,3.321
				c0.061,0.05,0.404-0.26,0.464-0.21c-1.356-1.111-1.575-1.599-1.622-3.353c-0.029-1.074,0.786-2.037,1.449-2.761
				c-0.153,0.065-0.309,0.128-0.462,0.195c-0.336,0.663-0.673,1.325-1.009,1.99c-1.464,1.52-1.587,2.395-0.37,2.218
				C18.835,21.992,18.989,22,19.142,22z"/>
			<path opacity="0.1091" fill="#754C24" d="M19.8,23c-0.195,0-0.391,0-0.587,0c-0.017,0-0.035,0.172-0.053,0.339
				c0.622-1.351,1.276-2.766,1.967-4.084c0.057-0.112-0.036-0.46,0.051-0.54c-0.819,0.753-1.593,1.501-1.6,2.721
				c-0.012,1.802,0.164,2.342,1.511,3.541c0.099,0.088,0.364,0.185,0.413,0.232c-1.468-1.029-1.884-2.547-1.246-4.552
				c0.205-0.545,0.494-1.04,0.871-1.482c0.018-0.166,0.035-0.334,0.051-0.5c-0.689,1.316-1.344,2.562-1.965,3.913
				C19.189,22.638,19.18,23,19.16,23c0.197,0,0.392,0,0.587,0C19.767,23,19.784,23,19.8,23z"/>
			<path opacity="0.1091" fill="#754C24" d="M19.56,22c-0.196,0-0.392,0-0.587,0c0.161,0,0.323-0.153,0.483-0.108
				c0.621-1.352,1.276-2.81,1.967-4.129c-0.02,0.04-0.447-0.24-0.483-0.202c-0.819,0.896-1.147,1.555-1.449,2.729
				c-0.401,1.561,0.562,2.462,1.621,3.331c0.119,0.098,0.365,0.034,0.484,0.131c-1.356-1.111-1.575-1.597-1.622-3.349
				c-0.028-1.076,0.786-2.038,1.449-2.762c-0.161-0.046-0.323-0.094-0.483-0.141c-0.69,1.319-1.347,2.831-1.967,4.183
				c0.01-0.02,0.426,0.317,0.483,0.317c0.195,0,0.39,0,0.587,0C19.883,22,19.721,22,19.56,22z"/>
			<path opacity="0.1091" fill="#754C24" d="M18.139,22c-0.195,0-0.39,0-0.585,0c-0.022,1-0.046,0.564-0.068,0.73
				c0.62-1.351,1.273-2.569,1.963-3.887c0.062-0.123-0.024-0.342,0.066-0.44c-0.827,0.901-1.319,1.814-1.484,3.038
				c-0.23,1.71,0.303,2.556,1.59,3.608c-0.068-0.055,0.134-0.434,0.065-0.49c-1.355-1.111-1.574-1.59-1.621-3.342
				c-0.022,0.166-0.044,0.333-0.066,0.5c0.302-1.174,0.629-1.863,1.449-2.759c0.022-0.166,0.044-0.332,0.066-0.498
				c-0.688,1.316-1.343,2.67-1.961,4.021C17.528,22.532,17.506,23,17.485,23c0.195,0,0.39,0,0.587,0C18.096,23,18.118,22,18.139,22z
				"/>
			<path opacity="0.1091" fill="#754C24" d="M18.854,24c-0.195,0-0.391,0-0.586,0c0.162,0,0.326,0.152,0.489,0.191
				c0.62-1.35,1.275-2.646,1.964-3.96c-0.022,0.044-0.448-0.147-0.488-0.104c-0.819,0.896-1.147,1.597-1.449,2.771
				c-0.401,1.563,0.562,2.481,1.622,3.349c0.116,0.096,0.371,0.026,0.489,0.122c-1.356-1.109-1.575-1.591-1.622-3.343
				c-0.028-1.076,0.786-2.036,1.449-2.759c-0.163-0.042-0.325-0.082-0.488-0.122c-0.689,1.316-1.344,2.65-1.964,4
				c0.01-0.023,0.429,0.119,0.489,0.119c0.195,0,0.39-0.072,0.585-0.07C19.181,24.192,19.018,24,18.854,24z"/>
			<path opacity="0.1091" fill="#754C24" d="M20.388,23c-0.196,0-0.392,0-0.587,0c0.022,0,0.044,0.086,0.067,0.252
				c0.621-1.351,1.277-2.809,1.969-4.126c0.053-0.104-0.14-0.481-0.066-0.561c-1.169,1.276-1.627,2.497-1.396,4.252
				c0.143,1.077,0.807,1.626,1.635,2.306c-0.093-0.076,0.03-0.427-0.066-0.506c-0.815-0.425-1.344-1.081-1.583-1.961
				c0.022,0.166,0.044,0.33,0.066,0.496c-0.047-1.769,0.205-2.83,1.412-4.149c-0.022-0.166-0.044-0.333-0.066-0.499
				c-0.692,1.316-1.348,2.648-1.97,4C19.78,22.547,19.868,23,19.868,23c0.195,0,0.392,0,0.586,0C20.437,23,20.414,23,20.388,23z"/>
			<path opacity="0.1091" fill="#754C24" d="M18.658,21.988c-1.218,0.176-1.095-0.496,0.37-2.015c1.33-2.181,1.433-2.591,0.31-1.228
				c-0.057,0.061-0.104,0.133-0.154,0.199c-0.047,0.061-0.118,0.13-0.152,0.201c-0.392,0.613-0.642,1.279-0.751,1.997
				c-0.401,1.563,0.562,2.478,1.622,3.345c-0.004-0.001,0.312-0.395,0.306-0.398c-0.817-0.425-1.345-1.077-1.585-1.957
				c-0.501-1.025,0.277-2.511,0.714-3.387c-0.103,0.133-0.204,0.266-0.306,0.4c1.123-1.363,1.019-0.955-0.31,1.228
				c-1.464,1.52-1.587,2.191-0.369,2.014C18.456,22.387,18.558,21.988,18.658,21.988z"/>
			<path opacity="0.1091" fill="#754C24" d="M19.602,22.079c-0.195,0-0.39,0-0.585,0.002c0.62-1.353,1.276-2.688,1.965-4.006
				c-0.042,0.082-0.432-0.032-0.501,0.044c-0.819,0.895-1.147,1.586-1.449,2.76c-0.401,1.561,0.562,2.477,1.621,3.345
				c0.094,0.077,0.411-0.119,0.501-0.044c-1.355-1.111-1.574-1.594-1.621-3.347c-0.029-1.074,0.786-2.035,1.449-2.758
				c-0.167,0.014-0.333,0.029-0.501,0.044c-0.336,0.663-0.672,1.326-1.009,1.991c-1.466,1.52-1.589,2.192-0.371,2.013
				C19.268,22.123,19.436,22.079,19.602,22.079z"/>
			<path opacity="0.1091" fill="#754C24" d="M20.442,23.24c-1.218,0.178-1.093-0.494,0.372-2.012
				c1.332-2.18,1.435-2.588,0.313-1.227c-0.054,0.06-0.094,0.147-0.137,0.212c-0.042,0.069-0.097,0.14-0.133,0.213
				c-0.392,0.613-0.642,1.279-0.751,1.998c-0.401,1.562,0.562,2.477,1.621,3.346c-0.014-0.011,0.289-0.411,0.27-0.425
				c-0.815-0.425-1.342-1.077-1.583-1.956c-0.5-1.026,0.277-2.512,0.714-3.388c-0.09,0.143-0.18,0.284-0.27,0.425
				c1.123-1.363,1.019-0.954-0.313,1.225c-1.467,1.519-1.59,2.189-0.373,2.014C20.265,23.665,20.354,23.24,20.442,23.24z"/>
			<path opacity="0.1091" fill="#754C24" d="M18.118,23c-0.197,0-0.392,0-0.587,0c0.055,0,0.11,0.355,0.166,0.515
				c0.619-1.352,1.273-2.666,1.962-3.982c0.042-0.083-0.224-0.401-0.166-0.465c-1.012,1.104-1.917,2.703-1.369,4.281
				c0.355,1.027,0.829,1.587,1.707,2.306c-0.111-0.09-0.054-0.382-0.165-0.473c-0.816-0.424-1.345-1.077-1.584-1.956
				c0.054,0.158,0.109,0.316,0.165,0.476c-0.047-1.769,0.205-2.83,1.413-4.149c-0.055-0.158-0.11-0.317-0.166-0.475
				c-0.688,1.316-1.342,2.874-1.962,4.224C17.516,23.333,17.688,24,17.697,24c0.195,0,0.39,0,0.585,0C18.23,24,18.175,23,18.118,23z
				"/>
		</g>
	</g>
</g>
<g>
	<g>
		<g>
			<path opacity="0.1091" fill="#754C24" d="M20.867,19.451c-0.645-0.536-1.168-1.174-1.569-1.913
				c-0.02-0.028-0.446,0.223-0.462,0.196c0.401,0.739,0.924,1.377,1.569,1.915C20.452,19.696,20.824,19.409,20.867,19.451z"/>
			<path opacity="0.1091" fill="#754C24" d="M21.768,19.505c-0.645-0.536-1.168-1.174-1.568-1.913
				c-0.073-0.108-0.411-0.035-0.483-0.14c0.4,0.739,0.923,1.377,1.568,1.913C21.39,19.47,21.664,19.402,21.768,19.505z"/>
			<path opacity="0.1091" fill="#754C24" d="M19.863,20.324c-0.646-0.536-1.169-1.172-1.572-1.912
				c0.07,0.103-0.137,0.396-0.066,0.499c0.403,0.739,0.926,1.375,1.571,1.911C19.726,20.755,19.937,20.397,19.863,20.324z"/>
			<path opacity="0.1091" fill="#754C24" d="M21.067,22.128c-0.645-0.536-1.168-1.171-1.569-1.91
				c-0.071-0.103-0.418-0.017-0.489-0.119c0.401,0.738,0.925,1.375,1.57,1.908C20.683,22.109,20.966,22.028,21.067,22.128z"/>
			<path opacity="0.1091" fill="#754C24" d="M19.841,20.94c-0.645-0.536-1.168-1.172-1.571-1.911
				c0.091,0.134,0.075,0.342,0.166,0.476c0.402,0.738,0.926,1.375,1.571,1.91C19.901,21.31,19.949,21.047,19.841,20.94z"/>
			<path opacity="0.1091" fill="#754C24" d="M21.802,21.844c-0.958-0.947-1.517-1.787-2.035-3.032
				c-0.002-0.008-0.469,0.177-0.473,0.17c0.518,1.245,1.075,2.084,2.035,3.031C21.383,22.066,21.754,21.795,21.802,21.844z"/>
			<path opacity="0.1091" fill="#754C24" d="M20.382,19.848c-0.959-0.948-1.52-1.79-2.038-3.037
				c0.032,0.076-0.339,0.321-0.307,0.398c0.519,1.247,1.08,2.088,2.039,3.038C20.065,20.236,20.4,19.866,20.382,19.848z"/>
			<path opacity="0.1091" fill="#754C24" d="M20.379,20.931c-0.521-0.634-1.041-1.268-1.561-1.9
				c0.086,0.138,0.171,0.278,0.257,0.417c-0.433-0.696-0.61-1.451-0.536-2.263c-0.01-0.148-0.256-0.281-0.264-0.428
				c0.12,1.979,0.979,3.228,2.368,4.602C20.529,21.245,20.496,21.045,20.379,20.931z"/>
			<path opacity="0.1091" fill="#754C24" d="M21.523,20.537c-1.276-1.262-1.992-2.365-2.103-4.173c0.01,0.165-0.063,0.335-0.053,0.5
				c0.109,1.809,0.828,2.912,2.103,4.173C21.397,20.965,21.599,20.613,21.523,20.537z"/>
			<path opacity="0.1091" fill="#754C24" d="M22.115,20.367c-0.959-0.948-1.519-1.789-2.035-3.036
				c0.022,0.167,0.044,0.333,0.066,0.499c-0.023-0.379-0.047-0.758-0.07-1.138c-0.01-0.167-0.057-0.332-0.067-0.499
				c0.122,1.986,0.594,3.112,2.172,4.671C22.09,20.774,22.211,20.462,22.115,20.367z"/>
			<path opacity="0.1091" fill="#754C24" d="M21.326,19.938c-1.274-1.261-1.995-2.364-2.104-4.173c0,0.002-0.501,0.039-0.501,0.044
				c0.109,1.809,0.829,2.912,2.104,4.173C20.904,20.061,21.251,19.863,21.326,19.938z"/>
			<path opacity="0.1091" fill="#754C24" d="M22.168,21.102c-1.278-1.264-1.988-2.368-2.111-4.177
				c0.01,0.139-0.263,0.295-0.256,0.433c0.101,1.808,0.822,2.91,2.096,4.169C21.876,21.505,22.195,21.131,22.168,21.102z"/>
		</g>
	</g>
</g>
<g>
	<g>
		<g>
			<path opacity="0.1091" fill="#754C24" d="M20.225,16.734c0.161,0.149,0.322,0.3,0.483,0.45c0.056,0.051,0.417-0.224,0.474-0.171
				c-0.162-0.15-0.323-0.298-0.483-0.447C20.641,16.512,20.281,16.787,20.225,16.734z"/>
			<path opacity="0.1091" fill="#754C24" d="M19.542,16.079c0.162,0.149,0.323,0.299,0.483,0.449
				c-0.118-0.111-0.146-0.318-0.265-0.429c-0.161-0.148-0.322-0.298-0.483-0.447C19.396,15.761,19.423,15.968,19.542,16.079z"/>
			<path opacity="0.1091" fill="#754C24" d="M20.367,15.761c0.161,0.149,0.321,0.299,0.481,0.447
				c-0.072-0.066,0.127-0.431,0.053-0.5c-0.161-0.149-0.321-0.299-0.483-0.448C20.492,15.328,20.292,15.69,20.367,15.761z"/>
			<path opacity="0.1091" fill="#754C24" d="M21.074,15.589c0.161,0.149,0.321,0.299,0.483,0.448
				c-0.094-0.087,0.027-0.41-0.068-0.498c-0.161-0.15-0.321-0.299-0.482-0.449C21.102,15.178,20.979,15.499,21.074,15.589z"/>
			<path opacity="0.1091" fill="#754C24" d="M18.973,14.971c0.161,0.149,0.323,0.299,0.483,0.448
				c-0.011-0.01,0.318-0.388,0.306-0.398c-0.161-0.15-0.322-0.299-0.483-0.449C19.29,14.582,18.961,14.959,18.973,14.971z"/>
			<path opacity="0.1091" fill="#754C24" d="M19.722,14.709c0.161,0.149,0.321,0.299,0.483,0.448
				c0.083,0.078,0.419-0.12,0.501-0.044c-0.162-0.149-0.322-0.3-0.483-0.45C20.139,14.585,19.802,14.784,19.722,14.709z"/>
			<path opacity="0.1091" fill="#754C24" d="M20.792,16.25c0.161,0.149,0.323,0.297,0.483,0.447
				c-0.021-0.019,0.293-0.403,0.27-0.423c-0.161-0.149-0.321-0.299-0.483-0.448C21.083,15.844,20.769,16.227,20.792,16.25z"/>
		</g>
	</g>
</g>
<g>
	<g>
		<g>
			<path opacity="0.1091" fill="#754C24" d="M23.19,13.215c0.128,0.646,0.255,1.292,0.381,1.937
				c-0.004-0.023,0.48-0.144,0.475-0.169c-0.127-0.645-0.255-1.29-0.382-1.935C23.67,13.07,23.186,13.19,23.19,13.215z"/>
			<path opacity="0.1091" fill="#754C24" d="M22.244,12.133c0.126,0.644,0.252,1.289,0.378,1.932
				c0.03,0.155,0.233,0.275,0.264,0.428c-0.126-0.644-0.252-1.289-0.377-1.933C22.478,12.406,22.274,12.285,22.244,12.133z"/>
			<path opacity="0.1091" fill="#754C24" d="M22.266,10.853c0.128,0.643,0.254,1.286,0.38,1.928
				c-0.007-0.033,0.469-0.162,0.462-0.196c-0.126-0.643-0.252-1.286-0.378-1.928C22.736,10.689,22.259,10.818,22.266,10.853z"/>
			<path opacity="0.1091" fill="#754C24" d="M23.335,12.242c0.126,0.644,0.253,1.288,0.379,1.931c-0.03-0.157,0.083-0.342,0.053-0.5
				c-0.128-0.644-0.254-1.289-0.379-1.932C23.418,11.898,23.303,12.084,23.335,12.242z"/>
			<path opacity="0.1091" fill="#754C24" d="M23.146,10.57c0.127,0.642,0.255,1.285,0.381,1.928c0.015,0.076,0.469,0.065,0.482,0.14
				c-0.126-0.644-0.253-1.286-0.38-1.928C23.614,10.633,23.161,10.645,23.146,10.57z"/>
			<path opacity="0.1091" fill="#754C24" d="M21.659,12.028c0.125,0.644,0.25,1.287,0.376,1.931
				c-0.03-0.156,0.097-0.343,0.066-0.498c-0.125-0.645-0.25-1.289-0.375-1.932C21.755,11.685,21.628,11.872,21.659,12.028z"/>
			<path opacity="0.1091" fill="#754C24" d="M22.441,13.21c0.126,0.646,0.252,1.292,0.378,1.937c0.015,0.069,0.477,0.051,0.489,0.12
				c-0.126-0.645-0.252-1.292-0.378-1.937C22.917,13.26,22.454,13.279,22.441,13.21z"/>
			<path opacity="0.1091" fill="#754C24" d="M24.039,12.057c0.127,0.649,0.256,1.297,0.385,1.944
				c-0.032-0.163-0.034-0.335-0.066-0.498c-0.127-0.64-0.253-1.279-0.381-1.918C23.995,11.671,24.012,11.92,24.039,12.057z"/>
			<path opacity="0.1091" fill="#754C24" d="M21.939,11.452c0.125,0.644,0.251,1.286,0.376,1.929
				c-0.021-0.108,0.328-0.289,0.307-0.398c-0.126-0.644-0.251-1.287-0.377-1.931C22.266,11.16,21.917,11.341,21.939,11.452z"/>
			<path opacity="0.1091" fill="#754C24" d="M22.688,11.189c0.126,0.644,0.253,1.286,0.379,1.93c0.004,0.019,0.498-0.06,0.501-0.044
				c-0.126-0.644-0.253-1.286-0.379-1.929C23.186,11.124,22.691,11.203,22.688,11.189z"/>
			<path opacity="0.1091" fill="#754C24" d="M23.76,12.731c0.127,0.644,0.255,1.289,0.382,1.934
				c-0.023-0.118,0.293-0.305,0.27-0.425c-0.127-0.645-0.254-1.289-0.382-1.934C24.053,12.424,23.734,12.609,23.76,12.731z"/>
			<path opacity="0.1091" fill="#754C24" d="M21.704,12.144c0.126,0.644,0.25,1.289,0.377,1.932
				c0.031,0.164,0.134,0.313,0.166,0.475c-0.126-0.644-0.251-1.289-0.377-1.933C21.838,12.456,21.736,12.306,21.704,12.144z"/>
		</g>
	</g>
</g>
<g>
	<g>
		<g>
			<path opacity="0.1091" fill="#754C24" d="M25.502,14.666c-0.022,0.219-0.046,0.436-0.069,0.655
				c0.007-0.069,0.467-0.093,0.475-0.169c0.022-0.219,0.046-0.436,0.069-0.655C25.97,14.565,25.511,14.59,25.502,14.666z"/>
			<path opacity="0.1091" fill="#754C24" d="M24.553,13.582c-0.022,0.219-0.046,0.438-0.069,0.656
				c-0.014,0.134,0.279,0.299,0.266,0.428c0.022-0.219,0.046-0.438,0.069-0.656C24.832,13.875,24.539,13.712,24.553,13.582z"/>
			<path opacity="0.1091" fill="#754C24" d="M24.577,12.3c-0.021,0.219-0.045,0.438-0.068,0.656
				c0.008-0.078,0.453-0.113,0.463-0.196c0.022-0.219,0.046-0.438,0.069-0.656C25.033,12.182,24.587,12.216,24.577,12.3z"/>
			<path opacity="0.1091" fill="#754C24" d="M25.696,13.189c-0.114,0.267-0.226,0.536-0.338,0.803
				c-0.014,0.035,0.514,0.078,0.502,0.025C25.806,13.74,25.75,13.464,25.696,13.189z"/>
			<path opacity="0.1091" fill="#754C24" d="M25.458,12.018c-0.022,0.219-0.046,0.438-0.069,0.656
				c-0.003,0.032,0.485,0.113,0.483,0.14c0.023-0.219,0.047-0.438,0.07-0.657C25.945,12.124,25.455,12.043,25.458,12.018z"/>
			<path opacity="0.1091" fill="#754C24" d="M23.97,13.462c-0.023,0.219-0.046,0.438-0.067,0.656
				c0.008-0.087,0.05-0.332,0.063-0.472c0.023-0.219,0.047-0.438,0.069-0.656C24.026,13.079,23.983,13.323,23.97,13.462z"/>
			<path opacity="0.1091" fill="#754C24" d="M24.753,14.661c-0.023,0.217-0.047,0.436-0.068,0.654
				c-0.003,0.025,0.489,0.1,0.488,0.121c0.022-0.219,0.046-0.438,0.067-0.656C25.243,14.753,24.751,14.678,24.753,14.661z"/>
			<path opacity="0.1091" fill="#754C24" d="M26.29,13.019c-0.023,0.22-0.048,0.438-0.071,0.657
				c-0.017,0.162,0.085,0.338,0.066,0.499c0.023-0.219,0.048-0.438,0.071-0.656C26.374,13.355,26.271,13.181,26.29,13.019z"/>
			<path opacity="0.1091" fill="#754C24" d="M24.249,12.9c-0.021,0.219-0.045,0.438-0.067,0.657c0.014-0.141,0.291-0.256,0.306-0.4
				c0.022-0.219,0.046-0.438,0.068-0.656C24.542,12.64,24.265,12.756,24.249,12.9z"/>
			<path opacity="0.1091" fill="#754C24" d="M25,12.634c-0.023,0.219-0.048,0.438-0.069,0.657c0.003-0.029,0.497-0.01,0.501-0.044
				c0.022-0.218,0.046-0.438,0.069-0.657C25.498,12.618,25.004,12.598,25,12.634z"/>
			<path opacity="0.1091" fill="#754C24" d="M26.071,14.179c-0.023,0.219-0.047,0.438-0.069,0.656
				c0.015-0.147,0.253-0.273,0.27-0.425c0.022-0.217,0.046-0.436,0.069-0.654C26.325,13.902,26.088,14.028,26.071,14.179z"/>
			<path opacity="0.1091" fill="#754C24" d="M24.015,13.592c-0.022,0.219-0.046,0.438-0.068,0.656
				c-0.017,0.152,0.182,0.325,0.165,0.475c0.023-0.219,0.047-0.438,0.069-0.656C24.197,13.915,23.999,13.741,24.015,13.592z"/>
		</g>
	</g>
</g>
<g>
	<g>
		<g>
			<path opacity="0.1091" fill="#754C24" d="M20.825,25.714c-0.121-1.072,0.17-1.698,0.625-2.671
				c-0.014,0.03-0.473-0.149-0.488-0.119c-0.456,0.973-0.746,1.597-0.626,2.67C20.344,25.654,20.82,25.66,20.825,25.714z"/>
			<path opacity="0.1091" fill="#754C24" d="M20.626,23.038c-0.156-1.381,0.466-2.389,1.123-3.569
				c-0.064,0.115-0.397,0.082-0.462,0.198c-0.657,1.181-1.279,2.188-1.124,3.569C20.157,23.19,20.631,23.09,20.626,23.038z"/>
			<path opacity="0.1091" fill="#754C24" d="M21.525,23.093c-0.153-1.382,0.468-2.389,1.125-3.57
				c-0.018,0.033-0.465-0.173-0.482-0.14c-0.658,1.181-1.28,2.188-1.125,3.569C21.049,23.019,21.519,23.031,21.525,23.093z"/>
			<path opacity="0.1091" fill="#754C24" d="M19.621,23.912c-0.029-0.259-0.058-0.518-0.088-0.776
				c-0.022,0.166-0.044,0.332-0.067,0.498c0.285-1.023,0.694-1.863,1.21-2.792c0.075-0.137-0.007-0.361,0.069-0.498
				c-0.794,1.423-1.368,2.511-1.19,4.066C19.535,24.249,19.639,24.073,19.621,23.912z"/>
			<path opacity="0.1091" fill="#754C24" d="M19.765,25.001c-0.157-1.379,0.466-2.386,1.123-3.567
				c0.054-0.097-0.22-0.378-0.165-0.475c-0.657,1.18-1.279,2.187-1.124,3.567C19.618,24.689,19.747,24.841,19.765,25.001z"/>
			<path opacity="0.1091" fill="#754C24" d="M21.562,25.432c-0.181-1.619,0.752-2.904,1.52-4.267
				c-0.06,0.106-0.421,0.044-0.479,0.152c-0.75,1.379-1.697,2.657-1.516,4.282C21.083,25.565,21.566,25.473,21.562,25.432z"/>
			<path opacity="0.1091" fill="#754C24" d="M20.402,24.944c-0.182-1.622,0.758-2.905,1.518-4.277
				c0.04-0.073-0.304-0.357-0.266-0.428c-0.758,1.372-1.7,2.655-1.517,4.277C20.155,24.669,20.385,24.796,20.402,24.944z"/>
			<path opacity="0.1091" fill="#754C24" d="M21.281,24.124c-0.029-0.258-0.058-0.517-0.087-0.775
				c-0.017,0.166-0.033,0.333-0.051,0.499c0.357-1.275,0.966-2.347,1.606-3.5c0.074-0.136-0.022-0.367,0.051-0.501
				c-0.894,1.617-1.773,2.952-1.569,4.778C21.211,24.463,21.3,24.287,21.281,24.124z"/>
			<path opacity="0.1091" fill="#754C24" d="M21.933,24.4c-0.179-1.609,0.794-2.908,1.525-4.226
				c0.064-0.118-0.132-0.381-0.068-0.499c-0.784,1.419-1.698,2.677-1.514,4.331C21.883,24.071,21.948,24.527,21.933,24.4z"/>
			<path opacity="0.1091" fill="#754C24" d="M20.14,23.436c-0.183-1.624,0.757-2.905,1.516-4.28c-0.081,0.146-0.226,0.255-0.306,0.4
				c-0.76,1.372-1.698,2.656-1.516,4.278C19.822,23.718,20.154,23.558,20.14,23.436z"/>
			<path opacity="0.1091" fill="#754C24" d="M21.085,23.524c-0.183-1.623,0.757-2.904,1.517-4.277
				c-0.046,0.082-0.455-0.039-0.501,0.044c-0.76,1.373-1.7,2.655-1.517,4.279C20.584,23.577,21.085,23.524,21.085,23.524z"/>
			<path opacity="0.1091" fill="#754C24" d="M21.926,24.689c-0.182-1.623,0.76-2.905,1.52-4.275
				c-0.082,0.146-0.189,0.277-0.271,0.424c-0.76,1.371-1.699,2.653-1.518,4.275C21.642,24.987,21.941,24.822,21.926,24.689z"/>
		</g>
	</g>
</g>
<g>
	<g>
		<g>
			<path opacity="0.1091" fill="#754C24" d="M18.319,19.117c-1.174-0.338-1.303-0.563-1.427-1.766
				c-0.101-0.973,0.584-2.131,0.995-2.958c-0.053,0.107-0.419,0.06-0.473,0.169c-0.497,0.997-0.804,1.86-0.995,2.957
				c-0.204,1.156,0.52,1.507,1.425,1.768C17.977,19.323,18.188,19.08,18.319,19.117z"/>
			<path opacity="0.1091" fill="#754C24" d="M17.383,16.727c-1.173-0.339-1.302-0.566-1.428-1.771
				c-0.101-0.974,0.583-2.134,0.995-2.96c-0.057,0.112-0.405,0.082-0.464,0.196c-0.495,0.998-0.803,1.863-0.994,2.961
				c-0.202,1.157,0.522,1.508,1.429,1.77C17.046,16.961,17.26,16.691,17.383,16.727z"/>
			<path opacity="0.1091" fill="#754C24" d="M18.154,16.744c-2.343-0.678-0.994-3.305-0.302-4.695
				c-0.012,0.025-0.469-0.167-0.484-0.139c-0.644,1.294-1.053,2.386-0.904,3.844c0.076,0.732,0.993,0.789,1.466,0.924
				C18.003,16.701,18.474,16.835,18.154,16.744z"/>
			<path opacity="0.1091" fill="#754C24" d="M16.381,17.599c-1.175-0.339-1.304-0.565-1.431-1.769
				c-0.021,0.162-0.043,0.324-0.063,0.486c0.131-1.058,0.461-2.039,0.989-2.947c0.072-0.143-0.002-0.357,0.068-0.499
				c-0.538,1.083-0.869,2.021-1.028,3.208c-0.158,1.185,0.28,1.696,1.398,2.018C16.29,18.092,16.404,17.606,16.381,17.599z"/>
			<path opacity="0.1091" fill="#754C24" d="M17.583,19.401c-1.173-0.337-1.302-0.563-1.428-1.768
				c-0.101-0.972,0.583-2.13,0.995-2.956c-0.015,0.03-0.472-0.155-0.489-0.121c-0.497,0.997-0.803,1.86-0.995,2.958
				c-0.201,1.156,0.523,1.506,1.429,1.766C17.257,19.326,17.423,19.354,17.583,19.401z"/>
			<path opacity="0.1091" fill="#754C24" d="M16.359,18.213c-0.662,0.01-1.107-0.285-1.337-0.886
				c0.056,0.159,0.111,0.317,0.167,0.475c-0.154-1.455,0.256-2.547,0.899-3.839c0.053-0.106-0.217-0.373-0.166-0.475
				c-0.584,1.173-1.325,2.62-0.857,3.967c0.267,0.767,0.608,0.988,1.46,1.233C16.432,18.662,16.452,18.241,16.359,18.213z"/>
			<path opacity="0.1091" fill="#754C24" d="M16.898,18.202c-0.657,0.011-1.1-0.281-1.33-0.875c0.086,0.14,0.172,0.278,0.257,0.418
				c-0.178-1.715,0.416-3.125,1.369-4.529c0.039-0.058-0.302-0.372-0.265-0.428c-0.682,1.003-2.115,3.304-1.342,4.575
				c0.433,0.711,0.674,1.007,1.575,1.266C17.045,18.597,17.019,18.238,16.898,18.202z"/>
			<path opacity="0.1091" fill="#754C24" d="M18.041,17.812c-1.175-0.339-1.303-0.564-1.427-1.769
				c-0.018,0.167-0.035,0.334-0.052,0.5c0.241-1.377,0.675-2.487,1.461-3.646c0.083-0.123-0.03-0.378,0.053-0.5
				c-0.792,1.166-1.329,2.363-1.477,3.78c-0.125,1.178,0.183,1.787,1.39,2.134C17.961,18.305,18.069,17.82,18.041,17.812z"/>
			<path opacity="0.1091" fill="#754C24" d="M18.628,17.642c-0.661,0.01-1.107-0.286-1.335-0.886
				c0.022,0.162,0.044,0.324,0.066,0.486c-0.18-1.753,0.428-3.124,1.372-4.516c0.071-0.105-0.136-0.396-0.066-0.499
				c-0.958,1.412-1.581,2.867-1.366,4.582c0.107,0.844,0.507,1.075,1.397,1.332C18.633,18.122,18.695,17.661,18.628,17.642z"/>
			<path opacity="0.1091" fill="#754C24" d="M16.898,17.123c-1.174-0.339-1.302-0.564-1.428-1.769
				c-0.122-1.164,0.887-2.804,1.461-3.647c-0.094,0.139-0.213,0.26-0.307,0.399c-0.576,0.847-0.94,1.652-1.283,2.631
				c-0.205,0.627-0.234,1.261-0.086,1.899c0.23,0.601,0.676,0.896,1.337,0.887C16.653,17.54,16.842,17.106,16.898,17.123z"/>
			<path opacity="0.1091" fill="#754C24" d="M17.842,17.215c-1.173-0.339-1.302-0.566-1.427-1.77
				c-0.127-1.23,0.81-2.688,1.461-3.647c-0.06,0.085-0.44-0.044-0.501,0.044c-0.58,0.852-0.942,1.658-1.284,2.631
				c-0.205,0.627-0.233,1.259-0.086,1.899c0.229,0.601,0.674,0.897,1.335,0.887C17.494,17.304,17.694,17.172,17.842,17.215z"/>
			<path opacity="0.1091" fill="#754C24" d="M18.683,18.377c-1.174-0.339-1.301-0.565-1.426-1.769
				c-0.101-0.973,0.584-2.13,0.995-2.958c-0.087,0.139-0.174,0.277-0.261,0.414c0.152-0.226,0.306-0.451,0.458-0.677
				c0.094-0.139,0.176-0.285,0.27-0.425c-0.242,0.359-0.508,0.724-0.729,1.102c-0.454,0.771-0.527,1.108-0.825,1.954
				c-0.205,0.626-0.234,1.258-0.085,1.898c0.228,0.599,0.672,0.894,1.334,0.884C18.461,18.814,18.64,18.364,18.683,18.377z"/>
		</g>
	</g>
</g>
<g>
	<g>
		<g>
			<path opacity="0.1091" fill="#754C24" d="M18.665,12.981c-0.461-0.199,0.759-0.527,0.826-0.555
				c-0.155,0.063-0.317,0.108-0.473,0.17c-0.121,0.047-1.25,0.309-0.831,0.544C18.288,13.197,18.555,12.935,18.665,12.981z"/>
			<path opacity="0.1091" fill="#754C24" d="M17.245,10.984c-0.046-0.023-0.093-0.046-0.139-0.069
				c-0.101,0.134-0.203,0.267-0.306,0.4c0.295-0.217,0.616-0.378,0.965-0.484c0.134-0.054,0.173-0.346,0.306-0.4
				c-0.349,0.106-0.671,0.269-0.965,0.484c-0.05,0.032-0.278,0.414-0.306,0.4c0.047,0.022,0.093,0.046,0.138,0.068
				C16.968,11.398,17.215,10.97,17.245,10.984z"/>
			<path opacity="0.1091" fill="#754C24" d="M17.243,12.064c-0.047-0.023-0.093-0.046-0.138-0.069
				c0.088,0.143,0.177,0.285,0.266,0.428c1.455-0.894,3.5-1.365,4.928-1.862c-0.033,0.011-0.228-0.44-0.264-0.428
				c-1.429,0.497-3.474,0.966-4.93,1.862c0.014-0.008,0.218,0.406,0.266,0.428c0.045,0.023,0.091,0.045,0.137,0.069
				C17.38,12.428,17.372,12.127,17.243,12.064z"/>
			<path opacity="0.1091" fill="#754C24" d="M18.384,11.672c-0.046-0.024-0.093-0.046-0.139-0.068
				c-0.017,0.166-0.035,0.333-0.051,0.5c1.456-0.896,3.503-1.366,4.933-1.863c0.067-0.024-0.014-0.478,0.053-0.501
				c-1.431,0.499-3.477,0.969-4.935,1.865c-0.025,0.015-0.061,0.495-0.051,0.5c0.046,0.022,0.092,0.046,0.137,0.068
				C18.28,12.147,18.438,11.698,18.384,11.672z"/>
			<path opacity="0.1091" fill="#754C24" d="M18.972,11.502c-0.045-0.022-0.091-0.046-0.137-0.068
				c0.022,0.166,0.044,0.332,0.066,0.498c1.458-0.896,3.503-1.364,4.935-1.863c0.033-0.011-0.097-0.489-0.066-0.498
				c-1.432,0.497-3.477,0.967-4.935,1.863c-0.013,0.008,0.043,0.487,0.066,0.498c0.045,0.024,0.091,0.046,0.138,0.069
				C18.957,11.96,19.058,11.545,18.972,11.502z"/>
			<path opacity="0.1091" fill="#754C24" d="M18.187,11.076c-0.295-0.098-0.188-0.215,0.32-0.349
				c1.467-0.594,2.959-1.123,4.475-1.585c-0.153,0.053-0.348-0.008-0.501,0.044c-1.516,0.462-3.007,0.989-4.475,1.584
				c-0.508,0.136-0.615,0.252-0.32,0.349C17.816,11.184,18.061,11.013,18.187,11.076z"/>
			<path opacity="0.1091" fill="#754C24" d="M19.027,12.237c-0.046-0.023-0.093-0.045-0.139-0.069
				c-0.09,0.142-0.18,0.284-0.27,0.425c1.456-0.895,3.51-1.366,4.935-1.862c0.124-0.043,0.146-0.382,0.27-0.425
				c-1.43,0.498-3.476,0.969-4.935,1.861c-0.047,0.029-0.249,0.435-0.27,0.425c0.045,0.022,0.093,0.045,0.138,0.068
				C18.774,12.67,19.012,12.23,19.027,12.237z"/>
		</g>
	</g>
</g>
<g>
	<g>
		<g>
			<path opacity="0.1091" fill="#754C24" d="M25.966,11.04c0.09,0,0.182-0.423,0.271-0.423C26.146,10.616,26.056,11.04,25.966,11.04
				z"/>
			<path opacity="0.1091" fill="#754C24" d="M24.453,10.442c-0.196-0.011-0.392-0.022-0.587-0.035
				c0.096,0.005,0.167,0.422,0.265,0.428c0.196,0.012,0.392,0.023,0.587,0.034C24.622,10.864,24.55,10.447,24.453,10.442z"/>
			<path opacity="0.1091" fill="#754C24" d="M25.594,10.051c-0.197-0.012-0.392-0.023-0.589-0.035c-0.008,0-0.045,0.501-0.051,0.5
				c0.195,0.012,0.391,0.023,0.587,0.035C25.549,10.552,25.587,10.05,25.594,10.051z"/>
			<path opacity="0.1091" fill="#754C24" d="M26.182,9.881c-0.196-0.011-0.392-0.022-0.588-0.033
				c0.031,0.001,0.034,0.495,0.066,0.498c0.196,0.011,0.392,0.022,0.588,0.033C26.218,10.378,26.214,9.884,26.182,9.881z"/>
			<path opacity="0.1091" fill="#754C24" d="M25.396,9.455c-0.194-0.011-0.39-0.022-0.586-0.033
				c-0.167-0.009-0.335,0.054-0.502,0.044c0.197,0.011,0.393,0.022,0.587,0.035C25.062,9.509,25.232,9.445,25.396,9.455z"/>
		</g>
	</g>
</g>
<g>
	<g>
		<g>
			<path opacity="0.1091" fill="#754C24" d="M19.5,10.699c1.398-0.361,2.432-0.487,3.865-0.273c0.146,0.022,0.328-0.191,0.474-0.168
				c-1.433-0.215-2.465-0.089-3.865,0.272C19.812,10.572,19.661,10.658,19.5,10.699z"/>
			<path opacity="0.1091" fill="#754C24" d="M18.818,10.043c1.398-0.362,2.428-0.488,3.86-0.274
				c-0.105-0.017-0.156-0.413-0.265-0.429c-1.433-0.213-2.463-0.087-3.86,0.275C18.598,9.603,18.767,10.056,18.818,10.043z"/>
			<path opacity="0.1091" fill="#754C24" d="M18.576,8.335c1.398-0.364,2.429-0.493,3.861-0.279
				c0.143,0.021,0.322-0.217,0.464-0.197c-1.434-0.213-2.464-0.084-3.862,0.28C18.879,8.18,18.737,8.293,18.576,8.335z"/>
			<path opacity="0.1091" fill="#754C24" d="M19.645,9.725c1.398-0.362,2.429-0.49,3.863-0.277c-0.006-0.001,0.061-0.5,0.051-0.5
				c-1.433-0.214-2.465-0.087-3.863,0.275C19.638,9.239,19.699,9.709,19.645,9.725z"/>
			<path opacity="0.1091" fill="#754C24" d="M19.939,8.192c1.398-0.364,2.431-0.493,3.864-0.281
				c-0.165-0.025-0.319-0.114-0.483-0.139c-1.434-0.213-2.466-0.084-3.864,0.28C19.595,8.017,19.798,8.229,19.939,8.192z"/>
			<path opacity="0.1091" fill="#754C24" d="M17.968,9.51c1.397-0.364,2.428-0.491,3.859-0.277c-0.001-0.001,0.071-0.499,0.066-0.5
				c-1.431-0.213-2.461-0.086-3.859,0.277C17.973,9.027,18.028,9.494,17.968,9.51z"/>
			<path opacity="0.1091" fill="#754C24" d="M19.239,10.814c1.398-0.363,2.43-0.487,3.863-0.274
				c-0.165-0.025-0.324-0.094-0.489-0.119c-1.432-0.214-2.463-0.088-3.863,0.271C18.893,10.656,19.097,10.85,19.239,10.814z"/>
			<path opacity="0.1091" fill="#754C24" d="M20.351,9.553c1.399-0.363,2.434-0.49,3.867-0.277c-0.043-0.007-0.019-0.492-0.066-0.5
				c-1.434-0.213-2.468-0.085-3.867,0.278C20.261,9.061,20.367,9.549,20.351,9.553z"/>
			<path opacity="0.1091" fill="#754C24" d="M18.248,8.935c1.398-0.364,2.428-0.492,3.86-0.278c0.082,0.011,0.227-0.411,0.306-0.4
				c-1.431-0.213-2.462-0.084-3.86,0.279C18.425,8.569,18.375,8.901,18.248,8.935z"/>
			<path opacity="0.1091" fill="#754C24" d="M19.499,8.627c0.86-0.155,1.719-0.31,2.58-0.466c-0.163,0.015-0.325,0.029-0.488,0.043
				c0.424,0.063,0.847,0.126,1.271,0.188c0.16,0.024,0.341-0.067,0.501-0.044c-1.59-0.235-2.753-0.096-4.364,0.324
				C19.157,8.63,19.339,8.668,19.499,8.627z"/>
			<path opacity="0.1091" fill="#754C24" d="M20.068,10.213c1.399-0.361,2.433-0.489,3.867-0.274
				c0.069,0.009,0.205-0.435,0.27-0.425c-1.434-0.214-2.466-0.087-3.866,0.274C20.218,9.82,20.186,10.183,20.068,10.213z"/>
			<path opacity="0.1091" fill="#754C24" d="M18.18,10.101c1.396-0.362,2.428-0.488,3.859-0.275
				c-0.076-0.011-0.088-0.463-0.166-0.475c-1.431-0.215-2.462-0.087-3.859,0.275C18.025,9.622,18.165,10.105,18.18,10.101z"/>
		</g>
	</g>
</g>
<g>
	<g>
		<g>
			<path opacity="0.1091" fill="#754C24" d="M24.984,11.698c0.011,0.184,0.023,0.368,0.035,0.552
				c-0.003-0.045,0.476-0.122,0.473-0.17c-0.011-0.184-0.021-0.367-0.033-0.551C25.462,11.574,24.981,11.65,24.984,11.698z"/>
			<path opacity="0.1091" fill="#754C24" d="M24.038,10.615c0.011,0.184,0.023,0.368,0.034,0.552
				c0.01,0.148,0.256,0.281,0.266,0.428c-0.013-0.184-0.023-0.368-0.036-0.552C24.294,10.894,24.048,10.761,24.038,10.615z"/>
			<path opacity="0.1091" fill="#754C24" d="M24.062,9.336c0.011,0.184,0.021,0.368,0.034,0.552
				c-0.004-0.056,0.465-0.14,0.463-0.198c-0.012-0.184-0.024-0.367-0.035-0.551C24.526,9.193,24.057,9.278,24.062,9.336z"/>
			<path opacity="0.1091" fill="#754C24" d="M25.128,10.724c0.012,0.184,0.022,0.368,0.034,0.552
				c-0.01-0.165,0.063-0.335,0.052-0.501c-0.011-0.184-0.021-0.367-0.033-0.551C25.19,10.389,25.119,10.56,25.128,10.724z"/>
			<path opacity="0.1091" fill="#754C24" d="M24.94,9.053c0.011,0.184,0.021,0.368,0.034,0.552c0.003,0.057,0.479,0.084,0.483,0.14
				c-0.012-0.184-0.022-0.37-0.035-0.554C25.421,9.134,24.943,9.107,24.94,9.053z"/>
			<path opacity="0.1091" fill="#754C24" d="M23.452,10.509c0.013,0.184,0.023,0.368,0.036,0.552
				c-0.011-0.165,0.076-0.334,0.066-0.498c-0.011-0.184-0.023-0.368-0.034-0.552C23.529,10.174,23.442,10.345,23.452,10.509z"/>
			<path opacity="0.1091" fill="#754C24" d="M24.235,11.693c0.012,0.184,0.022,0.368,0.035,0.551
				c0.003,0.051,0.484,0.071,0.488,0.121c-0.013-0.184-0.023-0.368-0.034-0.551C24.72,11.762,24.238,11.741,24.235,11.693z"/>
			<path opacity="0.1091" fill="#754C24" d="M25.77,10.068c0.01,0.179,0.021,0.358,0.031,0.539c0.012,0.166,0.057,0.332,0.068,0.498
				c-0.013-0.188-0.023-0.376-0.035-0.564C25.826,10.4,25.773,10.155,25.77,10.068z"/>
			<path opacity="0.1091" fill="#754C24" d="M23.733,9.934c0.011,0.184,0.022,0.368,0.034,0.552
				c-0.008-0.125,0.314-0.271,0.306-0.398c-0.011-0.184-0.023-0.368-0.034-0.552C24.046,9.66,23.725,9.806,23.733,9.934z"/>
			<path opacity="0.1091" fill="#754C24" d="M24.482,9.672c0.011,0.184,0.023,0.368,0.034,0.552c0-0.001,0.501-0.036,0.501-0.044
				c-0.011-0.184-0.023-0.368-0.034-0.554C24.983,9.628,24.482,9.664,24.482,9.672z"/>
			<path opacity="0.1091" fill="#754C24" d="M25.554,11.212c0.011,0.184,0.021,0.368,0.033,0.552
				c-0.009-0.134,0.278-0.288,0.27-0.425c-0.011-0.184-0.022-0.367-0.033-0.551C25.831,10.922,25.545,11.076,25.554,11.212z"/>
			<path opacity="0.1091" fill="#754C24" d="M23.498,10.626c0.013,0.184,0.023,0.368,0.034,0.552
				c0.012,0.16,0.156,0.313,0.166,0.475c-0.011-0.184-0.023-0.368-0.034-0.552C23.653,10.94,23.509,10.786,23.498,10.626z"/>
		</g>
	</g>
</g>
<g>
	<g>
		<g>
			<path opacity="0.1091" fill="#754C24" d="M27.011,25.113c0.395,0-1.068-1.956-1.593-1.956
				C25.021,23.157,26.484,25.113,27.011,25.113z"/>
			<path opacity="0.1091" fill="#754C24" d="M25.674,24.022c0.472,0-0.54-1.271-0.914-1.271
				C24.287,22.752,25.3,24.022,25.674,24.022z"/>
			<path opacity="0.1091" fill="#754C24" d="M26.124,22.854c0.233,0,0.412-0.481,0.077-0.481
				C25.966,22.373,25.787,22.854,26.124,22.854z"/>
			<path opacity="0.1091" fill="#754C24" d="M26.706,23.714c0.408,0-0.991-1.808-1.489-1.808
				C24.811,21.906,26.209,23.714,26.706,23.714z"/>
			<path opacity="0.1091" fill="#754C24" d="M26.806,22.536c0.477,0,0.199-0.678-0.133-0.678
				C26.198,21.858,26.476,22.536,26.806,22.536z"/>
			<path opacity="0.1091" fill="#754C24" d="M25.25,23.823c0.291,0,0.392-0.521,0.05-0.521C25.01,23.303,24.908,23.823,25.25,23.823
				z"/>
			<path opacity="0.1091" fill="#754C24" d="M26.143,25.128c0.464,0-0.688-1.48-1.099-1.48
				C24.58,23.647,25.733,25.128,26.143,25.128z"/>
			<path opacity="0.1091" fill="#754C24" d="M27.452,23.635c0.411,0-0.959-1.735-1.445-1.735
				C25.597,21.899,26.967,23.635,27.452,23.635z"/>
			<path opacity="0.1091" fill="#754C24" d="M25.577,23.219c0.366,0,0.326-0.58-0.017-0.58
				C25.195,22.639,25.235,23.219,25.577,23.219z"/>
			<path opacity="0.1091" fill="#754C24" d="M26.28,22.875c0.465,0-0.354-1.005-0.688-1.005
				C25.126,21.87,25.943,22.875,26.28,22.875z"/>
			<path opacity="0.1091" fill="#754C24" d="M27.458,24.463c0.371,0-1.161-2.033-1.717-2.033
				C25.371,22.43,26.903,24.463,27.458,24.463z"/>
			<path opacity="0.1091" fill="#754C24" d="M25.214,24.302c0.51,0,0.186-0.718-0.138-0.718
				C24.566,23.584,24.891,24.302,25.214,24.302z"/>
		</g>
	</g>
</g>
<g>
	<g>
		<g>
			<path opacity="0.1091" fill="#754C24" d="M25.459,21.042c0.395,0-1.068-1.956-1.595-1.956
				C23.471,19.087,24.934,21.042,25.459,21.042z"/>
			<path opacity="0.1091" fill="#754C24" d="M24.122,19.953c0.472,0-0.541-1.272-0.913-1.272
				C22.735,18.681,23.748,19.953,24.122,19.953z"/>
			<path opacity="0.1091" fill="#754C24" d="M24.572,18.784c0.233,0,0.412-0.481,0.077-0.481
				C24.414,18.302,24.235,18.784,24.572,18.784z"/>
			<path opacity="0.1091" fill="#754C24" d="M25.154,19.645c0.409,0-0.99-1.809-1.489-1.809
				C23.259,17.835,24.658,19.645,25.154,19.645z"/>
			<path opacity="0.1091" fill="#754C24" d="M25.254,18.465c0.476,0,0.2-0.678-0.133-0.678
				C24.646,17.787,24.922,18.465,25.254,18.465z"/>
			<path opacity="0.1091" fill="#754C24" d="M23.698,19.752c0.291,0,0.393-0.519,0.049-0.519
				C23.458,19.233,23.356,19.752,23.698,19.752z"/>
			<path opacity="0.1091" fill="#754C24" d="M24.592,21.058c0.463,0-0.689-1.481-1.101-1.481
				C23.028,19.577,24.182,21.058,24.592,21.058z"/>
			<path opacity="0.1091" fill="#754C24" d="M25.9,19.564c0.411,0-0.959-1.734-1.446-1.734C24.045,17.83,25.415,19.564,25.9,19.564z
				"/>
			<path opacity="0.1091" fill="#754C24" d="M24.025,19.147c0.366,0,0.326-0.58-0.017-0.58
				C23.644,18.568,23.684,19.147,24.025,19.147z"/>
			<path opacity="0.1091" fill="#754C24" d="M24.729,18.804c0.465,0-0.354-1.003-0.688-1.003
				C23.574,17.801,24.392,18.804,24.729,18.804z"/>
			<path opacity="0.1091" fill="#754C24" d="M25.906,20.392c0.371,0-1.161-2.032-1.716-2.032
				C23.819,18.36,25.352,20.392,25.906,20.392z"/>
			<path opacity="0.1091" fill="#754C24" d="M23.663,20.231c0.509,0,0.185-0.717-0.139-0.717
				C23.015,19.515,23.339,20.231,23.663,20.231z"/>
		</g>
	</g>
</g>
<g>
	<g>
		<g>
			<path opacity="0.1091" fill="#754C24" d="M20.009,23.672c-0.883-0.672-0.86-2.141-0.998-3.169
				c-0.158,0.057-0.317,0.112-0.475,0.168c0.322,1.275,0.714,2.528,1.172,3.759c0.158-0.057,0.315-0.113,0.473-0.169
				c-0.307-0.423-0.594-0.86-0.861-1.311c-0.003-0.003-0.471,0.142-0.475,0.169c-0.143,0.752-0.201,1.51-0.173,2.275
				c0.001-0.06,0.474-0.109,0.475-0.17c-0.027-0.765,0.029-1.522,0.173-2.274c-0.159,0.057-0.317,0.112-0.475,0.169
				c0.267,0.45,0.555,0.887,0.862,1.311c0.015,0.022,0.47-0.18,0.473-0.169c-0.458-1.231-0.849-2.484-1.171-3.759
				c0.004,0.017-0.478,0.141-0.475,0.168c0.14,1.029,0.115,2.498,0.999,3.169C19.61,23.897,19.939,23.618,20.009,23.672z"/>
			<path opacity="0.1091" fill="#754C24" d="M18.85,23.187c-0.727-0.303-0.797-2.792-0.877-3.413
				c-0.155,0.066-0.309,0.133-0.462,0.199c0.292,1.169,0.649,2.318,1.074,3.446c0.155-0.051,0.312-0.103,0.466-0.153
				c-0.385-0.321-0.659-0.724-0.824-1.209c-0.04-0.071-0.203,0.333-0.214,0.384c-0.21,0.745-0.333,1.503-0.37,2.275
				c0.003-0.034,0.479-0.072,0.479-0.153c-0.053-0.839-0.018-1.675,0.105-2.506c-0.069,0.148-0.138,0.297-0.208,0.444
				c0.188,0.307,0.376,0.612,0.565,0.918c0.053,0.1,0.516-0.041,0.486-0.129c-0.436-1.15-0.802-2.322-1.098-3.517
				c-0.003-0.011-0.472,0.133-0.462,0.199C17.669,21.16,17.621,22.676,18.85,23.187z"/>
			<path opacity="0.1091" fill="#754C24" d="M19.073,21.279c-0.884-0.675-0.861-2.147-1.002-3.178
				c-0.154,0.065-0.309,0.132-0.462,0.197c0.323,1.275,0.714,2.529,1.172,3.761c0.155-0.065,0.309-0.13,0.464-0.197
				c-0.309-0.423-0.595-0.861-0.864-1.311c0.003,0.002-0.458,0.163-0.462,0.196c-0.144,0.753-0.201,1.513-0.171,2.279
				c0.001-0.068,0.461-0.129,0.462-0.197c-0.029-0.767,0.029-1.525,0.171-2.278c-0.154,0.065-0.309,0.131-0.462,0.196
				c0.267,0.45,0.555,0.887,0.862,1.311c0.01,0.015,0.462-0.198,0.464-0.197c-0.459-1.232-0.85-2.486-1.174-3.761
				c0.008,0.026-0.468,0.161-0.462,0.197c0.14,1.031,0.116,2.502,1.002,3.178C18.679,21.528,19.009,21.231,19.073,21.279z"/>
			<path opacity="0.1091" fill="#754C24" d="M19.728,22.366c-0.572-0.076-0.65-2.308-0.702-2.731
				c-0.161,0.047-0.321,0.094-0.483,0.141c0.281,1.12,0.623,2.22,1.028,3.301c0.158-0.056,0.317-0.11,0.475-0.166
				c-0.315-0.457-0.67-0.882-1.062-1.275c-0.013-0.014-0.051-0.055-0.054-0.012c-0.052,0.938-0.126,1.875-0.221,2.81
				c0.004-0.042,0.444-0.126,0.436-0.252c-0.048-0.645-0.451-2.584,0.426-1.104c0.06,0.1,0.511-0.063,0.475-0.166
				c-0.414-1.068-0.753-2.161-1.02-3.276c-0.036-0.13-0.5,0.001-0.483,0.141c0.145,1.202,0.145,2.299,1.133,3.089
				C19.643,22.839,19.759,22.37,19.728,22.366z"/>
			<path opacity="0.1091" fill="#754C24" d="M19.974,21.333c-0.885-0.677-0.86-2.148-1-3.179c-0.161-0.045-0.321-0.093-0.483-0.138
				c0.322,1.274,0.714,2.527,1.172,3.76c0.161,0.046,0.322,0.093,0.483,0.14c-0.307-0.425-0.595-0.861-0.862-1.312
				c-0.032-0.051-0.487-0.107-0.483-0.139c-0.143,0.753-0.201,1.512-0.173,2.278c-0.001,0.043,0.485,0.096,0.483,0.139
				c-0.028-0.766,0.03-1.525,0.173-2.278c-0.161-0.046-0.322-0.093-0.483-0.139c0.267,0.45,0.555,0.887,0.862,1.311
				c0.061,0.089,0.453,0.049,0.483,0.14c-0.458-1.233-0.849-2.487-1.172-3.762c-0.022-0.078-0.473-0.068-0.483-0.138
				c0.14,1.03,0.115,2.501,0.999,3.178C19.616,21.289,19.851,21.239,19.974,21.333z"/>
			<path opacity="0.1091" fill="#754C24" d="M18.068,22.152c-0.884-0.675-0.862-2.144-1.004-3.175
				c-0.022,0.167-0.044,0.333-0.067,0.5c0.323,1.275,0.714,2.528,1.174,3.759c0.022-0.166,0.044-0.332,0.066-0.498
				c-0.307-0.424-0.595-0.861-0.862-1.311c0.032,0.051-0.044,0.306-0.051,0.365c-0.17,1.281-0.165,1.135-0.185,2.41
				c0.002-0.166,0.062-0.332,0.065-0.498c0.053-0.714,0.104-1.429,0.156-2.143c-0.018,0.122-0.035,0.242-0.053,0.364
				c0.269,0.449,0.557,0.887,0.864,1.311c-0.068-0.099,0.108-0.376,0.066-0.498c-0.458-1.232-0.85-2.486-1.173-3.761
				c0.042,0.146-0.087,0.346-0.067,0.5c0.142,1.03,0.119,2.5,1.005,3.173C17.938,22.603,18.137,22.205,18.068,22.152z"/>
			<path opacity="0.1091" fill="#754C24" d="M19.273,23.956c-0.884-0.673-0.861-2.141-1-3.169c-0.163-0.04-0.327-0.081-0.489-0.121
				c0.323,1.275,0.713,2.527,1.172,3.759c0.162,0.041,0.325,0.081,0.489,0.121c-0.307-0.424-0.595-0.861-0.862-1.311
				c-0.03-0.049-0.493-0.091-0.489-0.121c-0.144,0.752-0.201,1.511-0.171,2.274c-0.001,0.037,0.488,0.084,0.487,0.122
				c-0.028-0.766,0.029-1.524,0.173-2.275c-0.164-0.041-0.327-0.081-0.489-0.121c0.267,0.45,0.555,0.888,0.862,1.311
				c0.058,0.086,0.458,0.034,0.489,0.121c-0.459-1.232-0.85-2.484-1.172-3.759c-0.021-0.072-0.48-0.056-0.489-0.121
				c0.14,1.028,0.116,2.497,1.001,3.17C18.908,23.93,19.152,23.863,19.273,23.956z"/>
			<path opacity="0.1091" fill="#754C24" d="M20.321,22.195c-0.952-0.61-1.279-1.625-0.979-3.041
				c0.015,0.122,0.031,0.244,0.046,0.365c0.324,1.275,0.714,2.528,1.172,3.759c-0.022-0.166-0.044-0.332-0.066-0.498
				c-0.115-0.413-0.306-0.789-0.573-1.13c-0.01-0.015-0.451,0.157-0.459,0.207c-0.264,0.792-0.242,1.584,0.066,2.374
				c0.001,0.006,0.003,0.01,0.003,0.014c0.171-0.857,0.302-1.723,0.39-2.594c-0.154,0.068-0.306,0.137-0.459,0.207
				c0.302,0.523,0.668,0.997,1.099,1.421c-0.081-0.093-0.024-0.374-0.066-0.498c-0.458-1.232-0.85-2.486-1.172-3.759
				c0.032,0.112,0.03,0.249,0.047,0.365c0.141,1.048,0.122,2.623,1.019,3.306C20.296,22.625,20.418,22.269,20.321,22.195z"/>
			<path opacity="0.1091" fill="#754C24" d="M18.588,21.676c-0.886-0.675-0.862-2.145-1.003-3.176
				c-0.103,0.133-0.205,0.266-0.307,0.398c0.324,1.275,0.715,2.529,1.174,3.761c0.102-0.133,0.205-0.266,0.306-0.398
				c-0.307-0.424-0.595-0.861-0.862-1.311c0.028,0.043-0.296,0.324-0.306,0.399c-0.144,0.753-0.201,1.512-0.172,2.278
				c0.003-0.135,0.303-0.265,0.306-0.4c-0.029-0.766,0.027-1.525,0.171-2.277c-0.103,0.133-0.204,0.266-0.306,0.399
				c0.267,0.45,0.555,0.887,0.862,1.311c-0.032-0.047,0.329-0.329,0.306-0.398c-0.458-1.233-0.85-2.486-1.172-3.761
				c0.026,0.097-0.321,0.289-0.307,0.398c0.141,1.031,0.119,2.502,1.005,3.178C18.287,22.079,18.591,21.679,18.588,21.676z"/>
			<path opacity="0.1091" fill="#754C24" d="M19.533,21.767c-0.843-0.68-0.818-2.007-0.943-3.015
				c-0.161,0.05-0.321,0.098-0.481,0.148c0.294,1.125,0.641,2.237,1.038,3.332c0.152-0.06,0.304-0.12,0.457-0.18
				c-0.271-0.4-0.544-0.802-0.815-1.203c-0.008-0.014-0.211,0.345-0.223,0.393c-0.226,0.745-0.345,1.507-0.357,2.286
				c0.001-0.015,0.488-0.043,0.488-0.121c0.033-0.847,0.066-1.692,0.101-2.538c-0.077,0.144-0.153,0.289-0.229,0.433
				c0.192,0.31,0.385,0.62,0.579,0.93c0.055,0.097,0.512-0.061,0.479-0.155c-0.43-1.081-0.775-2.189-1.035-3.324
				c-0.026-0.096-0.496,0.036-0.481,0.148c0.112,0.908,0.058,2.397,0.923,2.911C19.142,21.876,19.44,21.69,19.533,21.767z"/>
			<path opacity="0.1091" fill="#754C24" d="M20.374,22.931c-0.883-0.674-0.858-2.143-0.997-3.171
				c-0.09,0.142-0.18,0.283-0.27,0.424c0.323,1.275,0.713,2.527,1.171,3.759c0.09-0.142,0.18-0.282,0.27-0.424
				c-0.307-0.424-0.594-0.86-0.862-1.311c0.032,0.05-0.259,0.345-0.27,0.425c-0.143,0.752-0.201,1.51-0.173,2.275
				c0.003-0.143,0.267-0.281,0.27-0.425c-0.026-0.766,0.03-1.523,0.173-2.275c-0.09,0.142-0.18,0.282-0.27,0.425
				c0.267,0.45,0.555,0.886,0.862,1.31c-0.039-0.057,0.298-0.345,0.27-0.424c-0.458-1.231-0.848-2.486-1.171-3.759
				c0.03,0.108-0.287,0.305-0.27,0.424c0.139,1.028,0.112,2.499,0.995,3.172C20.096,23.35,20.389,22.941,20.374,22.931z"/>
			<path opacity="0.1091" fill="#754C24" d="M18.047,22.769c-0.201-0.303-0.401-0.604-0.602-0.907
				c0.054,0.155,0.108,0.309,0.161,0.463c-0.167-0.751-0.293-1.493-0.397-2.254c-0.054-0.155-0.108-0.309-0.162-0.462
				c0.177,0.631,0.356,1.263,0.535,1.892c0.13,0.389,0.194,0.792,0.191,1.212c-0.14-0.223-0.28-0.445-0.418-0.668
				c-0.144,0.751-0.201,1.511-0.172,2.275c-0.002,0.157,0.17,0.318,0.167,0.475c-0.032-0.766,0.025-1.524,0.169-2.275
				c0.269,0.449,0.555,0.887,0.864,1.311c-0.005-0.017-0.01-0.034-0.017-0.05c-0.386-1.241-0.774-2.481-1.161-3.722
				c-0.043-0.152-0.141-0.308-0.162-0.462c0.138,1.008,0.229,2.93,1.171,3.647C18.103,23.159,18.16,22.854,18.047,22.769z"/>
		</g>
	</g>
</g>
<g>
</g>
<g>
</g>
<g>
</g>
<g>
</g>
<g>
</g>
<g>
</g>
<g>
</g>
<g>
</g>
<g>
</g>
<g>
</g>
<g>
</g>
<g>
</g>
<g>
</g>
<g>
</g>
<g>
</g>
</svg>
