<?xml version="1.0" encoding="utf-8"?>
<!-- Generator: Adobe Illustrator 16.0.0, SVG Export Plug-In . SVG Version: 6.00 Build 0)  -->
<!DOCTYPE svg PUBLIC "-//W3C//DTD SVG 1.1//EN" "http://www.w3.org/Graphics/SVG/1.1/DTD/svg11.dtd">
<svg version="1.1" id="Слой_1" xmlns="http://www.w3.org/2000/svg" xmlns:xlink="http://www.w3.org/1999/xlink" x="0px" y="0px"
	 width="42px" height="42px" viewBox="0 0 42 42" enable-background="new 0 0 42 42" xml:space="preserve">
<path fill="#A6A674" stroke="#000000" stroke-miterlimit="10" d="M13.5,9.278c0.191-0.529,1.625-1.378,2.532-1.766
	s7.378-0.247,8.292,0c0.912,0.247,2.613,1.342,3.051,2.013c0.439,0.671,0.449,2.719,0.449,2.719s0.494,15.642,0.295,16.348
	s-3.213,5.154-3.912,5.543c-0.701,0.389-4.64,0.636-5.424,0.247s-4.768-5.508-5.283-6.179S13.309,9.808,13.5,9.278z"/>
<g>
	<g>
		<g>
			<path opacity="0.1091" fill="#754C24" d="M22.235,34.479c-0.162,0-0.325-0.121-0.488-0.121
				C21.909,34.357,22.072,34.479,22.235,34.479z"/>
			<path opacity="0.1091" fill="#754C24" d="M22.971,34.194c-0.08,0.022-0.162,0.044-0.242,0.066
				c-0.162,0.046-0.313,0.125-0.475,0.169c0.081-0.022,0.162-0.044,0.243-0.066C22.658,34.319,22.81,34.238,22.971,34.194z"/>
			<path opacity="0.1091" fill="#754C24" d="M21.548,33.281c-0.082,0.021-0.162,0.045-0.242,0.067
				c0.043-0.013,0.219,0.44,0.264,0.428c0.082-0.022,0.162-0.046,0.242-0.068C21.771,33.72,21.595,33.267,21.548,33.281z"/>
			<path opacity="0.1091" fill="#754C24" d="M22.035,31.803c-0.081,0.023-0.161,0.047-0.241,0.07
				c-0.16,0.047-0.303,0.149-0.463,0.195c0.08-0.023,0.161-0.046,0.242-0.069C21.733,31.953,21.876,31.85,22.035,31.803z"/>
			<path opacity="0.1091" fill="#754C24" d="M22.691,32.888c-0.081,0.023-0.162,0.046-0.242,0.069
				c-0.062,0.017,0.005,0.483-0.053,0.5c0.081-0.022,0.162-0.046,0.243-0.068C22.701,33.371,22.634,32.904,22.691,32.888z"/>
			<path opacity="0.1091" fill="#754C24" d="M22.451,31.717c-0.08,0.023-0.16,0.047-0.242,0.07c0.136-0.04,0.348,0.178,0.483,0.139
				c0.082-0.023,0.162-0.047,0.243-0.069C22.801,31.894,22.59,31.677,22.451,31.717z"/>
			<path opacity="0.1091" fill="#754C24" d="M21.03,32.675c-0.081,0.023-0.161,0.046-0.241,0.069
				c-0.063,0.018-0.001,0.479-0.065,0.498c0.081-0.022,0.161-0.046,0.24-0.068C21.031,33.155,20.969,32.692,21.03,32.675z"/>
			<path opacity="0.1091" fill="#754C24" d="M23.28,32.719c-0.081,0.022-0.163,0.046-0.243,0.068
				c-0.026,0.007,0.086,0.492,0.066,0.498c0.082-0.022,0.162-0.046,0.243-0.068C23.375,33.209,23.263,32.723,23.28,32.719z"/>
			<path opacity="0.1091" fill="#754C24" d="M21.55,32.198c-0.08,0.023-0.16,0.047-0.241,0.069c-0.131,0.039-0.177,0.362-0.306,0.4
				c0.08-0.023,0.161-0.048,0.241-0.069C21.376,32.56,21.423,32.235,21.55,32.198z"/>
			<path opacity="0.1091" fill="#754C24" d="M21.994,32.333c-0.081,0.023-0.162,0.047-0.243,0.069
				c0.158-0.045,0.342,0.001,0.501-0.045c0.082-0.023,0.162-0.046,0.242-0.069C22.337,32.334,22.152,32.288,21.994,32.333z"/>
			<path opacity="0.1091" fill="#754C24" d="M23.335,33.452c-0.081,0.023-0.162,0.046-0.244,0.068
				c-0.12,0.034-0.15,0.392-0.27,0.425c0.081-0.023,0.162-0.046,0.243-0.068C23.188,33.843,23.219,33.485,23.335,33.452z"/>
			<path opacity="0.1091" fill="#754C24" d="M21.009,33.29c-0.08,0.022-0.162,0.046-0.242,0.068
				c0.011-0.003,0.158,0.478,0.169,0.475c0.08-0.023,0.159-0.046,0.239-0.067C21.168,33.767,21.022,33.286,21.009,33.29z"/>
		</g>
	</g>
</g>
<g>
	<g>
		<g>
			<path opacity="0.1091" fill="#754C24" d="M21.033,33.279c-0.085,0.06-0.177,0.105-0.275,0.137
				c0.028-0.011,0.235,0.439,0.265,0.428c0.1-0.031,0.191-0.077,0.275-0.137C21.293,33.708,21.039,33.275,21.033,33.279z"/>
			<path opacity="0.1091" fill="#754C24" d="M22.172,32.888c-0.084,0.061-0.176,0.106-0.275,0.139
				c-0.072,0.026,0.018,0.472-0.051,0.499c0.098-0.031,0.191-0.077,0.276-0.137C22.207,33.339,22.089,32.937,22.172,32.888z"/>
			<path opacity="0.1091" fill="#754C24" d="M22.763,32.719c-0.086,0.059-0.176,0.104-0.273,0.137
				c-0.039,0.016,0.097,0.484,0.057,0.5c0.101-0.03,0.195-0.076,0.28-0.139C22.884,33.186,22.706,32.749,22.763,32.719z"/>
			<path opacity="0.1091" fill="#754C24" d="M21.476,32.337c-0.084,0.061-0.177,0.106-0.275,0.139
				c0.149-0.059,0.35,0.014,0.501-0.045c0.1-0.031,0.191-0.077,0.276-0.138C21.847,32.369,21.608,32.261,21.476,32.337z"/>
		</g>
	</g>
</g>
<g>
	<g>
		<g>
			<path opacity="0.1091" fill="#754C24" d="M22.178,33.607c-0.059,0.011-0.116,0.022-0.173,0.034
				c-0.164,0.032-0.312,0.136-0.475,0.169c0.058-0.012,0.116-0.023,0.173-0.034C21.866,33.743,22.015,33.64,22.178,33.607z"/>
			<path opacity="0.1091" fill="#754C24" d="M20.756,32.692c-0.057,0.012-0.115,0.023-0.171,0.035
				c0.054-0.012,0.205,0.439,0.264,0.428c0.058-0.012,0.115-0.024,0.172-0.035C20.966,33.131,20.817,32.68,20.756,32.692z"/>
			<path opacity="0.1091" fill="#754C24" d="M21.242,31.216c-0.057,0.013-0.115,0.023-0.171,0.036
				c-0.162,0.033-0.303,0.163-0.464,0.196c0.058-0.011,0.115-0.023,0.173-0.036C20.94,31.379,21.081,31.249,21.242,31.216z"/>
			<path opacity="0.1091" fill="#754C24" d="M21.899,32.301c-0.058,0.013-0.115,0.023-0.173,0.036c-0.051,0.01-0.004,0.49-0.052,0.5
				c0.058-0.012,0.115-0.024,0.173-0.035C21.898,32.791,21.851,32.311,21.899,32.301z"/>
			<path opacity="0.1091" fill="#754C24" d="M21.659,31.13c-0.059,0.013-0.115,0.025-0.173,0.036c0.146-0.03,0.338,0.17,0.484,0.14
				c0.057-0.013,0.115-0.025,0.172-0.036C21.998,31.299,21.805,31.1,21.659,31.13z"/>
			<path opacity="0.1091" fill="#754C24" d="M20.237,32.088c-0.057,0.013-0.113,0.023-0.17,0.036
				c-0.056,0.011-0.014,0.487-0.068,0.498c0.057-0.011,0.115-0.023,0.171-0.035C20.228,32.575,20.186,32.099,20.237,32.088z"/>
			<path opacity="0.1091" fill="#754C24" d="M20.954,33.771c-0.058,0.012-0.115,0.022-0.173,0.035
				c0.15-0.03,0.341,0.147,0.489,0.119c0.058-0.012,0.115-0.022,0.173-0.035C21.293,33.919,21.104,33.74,20.954,33.771z"/>
			<path opacity="0.1091" fill="#754C24" d="M22.486,32.132c-0.059,0.011-0.115,0.022-0.173,0.035
				c-0.015,0.002,0.074,0.496,0.066,0.498c0.058-0.012,0.116-0.023,0.174-0.035C22.567,32.628,22.479,32.134,22.486,32.132z"/>
			<path opacity="0.1091" fill="#754C24" d="M20.757,31.611c-0.058,0.013-0.115,0.025-0.171,0.036
				c-0.126,0.026-0.184,0.374-0.308,0.4c0.058-0.013,0.115-0.023,0.173-0.036C20.578,31.985,20.634,31.638,20.757,31.611z"/>
			<path opacity="0.1091" fill="#754C24" d="M21.2,31.749c-0.057,0.012-0.115,0.024-0.171,0.035
				c0.162-0.033,0.337-0.011,0.501-0.044c0.057-0.013,0.115-0.023,0.171-0.036C21.54,31.739,21.364,31.716,21.2,31.749z"/>
			<path opacity="0.1091" fill="#754C24" d="M22.542,32.865c-0.059,0.013-0.115,0.023-0.174,0.035
				c-0.116,0.023-0.157,0.402-0.27,0.425c0.059-0.011,0.115-0.023,0.173-0.035C22.388,33.267,22.431,32.888,22.542,32.865z"/>
			<path opacity="0.1091" fill="#754C24" d="M20.216,32.704c-0.057,0.011-0.114,0.021-0.172,0.034
				c0.022-0.004,0.143,0.479,0.166,0.475c0.057-0.011,0.114-0.023,0.172-0.034C20.361,33.183,20.24,32.698,20.216,32.704z"/>
		</g>
	</g>
</g>
<g>
	<g>
		<g>
			<path opacity="0.1091" fill="#754C24" d="M23.246,34.979c0.396,0-1.068-1.956-1.593-1.956
				C21.258,33.023,22.722,34.979,23.246,34.979z"/>
			<path opacity="0.1091" fill="#754C24" d="M21.909,33.89c0.474,0-0.54-1.271-0.914-1.271C20.523,32.618,21.537,33.89,21.909,33.89
				z"/>
			<path opacity="0.1091" fill="#754C24" d="M22.358,32.721c0.235,0,0.414-0.482,0.078-0.482
				C22.202,32.238,22.023,32.721,22.358,32.721z"/>
			<path opacity="0.1091" fill="#754C24" d="M22.943,33.581c0.406,0-0.993-1.809-1.49-1.809
				C21.047,31.772,22.444,33.581,22.943,33.581z"/>
			<path opacity="0.1091" fill="#754C24" d="M23.043,32.402c0.475,0,0.197-0.679-0.133-0.679
				C22.434,31.724,22.71,32.402,23.043,32.402z"/>
			<path opacity="0.1091" fill="#754C24" d="M21.487,33.689c0.289,0,0.39-0.52,0.048-0.52C21.245,33.17,21.145,33.689,21.487,33.689
				z"/>
			<path opacity="0.1091" fill="#754C24" d="M22.38,34.994c0.462,0-0.689-1.48-1.101-1.48C20.817,33.514,21.968,34.994,22.38,34.994
				z"/>
			<path opacity="0.1091" fill="#754C24" d="M23.688,33.501c0.411,0-0.959-1.734-1.445-1.734
				C21.832,31.767,23.202,33.501,23.688,33.501z"/>
			<path opacity="0.1091" fill="#754C24" d="M21.813,33.084c0.367,0,0.325-0.58-0.017-0.58C21.43,32.504,21.47,33.084,21.813,33.084
				z"/>
			<path opacity="0.1091" fill="#754C24" d="M22.516,32.741c0.466,0-0.352-1.004-0.688-1.004
				C21.362,31.737,22.181,32.741,22.516,32.741z"/>
			<path opacity="0.1091" fill="#754C24" d="M23.693,34.328c0.371,0-1.16-2.031-1.715-2.031
				C21.607,32.297,23.138,34.328,23.693,34.328z"/>
			<path opacity="0.1091" fill="#754C24" d="M21.451,34.168c0.509,0,0.184-0.717-0.14-0.717
				C20.802,33.451,21.127,34.168,21.451,34.168z"/>
		</g>
	</g>
</g>
<g>
	<g>
		<g>
			<path opacity="0.1091" fill="#754C24" d="M22.901,33.67c0.395,0-1.068-1.957-1.593-1.957
				C20.913,31.713,22.375,33.67,22.901,33.67z"/>
			<path opacity="0.1091" fill="#754C24" d="M21.564,32.579c0.474,0-0.54-1.271-0.914-1.271
				C20.177,31.309,21.19,32.579,21.564,32.579z"/>
			<path opacity="0.1091" fill="#754C24" d="M22.015,31.409c0.233,0,0.412-0.48,0.077-0.48
				C21.856,30.929,21.678,31.409,22.015,31.409z"/>
			<path opacity="0.1091" fill="#754C24" d="M22.597,32.271c0.408,0-0.991-1.81-1.489-1.81C20.701,30.461,22.1,32.271,22.597,32.271
				z"/>
			<path opacity="0.1091" fill="#754C24" d="M22.696,31.091c0.477,0,0.199-0.678-0.133-0.678
				C22.089,30.413,22.366,31.091,22.696,31.091z"/>
			<path opacity="0.1091" fill="#754C24" d="M21.141,32.378c0.291,0,0.392-0.519,0.05-0.519
				C20.9,31.859,20.799,32.378,21.141,32.378z"/>
			<path opacity="0.1091" fill="#754C24" d="M22.033,33.684c0.464,0-0.689-1.479-1.099-1.479
				C20.471,32.204,21.624,33.684,22.033,33.684z"/>
			<path opacity="0.1091" fill="#754C24" d="M23.343,32.19c0.411,0-0.959-1.734-1.445-1.734
				C21.487,30.456,22.857,32.19,23.343,32.19z"/>
			<path opacity="0.1091" fill="#754C24" d="M21.467,31.773c0.367,0,0.327-0.58-0.017-0.58
				C21.085,31.193,21.125,31.773,21.467,31.773z"/>
			<path opacity="0.1091" fill="#754C24" d="M22.171,31.431c0.465,0-0.353-1.004-0.688-1.004
				C21.016,30.427,21.834,31.431,22.171,31.431z"/>
			<path opacity="0.1091" fill="#754C24" d="M23.349,33.018c0.371,0-1.161-2.031-1.716-2.031
				C21.261,30.986,22.793,33.018,23.349,33.018z"/>
			<path opacity="0.1091" fill="#754C24" d="M21.105,32.858c0.509,0,0.186-0.718-0.139-0.718
				C20.457,32.141,20.781,32.858,21.105,32.858z"/>
		</g>
	</g>
</g>
<g>
	<g>
		<g>
			<path opacity="0.1091" fill="#754C24" d="M20.412,29.509c-0.277,0.126-0.553,0.254-0.829,0.38
				c0.082-0.038,0.313-0.128,0.44-0.186c0.275-0.126,0.552-0.252,0.828-0.378C20.77,29.361,20.537,29.451,20.412,29.509z"/>
			<path opacity="0.1091" fill="#754C24" d="M21.279,29.232c-0.275,0.126-0.552,0.253-0.828,0.379
				c0.113-0.053,0.367,0.194,0.483,0.14c0.277-0.127,0.552-0.253,0.828-0.379C21.65,29.423,21.398,29.179,21.279,29.232z"/>
			<path opacity="0.1091" fill="#754C24" d="M19.858,30.191c-0.277,0.126-0.552,0.253-0.828,0.379
				c-0.083,0.038,0.012,0.463-0.068,0.499c0.277-0.126,0.552-0.252,0.828-0.38C19.875,30.651,19.779,30.228,19.858,30.191z"/>
			<path opacity="0.1091" fill="#754C24" d="M20.573,31.875c-0.275,0.127-0.551,0.253-0.828,0.379
				c0.119-0.054,0.368,0.174,0.489,0.119c0.277-0.126,0.552-0.252,0.828-0.378C20.946,32.049,20.695,31.819,20.573,31.875z"/>
			<path opacity="0.1091" fill="#754C24" d="M19.835,30.808c-0.275,0.126-0.551,0.252-0.828,0.378
				c-0.017,0.008,0.179,0.471,0.166,0.476c0.275-0.127,0.551-0.253,0.828-0.379C20.02,31.273,19.826,30.812,19.835,30.808z"/>
			<path opacity="0.1091" fill="#754C24" d="M21.336,31.875c-0.28,0.128-0.561,0.256-0.84,0.385
				c0.004-0.002,0.008-0.003,0.013-0.005c0.134-0.044,0.267-0.088,0.401-0.134c0.159-0.053,0.315-0.116,0.473-0.169
				c0.134-0.077,0.269-0.156,0.403-0.235C21.706,31.754,21.462,31.816,21.336,31.875z"/>
			<path opacity="0.1091" fill="#754C24" d="M20.374,30.798c-0.275,0.126-0.552,0.252-0.828,0.378
				c0.022-0.01,0.232,0.438,0.264,0.428c0.139-0.046,0.277-0.092,0.416-0.138c-0.035,0.012-0.227-0.441-0.265-0.428
				c-0.138,0.046-0.277,0.092-0.415,0.138c0.088,0.143,0.177,0.285,0.264,0.428c0.277-0.126,0.552-0.252,0.828-0.378
				C20.623,31.232,20.396,30.787,20.374,30.798z"/>
			<path opacity="0.1091" fill="#754C24" d="M21.516,30.404c-0.296,0.123-0.593,0.245-0.887,0.368
				c-0.018,0.007,0.178,0.466,0.227,0.449c0.146-0.049,0.29-0.098,0.435-0.147c0.001,0-0.182-0.463-0.226-0.449
				c-0.145,0.05-0.291,0.098-0.436,0.147c0.075,0.149,0.151,0.299,0.227,0.449c0.204-0.105,0.406-0.212,0.608-0.317
				C21.543,30.862,21.442,30.436,21.516,30.404z"/>
			<path opacity="0.1091" fill="#754C24" d="M22.111,30.234c-0.277,0.126-0.554,0.253-0.829,0.379
				c-0.042,0.019,0.098,0.487,0.066,0.499c0.138-0.046,0.275-0.092,0.414-0.138c0.03-0.011-0.095-0.489-0.068-0.499
				c-0.137,0.047-0.275,0.093-0.412,0.138c0.022,0.166,0.044,0.333,0.066,0.499c0.277-0.126,0.552-0.254,0.829-0.38
				C22.226,30.711,22.071,30.252,22.111,30.234z"/>
			<path opacity="0.1091" fill="#754C24" d="M20.377,29.716c-0.275,0.125-0.551,0.253-0.828,0.379
				c-0.13,0.06-0.175,0.355-0.306,0.398c0.139-0.046,0.275-0.092,0.414-0.137c0.131-0.045,0.174-0.356,0.306-0.4
				c-0.137,0.047-0.275,0.093-0.414,0.139c-0.101,0.133-0.204,0.266-0.306,0.398c0.277-0.126,0.552-0.252,0.828-0.378
				C20.208,30.052,20.245,29.776,20.377,29.716z"/>
			<path opacity="0.1091" fill="#754C24" d="M20.821,29.85c-0.277,0.127-0.552,0.253-0.829,0.381
				c0.143-0.065,0.352,0.005,0.502-0.046c0.137-0.046,0.275-0.092,0.414-0.137c-0.155,0.051-0.346-0.007-0.501,0.044
				c-0.138,0.046-0.277,0.092-0.415,0.139c0.167-0.016,0.335-0.03,0.502-0.046c0.275-0.126,0.551-0.252,0.828-0.379
				C21.18,29.87,20.965,29.784,20.821,29.85z"/>
			<path opacity="0.1091" fill="#754C24" d="M22.165,30.971c-0.277,0.126-0.552,0.253-0.829,0.379
				c-0.123,0.056-0.146,0.384-0.27,0.424c0.137-0.046,0.275-0.091,0.414-0.137c0.123-0.042,0.146-0.384,0.27-0.425
				c-0.139,0.045-0.275,0.091-0.414,0.138c-0.09,0.142-0.18,0.282-0.27,0.424c0.275-0.126,0.552-0.252,0.829-0.378
				C22.025,31.336,22.039,31.029,22.165,30.971z"/>
		</g>
	</g>
</g>
<g>
	<g>
		<g>
			<path opacity="0.1091" fill="#754C24" d="M20.867,31.332c-0.728-0.014-1.158-0.089-1.827-0.377
				c-0.115-0.05-0.364,0.217-0.475,0.169c0.67,0.288,1.101,0.363,1.827,0.377C20.551,31.504,20.712,31.329,20.867,31.332z"/>
			<path opacity="0.1091" fill="#754C24" d="M19.447,30.414c-0.63-0.051-1.042-0.141-1.624-0.402
				c0.027,0.013-0.115,0.472-0.047,0.501c0.727,0.309,1.144,0.358,1.937,0.329C19.632,30.845,19.543,30.423,19.447,30.414z"/>
			<path opacity="0.1091" fill="#754C24" d="M19.93,28.938c-0.727-0.017-1.16-0.093-1.829-0.382
				c-0.108-0.047-0.36,0.242-0.463,0.196c0.67,0.289,1.102,0.367,1.83,0.384C19.623,29.138,19.78,28.935,19.93,28.938z"/>
			<path opacity="0.1091" fill="#754C24" d="M20.576,30.024c-0.628,0.011-0.954-0.049-1.524-0.318
				c-0.098-0.048-0.237,0.428-0.104,0.491c0.588,0.28,0.923,0.326,1.575,0.326C20.553,30.523,20.568,30.024,20.576,30.024z"/>
			<path opacity="0.1091" fill="#754C24" d="M20.348,28.852c-0.403-0.037-0.804-0.076-1.207-0.115
				c0.161,0.048,0.321,0.095,0.483,0.141c-0.207-0.089-0.414-0.179-0.62-0.269c-0.152-0.066-0.331-0.073-0.483-0.141
				c0.804,0.35,1.414,0.503,2.31,0.523C20.671,28.987,20.511,28.855,20.348,28.852z"/>
			<path opacity="0.1091" fill="#754C24" d="M18.925,29.813c-0.728-0.017-1.161-0.093-1.831-0.381
				c0.039,0.017-0.111,0.479-0.066,0.498c0.67,0.289,1.103,0.365,1.831,0.381C18.883,30.311,18.913,29.811,18.925,29.813z"/>
			<path opacity="0.1091" fill="#754C24" d="M19.642,31.495c-0.398-0.036-0.797-0.072-1.196-0.107
				c0.159,0.038,0.317,0.078,0.476,0.117c-0.208-0.089-0.414-0.177-0.62-0.266c-0.152-0.065-0.338-0.056-0.489-0.12
				c0.793,0.34,1.435,0.479,2.317,0.496C19.968,31.613,19.807,31.498,19.642,31.495z"/>
			<path opacity="0.1091" fill="#754C24" d="M21.177,29.855c-0.727-0.017-1.157-0.092-1.826-0.381
				c0.076,0.033-0.017,0.464,0.066,0.498c0.668,0.289,1.101,0.365,1.827,0.381C21.225,30.354,21.21,29.855,21.177,29.855z"/>
			<path opacity="0.1091" fill="#754C24" d="M19.442,29.333c-0.727-0.015-1.158-0.091-1.827-0.379
				c-0.042-0.018-0.273,0.414-0.306,0.398c0.668,0.289,1.101,0.364,1.827,0.381C19.24,29.734,19.349,29.332,19.442,29.333z"/>
			<path opacity="0.1091" fill="#754C24" d="M20.391,29.432c-0.689-0.162-1.285-0.298-1.932-0.586
				c-0.015-0.007-0.213,0.456-0.186,0.467c0.872,0.384,1.098,0.298,2.105,0.123C20.382,29.435,20.386,29.433,20.391,29.432z"/>
			<path opacity="0.1091" fill="#754C24" d="M21.233,30.592c-0.728-0.016-1.158-0.092-1.828-0.381
				c-0.028-0.011-0.25,0.434-0.27,0.425c0.67,0.289,1.101,0.365,1.829,0.381C21.055,31.018,21.152,30.59,21.233,30.592z"/>
			<path opacity="0.1091" fill="#754C24" d="M18.904,30.427c-0.728-0.014-1.162-0.09-1.832-0.378
				c0.103,0.043,0.06,0.429,0.167,0.475c0.669,0.288,1.102,0.364,1.831,0.378C19.018,30.901,18.968,30.428,18.904,30.427z"/>
		</g>
	</g>
</g>
<g>
	<g>
		<g>
			<path opacity="0.1091" fill="#754C24" d="M18.193,28.411c0.418,0.345,0.837,0.689,1.256,1.033
				c0.061,0.05,0.404-0.245,0.464-0.197c-0.419-0.344-0.839-0.688-1.258-1.032C18.594,28.165,18.251,28.46,18.193,28.411z"/>
			<path opacity="0.1091" fill="#754C24" d="M19.072,28.129c0.419,0.345,0.84,0.688,1.259,1.033c0.119,0.098,0.364,0.043,0.483,0.14
				c-0.419-0.345-0.838-0.688-1.259-1.033C19.436,28.171,19.19,28.226,19.072,28.129z"/>
			<path opacity="0.1091" fill="#754C24" d="M17.583,29.585c0.419,0.347,0.837,0.691,1.257,1.035
				c-0.068-0.055,0.136-0.441,0.068-0.498c-0.419-0.345-0.839-0.69-1.257-1.035C17.718,29.143,17.515,29.528,17.583,29.585z"/>
			<path opacity="0.1091" fill="#754C24" d="M18.367,30.769c0.419,0.346,0.839,0.692,1.258,1.038
				c0.117,0.096,0.373,0.025,0.489,0.12c-0.419-0.346-0.839-0.691-1.258-1.038C18.738,30.794,18.483,30.864,18.367,30.769z"/>
			<path opacity="0.1091" fill="#754C24" d="M17.795,30.178c0.419,0.345,0.837,0.69,1.257,1.035
				c-0.111-0.091-0.055-0.384-0.166-0.475c-0.419-0.346-0.837-0.69-1.257-1.037C17.74,29.793,17.685,30.085,17.795,30.178z"/>
			<path opacity="0.1091" fill="#754C24" d="M19.116,30.774c0.817,0.734,1.69,1.393,2.623,1.972c0.082,0.056,0.393-0.226,0.473-0.17
				c-0.931-0.58-1.806-1.236-2.621-1.971C19.523,30.55,19.181,30.828,19.116,30.774z"/>
			<path opacity="0.1091" fill="#754C24" d="M18.434,30.119c0.815,0.732,1.688,1.39,2.619,1.969
				c-0.126-0.086-0.139-0.341-0.264-0.428c-0.932-0.579-1.805-1.234-2.619-1.969C18.291,29.791,18.311,30.017,18.434,30.119z"/>
			<path opacity="0.1091" fill="#754C24" d="M19.258,29.8c0.817,0.733,1.69,1.39,2.623,1.968c-0.065-0.045,0.118-0.455,0.051-0.501
				c-0.932-0.578-1.805-1.234-2.62-1.967C19.383,29.358,19.187,29.741,19.258,29.8z"/>
			<path opacity="0.1091" fill="#754C24" d="M19.967,29.63c0.816,0.731,1.691,1.387,2.625,1.965
				c-0.092-0.063,0.025-0.435-0.066-0.498c-0.934-0.578-1.808-1.233-2.626-1.967C19.992,29.206,19.87,29.549,19.967,29.63z"/>
			<path opacity="0.1091" fill="#754C24" d="M17.865,29.011c0.814,0.732,1.687,1.387,2.617,1.964
				c0.008,0.006,0.299-0.404,0.306-0.398c-0.93-0.578-1.804-1.233-2.618-1.966C18.173,28.613,17.858,29.005,17.865,29.011z"/>
			<path opacity="0.1091" fill="#754C24" d="M18.613,28.748c0.815,0.732,1.69,1.387,2.62,1.963c0.108,0.074,0.396-0.116,0.502-0.045
				c-0.931-0.577-1.806-1.231-2.622-1.963C19.021,28.626,18.704,28.822,18.613,28.748z"/>
			<path opacity="0.1091" fill="#754C24" d="M19.685,30.29c0.817,0.733,1.691,1.39,2.624,1.968
				c-0.004-0.003,0.275-0.421,0.271-0.424c-0.933-0.579-1.808-1.235-2.625-1.969C19.968,29.876,19.667,30.274,19.685,30.29z"/>
		</g>
	</g>
</g>
<g>
	<g>
		<g>
			<path opacity="0.1091" fill="#754C24" d="M19.497,32.297c0.57,0.859,1.307,1.537,2.208,2.034c0.08,0.059,0.398-0.223,0.475-0.169
				c-0.902-0.496-1.639-1.175-2.208-2.034C19.928,32.078,19.533,32.338,19.497,32.297z"/>
			<path opacity="0.1091" fill="#754C24" d="M18.812,31.623c0.505,0.733,1.114,1.373,1.826,1.915
				c0.066,0.063,0.396-0.216,0.473-0.173c-0.548-0.306-1.096-0.611-1.645-0.918c0.136,0.089,0.273,0.178,0.41,0.268
				c-0.436-0.501-0.874-1.001-1.31-1.501C18.619,31.273,18.727,31.516,18.812,31.623z"/>
			<path opacity="0.1091" fill="#754C24" d="M18.569,29.925c0.57,0.859,1.307,1.537,2.208,2.035
				c0.073,0.052,0.395-0.246,0.463-0.196c-0.902-0.5-1.637-1.178-2.208-2.036C18.997,29.687,18.598,29.959,18.569,29.925z"/>
			<path opacity="0.1091" fill="#754C24" d="M19.617,31.315c0.467,0.823,1.124,1.446,1.971,1.868
				c0.073,0.052,0.382-0.343,0.331-0.378c-0.891-0.501-1.641-1.165-2.249-1.99C19.734,30.887,19.542,31.217,19.617,31.315z"/>
			<path opacity="0.1091" fill="#754C24" d="M19.452,29.642c0.57,0.858,1.307,1.537,2.208,2.035c0.129,0.093,0.356,0.048,0.483,0.14
				c-0.901-0.498-1.636-1.177-2.208-2.034C19.842,29.673,19.541,29.746,19.452,29.642z"/>
			<path opacity="0.1091" fill="#754C24" d="M17.959,31.103c0.569,0.859,1.305,1.537,2.208,2.036
				c-0.063-0.045,0.133-0.452,0.066-0.499c-0.901-0.498-1.638-1.176-2.208-2.036C18.096,30.686,17.883,31.014,17.959,31.103z"/>
			<path opacity="0.1091" fill="#754C24" d="M18.746,32.288c0.569,0.861,1.304,1.541,2.207,2.039c0.127,0.092,0.363,0.03,0.488,0.12
				c-0.902-0.499-1.637-1.179-2.208-2.038C19.144,32.302,18.831,32.39,18.746,32.288z"/>
			<path opacity="0.1091" fill="#754C24" d="M20.344,31.146c0.573,0.858,1.312,1.536,2.215,2.034
				c-0.091-0.064,0.028-0.43-0.067-0.498c-0.903-0.498-1.641-1.176-2.214-2.034C20.364,30.751,20.25,31.036,20.344,31.146z"/>
			<path opacity="0.1091" fill="#754C24" d="M18.24,30.525c0.57,0.859,1.307,1.537,2.208,2.036c0.008,0.005,0.305-0.4,0.306-0.4
				c-0.901-0.498-1.638-1.177-2.208-2.035C18.565,30.148,18.213,30.493,18.24,30.525z"/>
			<path opacity="0.1091" fill="#754C24" d="M18.994,30.277c0.707,0.822,1.493,1.563,2.357,2.22
				c-0.027-0.023,0.21-0.454,0.176-0.471c-0.929-0.294-1.605-0.893-2.032-1.793C19.427,30.147,19.054,30.34,18.994,30.277z"/>
			<path opacity="0.1091" fill="#754C24" d="M20.065,31.807c0.57,0.859,1.308,1.539,2.21,2.037c-0.005-0.002,0.28-0.416,0.271-0.423
				c-0.903-0.5-1.641-1.178-2.21-2.038C20.361,31.415,20.028,31.764,20.065,31.807z"/>
			<path opacity="0.1091" fill="#754C24" d="M18.17,31.696c0.569,0.859,1.305,1.537,2.208,2.036
				c-0.11-0.079-0.054-0.395-0.166-0.477c-0.902-0.497-1.637-1.175-2.208-2.034C18.104,31.339,18.068,31.575,18.17,31.696z"/>
		</g>
	</g>
</g>
<g>
	<g>
		<g>
			<path opacity="0.1091" fill="#754C24" d="M17.53,32.569c1,0.544,2.07,0.799,3.209,0.763c0.151,0.016,0.323-0.185,0.474-0.169
				c-1.138,0.036-2.208-0.217-3.21-0.763C17.881,32.354,17.645,32.613,17.53,32.569z"/>
			<path opacity="0.1091" fill="#754C24" d="M16.845,31.915c1.002,0.542,2.07,0.796,3.208,0.758c-0.1-0.01-0.162-0.418-0.266-0.428
				c-1.136,0.038-2.206-0.216-3.207-0.758C16.702,31.532,16.719,31.866,16.845,31.915z"/>
			<path opacity="0.1091" fill="#754C24" d="M16.605,30.204c1.001,0.541,2.069,0.793,3.206,0.756
				c0.148,0.014,0.317-0.211,0.464-0.197c-1.136,0.038-2.207-0.214-3.207-0.755C16.953,29.963,16.714,30.247,16.605,30.204z"/>
			<path opacity="0.1091" fill="#754C24" d="M17.669,31.594c0.994,0.542,2.056,0.793,3.186,0.756
				c0.018,0.001,0.082-0.496,0.093-0.494c-1.143,0.034-2.22-0.219-3.228-0.762C17.757,31.107,17.624,31.577,17.669,31.594z"/>
			<path opacity="0.1091" fill="#754C24" d="M17.498,29.927c1.803,0.687,1.783,0.708,3.68,0.891c-0.165-0.017-0.32-0.125-0.484-0.14
				c-0.547-0.053-1.095-0.105-1.643-0.158c0.158,0.044,0.314,0.089,0.471,0.134c-0.522-0.199-1.043-0.398-1.565-0.598
				C17.826,30.006,17.58,29.958,17.498,29.927z"/>
			<path opacity="0.1091" fill="#754C24" d="M15.996,31.379c1,0.543,2.068,0.796,3.204,0.759c0.007,0.001,0.063-0.498,0.068-0.498
				c-1.136,0.037-2.205-0.217-3.206-0.759C16.094,30.894,15.956,31.364,15.996,31.379z"/>
			<path opacity="0.1091" fill="#754C24" d="M16.779,32.565c1.772,0.681,1.815,0.697,3.696,0.882
				c-0.165-0.017-0.323-0.104-0.489-0.121c-0.546-0.053-1.095-0.106-1.643-0.16c0.163,0.04,0.327,0.08,0.488,0.12
				c-0.521-0.2-1.042-0.401-1.564-0.602C17.113,32.625,16.935,32.623,16.779,32.565z"/>
			<path opacity="0.1091" fill="#754C24" d="M18.384,31.422c1,0.543,2.069,0.796,3.207,0.76c-0.035-0.004-0.026-0.495-0.066-0.499
				c-1.138,0.037-2.208-0.217-3.208-0.759C18.386,30.951,18.305,31.392,18.384,31.422z"/>
			<path opacity="0.1091" fill="#754C24" d="M16.277,30.805c1,0.541,2.068,0.793,3.205,0.756c0.09,0.008,0.22-0.407,0.306-0.398
				c-1.136,0.037-2.204-0.216-3.204-0.758C16.533,30.387,16.316,30.82,16.277,30.805z"/>
			<path opacity="0.1091" fill="#754C24" d="M17.026,30.54c1.002,0.541,2.071,0.795,3.208,0.758c0.165,0.017,0.337-0.06,0.501-0.045
				c-1.138,0.037-2.207-0.216-3.208-0.757C17.384,30.44,17.164,30.593,17.026,30.54z"/>
			<path opacity="0.1091" fill="#754C24" d="M18.1,32.085c1.002,0.543,2.07,0.796,3.208,0.759c0.078,0.008,0.197-0.431,0.27-0.424
				c-1.138,0.036-2.206-0.216-3.208-0.76C18.335,31.647,18.127,32.096,18.1,32.085z"/>
			<path opacity="0.1091" fill="#754C24" d="M16.207,31.972c1,0.544,2.069,0.797,3.206,0.76c-0.069-0.007-0.096-0.468-0.166-0.475
				c-1.136,0.036-2.205-0.218-3.204-0.76C16.139,31.534,16.103,31.932,16.207,31.972z"/>
		</g>
	</g>
</g>
<g>
	<g>
		<g>
			<path opacity="0.1091" fill="#754C24" d="M20.142,30.736c0.396,0-1.069-1.955-1.593-1.955
				C18.154,28.781,19.617,30.736,20.142,30.736z"/>
			<path opacity="0.1091" fill="#754C24" d="M18.804,29.647c0.474,0-0.54-1.271-0.913-1.271
				C17.419,28.376,18.432,29.647,18.804,29.647z"/>
			<path opacity="0.1091" fill="#754C24" d="M19.254,28.478c0.235,0,0.414-0.479,0.077-0.479
				C19.098,27.998,18.919,28.478,19.254,28.478z"/>
			<path opacity="0.1091" fill="#754C24" d="M19.838,29.339c0.407,0-0.991-1.809-1.489-1.809
				C17.942,27.53,19.34,29.339,19.838,29.339z"/>
			<path opacity="0.1091" fill="#754C24" d="M19.938,28.159c0.475,0,0.198-0.678-0.133-0.678
				C19.329,27.481,19.606,28.159,19.938,28.159z"/>
			<path opacity="0.1091" fill="#754C24" d="M18.382,29.447c0.289,0,0.39-0.52,0.048-0.52C18.14,28.928,18.041,29.447,18.382,29.447
				z"/>
			<path opacity="0.1091" fill="#754C24" d="M19.275,30.752c0.462,0-0.689-1.48-1.1-1.48C17.712,29.271,18.864,30.752,19.275,30.752
				z"/>
			<path opacity="0.1091" fill="#754C24" d="M20.584,29.259c0.41,0-0.96-1.734-1.446-1.734
				C18.727,27.524,20.097,29.259,20.584,29.259z"/>
			<path opacity="0.1091" fill="#754C24" d="M18.709,28.842c0.367,0,0.325-0.58-0.017-0.58
				C18.326,28.262,18.366,28.842,18.709,28.842z"/>
			<path opacity="0.1091" fill="#754C24" d="M19.411,28.499c0.466,0-0.352-1.004-0.688-1.004
				C18.258,27.495,19.076,28.499,19.411,28.499z"/>
			<path opacity="0.1091" fill="#754C24" d="M20.588,30.086c0.371,0-1.16-2.031-1.715-2.031
				C18.503,28.055,20.034,30.086,20.588,30.086z"/>
			<path opacity="0.1091" fill="#754C24" d="M18.346,29.926c0.509,0,0.184-0.717-0.14-0.717
				C17.699,29.209,18.022,29.926,18.346,29.926z"/>
		</g>
	</g>
</g>
<g>
	<g>
		<g>
			<path opacity="0.1091" fill="#754C24" d="M18.253,28.05c1.096,1.04,2.134,1.976,3.391,2.821c0.083,0.056,0.392-0.225,0.474-0.169
				c-1.255-0.846-2.293-1.781-3.391-2.82C18.67,27.827,18.308,28.102,18.253,28.05z"/>
			<path opacity="0.1091" fill="#754C24" d="M17.329,25.688c1.096,1.038,2.134,1.971,3.39,2.815
				c0.076,0.051,0.388-0.248,0.463-0.196c-1.255-0.845-2.293-1.779-3.39-2.817C17.743,25.442,17.376,25.731,17.329,25.688z"/>
			<path opacity="0.1091" fill="#754C24" d="M18.209,25.404c1.096,1.038,2.135,1.972,3.391,2.816
				c0.133,0.089,0.351,0.051,0.483,0.14c-1.255-0.845-2.293-1.778-3.391-2.816C18.583,25.441,18.316,25.506,18.209,25.404z"/>
			<path opacity="0.1091" fill="#754C24" d="M16.721,26.861c1.096,1.039,2.133,1.974,3.39,2.818
				c-0.062-0.042,0.127-0.457,0.065-0.499c-1.255-0.846-2.292-1.779-3.389-2.817C16.858,26.43,16.648,26.792,16.721,26.861z"/>
			<path opacity="0.1091" fill="#754C24" d="M17.503,28.045c1.098,1.039,2.136,1.975,3.391,2.82c0.13,0.089,0.358,0.03,0.488,0.119
				c-1.256-0.844-2.293-1.779-3.391-2.819C17.887,28.064,17.608,28.145,17.503,28.045z"/>
			<path opacity="0.1091" fill="#754C24" d="M17.001,26.285c1.096,1.04,2.134,1.973,3.39,2.818c0.01,0.006,0.299-0.404,0.306-0.4
				c-1.255-0.844-2.293-1.778-3.39-2.816C17.318,25.896,16.986,26.271,17.001,26.285z"/>
			<path opacity="0.1091" fill="#754C24" d="M16.933,27.452c1.096,1.04,2.133,1.976,3.388,2.819
				c-0.111-0.074-0.055-0.399-0.166-0.475c-1.255-0.846-2.293-1.78-3.388-2.819C16.874,27.08,16.824,27.35,16.933,27.452z"/>
			<path opacity="0.1091" fill="#754C24" d="M17.571,27.395c1.501,1.424,2.705,2.62,4.724,3.209
				c-0.119-0.034-0.144-0.393-0.264-0.428c-2.021-0.591-3.223-1.785-4.725-3.209C17.423,27.077,17.454,27.282,17.571,27.395z"/>
			<path opacity="0.1091" fill="#754C24" d="M18.396,27.076c1.503,1.423,2.706,2.618,4.725,3.208
				c-0.027-0.008,0.083-0.493,0.055-0.501c-2.021-0.59-3.224-1.784-4.726-3.207C18.522,26.644,18.321,27.005,18.396,27.076z"/>
			<path opacity="0.1091" fill="#754C24" d="M19.104,26.904c1.503,1.423,2.707,2.617,4.728,3.208
				c-0.064-0.02-0.001-0.48-0.066-0.499c-2.021-0.59-3.225-1.784-4.728-3.207C19.13,26.493,19.006,26.813,19.104,26.904z"/>
			<path opacity="0.1091" fill="#754C24" d="M17.751,26.024c1.502,1.421,2.706,2.615,4.726,3.205
				c0.149,0.043,0.352-0.089,0.501-0.044c-2.02-0.59-3.224-1.784-4.726-3.207C18.169,25.9,17.829,26.098,17.751,26.024z"/>
			<path opacity="0.1091" fill="#754C24" d="M18.822,27.564c1.502,1.423,2.706,2.62,4.726,3.208
				c0.046,0.015,0.227-0.436,0.272-0.422c-2.021-0.591-3.225-1.787-4.728-3.21C19.113,27.16,18.796,27.541,18.822,27.564z"/>
		</g>
	</g>
</g>
<g>
	<g>
		<g>
			<path opacity="0.1091" fill="#754C24" d="M18.91,26.464c0.994,1.14,2.347,2.965,3.691,4.108c0.05,0.041,0.447-0.209,0.476-0.169
				c-0.277-0.414-0.553-0.829-0.829-1.243c-0.023-0.034-0.452,0.202-0.474,0.169c0.275,0.414,0.552,0.829,0.827,1.243
				c0.158-0.057,0.317-0.112,0.476-0.169c-1.344-1.144-2.699-2.971-3.693-4.108C19.339,26.245,18.946,26.506,18.91,26.464z"/>
			<path opacity="0.1091" fill="#754C24" d="M18.22,25.796c0.969,1.238,1.955,2.804,3.211,3.885
				c0.077,0.068,0.441-0.232,0.389-0.318c-0.21-0.336-0.419-0.673-0.628-1.009c0.007,0.013-0.387,0.303-0.357,0.353
				c0.198,0.325,0.397,0.65,0.597,0.975c0.128-0.105,0.259-0.212,0.389-0.318c-1.335-1.145-2.832-2.919-3.856-3.983
				C18.072,25.489,18.124,25.673,18.22,25.796z"/>
			<path opacity="0.1091" fill="#754C24" d="M17.985,24.099c0.994,1.138,2.348,2.958,3.689,4.103
				c0.043,0.036,0.441-0.231,0.464-0.198c-0.277-0.412-0.553-0.826-0.828-1.238c-0.018-0.026-0.446,0.222-0.463,0.196
				c0.277,0.412,0.552,0.826,0.828,1.24c0.155-0.066,0.309-0.132,0.464-0.198c-1.341-1.143-2.697-2.963-3.69-4.101
				C18.409,23.857,18.014,24.133,17.985,24.099z"/>
			<path opacity="0.1091" fill="#754C24" d="M19.04,25.488c0.788,0.933,1.993,2.681,3.192,3.629
				c0.129,0.103,0.427-0.193,0.345-0.329c-0.201-0.335-0.401-0.672-0.602-1.006c-0.014-0.025-0.399,0.273-0.349,0.362
				c0.159,0.278,0.318,0.558,0.476,0.837c0.114-0.109,0.231-0.22,0.346-0.329c-1.129-0.892-3.11-3.394-3.355-3.665
				C19.162,25.064,18.962,25.396,19.04,25.488z"/>
			<path opacity="0.1091" fill="#754C24" d="M18.865,23.816c0.994,1.135,2.352,2.956,3.691,4.101c0.1,0.086,0.415,0.038,0.483,0.141
				c-0.275-0.414-0.553-0.827-0.828-1.24c-0.072-0.107-0.412-0.033-0.484-0.139c0.277,0.412,0.554,0.826,0.829,1.238
				c0.161,0.048,0.322,0.093,0.483,0.141c-1.34-1.146-2.698-2.967-3.691-4.102C19.253,23.847,18.955,23.919,18.865,23.816z"/>
			<path opacity="0.1091" fill="#754C24" d="M17.376,25.273c0.995,1.141,2.343,2.962,3.688,4.104
				c-0.071-0.06,0.125-0.411,0.068-0.499c-0.277-0.413-0.552-0.827-0.828-1.239c0.069,0.104-0.135,0.393-0.066,0.498
				c0.275,0.414,0.551,0.827,0.827,1.24c0.022-0.166,0.044-0.332,0.068-0.499c-1.344-1.142-2.694-2.962-3.689-4.104
				C17.512,24.855,17.3,25.188,17.376,25.273z"/>
			<path opacity="0.1091" fill="#754C24" d="M18.16,26.459c0.994,1.14,2.346,2.966,3.69,4.107c0.098,0.083,0.422,0.021,0.488,0.12
				c-0.275-0.415-0.552-0.829-0.828-1.242c-0.069-0.103-0.421-0.019-0.488-0.121c0.275,0.416,0.552,0.829,0.828,1.243
				c0.163,0.04,0.325,0.08,0.488,0.12c-1.345-1.143-2.696-2.967-3.69-4.107C18.555,26.474,18.247,26.56,18.16,26.459z"/>
			<path opacity="0.1091" fill="#754C24" d="M19.761,25.316c1.069,1.297,2.136,2.835,3.438,3.982
				c0.017,0.014,0.364-0.329,0.335-0.375c-0.216-0.348-0.434-0.693-0.649-1.041c-0.007-0.01-0.424,0.27-0.404,0.301
				c0.239,0.372,0.479,0.743,0.719,1.115c0.112-0.125,0.223-0.251,0.335-0.375c-1.359-1.193-2.739-2.909-3.84-4.105
				C19.784,24.917,19.669,25.207,19.761,25.316z"/>
			<path opacity="0.1091" fill="#754C24" d="M17.654,24.696c0.994,1.14,2.347,2.961,3.69,4.104
				c-0.015-0.013,0.327-0.368,0.306-0.399c-0.276-0.413-0.551-0.827-0.827-1.239c0.029,0.042-0.337,0.353-0.306,0.398
				c0.275,0.414,0.551,0.827,0.826,1.24c0.103-0.133,0.205-0.266,0.306-0.399c-1.343-1.143-2.696-2.966-3.69-4.104
				C17.978,24.317,17.628,24.668,17.654,24.696z"/>
			<path opacity="0.1091" fill="#754C24" d="M18.407,24.44c0.932,1.092,2.25,2.928,3.56,4.032c0.095,0.081,0.426-0.241,0.363-0.348
				c-0.188-0.315-0.375-0.631-0.563-0.946c-0.002-0.003-0.425,0.269-0.407,0.296c0.202,0.332,0.404,0.666,0.606,0.998
				c0.121-0.115,0.242-0.231,0.363-0.348c-1.229-1.037-2.51-2.71-3.422-3.729C18.838,24.317,18.465,24.51,18.407,24.44z"/>
			<path opacity="0.1091" fill="#754C24" d="M19.481,25.979c1.114,1.283,2.34,2.955,3.725,4.125c-0.042-0.035,0.243-0.4,0.207-0.458
				c-0.232-0.374-0.465-0.749-0.695-1.123c0.001,0.002-0.416,0.284-0.409,0.295c0.3,0.429,0.599,0.856,0.897,1.286
				c0.069-0.152,0.139-0.306,0.207-0.458c-1.309-1.183-2.645-2.931-3.662-4.091C19.779,25.587,19.447,25.939,19.481,25.979z"/>
			<path opacity="0.1091" fill="#754C24" d="M17.586,25.866c0.995,1.142,2.345,2.963,3.688,4.105
				c-0.104-0.088-0.087-0.357-0.166-0.475c-0.275-0.414-0.551-0.828-0.826-1.242c0.09,0.135,0.075,0.339,0.165,0.475
				c0.275,0.414,0.552,0.828,0.828,1.242c-0.055-0.158-0.11-0.317-0.166-0.475c-1.344-1.144-2.693-2.965-3.687-4.105
				C17.521,25.506,17.482,25.747,17.586,25.866z"/>
		</g>
	</g>
</g>
<g>
	<g>
		<g>
			<path opacity="0.1091" fill="#754C24" d="M20.151,26.912c0.736,0.774,1.564,1.431,2.484,1.972
				c0.083,0.057,0.395-0.223,0.475-0.169c-0.92-0.541-1.75-1.197-2.486-1.971C20.563,26.687,20.205,26.962,20.151,26.912z"/>
			<path opacity="0.1091" fill="#754C24" d="M19.467,26.257c0.745,0.768,1.583,1.414,2.515,1.94
				c-0.134-0.089-0.201-0.281-0.333-0.375c-0.907-0.553-1.722-1.217-2.447-1.993C19.319,25.938,19.346,26.148,19.467,26.257z"/>
			<path opacity="0.1091" fill="#754C24" d="M19.227,24.547c0.735,0.771,1.563,1.425,2.482,1.963
				c0.076,0.053,0.39-0.246,0.462-0.196c-0.919-0.539-1.747-1.193-2.482-1.963C19.635,24.301,19.275,24.592,19.227,24.547z"/>
			<path opacity="0.1091" fill="#754C24" d="M20.29,25.937c0.601,0.715,1.311,1.294,2.133,1.738c0.121,0.081,0.42-0.322,0.309-0.398
				c-0.872-0.515-1.668-1.128-2.389-1.839C20.414,25.498,20.216,25.863,20.29,25.937z"/>
			<path opacity="0.1091" fill="#754C24" d="M20.107,24.265c0.736,0.77,1.564,1.425,2.485,1.963c0.133,0.09,0.353,0.05,0.482,0.139
				c-0.919-0.537-1.748-1.192-2.484-1.962C20.478,24.301,20.216,24.364,20.107,24.265z"/>
			<path opacity="0.1091" fill="#754C24" d="M18.618,25.723c0.733,0.771,1.56,1.427,2.479,1.967c-0.061-0.042,0.131-0.456,0.066-0.5
				c-0.918-0.538-1.744-1.194-2.479-1.966C18.752,25.286,18.544,25.655,18.618,25.723z"/>
			<path opacity="0.1091" fill="#754C24" d="M19.401,26.907c0.735,0.773,1.563,1.431,2.483,1.971c0.13,0.09,0.358,0.032,0.487,0.12
				c-0.919-0.541-1.747-1.197-2.481-1.971C19.78,26.927,19.507,27.005,19.401,26.907z"/>
			<path opacity="0.1091" fill="#754C24" d="M21.005,25.765c0.736,0.772,1.564,1.428,2.483,1.967
				c-0.09-0.061,0.029-0.433-0.066-0.498c-0.921-0.54-1.748-1.195-2.484-1.967C21.03,25.352,20.908,25.677,21.005,25.765z"/>
			<path opacity="0.1091" fill="#754C24" d="M18.898,25.146c0.734,0.771,1.562,1.426,2.479,1.964
				c0.011,0.007,0.302-0.402,0.306-0.398c-0.918-0.538-1.744-1.193-2.479-1.964C19.211,24.753,18.883,25.134,18.898,25.146z"/>
			<path opacity="0.1091" fill="#754C24" d="M19.647,24.884c0.814,0.793,1.687,1.513,2.62,2.157
				c-0.025-0.017,0.222-0.442,0.183-0.468c-0.887-0.425-1.654-1.003-2.302-1.734C20.065,24.759,19.73,24.955,19.647,24.884z"/>
			<path opacity="0.1091" fill="#754C24" d="M20.721,26.428c0.737,0.772,1.564,1.428,2.485,1.967
				c-0.002-0.001,0.278-0.419,0.27-0.425c-0.92-0.539-1.748-1.194-2.483-1.967C21.009,26.02,20.698,26.406,20.721,26.428z"/>
			<path opacity="0.1091" fill="#754C24" d="M18.828,26.314c0.735,0.772,1.561,1.429,2.48,1.969
				c-0.11-0.076-0.052-0.399-0.166-0.476c-0.919-0.539-1.745-1.195-2.479-1.968C18.77,25.937,18.719,26.214,18.828,26.314z"/>
		</g>
	</g>
</g>
<g>
	<g>
		<g>
			<path opacity="0.1091" fill="#754C24" d="M20.117,24.566c0.184,0.208,0.368,0.414,0.551,0.621
				c0.044,0.049,0.435-0.214,0.475-0.168c-0.184-0.208-0.368-0.414-0.552-0.622C20.545,24.348,20.155,24.61,20.117,24.566z"/>
			<path opacity="0.1091" fill="#754C24" d="M19.432,23.912c0.184,0.206,0.368,0.413,0.552,0.62
				c-0.109-0.122-0.155-0.304-0.265-0.428c-0.184-0.207-0.368-0.414-0.552-0.62C19.276,23.607,19.322,23.787,19.432,23.912z"/>
			<path opacity="0.1091" fill="#754C24" d="M19.192,22.202c0.184,0.206,0.368,0.414,0.552,0.622
				c0.036,0.04,0.428-0.235,0.462-0.198c-0.184-0.206-0.368-0.414-0.552-0.621C19.617,21.963,19.225,22.24,19.192,22.202z"/>
			<path opacity="0.1091" fill="#754C24" d="M20.258,23.591c0.116,0.165,0.232,0.328,0.349,0.491
				c0.013,0.017,0.391-0.321,0.36-0.352c-0.219-0.213-0.438-0.427-0.656-0.64C20.386,23.164,20.193,23.498,20.258,23.591z"/>
			<path opacity="0.1091" fill="#754C24" d="M20.072,21.92c0.184,0.206,0.367,0.414,0.551,0.622
				c0.096,0.106,0.391,0.033,0.484,0.138c-0.184-0.207-0.368-0.414-0.552-0.621C20.46,21.952,20.165,22.023,20.072,21.92z"/>
			<path opacity="0.1091" fill="#754C24" d="M18.583,23.376c0.184,0.208,0.368,0.415,0.552,0.622
				c-0.072-0.081,0.141-0.416,0.066-0.499c-0.184-0.207-0.368-0.413-0.551-0.621C18.721,22.958,18.51,23.293,18.583,23.376z"/>
			<path opacity="0.1091" fill="#754C24" d="M19.366,24.561c0.184,0.208,0.368,0.414,0.552,0.622
				c0.093,0.104,0.397,0.017,0.489,0.119c-0.184-0.207-0.368-0.414-0.552-0.62C19.762,24.576,19.458,24.663,19.366,24.561z"/>
			<path opacity="0.1091" fill="#754C24" d="M20.966,23.421c0.184,0.206,0.368,0.413,0.552,0.619
				c-0.091-0.101,0.026-0.392-0.068-0.498c-0.184-0.206-0.367-0.414-0.551-0.621C20.99,23.023,20.872,23.313,20.966,23.421z"/>
			<path opacity="0.1091" fill="#754C24" d="M18.864,22.802c0.184,0.206,0.368,0.414,0.552,0.621
				c-0.019-0.021,0.33-0.373,0.306-0.399c-0.184-0.208-0.368-0.414-0.552-0.622C19.188,22.423,18.84,22.774,18.864,22.802z"/>
			<path opacity="0.1091" fill="#754C24" d="M19.613,22.536c0.184,0.207,0.368,0.414,0.552,0.621
				c0.068,0.076,0.436-0.116,0.501-0.044c-0.184-0.208-0.368-0.414-0.552-0.622C20.046,22.414,19.678,22.608,19.613,22.536z"/>
			<path opacity="0.1091" fill="#754C24" d="M20.684,24.081c0.184,0.206,0.368,0.413,0.552,0.62
				c-0.028-0.031,0.303-0.387,0.27-0.424c-0.184-0.208-0.368-0.414-0.551-0.622C20.981,23.688,20.651,24.043,20.684,24.081z"/>
			<path opacity="0.1091" fill="#754C24" d="M18.795,23.969c0.184,0.206,0.368,0.414,0.552,0.621
				c-0.103-0.116-0.063-0.359-0.166-0.476c-0.184-0.207-0.368-0.414-0.553-0.62C18.731,23.608,18.691,23.853,18.795,23.969z"/>
		</g>
	</g>
</g>
<g>
	<g>
		<g>
			<path opacity="0.1091" fill="#754C24" d="M17.019,16.613c1.769,2.627,3.5,5.43,5.965,7.484c0.06,0.048,0.405-0.245,0.464-0.197
				c-2.465-2.054-4.197-4.858-5.967-7.483C17.46,16.386,17.034,16.636,17.019,16.613z"/>
			<path opacity="0.1091" fill="#754C24" d="M17.899,16.331c1.77,2.625,3.501,5.43,5.968,7.482c0.118,0.099,0.365,0.043,0.483,0.142
				c-2.465-2.056-4.198-4.858-5.968-7.484C18.309,16.361,17.968,16.435,17.899,16.331z"/>
			<path opacity="0.1091" fill="#754C24" d="M16.41,17.789c1.767,2.627,3.498,5.434,5.965,7.485
				c-0.068-0.057,0.136-0.441,0.066-0.498c-2.466-2.053-4.196-4.858-5.965-7.485C16.544,17.391,16.338,17.682,16.41,17.789z"/>
			<path opacity="0.1091" fill="#754C24" d="M17.193,18.973c1.769,2.627,3.499,5.437,5.967,7.488
				c0.116,0.096,0.372,0.023,0.488,0.119c-2.466-2.053-4.198-4.858-5.966-7.486C17.611,18.989,17.261,19.074,17.193,18.973z"/>
			<path opacity="0.1091" fill="#754C24" d="M16.622,18.381c1.769,2.628,3.498,5.432,5.964,7.485
				c-0.109-0.092-0.054-0.382-0.165-0.475c-2.468-2.05-4.198-4.86-5.965-7.485C16.545,18.039,16.53,18.245,16.622,18.381z"/>
			<path opacity="0.1091" fill="#754C24" d="M17.943,18.979c1.416,2.398,3.095,4.595,5.037,6.591
				c0.433,0.502,0.756,0.846,1.396,1.028c0.132,0.037,0.343-0.204,0.475-0.166c-0.392-0.046-0.71-0.228-0.958-0.544
				c-2.223-1.851-3.888-4.722-5.477-7.079C18.392,18.771,17.964,19.009,17.943,18.979z"/>
			<path opacity="0.1091" fill="#754C24" d="M16.691,17.213c1.415,2.397,3.092,4.592,5.033,6.587
				c0.435,0.504,0.759,0.847,1.399,1.032c0.06,0.017,0.247-0.418,0.305-0.401c-0.391-0.044-0.71-0.226-0.958-0.542
				c-2.222-1.85-3.887-4.719-5.473-7.075C17.023,16.854,16.658,17.164,16.691,17.213z"/>
			<path opacity="0.1091" fill="#754C24" d="M25.498,27.269c0.481,1.304,0.229,2.041-0.828,2.924
				c0.159-0.055,0.317-0.111,0.476-0.168c0.057-0.059,0.114-0.116,0.171-0.175c-0.104,0.108-0.366,0.063-0.473,0.17
				c-0.059,0.057-0.115,0.115-0.174,0.173c0.106-0.106,0.357-0.068,0.476-0.168c1.055-0.884,1.309-1.621,0.826-2.924
				C25.97,27.097,25.498,27.27,25.498,27.269z"/>
			<path opacity="0.1091" fill="#754C24" d="M17.251,18.313c1.779,2.641,3.494,5.428,5.975,7.497
				c0.354,0.295,0.833,0.149,1.21,0.498c0.937,0.866-0.204,2.346-0.812,2.829c0.156,0.029,0.313,0.059,0.47,0.087
				c0.063-0.073,0.127-0.145,0.19-0.219c-0.034,0.041-0.419-0.141-0.501-0.05c-0.053,0.062-0.106,0.122-0.159,0.182
				c-0.051,0.059,0.401,0.142,0.47,0.087c1.008-0.806,1.348-1.509,0.832-2.798c-0.309-0.771-1.305-0.855-1.966-1.044
				c-0.163-0.137-0.328-0.274-0.491-0.41c-2.01-2.199-3.833-4.555-5.466-7.065C17.052,17.979,17.174,18.197,17.251,18.313z"/>
			<path opacity="0.1091" fill="#754C24" d="M24.57,24.9c0.483,1.302,0.228,2.038-0.827,2.922c0.154-0.066,0.309-0.132,0.464-0.198
				c0.058-0.057,0.114-0.113,0.173-0.172c-0.111,0.111-0.352,0.087-0.463,0.198c-0.058,0.057-0.116,0.113-0.174,0.172
				c0.11-0.109,0.343-0.096,0.464-0.198c1.055-0.883,1.309-1.619,0.826-2.922C25.036,24.709,24.567,24.892,24.57,24.9z"/>
			<path opacity="0.1091" fill="#754C24" d="M18.082,18.003c1.298,2.371,2.902,4.511,4.813,6.424
				c0.435,0.501,0.766,0.951,1.436,1.07c2.089,0.373,1.405,2.389,0.266,3.219c0.149,0.006,0.298,0.012,0.447,0.017
				c0.056-0.071,0.112-0.144,0.168-0.216c0.047-0.06-0.409-0.033-0.477,0.04c-0.059,0.063-0.116,0.126-0.173,0.189
				c-0.095,0.103,0.388,0.062,0.447,0.017c1.473-1.114,1.42-2.074,0.243-3.38c-0.156-0.034-0.313-0.069-0.468-0.104
				c-0.41-0.119-0.756-0.338-1.038-0.656c-2.213-1.875-3.97-4.783-5.614-7.12C18.205,17.604,18.01,17.892,18.082,18.003z"/>
			<path opacity="0.1091" fill="#754C24" d="M25.452,24.618c0.484,1.301,0.229,2.038-0.826,2.92c0.162,0.047,0.322,0.093,0.483,0.14
				c0.058-0.057,0.114-0.113,0.173-0.172c-0.057,0.058-0.425-0.197-0.483-0.14c-0.058,0.057-0.114,0.115-0.173,0.172
				c0.059-0.058,0.414,0.198,0.483,0.14c1.055-0.883,1.309-1.62,0.827-2.922C25.902,24.662,25.487,24.71,25.452,24.618z"/>
			<path opacity="0.1091" fill="#754C24" d="M23.962,26.076c0.303,0.5,0.376,1.033,0.22,1.598c0.022-0.166,0.044-0.332,0.066-0.5
				c-0.163,0.589-0.514,1.031-1.049,1.326c-0.022,0.168-0.045,0.334-0.066,0.5c0.058-0.059,0.116-0.116,0.174-0.173
				c0.095-0.095-0.027-0.406,0.066-0.499c-0.058,0.057-0.116,0.115-0.174,0.172c-0.092,0.092,0.029,0.42-0.066,0.5
				c1.151-0.965,1.417-2.01,0.894-3.422C24.078,25.717,23.91,25.937,23.962,26.076z"/>
			<path opacity="0.1091" fill="#754C24" d="M24.746,27.263c0.482,1.304,0.228,2.042-0.827,2.925c0.163,0.04,0.325,0.08,0.488,0.12
				c0.059-0.058,0.115-0.115,0.173-0.173c-0.061,0.061-0.428-0.183-0.488-0.122c-0.057,0.059-0.115,0.116-0.173,0.175
				c0.063-0.063,0.415,0.181,0.488,0.12c1.055-0.883,1.31-1.621,0.828-2.925C25.202,27.296,24.778,27.352,24.746,27.263z"/>
			<path opacity="0.1091" fill="#754C24" d="M18.797,17.832c1.771,2.627,3.501,5.431,5.967,7.485
				c0.306,0.097,0.615,0.178,0.93,0.242c0.543,0.281,0.857,0.723,0.94,1.325c-0.024-0.166-0.046-0.332-0.068-0.499
				c-0.079,1.083-0.276,1.462-1.11,2.159c0.022,0.167,0.045,0.333,0.068,0.499c0.057-0.059,0.113-0.115,0.172-0.173
				c0.073-0.074-0.138-0.428-0.066-0.499c-0.059,0.057-0.115,0.115-0.174,0.173c-0.068,0.069,0.136,0.44,0.068,0.499
				c0.89-0.746,1.212-1.495,1.051-2.605c-0.122-0.847-0.623-1.304-1.413-1.485c-0.391-0.045-0.711-0.227-0.957-0.544
				c-2.221-1.849-3.888-4.719-5.476-7.075C18.813,17.455,18.712,17.706,18.797,17.832z"/>
			<path opacity="0.1091" fill="#754C24" d="M24.242,25.499c0.368,0.998,0.313,1.411-0.157,2.361
				c0.101-0.133,0.203-0.266,0.306-0.398c-0.225,0.187-0.447,0.374-0.671,0.561c-0.102,0.133-0.204,0.266-0.307,0.4
				c0.059-0.059,0.116-0.115,0.175-0.173c0.117-0.116,0.188-0.283,0.306-0.399c-0.058,0.057-0.116,0.115-0.174,0.172
				c-0.115,0.115-0.182,0.296-0.307,0.4c1.096-0.917,1.718-1.746,1.134-3.322C24.579,25.183,24.211,25.415,24.242,25.499z"/>
			<path opacity="0.1091" fill="#754C24" d="M17.441,16.951c1.415,2.396,3.094,4.592,5.036,6.587c0.432,0.5,0.76,0.84,1.396,1.024
				c1.323,0.383,2.036,2.041,0.976,3.253c-0.04,0.047-0.418-0.125-0.501-0.031c-0.054,0.062-0.106,0.121-0.16,0.182
				c-0.042,0.047,0.404,0.12,0.473,0.065c1.278-1.027,1.511-2.231,0.181-3.396c-0.155-0.036-0.311-0.071-0.467-0.107
				c-0.392-0.043-0.711-0.226-0.956-0.545c-2.222-1.863-3.884-4.713-5.476-7.077C17.894,16.835,17.482,17.013,17.441,16.951z"/>
			<path opacity="0.1091" fill="#754C24" d="M18.515,18.495c1.415,2.397,3.093,4.593,5.036,6.588
				c0.433,0.502,0.756,0.847,1.396,1.029c1.573,0.453,1.6,1.747,0.963,3.031c0.09-0.141,0.182-0.282,0.271-0.424
				c-0.225,0.188-0.447,0.374-0.671,0.561c-0.09,0.142-0.181,0.284-0.271,0.426c0.059-0.059,0.115-0.116,0.173-0.174
				c0.115-0.117,0.155-0.309,0.271-0.425c-0.059,0.059-0.115,0.115-0.173,0.173c-0.112,0.114-0.148,0.324-0.271,0.426
				c0.427-0.356,0.713-0.526,0.941-0.986c0.606-1.226,0.646-2.66-0.965-3.03c-0.392-0.046-0.71-0.227-0.958-0.544
				c-2.221-1.85-3.886-4.719-5.474-7.076C18.82,18.122,18.475,18.435,18.515,18.495z"/>
			<path opacity="0.1091" fill="#754C24" d="M24.172,26.669c0.093,0.252,0.186,0.502,0.277,0.753
				c-0.053-0.153-0.107-0.309-0.159-0.462c-0.081,1.081-0.278,1.46-1.112,2.157c0.056,0.159,0.111,0.317,0.167,0.475
				c0.058-0.057,0.116-0.114,0.174-0.173c0.052-0.051-0.217-0.424-0.166-0.475c-0.058,0.059-0.116,0.115-0.175,0.173
				c-0.048,0.05,0.214,0.437,0.167,0.475c1.396-1.168,1.176-2.004,0.662-3.397C24.065,26.351,24.114,26.513,24.172,26.669z"/>
		</g>
	</g>
</g>
<g>
	<g>
		<g>
			<path opacity="0.1091" fill="#754C24" d="M24.808,30.879c-0.115,0.104-0.23,0.207-0.345,0.311
				c0.113-0.103,0.356-0.063,0.473-0.169c0.115-0.104,0.23-0.206,0.347-0.31C25.169,30.813,24.925,30.774,24.808,30.879z"/>
			<path opacity="0.1091" fill="#754C24" d="M23.862,29.794c-0.116,0.103-0.232,0.205-0.35,0.308
				c-0.024,0.023,0.308,0.401,0.324,0.386c0.096-0.088,0.192-0.177,0.289-0.266C24.154,30.197,23.846,29.808,23.862,29.794z"/>
			<path opacity="0.1091" fill="#754C24" d="M23.883,28.514c-0.115,0.104-0.229,0.208-0.345,0.312
				c0.116-0.105,0.345-0.09,0.462-0.196c0.115-0.104,0.23-0.208,0.345-0.312C24.23,28.421,24.002,28.406,23.883,28.514z"/>
			<path opacity="0.1091" fill="#754C24" d="M24.993,29.402c-0.159,0.105-0.318,0.212-0.477,0.317
				c-0.083,0.057,0.338,0.411,0.36,0.352c0.021-0.056,0.042-0.112,0.063-0.168C24.974,29.813,24.931,29.444,24.993,29.402z"/>
			<path opacity="0.1091" fill="#754C24" d="M24.763,28.231c-0.114,0.104-0.229,0.208-0.345,0.312
				c0.063-0.057,0.414,0.201,0.483,0.14c0.115-0.104,0.229-0.207,0.345-0.313C25.186,28.427,24.832,28.168,24.763,28.231z"/>
			<path opacity="0.1091" fill="#754C24" d="M23.34,29.19c-0.113,0.104-0.229,0.208-0.343,0.311C22.9,29.59,23.023,29.916,22.931,30
				c0.113-0.104,0.229-0.207,0.343-0.311C23.37,29.601,23.249,29.273,23.34,29.19z"/>
			<path opacity="0.1091" fill="#754C24" d="M24.057,30.874c-0.114,0.104-0.229,0.206-0.344,0.31
				c0.067-0.061,0.416,0.186,0.488,0.121c0.115-0.104,0.229-0.208,0.345-0.311C24.479,31.054,24.131,30.808,24.057,30.874z"/>
			<path opacity="0.1091" fill="#754C24" d="M25.592,29.233c-0.087,0.104-0.174,0.206-0.26,0.311c-0.083,0.098,0,0.425-0.097,0.494
				c0.141-0.103,0.283-0.204,0.425-0.306C25.736,29.677,25.535,29.302,25.592,29.233z"/>
			<path opacity="0.1091" fill="#754C24" d="M23.857,28.712c-0.114,0.104-0.229,0.208-0.343,0.312
				c-0.123,0.11-0.186,0.289-0.308,0.399c0.115-0.104,0.23-0.207,0.345-0.311C23.675,29.001,23.736,28.822,23.857,28.712z"/>
			<path opacity="0.1091" fill="#754C24" d="M24.317,28.852c-0.066,0.014-0.135,0.029-0.201,0.044
				c-0.019,0.005,0.245,0.446,0.255,0.435c0.146-0.174,0.289-0.347,0.435-0.52C24.756,28.87,24.407,28.831,24.317,28.852z"/>
			<path opacity="0.1091" fill="#754C24" d="M25.648,29.97c-0.114,0.104-0.229,0.208-0.346,0.311c-0.12,0.109-0.15,0.318-0.27,0.425
				c0.114-0.104,0.23-0.206,0.346-0.311C25.499,30.285,25.53,30.076,25.648,29.97z"/>
			<path opacity="0.1091" fill="#754C24" d="M23.319,29.807c-0.115,0.103-0.229,0.206-0.343,0.311
				c-0.053,0.045,0.21,0.433,0.164,0.475c0.115-0.104,0.229-0.208,0.345-0.311C23.537,30.234,23.275,29.846,23.319,29.807z"/>
		</g>
	</g>
</g>
<g>
	<g>
		<g>
			<path opacity="0.1091" fill="#754C24" d="M24.67,18.255c-0.758,1.174-1.517,2.348-2.275,3.521c0.071-0.109,0.4-0.055,0.474-0.168
				c0.759-1.174,1.517-2.348,2.275-3.521C25.073,18.195,24.743,18.142,24.67,18.255z"/>
			<path opacity="0.1091" fill="#754C24" d="M23.722,17.171c-0.801,1.246-1.604,2.493-2.405,3.74
				c0.046-0.072,0.453,0.086,0.502,0.01c0.723-1.107,1.445-2.215,2.167-3.322C24.029,17.534,23.687,17.227,23.722,17.171z"/>
			<path opacity="0.1091" fill="#754C24" d="M23.744,15.89c-0.759,1.172-1.519,2.343-2.277,3.514
				c0.075-0.115,0.386-0.079,0.462-0.197c0.76-1.171,1.519-2.342,2.278-3.514C24.133,15.808,23.822,15.771,23.744,15.89z"/>
			<path opacity="0.1091" fill="#754C24" d="M24.857,16.779c-0.795,1.146-1.589,2.293-2.384,3.441
				c-0.06,0.087,0.372,0.36,0.428,0.265c0.636-1.069,1.27-2.137,1.904-3.206C24.882,17.149,24.775,16.897,24.857,16.779z"/>
			<path opacity="0.1091" fill="#754C24" d="M24.625,15.607c-0.759,1.171-1.516,2.344-2.274,3.515
				c0.024-0.039,0.455,0.183,0.483,0.14c0.758-1.172,1.517-2.343,2.275-3.514C25.086,15.783,24.655,15.562,24.625,15.607z"/>
			<path opacity="0.1091" fill="#754C24" d="M23.203,16.566c-0.76,1.172-1.52,2.345-2.28,3.517
				c-0.083,0.128,0.014,0.372-0.068,0.498c0.76-1.172,1.52-2.345,2.281-3.517C23.22,16.936,23.121,16.692,23.203,16.566z"/>
			<path opacity="0.1091" fill="#754C24" d="M23.92,18.251c-0.76,1.172-1.519,2.346-2.278,3.52c0.029-0.044,0.458,0.169,0.489,0.121
				c0.76-1.174,1.518-2.348,2.277-3.521C24.381,18.413,23.952,18.2,23.92,18.251z"/>
			<path opacity="0.1091" fill="#754C24" d="M25.456,16.609c-0.758,1.172-1.517,2.345-2.276,3.517
				c-0.069,0.109,0.136,0.394,0.067,0.5c0.759-1.172,1.518-2.346,2.277-3.519C25.595,16.998,25.39,16.713,25.456,16.609z"/>
			<path opacity="0.1091" fill="#754C24" d="M23.422,16.477c-0.762,1.176-1.522,2.353-2.284,3.528
				c0.09-0.14,0.214-0.259,0.306-0.398c0.755-1.168,1.513-2.338,2.27-3.506C23.665,16.173,23.496,16.36,23.422,16.477z"/>
			<path opacity="0.1091" fill="#754C24" d="M24.166,16.229c-0.757,1.142-1.516,2.285-2.272,3.427
				c0.021-0.032,0.451,0.194,0.479,0.149c0.765-1.207,1.53-2.414,2.295-3.621C24.616,16.266,24.228,16.139,24.166,16.229z"/>
			<path opacity="0.1091" fill="#754C24" d="M25.479,17.39c-0.758,1.172-1.517,2.345-2.275,3.517
				c-0.034,0.054-0.279,0.446-0.21,0.338c0.759-1.172,1.519-2.345,2.276-3.517C25.306,17.674,25.549,17.282,25.479,17.39z"/>
			<path opacity="0.1091" fill="#754C24" d="M23.183,17.182c-0.762,1.172-1.521,2.346-2.281,3.519
				c-0.057,0.088,0.222,0.39,0.166,0.475c0.76-1.172,1.52-2.346,2.279-3.518C23.405,17.567,23.128,17.264,23.183,17.182z"/>
		</g>
	</g>
</g>
<g>
	<g>
		<g>
			<path opacity="0.1091" fill="#754C24" d="M21.945,15.322c-0.601,0.589-1.272,1.085-2.012,1.485
				c0.158-0.057,0.315-0.113,0.473-0.169c-0.386,0.104-0.773,0.208-1.16,0.313c-0.161,0.043-0.313,0.125-0.474,0.169
				c1.604-0.434,2.258-0.778,3.646-1.967C22.301,15.254,22.064,15.22,21.945,15.322z"/>
			<path opacity="0.1091" fill="#754C24" d="M21.021,12.958c-0.602,0.588-1.273,1.083-2.015,1.479
				c0.155-0.065,0.309-0.131,0.463-0.196c-0.388,0.104-0.773,0.208-1.161,0.31c-0.161,0.043-0.302,0.155-0.462,0.198
				c1.585-0.423,2.275-0.826,3.638-1.988C21.362,12.865,21.142,12.854,21.021,12.958z"/>
			<path opacity="0.1091" fill="#754C24" d="M21.899,12.676c-1.056,0.901-1.824,1.43-3.171,1.79c0.138-0.038,0.343,0.177,0.483,0.14
				c1.347-0.361,2.115-0.889,3.172-1.79C22.314,12.874,21.971,12.615,21.899,12.676z"/>
			<path opacity="0.1091" fill="#754C24" d="M20.479,13.633c-1.057,0.904-1.828,1.433-3.178,1.794
				c-0.062,0.017-0.005,0.481-0.068,0.498c1.35-0.361,2.121-0.89,3.178-1.792C20.508,14.051,20.385,13.714,20.479,13.633z"/>
			<path opacity="0.1091" fill="#754C24" d="M21.195,15.316c-1.056,0.904-1.826,1.434-3.174,1.798
				c0.141-0.039,0.346,0.158,0.489,0.121c1.348-0.364,2.118-0.894,3.174-1.799C21.61,15.499,21.27,15.251,21.195,15.316z"/>
			<path opacity="0.1091" fill="#754C24" d="M20.998,13.159c-1.057,0.901-1.828,1.43-3.176,1.791
				c-0.13,0.035-0.179,0.365-0.306,0.398c1.348-0.361,2.119-0.888,3.177-1.791C20.817,13.451,20.874,13.264,20.998,13.159z"/>
			<path opacity="0.1091" fill="#754C24" d="M20.457,14.25c-1.058,0.902-1.829,1.433-3.176,1.795
				c0.011-0.002,0.153,0.478,0.166,0.475c1.348-0.362,2.119-0.891,3.176-1.795C20.67,14.684,20.413,14.287,20.457,14.25z"/>
			<path opacity="0.1091" fill="#754C24" d="M20.997,14.238c-1.058,0.904-1.827,1.433-3.177,1.795
				c0.088,0.143,0.177,0.285,0.266,0.427c0.091-0.149,0.184-0.299,0.275-0.448c0.041-0.063-0.303-0.364-0.264-0.428
				c-0.091,0.149-0.184,0.299-0.277,0.449c-0.011,0.019,0.259,0.43,0.266,0.427c1.348-0.362,2.119-0.891,3.177-1.795
				C21.285,14.646,20.98,14.252,20.997,14.238z"/>
			<path opacity="0.1091" fill="#754C24" d="M22.14,13.847c-1.056,0.904-1.825,1.433-3.173,1.793
				c-0.017,0.167-0.035,0.334-0.053,0.501c0.093-0.15,0.184-0.299,0.277-0.449c0.079-0.128-0.027-0.372,0.051-0.5
				c-0.091,0.149-0.184,0.297-0.275,0.447c-0.039,0.064,0,0.487-0.053,0.501c1.348-0.363,2.118-0.892,3.174-1.794
				C22.182,14.268,22.049,13.925,22.14,13.847z"/>
			<path opacity="0.1091" fill="#754C24" d="M22.729,13.678c-1.056,0.902-1.823,1.431-3.17,1.792c0.022,0.166,0.044,0.332,0.066,0.5
				c0.092-0.149,0.184-0.299,0.276-0.448c0.067-0.111-0.134-0.389-0.068-0.499c-0.091,0.148-0.183,0.298-0.274,0.447
				c-0.03,0.05,0.099,0.49,0.066,0.5c1.347-0.363,2.115-0.891,3.17-1.794C22.867,14.114,22.662,13.734,22.729,13.678z"/>
			<path opacity="0.1091" fill="#754C24" d="M21.441,13.294c-1.056,0.902-1.825,1.43-3.173,1.791
				c0.167-0.015,0.335-0.031,0.501-0.044c0.093-0.149,0.184-0.299,0.277-0.448c-0.053,0.084-0.449-0.042-0.501,0.044
				c-0.093,0.15-0.184,0.299-0.277,0.449c0.039-0.061,0.417-0.022,0.501-0.044c1.348-0.361,2.118-0.889,3.174-1.791
				C21.841,13.337,21.548,13.205,21.441,13.294z"/>
			<path opacity="0.1091" fill="#754C24" d="M22.782,14.411c-0.309,0.266-0.618,0.53-0.929,0.796
				c-0.551,0.685-1.207,0.868-1.967,0.551c-0.087,0.144-0.18,0.284-0.269,0.427c-0.09,0.145-0.178,0.291-0.269,0.436
				c-0.002,0.004-0.004,0.008-0.007,0.013c1.347-0.364,2.115-0.893,3.17-1.796C22.636,14.731,22.662,14.515,22.782,14.411z"/>
		</g>
	</g>
</g>
<g>
	<g>
		<g>
			<path opacity="0.1091" fill="#754C24" d="M16.64,13.683c0.155,0,0.309-0.196,0.464-0.196
				C16.948,13.487,16.795,13.683,16.64,13.683z"/>
			<path opacity="0.1091" fill="#754C24" d="M18.003,13.541c-0.162,0-0.322-0.14-0.483-0.14
				C17.681,13.401,17.841,13.541,18.003,13.541z"/>
			<path opacity="0.1091" fill="#754C24" d="M16.032,14.857c0.023,0,0.045-0.498,0.066-0.498
				C16.076,14.359,16.054,14.857,16.032,14.857z"/>
			<path opacity="0.1091" fill="#754C24" d="M16.244,15.448c-0.055,0-0.11-0.475-0.166-0.475
				C16.133,14.973,16.188,15.448,16.244,15.448z"/>
			<path opacity="0.1091" fill="#754C24" d="M18.038,15.877c-0.138-0.011-0.277-0.023-0.414-0.035
				c-0.152-0.014-0.323,0.182-0.475,0.167c0.139,0.013,0.277,0.024,0.416,0.036C17.716,16.059,17.885,15.865,18.038,15.877z"/>
			<path opacity="0.1091" fill="#754C24" d="M16.618,14.962c-0.139-0.011-0.277-0.022-0.414-0.035
				c0.097,0.008,0.164,0.419,0.265,0.428c0.138,0.012,0.275,0.023,0.414,0.034C16.785,15.383,16.719,14.972,16.618,14.962z"/>
			<path opacity="0.1091" fill="#754C24" d="M17.759,14.572c-0.138-0.011-0.275-0.023-0.414-0.035c-0.006,0-0.05,0.501-0.053,0.501
				c0.139,0.011,0.275,0.022,0.414,0.033C17.712,15.073,17.757,14.572,17.759,14.572z"/>
			<path opacity="0.1091" fill="#754C24" d="M18.348,14.401c-0.138-0.011-0.277-0.022-0.415-0.033
				c0.033,0.003,0.029,0.496,0.066,0.499c0.138,0.011,0.277,0.022,0.415,0.033C18.381,14.897,18.385,14.404,18.348,14.401z"/>
			<path opacity="0.1091" fill="#754C24" d="M16.619,13.882c-0.139-0.011-0.277-0.022-0.414-0.033
				c-0.091-0.007-0.216,0.407-0.306,0.4c0.137,0.011,0.275,0.022,0.414,0.033C16.404,14.29,16.529,13.875,16.619,13.882z"/>
			<path opacity="0.1091" fill="#754C24" d="M17.563,13.975c-0.139-0.011-0.277-0.022-0.416-0.033
				c-0.165-0.014-0.336,0.058-0.501,0.044c0.139,0.011,0.277,0.022,0.416,0.033C17.227,14.033,17.398,13.963,17.563,13.975z"/>
			<path opacity="0.1091" fill="#754C24" d="M18.402,15.137c-0.139-0.013-0.277-0.024-0.416-0.035
				c-0.079-0.007-0.194,0.43-0.27,0.423c0.139,0.013,0.277,0.023,0.416,0.035C18.212,15.567,18.327,15.13,18.402,15.137z"/>
		</g>
	</g>
</g>
<g>
	<g>
		<g>
			<path opacity="0.1091" fill="#754C24" d="M17.726,11.04c0.103,0,0.205-0.397,0.308-0.397
				C17.931,10.643,17.829,11.04,17.726,11.04z"/>
			<path opacity="0.1091" fill="#754C24" d="M18.296,12.148c0.126-0.035,0.253-0.069,0.379-0.104
				c-0.044,0.013-0.217-0.441-0.265-0.428c-0.127,0.035-0.253,0.069-0.38,0.104C18.075,11.708,18.248,12.161,18.296,12.148z"/>
			<path opacity="0.1091" fill="#754C24" d="M19.12,11.83c0.126-0.035,0.252-0.069,0.379-0.104c0.06-0.017-0.005-0.484,0.051-0.501
				c-0.126,0.035-0.252,0.069-0.377,0.104C19.112,11.346,19.177,11.813,19.12,11.83z"/>
			<path opacity="0.1091" fill="#754C24" d="M19.827,11.658c0.126-0.035,0.253-0.069,0.379-0.104
				c0.022-0.006-0.087-0.493-0.068-0.499c-0.126,0.035-0.252,0.069-0.378,0.104C19.737,11.166,19.848,11.653,19.827,11.658z"/>
			<path opacity="0.1091" fill="#754C24" d="M18.976,10.734c0.127-0.035,0.253-0.069,0.379-0.104
				c-0.159,0.044-0.341,0.001-0.501,0.046c-0.126,0.033-0.252,0.068-0.379,0.102C18.634,10.735,18.817,10.777,18.976,10.734z"/>
			<path opacity="0.1091" fill="#754C24" d="M19.545,12.318c0.127-0.035,0.253-0.069,0.379-0.105c0.12-0.032,0.151-0.39,0.27-0.423
				c-0.125,0.034-0.251,0.069-0.379,0.104C19.694,11.927,19.666,12.285,19.545,12.318z"/>
		</g>
	</g>
</g>
<g>
	<g>
		<g>
			<path opacity="0.1091" fill="#754C24" d="M19.938,9.589c-0.354,0.004-0.707,0.008-1.062,0.013
				c-0.299,0.003-0.354,0.531-0.01,0.53c0.35-0.003,0.699-0.006,1.049-0.007C20.225,10.122,20.281,9.585,19.938,9.589z"/>
			<path opacity="0.1091" fill="#754C24" d="M19.092,9.117c-0.336,0.008-0.673,0.017-1.009,0.025
				c-0.426,0.011,1.009,1.359,1.413,1.4c0.27,0.029,0.538,0.057,0.808,0.084C20.669,10.665,19.588,9.106,19.092,9.117z"/>
			<path opacity="0.1091" fill="#754C24" d="M18.955,7.236c-0.347,0.015-0.696,0.03-1.043,0.047
				c-0.389,0.017,1.358,1.72,1.851,1.794c0.263,0.039,0.527,0.077,0.791,0.116c0.49,0.072-0.219-0.731-0.197-0.706
				C20.112,8.215,19.391,7.217,18.955,7.236z"/>
			<path opacity="0.1091" fill="#754C24" d="M20.172,8.853c-0.332,0.006-0.665,0.01-0.997,0.014
				c-0.443,0.007,0.865,1.247,1.236,1.286c0.267,0.028,0.534,0.054,0.801,0.082C21.604,10.274,20.625,8.847,20.172,8.853z"/>
			<path opacity="0.1091" fill="#754C24" d="M20.006,7.282c-0.338,0.01-0.675,0.02-1.013,0.029
				c-0.447,0.012,0.973,1.319,1.348,1.367c0.26,0.035,0.521,0.068,0.781,0.103C21.492,8.829,20.493,7.268,20.006,7.282z"/>
			<path opacity="0.1091" fill="#754C24" d="M18.175,8.314c-0.346,0.014-0.692,0.027-1.038,0.042
				c-0.395,0.015,1.289,1.579,1.753,1.643c0.263,0.036,0.526,0.072,0.789,0.108c0.472,0.063-0.194-0.688-0.177-0.669
				C19.257,9.174,18.598,8.298,18.175,8.314z"/>
			<path opacity="0.1091" fill="#754C24" d="M19.29,9.822c-0.335-0.003-0.668-0.007-1.003-0.01c-0.432-0.006-0.158,0.624,0.182,0.63
				c0.303,0.004,0.604,0.009,0.908,0.014C19.802,10.462,19.629,9.826,19.29,9.822z"/>
			<path opacity="0.1091" fill="#754C24" d="M20.677,8.54c-0.275-0.001-0.551-0.003-0.825-0.003
				c-0.649-0.003,0.183,0.833,0.49,0.849c0.252,0.014,0.505,0.026,0.757,0.04C21.751,9.46,21.051,8.542,20.677,8.54z"/>
			<path opacity="0.1091" fill="#754C24" d="M18.553,7.752c-0.348,0.015-0.696,0.032-1.044,0.047
				c-0.501,0.022,0.323,0.713,0.32,0.711c0.421,0.367,1.074,1.085,1.662,1.174c0.263,0.039,0.526,0.079,0.789,0.118
				c0.508,0.076-0.266-0.77-0.231-0.731C19.787,8.786,19.009,7.733,18.553,7.752z"/>
			<path opacity="0.1091" fill="#754C24" d="M19.578,7.841c-0.34,0.014-0.681,0.028-1.023,0.042
				c-0.395,0.015,1.278,1.716,1.768,1.776c0.271,0.033,0.542,0.066,0.813,0.1c0.48,0.058-0.195-0.707-0.186-0.696
				C20.709,8.792,20.01,7.823,19.578,7.841z"/>
			<path opacity="0.1091" fill="#754C24" d="M20.571,9.136c-0.327-0.004-0.655-0.009-0.983-0.014
				c-0.472-0.007-0.118,0.659,0.216,0.667c0.292,0.007,0.584,0.014,0.876,0.021C21.148,9.823,20.904,9.142,20.571,9.136z"/>
			<path opacity="0.1091" fill="#754C24" d="M18.385,9.037c-0.338,0.008-0.677,0.016-1.015,0.022
				c-0.433,0.01,0.962,1.225,1.332,1.268c0.26,0.031,0.521,0.061,0.78,0.091C19.847,10.461,18.863,9.027,18.385,9.037z"/>
		</g>
	</g>
</g>
<g>
	<g>
		<g>
			<path opacity="0.1091" fill="#754C24" d="M19.344,10.141c-0.022,0-0.044-0.5-0.066-0.5C19.298,9.642,19.322,10.141,19.344,10.141
				z"/>
			<path opacity="0.1091" fill="#754C24" d="M17.813,10.63c1.333-0.091,2.666-0.183,3.999-0.274
				c-0.078,0.005-0.187-0.433-0.264-0.428c-1.333,0.091-2.666,0.183-3.999,0.274C17.625,10.197,17.734,10.635,17.813,10.63z"/>
			<path opacity="0.1091" fill="#754C24" d="M18.637,10.312c1.334-0.091,2.668-0.184,4.002-0.275
				c0.029-0.003,0.025-0.498,0.053-0.501c-1.334,0.093-2.668,0.184-4.003,0.277C18.659,9.813,18.665,10.31,18.637,10.312z"/>
			<path opacity="0.1091" fill="#754C24" d="M18.006,9.26c1.329-0.093,2.659-0.186,3.988-0.278c0.167-0.012,0.333-0.035,0.5-0.046
				c-1.338,0.094-2.675,0.187-4.014,0.281C18.341,9.227,18.094,9.254,18.006,9.26z"/>
		</g>
	</g>
</g>
<g>
	<g>
		<g>
			<path opacity="0.1091" fill="#754C24" d="M19.301,10.313c0.869-0.048,1.738-0.096,2.608-0.144c0.16-0.01,0.313-0.159,0.474-0.169
				c-0.87,0.049-1.739,0.096-2.608,0.144C19.614,10.152,19.462,10.305,19.301,10.313z"/>
			<path opacity="0.1091" fill="#754C24" d="M15.52,9.04c1.683-0.446,3.394-0.657,5.135-0.637c0.111-0.007,0.198-0.393,0.308-0.4
				c-1.741-0.021-3.454,0.192-5.137,0.637C15.701,8.665,15.642,9.016,15.52,9.04z"/>
			<path opacity="0.1091" fill="#754C24" d="M16.089,10.147c2.698-0.522,4.952-0.65,7.69-0.411c-0.1-0.01-0.165-0.419-0.267-0.428
				c-2.736-0.239-4.992-0.111-7.689,0.411C15.88,9.708,16.028,10.159,16.089,10.147z"/>
			<path opacity="0.1091" fill="#754C24" d="M16.913,9.829c2.699-0.523,4.955-0.652,7.693-0.413c0.004,0,0.05-0.501,0.053-0.501
				c-2.74-0.238-4.996-0.109-7.693,0.414C16.915,9.337,16.959,9.82,16.913,9.829z"/>
			<path opacity="0.1091" fill="#754C24" d="M17.62,9.657c2.699-0.521,4.957-0.652,7.696-0.412c-0.036-0.004-0.03-0.496-0.068-0.5
				c-2.738-0.238-4.995-0.109-7.694,0.414C17.542,9.162,17.628,9.655,17.62,9.657z"/>
			<path opacity="0.1091" fill="#754C24" d="M16.769,8.732c0.844-0.165,1.687-0.328,2.531-0.492
				c-0.163,0.014-0.325,0.029-0.488,0.044c1.716,0.025,3.433,0.051,5.147,0.076c0.165,0.015,0.338-0.06,0.501-0.044
				c-2.99-0.26-5.326-0.097-8.192,0.459C16.431,8.745,16.605,8.764,16.769,8.732z"/>
			<path opacity="0.1091" fill="#754C24" d="M17.339,10.317c2.697-0.521,4.955-0.65,7.692-0.412
				c0.078,0.007,0.194-0.429,0.271-0.424c-2.739-0.239-4.995-0.11-7.694,0.411C17.494,9.915,17.451,10.295,17.339,10.317z"/>
		</g>
	</g>
</g>
<g>
	<g>
		<g>
			<path opacity="0.1091" fill="#754C24" d="M26.327,14.198c0.157,0,0.315-0.17,0.474-0.17
				C26.643,14.028,26.484,14.198,26.327,14.198z"/>
			<path opacity="0.1091" fill="#754C24" d="M26.765,11.69c-0.161,0-0.321-0.145-0.481-0.145
				C26.443,11.545,26.604,11.69,26.765,11.69z"/>
			<path opacity="0.1091" fill="#754C24" d="M24.877,11.798c0.064,0.21,0.131,0.422,0.196,0.632c-0.029-0.093,0.335-0.307,0.306-0.4
				c-0.066-0.21-0.132-0.421-0.196-0.631C25.21,11.491,24.848,11.706,24.877,11.798z"/>
			<path opacity="0.1091" fill="#754C24" d="M24.981,13.604c-0.041,0-0.081-0.487-0.121-0.487
				C24.9,13.117,24.94,13.604,24.981,13.604z"/>
			<path opacity="0.1091" fill="#754C24" d="M24.998,11.824c0.195,0.699,0.38,1.236,0.378,1.967
				c-0.001,0.143,0.266,0.285,0.265,0.428c0.003-0.729-0.183-1.268-0.377-1.967C25.221,12.096,25.041,11.978,24.998,11.824z"/>
			<path opacity="0.1091" fill="#754C24" d="M26.088,11.934c0.195,0.699,0.382,1.235,0.379,1.966
				c0.001-0.167,0.053-0.334,0.053-0.501c0.001-0.729-0.185-1.266-0.379-1.965C26.182,11.582,26.045,11.783,26.088,11.934z"/>
			<path opacity="0.1091" fill="#754C24" d="M26.795,11.762c0.115,0.433,0.242,0.862,0.384,1.287
				c-0.022-0.166-0.045-0.332-0.066-0.498c-0.002,0.226-0.002,0.451-0.002,0.678c0,0.166,0.066,0.332,0.066,0.498
				c0.002-0.947-0.183-1.519-0.448-2.464C26.772,11.423,26.751,11.602,26.795,11.762z"/>
			<path opacity="0.1091" fill="#754C24" d="M25.442,10.882c0.195,0.698,0.381,1.233,0.38,1.963c0-0.014,0.501-0.028,0.501-0.044
				c0.001-0.729-0.185-1.265-0.38-1.963C25.936,10.806,25.451,10.91,25.442,10.882z"/>
			<path opacity="0.1091" fill="#754C24" d="M26.513,12.421c0.196,0.7,0.383,1.237,0.383,1.968c0-0.141,0.269-0.282,0.269-0.425
				c0.002-0.731-0.186-1.267-0.38-1.967C26.813,12.104,26.482,12.313,26.513,12.421z"/>
		</g>
	</g>
</g>
<g>
	<g>
		<g>
			<path opacity="0.1091" fill="#754C24" d="M23.694,19.217c0.023,0,0.047,0,0.07,0c0.396,0-1.083-1.931-1.604-1.953
				c-0.02-0.001-0.04-0.001-0.06-0.003C21.736,17.246,23.146,19.217,23.694,19.217z"/>
			<path opacity="0.1091" fill="#754C24" d="M22.357,18.126c0.023,0,0.047,0,0.07,0.001c0.471,0.003-0.552-1.262-0.924-1.271
				c-0.02,0-0.04-0.001-0.06-0.001C20.983,16.845,21.977,18.124,22.357,18.126z"/>
			<path opacity="0.1091" fill="#754C24" d="M22.808,16.958c0.023,0,0.045,0,0.069,0c0.233,0.003,0.413-0.475,0.078-0.48
				c-0.023,0-0.047-0.001-0.07-0.001C22.65,16.472,22.471,16.955,22.808,16.958z"/>
			<path opacity="0.1091" fill="#754C24" d="M23.392,17.817c0.023,0,0.046,0,0.069,0c0.412-0.001-1.012-1.783-1.501-1.805
				c-0.019-0.001-0.039-0.001-0.058-0.003C21.527,15.993,22.868,17.82,23.392,17.817z"/>
			<path opacity="0.1091" fill="#754C24" d="M23.489,16.64c0.022-0.001,0.045-0.003,0.066-0.004c0.479-0.025,0.188-0.701-0.138-0.68
				c-0.021,0.001-0.04,0.002-0.062,0.004C22.881,15.993,23.161,16.658,23.489,16.64z"/>
			<path opacity="0.1091" fill="#754C24" d="M21.935,17.927c0.022,0,0.046,0,0.07,0c0.287,0.003,0.392-0.511,0.05-0.519
				c-0.023,0-0.048,0-0.071-0.001C21.694,17.399,21.592,17.924,21.935,17.927z"/>
			<path opacity="0.1091" fill="#754C24" d="M22.828,19.232c0.023,0,0.046,0,0.069,0c0.462,0.001-0.703-1.468-1.11-1.479
				c-0.02,0-0.04-0.001-0.06-0.001C21.281,17.74,22.406,19.231,22.828,19.232z"/>
			<path opacity="0.1091" fill="#754C24" d="M24.136,17.737c0.023,0,0.047,0,0.071,0c0.413,0-0.977-1.715-1.456-1.731
				c-0.02-0.001-0.041-0.001-0.06-0.003C22.305,15.991,23.632,17.739,24.136,17.737z"/>
			<path opacity="0.1091" fill="#754C24" d="M22.262,17.322c0.022-0.001,0.043-0.003,0.065-0.003
				c0.368-0.018,0.321-0.598-0.019-0.582c-0.021,0.001-0.043,0.003-0.063,0.003C21.877,16.76,21.921,17.337,22.262,17.322z"/>
			<path opacity="0.1091" fill="#754C24" d="M22.964,16.979c0.023,0,0.047,0,0.07,0c0.467,0-0.367-0.998-0.699-1.004
				c-0.02,0-0.038-0.001-0.06-0.001C21.819,15.967,22.622,16.978,22.964,16.979z"/>
			<path opacity="0.1091" fill="#754C24" d="M24.142,19c0.023,0,0.047,0,0.07,0c0.372,0-1.176-2.222-1.726-2.247
				c-0.021-0.001-0.04-0.11-0.06-0.111c-0.49-0.022,0.22,0.882,0.229,0.891C22.931,17.831,23.668,19,24.142,19z"/>
			<path opacity="0.1091" fill="#754C24" d="M21.899,18.406c0.022-0.001,0.044-0.001,0.066-0.003
				c0.512-0.017,0.172-0.732-0.147-0.718c-0.021,0.001-0.04,0.003-0.06,0.003C21.251,17.711,21.577,18.417,21.899,18.406z"/>
		</g>
	</g>
</g>
<g>
	<g>
		<g>
			<path opacity="0.1091" fill="#754C24" d="M17.668,18.255c0.945-0.136,1.802,0.743,2.45,1.35c0.058,0.054,0.419-0.22,0.473-0.169
				c-0.646-0.606-1.503-1.485-2.45-1.35C17.978,18.11,17.829,18.231,17.668,18.255z"/>
			<path opacity="0.1091" fill="#754C24" d="M16.984,17.599c0.944-0.137,1.801,0.74,2.447,1.347
				c-0.118-0.111-0.147-0.317-0.265-0.429c-0.647-0.605-1.503-1.482-2.448-1.345C16.781,17.163,16.914,17.61,16.984,17.599z"/>
			<path opacity="0.1091" fill="#754C24" d="M16.742,15.89c0.945-0.14,1.801,0.736,2.447,1.341c0.051,0.048,0.415-0.243,0.463-0.197
				c-0.646-0.605-1.503-1.481-2.447-1.341C17.044,15.716,16.901,15.866,16.742,15.89z"/>
			<path opacity="0.1091" fill="#754C24" d="M17.807,17.279c0.804-0.227,1.673,0.714,2.209,1.233
				c0.029,0.029,0.317-0.365,0.237-0.443c-0.653-0.632-1.434-1.4-2.395-1.29C17.807,16.785,17.85,17.267,17.807,17.279z"/>
			<path opacity="0.1091" fill="#754C24" d="M18.107,15.747c0.127-0.02,0.253-0.038,0.38-0.057c-0.162-0.046-0.322-0.093-0.483-0.14
				c0.796,0.341,1.438,0.807,2.069,1.398c0.109,0.103,0.375,0.038,0.483,0.139c-0.772-0.721-1.799-1.647-2.933-1.48
				C17.772,15.585,17.953,15.769,18.107,15.747z"/>
			<path opacity="0.1091" fill="#754C24" d="M16.133,17.064c0.945-0.137,1.799,0.739,2.445,1.346c-0.07-0.066,0.139-0.432,0.067-0.5
				c-0.646-0.604-1.5-1.482-2.444-1.344C16.151,16.573,16.175,17.059,16.133,17.064z"/>
			<path opacity="0.1091" fill="#754C24" d="M17.407,18.37c0.125-0.018,0.253-0.036,0.379-0.054
				c-0.162-0.04-0.325-0.081-0.487-0.121c0.794,0.343,1.436,0.813,2.067,1.404c0.108,0.101,0.383,0.021,0.488,0.12
				c-0.793-0.743-1.783-1.636-2.936-1.468C17.07,18.229,17.251,18.392,17.407,18.37z"/>
			<path opacity="0.1091" fill="#754C24" d="M18.522,17.107c0.944-0.137,1.801,0.739,2.449,1.345
				c-0.094-0.087,0.029-0.408-0.068-0.498c-0.646-0.606-1.503-1.484-2.449-1.345C18.447,16.611,18.518,17.109,18.522,17.107z"/>
			<path opacity="0.1091" fill="#754C24" d="M16.416,16.49c0.942-0.14,1.798,0.736,2.444,1.341c-0.01-0.01,0.32-0.386,0.306-0.399
				c-0.646-0.604-1.5-1.481-2.444-1.342C16.598,16.108,16.529,16.472,16.416,16.49z"/>
			<path opacity="0.1091" fill="#754C24" d="M17.653,16.186c0.127-0.017,0.253-0.035,0.381-0.051c-0.164,0.01-0.327,0.02-0.49,0.029
				c0.789,0.321,1.433,0.768,2.072,1.326c0.109,0.095,0.39,0.011,0.491,0.11c-0.92-0.922-1.671-1.582-2.929-1.375
				C17.264,16.209,17.515,16.204,17.653,16.186z"/>
			<path opacity="0.1091" fill="#754C24" d="M18.238,17.771c0.945-0.137,1.802,0.739,2.449,1.345
				c-0.02-0.019,0.296-0.401,0.271-0.425c-0.647-0.606-1.504-1.482-2.45-1.345C18.397,17.362,18.344,17.755,18.238,17.771z"/>
			<path opacity="0.1091" fill="#754C24" d="M16.345,17.657c0.945-0.137,1.799,0.74,2.446,1.347
				c-0.108-0.101-0.057-0.374-0.166-0.476c-0.646-0.605-1.5-1.484-2.444-1.346C16.207,17.178,16.309,17.663,16.345,17.657z"/>
		</g>
	</g>
</g>
<g>
	<g>
		<g>
			<path opacity="0.1091" fill="#754C24" d="M16.487,20.849c-0.07,0.01-0.14,0.02-0.209,0.029c-0.104,0.015-0.389,0.211-0.475,0.169
				c0.284,0.141,0.567,0.284,0.851,0.425c0.104,0.053,0.37-0.22,0.474-0.167c-0.284-0.143-0.566-0.284-0.85-0.426
				c-0.158,0.057-0.317,0.112-0.475,0.169c0.069-0.014,0.137-0.026,0.206-0.039C16.172,20.976,16.323,20.872,16.487,20.849z"/>
			<path opacity="0.1091" fill="#754C24" d="M15.732,19.112c0.152,0,0.306-0.208,0.458-0.208
				C16.038,18.904,15.884,19.112,15.732,19.112z"/>
			<path opacity="0.1091" fill="#754C24" d="M17.094,18.962c-0.162,0-0.323-0.139-0.484-0.139
				C16.771,18.824,16.932,18.962,17.094,18.962z"/>
			<path opacity="0.1091" fill="#754C24" d="M15.334,20.872c-0.057,0-0.113-0.472-0.171-0.472
				C15.22,20.4,15.278,20.872,15.334,20.872z"/>
			<path opacity="0.1091" fill="#754C24" d="M15.064,19.93c-0.069,0.011-0.137,0.023-0.206,0.035c0.06-0.01,0.194,0.392,0.264,0.428
				c0.558,0.3,1.132,0.564,1.722,0.794c-0.125-0.053-0.137-0.374-0.265-0.428c-0.591-0.23-1.164-0.494-1.722-0.794
				c0.088,0.143,0.176,0.285,0.264,0.428c0.069-0.011,0.139-0.023,0.207-0.035C15.27,20.367,15.13,19.918,15.064,19.93z"/>
			<path opacity="0.1091" fill="#754C24" d="M16.207,19.538c-0.069,0.012-0.139,0.023-0.208,0.036c-0.007,0-0.068,0.493-0.053,0.5
				c0.559,0.299,1.135,0.563,1.726,0.793c-0.044-0.018,0.098-0.48,0.052-0.5c-0.591-0.23-1.167-0.494-1.726-0.793
				c-0.018,0.166-0.035,0.333-0.053,0.5c0.069-0.011,0.138-0.023,0.208-0.035C16.2,20.031,16.164,19.545,16.207,19.538z"/>
			<path opacity="0.1091" fill="#754C24" d="M16.795,19.369c-0.069,0.011-0.139,0.023-0.208,0.035
				c0.018-0.003,0.029,0.48,0.066,0.498c0.561,0.299,1.137,0.563,1.729,0.793c-0.078-0.033,0.012-0.465-0.066-0.499
				c-0.592-0.229-1.168-0.494-1.729-0.793c0.022,0.166,0.044,0.332,0.066,0.498c0.069-0.011,0.139-0.023,0.208-0.034
				C16.87,19.866,16.791,19.369,16.795,19.369z"/>
			<path opacity="0.1091" fill="#754C24" d="M15.066,18.85c-0.068,0.013-0.137,0.023-0.206,0.036
				c-0.063,0.01-0.267,0.418-0.306,0.398c0.558,0.299,1.131,0.562,1.721,0.791c0.04,0.017,0.269-0.416,0.306-0.399
				c-0.589-0.228-1.163-0.493-1.72-0.79c-0.103,0.133-0.204,0.266-0.306,0.398c0.069-0.011,0.137-0.023,0.207-0.036
				C14.882,19.228,14.946,18.871,15.066,18.85z"/>
			<path opacity="0.1091" fill="#754C24" d="M15.509,18.987c-0.778,0.133,1.52,0.826,1.517,0.825
				c0.137,0.058,0.365-0.103,0.501-0.044c0.003,0-2.295-0.692-1.517-0.826C15.845,18.971,15.674,18.958,15.509,18.987z"/>
			<path opacity="0.1091" fill="#754C24" d="M16.85,20.103c-0.069,0.011-0.138,0.024-0.208,0.035
				c-0.056,0.01-0.241,0.44-0.271,0.425c0.561,0.301,1.136,0.565,1.729,0.795c0.026,0.011,0.245-0.435,0.27-0.424
				c-0.592-0.229-1.168-0.496-1.727-0.796c-0.09,0.141-0.18,0.284-0.271,0.425c0.069-0.012,0.139-0.023,0.208-0.034
				C16.691,20.508,16.739,20.121,16.85,20.103z"/>
		</g>
	</g>
</g>
<g>
	<g>
		<g>
			<path opacity="0.1091" fill="#754C24" d="M15.708,22.238c-0.195,0.155-0.392,0.309-0.586,0.464
				c0.155-0.065,0.309-0.13,0.463-0.196c-0.231,0.086-0.461,0.171-0.69,0.257c-0.157,0.059-0.305,0.149-0.464,0.197
				c0.21-0.064,0.419-0.126,0.63-0.19c0.159-0.048,0.303-0.147,0.463-0.196c-0.21,0.063-0.42,0.126-0.629,0.189
				c-0.155,0.065-0.309,0.132-0.464,0.197c0.754-0.281,1.107-0.417,1.741-0.918C16.044,22.142,15.835,22.138,15.708,22.238z"/>
			<path opacity="0.1091" fill="#754C24" d="M15.167,22.914c-0.35,0.375-0.776,0.617-1.279,0.724
				c-0.071,0.026,0.001,0.478-0.066,0.498c0.209-0.063,0.419-0.126,0.628-0.189c0.068-0.02,0.001-0.479,0.068-0.498
				c-0.21,0.063-0.419,0.126-0.63,0.189c-0.022,0.166-0.044,0.332-0.066,0.498c0.502-0.107,0.929-0.349,1.279-0.724
				C15.196,23.337,15.073,22.988,15.167,22.914z"/>
			<path opacity="0.1091" fill="#754C24" d="M15.296,25.063c-0.23,0.086-0.459,0.173-0.689,0.26c0.13-0.05,0.353,0.161,0.489,0.119
				c0.209-0.063,0.419-0.126,0.629-0.188c-0.138,0.042-0.35-0.161-0.488-0.12c-0.21,0.063-0.421,0.126-0.63,0.189
				c0.162,0.039,0.325,0.079,0.489,0.119c0.229-0.087,0.459-0.174,0.69-0.262C15.656,25.23,15.426,25.014,15.296,25.063z"/>
			<path opacity="0.1091" fill="#754C24" d="M15.146,23.528c-0.351,0.375-0.777,0.617-1.279,0.726c-0.001,0,0.162,0.476,0.165,0.475
				c0.21-0.063,0.42-0.126,0.629-0.188c-0.005,0.002-0.158-0.478-0.166-0.476c-0.209,0.063-0.419,0.127-0.628,0.189
				c0.056,0.159,0.111,0.316,0.165,0.475c0.502-0.108,0.929-0.349,1.279-0.726C15.355,23.969,15.104,23.562,15.146,23.528z"/>
			<path opacity="0.1091" fill="#754C24" d="M16.587,21.956c-0.349,0.375-0.773,0.614-1.274,0.721
				c0.127-0.047,0.352,0.181,0.483,0.141c0.413-0.204,0.841-0.255,1.29-0.152c-0.162-0.01-0.318-0.145-0.48-0.151
				c-0.45-0.09-0.88-0.036-1.292,0.163c0.162,0.046,0.322,0.093,0.483,0.141c0.501-0.107,0.926-0.348,1.276-0.723
				C16.996,22.155,16.665,21.895,16.587,21.956z"/>
			<path opacity="0.1091" fill="#754C24" d="M16.114,23.654c-0.018,0.139-0.036,0.277-0.054,0.417
				c0.011-0.085,0.453-0.114,0.462-0.198c0.018-0.14,0.036-0.279,0.053-0.419C16.565,23.538,16.125,23.568,16.114,23.654z"/>
			<path opacity="0.1091" fill="#754C24" d="M15.502,24.829c-0.017,0.135-0.035,0.271-0.051,0.404
				c0.011-0.088,0.046-0.333,0.064-0.472c0.019-0.144,0.037-0.286,0.055-0.431C15.549,24.497,15.523,24.663,15.502,24.829z"/>
			<path opacity="0.1091" fill="#754C24" d="M16.723,26.556c-0.162,0-0.325-0.122-0.487-0.122
				C16.397,26.434,16.561,26.556,16.723,26.556z"/>
			<path opacity="0.1091" fill="#754C24" d="M16.631,24.6c-0.421,0.241-0.841,0.483-1.262,0.724
				c-0.004,0.002-0.008,0.003-0.013,0.005c0.786-0.235,1.114-0.348,1.691,0.276c0.244,0.265-0.141,0.746,0.207,1.138
				c0.042,0.047,0.433-0.216,0.473-0.169c-0.488-0.551-0.039-0.956-0.606-1.568c-0.418-0.452-1.282,0.437-0.016-0.572
				C16.983,24.53,16.756,24.501,16.631,24.6z"/>
			<path opacity="0.1091" fill="#754C24" d="M15.685,23.518c-0.349,0.376-0.775,0.617-1.276,0.725
				c0.03-0.011,0.224,0.44,0.264,0.428c0.785-0.235,1.111-0.347,1.688,0.277c-0.087-0.143-0.176-0.285-0.265-0.428
				c-0.014,0.835-0.061,0.965,0.474,1.565c-0.109-0.123-0.155-0.304-0.266-0.428c-0.088-0.1-0.178-0.201-0.269-0.302
				c0.089,0.143,0.177,0.285,0.266,0.428c0.163-1.283-0.456-1.973-1.892-1.541c0.087,0.143,0.176,0.285,0.264,0.428
				c0.501-0.107,0.927-0.349,1.277-0.725C15.967,23.932,15.672,23.528,15.685,23.518z"/>
			<path opacity="0.1091" fill="#754C24" d="M16.828,23.127c-0.414,0.371-0.889,0.623-1.424,0.756
				c0.03-0.011,0.228,0.431,0.285,0.414c0.587-0.323,1.153-0.24,1.7,0.249c-0.109-0.122-0.217-0.242-0.327-0.364
				c-0.114,0.673-0.063,1.084,0.44,1.575c-0.105-0.102-0.097-0.345-0.181-0.47c-0.073-0.106-0.146-0.213-0.217-0.319
				c0.032,0.165,0.063,0.329,0.095,0.494c0.56-1.34-0.488-1.968-1.795-1.579c0.094,0.139,0.189,0.275,0.285,0.414
				c0.466-0.065,0.829-0.29,1.086-0.67C16.857,23.542,16.737,23.188,16.828,23.127z"/>
			<path opacity="0.1091" fill="#754C24" d="M16.996,23.369c-0.146,0.308-0.075,0.548,0.214,0.723
				c0.093,0.105,0.389,0.033,0.483,0.139c-0.289-0.174-0.36-0.414-0.214-0.723C17.482,23.482,16.993,23.395,16.996,23.369z"/>
			<path opacity="0.1091" fill="#754C24" d="M17.416,22.957c-0.349,0.375-0.773,0.615-1.274,0.724
				c-0.033,0.013,0.093,0.491,0.066,0.498c0.786-0.235,1.114-0.348,1.692,0.275c-0.022-0.166-0.044-0.332-0.066-0.498
				c-0.012,0.695-0.193,1.108,0.273,1.638c-0.091-0.104,0.026-0.394-0.066-0.499c-0.09-0.101-0.179-0.201-0.269-0.303
				c0.023,0.166,0.045,0.332,0.068,0.498c0.165-1.288-0.056-2.104-1.698-1.609c0.022,0.166,0.044,0.332,0.066,0.498
				c0.501-0.106,0.926-0.349,1.274-0.724C17.552,23.399,17.35,23.008,17.416,22.957z"/>
			<path opacity="0.1091" fill="#754C24" d="M15.686,22.438c-0.35,0.375-0.775,0.616-1.277,0.723c-0.132,0.05-0.176,0.36-0.306,0.4
				c0.784-0.237,1.111-0.349,1.688,0.273c0.244,0.265-0.14,0.748,0.208,1.14c-0.021-0.022,0.328-0.374,0.306-0.398
				c-0.363-0.41-0.217-0.612-0.208-1.141c0.014-0.828-1.39-0.364-1.688-0.274c-0.103,0.135-0.204,0.268-0.306,0.4
				c0.501-0.106,0.927-0.348,1.278-0.723C15.509,22.735,15.56,22.539,15.686,22.438z"/>
			<path opacity="0.1091" fill="#754C24" d="M16.129,22.575c-0.349,0.375-0.773,0.615-1.275,0.722
				c0.15-0.055,0.345,0.003,0.501-0.044c0.209-0.063,0.419-0.127,0.628-0.191c-0.166,0.016-0.333,0.031-0.501,0.046
				c1.521,0.073,0.602,0.85,1.268,1.603c0.066,0.075,0.436-0.118,0.501-0.045c-0.612-0.691,0.217-1.725-1.32-1.599
				c-0.424,0.034-0.625,0.094-1.077,0.23c0.167-0.015,0.334-0.028,0.501-0.044c0.501-0.106,0.926-0.348,1.274-0.723
				C16.522,22.616,16.241,22.486,16.129,22.575z"/>
			<path opacity="0.1091" fill="#754C24" d="M17.47,23.69c-0.349,0.376-0.774,0.618-1.273,0.727
				c-0.123,0.046-0.149,0.388-0.27,0.424c0.785-0.235,1.113-0.347,1.691,0.276c0.244,0.263-0.14,0.748,0.207,1.138
				c-0.031-0.033,0.302-0.388,0.27-0.424c-0.361-0.408-0.216-0.611-0.206-1.138c0.017-0.829-1.393-0.366-1.691-0.276
				c-0.09,0.142-0.18,0.282-0.27,0.424c0.5-0.108,0.925-0.351,1.273-0.726C17.325,24.016,17.347,23.789,17.47,23.69z"/>
			<path opacity="0.1091" fill="#754C24" d="M15.546,24.948c-0.066,0.537,0.025,0.786,0.375,1.197
				c-0.1-0.116-0.044-0.369-0.148-0.48c-0.093-0.1-0.186-0.2-0.28-0.3c0.057,0.159,0.112,0.316,0.167,0.475
				c0.018-0.139,0.036-0.278,0.055-0.418C15.736,25.273,15.528,25.097,15.546,24.948z"/>
		</g>
	</g>
</g>
<g>
	<g>
		<g>
			<path opacity="0.1091" fill="#754C24" d="M24.358,24.705c-0.194,0.575-0.39,1.151-0.585,1.728
				c0.033-0.098,0.44-0.068,0.474-0.168c0.195-0.575,0.39-1.153,0.587-1.729C24.801,24.632,24.394,24.603,24.358,24.705z"/>
			<path opacity="0.1091" fill="#754C24" d="M23.411,23.622c-0.197,0.575-0.393,1.149-0.589,1.725
				c-0.034,0.103,0.299,0.33,0.266,0.428c0.195-0.575,0.392-1.149,0.587-1.726C23.711,23.945,23.378,23.72,23.411,23.622z"/>
			<path opacity="0.1091" fill="#754C24" d="M23.435,22.34c-0.197,0.574-0.392,1.148-0.589,1.723
				c0.036-0.105,0.427-0.09,0.464-0.198c0.195-0.572,0.392-1.146,0.587-1.722C23.862,22.245,23.472,22.231,23.435,22.34z"/>
			<path opacity="0.1091" fill="#754C24" d="M24.55,23.229c-0.278,0.618-0.555,1.236-0.833,1.854
				c-0.003,0.007,0.482,0.151,0.488,0.12c0.099-0.495,0.196-0.992,0.295-1.487C24.529,23.571,24.49,23.362,24.55,23.229z"/>
			<path opacity="0.1091" fill="#754C24" d="M24.314,22.057c-0.195,0.575-0.391,1.149-0.585,1.723
				c0.001-0.006,0.479,0.149,0.482,0.14c0.195-0.574,0.391-1.147,0.586-1.722C24.798,22.199,24.318,22.045,24.314,22.057z"/>
			<path opacity="0.1091" fill="#754C24" d="M22.892,23.017c-0.196,0.575-0.393,1.149-0.59,1.725
				c-0.053,0.156-0.012,0.343-0.066,0.498c0.197-0.574,0.394-1.148,0.59-1.724C22.879,23.359,22.839,23.171,22.892,23.017z"/>
			<path opacity="0.1091" fill="#754C24" d="M23.608,24.701c-0.195,0.575-0.392,1.151-0.587,1.727
				c0.005-0.014,0.483,0.135,0.489,0.119c0.194-0.575,0.392-1.151,0.587-1.728C24.095,24.829,23.615,24.683,23.608,24.701z"/>
			<path opacity="0.1091" fill="#754C24" d="M25.146,23.06c-0.196,0.575-0.392,1.149-0.588,1.725
				c-0.049,0.144,0.114,0.358,0.066,0.499c0.196-0.575,0.392-1.15,0.588-1.726C25.263,23.413,25.098,23.199,25.146,23.06z"/>
			<path opacity="0.1091" fill="#754C24" d="M23.106,22.94c-0.196,0.574-0.394,1.148-0.59,1.723c0.051-0.15,0.255-0.249,0.308-0.399
				c0.194-0.575,0.392-1.149,0.588-1.724C23.361,22.688,23.157,22.788,23.106,22.94z"/>
			<path opacity="0.1091" fill="#754C24" d="M23.856,22.677c-0.196,0.575-0.392,1.149-0.587,1.724
				c0.021-0.063,0.478,0.022,0.501-0.046c0.195-0.574,0.391-1.147,0.587-1.722C24.337,22.691,23.88,22.608,23.856,22.677z"/>
			<path opacity="0.1091" fill="#754C24" d="M24.931,24.221c-0.196,0.575-0.392,1.15-0.589,1.725
				c0.053-0.154,0.218-0.271,0.271-0.425c0.196-0.575,0.392-1.149,0.588-1.724C25.147,23.949,24.983,24.065,24.931,24.221z"/>
			<path opacity="0.1091" fill="#754C24" d="M22.871,23.632c-0.196,0.576-0.394,1.15-0.59,1.727
				c-0.043,0.124,0.209,0.35,0.166,0.475c0.196-0.576,0.394-1.15,0.59-1.726C23.08,23.979,22.829,23.754,22.871,23.632z"/>
		</g>
	</g>
</g>
<g>
	<g>
		<g>
			<path opacity="0.1091" fill="#754C24" d="M26.188,20.983c-0.034,0.943-0.069,1.885-0.104,2.828
				c0.003-0.06,0.472-0.105,0.474-0.169c0.034-0.942,0.068-1.885,0.104-2.828C26.66,20.871,26.191,20.917,26.188,20.983z"/>
			<path opacity="0.1091" fill="#754C24" d="M25.243,19.894c-0.037,0.944-0.073,1.888-0.11,2.832
				c-0.006,0.142,0.27,0.291,0.264,0.428c0.038-0.944,0.075-1.888,0.111-2.832C25.515,20.177,25.237,20.026,25.243,19.894z"/>
			<path opacity="0.1091" fill="#754C24" d="M25.263,18.615c-0.036,0.941-0.07,1.882-0.105,2.824
				c0.003-0.069,0.46-0.123,0.463-0.197c0.035-0.941,0.07-1.882,0.104-2.825C25.723,18.483,25.266,18.537,25.263,18.615z"/>
			<path opacity="0.1091" fill="#754C24" d="M26.347,19.636c-0.113,0.969-0.228,1.938-0.342,2.906c0,0.007,0.505,0.014,0.504-0.013
				c-0.046-1.004-0.093-2.009-0.139-3.013C26.367,19.466,26.344,19.664,26.347,19.636z"/>
			<path opacity="0.1091" fill="#754C24" d="M26.143,18.331c-0.034,0.942-0.067,1.884-0.102,2.825
				c-0.002,0.042,0.484,0.1,0.482,0.138c0.035-0.941,0.069-1.882,0.103-2.824C26.627,18.424,26.142,18.366,26.143,18.331z"/>
			<path opacity="0.1091" fill="#754C24" d="M24.653,19.776c-0.035,0.947-0.071,1.895-0.107,2.841
				c0.007-0.167,0.061-0.332,0.066-0.498c0.036-0.938,0.072-1.876,0.107-2.815C24.718,19.391,24.658,19.638,24.653,19.776z"/>
			<path opacity="0.1091" fill="#754C24" d="M25.438,20.975c-0.035,0.944-0.069,1.888-0.104,2.832
				c-0.001,0.036,0.489,0.087,0.489,0.12c0.034-0.943,0.068-1.888,0.104-2.832C25.927,21.055,25.436,21.002,25.438,20.975z"/>
			<path opacity="0.1091" fill="#754C24" d="M26.971,19.334c-0.033,0.943-0.066,1.885-0.1,2.828
				c-0.006,0.165,0.073,0.334,0.067,0.498c0.033-0.942,0.066-1.885,0.1-2.827C27.044,19.667,26.965,19.498,26.971,19.334z"/>
			<path opacity="0.1091" fill="#754C24" d="M24.932,19.213c-0.034,0.942-0.069,1.885-0.103,2.827
				c0.005-0.134,0.301-0.261,0.305-0.399c0.035-0.943,0.069-1.885,0.104-2.828C25.232,18.946,24.936,19.073,24.932,19.213z"/>
			<path opacity="0.1091" fill="#754C24" d="M25.685,18.958c-0.033,0.947-0.067,1.892-0.101,2.837
				c0.001-0.036,0.492-0.054,0.494-0.093c0.036-0.93,0.071-1.859,0.107-2.789C26.186,18.923,25.687,18.926,25.685,18.958z"/>
			<path opacity="0.1091" fill="#754C24" d="M26.758,20.495c-0.035,0.944-0.068,1.886-0.103,2.829
				c0.005-0.143,0.265-0.278,0.27-0.425c0.035-0.942,0.068-1.885,0.103-2.828C27.023,20.21,26.763,20.348,26.758,20.495z"/>
			<path opacity="0.1091" fill="#754C24" d="M24.699,19.906c-0.036,0.944-0.072,1.886-0.107,2.83
				c-0.006,0.157,0.171,0.32,0.166,0.476c0.036-0.944,0.07-1.887,0.106-2.83C24.871,20.223,24.692,20.06,24.699,19.906z"/>
		</g>
	</g>
</g>
<g>
	<g>
		<g>
			<path opacity="0.1091" fill="#754C24" d="M25.79,24.565c0.162,0.339,0.339,0.365,0.53,0.08c0.216-0.201,0.421-0.413,0.613-0.637
				c0.057-0.069,0.446-0.577,0.062-0.577c0.042,0.109,0.082,0.217,0.124,0.326C27.473,22.857,25.844,24.521,25.79,24.565z"/>
			<path opacity="0.1091" fill="#754C24" d="M25.044,23.404c-0.022,0.024-0.046,0.05-0.069,0.075
				c-0.112,0.124-0.703,1.051-0.027,0.622c0.466-0.296,1.575-1.085,1.68-1.669c0.008-0.042,0.015-0.082,0.021-0.122
				C26.744,21.779,25.117,23.323,25.044,23.404z"/>
			<path opacity="0.1091" fill="#754C24" d="M24.799,22.188c-0.044,0.062-0.089,0.126-0.133,0.189
				c-0.205,0.292,0.693,0.371,0.793-0.139c0.007-0.033,0.013-0.064,0.02-0.097C25.58,21.618,24.915,22.021,24.799,22.188z"/>
			<path opacity="0.1091" fill="#754C24" d="M25.91,23.232c0.071,0.418,0.222,0.48,0.454,0.189c0.225-0.185,0.438-0.382,0.64-0.594
				c0.046-0.049,0.481-0.569,0.092-0.569c0.061,0.015,0.121,0.029,0.183,0.043C27.375,21.764,25.979,23.154,25.91,23.232z"/>
			<path opacity="0.1091" fill="#754C24" d="M25.455,22.313c-0.016,0.024-0.03,0.05-0.046,0.073
				c-0.122,0.193,0.264,0.554,0.427,0.275c0.026-0.043,0.051-0.086,0.076-0.128C26.025,22.341,25.62,22.052,25.455,22.313z"/>
			<path opacity="0.1091" fill="#754C24" d="M24.577,22.606c-0.141,0.145-0.282,0.287-0.423,0.431
				c-0.131,0.133-0.537,0.869,0.026,0.562c0.385-0.21,1.288-0.844,1.357-1.317c0.004-0.034,0.01-0.069,0.014-0.104
				C25.631,21.628,24.559,22.626,24.577,22.606z"/>
			<path opacity="0.1091" fill="#754C24" d="M24.836,25.028c0.285,0.161,0.513,0.098,0.685-0.19
				c0.287-0.271,0.564-0.553,0.827-0.848c0.037-0.042,0.63-0.688,0.176-0.688c0.056,0.056,0.111,0.109,0.166,0.163
				c0.161-0.481-0.767,0.271-0.684,0.192C25.697,23.943,25.157,24.865,24.836,25.028z"/>
			<path opacity="0.1091" fill="#754C24" d="M26.421,23.149c-0.02,0.03-0.04,0.06-0.06,0.09c-0.365,0.541,0.524,0.412,0.722-0.057
				c0.021-0.049,0.04-0.097,0.061-0.146C27.352,22.543,26.53,22.987,26.421,23.149z"/>
			<path opacity="0.1091" fill="#754C24" d="M24.649,22.425c-0.083,0.098-0.165,0.194-0.248,0.293
				c-0.161,0.189,0.075,0.383,0.262,0.299c0.315-0.143,0.992-0.633,1.03-1.011c0.004-0.033,0.007-0.068,0.011-0.103
				C25.76,21.353,24.685,22.385,24.649,22.425z"/>
			<path opacity="0.1091" fill="#754C24" d="M25.412,22.486c0.037,0.399,0.165,0.488,0.384,0.265
				c0.171-0.129,0.333-0.271,0.482-0.427c0.062-0.065,0.335-0.487,0.016-0.487c0.051,0.064,0.101,0.129,0.152,0.192
				C26.616,21.235,25.509,22.375,25.412,22.486z"/>
			<path opacity="0.1091" fill="#754C24" d="M26.413,23.736c-0.062,0.083-0.122,0.166-0.183,0.249
				c-0.123,0.167,0.113,0.354,0.27,0.29c0.245-0.098,0.67-0.453,0.762-0.707c0.017-0.044,0.033-0.089,0.048-0.133
				C27.552,22.768,26.5,23.615,26.413,23.736z"/>
			<path opacity="0.1091" fill="#754C24" d="M23.933,24.116c0.217,0.24,0.419,0.205,0.606-0.104
				c0.313-0.263,0.617-0.538,0.906-0.827c0.016-0.015,0.707-0.692,0.231-0.692c0.061,0.021,0.121,0.04,0.181,0.061
				C25.981,21.968,23.989,24.081,23.933,24.116z"/>
		</g>
	</g>
</g>
<g>
</g>
<g>
</g>
<g>
</g>
<g>
</g>
<g>
</g>
<g>
</g>
<g>
</g>
<g>
</g>
<g>
</g>
<g>
</g>
<g>
</g>
<g>
</g>
<g>
</g>
<g>
</g>
<g>
</g>
</svg>
