<?xml version="1.0" encoding="utf-8"?>
<!-- Generator: Adobe Illustrator 16.0.0, SVG Export Plug-In . SVG Version: 6.00 Build 0)  -->
<!DOCTYPE svg PUBLIC "-//W3C//DTD SVG 1.1//EN" "http://www.w3.org/Graphics/SVG/1.1/DTD/svg11.dtd">
<svg version="1.1" id="Слой_1" xmlns="http://www.w3.org/2000/svg" xmlns:xlink="http://www.w3.org/1999/xlink" x="0px" y="0px"
	 width="42px" height="42px" viewBox="0 0 42 42" enable-background="new 0 0 42 42" xml:space="preserve">
<path fill="#A6A674" stroke="#000000" stroke-miterlimit="10" d="M17.518,4.316l1.925,0.203c0,0,7.273,6.037,7.671,6.862
	s0.641,17.96,0.641,17.96s-0.919,3.286-1.287,3.968s-2.346,2.91-3.016,3.19c-0.672,0.28-0.536,0.284-1.451,0s-6.6-7.734-7.2-9.182
	s-0.918-11.511-0.883-13.452S17.518,4.316,17.518,4.316z"/>
<g>
	<g>
		<g>
			<path opacity="0.1091" fill="#754C24" d="M17.304,6.071c0.103,0,0.206-0.397,0.309-0.397C17.509,5.673,17.407,6.071,17.304,6.071
				z"/>
			<path opacity="0.1091" fill="#754C24" d="M19.124,7.35c0.09,0,0.18-0.425,0.27-0.425C19.303,6.925,19.213,7.35,19.124,7.35z"/>
			<path opacity="0.1091" fill="#754C24" d="M17.61,6.751c0.217,0.472,0.436,0.943,0.653,1.415c0.071,0.151,0.195,0.277,0.266,0.428
				c-0.218-0.472-0.436-0.942-0.654-1.415C17.804,7.028,17.679,6.902,17.61,6.751z"/>
			<path opacity="0.1091" fill="#754C24" d="M18.698,6.861c0.219,0.471,0.438,0.943,0.656,1.415c-0.061-0.13,0.112-0.37,0.053-0.501
				c-0.219-0.471-0.438-0.942-0.656-1.415C18.81,6.49,18.637,6.729,18.698,6.861z"/>
			<path opacity="0.1091" fill="#754C24" d="M19.405,6.689c0.22,0.472,0.438,0.942,0.657,1.415c-0.068-0.146,0-0.354-0.066-0.5
				c-0.22-0.471-0.438-0.943-0.657-1.414C19.407,6.336,19.339,6.544,19.405,6.689z"/>
			<path opacity="0.1091" fill="#754C24" d="M18.053,5.809c0.219,0.471,0.438,0.942,0.656,1.413
				c0.023,0.053,0.478-0.095,0.501-0.045c-0.219-0.471-0.438-0.941-0.656-1.412C18.53,5.711,18.076,5.859,18.053,5.809z"/>
		</g>
	</g>
</g>
<g>
	<g>
		<g>
			<path opacity="0.1091" fill="#754C24" d="M18.453,7.008c0.804,2.003,2.216,4.131,2.381,6.314
				c-0.003-0.042,0.478-0.122,0.474-0.167c-0.165-2.184-1.577-4.311-2.381-6.315C18.923,6.829,18.454,7.01,18.453,7.008z"/>
			<path opacity="0.1091" fill="#754C24" d="M17.503,5.925c0.295,1.365,0.771,2.66,1.433,3.888c0.453,0.995,0.753,1.75,0.893,2.84
				c-0.004-0.037,0.449-0.158,0.441-0.242c-0.191-2.144-1.495-4.219-2.508-6.07C17.689,6.209,17.545,6.068,17.503,5.925z"/>
			<path opacity="0.1091" fill="#754C24" d="M17.528,4.644c0.804,2.003,2.212,4.126,2.379,6.31
				c-0.004-0.052,0.466-0.143,0.462-0.196c-0.167-2.184-1.575-4.308-2.379-6.31C17.991,4.447,17.525,4.638,17.528,4.644z"/>
			<path opacity="0.1091" fill="#754C24" d="M18.595,6.033c0.64,2.061,1.943,3.992,2.173,6.144c-0.004-0.04,0.468-0.141,0.461-0.199
				c-0.248-2.259-1.625-4.422-2.583-6.446C18.708,5.661,18.551,5.892,18.595,6.033z"/>
			<path opacity="0.1091" fill="#754C24" d="M18.409,4.361c0.806,2.003,2.216,4.126,2.38,6.31c0.004,0.06,0.479,0.082,0.483,0.139
				c-0.165-2.184-1.575-4.308-2.381-6.311C18.852,4.401,18.446,4.454,18.409,4.361z"/>
			<path opacity="0.1091" fill="#754C24" d="M16.919,5.819c0.803,2.004,2.206,4.127,2.378,6.312
				c-0.013-0.164,0.079-0.335,0.066-0.499c-0.17-2.184-1.575-4.307-2.376-6.313C17.041,5.454,16.865,5.682,16.919,5.819z"/>
			<path opacity="0.1091" fill="#754C24" d="M17.703,7.002c0.803,2.004,2.212,4.132,2.379,6.316
				c0.004,0.053,0.484,0.069,0.489,0.121c-0.167-2.184-1.577-4.312-2.379-6.316C18.154,7.03,17.739,7.091,17.703,7.002z"/>
			<path opacity="0.1091" fill="#754C24" d="M19.303,5.862c0.252,1.222,0.681,2.379,1.287,3.471c0.431,0.944,0.797,1.67,0.847,2.716
				c-0.001-0.006,0.496-0.076,0.49-0.112c-0.358-2.35-1.63-4.472-2.69-6.575C19.304,5.498,19.261,5.712,19.303,5.862z"/>
			<path opacity="0.1091" fill="#754C24" d="M17.2,5.243c0.803,2.004,2.209,4.127,2.378,6.31c-0.01-0.122,0.315-0.273,0.306-0.399
				c-0.169-2.184-1.575-4.307-2.378-6.312C17.537,4.919,17.167,5.16,17.2,5.243z"/>
			<path opacity="0.1091" fill="#754C24" d="M17.949,4.977c0.815,2.069,2.221,4.226,2.432,6.464
				c-0.001-0.014,0.478-0.115,0.468-0.184c-0.285-2.226-1.561-4.262-2.398-6.324C18.431,4.884,17.966,5.019,17.949,4.977z"/>
			<path opacity="0.1091" fill="#754C24" d="M19.021,6.522c0.805,2.003,2.22,4.129,2.383,6.314c-0.011-0.133,0.28-0.29,0.27-0.425
				c-0.164-2.184-1.578-4.312-2.382-6.314C19.326,6.184,18.983,6.428,19.021,6.522z"/>
			<path opacity="0.1091" fill="#754C24" d="M17.125,6.397c0.731,1.828,1.61,3.601,2.309,5.439
				c-0.052-0.155-0.106-0.309-0.159-0.464c0.022,0.292,0.046,0.583,0.068,0.875c0.013,0.162,0.152,0.314,0.166,0.475
				c-0.187-2.382-1.69-4.655-2.538-6.775C17.004,6.029,17.074,6.269,17.125,6.397z"/>
		</g>
	</g>
</g>
<g>
	<g>
		<g>
			<path opacity="0.1091" fill="#754C24" d="M18.487,10.147c0.825,1.546,1.642,2.976,2.242,4.624
				c0.001,0.004,0.475-0.167,0.475-0.168c-0.602-1.649-1.419-3.079-2.244-4.625C18.947,9.952,18.496,10.165,18.487,10.147z"/>
			<path opacity="0.1091" fill="#754C24" d="M17.543,9.076c0.833,1.493,1.579,3.03,2.235,4.61c0.057,0.155,0.209,0.274,0.266,0.428
				c-0.606-1.661-1.413-3.067-2.249-4.634C17.73,9.356,17.585,9.153,17.543,9.076z"/>
			<path opacity="0.1091" fill="#754C24" d="M17.562,7.781c0.825,1.545,1.642,2.972,2.242,4.62
				c-0.003-0.007,0.466-0.187,0.462-0.198c-0.601-1.647-1.416-3.074-2.241-4.619C18.016,7.568,17.567,7.791,17.562,7.781z"/>
			<path opacity="0.1091" fill="#754C24" d="M18.627,9.171c0.67,1.5,1.453,2.867,2.012,4.417c0.007,0.015,0.465-0.18,0.443-0.24
				c-0.623-1.712-1.452-3.125-2.404-4.677C18.748,8.784,18.57,9.045,18.627,9.171z"/>
			<path opacity="0.1091" fill="#754C24" d="M18.443,7.499c0.825,1.545,1.642,2.972,2.242,4.619c0.035,0.096,0.45,0.049,0.483,0.14
				c-0.601-1.648-1.417-3.074-2.242-4.619C18.87,7.532,18.496,7.599,18.443,7.499z"/>
			<path opacity="0.1091" fill="#754C24" d="M16.954,8.957c0.823,1.544,1.639,2.975,2.239,4.622
				c-0.051-0.139,0.118-0.358,0.066-0.499c-0.601-1.647-1.416-3.077-2.239-4.621C17.083,8.576,16.888,8.835,16.954,8.957z"/>
			<path opacity="0.1091" fill="#754C24" d="M17.737,10.141c0.824,1.546,1.64,2.976,2.241,4.625c0.033,0.09,0.457,0.035,0.489,0.121
				c-0.601-1.648-1.417-3.079-2.241-4.625C18.172,10.161,17.789,10.238,17.737,10.141z"/>
			<path opacity="0.1091" fill="#754C24" d="M19.34,9c0.826,1.546,1.643,2.973,2.242,4.622c-0.056-0.152-0.01-0.343-0.066-0.499
				c-0.601-1.648-1.416-3.077-2.243-4.622C19.347,8.638,19.265,8.86,19.34,9z"/>
			<path opacity="0.1091" fill="#754C24" d="M17.235,8.381c0.824,1.544,1.639,2.973,2.239,4.62c-0.03-0.082,0.338-0.312,0.306-0.399
				c-0.601-1.647-1.416-3.075-2.24-4.62C17.571,8.039,17.199,8.316,17.235,8.381z"/>
			<path opacity="0.1091" fill="#754C24" d="M17.984,8.118c0.825,1.545,1.641,2.972,2.242,4.62c0.017,0.044,0.487-0.082,0.501-0.044
				c-0.601-1.649-1.417-3.076-2.242-4.622C18.452,8.011,18.013,8.17,17.984,8.118z"/>
			<path opacity="0.1091" fill="#754C24" d="M19.058,9.663c0.825,1.544,1.642,2.973,2.242,4.622
				c-0.033-0.093,0.306-0.326,0.27-0.424c-0.601-1.65-1.416-3.077-2.242-4.623C19.365,9.307,19.018,9.586,19.058,9.663z"/>
			<path opacity="0.1091" fill="#754C24" d="M17.164,9.549c0.833,1.494,1.578,3.03,2.235,4.61c-0.03-0.084-0.108-0.319-0.156-0.451
				c-0.606-1.667-1.401-3.053-2.244-4.634C17.077,9.22,17.087,9.402,17.164,9.549z"/>
		</g>
	</g>
</g>
<g>
	<g>
		<g>
			<path opacity="0.1091" fill="#754C24" d="M17.97,12.354c0.58,1.32,1.202,2.62,1.863,3.902c0.011,0.02,0.466-0.186,0.475-0.169
				c-0.663-1.282-1.285-2.582-1.864-3.902C18.436,12.17,17.976,12.366,17.97,12.354z"/>
			<path opacity="0.1091" fill="#754C24" d="M17.023,11.271c0.577,1.319,1.197,2.619,1.859,3.899
				c0.075,0.149,0.191,0.278,0.265,0.428c-0.662-1.28-1.282-2.58-1.859-3.899C17.218,11.546,17.091,11.421,17.023,11.271z"/>
			<path opacity="0.1091" fill="#754C24" d="M17.045,9.99c0.579,1.318,1.198,2.616,1.86,3.894c0.006,0.011,0.46-0.203,0.464-0.196
				c-0.662-1.278-1.282-2.576-1.86-3.894C17.506,9.789,17.046,9.993,17.045,9.99z"/>
			<path opacity="0.1091" fill="#754C24" d="M18.114,11.38c0.404,1.24,0.927,2.428,1.569,3.566c0.044,0.09,0.494-0.136,0.449-0.227
				c-0.628-1.293-1.285-2.573-1.967-3.84C18.23,11.003,18.063,11.246,18.114,11.38z"/>
			<path opacity="0.1091" fill="#754C24" d="M17.925,9.708c0.58,1.318,1.202,2.615,1.863,3.894c0.051,0.103,0.433,0.039,0.483,0.139
				c-0.662-1.278-1.283-2.576-1.863-3.892C18.361,9.747,17.97,9.806,17.925,9.708z"/>
			<path opacity="0.1091" fill="#754C24" d="M16.438,11.166c0.577,1.318,1.196,2.617,1.857,3.896
				c-0.061-0.124,0.13-0.374,0.068-0.499c-0.662-1.279-1.282-2.579-1.859-3.897C16.563,10.794,16.378,11.036,16.438,11.166z"/>
			<path opacity="0.1091" fill="#754C24" d="M17.22,12.349c0.579,1.32,1.2,2.62,1.861,3.902c0.049,0.098,0.442,0.023,0.489,0.119
				c-0.662-1.28-1.283-2.581-1.862-3.902C17.666,12.373,17.263,12.442,17.22,12.349z"/>
			<path opacity="0.1091" fill="#754C24" d="M18.82,11.208c0.581,1.318,1.204,2.617,1.867,3.896
				c-0.071-0.141,0.004-0.355-0.066-0.498c-0.663-1.279-1.286-2.579-1.867-3.897C18.82,10.854,18.752,11.062,18.82,11.208z"/>
			<path opacity="0.1091" fill="#754C24" d="M16.717,10.59c0.579,1.317,1.199,2.616,1.859,3.895c-0.032-0.064,0.34-0.331,0.306-0.4
				c-0.66-1.277-1.28-2.576-1.859-3.895C17.055,10.259,16.684,10.517,16.717,10.59z"/>
			<path opacity="0.1091" fill="#754C24" d="M17.467,10.327c0.579,1.318,1.2,2.616,1.862,3.894c0.029,0.058,0.475-0.095,0.501-0.044
				c-0.662-1.277-1.283-2.576-1.862-3.893C17.943,10.229,17.488,10.375,17.467,10.327z"/>
			<path opacity="0.1091" fill="#754C24" d="M18.539,11.869c0.58,1.319,1.203,2.619,1.866,3.899
				c-0.037-0.075,0.309-0.345,0.27-0.423c-0.663-1.28-1.286-2.58-1.866-3.9C18.845,11.524,18.499,11.783,18.539,11.869z"/>
			<path opacity="0.1091" fill="#754C24" d="M16.648,11.756c0.579,1.319,1.197,2.619,1.859,3.899
				c-0.073-0.149-0.091-0.327-0.166-0.475c-0.662-1.28-1.28-2.58-1.857-3.899C16.553,11.433,16.579,11.604,16.648,11.756z"/>
		</g>
	</g>
</g>
<g>
	<g>
		<g>
			<path opacity="0.1091" fill="#754C24" d="M17.592,14.876c1.009,1.279,1.923,2.127,3.276,3.034
				c0.084,0.057,0.392-0.224,0.475-0.169c-1.354-0.906-2.269-1.755-3.277-3.034C18.029,14.661,17.621,14.914,17.592,14.876z"/>
			<path opacity="0.1091" fill="#754C24" d="M16.904,14.202c1.006,1.282,1.899,2.124,3.277,3.051
				c-0.126-0.084-0.137-0.342-0.264-0.428c-1.316-0.743-2.403-1.754-3.258-3.031C16.71,13.86,16.818,14.094,16.904,14.202z"/>
			<path opacity="0.1091" fill="#754C24" d="M16.666,12.507c1.008,1.277,1.924,2.126,3.276,3.034
				c0.076,0.051,0.387-0.248,0.462-0.198c-1.352-0.908-2.267-1.755-3.276-3.033C17.097,12.27,16.688,12.536,16.666,12.507z"/>
			<path opacity="0.1091" fill="#754C24" d="M17.715,13.895c0.959,1.181,1.953,2.036,3.148,2.966
				c0.028,0.022,0.336-0.363,0.366-0.346c-1.553-0.926-2.36-1.705-3.462-3.12C17.833,13.48,17.633,13.794,17.715,13.895z"/>
			<path opacity="0.1091" fill="#754C24" d="M17.548,12.222c1.007,1.277,1.925,2.127,3.276,3.035c0.133,0.09,0.352,0.051,0.483,0.14
				c-1.351-0.91-2.268-1.759-3.276-3.037C17.943,12.25,17.629,12.326,17.548,12.222z"/>
			<path opacity="0.1091" fill="#754C24" d="M16.056,13.682c1.009,1.281,1.922,2.127,3.275,3.036
				c-0.06-0.042,0.13-0.457,0.068-0.499c-1.353-0.908-2.268-1.756-3.275-3.035C16.193,13.271,15.981,13.586,16.056,13.682z"/>
			<path opacity="0.1091" fill="#754C24" d="M16.84,14.868c1.009,1.28,1.922,2.128,3.276,3.037c0.131,0.087,0.358,0.033,0.488,0.121
				c-1.354-0.908-2.267-1.758-3.276-3.038C17.245,14.88,16.919,14.968,16.84,14.868z"/>
			<path opacity="0.1091" fill="#754C24" d="M18.44,13.726c1.01,1.278,1.928,2.126,3.282,3.034
				c-0.091-0.061,0.026-0.436-0.068-0.499c-1.352-0.908-2.271-1.758-3.282-3.035C18.458,13.336,18.348,13.61,18.44,13.726z"/>
			<path opacity="0.1091" fill="#754C24" d="M16.335,13.104c1.009,1.279,1.924,2.127,3.278,3.036
				c0.01,0.007,0.299-0.404,0.306-0.399c-1.354-0.908-2.269-1.756-3.277-3.037C16.663,12.732,16.306,13.067,16.335,13.104z"/>
			<path opacity="0.1091" fill="#754C24" d="M17.088,12.854c1.009,1.273,1.925,2.118,3.276,3.021
				c0.109,0.074,0.393-0.116,0.501-0.044c-1.351-0.904-2.267-1.748-3.276-3.021C17.525,12.729,17.138,12.917,17.088,12.854z"/>
			<path opacity="0.1091" fill="#754C24" d="M18.16,14.386c1.01,1.279,1.926,2.129,3.279,3.037c-0.001-0.001,0.275-0.421,0.27-0.425
				c-1.353-0.908-2.269-1.756-3.278-3.035C18.46,14,18.122,14.338,18.16,14.386z"/>
			<path opacity="0.1091" fill="#754C24" d="M16.268,14.274c1.007,1.28,1.921,2.128,3.274,3.035c-0.11-0.073-0.054-0.4-0.165-0.475
				c-1.354-0.907-2.267-1.755-3.275-3.036C16.198,13.921,16.169,14.148,16.268,14.274z"/>
		</g>
	</g>
</g>
<g>
	<g>
		<g>
			<path opacity="0.1091" fill="#754C24" d="M20.893,18.222c-0.277-0.115-0.552-0.229-0.828-0.345
				c-0.116-0.048-0.361,0.216-0.475,0.169c0.277,0.115,0.552,0.23,0.828,0.345C20.536,18.44,20.781,18.176,20.893,18.222z"/>
			<path opacity="0.1091" fill="#754C24" d="M19.469,17.308c-0.275-0.115-0.551-0.229-0.828-0.345
				c0.125,0.051,0.138,0.374,0.266,0.428c0.275,0.115,0.551,0.23,0.827,0.345C19.61,17.685,19.596,17.361,19.469,17.308z"/>
			<path opacity="0.1091" fill="#754C24" d="M19.958,15.829c-0.277-0.115-0.552-0.23-0.828-0.345
				c-0.111-0.045-0.357,0.242-0.464,0.198c0.275,0.115,0.552,0.229,0.828,0.344C19.604,16.072,19.851,15.786,19.958,15.829z"/>
			<path opacity="0.1091" fill="#754C24" d="M20.612,16.915c-0.225-0.097-0.449-0.194-0.671-0.291
				c-0.035-0.015-0.232,0.448-0.205,0.459c0.275,0.111,0.55,0.222,0.824,0.331C20.518,17.398,20.659,16.936,20.612,16.915z"/>
			<path opacity="0.1091" fill="#754C24" d="M20.857,15.883c-0.275-0.115-0.551-0.23-0.828-0.345
				c-0.153-0.064-0.329-0.075-0.483-0.139c0.275,0.114,0.552,0.229,0.828,0.343C20.528,15.808,20.705,15.819,20.857,15.883z"/>
			<path opacity="0.1091" fill="#754C24" d="M18.953,16.702c-0.275-0.115-0.552-0.23-0.828-0.345
				c0.037,0.017-0.109,0.481-0.066,0.498c0.275,0.115,0.551,0.23,0.826,0.345C18.849,17.187,18.996,16.72,18.953,16.702z"/>
			<path opacity="0.1091" fill="#754C24" d="M20.157,18.505c-0.275-0.115-0.551-0.229-0.828-0.345
				c-0.152-0.063-0.335-0.057-0.489-0.12c0.277,0.115,0.552,0.229,0.828,0.345C19.822,18.45,20.004,18.442,20.157,18.505z"/>
			<path opacity="0.1091" fill="#754C24" d="M21.205,16.745c-0.275-0.115-0.552-0.23-0.828-0.345
				c0.075,0.032-0.014,0.465,0.066,0.498c0.277,0.115,0.552,0.23,0.829,0.345C21.198,17.213,21.286,16.779,21.205,16.745z"/>
			<path opacity="0.1091" fill="#754C24" d="M19.472,16.226c-0.275-0.115-0.551-0.23-0.826-0.345c-0.043-0.017-0.27,0.415-0.308,0.4
				c0.277,0.115,0.552,0.229,0.828,0.345C19.21,16.644,19.437,16.212,19.472,16.226z"/>
			<path opacity="0.1091" fill="#754C24" d="M20.417,16.316c-0.277-0.115-0.552-0.23-0.828-0.345
				c-0.139-0.057-0.366,0.101-0.501,0.044c0.275,0.115,0.551,0.229,0.828,0.345C20.054,16.418,20.281,16.259,20.417,16.316z"/>
			<path opacity="0.1091" fill="#754C24" d="M21.257,17.48c-0.275-0.115-0.552-0.23-0.828-0.345c-0.03-0.013-0.248,0.435-0.27,0.425
				c0.275,0.115,0.552,0.23,0.828,0.345C21.018,17.917,21.235,17.472,21.257,17.48z"/>
			<path opacity="0.1091" fill="#754C24" d="M18.93,17.318c-0.275-0.115-0.551-0.229-0.826-0.345
				c0.101,0.042,0.06,0.431,0.165,0.475c0.276,0.115,0.553,0.229,0.828,0.344C18.996,17.751,19.037,17.362,18.93,17.318z"/>
		</g>
	</g>
</g>
<g>
	<g>
		<g>
			<path opacity="0.1091" fill="#754C24" d="M20.755,19.835c0.394,0-1.069-1.956-1.593-1.956
				C18.766,17.88,20.23,19.835,20.755,19.835z"/>
			<path opacity="0.1091" fill="#754C24" d="M19.417,18.745c0.474,0-0.54-1.271-0.914-1.271
				C18.032,17.474,19.044,18.745,19.417,18.745z"/>
			<path opacity="0.1091" fill="#754C24" d="M19.868,17.577c0.234,0,0.412-0.481,0.077-0.481
				C19.711,17.095,19.533,17.577,19.868,17.577z"/>
			<path opacity="0.1091" fill="#754C24" d="M20.452,18.436c0.407,0-0.993-1.808-1.489-1.808
				C18.554,16.628,19.953,18.436,20.452,18.436z"/>
			<path opacity="0.1091" fill="#754C24" d="M20.55,17.258c0.476,0,0.199-0.68-0.133-0.68C19.942,16.579,20.219,17.258,20.55,17.258
				z"/>
			<path opacity="0.1091" fill="#754C24" d="M18.996,18.545c0.289,0,0.39-0.52,0.048-0.52
				C18.753,18.025,18.652,18.545,18.996,18.545z"/>
			<path opacity="0.1091" fill="#754C24" d="M19.888,19.85c0.462,0-0.69-1.48-1.101-1.48C18.326,18.37,19.477,19.85,19.888,19.85z"
				/>
			<path opacity="0.1091" fill="#754C24" d="M21.196,18.356c0.411,0-0.959-1.734-1.445-1.734
				C19.34,16.622,20.71,18.356,21.196,18.356z"/>
			<path opacity="0.1091" fill="#754C24" d="M19.322,17.941c0.365,0,0.325-0.582-0.017-0.582
				C18.938,17.359,18.979,17.941,19.322,17.941z"/>
			<path opacity="0.1091" fill="#754C24" d="M20.024,17.596c0.466,0-0.352-1.003-0.688-1.003
				C18.871,16.593,19.689,17.596,20.024,17.596z"/>
			<path opacity="0.1091" fill="#754C24" d="M21.202,19.185c0.371,0-1.16-2.033-1.716-2.033
				C19.114,17.152,20.646,19.185,21.202,19.185z"/>
			<path opacity="0.1091" fill="#754C24" d="M18.958,19.024c0.509,0,0.186-0.718-0.138-0.718
				C18.311,18.306,18.636,19.024,18.958,19.024z"/>
		</g>
	</g>
</g>
<g>
	<g>
		<g>
			<path opacity="0.1091" fill="#754C24" d="M19.03,18.842c-0.896-0.282-1.734-0.684-2.517-1.203
				c-0.158,0.057-0.315,0.113-0.473,0.169c1.243,0.804,2.564,1.448,3.965,1.931c0.118,0.048,0.361-0.216,0.473-0.169
				c-1.399-0.483-2.721-1.126-3.965-1.931c-0.097-0.054-0.38,0.223-0.473,0.169c0.782,0.519,1.621,0.92,2.516,1.203
				C18.674,19.058,18.914,18.796,19.03,18.842z"/>
			<path opacity="0.1091" fill="#754C24" d="M17.61,17.927c-0.898-0.282-1.738-0.685-2.522-1.206
				c0.087,0.143,0.176,0.285,0.265,0.428c1.078,0.857,2.277,1.484,3.597,1.881c0.068,0.027,0.282-0.424,0.247-0.439
				c-1.415-0.524-2.784-1.147-4.108-1.87c0.126,0.064,0.137,0.356,0.265,0.428c0.783,0.521,1.625,0.922,2.522,1.207
				C17.751,18.306,17.736,17.978,17.61,17.927z"/>
			<path opacity="0.1091" fill="#754C24" d="M18.094,16.452c-0.897-0.287-1.737-0.691-2.521-1.214
				c-0.153,0.066-0.309,0.131-0.462,0.196c1.244,0.804,2.567,1.449,3.967,1.934c0.111,0.046,0.357-0.241,0.462-0.196
				c-1.399-0.485-2.721-1.129-3.967-1.934c-0.09-0.051-0.375,0.246-0.462,0.196c0.783,0.523,1.624,0.929,2.521,1.214
				C17.744,16.692,17.985,16.407,18.094,16.452z"/>
			<path opacity="0.1091" fill="#754C24" d="M18.752,17.537c-0.781-0.245-1.507-0.599-2.182-1.063
				c-0.075,0.151-0.148,0.302-0.221,0.453c1.091,0.729,2.26,1.3,3.507,1.709c0.111,0.045,0.315-0.414,0.216-0.454
				c-1.246-0.408-2.413-0.977-3.502-1.708c-0.113-0.063-0.342,0.382-0.221,0.453c0.723,0.497,1.506,0.868,2.35,1.11
				C18.661,18.022,18.795,17.553,18.752,17.537z"/>
			<path opacity="0.1091" fill="#754C24" d="M18.996,16.505c-0.897-0.287-1.736-0.69-2.517-1.214
				c-0.162-0.047-0.322-0.093-0.484-0.14c1.245,0.803,2.567,1.448,3.967,1.934c0.154,0.063,0.33,0.075,0.483,0.138
				c-1.399-0.484-2.721-1.129-3.966-1.932c-0.143-0.08-0.343-0.06-0.484-0.14c0.782,0.523,1.621,0.927,2.517,1.214
				C18.666,16.428,18.84,16.443,18.996,16.505z"/>
			<path opacity="0.1091" fill="#754C24" d="M17.091,17.323c-0.898-0.285-1.738-0.688-2.523-1.208
				c-0.024,0.166-0.046,0.332-0.068,0.498c1.244,0.804,2.567,1.448,3.968,1.932c-0.038-0.015,0.109-0.481,0.066-0.5
				c-1.401-0.483-2.723-1.126-3.967-1.931c0.051,0.029-0.124,0.466-0.068,0.498c0.785,0.522,1.626,0.925,2.524,1.208
				C16.987,17.808,17.13,17.339,17.091,17.323z"/>
			<path opacity="0.1091" fill="#754C24" d="M18.295,19.125c-0.896-0.282-1.735-0.684-2.519-1.203
				c-0.163-0.04-0.327-0.079-0.488-0.119c1.244,0.804,2.566,1.448,3.967,1.93c0.153,0.063,0.335,0.057,0.488,0.12
				c-1.4-0.483-2.722-1.125-3.967-1.931c-0.141-0.079-0.349-0.04-0.488-0.119c0.783,0.519,1.624,0.919,2.519,1.202
				C17.961,19.066,18.142,19.064,18.295,19.125z"/>
			<path opacity="0.1091" fill="#754C24" d="M19.34,17.366c-0.896-0.284-1.733-0.687-2.514-1.208
				c0.022,0.166,0.044,0.332,0.066,0.498c1.244,0.804,2.566,1.448,3.965,1.932c-0.075-0.03,0.014-0.465-0.066-0.498
				c-1.399-0.484-2.721-1.128-3.965-1.932c0.086,0.048-0.023,0.447,0.066,0.498c0.781,0.522,1.619,0.925,2.514,1.208
				C19.333,17.835,19.419,17.398,19.34,17.366z"/>
			<path opacity="0.1091" fill="#754C24" d="M17.61,16.847c-0.897-0.285-1.738-0.689-2.522-1.211
				c-0.102,0.133-0.205,0.266-0.306,0.4c1.244,0.804,2.567,1.448,3.967,1.932c0.044,0.018,0.27-0.415,0.306-0.4
				c-1.399-0.483-2.723-1.128-3.967-1.932c-0.023-0.013-0.289,0.41-0.306,0.4c0.783,0.522,1.625,0.926,2.522,1.211
				C17.348,17.265,17.57,16.832,17.61,16.847z"/>
			<path opacity="0.1091" fill="#754C24" d="M18.554,16.94c-0.894-0.403-1.759-0.864-2.592-1.381
				c-0.094,0.139-0.188,0.278-0.281,0.417c1.186,0.778,2.451,1.396,3.793,1.854c0.083,0.033,0.28-0.431,0.201-0.462
				c-1.314-0.443-2.553-1.045-3.713-1.808c-0.029-0.017-0.289,0.413-0.281,0.417c0.711,0.525,1.503,0.861,2.372,1.009
				C18.194,17.024,18.428,16.878,18.554,16.94z"/>
			<path opacity="0.1091" fill="#754C24" d="M19.394,18.101c-0.894-0.284-1.733-0.685-2.514-1.205
				c-0.09,0.141-0.18,0.282-0.27,0.425c1.244,0.803,2.564,1.448,3.965,1.931c0.03,0.013,0.246-0.435,0.27-0.425
				c-1.399-0.483-2.721-1.127-3.966-1.931c-0.011-0.006-0.266,0.426-0.27,0.425c0.78,0.519,1.619,0.922,2.513,1.206
				C19.156,18.539,19.368,18.09,19.394,18.101z"/>
			<path opacity="0.1091" fill="#754C24" d="M17.069,17.938c-0.897-0.284-1.738-0.685-2.523-1.206
				c0.056,0.158,0.111,0.317,0.166,0.475c1.245,0.804,2.568,1.448,3.968,1.931c-0.101-0.042-0.061-0.431-0.166-0.475
				c-1.4-0.483-2.724-1.126-3.968-1.931c0.109,0.061,0.056,0.413,0.166,0.475c0.785,0.521,1.626,0.922,2.525,1.206
				C17.135,18.374,17.172,17.979,17.069,17.938z"/>
		</g>
	</g>
</g>
<g>
	<g>
		<g>
			<path opacity="0.1091" fill="#754C24" d="M20.168,19.739c-0.618-0.287-1.235-0.574-1.854-0.861
				c-0.109-0.05-0.365,0.219-0.473,0.169c0.617,0.286,1.234,0.574,1.853,0.861C19.804,19.958,20.06,19.689,20.168,19.739z"/>
			<path opacity="0.1091" fill="#754C24" d="M19.233,17.348c-0.619-0.288-1.237-0.576-1.854-0.865
				c-0.103-0.047-0.361,0.245-0.464,0.198c0.619,0.288,1.237,0.576,1.855,0.864C18.872,17.592,19.132,17.301,19.233,17.348z"/>
			<path opacity="0.1091" fill="#754C24" d="M20.133,17.402c-0.619-0.288-1.236-0.577-1.854-0.865
				c-0.151-0.07-0.333-0.069-0.483-0.138c0.617,0.288,1.234,0.576,1.853,0.864C19.8,17.332,19.982,17.332,20.133,17.402z"/>
			<path opacity="0.1091" fill="#754C24" d="M18.23,18.22c-0.619-0.288-1.237-0.576-1.856-0.862
				c0.044,0.021-0.114,0.478-0.068,0.499c0.619,0.288,1.237,0.574,1.856,0.862C18.118,18.698,18.276,18.241,18.23,18.22z"/>
			<path opacity="0.1091" fill="#754C24" d="M19.434,20.021c-0.623-0.274-1.246-0.547-1.869-0.821
				c-0.152-0.068-0.311-0.125-0.462-0.198c0.614,0.3,1.228,0.599,1.841,0.899C19.092,19.974,19.283,19.955,19.434,20.021z"/>
			<path opacity="0.1091" fill="#754C24" d="M18.208,18.835c-0.619-0.288-1.237-0.575-1.856-0.861
				c0.105,0.048,0.059,0.425,0.166,0.473c0.619,0.288,1.237,0.576,1.856,0.862C18.269,19.261,18.314,18.885,18.208,18.835z"/>
			<path opacity="0.1091" fill="#754C24" d="M15.797,17.564c1.413,1.132,2.757,2.529,4.071,3.727
				c0.061,0.054,0.418-0.221,0.475-0.168c-1.313-1.197-2.659-2.595-4.071-3.726C16.202,17.341,15.866,17.62,15.797,17.564z"/>
			<path opacity="0.1091" fill="#754C24" d="M18.748,18.824c-1.45-0.672-2.696-1.261-3.9-2.343c0.087,0.143,0.176,0.285,0.265,0.428
				c1.045,1.463,2.521,2.558,3.838,3.758c-0.001,0,0.318-0.383,0.287-0.413c-1.411-1.289-2.728-2.813-4.389-3.773
				c0.125,0.072,0.154,0.328,0.265,0.428c1.204,1.083,2.45,1.67,3.9,2.343C18.886,19.193,18.876,18.883,18.748,18.824z"/>
			<path opacity="0.1091" fill="#754C24" d="M15.582,15.765c1.038,1.135,2.157,2.187,3.359,3.156
				c0.053,0.048,0.413-0.242,0.462-0.197c-1.202-0.969-2.321-2.021-3.359-3.157C16.003,15.524,15.62,15.805,15.582,15.765z"/>
			<path opacity="0.1091" fill="#754C24" d="M19.89,18.434c-1.449-0.675-2.693-1.264-3.898-2.346
				c-0.018,0.166-0.034,0.333-0.052,0.5c1.32,1.168,2.583,2.436,3.884,3.623c0.021,0.019,0.354-0.357,0.322-0.385
				c-1.287-1.175-2.687-2.677-4.154-3.737c0.071,0.051-0.12,0.439-0.052,0.5c1.204,1.084,2.448,1.672,3.897,2.346
				C19.79,18.911,19.941,18.457,19.89,18.434z"/>
			<path opacity="0.1091" fill="#754C24" d="M16.464,15.481c1.038,1.135,2.158,2.188,3.359,3.156c0.112,0.102,0.374,0.04,0.483,0.14
				c-1.201-0.969-2.321-2.021-3.358-3.156C16.849,15.515,16.562,15.585,16.464,15.481z"/>
			<path opacity="0.1091" fill="#754C24" d="M14.972,16.941c1.037,1.136,2.157,2.188,3.359,3.157
				c-0.071-0.064,0.139-0.433,0.066-0.5c-1.201-0.968-2.321-2.02-3.359-3.156C15.109,16.519,14.897,16.864,14.972,16.941z"/>
			<path opacity="0.1091" fill="#754C24" d="M15.758,18.13c1.037,1.135,2.157,2.187,3.358,3.156c0.109,0.1,0.381,0.021,0.489,0.119
				c-1.202-0.968-2.321-2.02-3.359-3.154C16.148,18.147,15.854,18.231,15.758,18.13z"/>
			<path opacity="0.1091" fill="#754C24" d="M20.478,18.263c-1.449-0.674-2.692-1.264-3.895-2.346
				c0.022,0.167,0.044,0.333,0.066,0.499c1.413,1.131,2.758,2.529,4.071,3.726c-0.093-0.086,0.03-0.411-0.066-0.5
				c-1.313-1.196-2.658-2.595-4.071-3.725c0.095,0.076-0.026,0.414,0.066,0.499c1.204,1.083,2.447,1.672,3.895,2.346
				C20.465,18.724,20.562,18.302,20.478,18.263z"/>
			<path opacity="0.1091" fill="#754C24" d="M18.749,17.744c-1.451-0.675-2.696-1.264-3.902-2.347
				c-0.101,0.133-0.203,0.266-0.306,0.398c1.413,1.131,2.757,2.529,4.07,3.726c-0.008-0.008,0.318-0.388,0.306-0.4
				c-1.313-1.196-2.658-2.594-4.071-3.725c0.006,0.004-0.313,0.392-0.306,0.398c1.206,1.084,2.451,1.673,3.902,2.349
				C18.478,18.16,18.717,17.73,18.749,17.744z"/>
			<path opacity="0.1091" fill="#754C24" d="M19.693,17.837c-1.45-0.675-2.695-1.267-3.899-2.35
				c-0.166,0.015-0.333,0.03-0.501,0.045c1.413,1.305,2.75,2.612,4.188,3.921c0.032,0.029,0.38-0.331,0.371-0.339
				c-0.942-0.861-2.671-2.776-4.058-3.627c-0.104-0.064-0.414,0.123-0.501,0.045c1.206,1.083,2.448,1.673,3.899,2.349
				C19.325,17.943,19.563,17.776,19.693,17.837z"/>
			<path opacity="0.1091" fill="#754C24" d="M20.532,18.997c-1.448-0.673-2.69-1.261-3.895-2.344c-0.09,0.142-0.18,0.284-0.27,0.425
				c1.413,1.131,2.757,2.529,4.07,3.726c-0.018-0.018,0.293-0.403,0.27-0.425c-1.313-1.197-2.657-2.595-4.071-3.726
				c0.017,0.013-0.288,0.409-0.27,0.425c1.204,1.082,2.447,1.67,3.895,2.343C20.284,19.433,20.515,18.99,20.532,18.997z"/>
			<path opacity="0.1091" fill="#754C24" d="M15.182,17.535c1.038,1.135,2.158,2.188,3.359,3.156
				c-0.108-0.098-0.055-0.375-0.165-0.475c-1.203-0.969-2.323-2.021-3.359-3.156C15.122,17.171,15.077,17.423,15.182,17.535z"/>
		</g>
	</g>
</g>
<g>
	<g>
		<g>
			<path opacity="0.1091" fill="#754C24" d="M21.651,22.499c-1.67,0.121-2.764-0.075-4.346-0.618
				c-0.125-0.043-0.351,0.211-0.474,0.168c1.581,0.543,2.675,0.739,4.345,0.617C21.339,22.656,21.491,22.511,21.651,22.499z"/>
			<path opacity="0.1091" fill="#754C24" d="M20.228,21.585c-1.669,0.121-2.766-0.077-4.346-0.621
				c0.122,0.042,0.141,0.386,0.266,0.427c1.581,0.544,2.675,0.742,4.346,0.622C20.418,22.019,20.309,21.58,20.228,21.585z"/>
			<path opacity="0.1091" fill="#754C24" d="M20.716,20.107c-1.67,0.119-2.767-0.081-4.347-0.625
				c-0.119-0.04-0.346,0.237-0.464,0.197c1.582,0.545,2.678,0.743,4.348,0.624C20.412,20.292,20.558,20.118,20.716,20.107z"/>
			<path opacity="0.1091" fill="#754C24" d="M21.372,21.192c-1.669,0.121-2.764-0.077-4.345-0.62
				c0.029,0.01-0.098,0.486-0.063,0.499c1.583,0.544,2.683,0.742,4.356,0.623C21.351,21.69,21.346,21.195,21.372,21.192z"/>
			<path opacity="0.1091" fill="#754C24" d="M21.132,20.021c-0.984,0.187-1.957,0.143-2.919-0.133
				c0.156,0.044,0.314,0.09,0.471,0.134c-0.471-0.162-0.943-0.324-1.413-0.486c-0.158-0.055-0.325-0.086-0.483-0.14
				c1.769,0.609,2.831,0.905,4.828,0.764C21.46,20.172,21.291,20.01,21.132,20.021z"/>
			<path opacity="0.1091" fill="#754C24" d="M19.712,20.98c-1.672,0.119-2.768-0.078-4.35-0.622c0.03,0.01-0.1,0.487-0.068,0.498
				c1.582,0.544,2.68,0.741,4.35,0.622C19.681,21.476,19.681,20.981,19.712,20.98z"/>
			<path opacity="0.1091" fill="#754C24" d="M20.428,22.662c-0.984,0.189-1.958,0.146-2.922-0.128
				c0.163,0.041,0.327,0.081,0.488,0.121c-0.475-0.164-0.951-0.327-1.425-0.49c-0.158-0.054-0.331-0.066-0.489-0.12
				c1.755,0.604,2.853,0.882,4.836,0.737C20.757,22.793,20.587,22.65,20.428,22.662z"/>
			<path opacity="0.1091" fill="#754C24" d="M21.96,21.023c-1.667,0.119-2.762-0.077-4.342-0.621
				c0.069,0.023-0.007,0.473,0.066,0.498c1.581,0.544,2.674,0.741,4.344,0.622C22.022,21.521,21.976,21.022,21.96,21.023z"/>
			<path opacity="0.1091" fill="#754C24" d="M20.231,20.504c-1.67,0.118-2.768-0.079-4.349-0.624
				c-0.053-0.017-0.258,0.417-0.306,0.4c1.581,0.544,2.677,0.742,4.349,0.623C20.039,20.895,20.122,20.511,20.231,20.504z"/>
			<path opacity="0.1091" fill="#754C24" d="M21.123,20.597c-1.509,0.198-2.94-0.009-4.294-0.624
				c-0.145-0.051-0.357,0.094-0.501,0.044c1.697,0.584,2.691,0.74,4.399,0.617C20.791,20.63,21.25,20.587,21.123,20.597z"/>
			<path opacity="0.1091" fill="#754C24" d="M22.016,21.757c-1.669,0.122-2.763-0.075-4.343-0.619
				c-0.039-0.014-0.235,0.437-0.27,0.425c1.581,0.542,2.674,0.739,4.343,0.619C21.848,22.175,21.918,21.764,22.016,21.757z"/>
			<path opacity="0.1091" fill="#754C24" d="M19.69,21.595c-1.671,0.121-2.769-0.076-4.351-0.62
				c0.099,0.033,0.068,0.441,0.167,0.475c1.582,0.544,2.678,0.741,4.35,0.62C19.815,22.072,19.736,21.592,19.69,21.595z"/>
		</g>
	</g>
</g>
<g>
	<g>
		<g>
			<path opacity="0.1091" fill="#754C24" d="M15.556,21.909c0.666,0.401,1.333,0.803,2,1.204c0.094,0.057,0.385-0.222,0.475-0.169
				c-0.667-0.401-1.334-0.803-2.001-1.204C15.935,21.685,15.643,21.963,15.556,21.909z"/>
			<path opacity="0.1091" fill="#754C24" d="M14.63,19.545c0.667,0.4,1.334,0.8,2,1.202c0.087,0.051,0.381-0.248,0.464-0.198
				c-0.667-0.4-1.333-0.8-2-1.2C15.006,19.296,14.713,19.593,14.63,19.545z"/>
			<path opacity="0.1091" fill="#754C24" d="M15.51,19.263c0.667,0.4,1.334,0.8,2.001,1.2c0.14,0.084,0.345,0.057,0.483,0.14
				c-0.667-0.4-1.333-0.802-2-1.202C15.855,19.318,15.649,19.344,15.51,19.263z"/>
			<path opacity="0.1091" fill="#754C24" d="M14.022,20.72c0.666,0.4,1.332,0.801,1.999,1.201c-0.055-0.033,0.126-0.462,0.066-0.498
				c-0.666-0.401-1.332-0.802-1.999-1.203C14.143,20.253,13.961,20.684,14.022,20.72z"/>
			<path opacity="0.1091" fill="#754C24" d="M14.806,21.903c0.666,0.401,1.333,0.803,2,1.204c0.137,0.083,0.352,0.039,0.489,0.121
				c-0.667-0.402-1.334-0.804-2-1.205C15.156,21.941,14.941,21.986,14.806,21.903z"/>
			<path opacity="0.1091" fill="#754C24" d="M14.233,21.311c0.667,0.401,1.333,0.803,2,1.203c-0.109-0.064-0.054-0.407-0.166-0.475
				c-0.667-0.401-1.333-0.801-1.999-1.203C14.176,20.901,14.121,21.243,14.233,21.311z"/>
			<path opacity="0.1091" fill="#754C24" d="M14.871,21.254c1.289,0.875,2.658,1.598,4.104,2.173
				c-0.126-0.059-0.137-0.37-0.264-0.428c-1.448-0.575-2.815-1.3-4.105-2.173C14.732,20.903,14.741,21.177,14.871,21.254z"/>
			<path opacity="0.1091" fill="#754C24" d="M15.697,20.935c1.289,0.874,2.657,1.598,4.106,2.173
				c-0.048-0.021,0.101-0.478,0.051-0.501c-1.448-0.574-2.817-1.299-4.106-2.173C15.807,20.468,15.633,20.896,15.697,20.935z"/>
			<path opacity="0.1091" fill="#754C24" d="M16.409,20.762c1.29,0.875,2.657,1.599,4.105,2.173
				c-0.082-0.037,0.015-0.46-0.068-0.498c-1.448-0.575-2.815-1.3-4.104-2.173C16.428,20.316,16.316,20.706,16.409,20.762z"/>
			<path opacity="0.1091" fill="#754C24" d="M14.303,20.144c1.289,0.874,2.656,1.598,4.103,2.171
				c0.033,0.016,0.273-0.415,0.306-0.399c-1.447-0.575-2.814-1.298-4.103-2.172C14.588,19.733,14.314,20.151,14.303,20.144z"/>
			<path opacity="0.1091" fill="#754C24" d="M15.052,19.878c1.29,0.874,2.657,1.599,4.104,2.173
				c0.133,0.063,0.371-0.105,0.501-0.045c-1.447-0.574-2.815-1.299-4.104-2.173C15.436,19.764,15.166,19.948,15.052,19.878z"/>
			<path opacity="0.1091" fill="#754C24" d="M16.124,21.423c1.29,0.875,2.659,1.598,4.106,2.174c0.022,0.01,0.25-0.434,0.27-0.425
				c-1.448-0.574-2.817-1.3-4.106-2.175C16.386,20.994,16.124,21.423,16.124,21.423z"/>
		</g>
	</g>
</g>
<g>
	<g>
		<g>
			<path opacity="0.1091" fill="#754C24" d="M22.741,24.318c-0.616,0.211-1.232,0.423-1.847,0.634
				c-0.161,0.049-0.314,0.119-0.475,0.169c0.984-0.303,1.811-0.592,2.771-0.962C23.107,24.191,22.871,24.268,22.741,24.318z"/>
			<path opacity="0.1091" fill="#754C24" d="M21.78,23.24c-0.753,0.317-1.522,0.582-2.312,0.795c0.039-0.013,0.222,0.44,0.266,0.428
				c0.788-0.214,1.557-0.478,2.311-0.795C22.019,23.678,21.812,23.229,21.78,23.24z"/>
			<path opacity="0.1091" fill="#754C24" d="M22.255,21.767c-0.767,0.262-1.534,0.523-2.3,0.786
				c-0.159,0.048-0.303,0.148-0.462,0.196c1.539-0.469,0.819-0.224,2.326-0.794C21.948,21.905,22.172,21.798,22.255,21.767z"/>
			<path opacity="0.1091" fill="#754C24" d="M22.924,22.848c-0.748,0.29-1.506,0.544-2.277,0.758
				c-0.051,0.016,0.105,0.493,0.17,0.474c0.708-0.177,1.392-0.421,2.054-0.73C22.944,23.318,22.854,22.872,22.924,22.848z"/>
			<path opacity="0.1091" fill="#754C24" d="M22.685,21.676c-0.752,0.314-1.521,0.578-2.309,0.79
				c0.133-0.041,0.347,0.181,0.483,0.14c0.788-0.212,1.558-0.475,2.311-0.789C23.045,21.862,22.812,21.628,22.685,21.676z"/>
			<path opacity="0.1091" fill="#754C24" d="M21.263,22.636c-0.753,0.315-1.525,0.58-2.314,0.793
				c-0.069,0.021-0.001,0.478-0.068,0.498c0.791-0.213,1.562-0.478,2.316-0.793C21.274,23.104,21.19,22.662,21.263,22.636z"/>
			<path opacity="0.1091" fill="#754C24" d="M21.979,24.317c-0.753,0.318-1.524,0.584-2.312,0.799
				c0.137-0.042,0.35,0.163,0.489,0.12c0.788-0.215,1.559-0.48,2.311-0.799C22.341,24.486,22.109,24.268,21.979,24.317z"/>
			<path opacity="0.1091" fill="#754C24" d="M23.516,22.677c-0.753,0.317-1.522,0.582-2.311,0.795
				c-0.029,0.01,0.09,0.491,0.068,0.498c0.787-0.213,1.557-0.478,2.31-0.793C23.622,23.161,23.484,22.689,23.516,22.677z"/>
			<path opacity="0.1091" fill="#754C24" d="M21.783,22.158c-0.754,0.315-1.525,0.58-2.314,0.792
				c-0.131,0.04-0.177,0.359-0.306,0.399c0.789-0.213,1.56-0.476,2.314-0.791C21.611,22.507,21.651,22.208,21.783,22.158z"/>
			<path opacity="0.1091" fill="#754C24" d="M22.226,22.292c-0.752,0.317-1.522,0.582-2.31,0.795
				c0.155-0.047,0.343,0.004,0.501-0.044c0.788-0.214,1.557-0.478,2.31-0.795C22.577,22.305,22.378,22.235,22.226,22.292z"/>
			<path opacity="0.1091" fill="#754C24" d="M23.567,23.413c-0.75,0.317-1.52,0.582-2.308,0.796
				c-0.123,0.038-0.149,0.388-0.27,0.424c0.788-0.213,1.556-0.479,2.307-0.796C23.426,23.789,23.445,23.461,23.567,23.413z"/>
			<path opacity="0.1091" fill="#754C24" d="M21.242,23.25c-0.754,0.317-1.525,0.583-2.315,0.796
				c0.005-0.001,0.159,0.478,0.166,0.475c0.791-0.213,1.562-0.479,2.315-0.796C21.415,23.722,21.24,23.25,21.242,23.25z"/>
		</g>
	</g>
</g>
<g>
	<g>
		<g>
			<path opacity="0.1091" fill="#754C24" d="M17.563,23.271c0.53,0.093,1.06,0.186,1.59,0.277c2.252-0.178,2.181,0.235-0.212,1.237
				c0.151-0.072,0.312-0.126,0.462-0.198c0.322-0.15,0.644-0.302,0.966-0.452c0.287-0.229,0.575-0.457,0.862-0.686
				c-1.083-0.004-2.152-0.13-3.207-0.376C17.887,23.05,17.701,23.295,17.563,23.271z"/>
			<path opacity="0.1091" fill="#754C24" d="M18.925,23.127c1.056,0.246,2.126,0.371,3.21,0.375
				c-0.161-0.047-0.323-0.093-0.483-0.14c-0.52,0.523-1.131,0.902-1.828,1.139c0.113-0.052,0.368,0.194,0.483,0.141
				c0.699-0.237,1.308-0.618,1.829-1.14c-0.059,0.047-0.395-0.134-0.483-0.14c-1.083-0.003-2.153-0.129-3.209-0.375
				C18.606,23.017,18.762,23.1,18.925,23.127z"/>
			<path opacity="0.1091" fill="#754C24" d="M16.955,24.444c1.054,0.247,2.121,0.374,3.203,0.38c0.022-0.166,0.044-0.332,0.066-0.5
				c-0.521,0.523-1.129,0.902-1.827,1.139c-0.083,0.039,0.015,0.46-0.066,0.499c0.698-0.237,1.307-0.616,1.827-1.138
				c0.042-0.033,0.037-0.501,0.066-0.5c-1.081-0.004-2.149-0.132-3.203-0.378C17.027,23.946,16.947,24.443,16.955,24.444z"/>
			<path opacity="0.1091" fill="#754C24" d="M18.226,25.747c1.055,0.249,2.123,0.378,3.207,0.385c-0.163-0.04-0.325-0.08-0.488-0.12
				c-0.521,0.522-1.129,0.9-1.829,1.138c0.118-0.056,0.37,0.174,0.489,0.119c0.699-0.235,1.308-0.613,1.828-1.137
				c-0.061,0.049-0.398-0.113-0.488-0.12c-1.084-0.007-2.152-0.136-3.207-0.385C17.902,25.657,18.061,25.718,18.226,25.747z"/>
			<path opacity="0.1091" fill="#754C24" d="M17.166,25.036c1.053,0.247,2.122,0.375,3.204,0.38
				c-0.055-0.157-0.11-0.315-0.166-0.475c-0.521,0.523-1.129,0.901-1.827,1.138c-0.017,0.009,0.18,0.468,0.166,0.475
				c0.697-0.236,1.307-0.614,1.827-1.138c0.008-0.005-0.15-0.473-0.166-0.475c-1.082-0.006-2.149-0.133-3.203-0.381
				C17.08,24.575,17.084,25.021,17.166,25.036z"/>
			<path opacity="0.1091" fill="#754C24" d="M18.486,25.632c1.056,0.251,2.126,0.378,3.209,0.385
				c-0.287,0.229-0.574,0.457-0.862,0.686c-1.259,0.438-1.294,0.576-0.104,0.417c0.161-0.006,0.314-0.164,0.474-0.169
				c-1.19,0.16-1.154,0.021,0.105-0.417c0.287-0.229,0.575-0.457,0.863-0.685c-1.085-0.008-2.155-0.136-3.21-0.384
				C18.817,25.438,18.628,25.658,18.486,25.632z"/>
			<path opacity="0.1091" fill="#754C24" d="M17.805,24.978c1.053,0.248,2.122,0.375,3.204,0.382
				c-0.088-0.143-0.176-0.285-0.264-0.428c-0.521,0.522-1.129,0.901-1.829,1.137c0.032-0.014,0.214,0.431,0.266,0.428
				c0.288-0.012,0.576-0.022,0.862-0.035c-0.08,0.005-0.18-0.43-0.264-0.428c-0.288,0.013-0.576,0.024-0.864,0.035
				c0.089,0.143,0.177,0.285,0.266,0.428c0.698-0.235,1.307-0.614,1.827-1.137c-0.007,0.006-0.227-0.426-0.264-0.428
				c-1.083-0.007-2.151-0.134-3.206-0.382C17.647,24.569,17.693,24.957,17.805,24.978z"/>
			<path opacity="0.1091" fill="#754C24" d="M18.63,24.659c1.055,0.248,2.125,0.374,3.208,0.379
				c0.017-0.166,0.035-0.333,0.053-0.499c-0.548,0.476-1.166,0.83-1.851,1.06c-0.069,0.031,0.202,0.407,0.279,0.403
				c0.308-0.014,0.615-0.029,0.922-0.045c-0.027,0.002-0.17-0.412-0.297-0.405c-0.291,0.014-0.583,0.028-0.874,0.042
				c0.093,0.134,0.187,0.269,0.28,0.402c0.609-0.147,1.104-0.468,1.488-0.958c0.038-0.035,0.028-0.501,0.053-0.499
				c-1.084-0.006-2.154-0.133-3.208-0.381C18.692,24.161,18.618,24.656,18.63,24.659z"/>
			<path opacity="0.1091" fill="#754C24" d="M19.337,24.487c1.056,0.248,2.127,0.374,3.212,0.38
				c-0.022-0.166-0.046-0.333-0.067-0.499c-0.521,0.522-1.131,0.901-1.829,1.138c-0.022,0.01,0.072,0.499,0.066,0.499
				c0.286-0.012,0.574-0.022,0.861-0.035c-0.014,0.002-0.048-0.498-0.066-0.498c-0.287,0.011-0.575,0.022-0.861,0.034
				c0.022,0.167,0.044,0.333,0.066,0.499c0.699-0.237,1.308-0.616,1.83-1.138c0.023-0.02-0.069-0.499-0.067-0.499
				c-1.085-0.005-2.155-0.133-3.211-0.379C19.316,23.996,19.285,24.478,19.337,24.487z"/>
			<path opacity="0.1091" fill="#754C24" d="M17.235,23.869c1.053,0.246,2.122,0.372,3.204,0.378c0.103-0.135,0.205-0.268,0.306-0.4
				c-0.521,0.521-1.129,0.902-1.827,1.14c-0.101,0.047-0.205,0.394-0.306,0.398c0.288-0.012,0.576-0.022,0.864-0.033
				c0.108-0.005,0.199-0.396,0.306-0.4c-0.288,0.011-0.576,0.023-0.864,0.035c-0.103,0.133-0.204,0.266-0.306,0.398
				c0.698-0.237,1.307-0.616,1.827-1.138c0.069-0.056,0.235-0.404,0.306-0.4c-1.083-0.004-2.15-0.13-3.205-0.376
				C17.463,23.456,17.31,23.883,17.235,23.869z"/>
			<path opacity="0.1091" fill="#754C24" d="M17.984,23.607c1.056,0.246,2.125,0.311,3.208,0.314C20.671,24.443,20.061,25,19.364,25
				c0.004,0,0.008,0,0.014,0c0.282,0,0.566,0.039,0.849,0.027c0.167-0.007,0.333-0.008,0.501-0.014
				c0.044-0.547,0.365-0.9,0.966-1.09c-1.083-0.006-2.152-0.124-3.208-0.37C18.324,23.526,18.143,23.635,17.984,23.607z"/>
			<path opacity="0.1091" fill="#754C24" d="M19.055,25.147c1.056,0.248,2.127,0.375,3.212,0.383
				c0.089-0.142,0.179-0.283,0.269-0.426c-0.521,0.523-1.129,0.902-1.829,1.138c-0.095,0.045-0.177,0.421-0.27,0.426
				c0.287-0.013,0.575-0.024,0.861-0.036c0.097-0.003,0.176-0.421,0.27-0.424c-0.286,0.011-0.574,0.022-0.861,0.034
				c-0.09,0.142-0.18,0.283-0.27,0.426c0.699-0.237,1.308-0.615,1.83-1.138c0.065-0.052,0.205-0.43,0.269-0.426
				c-1.085-0.005-2.155-0.133-3.211-0.382C19.26,24.712,19.116,25.159,19.055,25.147z"/>
		</g>
	</g>
</g>
<g>
	<g>
		<g>
			<path opacity="0.1091" fill="#754C24" d="M20.281,27.843c-0.511,0.545-0.454,0.76,0.167,0.643
				c0.857,0.04,0.148,0.602-0.028,1.017c0.043-0.103,0.428-0.063,0.474-0.169c0.101-0.32,0.262-0.608,0.481-0.865
				c-0.151-0.05-0.302-0.101-0.453-0.15c-0.623,0.116-0.678-0.099-0.168-0.644C20.702,27.779,20.336,27.731,20.281,27.843z"/>
			<path opacity="0.1091" fill="#754C24" d="M19.357,25.478c-0.511,0.548-0.454,0.761,0.167,0.641
				c0.856,0.034,0.144,0.6-0.034,1.009c0.049-0.109,0.416-0.084,0.464-0.196c0.101-0.32,0.263-0.606,0.484-0.859
				c-0.151-0.05-0.302-0.1-0.453-0.149c-0.621,0.119-0.677-0.095-0.167-0.642C19.764,25.393,19.415,25.361,19.357,25.478z"/>
			<path opacity="0.1091" fill="#754C24" d="M20.237,25.195c-0.104,0.206-0.208,0.413-0.311,0.621
				c0.008-0.019,0.426,0.137,0.483,0.139c0.161,0.007,0.32,0.014,0.48,0.021c-0.158-0.046-0.314-0.09-0.472-0.136
				c0.739,0.243,0.204,0.434-0.042,1.004c0.007-0.016,0.475,0.161,0.484,0.14c0.291-0.682,0.757-0.798-0.101-1.048
				c-0.325-0.095-0.456-0.104-0.833-0.119c0.162,0.046,0.322,0.093,0.483,0.139c0.104-0.207,0.208-0.414,0.312-0.62
				C20.708,25.358,20.252,25.164,20.237,25.195z"/>
			<path opacity="0.1091" fill="#754C24" d="M18.814,26.154c-0.102,0.206-0.206,0.414-0.31,0.62
				c-0.025,0.05-0.052,0.499-0.066,0.499c0.325-0.03,0.634,0.028,0.928,0.172c0.023-0.167,0.045-0.333,0.067-0.5
				c-0.221,0.255-0.385,0.542-0.486,0.862c-0.065,0.148-0.004,0.352-0.067,0.499c0.102-0.32,0.264-0.608,0.486-0.861
				c0.027-0.039,0.07-0.498,0.067-0.5c-0.293-0.144-0.603-0.2-0.929-0.171c-0.022,0.166-0.044,0.333-0.066,0.499
				c0.103-0.207,0.207-0.415,0.31-0.621C18.82,26.51,18.745,26.294,18.814,26.154z"/>
			<path opacity="0.1091" fill="#754C24" d="M19.531,27.837c-0.104,0.206-0.208,0.414-0.31,0.62c0.01-0.02,0.43,0.118,0.488,0.12
				c0.159,0.008,0.318,0.016,0.478,0.022c-0.163-0.04-0.325-0.079-0.488-0.119c0.754,0.254,0.219,0.432-0.032,1.018
				c0.01-0.023,0.478,0.146,0.489,0.119c0.285-0.666,0.736-0.843-0.098-1.051c-0.315-0.077-0.484-0.093-0.836-0.109
				c0.162,0.04,0.325,0.08,0.488,0.12c0.103-0.207,0.207-0.413,0.31-0.621C20.004,27.986,19.549,27.801,19.531,27.837z"/>
			<path opacity="0.1091" fill="#754C24" d="M18.793,26.769c-0.104,0.208-0.208,0.414-0.31,0.621
				c-0.017,0.032,0.151,0.476,0.165,0.476c0.327-0.029,0.635,0.028,0.929,0.173c-0.055-0.159-0.111-0.317-0.165-0.475
				c-0.223,0.253-0.385,0.541-0.486,0.862c-0.05,0.116,0.213,0.363,0.165,0.476c0.103-0.321,0.265-0.609,0.486-0.863
				c0.015-0.022-0.138-0.467-0.165-0.475c-0.293-0.145-0.604-0.202-0.929-0.174c0.055,0.158,0.109,0.317,0.165,0.476
				c0.104-0.207,0.208-0.414,0.312-0.622C19.012,27.137,18.742,26.871,18.793,26.769z"/>
			<path opacity="0.1091" fill="#754C24" d="M19.332,26.759c-0.104,0.208-0.208,0.414-0.311,0.621
				c-0.011,0.022,0.238,0.427,0.266,0.428c0.327-0.028,0.637,0.028,0.932,0.172c-0.089-0.143-0.177-0.285-0.266-0.428
				c-0.246,0.264-0.426,0.564-0.537,0.905c-0.007,0.014,0.337,0.334,0.379,0.331c0.561,0.001,1.11-0.077,1.648-0.234
				c-0.087,0.019-0.269-0.37-0.361-0.35c-0.542,0.167-1.099,0.252-1.666,0.253c0.126,0.111,0.251,0.221,0.379,0.331
				c0.09-0.296,0.231-0.566,0.424-0.809c0.01-0.017-0.229-0.415-0.266-0.428c-0.294-0.144-0.604-0.2-0.931-0.172
				c0.088,0.143,0.177,0.285,0.266,0.428c0.103-0.207,0.206-0.413,0.31-0.621C19.636,27.104,19.293,26.835,19.332,26.759z"/>
			<path opacity="0.1091" fill="#754C24" d="M20.475,26.366c-0.165,0.207-0.33,0.415-0.494,0.622
				c-0.069,0.088,0.365,0.244,0.431,0.237c0.311-0.075,0.623-0.073,0.934,0.003c-0.137-0.063-0.274-0.125-0.411-0.188
				c-0.35,0.424-0.262,0.289-0.508,0.791c-0.091,0.187,0.31,0.227,0.405,0.227c0.559,0.001,1.12,0.003,1.681,0
				c-0.143,0.001-0.304-0.203-0.461-0.201c-0.496,0.063-0.981,0.022-1.459-0.12c0.106,0.076,0.213,0.152,0.32,0.228
				c0.166-0.255,0.333-0.511,0.5-0.768c0.061-0.074-0.374-0.181-0.413-0.188c-0.327-0.105-0.657-0.119-0.994-0.043
				c0.144,0.077,0.288,0.156,0.431,0.235c0.012-0.274,0.025-0.549,0.037-0.822C20.474,26.376,20.475,26.371,20.475,26.366z"/>
			<path opacity="0.1091" fill="#754C24" d="M21.067,26.197c-0.104,0.206-0.208,0.413-0.312,0.62
				c-0.021,0.041,0.064,0.498,0.068,0.499c0.327-0.03,0.637,0.028,0.93,0.172c-0.022-0.166-0.044-0.332-0.066-0.5
				c-0.22,0.255-0.38,0.543-0.481,0.862c-0.02,0.046,0.072,0.499,0.066,0.5c0.563,0.001,1.115-0.079,1.655-0.242
				c0.016-0.003-0.079-0.495-0.067-0.498c-0.54,0.163-1.091,0.243-1.654,0.24c0.022,0.166,0.044,0.333,0.066,0.5
				c0.101-0.321,0.261-0.609,0.481-0.862c0.022-0.032-0.047-0.493-0.066-0.5c-0.295-0.144-0.605-0.2-0.932-0.171
				c0.022,0.166,0.046,0.332,0.068,0.499c0.104-0.207,0.208-0.415,0.31-0.621C21.198,26.569,21.006,26.317,21.067,26.197z"/>
			<path opacity="0.1091" fill="#754C24" d="M19.029,26.076c-0.104,0.208-0.208,0.414-0.31,0.622
				c0.465-0.132,0.68,0.061,0.641,0.575c-0.72,1.021,1.149,0.284,1.46,0.216c0.126-0.027,0.181-0.372,0.306-0.399
				c-0.871,0.19-2.241,0.893-1.179-0.61c0.001-0.003,0.004-0.007,0.007-0.01c-0.765-0.255-1.102,0.174-0.619-0.792
				C19.261,25.823,19.102,25.929,19.029,26.076z"/>
			<path opacity="0.1091" fill="#754C24" d="M19.777,25.811c-0.509,0.548-0.454,0.762,0.169,0.644
				c0.778,0.033,0.212,0.413,0.03,0.817c-0.009,0.021,0.354,0.3,0.406,0.297c0.562-0.003,1.111-0.081,1.651-0.238
				c-0.095,0.021-0.281-0.347-0.384-0.323c-0.544,0.172-1.102,0.26-1.672,0.265c0.136,0.1,0.27,0.197,0.406,0.297
				c0.119-0.362,0.291-0.699,0.518-1.009c-0.151-0.05-0.302-0.1-0.453-0.15c-0.623,0.118-0.678-0.096-0.169-0.643
				C20.241,25.843,19.819,25.729,19.777,25.811z"/>
			<path opacity="0.1091" fill="#754C24" d="M20.855,27.345c-0.104,0.206-0.208,0.413-0.311,0.62
				c-0.001,0.004-0.004,0.008-0.006,0.012c0.327-0.028,0.638,0.029,0.933,0.174c0.087-0.139,0.174-0.276,0.263-0.414
				c-0.167,0.239-0.328,0.473-0.483,0.718c-0.672,1.062,0.811,0.446,1.392,0.317c0.118-0.026,0.157-0.398,0.271-0.424
				c-0.525,0.116-1.886,0.795-1.464-0.203c-0.088,0.139-0.176,0.276-0.263,0.414c0.097-0.141,0.194-0.28,0.292-0.42
				c0.029-0.041,0.245-0.419,0.262-0.414c-0.467-0.015-0.676-0.276-0.628-0.781C21.074,27.021,20.918,27.22,20.855,27.345z"/>
		</g>
	</g>
</g>
<g>
	<g>
		<g>
			<path opacity="0.1091" fill="#754C24" d="M20.33,27.799c-0.055,0.042-0.109,0.084-0.165,0.127
				c-0.293,0.229,0.053,0.644,0.249,0.429c0.05-0.054,0.1-0.107,0.149-0.163C20.727,28.013,20.545,27.63,20.33,27.799z"/>
			<path opacity="0.1091" fill="#754C24" d="M19.448,27.34c-0.063,0.049-0.125,0.099-0.187,0.147
				c-0.245,0.194,1.268,1.656,1.6,1.308c0.012-0.013,0.025-0.025,0.037-0.039C21.173,28.47,19.784,27.073,19.448,27.34z"/>
			<path opacity="0.1091" fill="#754C24" d="M19.298,25.444c-0.05,0.077-0.098,0.154-0.146,0.232
				c-0.219,0.348,1.464,1.834,1.791,1.729c0.072-0.023,0.144-0.047,0.217-0.07C21.416,27.255,19.556,25.034,19.298,25.444z"/>
			<path opacity="0.1091" fill="#754C24" d="M20.529,27.077c-0.048,0.054-0.097,0.106-0.146,0.159
				c-0.256,0.279,0.992,1.313,1.252,1.198c0.057-0.024,0.112-0.05,0.169-0.073C22.063,28.247,20.865,26.713,20.529,27.077z"/>
			<path opacity="0.1091" fill="#754C24" d="M20.36,25.502c-0.041,0.075-0.081,0.149-0.122,0.225
				c-0.189,0.35,0.932,1.341,1.257,1.257c0.033-0.01,0.068-0.019,0.101-0.026C22.266,26.781,20.525,25.199,20.36,25.502z"/>
			<path opacity="0.1091" fill="#754C24" d="M18.521,26.529c-0.065,0.06-0.131,0.12-0.198,0.18c-0.247,0.225,1.574,1.93,1.906,1.588
				c0.018-0.019,0.035-0.036,0.053-0.055C20.56,27.958,18.839,26.24,18.521,26.529z"/>
			<path opacity="0.1091" fill="#754C24" d="M19.58,28.095c-0.025,0.021-0.05,0.044-0.075,0.064
				c-0.366,0.318,0.254,0.782,0.478,0.457c0.04-0.06,0.082-0.119,0.123-0.179C20.263,28.208,19.786,27.916,19.58,28.095z"/>
			<path opacity="0.1091" fill="#754C24" d="M21.048,26.777c-0.402,0.764,1.227,1.057,0.717,0.394
				c-0.146-0.189-0.354-0.455-0.613-0.455c0.18,0.296,0.36,0.593,0.54,0.889C22.277,27.375,21.207,26.478,21.048,26.777z"/>
			<path opacity="0.1091" fill="#754C24" d="M18.892,25.959c-0.057,0.069-0.113,0.139-0.171,0.207
				c-0.255,0.307,1.676,2.031,2.104,1.815c0.022-0.012,0.044-0.022,0.066-0.033C21.134,27.824,19.213,25.574,18.892,25.959z"/>
			<path opacity="0.1091" fill="#754C24" d="M19.923,26.05c-0.048,0.068-0.096,0.136-0.143,0.205
				c-0.231,0.334,1.434,1.79,1.763,1.698c0.065-0.018,0.132-0.036,0.198-0.054C21.964,27.839,20.219,25.621,19.923,26.05z"/>
			<path opacity="0.1091" fill="#754C24" d="M20.853,27.401c-0.046,0.048-0.091,0.098-0.137,0.146
				c-0.217,0.235,0.282,0.643,0.474,0.484c0.052-0.044,0.105-0.089,0.158-0.133C21.623,27.67,21.099,27.134,20.853,27.401z"/>
			<path opacity="0.1091" fill="#754C24" d="M18.744,27.264c-0.066,0.053-0.133,0.104-0.199,0.157
				c-0.273,0.213,1.237,1.554,1.486,1.186c0.014-0.021,0.029-0.041,0.043-0.063C20.308,28.195,19.073,27.007,18.744,27.264z"/>
		</g>
	</g>
</g>
<g>
	<g>
		<g>
			<path opacity="0.1091" fill="#754C24" d="M23.703,29.03c-0.691,0.362-1.383,0.726-2.074,1.087
				c-0.118,0.051,0.307-0.128,0.367-0.154c1.453-0.625,0.859-0.31,2.17-1.129C24.025,28.922,23.844,28.943,23.703,29.03z"/>
			<path opacity="0.1091" fill="#754C24" d="M23.161,29.707c-0.651,0.478-1.359,0.847-2.124,1.11
				c-0.082,0.034,0.01,0.465-0.066,0.498c0.764-0.263,1.473-0.633,2.124-1.11C23.188,30.147,23.071,29.763,23.161,29.707z"/>
			<path opacity="0.1091" fill="#754C24" d="M23.879,31.388c-0.65,0.479-1.358,0.853-2.124,1.115
				c0.122-0.051,0.366,0.175,0.489,0.12c0.766-0.263,1.473-0.635,2.122-1.114C24.269,31.57,23.977,31.325,23.879,31.388z"/>
			<path opacity="0.1091" fill="#754C24" d="M24.627,31.395c-0.703,0.369-1.404,0.739-2.107,1.109
				c0.153-0.055,0.309-0.109,0.462-0.164c-0.386,0.077-0.771,0.156-1.157,0.233c-0.162,0.033-0.31,0.138-0.474,0.171
				c1.44-0.292,2.466-0.71,3.75-1.519C24.964,31.313,24.766,31.307,24.627,31.395z"/>
			<path opacity="0.1091" fill="#754C24" d="M23.681,30.311c-1.107,0.694-1.999,1.088-3.28,1.347
				c0.055-0.011,0.206,0.438,0.264,0.428c1.283-0.259,2.174-0.652,3.281-1.347C23.949,30.735,23.682,30.31,23.681,30.311z"/>
			<path opacity="0.1091" fill="#754C24" d="M24.822,29.919c-1.104,0.694-1.996,1.086-3.277,1.345c-0.05,0.01-0.004,0.49-0.051,0.5
				c1.281-0.257,2.171-0.65,3.278-1.344C24.86,30.364,24.736,29.975,24.822,29.919z"/>
			<path opacity="0.1091" fill="#754C24" d="M24.583,28.748c-1.105,0.691-1.997,1.082-3.276,1.341
				c0.145-0.03,0.337,0.169,0.483,0.14c1.28-0.259,2.172-0.648,3.276-1.341C24.972,28.945,24.679,28.688,24.583,28.748z"/>
			<path opacity="0.1091" fill="#754C24" d="M25.411,29.75c-1.104,0.693-1.993,1.085-3.273,1.344
				c-0.013,0.003,0.076,0.497,0.067,0.498c1.279-0.259,2.169-0.65,3.273-1.344C25.539,30.209,25.355,29.784,25.411,29.75z"/>
			<path opacity="0.1091" fill="#754C24" d="M23.682,29.23c-1.106,0.692-2,1.084-3.281,1.342c-0.125,0.024-0.183,0.375-0.305,0.399
				c1.28-0.259,2.173-0.65,3.279-1.342C23.509,29.547,23.549,29.313,23.682,29.23z"/>
			<path opacity="0.1091" fill="#754C24" d="M24.125,29.368c-1.106,0.69-1.997,1.082-3.278,1.34
				c0.164-0.032,0.338-0.012,0.501-0.045c1.28-0.257,2.172-0.648,3.277-1.341C24.5,29.401,24.252,29.288,24.125,29.368z"/>
			<path opacity="0.1091" fill="#754C24" d="M25.466,30.483c-1.104,0.696-1.993,1.088-3.274,1.347
				c-0.115,0.023-0.156,0.403-0.27,0.425c1.282-0.259,2.17-0.65,3.275-1.347C25.325,30.827,25.339,30.563,25.466,30.483z"/>
			<path opacity="0.1091" fill="#754C24" d="M23.141,30.321c-1.109,0.696-2.005,1.088-3.291,1.35
				c0.029-0.005,0.156,0.474,0.187,0.468c1.278-0.256,2.168-0.65,3.271-1.343C23.339,30.775,23.11,30.34,23.141,30.321z"/>
		</g>
	</g>
</g>
<g>
	<g>
		<g>
			<path opacity="0.1091" fill="#754C24" d="M23.342,34.048c0.395,0-1.068-1.957-1.593-1.957
				C21.353,32.091,22.817,34.048,23.342,34.048z"/>
			<path opacity="0.1091" fill="#754C24" d="M22.005,32.957c0.473,0-0.54-1.271-0.914-1.271
				C20.619,31.687,21.631,32.957,22.005,32.957z"/>
			<path opacity="0.1091" fill="#754C24" d="M22.454,31.787c0.234,0,0.413-0.48,0.078-0.48
				C22.298,31.307,22.119,31.787,22.454,31.787z"/>
			<path opacity="0.1091" fill="#754C24" d="M23.038,32.648c0.407,0-0.992-1.808-1.489-1.808
				C21.141,30.841,22.54,32.648,23.038,32.648z"/>
			<path opacity="0.1091" fill="#754C24" d="M23.137,31.471c0.477,0,0.199-0.68-0.133-0.68
				C22.529,30.791,22.806,31.471,23.137,31.471z"/>
			<path opacity="0.1091" fill="#754C24" d="M21.583,32.756c0.289,0,0.39-0.519,0.048-0.519
				C21.34,32.237,21.239,32.756,21.583,32.756z"/>
			<path opacity="0.1091" fill="#754C24" d="M22.475,34.062c0.463,0-0.69-1.479-1.1-1.479
				C20.913,32.582,22.064,34.062,22.475,34.062z"/>
			<path opacity="0.1091" fill="#754C24" d="M23.783,32.568c0.411,0-0.959-1.734-1.445-1.734
				C21.927,30.834,23.297,32.568,23.783,32.568z"/>
			<path opacity="0.1091" fill="#754C24" d="M21.909,32.151c0.365,0,0.325-0.58-0.017-0.58
				C21.525,31.571,21.566,32.151,21.909,32.151z"/>
			<path opacity="0.1091" fill="#754C24" d="M22.61,31.808c0.467,0-0.352-1.003-0.688-1.003
				C21.458,30.805,22.275,31.808,22.61,31.808z"/>
			<path opacity="0.1091" fill="#754C24" d="M23.789,33.397c0.37,0-1.16-2.033-1.717-2.033
				C21.703,31.364,23.233,33.397,23.789,33.397z"/>
			<path opacity="0.1091" fill="#754C24" d="M21.545,33.236c0.51,0,0.186-0.718-0.138-0.718
				C20.897,32.519,21.223,33.236,21.545,33.236z"/>
		</g>
	</g>
</g>
<g>
	<g>
		<g>
			<path opacity="0.1091" fill="#754C24" d="M23.074,32.188c-0.233,0.583-0.562,0.872-0.999,1.313
				c0.106-0.106,0.366-0.061,0.474-0.169c0.437-0.441,0.765-0.73,1-1.313C23.508,32.119,23.116,32.082,23.074,32.188z"/>
			<path opacity="0.1091" fill="#754C24" d="M22.128,31.104c-0.235,0.581-0.566,0.871-1.002,1.313
				c-0.029,0.028,0.291,0.401,0.265,0.428c0.437-0.441,0.767-0.731,1.001-1.313C22.431,31.438,22.092,31.192,22.128,31.104z"/>
			<path opacity="0.1091" fill="#754C24" d="M22.149,29.823c-0.235,0.581-0.566,0.869-1,1.31c0.108-0.111,0.354-0.086,0.462-0.196
				c0.437-0.44,0.766-0.729,1.002-1.31C22.569,29.736,22.195,29.713,22.149,29.823z"/>
			<path opacity="0.1091" fill="#754C24" d="M23.271,30.712c-0.234,0.583-0.564,0.87-1.002,1.313
				c-0.093,0.093,0.04,0.408-0.051,0.499c0.436-0.439,0.766-0.729,0.999-1.311C23.278,31.063,23.21,30.861,23.271,30.712z"/>
			<path opacity="0.1091" fill="#754C24" d="M23.03,29.541c-0.235,0.581-0.564,0.868-0.999,1.31
				c0.055-0.057,0.426,0.196,0.482,0.138c0.435-0.439,0.765-0.727,0.999-1.308C23.508,29.696,23.037,29.524,23.03,29.541z"/>
			<path opacity="0.1091" fill="#754C24" d="M21.61,30.499c-0.238,0.581-0.567,0.87-1.005,1.312
				c-0.094,0.095,0.028,0.403-0.065,0.499c0.435-0.442,0.766-0.731,1.002-1.312C21.604,30.848,21.549,30.649,21.61,30.499z"/>
			<path opacity="0.1091" fill="#754C24" d="M22.325,32.182c-0.235,0.583-0.564,0.872-1.001,1.315
				c0.061-0.062,0.427,0.18,0.488,0.119c0.437-0.443,0.767-0.732,1.002-1.315C22.806,32.323,22.334,32.158,22.325,32.182z"/>
			<path opacity="0.1091" fill="#754C24" d="M23.857,30.543c-0.233,0.581-0.562,0.869-0.997,1.311
				c-0.074,0.075,0.137,0.428,0.066,0.499c0.436-0.44,0.764-0.729,0.999-1.312C23.979,30.904,23.804,30.676,23.857,30.543z"/>
			<path opacity="0.1091" fill="#754C24" d="M21.823,30.423c-0.069,0.169-0.139,0.339-0.208,0.508
				c0.102-0.133,0.205-0.268,0.306-0.4c-0.266,0.268-0.53,0.534-0.796,0.803c-0.116,0.119-0.188,0.281-0.306,0.4
				c0.594-0.603,1-0.952,1.309-1.709C22.068,30.172,21.884,30.271,21.823,30.423z"/>
			<path opacity="0.1091" fill="#754C24" d="M22.572,30.161c-0.235,0.58-0.565,0.868-1.001,1.31c0.088-0.09,0.41,0.047,0.501-0.046
				c0.437-0.44,0.766-0.729,1.001-1.31C23.045,30.184,22.603,30.086,22.572,30.161z"/>
			<path opacity="0.1091" fill="#754C24" d="M23.644,31.701c-0.068,0.171-0.138,0.34-0.205,0.51c0.09-0.142,0.18-0.284,0.27-0.425
				c-0.264,0.269-0.528,0.535-0.794,0.804c-0.115,0.116-0.155,0.308-0.271,0.424c0.618-0.623,0.955-0.956,1.27-1.737
				C23.853,31.429,23.704,31.548,23.644,31.701z"/>
			<path opacity="0.1091" fill="#754C24" d="M21.588,31.114c-0.237,0.582-0.566,0.871-1.002,1.313
				c-0.053,0.053,0.216,0.422,0.165,0.475c0.436-0.441,0.767-0.73,1.003-1.312C21.801,31.472,21.541,31.229,21.588,31.114z"/>
		</g>
	</g>
</g>
<g>
	<g>
		<g>
			<path opacity="0.1091" fill="#754C24" d="M22.765,33.429c-0.013,0.093-0.023,0.185-0.036,0.275
				c0.01-0.073,0.464-0.091,0.475-0.169c0.011-0.091,0.023-0.183,0.034-0.273C23.229,33.333,22.774,33.352,22.765,33.429z"/>
			<path opacity="0.1091" fill="#754C24" d="M21.815,32.347c-0.013,0.093-0.023,0.184-0.035,0.275
				c-0.017,0.132,0.281,0.3,0.265,0.428c0.012-0.092,0.023-0.183,0.034-0.275C22.096,32.645,21.798,32.474,21.815,32.347z"/>
			<path opacity="0.1091" fill="#754C24" d="M21.84,31.064c-0.011,0.093-0.023,0.185-0.035,0.277
				c0.01-0.082,0.453-0.112,0.462-0.196c0.013-0.093,0.023-0.185,0.034-0.277C22.292,30.95,21.851,30.979,21.84,31.064z"/>
			<path opacity="0.1091" fill="#754C24" d="M22.907,32.454c-0.543,0,0.01,0.032,0.226-0.024c-0.099,0.026-0.149-0.723-0.189-0.342
				C22.941,32.108,22.91,32.454,22.907,32.454z"/>
			<path opacity="0.1091" fill="#754C24" d="M22.72,30.782c-0.012,0.093-0.023,0.185-0.035,0.277
				c-0.003,0.027,0.486,0.116,0.482,0.14c0.013-0.093,0.023-0.185,0.036-0.277C23.207,30.894,22.718,30.805,22.72,30.782z"/>
			<path opacity="0.1091" fill="#754C24" d="M21.236,32.188c-0.013,0.105-0.025,0.21-0.039,0.315
				c0.011-0.089,0.048-0.334,0.065-0.474c0.011-0.077,0.021-0.156,0.03-0.235C21.308,31.667,21.245,32.125,21.236,32.188z"/>
			<path opacity="0.1091" fill="#754C24" d="M22.015,33.425c-0.012,0.091-0.024,0.183-0.035,0.274
				c-0.002,0.021,0.491,0.102,0.488,0.118c0.012-0.091,0.023-0.183,0.035-0.273C22.506,33.523,22.013,33.44,22.015,33.425z"/>
			<path opacity="0.1091" fill="#754C24" d="M23.548,31.784c-0.013,0.092-0.023,0.185-0.036,0.275
				c-0.021,0.162,0.087,0.34,0.066,0.499c0.013-0.092,0.025-0.183,0.037-0.275C23.637,32.121,23.527,31.943,23.548,31.784z"/>
			<path opacity="0.1091" fill="#754C24" d="M21.512,31.664c-0.011,0.093-0.022,0.185-0.035,0.277
				c0.018-0.143,0.288-0.255,0.306-0.4c0.012-0.092,0.023-0.185,0.035-0.275C21.8,31.406,21.53,31.519,21.512,31.664z"/>
			<path opacity="0.1091" fill="#754C24" d="M22.261,31.399c-0.012,0.092-0.022,0.185-0.035,0.275
				c0.005-0.031,0.497-0.005,0.501-0.044c0.013-0.093,0.024-0.184,0.035-0.275C22.759,31.388,22.266,31.359,22.261,31.399z"/>
			<path opacity="0.1091" fill="#754C24" d="M23.332,32.943c-0.012,0.093-0.023,0.184-0.036,0.275
				c0.021-0.149,0.25-0.272,0.271-0.425c0.011-0.092,0.023-0.183,0.036-0.274C23.584,32.668,23.353,32.791,23.332,32.943z"/>
			<path opacity="0.1091" fill="#754C24" d="M21.276,32.356c-0.011,0.093-0.022,0.184-0.033,0.275
				c-0.02,0.149,0.183,0.326,0.165,0.475c0.011-0.092,0.024-0.183,0.035-0.274C21.46,32.682,21.258,32.504,21.276,32.356z"/>
		</g>
	</g>
</g>
<g>
	<g>
		<g>
			<path opacity="0.1091" fill="#754C24" d="M22.936,34.188c-0.104,0.375-0.23,0.743-0.377,1.104
				c0.023-0.063,0.387-0.134,0.46-0.164c0.145-0.059,0.288-0.116,0.431-0.174c-0.153,0.055-0.307,0.109-0.461,0.165
				c0.854-0.29,1.043-0.3,0.917,0.487c0.012-0.079,0.461-0.089,0.473-0.169c0.189-1.184-1.164-0.411-1.809-0.15
				c0.155-0.055,0.309-0.109,0.462-0.164c0.148-0.361,0.274-0.729,0.378-1.104C23.382,34.112,22.967,34.089,22.936,34.188z"/>
			<path opacity="0.1091" fill="#754C24" d="M21.986,33.106c-0.105,0.374-0.231,0.742-0.378,1.104
				c-0.014,0.034,0.268,0.426,0.265,0.428c0.452-0.185,1.012-0.559,1.424-0.182c-0.088-0.143-0.177-0.285-0.266-0.428
				c-0.026,0.163-0.053,0.328-0.077,0.491c-0.021,0.127,0.283,0.305,0.265,0.428c0.189-1.191-0.649-1.128-1.61-0.737
				c0.087,0.143,0.176,0.285,0.265,0.428c0.146-0.361,0.272-0.729,0.378-1.104C22.285,33.426,21.955,33.207,21.986,33.106z"/>
			<path opacity="0.1091" fill="#754C24" d="M22.012,31.825c-0.107,0.373-0.233,0.741-0.379,1.102
				c0.004-0.002,0.008-0.003,0.012-0.005c0.717-0.292,1.5-0.743,1.332,0.312c0.014-0.087,0.449-0.107,0.463-0.196
				c0.244-1.533-1.555,0.468-0.965-1.41C22.443,31.729,22.045,31.718,22.012,31.825z"/>
			<path opacity="0.1091" fill="#754C24" d="M23.13,32.713c-0.275,0.364-0.481,0.765-0.616,1.197
				c-0.008,0.021,0.418,0.161,0.47,0.142c0.389-0.168,0.794-0.275,1.216-0.325c-0.16-0.029-0.32-0.06-0.481-0.089
				c0.211,0.143,0.265,0.337,0.162,0.583c-0.006,0.093,0.397,0.25,0.379,0.331c0.141-0.629,0.237-0.785-0.292-0.879
				c-0.525-0.093-0.936,0.055-1.438,0.232c0.156,0.047,0.313,0.094,0.469,0.141C23.235,33.63,23.279,33.186,23.13,32.713z"/>
			<path opacity="0.1091" fill="#754C24" d="M22.892,31.541c-0.105,0.375-0.231,0.743-0.379,1.104c0.01-0.025,0.433,0.16,0.484,0.14
				c0.416-0.171,0.78-0.317,1.23-0.364c-0.162-0.046-0.322-0.093-0.483-0.14c0.266,0.144,0.305,0.368,0.116,0.67
				c-0.004,0.021,0.486,0.12,0.483,0.14c0.192-1.206-1.132-0.729-1.831-0.445c0.162,0.047,0.322,0.093,0.484,0.14
				c0.146-0.361,0.272-0.729,0.378-1.104C23.375,31.681,22.895,31.534,22.892,31.541z"/>
			<path opacity="0.1091" fill="#754C24" d="M21.47,32.5c-0.106,0.375-0.234,0.742-0.379,1.104
				c-0.029,0.074-0.012,0.476-0.068,0.498c0.452-0.183,1.009-0.558,1.42-0.182c0.022-0.161,0.043-0.323,0.065-0.485
				c-0.025,0.159-0.052,0.319-0.076,0.479c-0.026,0.166-0.041,0.334-0.068,0.498c0.191-1.182,0.076-1.355-1.273-0.808
				c-0.023,0.166-0.045,0.332-0.068,0.498c0.147-0.36,0.273-0.729,0.381-1.104C21.454,32.841,21.42,32.656,21.47,32.5z"/>
			<path opacity="0.1091" fill="#754C24" d="M22.186,34.184c-0.104,0.375-0.231,0.743-0.379,1.104
				c0.011-0.029,0.436,0.141,0.488,0.119c0.418-0.168,0.781-0.312,1.229-0.356c-0.162-0.04-0.325-0.08-0.488-0.12
				c0.266,0.146,0.304,0.368,0.116,0.671c-0.003,0.015,0.491,0.107,0.488,0.121c0.19-1.199-1.138-0.716-1.834-0.435
				c0.163,0.04,0.326,0.08,0.488,0.119c0.148-0.36,0.274-0.729,0.38-1.104C22.673,34.311,22.19,34.171,22.186,34.184z"/>
			<path opacity="0.1091" fill="#754C24" d="M23.72,32.543c-0.104,0.375-0.231,0.743-0.378,1.104
				c-0.023,0.062,0.101,0.485,0.066,0.499c0.454-0.184,1.016-0.559,1.428-0.183c-0.021-0.166-0.044-0.332-0.066-0.498
				c-0.026,0.163-0.052,0.328-0.078,0.491c-0.025,0.159,0.093,0.342,0.067,0.5c0.189-1.2-0.215-1.296-1.417-0.81
				c0.021,0.167,0.044,0.333,0.066,0.499c0.147-0.361,0.273-0.728,0.379-1.104C23.833,32.895,23.675,32.686,23.72,32.543z"/>
			<path opacity="0.1091" fill="#754C24" d="M21.684,32.424c-0.148,0.471-0.82,1.282,0.039,0.933
				c0.663-0.27,1.056-0.343,0.924,0.478c0.023-0.145,0.282-0.253,0.306-0.398c0.093-0.58,0.109-0.693-0.482-0.632
				c-0.292,0.093-0.579,0.2-0.86,0.323c0.147-0.361,0.273-0.728,0.379-1.103C21.942,32.174,21.732,32.271,21.684,32.424z"/>
			<path opacity="0.1091" fill="#754C24" d="M22.434,32.158c-0.106,0.375-0.232,0.743-0.379,1.104
				c0.018-0.05,0.43-0.017,0.501-0.046c0.373-0.174,0.767-0.293,1.178-0.353c-0.151,0.013-0.301,0.024-0.45,0.037
				c0.268,0.145,0.306,0.368,0.116,0.67c0.006-0.037,0.494,0,0.501-0.044c0.188-1.181-1.182-0.534-1.846-0.265
				c0.167-0.015,0.333-0.03,0.501-0.046c0.146-0.359,0.272-0.728,0.379-1.103C22.917,32.172,22.453,32.093,22.434,32.158z"/>
			<path opacity="0.1091" fill="#754C24" d="M23.505,33.703c-0.148,0.475-0.818,1.281,0.04,0.935
				c0.666-0.269,1.062-0.34,0.931,0.481c0.024-0.151,0.246-0.271,0.271-0.424c0.092-0.583,0.106-0.693-0.487-0.636
				c-0.293,0.093-0.581,0.2-0.863,0.321c0.148-0.359,0.274-0.728,0.379-1.103C23.727,33.432,23.554,33.547,23.505,33.703z"/>
			<path opacity="0.1091" fill="#754C24" d="M21.45,33.114c-0.108,0.376-0.234,0.744-0.381,1.104
				c-0.018,0.05,0.188,0.467,0.166,0.476c0.451-0.183,1.009-0.557,1.42-0.181c-0.056-0.159-0.111-0.316-0.165-0.475
				c-0.026,0.163-0.053,0.328-0.079,0.491c-0.023,0.147,0.188,0.331,0.165,0.477c0.192-1.203-0.427-1.227-1.507-0.788
				c0.055,0.158,0.111,0.317,0.166,0.476c0.147-0.361,0.273-0.729,0.379-1.104C21.656,33.461,21.409,33.242,21.45,33.114z"/>
		</g>
	</g>
</g>
<g>
	<g>
		<g>
			<path opacity="0.1091" fill="#754C24" d="M26.48,37.047c0.395,0-1.068-1.956-1.595-1.956
				C24.492,35.091,25.955,37.047,26.48,37.047z"/>
			<path opacity="0.1091" fill="#754C24" d="M25.144,35.956c0.472,0-0.541-1.271-0.913-1.271
				C23.757,34.686,24.77,35.956,25.144,35.956z"/>
			<path opacity="0.1091" fill="#754C24" d="M25.594,34.788c0.233,0,0.412-0.481,0.077-0.481
				C25.436,34.307,25.257,34.788,25.594,34.788z"/>
			<path opacity="0.1091" fill="#754C24" d="M26.176,35.647c0.409,0-0.99-1.808-1.489-1.808C24.28,33.84,25.68,35.647,26.176,35.647
				z"/>
			<path opacity="0.1091" fill="#754C24" d="M26.275,34.47c0.476,0,0.2-0.68-0.133-0.68C25.668,33.79,25.943,34.47,26.275,34.47z"/>
			<path opacity="0.1091" fill="#754C24" d="M24.72,35.757c0.291,0,0.392-0.521,0.049-0.521
				C24.479,35.236,24.378,35.757,24.72,35.757z"/>
			<path opacity="0.1091" fill="#754C24" d="M25.613,37.063c0.463,0-0.689-1.481-1.1-1.481
				C24.05,35.581,25.203,37.063,25.613,37.063z"/>
			<path opacity="0.1091" fill="#754C24" d="M26.922,35.567c0.411,0-0.959-1.734-1.446-1.734
				C25.066,33.833,26.437,35.567,26.922,35.567z"/>
			<path opacity="0.1091" fill="#754C24" d="M25.047,35.152c0.366,0,0.326-0.582-0.017-0.582
				C24.665,34.57,24.705,35.152,25.047,35.152z"/>
			<path opacity="0.1091" fill="#754C24" d="M25.75,34.809c0.465,0-0.354-1.005-0.688-1.005
				C24.596,33.804,25.413,34.809,25.75,34.809z"/>
			<path opacity="0.1091" fill="#754C24" d="M26.928,36.396c0.371,0-1.161-2.033-1.716-2.033
				C24.841,34.363,26.373,36.396,26.928,36.396z"/>
			<path opacity="0.1091" fill="#754C24" d="M24.685,36.236c0.509,0,0.185-0.719-0.139-0.719
				C24.036,35.518,24.36,36.236,24.685,36.236z"/>
		</g>
	</g>
</g>
<g>
	<g>
		<g>
			<path opacity="0.1091" fill="#754C24" d="M25.352,32.878c0.159,0,0.316-0.169,0.473-0.169
				C25.665,32.709,25.508,32.878,25.352,32.878z"/>
			<path opacity="0.1091" fill="#754C24" d="M24.427,30.514c0.155,0,0.31-0.196,0.462-0.196
				C24.734,30.317,24.58,30.514,24.427,30.514z"/>
			<path opacity="0.1091" fill="#754C24" d="M25.79,30.371c-0.16,0-0.321-0.14-0.483-0.14C25.468,30.231,25.628,30.371,25.79,30.371
				z"/>
			<path opacity="0.1091" fill="#754C24" d="M23.817,31.688c0.026,0,0.049-0.498,0.068-0.498
				C23.86,31.189,23.839,31.688,23.817,31.688z"/>
			<path opacity="0.1091" fill="#754C24" d="M25.09,32.993c-0.162,0-0.325-0.121-0.489-0.121
				C24.763,32.872,24.927,32.993,25.09,32.993z"/>
			<path opacity="0.1091" fill="#754C24" d="M24.029,32.28c-0.053,0-0.107-0.475-0.165-0.475
				C23.917,31.806,23.972,32.28,24.029,32.28z"/>
			<path opacity="0.1091" fill="#754C24" d="M26.066,29.399c-0.023-0.674-0.071-1.211,0.345-1.77
				c-0.157,0.057-0.315,0.111-0.473,0.169c1.482,0.385-0.261,3.304-0.62,3.978c0.058-0.108,0.415-0.059,0.473-0.169
				c0.361-0.674,2.104-3.595,0.62-3.978c-0.062-0.017-0.436,0.117-0.473,0.169c-0.418,0.559-0.368,1.096-0.345,1.771
				C25.592,29.521,26.069,29.452,26.066,29.399z"/>
			<path opacity="0.1091" fill="#754C24" d="M24.666,32.224c0.226-1.648,0.148-3.299,0.46-4.932
				c0.219,0.267,0.292,0.588,0.221,0.966c0.1,0.746-0.635,1.748-0.931,2.396c-0.041,0.088,0.322,0.361,0.3,0.404
				c0.673-1.291,1.141-2.347,0.727-3.808c-0.03-0.107-0.223-0.313-0.335-0.339c-0.076-0.018-0.153-0.034-0.23-0.051
				c-0.008,0.001-0.015,0.002-0.021,0.005c-0.24,0.347-0.359,0.735-0.358,1.166c0.049,0.15,0.097,0.302,0.146,0.452
				c0.06,1.114-0.021,2.219-0.241,3.313C24.384,31.926,24.685,32.098,24.666,32.224z"/>
			<path opacity="0.1091" fill="#754C24" d="M25.104,26.277c-0.037-0.418,0.086-0.769,0.369-1.048
				c-0.154,0.065-0.309,0.132-0.462,0.196c1.482,0.382-0.262,3.307-0.62,3.98c0.061-0.114,0.401-0.081,0.464-0.197
				c0.358-0.674,2.101-3.598,0.618-3.979c-0.061-0.016-0.425,0.146-0.462,0.196c-0.284,0.281-0.407,0.63-0.369,1.05
				C24.656,26.385,25.087,26.368,25.104,26.277z"/>
			<path opacity="0.1091" fill="#754C24" d="M25.495,31.89c0.208-1.519,0.277-2.263,0.292-3.798c-0.017,0.166-0.034,0.334-0.051,0.5
				c0.146-0.527,0.313-1.047,0.501-1.561c-0.121-0.011-0.241-0.021-0.36-0.033c0.221,0.373,0.338,0.775,0.354,1.21
				c0.104,0.623-0.651,1.664-0.935,2.129c-0.01,0.017,0.444,0.222,0.48,0.146c0.405-0.836,1.808-3.207,0.284-3.711
				c-0.05-0.017-0.205-0.064-0.249,0.006c-0.099,0.113-0.171,0.239-0.219,0.378c-0.04,0.195-0.079,0.391-0.119,0.587
				c0.34,0.801,0.422,1.64,0.243,2.518c0.019-0.168,0.035-0.334,0.053-0.501c-0.076,0.552-0.15,1.104-0.227,1.655
				C25.525,31.554,25.508,31.801,25.495,31.89z"/>
			<path opacity="0.1091" fill="#754C24" d="M26.006,26.331c-0.094-0.535,0.102-0.865,0.59-0.991
				c-0.156-0.045-0.314-0.091-0.471-0.137c0.689,1.386-0.201,2.697-0.852,3.92c0.016-0.029,0.467,0.172,0.483,0.14
				c0.458-0.859,0.839-1.645,1.115-2.581c0-0.002,0.062-1.228-0.275-1.344c-0.226-0.078-0.461-0.134-0.69-0.192
				c-0.004,0-0.008-0.002-0.014-0.002c-0.282,0.279-0.405,0.629-0.37,1.048C25.521,26.209,26.009,26.314,26.006,26.331z"/>
			<path opacity="0.1091" fill="#754C24" d="M24.029,27.651c0.405-2.266,0.828-0.383,0.865,0.352
				c0.022-0.166,0.046-0.332,0.067-0.498c-0.276,0.936-0.657,1.721-1.114,2.58c-0.073,0.14,0.006,0.359-0.067,0.498
				c0.503-0.945,1.024-1.871,1.167-2.945c0.048-0.368-0.004-0.495-0.032-1.036c-0.023-0.321-0.173-0.486-0.448-0.496
				c-0.279-0.072-0.407,1.26-0.369,1.048C24.068,27.318,24.06,27.487,24.029,27.651z"/>
			<path opacity="0.1091" fill="#754C24" d="M25.304,28.96c-0.035-0.418,0.088-0.768,0.37-1.047
				c-0.146-0.036-0.292-0.07-0.438-0.105c1.442,0.376-0.365,3.393-0.67,3.963c0.02-0.034,0.47,0.158,0.488,0.121
				c0.388-0.728,2.119-3.592,0.569-3.993c-0.046-0.012-0.417-0.135-0.438-0.105c-0.283,0.279-0.406,0.628-0.37,1.046
				C24.814,28.852,25.306,28.95,25.304,28.96z"/>
			<path opacity="0.1091" fill="#754C24" d="M26.201,31.732c0.219-1.59,0.07-3.2,0.349-4.762c0.772,0.049,0.898,0.552,0.379,1.51
				c-0.242,0.549-0.482,1.097-0.722,1.646c-0.063,0.143,0.045,0.371-0.021,0.503c0.229-0.451,2-4.03,0.521-4.479
				c-0.003,0.006-0.005,0.01-0.01,0.015c-0.26,0.283-0.373,0.628-0.343,1.032c0.01,0.241,0.018,0.483,0.026,0.724
				c0.057,1.114-0.025,2.219-0.245,3.313C26.112,31.395,26.224,31.573,26.201,31.732z"/>
			<path opacity="0.1091" fill="#754C24" d="M24.404,30.713c0.221-1.095,0.299-2.199,0.238-3.313
				c-0.106-0.607-0.001-1.183,0.314-1.729c-0.093,0.119-0.185,0.236-0.277,0.355c1.484,0.384-0.26,3.306-0.617,3.979
				c0.076-0.146,0.228-0.252,0.306-0.398c0.358-0.674,2.102-3.598,0.619-3.979c-0.037-0.01-0.248,0.317-0.277,0.355
				c0.463-0.622-0.264,0.331-0.27,0.366c-0.279,1.563-0.126,3.173-0.342,4.764C24.118,30.971,24.385,30.86,24.404,30.713z"/>
			<path opacity="0.1091" fill="#754C24" d="M25.349,30.804c0.22-1.094,0.3-2.198,0.242-3.312c0.006-0.535-0.125-1.063,0.253-1.507
				c-0.117-0.039-0.235-0.078-0.353-0.116c1.157,0.637-0.202,2.908-0.52,3.593c-0.037,0.082,0.338,0.354,0.317,0.392
				c0.688-1.298,1.134-2.333,0.744-3.788c-0.027-0.105-0.244-0.245-0.344-0.269c-0.076-0.018-0.152-0.036-0.228-0.054
				c-0.027-0.01-0.05-0.003-0.067,0.018c-0.226,0.313-0.337,0.667-0.335,1.063c0.01,0.237,0.021,0.475,0.03,0.713
				c0.058,1.114-0.022,2.217-0.242,3.311C24.853,30.814,25.343,30.844,25.349,30.804z"/>
			<path opacity="0.1091" fill="#754C24" d="M26.19,31.967c0.217-1.587,0.067-3.197,0.347-4.758c-0.09,0.141-0.18,0.283-0.27,0.425
				c0.104-0.294,0.271-0.375,0.501-0.244c0.611,1.09,0.372,2.237-0.719,3.442c-0.08,0.116,0.056,0.374,0.003,0.504
				c0.264-0.637,2.096-4.109,0.653-4.48c-0.003,0.005-0.005,0.007-0.008,0.012c-0.935,1.662-0.523,3.662-0.779,5.525
				C25.939,32.243,26.169,32.119,26.19,31.967z"/>
			<path opacity="0.1091" fill="#754C24" d="M24.241,28.245c0.119-0.671,0.322-1.546,0.818-0.552
				c-0.055-0.158-0.109-0.317-0.165-0.475c0.07,1.373-0.435,2.292-1.067,3.482c-0.054,0.103,0.218,0.376,0.165,0.476
				c0.601-1.129,1.45-2.396,0.988-3.722c-0.342-0.979-0.71-0.772-0.904,0.314C24.05,27.915,24.268,28.102,24.241,28.245z"/>
		</g>
	</g>
</g>
<g>
	<g>
		<g>
			<path opacity="0.1091" fill="#754C24" d="M17.375,28.912c-0.127-0.228-0.253-0.458-0.379-0.687
				c-0.013-0.021-0.469,0.181-0.475,0.168c0.312,0.727,0.625,1.304,1.141,1.903c0.01,0.011,0.458-0.135,0.475-0.169
				c0.299-0.563,0.046-1.128-0.76-1.693c-0.005-0.011-0.475,0.169-0.475,0.169c0.214,0.669,0.354,1.358,1.103,1.516
				c0.141,0.031,0.335-0.196,0.475-0.167c-0.749-0.158-0.888-0.849-1.103-1.518c-0.159,0.058-0.317,0.112-0.475,0.169
				c0.806,0.565,1.059,1.13,0.76,1.693c0.158-0.056,0.315-0.112,0.475-0.169c-0.518-0.6-0.829-1.177-1.14-1.902
				c-0.158,0.056-0.316,0.112-0.475,0.168c0.127,0.229,0.253,0.46,0.379,0.688C16.914,29.106,17.361,28.891,17.375,28.912z"/>
			<path opacity="0.1091" fill="#754C24" d="M16.218,28.427c-0.097-0.341-0.195-0.681-0.292-1.021c0-0.001-0.438,0.254-0.401,0.304
				c0.424,0.563,0.544,1.169,1.023,1.713c0.06,0.066,0.429-0.138,0.441-0.213c0.109-0.654-0.213-0.594-0.743-1.682
				c-0.011-0.022-0.455,0.195-0.436,0.252c0.234,0.68,0.542,1.524,1.245,1.719c0.109,0.031,0.327-0.335,0.393-0.313
				c-0.91-0.282-0.923-0.876-1.202-1.657c-0.145,0.083-0.291,0.168-0.436,0.252c0.247,0.538,0.492,1.077,0.738,1.615
				c0.147-0.072,0.293-0.143,0.441-0.213c-0.604-0.677-0.795-0.861-1.063-1.776c-0.134,0.102-0.267,0.202-0.401,0.304
				C15.755,27.948,15.986,28.188,16.218,28.427z"/>
			<path opacity="0.1091" fill="#754C24" d="M16.439,26.522c-0.126-0.23-0.253-0.461-0.379-0.691
				c-0.007-0.012-0.462,0.2-0.463,0.197c0.31,0.724,0.622,1.295,1.136,1.894c0.007,0.008,0.444-0.162,0.462-0.198
				c0.302-0.561,0.05-1.122-0.757-1.688c-0.001-0.003-0.465,0.188-0.462,0.197c0.215,0.671,0.354,1.355,1.104,1.518
				c0.134,0.029,0.329-0.226,0.463-0.196c-0.749-0.163-0.89-0.847-1.104-1.519c-0.155,0.065-0.309,0.132-0.462,0.197
				c0.806,0.564,1.058,1.126,0.757,1.688c0.154-0.066,0.309-0.132,0.462-0.198c-0.515-0.597-0.826-1.17-1.135-1.893
				c-0.155,0.067-0.309,0.132-0.463,0.197c0.127,0.23,0.253,0.462,0.38,0.691C15.985,26.735,16.431,26.509,16.439,26.522z"/>
			<path opacity="0.1091" fill="#754C24" d="M17.097,27.607c-0.038-0.142-0.074-0.281-0.109-0.422
				c-0.026-0.1-0.501,0.101-0.446,0.235c0.275,0.671,0.508,1.162,1.042,1.659c0.079,0.072,0.469,0.004,0.5,0.063
				c-0.258-0.493-0.514-0.987-0.771-1.479c-0.063-0.119-0.565-0.083-0.469,0.137c0.317,0.729,0.511,1.157,1.298,1.35
				c0.075,0.018,0.162-0.448,0.208-0.458c-0.544-0.189-0.89-0.533-1.037-1.028C17.156,27.708,17,27.754,16.843,27.8
				c0.248,0.426,0.494,0.854,0.74,1.28c0.167,0.021,0.333,0.041,0.5,0.063c-0.459-0.634-0.797-1.235-1.096-1.957
				c-0.15,0.078-0.298,0.156-0.446,0.235c0.167,0.229,0.335,0.458,0.502,0.688C16.975,28.015,17.127,27.728,17.097,27.607z"/>
			<path opacity="0.1091" fill="#754C24" d="M17.339,26.576c-0.126-0.229-0.252-0.461-0.378-0.69
				c-0.056-0.102-0.442-0.043-0.484-0.14c0.311,0.722,0.624,1.295,1.14,1.892c0.031,0.035,0.482,0.143,0.483,0.14
				c0.3-0.562,0.047-1.125-0.76-1.687c-0.045-0.095-0.454-0.05-0.483-0.141c0.37,1.15,0.551,1.433,1.586,1.657
				c-0.164-0.035-0.32-0.103-0.483-0.139c-0.13-0.029-0.261-0.057-0.392-0.086c0.156,0.046,0.314,0.092,0.471,0.138
				c-0.335-0.464-0.524-0.889-0.699-1.43c-0.16-0.048-0.322-0.095-0.483-0.141c0.807,0.563,1.06,1.126,0.76,1.688
				c0.161,0.046,0.323,0.093,0.483,0.14c-0.515-0.597-0.828-1.169-1.139-1.892c-0.162-0.047-0.323-0.093-0.484-0.14
				c0.127,0.23,0.253,0.461,0.379,0.691C16.913,26.542,17.282,26.474,17.339,26.576z"/>
			<path opacity="0.1091" fill="#754C24" d="M15.436,27.396c-0.127-0.231-0.255-0.461-0.381-0.69
				c0.064,0.117-0.122,0.369-0.067,0.498c0.098,0.232,1.128,2.109,1.176,1.775c0.134-0.949,0.018-0.527-0.732-2.066
				c0.061,0.124-0.11,0.361-0.067,0.499c0.216,0.671,0.354,1.356,1.104,1.517c-0.011-0.003,0.08-0.495,0.068-0.498
				c-0.75-0.161-0.89-0.846-1.105-1.518c-0.022,0.167-0.044,0.333-0.067,0.499c0.264,0.539,0.527,1.079,0.79,1.62
				c0.022-0.166,0.046-0.332,0.068-0.499c-0.122,0.246-1.08-1.622-1.167-1.827c-0.023,0.166-0.045,0.332-0.067,0.498
				c0.127,0.231,0.254,0.461,0.382,0.69C15.304,27.776,15.5,27.514,15.436,27.396z"/>
			<path opacity="0.1091" fill="#754C24" d="M15.771,28.39c0.31,0.727,0.622,1.302,1.138,1.903c0.029,0.033,0.486,0.124,0.489,0.118
				c0.3-0.563,0.047-1.128-0.759-1.692c-0.043-0.09-0.461-0.034-0.488-0.12c0.376,1.176,0.546,1.417,1.591,1.637
				c-0.163-0.034-0.324-0.087-0.487-0.121c-0.132-0.028-0.262-0.056-0.393-0.082c0.158,0.039,0.317,0.079,0.475,0.118
				c-0.335-0.464-0.523-0.889-0.698-1.432c-0.163-0.04-0.325-0.08-0.488-0.12c0.805,0.564,1.059,1.129,0.758,1.694
				c0.162,0.038,0.325,0.078,0.489,0.118c-0.517-0.601-0.828-1.176-1.138-1.902C16.219,28.413,15.809,28.478,15.771,28.39z"/>
			<path opacity="0.1091" fill="#754C24" d="M17.53,27.438c-0.126-0.229-0.53-0.461-0.53-0.69c0,0.005,0,0.01,0,0.014
				c0,1.006,0.339,1.347,0.997,2.077c0.087,0.098,0.481-0.149,0.503-0.243c0.128-0.571-0.482-1.232-0.663-1.604
				c0.018,0.036-0.361,0.298-0.33,0.363c0.333,0.668,0.339,1.325,1.139,1.572c0.131,0.04,0.35-0.244,0.459-0.216
				c-0.746-0.195-1.134-0.97-1.232-1.72c-0.116,0.121-0.231,0.242-0.347,0.363c0.205,0.482,0.41,0.966,0.615,1.447
				c0.141-0.08,0.284-0.162,0.426-0.243c-0.501-0.56-0.834-1.192-1.262-1.811c0.022,0.166,0.044,0.333,0.066,0.499
				c0.126,0.23,0.176,0.46,0.302,0.689C17.6,27.8,17.606,27.575,17.53,27.438z"/>
			<path opacity="0.1091" fill="#754C24" d="M15.955,26.92c-0.126-0.23-0.253-0.461-0.381-0.691c0.033,0.06-0.336,0.327-0.306,0.398
				c0.309,0.725,0.619,1.297,1.134,1.896c-0.013-0.014,0.281-0.349,0.306-0.398c0.3-0.563,0.048-1.126-0.756-1.69
				c0.033,0.069-0.333,0.315-0.306,0.4C15.86,27.505,16,28.19,16.75,28.352c0.07,0.016,0.237-0.413,0.306-0.399
				c-0.75-0.162-0.89-0.848-1.104-1.519c-0.102,0.135-0.205,0.268-0.306,0.4c0.807,0.564,1.059,1.128,0.756,1.688
				c0.102-0.133,0.205-0.266,0.306-0.398c-0.514-0.599-0.825-1.171-1.134-1.896c-0.102,0.133-0.203,0.266-0.306,0.398
				c0.127,0.231,0.253,0.461,0.381,0.691C15.617,27.262,15.988,26.979,15.955,26.92z"/>
			<path opacity="0.1091" fill="#754C24" d="M16.898,27.012c-0.127-0.246-0.253-0.491-0.38-0.737
				c-0.024-0.044-0.474,0.173-0.451,0.223c0.285,0.672,0.581,1.24,1.065,1.788c0.051,0.058,0.397-0.207,0.407-0.272
				c0.102-0.697-0.334-0.703-0.945-1.734c-0.007,0.017-0.01,0.035-0.007,0.053c-0.022,0.871,0.13,1.697,1.029,1.969
				c0.12,0.035,0.328-0.311,0.41-0.292c-0.954-0.222-0.468-1.013-0.895,0.253c0.136-0.092,0.271-0.182,0.407-0.272
				c-0.496-0.563-0.742-1.017-1.02-1.714c-0.151,0.075-0.302,0.148-0.451,0.223c0.11,0.186,0.22,0.372,0.331,0.56
				C16.434,27.117,16.87,26.955,16.898,27.012z"/>
			<path opacity="0.1091" fill="#754C24" d="M17.739,28.172c-0.126-0.229-0.252-0.459-0.379-0.689
				c0.04,0.072-0.302,0.338-0.27,0.425c0.263,0.706,0.552,1.224,1.048,1.793c0.021,0.024,0.386-0.229,0.406-0.274
				c0.278-0.585,0.023-1.155-0.767-1.711c0.025,0.049-0.374,0.294-0.349,0.361c0.241,0.668,0.433,1.008,1.043,1.383
				c0.111,0.068,0.407-0.112,0.502-0.033c-0.297-0.057-0.595-0.113-0.893-0.171c0.155,0.063,0.31,0.126,0.466,0.188
				c-0.451-0.682-0.562-0.996-0.771-1.728c-0.116,0.121-0.232,0.241-0.349,0.361c0.72,0.526,0.957,1.067,0.71,1.624
				c0.137-0.096,0.275-0.192,0.413-0.289c-0.524-0.604-0.847-1.207-1.19-1.929c-0.09,0.143-0.18,0.284-0.27,0.425
				c0.126,0.23,0.253,0.46,0.379,0.689C17.43,28.527,17.779,28.245,17.739,28.172z"/>
			<path opacity="0.1091" fill="#754C24" d="M15.415,28.009c-0.127-0.229-0.254-0.458-0.382-0.688
				c0.076,0.138,0.098,0.316,0.161,0.462c0.378,0.892,0.174,0.472,0.675,1.373c-0.053-0.094,0.617,0.819,0.482,0.419
				c-0.255-0.748-0.533-1.209-0.941-2.047c0.001,0.004,0.003,0.009,0.004,0.013c0.239,0.747,0.422,1.802,1.268,1.979
				c-0.086-0.019-0.082-0.456-0.167-0.474c-0.554-0.236-0.604-0.044-0.148,0.578c-0.056-0.157-0.111-0.316-0.165-0.475
				c-0.244,0.491-1.503-2.62-1.163-1.817c0.054,0.154,0.107,0.309,0.161,0.463c0.127,0.229,0.253,0.459,0.381,0.689
				C15.499,28.34,15.495,28.154,15.415,28.009z"/>
		</g>
	</g>
</g>
<g>
	<g>
		<g>
			<path opacity="0.1091" fill="#754C24" d="M17.941,28.478c0.277,0.589,0.555,1.179,0.832,1.767
				c0.004,0.01,0.462-0.199,0.462-0.196c-0.277-0.59-0.554-1.178-0.831-1.767C18.4,28.273,17.942,28.48,17.941,28.478z"/>
			<path opacity="0.1091" fill="#754C24" d="M18.821,28.195c0.278,0.589,0.555,1.177,0.833,1.765
				c0.048,0.104,0.438,0.043,0.483,0.141c-0.277-0.589-0.555-1.177-0.833-1.766C19.257,28.233,18.868,28.294,18.821,28.195z"/>
			<path opacity="0.1091" fill="#754C24" d="M17.333,29.653c0.277,0.59,0.552,1.178,0.829,1.768
				c-0.058-0.125,0.127-0.368,0.066-0.499c-0.275-0.589-0.552-1.178-0.829-1.768C17.459,29.28,17.272,29.524,17.333,29.653z"/>
			<path opacity="0.1091" fill="#754C24" d="M18.117,30.838c0.277,0.59,0.554,1.181,0.83,1.771c0.047,0.098,0.446,0.027,0.489,0.12
				c-0.277-0.591-0.554-1.181-0.831-1.771C18.56,30.86,18.16,30.931,18.117,30.838z"/>
			<path opacity="0.1091" fill="#754C24" d="M17.545,30.244c0.275,0.59,0.552,1.181,0.829,1.771
				c-0.071-0.151-0.096-0.324-0.166-0.477c-0.277-0.59-0.554-1.179-0.829-1.769C17.449,29.92,17.473,30.093,17.545,30.244z"/>
			<path opacity="0.1091" fill="#754C24" d="M18.865,30.844c0.471,1.218,1.103,2.346,1.898,3.383
				c0.023,0.033,0.452-0.201,0.475-0.168c-0.794-1.037-1.427-2.165-1.897-3.384C19.332,30.656,18.871,30.854,18.865,30.844z"/>
			<path opacity="0.1091" fill="#754C24" d="M17.916,29.76c0.833,1.771,1.073,2.16,2.155,3.798c-0.05-0.075-0.173-0.289-0.25-0.405
				c-0.354-0.539-0.71-1.076-1.064-1.612c0.086,0.138,0.172,0.277,0.258,0.416c-0.278-0.59-0.555-1.179-0.832-1.769
				C18.11,30.036,17.986,29.91,17.916,29.76z"/>
			<path opacity="0.1091" fill="#754C24" d="M19.008,29.867c0.471,1.219,1.104,2.345,1.899,3.382
				c-0.07-0.108,0.124-0.392,0.051-0.501c-0.794-1.035-1.427-2.163-1.897-3.38C19.12,29.495,18.946,29.736,19.008,29.867z"/>
			<path opacity="0.1091" fill="#754C24" d="M19.717,29.696c0.472,1.218,1.105,2.345,1.9,3.381
				c-0.083-0.126,0.017-0.372-0.066-0.499c-0.794-1.036-1.428-2.164-1.9-3.381C19.717,29.34,19.647,29.551,19.717,29.696z"/>
			<path opacity="0.1091" fill="#754C24" d="M17.613,29.077c0.469,1.218,1.1,2.345,1.895,3.38c-0.029-0.046,0.336-0.353,0.306-0.399
				c-0.794-1.036-1.426-2.162-1.894-3.379C17.951,28.745,17.58,29.004,17.613,29.077z"/>
			<path opacity="0.1091" fill="#754C24" d="M18.363,28.813c0.471,1.219,1.103,2.345,1.896,3.382
				c0.045,0.067,0.458-0.11,0.501-0.046c-0.793-1.035-1.426-2.163-1.896-3.38C18.838,28.712,18.385,28.861,18.363,28.813z"/>
			<path opacity="0.1091" fill="#754C24" d="M19.434,30.356c0.472,1.219,1.104,2.346,1.9,3.383c-0.037-0.056,0.308-0.366,0.27-0.424
				c-0.794-1.037-1.428-2.165-1.9-3.383C19.74,30.01,19.394,30.271,19.434,30.356z"/>
		</g>
	</g>
</g>
<g>
	<g>
		<g>
			<path opacity="0.1091" fill="#754C24" d="M21.177,32.533c0.201,1.242,0.523,2.45,0.968,3.627
				c-0.002-0.003,0.476-0.162,0.473-0.169c-0.442-1.177-0.765-2.385-0.966-3.627C21.654,32.381,21.171,32.507,21.177,32.533z"/>
			<path opacity="0.1091" fill="#754C24" d="M20.229,31.449c0.2,1.24,0.521,2.449,0.963,3.624c0.05,0.155,0.216,0.272,0.266,0.428
				c-0.443-1.175-0.764-2.384-0.963-3.624C20.461,31.721,20.262,31.602,20.229,31.449z"/>
			<path opacity="0.1091" fill="#754C24" d="M20.252,30.168c0.199,1.238,0.521,2.445,0.964,3.619
				c-0.004-0.012,0.468-0.181,0.462-0.196c-0.443-1.175-0.764-2.381-0.965-3.619C20.72,29.998,20.244,30.132,20.252,30.168z"/>
			<path opacity="0.1091" fill="#754C24" d="M21.314,31.558c0.019,1.174,0.267,2.301,0.741,3.376
				c0.01,0.033,0.488-0.122,0.479-0.152c-0.417-1.233-0.806-2.475-1.168-3.724C21.408,31.197,21.296,31.405,21.314,31.558z"/>
			<path opacity="0.1091" fill="#754C24" d="M21.132,29.886c0.201,1.238,0.523,2.444,0.967,3.618
				c0.029,0.091,0.456,0.053,0.483,0.14c-0.443-1.174-0.765-2.38-0.967-3.618C21.599,29.943,21.148,29.959,21.132,29.886z"/>
			<path opacity="0.1091" fill="#754C24" d="M19.643,31.343c0.198,1.24,0.519,2.447,0.962,3.622
				c-0.045-0.144,0.114-0.354,0.068-0.498c-0.443-1.175-0.764-2.382-0.963-3.622C19.743,30.997,19.61,31.188,19.643,31.343z"/>
			<path opacity="0.1091" fill="#754C24" d="M20.427,32.529c0.199,1.24,0.521,2.448,0.964,3.625c0.028,0.084,0.462,0.037,0.489,0.12
				c-0.443-1.177-0.764-2.385-0.965-3.626C20.9,32.573,20.44,32.596,20.427,32.529z"/>
			<path opacity="0.1091" fill="#754C24" d="M22.028,31.373c0.521,2.442,0.206,1.26,0.969,3.635
				c-0.052-0.156-0.017-0.34-0.068-0.498c-0.319-1.203-0.641-2.407-0.961-3.609C21.985,30.986,21.999,31.238,22.028,31.373z"/>
			<path opacity="0.1091" fill="#754C24" d="M19.921,30.766c0.201,1.24,0.522,2.447,0.966,3.622
				c-0.029-0.088,0.336-0.306,0.306-0.399c-0.444-1.174-0.765-2.382-0.966-3.621C20.25,30.47,19.898,30.656,19.921,30.766z"/>
			<path opacity="0.1091" fill="#754C24" d="M20.674,30.507c0.201,1.24,0.523,2.45,0.966,3.627c0.011,0.034,0.491-0.086,0.499-0.06
				c-0.442-1.171-0.764-2.375-0.964-3.613C21.17,30.436,20.677,30.52,20.674,30.507z"/>
			<path opacity="0.1091" fill="#754C24" d="M21.749,32.049c0.201,1.24,0.523,2.447,0.966,3.622c-0.033-0.1,0.303-0.319,0.27-0.425
				c-0.442-1.175-0.766-2.382-0.966-3.622C22.042,31.737,21.722,31.929,21.749,32.049z"/>
			<path opacity="0.1091" fill="#754C24" d="M19.689,31.461c0.518,2.442,0.204,1.26,0.966,3.636c0.043,0.133,0.13,0.364,0.158,0.45
				c-0.32-1.204-0.638-2.408-0.958-3.611C19.82,31.772,19.724,31.623,19.689,31.461z"/>
		</g>
	</g>
</g>
<g>
	<g>
		<g>
			<path opacity="0.1091" fill="#754C24" d="M23.005,35.155c0.012,0.114,0.022,0.229,0.035,0.344
				c-0.004-0.035,0.478-0.125,0.473-0.168c-0.011-0.115-0.023-0.23-0.034-0.345C23.481,35.021,23,35.109,23.005,35.155z"/>
			<path opacity="0.1091" fill="#754C24" d="M22.056,34.071c-0.004,0.127-0.008,0.255-0.011,0.382
				c-0.005,0.12,0.328,0.235,0.358,0.352c-0.028-0.103-0.056-0.203-0.082-0.306C22.285,34.366,22.052,34.201,22.056,34.071z"/>
			<path opacity="0.1091" fill="#754C24" d="M22.079,32.789c0.013,0.115,0.023,0.231,0.036,0.347
				c-0.004-0.046,0.468-0.145,0.464-0.197c-0.013-0.114-0.025-0.23-0.036-0.346C22.547,32.637,22.073,32.735,22.079,32.789z"/>
			<path opacity="0.1091" fill="#754C24" d="M23.194,33.678c-0.08,0.199-0.161,0.398-0.242,0.599
				c-0.004,0.011,0.519-0.049,0.494-0.098C23.362,34.013,23.279,33.846,23.194,33.678z"/>
			<path opacity="0.1091" fill="#754C24" d="M22.96,32.507c0.012,0.115,0.023,0.231,0.035,0.347c0.006,0.066,0.478,0.081,0.483,0.14
				c-0.013-0.115-0.023-0.231-0.034-0.347C23.438,32.579,22.967,32.563,22.96,32.507z"/>
			<path opacity="0.1091" fill="#754C24" d="M21.47,33.965c0.013,0.114,0.025,0.23,0.038,0.346
				c-0.018-0.162,0.083-0.336,0.066-0.498c-0.013-0.116-0.024-0.231-0.036-0.347C21.555,33.627,21.454,33.801,21.47,33.965z"/>
			<path opacity="0.1091" fill="#754C24" d="M22.255,35.149c0.011,0.115,0.023,0.229,0.035,0.345c0.007,0.06,0.482,0.066,0.488,0.12
				c-0.011-0.115-0.023-0.229-0.035-0.345C22.736,35.209,22.261,35.202,22.255,35.149z"/>
			<path opacity="0.1091" fill="#754C24" d="M23.791,33.521c0.013,0.116,0.023,0.231,0.035,0.346
				c0.014,0.139,0.058,0.384,0.066,0.473c-0.012-0.115-0.023-0.229-0.035-0.347C23.844,33.855,23.801,33.61,23.791,33.521z"/>
			<path opacity="0.1091" fill="#754C24" d="M21.751,33.389c0.013,0.116,0.025,0.231,0.038,0.346
				c-0.013-0.117,0.318-0.273,0.306-0.398c-0.013-0.114-0.025-0.23-0.036-0.346C22.069,33.106,21.739,33.265,21.751,33.389z"/>
			<path opacity="0.1091" fill="#754C24" d="M22.501,33.126c0.013,0.096,0.024,0.19,0.036,0.285c0.005,0.04,0.496,0.027,0.499,0.064
				c-0.012-0.131-0.022-0.263-0.034-0.395C23.002,33.073,22.501,33.123,22.501,33.126z"/>
			<path opacity="0.1091" fill="#754C24" d="M23.575,34.671c0.012,0.114,0.023,0.229,0.035,0.344
				c-0.013-0.128,0.283-0.29,0.27-0.423c-0.011-0.116-0.023-0.231-0.034-0.347C23.857,34.374,23.563,34.536,23.575,34.671z"/>
			<path opacity="0.1091" fill="#754C24" d="M21.516,34.082c0.012,0.115,0.025,0.229,0.036,0.345
				c0.018,0.163,0.149,0.313,0.166,0.475c-0.011-0.114-0.023-0.229-0.036-0.345C21.666,34.394,21.534,34.243,21.516,34.082z"/>
		</g>
	</g>
</g>
<g>
	<g>
		<g>
			<path opacity="0.1091" fill="#754C24" d="M24.248,33.227c-0.023,0.448-0.046,0.897-0.069,1.344
				c0.004-0.059,0.471-0.1,0.475-0.167c0.022-0.448,0.046-0.896,0.068-1.346C24.719,33.117,24.252,33.157,24.248,33.227z"/>
			<path opacity="0.1091" fill="#754C24" d="M23.306,32.136c-0.061,0.447-0.12,0.895-0.18,1.342
				c-0.015,0.106,0.505,0.14,0.499,0.054c-0.018-0.322-0.037-0.645-0.055-0.968C23.562,32.428,23.289,32.255,23.306,32.136z"/>
			<path opacity="0.1091" fill="#754C24" d="M23.322,30.858c-0.023,0.447-0.047,0.896-0.069,1.343
				c0.003-0.069,0.458-0.119,0.462-0.196c0.024-0.447,0.048-0.896,0.069-1.343C23.781,30.729,23.326,30.778,23.322,30.858z"/>
			<path opacity="0.1091" fill="#754C24" d="M24.418,31.76c-0.104,0.418-0.209,0.836-0.313,1.254
				c-0.063,0.253,0.511,0.192,0.491,0.042c-0.057-0.433-0.113-0.864-0.17-1.296C24.425,31.741,24.423,31.741,24.418,31.76z"/>
			<path opacity="0.1091" fill="#754C24" d="M24.204,30.572c-0.023,0.448-0.046,0.896-0.069,1.345
				c-0.002,0.043,0.485,0.107,0.483,0.141c0.023-0.449,0.045-0.897,0.068-1.346C24.689,30.668,24.202,30.605,24.204,30.572z"/>
			<path opacity="0.1091" fill="#754C24" d="M22.712,32.02c-0.022,0.449-0.046,0.897-0.069,1.346
				c0.006-0.089,0.06-0.334,0.066-0.472c0.023-0.449,0.047-0.897,0.07-1.346C22.775,31.635,22.72,31.882,22.712,32.02z"/>
			<path opacity="0.1091" fill="#754C24" d="M23.496,33.22c-0.021,0.448-0.045,0.897-0.068,1.346
				c-0.002,0.036,0.489,0.093,0.488,0.12c0.023-0.448,0.046-0.896,0.069-1.347C23.986,33.302,23.495,33.245,23.496,33.22z"/>
			<path opacity="0.1091" fill="#754C24" d="M25.028,31.578c-0.091,0.514-0.184,1.025-0.276,1.538
				c-0.001,0.007,0.507-0.01,0.5-0.061c-0.071-0.476-0.142-0.95-0.212-1.425C25.04,31.613,25.036,31.595,25.028,31.578z"/>
			<path opacity="0.1091" fill="#754C24" d="M22.991,31.456c-0.022,0.449-0.046,0.897-0.067,1.346
				c0.007-0.136,0.299-0.259,0.306-0.399c0.022-0.449,0.046-0.897,0.067-1.346C23.29,31.19,22.998,31.315,22.991,31.456z"/>
			<path opacity="0.1091" fill="#754C24" d="M23.744,31.206c-0.02,0.361-0.039,0.723-0.058,1.085
				c-0.006,0.105,0.496,0.133,0.502,0.03c0.02-0.386,0.039-0.773,0.057-1.159C24.245,31.17,23.747,31.169,23.744,31.206z"/>
			<path opacity="0.1091" fill="#754C24" d="M24.817,32.738c-0.05,0.415-0.102,0.832-0.151,1.247
				c0.011-0.085,0.438-0.155,0.437-0.252c-0.006-0.474-0.012-0.946-0.016-1.419C25.088,32.45,24.834,32.595,24.817,32.738z"/>
			<path opacity="0.1091" fill="#754C24" d="M22.759,32.151c-0.023,0.448-0.047,0.896-0.07,1.346
				c-0.009,0.156,0.173,0.32,0.166,0.475c0.023-0.448,0.046-0.897,0.069-1.346C22.932,32.469,22.751,32.304,22.759,32.151z"/>
		</g>
	</g>
</g>
<g>
	<g>
		<g>
			<path opacity="0.1091" fill="#754C24" d="M24.219,34.145c-0.017,0.116-0.031,0.232-0.048,0.351
				c-0.052,0.379,1.318-0.809,1.406-1.209c0.021-0.093,0.04-0.186,0.061-0.278c0.089-0.408-0.583,0.093-0.574,0.085
				C24.785,33.346,24.274,33.741,24.219,34.145z"/>
			<path opacity="0.1091" fill="#754C24" d="M23.141,33.365c-0.017,0.119-0.033,0.239-0.05,0.359
				c-0.069,0.504,0.755-0.273,0.716-0.236c0.386-0.369,1.128-0.937,1.254-1.492c0.021-0.091,0.042-0.181,0.063-0.271
				c0.113-0.501-0.773,0.262-0.715,0.208C24.064,32.245,23.212,32.854,23.141,33.365z"/>
			<path opacity="0.1091" fill="#754C24" d="M23.203,31.724c-0.011,0.105-0.021,0.21-0.032,0.315
				c-0.054,0.541,0.753,0.085,0.77-0.248c0.003-0.078,0.008-0.156,0.012-0.234C23.977,31.023,23.235,31.402,23.203,31.724z"/>
			<path opacity="0.1091" fill="#754C24" d="M24.34,32.809c-0.017,0.121-0.035,0.239-0.052,0.358
				c-0.053,0.374,1.333-0.761,1.412-1.179c0.017-0.09,0.033-0.182,0.051-0.271C25.816,31.375,24.404,32.353,24.34,32.809z"/>
			<path opacity="0.1091" fill="#754C24" d="M23.913,31.8c-0.016,0.117-0.03,0.236-0.046,0.355c-0.031,0.242,0.441,0.438,0.486,0.1
				c0.015-0.126,0.031-0.25,0.047-0.376C24.431,31.642,23.957,31.462,23.913,31.8z"/>
			<path opacity="0.1091" fill="#754C24" d="M22.425,32.813c-0.021,0.122-0.04,0.244-0.061,0.366
				c-0.074,0.444,0.637-0.148,0.623-0.135c0.322-0.298,0.894-0.739,0.986-1.197c0.019-0.084,0.035-0.17,0.053-0.255
				C24.092,31.269,22.509,32.32,22.425,32.813z"/>
			<path opacity="0.1091" fill="#754C24" d="M23.31,34.443c-0.015,0.118-0.03,0.235-0.047,0.353
				c-0.065,0.489,0.719-0.25,0.684-0.217c0.375-0.368,1.018-0.885,1.15-1.423c0.022-0.092,0.044-0.183,0.067-0.274
				c0.119-0.487-0.746,0.248-0.684,0.191C24.148,33.381,23.376,33.951,23.31,34.443z"/>
			<path opacity="0.1091" fill="#754C24" d="M24.817,32.701c-0.022,0.119-0.043,0.237-0.065,0.358c-0.1,0.557,0.749,0.04,0.806-0.28
				c0.021-0.109,0.04-0.218,0.06-0.327C25.717,31.9,24.874,32.38,24.817,32.701z"/>
			<path opacity="0.1091" fill="#754C24" d="M22.931,32.194c-0.02,0.12-0.039,0.241-0.06,0.361c-0.062,0.375,1.204-0.586,1.268-0.99
				c0.013-0.081,0.026-0.164,0.039-0.247C24.241,30.911,22.993,31.815,22.931,32.194z"/>
			<path opacity="0.1091" fill="#754C24" d="M23.887,31.9c-0.021,0.119-0.041,0.237-0.061,0.356
				c-0.122,0.714,1.01-0.225,1.056-0.543c0.013-0.09,0.025-0.18,0.037-0.269C25.02,30.735,23.938,31.597,23.887,31.9z"/>
			<path opacity="0.1091" fill="#754C24" d="M24.763,33.335c-0.017,0.113-0.031,0.227-0.048,0.34
				c-0.104,0.712,0.976-0.24,1.025-0.551c0.014-0.091,0.029-0.183,0.043-0.272C25.896,32.154,24.809,33.021,24.763,33.335z"/>
			<path opacity="0.1091" fill="#754C24" d="M22.406,33.531c-0.02,0.12-0.038,0.242-0.057,0.362
				c-0.078,0.497,0.741-0.256,0.703-0.219c0.379-0.36,1.09-0.902,1.218-1.444c0.021-0.088,0.041-0.175,0.063-0.262
				c0.114-0.49-0.753,0.236-0.699,0.187C23.29,32.461,22.483,33.03,22.406,33.531z"/>
		</g>
	</g>
</g>
<g>
	<g>
		<g>
			<path opacity="0.1091" fill="#754C24" d="M18.659,31.119c0.839,1.116,1.679,2.232,2.519,3.35
				c0.032,0.041,0.446-0.208,0.473-0.169c-0.838-1.116-1.679-2.232-2.519-3.35C19.101,30.908,18.687,31.156,18.659,31.119z"/>
			<path opacity="0.1091" fill="#754C24" d="M17.974,30.464c0.839,1.116,1.679,2.231,2.518,3.346
				c-0.1-0.133-0.164-0.294-0.264-0.428c-0.839-1.114-1.679-2.229-2.518-3.346C17.809,30.169,17.873,30.331,17.974,30.464z"/>
			<path opacity="0.1091" fill="#754C24" d="M17.734,28.755c0.839,1.114,1.678,2.229,2.517,3.343
				c0.025,0.033,0.44-0.229,0.462-0.198c-0.838-1.112-1.677-2.227-2.516-3.341C18.172,28.523,17.757,28.785,17.734,28.755z"/>
			<path opacity="0.1091" fill="#754C24" d="M18.802,30.145c0.745,1.034,1.491,2.069,2.235,3.104
				c0.047,0.064,0.448-0.243,0.396-0.311c-0.859-1.098-1.719-2.195-2.58-3.294C18.928,29.739,18.729,30.043,18.802,30.145z"/>
			<path opacity="0.1091" fill="#754C24" d="M18.615,28.473c0.839,1.114,1.679,2.229,2.519,3.341
				c0.081,0.108,0.403,0.033,0.483,0.14c-0.84-1.114-1.679-2.229-2.519-3.341C19.016,28.503,18.694,28.577,18.615,28.473z"/>
			<path opacity="0.1091" fill="#754C24" d="M17.125,29.93c0.839,1.114,1.676,2.229,2.515,3.346c-0.072-0.096,0.138-0.403,0.066-0.5
				c-0.837-1.114-1.676-2.229-2.514-3.344C17.264,29.524,17.054,29.833,17.125,29.93z"/>
			<path opacity="0.1091" fill="#754C24" d="M17.909,31.113c0.839,1.117,1.679,2.232,2.518,3.35c0.077,0.105,0.411,0.018,0.488,0.12
				c-0.84-1.117-1.679-2.232-2.518-3.35C18.319,31.129,17.986,31.216,17.909,31.113z"/>
			<path opacity="0.1091" fill="#754C24" d="M19.509,29.973c0.842,1.114,1.682,2.229,2.522,3.346
				c-0.086-0.116,0.021-0.381-0.067-0.498c-0.84-1.116-1.682-2.231-2.522-3.346C19.528,29.588,19.42,29.854,19.509,29.973z"/>
			<path opacity="0.1091" fill="#754C24" d="M17.407,29.354c0.838,1.114,1.676,2.228,2.515,3.344
				c-0.026-0.035,0.335-0.363,0.306-0.4c-0.839-1.114-1.676-2.229-2.515-3.344C17.737,28.987,17.377,29.315,17.407,29.354z"/>
			<path opacity="0.1091" fill="#754C24" d="M18.155,29.088c0.84,1.116,1.679,2.231,2.519,3.348
				c0.054,0.071,0.449-0.114,0.501-0.046c-0.84-1.114-1.679-2.23-2.519-3.346C18.601,28.971,18.207,29.157,18.155,29.088z"/>
			<path opacity="0.1091" fill="#754C24" d="M19.227,30.633c0.842,1.116,1.682,2.232,2.522,3.349
				c-0.033-0.045,0.307-0.375,0.27-0.425c-0.84-1.116-1.681-2.231-2.522-3.349C19.53,30.252,19.189,30.583,19.227,30.633z"/>
			<path opacity="0.1091" fill="#754C24" d="M17.337,30.521c0.839,1.116,1.676,2.231,2.515,3.347
				c-0.095-0.127-0.07-0.346-0.166-0.475c-0.839-1.115-1.676-2.23-2.515-3.347C17.267,30.174,17.24,30.393,17.337,30.521z"/>
		</g>
	</g>
</g>
<g>
</g>
<g>
</g>
<g>
</g>
<g>
</g>
<g>
</g>
<g>
</g>
<g>
</g>
<g>
</g>
<g>
</g>
<g>
</g>
<g>
</g>
<g>
</g>
<g>
</g>
<g>
</g>
<g>
</g>
</svg>
