<?xml version="1.0" encoding="utf-8"?>
<!-- Generator: Adobe Illustrator 16.0.0, SVG Export Plug-In . SVG Version: 6.00 Build 0)  -->
<!DOCTYPE svg PUBLIC "-//W3C//DTD SVG 1.1//EN" "http://www.w3.org/Graphics/SVG/1.1/DTD/svg11.dtd">
<svg version="1.1" id="Слой_1" xmlns="http://www.w3.org/2000/svg" xmlns:xlink="http://www.w3.org/1999/xlink" x="0px" y="0px"
	 width="42px" height="42px" viewBox="0 0 42 42" enable-background="new 0 0 42 42" xml:space="preserve">
<g>
	<path fill="#CCCCCC" d="M7,26v-8l5.271-6.649c0,0,1.82-5.05,2.244-5.474c0.424-0.423,2.322-1.164,2.992-1.199
		c0.671-0.035,3.244,0.988,3.244,0.988s2.135,1.2,2.734,1.2c0.601,0,2.586-1.694,2.586-1.694l5.264-0.213
		c0,0,2.686,5.326,2.686,5.541s0.919,14.691,0.919,14.832s-1.729,4.66-1.765,4.872s-2.471,4.872-2.471,4.872
		s-2.295,0.847-2.578,0.918c-0.281,0.071-8.085,0.07-8.191,0c-0.105-0.07-7.24-2.048-7.24-2.048L7,26z"/>
	<g>
		<path d="M8.25,26c0-1.976,0-3.95,0-5.926c0-2.277,0.613-2.644,2.119-4.638c0.849-1.124,2.418-2.534,2.875-3.887
			c0.925-2.736,1.71-6.943,5.547-5.816c1.51,0.443,3.13,1.883,4.71,1.883c1.616,0,2.508-1.691,4.242-1.762
			c3.237-0.131,2.783-0.858,4.067,1.723c1.052,2.114,1.486,3.392,1.63,5.7c0.222,3.592,1.729,9.225,0.506,12.646
			c-1.173,3.28-2.314,9.233-6.518,9.35c-4.852,0.136-8.403-0.354-13.026-1.688c-2.149-0.621-4.484-5.378-6.256-7.965
			c-0.543-0.792-1.843-0.043-1.295,0.758c1.626,2.373,3.252,4.746,4.879,7.119c1.295,1.891,3.724,1.951,5.857,2.573
			c2.64,0.769,12.154,2.467,13.764-0.616c2.393-4.585,4.444-8.484,4.119-13.69c-0.227-3.625-0.46-7.249-0.677-10.875
			c-0.129-2.152-1.858-4.423-2.808-6.31c-0.113-0.225-0.399-0.382-0.647-0.372c-2.604,0.105-8.458,1.481-10.357,0.734
			c-2.741-1.079-6.26-1.583-7.575,1.769c-1.625,4.142-3.533,6.908-6.235,10.486C5.731,19.106,6.75,23.692,6.75,26
			C6.75,26.968,8.25,26.968,8.25,26z"/>
	</g>
</g>
<path fill="none" stroke="#000000" stroke-miterlimit="10" d="M22.066,9.891c0.141-0.035,1.164,0.035,1.441,0.359
	c0.277,0.323-0.408,3.71-0.408,3.71l-2.023,2.737l-2.605,1.97c0,0-1.594,0.381-1.971,0.698s0,1.635,0,1.635"/>
<path fill="none" stroke="#000000" stroke-miterlimit="10" d="M21.878,21.166c0,0,0.036-2.083-0.423-2.719s-1.701-0.75-1.701-0.75"
	/>
<path fill="none" stroke="#000000" stroke-miterlimit="10" d="M19.124,13.61c0,0,0.448-1.061,0.63-1.378s1.629-0.247,2.124,0.212
	s1.011,1.8,1.011,1.8s1.355-0.883,1.92-1.006s1.554,0.16,1.554,0.16"/>
<g>
</g>
<g>
</g>
<g>
</g>
<g>
</g>
<g>
</g>
<g>
</g>
<g>
</g>
<g>
</g>
<g>
</g>
<g>
</g>
<g>
</g>
<g>
</g>
<g>
</g>
<g>
</g>
<g>
</g>
</svg>
