<?xml version="1.0" encoding="utf-8"?>
<!-- Generator: Adobe Illustrator 16.0.0, SVG Export Plug-In . SVG Version: 6.00 Build 0)  -->
<!DOCTYPE svg PUBLIC "-//W3C//DTD SVG 1.1//EN" "http://www.w3.org/Graphics/SVG/1.1/DTD/svg11.dtd">
<svg version="1.1" id="Слой_1" xmlns="http://www.w3.org/2000/svg" xmlns:xlink="http://www.w3.org/1999/xlink" x="0px" y="0px"
	 width="42px" height="42px" viewBox="0 0 42 42" enable-background="new 0 0 42 42" xml:space="preserve">
<path fill="#CCCCCC" stroke="#000000" stroke-miterlimit="10" d="M32.59,7.188c0.331,0.169,0,0,0.657,0.344s1.483,1.854,1.688,2.435
	s-0.359,11.201-0.443,11.554s-1.082,4.545-1.139,4.631c-0.058,0.086-0.831,5.993-1.17,6.451c-0.34,0.459-1.959,0.947-1.801,0.896
	s-2.945,0.172-3.383,0s-1.413-0.834-1.801-1.183c-0.387-0.349-0.861-1.599-1.288-1.817s-1.536-0.078-1.911,0
	s-1.654,0.673-1.983,0.914c-0.329,0.242-1.44,1.773-1.689,2.086s-1.624,0.879-2.062,0.979c-1.462,0.333-0.599,0.186-2.291-0.172
	c-0.49-0.104-1.789-0.828-2.147-1.146s-1.563-2.592-1.775-2.921s-1.197-1.919-1.374-2.377c-0.178-0.457-0.172-2.662-0.172-2.662
	s-0.537-3.892-0.545-4.038c-0.007-0.146-0.143-2.892-0.143-2.892s-0.462-3.61-0.344-4.095s0.553-2.743,0.773-3.178
	s1.533-2.11,1.861-2.32s4.595-1.151,4.953-1.282c0.359-0.131,4.875-0.73,5.384-0.751s4.025-0.184,4.267-0.172s3.624,0.171,3.923,0.2
	S32.258,7.019,32.59,7.188z"/>
<path fill="none" stroke="#000000" stroke-miterlimit="10" d="M16.366,26.339c0,0,2.87,0.267,3.134,0.735s-0.41,1.391,0,1.926
	s1.873,0.887,1.873,0.887L22,30.5"/>
<path fill="none" stroke="#000000" stroke-miterlimit="10" d="M27.5,25c0,0,0.299,1.604,0,2s-3.11-0.452-3.373,0.367
	c-0.264,0.82,0.674,0.908,0.791,1.465S24.127,30.5,24.127,30.5"/>
<g>
</g>
<g>
</g>
<g>
</g>
<g>
</g>
<g>
</g>
<g>
</g>
<g>
</g>
<g>
</g>
<g>
</g>
<g>
</g>
<g>
</g>
<g>
</g>
<g>
</g>
<g>
</g>
<g>
</g>
</svg>
