<?xml version="1.0" encoding="utf-8"?>
<!-- Generator: Adobe Illustrator 16.0.0, SVG Export Plug-In . SVG Version: 6.00 Build 0)  -->
<!DOCTYPE svg PUBLIC "-//W3C//DTD SVG 1.1//EN" "http://www.w3.org/Graphics/SVG/1.1/DTD/svg11.dtd">
<svg version="1.1" id="Слой_1" xmlns="http://www.w3.org/2000/svg" xmlns:xlink="http://www.w3.org/1999/xlink" x="0px" y="0px"
	 width="42px" height="42px" viewBox="0 0 42 42" enable-background="new 0 0 42 42" xml:space="preserve">
<path fill="#CCCCCC" stroke="#000000" stroke-miterlimit="10" d="M22.801,37.794c-0.117,0.029-3.783,0.36-4.394,0
	s-5.097-2.985-5.527-3.55s-2.794-3.637-3.259-4.451S7.322,19.756,7.322,19.756s-0.756-9.24-0.581-9.571s2.793-5.296,2.793-5.296
	s1.309-2.007,2.327-2.298s3.957,0.029,4.044,0s3.521,1.833,4.219,2.24s3.288-0.117,3.782-0.32s1.338-1.542,1.832-1.92
	c0.495-0.378,3.637,0.321,4.074,0.757c0.436,0.436,2.219,7.387,2.502,7.913c0.282,0.526,2.182,3.782,2.473,4.306
	s0.35,4.685,0.35,4.771s-1.164,7.069-1.164,7.069s-2.124,4.801-2.328,5.324c-0.203,0.523-3.666,3.549-4.276,3.898
	S22.801,37.794,22.801,37.794z"/>
<path fill="none" stroke="#000000" stroke-miterlimit="10" d="M15.004,9.515c0,0-2.27-1.716-2.502-2.298
	c-0.233-0.582,0.609-4.748,0.609-4.748"/>
<path fill="none" stroke="#000000" stroke-miterlimit="10" d="M17.418,10.097c-0.203,0.175,2.096,1.804,2.852,1.688
	s1.861-1.688,1.861-1.688s-0.029-1.192-0.232-1.804s-3.462-1.192-3.462-1.192"/>
<path fill="none" stroke="#000000" stroke-miterlimit="10" d="M22.131,10.097c0,0,3.113,1.077,3.259,1.455s-0.465,2.588-0.232,3.112
	s5.353,3.229,5.353,3.229"/>
<path fill="none" stroke="#000000" stroke-miterlimit="10" d="M29.085,12.86c0,0-0.116-1.367-0.582-1.6s-3.308,0.204-3.308,0.204"/>
<path fill="none" stroke="#000000" stroke-miterlimit="10" d="M20.152,15.362c0.117,0.029,1.862,2.153,2.444,2.299
	s1.483-0.286,1.601-0.582s0.96-2.415,0.96-2.415"/>
<g>
</g>
<g>
</g>
<g>
</g>
<g>
</g>
<g>
</g>
<g>
</g>
<g>
</g>
<g>
</g>
<g>
</g>
<g>
</g>
<g>
</g>
<g>
</g>
<g>
</g>
<g>
</g>
<g>
</g>
</svg>
