<?xml version="1.0" encoding="utf-8"?>
<!-- Generator: Adobe Illustrator 16.0.0, SVG Export Plug-In . SVG Version: 6.00 Build 0)  -->
<!DOCTYPE svg PUBLIC "-//W3C//DTD SVG 1.1//EN" "http://www.w3.org/Graphics/SVG/1.1/DTD/svg11.dtd">
<svg version="1.1" id="Слой_1" xmlns="http://www.w3.org/2000/svg" xmlns:xlink="http://www.w3.org/1999/xlink" x="0px" y="0px"
	 width="42px" height="42px" viewBox="0 0 42 42" enable-background="new 0 0 42 42" xml:space="preserve">
<path fill="#CCCCCC" stroke="#000000" stroke-miterlimit="10" d="M14.415,31.527c0.475,0.846,2.754,2.612,3.433,3.018
	s7.313,0.248,7.897-0.009s4.478-7.213,4.755-8.024s0.075-12.548,0-13.512s-2.088-4.671-2.582-5.13s-3.143-1.413-3.143-1.413
	s-2.295,0.319-3.107,0.707c-0.812,0.388-1.553,1.448-2.295,1.589c-0.74,0.141-2.4-1.271-2.4-1.271L14.59,7.234
	c0,0-2.525,1.589-3.09,2.577S11.288,26.04,11.5,27S13.94,30.682,14.415,31.527z"/>
<path fill="none" stroke="#000000" stroke-miterlimit="10" d="M18.879,14.648c0-0.282-0.813-2.365-0.176-3.071
	c0.635-0.706,1.678,0.317,2.215-0.212c0.539-0.529-0.307-3.673,0.437-4.018"/>
<path fill="none" stroke="#000000" stroke-miterlimit="10" d="M15.984,12.213c0,0,0.776-1.413,1.588-1.483
	c0.813-0.07,2.456,0.741,2.456,0.741"/>
<g>
</g>
<g>
</g>
<g>
</g>
<g>
</g>
<g>
</g>
<g>
</g>
<g>
</g>
<g>
</g>
<g>
</g>
<g>
</g>
<g>
</g>
<g>
</g>
<g>
</g>
<g>
</g>
<g>
</g>
</svg>
