<?xml version="1.0" encoding="utf-8"?>
<!-- Generator: Adobe Illustrator 16.0.0, SVG Export Plug-In . SVG Version: 6.00 Build 0)  -->
<!DOCTYPE svg PUBLIC "-//W3C//DTD SVG 1.1//EN" "http://www.w3.org/Graphics/SVG/1.1/DTD/svg11.dtd">
<svg version="1.1" id="Слой_1" xmlns="http://www.w3.org/2000/svg" xmlns:xlink="http://www.w3.org/1999/xlink" x="0px" y="0px"
	 width="42px" height="42px" viewBox="0 0 42 42" enable-background="new 0 0 42 42" xml:space="preserve">
<path fill="#CCCCCC" stroke="#000000" stroke-miterlimit="10" d="M11.625,14.359c0,0-0.01-0.534,0.112-0.869
	s6.239-7.325,6.618-7.658s1.313-0.675,1.313-0.675s3.77-0.292,4.113-0.232s1.315,0.639,1.588,0.849
	c0.271,0.21,5.117,6.773,5.304,7.234s-0.586,20.954-0.849,21.378c-0.262,0.426-2.355,1.757-2.84,1.904
	c-0.484,0.146-9.838-0.065-10.349-0.146c-0.511-0.082-4.729-2.412-5.136-3.075S11.625,14.359,11.625,14.359z"/>
<g>
</g>
<g>
</g>
<g>
</g>
<g>
</g>
<g>
</g>
<g>
</g>
<g>
</g>
<g>
</g>
<g>
</g>
<g>
</g>
<g>
</g>
<g>
</g>
<g>
</g>
<g>
</g>
<g>
</g>
</svg>
