<?xml version="1.0" encoding="utf-8"?>
<!-- Generator: Adobe Illustrator 16.0.0, SVG Export Plug-In . SVG Version: 6.00 Build 0)  -->
<!DOCTYPE svg PUBLIC "-//W3C//DTD SVG 1.1//EN" "http://www.w3.org/Graphics/SVG/1.1/DTD/svg11.dtd">
<svg version="1.1" id="Слой_1" xmlns="http://www.w3.org/2000/svg" xmlns:xlink="http://www.w3.org/1999/xlink" x="0px" y="0px"
	 width="42px" height="42px" viewBox="0 0 42 42" enable-background="new 0 0 42 42" xml:space="preserve">
<path fill="#CCCCCC" stroke="#000000" stroke-miterlimit="10" d="M13.406,9.847c0,0,0.029-0.044,0.085-0.126
	c0.649-0.969,4.812-7.169,4.887-7.169c0.088,0,1.288-1.318,2.236-1.247s1.786,0.82,2.349,1.266c0.562,0.445,3.277,3.96,3.547,4.542
	s2.816,5.948,2.99,6.534s0.135,9.78,0,10.354s-1.545,6.943-1.7,7.276s-2.261,5.304-2.636,5.682s-3.711,3.632-3.711,3.632
	s-4.547-6.385-4.84-6.707s-1.787-0.439-2.227-0.615s-2.197-2.431-2.665-3.484c-0.468-1.055-0.059-16.664,0.322-17.806
	s1.392-2.175,1.392-2.175"/>
<g>
</g>
<g>
</g>
<g>
</g>
<g>
</g>
<g>
</g>
<g>
</g>
<g>
</g>
<g>
</g>
<g>
</g>
<g>
</g>
<g>
</g>
<g>
</g>
<g>
</g>
<g>
</g>
<g>
</g>
</svg>
