<?xml version="1.0" encoding="utf-8"?>
<!-- Generator: Adobe Illustrator 16.0.0, SVG Export Plug-In . SVG Version: 6.00 Build 0)  -->
<!DOCTYPE svg PUBLIC "-//W3C//DTD SVG 1.1//EN" "http://www.w3.org/Graphics/SVG/1.1/DTD/svg11.dtd">
<svg version="1.1" id="Слой_1" xmlns="http://www.w3.org/2000/svg" xmlns:xlink="http://www.w3.org/1999/xlink" x="0px" y="0px"
	 width="42px" height="42px" viewBox="0 0 42 42" enable-background="new 0 0 42 42" xml:space="preserve">
<path fill="#CCCCCC" stroke="#000000" stroke-miterlimit="10" d="M30.975,12.676c-0.175-0.669-3.898-4.889-4.307-5.267
	c-0.406-0.378-2.443-0.901-3.112-0.756S21.52,8.516,21.52,8.516s-1.629,0.493-2.27,0.29s-1.367-1.744-2.066-1.978
	c-0.697-0.233-1.309-0.146-1.949,0.523c-0.64,0.669-2.647,6.11-2.822,6.866c-0.174,0.756-0.494,11.23-0.319,11.986
	s3.898,6.75,4.335,7.128s1.513,0.466,1.6,0.582c0.088,0.116,6.722,0.407,7.361,0s4.451-7.273,4.684-7.826s0.902-13.558,0.902-13.558
	"/>
<path fill="none" stroke="#000000" stroke-miterlimit="10" d="M24.719,10.668c-0.087,0-2.036,2.123-2.793,2.065
	c-0.756-0.058-2.734-1.135-3.199-1.658c-0.466-0.523-0.507-3.271-0.507-3.271"/>
<g>
</g>
<g>
</g>
<g>
</g>
<g>
</g>
<g>
</g>
<g>
</g>
<g>
</g>
<g>
</g>
<g>
</g>
<g>
</g>
<g>
</g>
<g>
</g>
<g>
</g>
<g>
</g>
<g>
</g>
</svg>
