<?xml version="1.0" encoding="utf-8"?>
<!-- Generator: Adobe Illustrator 16.0.0, SVG Export Plug-In . SVG Version: 6.00 Build 0)  -->
<!DOCTYPE svg PUBLIC "-//W3C//DTD SVG 1.1//EN" "http://www.w3.org/Graphics/SVG/1.1/DTD/svg11.dtd">
<svg version="1.1" id="Слой_1" xmlns="http://www.w3.org/2000/svg" xmlns:xlink="http://www.w3.org/1999/xlink" x="0px" y="0px"
	 width="42px" height="42px" viewBox="0 0 42 42" enable-background="new 0 0 42 42" xml:space="preserve">
<path fill="#CCCCCC" stroke="#000000" stroke-miterlimit="10" d="M9.625,8C8.859,8.374,8,8.666,7.438,9.521
	s-0.489,5.844-0.489,5.844s0.441,5.369,0.63,6.172c0.188,0.803,1.023,4.356,1.023,4.356s1.332,7.084,1.532,7.763
	s1.2,1.511,1.7,1.845s2.541,0.291,3.166,0s1.625-2,2.167-2.416c0.542-0.417,3-0.459,3.625-0.459s1.541,0.584,2.083,0.834
	s1.417,1.749,1.959,2.041c0.541,0.292,4.457,0.333,5.166,0s4.625-5.375,5.042-6.541C35.459,27.792,35.5,23,35.5,23s-0.042-4.125,0-5
	s-1.458-6.708-1.666-7.375c-0.209-0.667-4.334-4.5-5.167-4.958s-8.458-0.458-8.458-0.458s-5.375,0.042-6.542,0.417
	S10.391,7.626,9.625,8z"/>
<path fill="none" stroke="#000000" stroke-miterlimit="10" d="M23.542,25.417c0,0-0.333,2.792-0.5,3.5s-2.909,3.688-3.7,3.754
	c-0.792,0.066-1.759-2.005-2.217-2.671s1.283-2.549,1.834-3.083s1.375-1.333,1.375-1.333"/>
<g>
</g>
<g>
</g>
<g>
</g>
<g>
</g>
<g>
</g>
<g>
</g>
<g>
</g>
<g>
</g>
<g>
</g>
<g>
</g>
<g>
</g>
<g>
</g>
<g>
</g>
<g>
</g>
<g>
</g>
</svg>
