<?xml version="1.0" encoding="utf-8"?>
<!-- Generator: Adobe Illustrator 16.0.0, SVG Export Plug-In . SVG Version: 6.00 Build 0)  -->
<!DOCTYPE svg PUBLIC "-//W3C//DTD SVG 1.1//EN" "http://www.w3.org/Graphics/SVG/1.1/DTD/svg11.dtd">
<svg version="1.1" id="Слой_1" xmlns="http://www.w3.org/2000/svg" xmlns:xlink="http://www.w3.org/1999/xlink" x="0px" y="0px"
	 width="42px" height="42px" viewBox="0 0 42 42" enable-background="new 0 0 42 42" xml:space="preserve">
<path fill="#CCCCCC" stroke="#000000" stroke-miterlimit="10" d="M20,33.5c0.943,0.271,5.231,0.153,6,0s2.287-1.953,2.887-2.73
	c0.601-0.777,1.413-4.309,1.942-5.579s-0.001-10.98-0.142-11.722s-1.906-3.196-1.906-3.196S27.121,7.78,26.697,7.5
	c-0.423-0.28-2.146-0.214-2.697,0s-1.102,1.696-1.68,1.449C21.74,8.702,20,7.961,20,7.961s-1.104-1.13-1.846-1.13
	c-0.742,0-2.296,1.201-2.473,1.236c-0.176,0.035-2.644,1.765-2.644,1.765s-2.282,2.684-2.538,3.602s-0.204,11.61,0,12.566
	s1.934,3.815,2.711,4.628C13.987,31.44,19.057,33.229,20,33.5z"/>
<path fill="none" stroke="#000000" stroke-miterlimit="10" d="M19.495,13.469c0.142-0.141,1.907-2.648,2.366-2.966
	s1.729-0.317,1.977-0.564S22.604,8.94,22.604,8.94l-3.531,0.645l-1.096-0.494"/>
<g>
</g>
<g>
</g>
<g>
</g>
<g>
</g>
<g>
</g>
<g>
</g>
<g>
</g>
<g>
</g>
<g>
</g>
<g>
</g>
<g>
</g>
<g>
</g>
<g>
</g>
<g>
</g>
<g>
</g>
</svg>
