<?xml version="1.0" encoding="utf-8"?>
<!-- Generator: Adobe Illustrator 16.0.0, SVG Export Plug-In . SVG Version: 6.00 Build 0)  -->
<!DOCTYPE svg PUBLIC "-//W3C//DTD SVG 1.1//EN" "http://www.w3.org/Graphics/SVG/1.1/DTD/svg11.dtd">
<svg version="1.1" id="Слой_1" xmlns="http://www.w3.org/2000/svg" xmlns:xlink="http://www.w3.org/1999/xlink" x="0px" y="0px"
	 width="42px" height="42px" viewBox="0 0 42 42" enable-background="new 0 0 42 42" xml:space="preserve">
<path fill="#CCCCCC" stroke="#000000" stroke-miterlimit="10" d="M13.299,36.179c0,0-1.279-0.261-2.078-0.851
	s-3.259-5.092-3.527-5.735s-1.222-8.438-1.313-9.138s0.61-7.068,0.987-8.001s3.622-5.79,4.276-6.052s1.861-0.814,2.646-0.728
	s2.498,0.874,2.822,1.192c0.323,0.318,1.222,1.309,1.979,1.309c0.756,0,2.355-0.945,2.355-0.945s1.688-1.526,2.27-1.73
	s2.697-0.232,3.283,0s2.769,3.171,2.769,3.171s1.608,4.09,1.921,4.51c0.311,0.42,2.996,3.841,3.229,4.451s0.844,8.113,0.67,8.757
	s-1.542,5.905-1.862,6.487s-2.183,1.339-2.183,1.339s-6.1,1.268-6.691,1.338c-0.59,0.07-6.668,0.916-7.39,0.873
	S13.299,36.179,13.299,36.179z"/>
<path fill="none" stroke="#000000" stroke-miterlimit="10" d="M26.016,22.665l-3.753-4.161c0,0-2.27-3.345-2.27-3.229
	s-4.073-1.979-4.073-1.979"/>
<path fill="none" stroke="#000000" stroke-miterlimit="10" d="M12.836,12.977c0,0-0.582-2.328-0.814-2.938S9.797,8.611,9.797,8.611"
	/>
<path fill="none" stroke="#000000" stroke-miterlimit="10" d="M20.996,10.184c0,0-1.701,1.105-1.875,1.513
	c-0.176,0.407,0.174,3.551,0.872,3.579s1.222-1.6,1.542-1.833s1.949-0.146,1.949-0.146"/>
<path fill="none" stroke="#000000" stroke-miterlimit="10" d="M17.578,26.068c0.059-0.146-0.35-3.287,0.175-4.306
	s3.056-1.106,3.55-1.455s0.846-1.971,0.846-1.971"/>
<g>
</g>
<g>
</g>
<g>
</g>
<g>
</g>
<g>
</g>
<g>
</g>
<g>
</g>
<g>
</g>
<g>
</g>
<g>
</g>
<g>
</g>
<g>
</g>
<g>
</g>
<g>
</g>
<g>
</g>
</svg>
