<?xml version="1.0" encoding="utf-8"?>
<!-- Generator: Adobe Illustrator 16.0.0, SVG Export Plug-In . SVG Version: 6.00 Build 0)  -->
<!DOCTYPE svg PUBLIC "-//W3C//DTD SVG 1.1//EN" "http://www.w3.org/Graphics/SVG/1.1/DTD/svg11.dtd">
<svg version="1.1" id="Слой_1" xmlns="http://www.w3.org/2000/svg" xmlns:xlink="http://www.w3.org/1999/xlink" x="0px" y="0px"
	 width="42px" height="42px" viewBox="0 0 42 42" enable-background="new 0 0 42 42" xml:space="preserve">
<path fill="#CCCCCC" stroke="#000000" stroke-miterlimit="10" d="M21.832,2.95l0.186,0.014c0,0,2.742,0.132,3.436,0.252
	c0.694,0.121,3.979,2.901,3.979,2.901s3.369,5.038,3.645,5.697s0.898,6.788,0.898,6.788s0.357,5.554,0.289,6.087
	c-0.067,0.533-0.705,5.738-1.086,6.325c-0.379,0.587-1.826,3.11-2.49,3.132s-2.986-0.586-3.515-0.264s-0.849,3.163-1.64,3.602
	c-0.791,0.439-5.154,0.82-5.975,0.791s-4.247-1.699-4.247-1.699s-3.632-2.254-3.72-2.313s-2.137-1.729-2.752-2.402
	s-1.354-4.177-1.241-3.631S7.5,23.311,7.5,23.311V17l0.549-4.936l0.996-2.431c0,0,0.818-1.904,1.492-2.665s1.816-1.435,1.904-1.464
	s2.226-1.318,2.226-1.318s2.255-0.82,2.343-0.85S21.832,2.95,21.832,2.95z"/>
<path fill="none" stroke="#000000" stroke-miterlimit="10" d="M17.127,24.599c-0.088,0.264,3.516,5.623,4.013,5.975
	s3.356,0.173,3.485,0s0.146-3.456,0.146-3.456l-2.021,0.146"/>
<path fill="none" stroke="#000000" stroke-miterlimit="10" d="M17.918,33.414c0.234,0.029,2.577-0.264,2.577,0
	s0.645-2.841,0.645-2.841"/>
<g>
</g>
<g>
</g>
<g>
</g>
<g>
</g>
<g>
</g>
<g>
</g>
<g>
</g>
<g>
</g>
<g>
</g>
<g>
</g>
<g>
</g>
<g>
</g>
<g>
</g>
<g>
</g>
<g>
</g>
</svg>
