<?xml version="1.0" encoding="utf-8"?>
<!-- Generator: Adobe Illustrator 16.0.0, SVG Export Plug-In . SVG Version: 6.00 Build 0)  -->
<!DOCTYPE svg PUBLIC "-//W3C//DTD SVG 1.1//EN" "http://www.w3.org/Graphics/SVG/1.1/DTD/svg11.dtd">
<svg version="1.1" id="Слой_1" xmlns="http://www.w3.org/2000/svg" xmlns:xlink="http://www.w3.org/1999/xlink" x="0px" y="0px"
	 width="42px" height="42px" viewBox="0 0 42 42" enable-background="new 0 0 42 42" xml:space="preserve">
<path fill="#F2F2C2" stroke="#000000" stroke-miterlimit="10" d="M25.095,4.521c-0.892-0.44-4.888-0.198-5.976,0.249
	s-5.232,3.618-6.05,4.445s-2.521,4.896-2.753,5.778S9.391,27.898,9.729,28.77s0.952,3.133,1.435,3.704s1.336,1.918,1.878,2.222
	c0.362,0.203,2.246,0.242,3.707,0.305c0.728,0.031,1.35,0.068,1.627,0.135c0.833,0.199,2.862,2.115,3.556,2.365s2.402,0.166,3.069,0
	s6.634-5.891,7.004-6.508c0.371-0.617,0.691-5.333,0.691-5.333s-0.494-11.417-0.74-11.95s-2.124-4.696-2.519-5.432
	S25.986,4.96,25.095,4.521z"/>
<path fill="none" stroke="#000000" stroke-miterlimit="10" d="M26.834,27.584c0.041-0.125-3.032,1-4.125,1.958
	c-1.094,0.958-1.458,1.333-2.667,2.208s-2.129,2.626-3.294,3.25"/>
<g>
</g>
<g>
</g>
<g>
</g>
<g>
</g>
<g>
</g>
<g>
</g>
<g>
</g>
<g>
</g>
<g>
</g>
<g>
</g>
<g>
</g>
<g>
</g>
<g>
</g>
<g>
</g>
<g>
</g>
</svg>
