<?xml version="1.0" encoding="utf-8"?>
<!-- Generator: Adobe Illustrator 16.0.0, SVG Export Plug-In . SVG Version: 6.00 Build 0)  -->
<!DOCTYPE svg PUBLIC "-//W3C//DTD SVG 1.1//EN" "http://www.w3.org/Graphics/SVG/1.1/DTD/svg11.dtd">
<svg version="1.1" id="Слой_1" xmlns="http://www.w3.org/2000/svg" xmlns:xlink="http://www.w3.org/1999/xlink" x="0px" y="0px"
	 width="42px" height="42px" viewBox="0 0 42 42" enable-background="new 0 0 42 42" xml:space="preserve">
<path fill="#F2F2C2" stroke="#000000" stroke-miterlimit="10" d="M21,2.5c0.421,0.083-3.25-0.083-4,0s-4.75,3.458-4.75,3.458
	L9.667,9.042c0,0-1.54,3.061-1.625,3.708s-0.333,2.667-0.625,3.75s-0.604,8.046-0.458,8.834c0.145,0.787,0.958,5.207,0.958,5.207
	s1.041,2.293,1.708,2.959s3.75-0.375,4.583-0.25s2.542,3.709,3.042,4.25s8.75,0.375,9.75,0s6.625-8.083,6.875-8.666
	c0.25-0.584,0.5-5.875,0.5-5.875l-0.291-5.542l-0.875-5.375c0,0-0.897-4.164-1.417-4.625s-3.97-3.57-4.667-3.708
	S20.579,2.417,21,2.5z"/>
<path fill="none" stroke="#000000" stroke-miterlimit="10" d="M25.5,25.229c0,0-2.166-0.541-3.083,0.469
	c-0.917,1.012,0,2.209-0.521,2.965c-0.521,0.754-1.729,1.172-2.521,1.838s-2.792-0.334-3.375,0s-1.111,2.715-1.792,2.75"/>
<path fill="none" stroke="#000000" stroke-miterlimit="10" d="M18.417,27.084c0,0-1.125,0.708-1.708,1.375
	c-0.583,0.666-0.5,2.041-0.5,2.041"/>
<path fill="none" stroke="#000000" stroke-miterlimit="10" d="M22.25,33.459c0,0-1.25-0.5-2.083-0.834S19.375,30.5,19.375,30.5"/>
<g>
</g>
<g>
</g>
<g>
</g>
<g>
</g>
<g>
</g>
<g>
</g>
<g>
</g>
<g>
</g>
<g>
</g>
<g>
</g>
<g>
</g>
<g>
</g>
<g>
</g>
<g>
</g>
<g>
</g>
</svg>
