<?xml version="1.0" encoding="utf-8"?>
<!-- Generator: Adobe Illustrator 16.0.0, SVG Export Plug-In . SVG Version: 6.00 Build 0)  -->
<!DOCTYPE svg PUBLIC "-//W3C//DTD SVG 1.1//EN" "http://www.w3.org/Graphics/SVG/1.1/DTD/svg11.dtd">
<svg version="1.1" id="Слой_1" xmlns="http://www.w3.org/2000/svg" xmlns:xlink="http://www.w3.org/1999/xlink" x="0px" y="0px"
	 width="42px" height="42px" viewBox="0 0 42 42" enable-background="new 0 0 42 42" xml:space="preserve">
<path fill="#F2F2C2" stroke="#000000" stroke-miterlimit="10" d="M18.479,3.771c-0.908-0.145-2.375-0.458-3.573-0.218
	s-3.667,2.25-4.307,2.703s-2.816,3.833-3.071,4.747s-1.535,5.499-1.535,5.499s-0.417,4.041-0.581,5.124
	c-0.163,1.083,0.042,3.298,0.419,3.958s4.375,7.666,4.375,7.666s0.75,0.5,1.792,0.5s2.834-0.542,3.75-0.75s4.178-0.329,4.708,0.084
	c0.531,0.412,1.875,1.458,1.875,1.458l2.207,2.25c0,0,1.043,1.167,1.834,1.625s1.625-0.083,2.416-0.458
	c0.793-0.375,2.959-3.292,3.084-3.375c0.125-0.084,2.459-3.209,2.459-3.209s1.658-2.23,1.957-3.291
	c0.299-1.063,0.667-2.175,0.771-3.417s0.438-5.208,0.438-5.208s0-3.417,0-4.458s-0.752-3.417-0.752-3.417S36.02,8.954,35,8.25
	s-2.709-1.792-3.5-2.417s-3.826-1.465-4.584-1.667c-0.125,0-3.641-0.724-4.625-0.615C21.308,3.661,19.387,3.916,18.479,3.771z"/>
<path fill="none" stroke="#000000" stroke-miterlimit="10" d="M18.583,20.208c-0.125,0.125,3.333,4.583,3.333,4.583l0.917,1
	c0,0-0.77,2.958-1.406,3.25c-0.637,0.292-5.303-0.001-6.053,0.583s-2.797,4.082-2.797,4.082"/>
<path fill="none" stroke="#000000" stroke-miterlimit="10" d="M16.208,24.209c0,0-0.625-0.001-1.083,0.916s0.25,4.5,0.25,4.5"/>
<path fill="none" stroke="#000000" stroke-miterlimit="10" d="M28.291,24.209c0,0-0.582,0.958-1.791,1.333s-3.666,0.25-3.666,0.25"
	/>
<line fill="none" stroke="#000000" stroke-miterlimit="10" x1="24.5" y1="32" x2="21.498" y2="28.88"/>
<g>
</g>
<g>
</g>
<g>
</g>
<g>
</g>
<g>
</g>
<g>
</g>
<g>
</g>
<g>
</g>
<g>
</g>
<g>
</g>
<g>
</g>
<g>
</g>
<g>
</g>
<g>
</g>
<g>
</g>
</svg>
