<?xml version="1.0" encoding="utf-8"?>
<!-- Generator: Adobe Illustrator 16.0.0, SVG Export Plug-In . SVG Version: 6.00 Build 0)  -->
<!DOCTYPE svg PUBLIC "-//W3C//DTD SVG 1.1//EN" "http://www.w3.org/Graphics/SVG/1.1/DTD/svg11.dtd">
<svg version="1.1" id="Слой_1" xmlns="http://www.w3.org/2000/svg" xmlns:xlink="http://www.w3.org/1999/xlink" x="0px" y="0px"
	 width="42px" height="42px" viewBox="0 0 42 42" enable-background="new 0 0 42 42" xml:space="preserve">
<path fill="#F2F2C2" stroke="#000000" stroke-miterlimit="10" d="M14.827,6.25c-0.922-0.24-2.625-0.791-3.726-0.458
	S8.268,7.717,8.03,8.646S6.5,13.833,6.5,14.625S6.5,19,6.5,19s0.216,5.383,0.458,6.334C7.201,26.283,7.385,28.826,8,29.417
	s2.61,2.969,3.292,3.167c0.682,0.197,1.625,0.791,2.583,0.75C14.833,33.292,18,31.333,18.75,31s2.167-0.334,2.625,0.125
	s2.5,2.5,2.5,2.5s1.55,1.537,2.25,1.5s4.16,0.302,4.792-0.25s2.651-1.891,2.958-2.583s1.737-3.667,2.015-4.542s0.61-5.042,0.61-6
	s0-4.75,0-4.75s-0.323-3.838-0.583-4.583s-0.875-2.625-1.25-3.583s-1.167-1.5-2.25-1.958s-4.375-0.833-4.375-0.833
	s-6.708-0.25-5.833-0.417c0.875-0.167-3.289,0.058-4.125,0.25S15.749,6.49,14.827,6.25z"/>
<path fill="none" stroke="#000000" stroke-miterlimit="10" d="M16.896,21.033c0,0-2.134,2.484-2.552,3.025s-1.417,1.792-1.943,2.513
	s-0.609,1.221-0.901,2.471s-0.292,3.291,0,3.958"/>
<path fill="none" stroke="#000000" stroke-miterlimit="10" d="M27.25,20.75c0,0,0,2.667-1.208,2.209
	c-1.208-0.459-2.958-0.209-3.583,0.666c-0.625,0.875-0.667,3-0.584,3.834c0.083,0.833-1.015,3.281-1.66,3.309"/>
<path fill="none" stroke="#000000" stroke-miterlimit="10" d="M28.167,25.25c-0.5-0.041-1.5,1.708-2.375,2.125
	s-3.917,0.084-3.917,0.084"/>
<g>
</g>
<g>
</g>
<g>
</g>
<g>
</g>
<g>
</g>
<g>
</g>
<g>
</g>
<g>
</g>
<g>
</g>
<g>
</g>
<g>
</g>
<g>
</g>
<g>
</g>
<g>
</g>
<g>
</g>
</svg>
