<?xml version="1.0" encoding="utf-8"?>
<!-- Generator: Adobe Illustrator 16.0.0, SVG Export Plug-In . SVG Version: 6.00 Build 0)  -->
<!DOCTYPE svg PUBLIC "-//W3C//DTD SVG 1.1//EN" "http://www.w3.org/Graphics/SVG/1.1/DTD/svg11.dtd">
<svg version="1.1" id="Слой_1" xmlns="http://www.w3.org/2000/svg" xmlns:xlink="http://www.w3.org/1999/xlink" x="0px" y="0px"
	 width="42px" height="42px" viewBox="0 0 42 42" enable-background="new 0 0 42 42" xml:space="preserve">
<path fill="#F2F2C2" stroke="#000000" stroke-miterlimit="10" d="M21.453,40.59"/>
<path fill="#F2F2C2" stroke="#000000" stroke-miterlimit="10" d="M13.318,33.02c-0.316-0.453,0.41-19.035,0.706-19.701
	s4.043-4.992,4.043-4.992s2.02-2.209,2.666-2.544s1.845-0.439,2.402-0.211c0.557,0.228,2.782,3.043,2.899,3.131
	s2.009,3.602,2.308,4.098s1.158,3.864,1.158,4.216s0.227,16.759,0,16.984s-1.475,1.643-1.885,1.877s-9.313-0.117-9.371,0
	S14.759,34.5,14.759,34.5S13.635,33.473,13.318,33.02z"/>
<g>
</g>
<g>
</g>
<g>
</g>
<g>
</g>
<g>
</g>
<g>
</g>
<g>
</g>
<g>
</g>
<g>
</g>
<g>
</g>
<g>
</g>
<g>
</g>
<g>
</g>
<g>
</g>
<g>
</g>
</svg>
