<?xml version="1.0" encoding="utf-8"?>
<!-- Generator: Adobe Illustrator 16.0.0, SVG Export Plug-In . SVG Version: 6.00 Build 0)  -->
<!DOCTYPE svg PUBLIC "-//W3C//DTD SVG 1.1//EN" "http://www.w3.org/Graphics/SVG/1.1/DTD/svg11.dtd">
<svg version="1.1" id="Слой_1" xmlns="http://www.w3.org/2000/svg" xmlns:xlink="http://www.w3.org/1999/xlink" x="0px" y="0px"
	 width="36px" height="36px" viewBox="0 0 36 36" enable-background="new 0 0 36 36" xml:space="preserve">
<path fill="#F2F2C2" stroke="#000000" stroke-miterlimit="10" d="M22.556,0.853c0.841,0.069,3.895,0.322,4.656,0.644
	s2.446,1.669,2.929,2.373s3.191,4.597,3.396,5.447s0.469,12.272,0.439,13.121s-3.455,6.618-4.041,7.438s-0.867,0.621-1.669,0.703
	c-0.06-0.029-6.707-0.586-6.707-0.586s-2.05-0.381-2.782,0.146c-0.732,0.527-3.163,4.246-3.836,4.744s-1.875,0.586-2.87,0.439
	S3.314,24.896,2.875,23.637c-0.439-1.259,0.117-7.644,0.117-7.644s0.586-5.359,0.85-6.179s2.313-3.719,2.401-3.778
	s2.547-2.343,3.221-2.782s3.631-1.259,4.393-1.494S21.715,0.783,22.556,0.853z"/>
<path fill="none" stroke="#000000" stroke-miterlimit="10" d="M15.5,19c0,0-0.408,2.125,0,3s2.576-0.324,3,0.407
	s-0.57,2.852,0,3.593s6.545,0.068,6.896,0.215s1.054,4.193,1.054,4.193"/>
<path fill="none" stroke="#000000" stroke-miterlimit="10" d="M15.761,28.557c0.088,0,1.698-0.995,2.079-1.259S18.5,26,18.5,26"/>
<g>
</g>
<g>
</g>
<g>
</g>
<g>
</g>
<g>
</g>
<g>
</g>
<g>
</g>
<g>
</g>
<g>
</g>
<g>
</g>
<g>
</g>
<g>
</g>
<g>
</g>
<g>
</g>
<g>
</g>
</svg>
