<?xml version="1.0" encoding="utf-8"?>
<!-- Generator: Adobe Illustrator 16.0.0, SVG Export Plug-In . SVG Version: 6.00 Build 0)  -->
<!DOCTYPE svg PUBLIC "-//W3C//DTD SVG 1.1//EN" "http://www.w3.org/Graphics/SVG/1.1/DTD/svg11.dtd">
<svg version="1.1" id="Слой_1" xmlns="http://www.w3.org/2000/svg" xmlns:xlink="http://www.w3.org/1999/xlink" x="0px" y="0px"
	 width="36px" height="36px" viewBox="0 0 36 36" enable-background="new 0 0 36 36" xml:space="preserve">
<path fill="#F2F2C2" stroke="#000000" stroke-miterlimit="10" d="M27.654,3c0.811,0.246,2.078,1.376,2.411,1.558
	s1.759,2.342,1.909,2.858c0.152,0.516,0.293,15.992,0.164,16.806s-1.592,4.299-1.998,4.649c-0.406,0.35-2.523,2.416-3.051,2.629
	s-1.76,0.197-2.09,0s-2.83-1.721-3.357-2.014s-2.08-0.762-2.637-0.674c-0.556,0.088-1.996,1.699-2.431,1.992
	s-2.811,2.079-3.309,2.226s-3.293,0.352-3.902,0.146s-5.585-6.18-5.864-6.882c-0.279-0.703-0.265-7.205-0.265-7.205
	S3.162,9.982,3.25,9.309s1.552-2.46,1.992-2.958s3.424-2.236,4.042-2.408s4.51-1.281,5.184-1.442S23,2.5,23,2.5
	S26.844,2.754,27.654,3z"/>
<path fill="none" stroke="#000000" stroke-miterlimit="10" d="M13.371,19.219c0,0,3.795,2.097,4.129,2.712s-0.393,2.479,0,3.069
	s1.564,2.349,1.564,2.349s0.832,1.151,0.636,1.513"/>
<path fill="none" stroke="#000000" stroke-miterlimit="10" d="M12.358,25.943c0.263-0.322,1.142-1.494,1.874-1.758S17.5,25,17.5,25"
	/>
<path fill="none" stroke="#000000" stroke-miterlimit="10" d="M19.475,19.219c0,0-2.4,2.111-2.298,2.5"/>
<g>
</g>
<g>
</g>
<g>
</g>
<g>
</g>
<g>
</g>
<g>
</g>
<g>
</g>
<g>
</g>
<g>
</g>
<g>
</g>
<g>
</g>
<g>
</g>
<g>
</g>
<g>
</g>
<g>
</g>
</svg>
