<?xml version="1.0" encoding="utf-8"?>
<!-- Generator: Adobe Illustrator 16.0.0, SVG Export Plug-In . SVG Version: 6.00 Build 0)  -->
<!DOCTYPE svg PUBLIC "-//W3C//DTD SVG 1.1//EN" "http://www.w3.org/Graphics/SVG/1.1/DTD/svg11.dtd">
<svg version="1.1" id="Слой_1" xmlns="http://www.w3.org/2000/svg" xmlns:xlink="http://www.w3.org/1999/xlink" x="0px" y="0px"
	 width="42px" height="42px" viewBox="0 0 42 42" enable-background="new 0 0 42 42" xml:space="preserve">
<path fill="#F2F2C2" stroke="#000000" stroke-miterlimit="10" d="M18.789,37.791c0.141,0.035,4.59,0.212,5.209,0.063
	c0.618-0.148,5.896-5.19,6.398-5.794c0.504-0.604,1.683-5.174,1.683-5.174l2.394-6.383l0.598-2.15c0,0,0.211-8.086,0.174-8.684
	c-0.036-0.598-2.436-3.988-2.436-3.988s-2.543-2.506-2.648-2.506c-0.106,0-2.402-1.023-3.196-0.953s-3.337,1.906-3.337,1.906
	s-1.307,1.2-2.012,1.342c-0.706,0.142-2.93-0.706-2.93-0.706s-1.934-1.518-2.331-1.659S14.659,2.47,13.988,2.47
	s-1.659,0.847-2.259,1.447S10.281,8.33,10.281,8.33l-1.061,3.002c0,0-2.371,2.576-2.721,3.389S6.5,21,6.5,21s0.18,4.737,0.321,5.69
	s1.482,3.46,1.871,4.166s4.202,3.884,4.202,3.884L18.789,37.791z"/>
<path fill="none" stroke="#000000" stroke-miterlimit="10" d="M10.952,17.546c0.176-0.035,4.484-2.931,4.484-2.931l0.212-2.719
	c0,0,2.146,0.014,2.613-0.424s0.353-1.659,0.847-2.365s2.542-1.836,2.542-1.836"/>
<path fill="none" stroke="#000000" stroke-miterlimit="10" d="M24.651,11.332c0,0-2.718,0.529-3.672,0.494s-2.547-1.467-2.547-1.467
	l-4.797,0.671"/>
<path fill="none" stroke="#000000" stroke-miterlimit="10" d="M20.797,15.533c0,0-1.618,1.73-2.324,2.013s-1.166-0.389-1.872-0.813
	s-1.112-2.796-1.112-2.796"/>
<path fill="none" stroke="#000000" stroke-miterlimit="10" d="M26.84,9.602c0.106-0.035,1.13-1.129,1.66-1.659
	c0.529-0.53,0.953-1.729,1.059-2.507c0.106-0.777-0.918-2.613-0.918-2.613"/>
<g>
</g>
<g>
</g>
<g>
</g>
<g>
</g>
<g>
</g>
<g>
</g>
<g>
</g>
<g>
</g>
<g>
</g>
<g>
</g>
<g>
</g>
<g>
</g>
<g>
</g>
<g>
</g>
<g>
</g>
</svg>
