<?xml version="1.0" encoding="utf-8"?>
<!-- Generator: Adobe Illustrator 16.0.0, SVG Export Plug-In . SVG Version: 6.00 Build 0)  -->
<!DOCTYPE svg PUBLIC "-//W3C//DTD SVG 1.1//EN" "http://www.w3.org/Graphics/SVG/1.1/DTD/svg11.dtd">
<svg version="1.1" id="Слой_1" xmlns="http://www.w3.org/2000/svg" xmlns:xlink="http://www.w3.org/1999/xlink" x="0px" y="0px"
	 width="42px" height="42px" viewBox="0 0 42 42" enable-background="new 0 0 42 42" xml:space="preserve">
<path fill="#F2F2C2" stroke="#000000" stroke-miterlimit="10" d="M8.603,32.532c-0.697-0.499-2.855-6.183-2.855-6.323
	c0,0-0.565-5.013-0.475-5.861s1.271-2.647,2.005-3.284s2.136-0.955,2.547-1.096s0.675-1.377,0.675-1.377s-0.16-2.875,0-3.591
	s2.031-3.116,2.667-3.435s2.613-0.459,2.613-0.459s2.472,0.177,3.178,0.459s2.789,2.612,2.895,2.647s0.742,0.778,1.412,0.742
	c0.672-0.036,1.836-0.918,1.836-0.918s1.766-2.049,2.26-2.331s2.225-0.353,2.33-0.353c0.106,0,2.684-0.001,3.143,0.388
	s2.297,4.361,2.366,5.155s0.706,7.98,0.671,8.121s-1.449,5.35-1.73,5.86s-2.426,4.77-2.895,5.084
	c-0.47,0.314-3.461,2.084-3.955,2.366s-6.991,0.493-7.097,0.6s-7.768-0.564-7.203-0.353S9.299,33.031,8.603,32.532z"/>
<path fill="none" stroke="#000000" stroke-miterlimit="10" d="M10.5,23c0,0-0.513-1.347,0-2s5.208-0.477,5.42-0.583
	s2.754-1.906,2.754-1.906s0.388-1.484,0.918-1.872s1.801-0.423,1.801-0.423s1.2-0.459,1.553-1.095s-0.671-2.896-0.671-2.896
	l-0.423-2.013"/>
<path fill="none" stroke="#000000" stroke-miterlimit="10" d="M19.486,23.171c0,0-1.377-0.177-1.836-0.424s0.389-1.554,0.177-2.083
	s-1.104-0.785-1.104-0.785"/>
<path fill="none" stroke="#000000" stroke-miterlimit="10" d="M15.92,13.885c0,0.106,0.193,1.377,0.803,1.554
	s1.493-0.494,2.128-0.317s0.379,2.256,0.379,2.256"/>
<g>
</g>
<g>
</g>
<g>
</g>
<g>
</g>
<g>
</g>
<g>
</g>
<g>
</g>
<g>
</g>
<g>
</g>
<g>
</g>
<g>
</g>
<g>
</g>
<g>
</g>
<g>
</g>
<g>
</g>
</svg>
