<?xml version="1.0" encoding="utf-8"?>
<!-- Generator: Adobe Illustrator 16.0.0, SVG Export Plug-In . SVG Version: 6.00 Build 0)  -->
<!DOCTYPE svg PUBLIC "-//W3C//DTD SVG 1.1//EN" "http://www.w3.org/Graphics/SVG/1.1/DTD/svg11.dtd">
<svg version="1.1" id="Слой_1" xmlns="http://www.w3.org/2000/svg" xmlns:xlink="http://www.w3.org/1999/xlink" x="0px" y="0px"
	 width="42px" height="42px" viewBox="0 0 42 42" enable-background="new 0 0 42 42" xml:space="preserve">
<path fill="#F2F2C2" stroke="#000000" stroke-miterlimit="10" d="M7.5,26v-8l5.021-6.649c0,0,1.695-5.05,2.119-5.473
	s2.26-1.165,2.931-1.2s3.213,0.989,3.213,0.989s2.119,1.2,2.718,1.2c0.601,0,2.578-1.695,2.578-1.695l5.26-0.212
	c0,0,2.684,5.326,2.684,5.541s0.918,14.691,0.918,14.832s-1.73,4.66-1.766,4.872s-2.471,4.872-2.471,4.872s-2.295,0.847-2.578,0.918
	c-0.281,0.071-8.085,0.07-8.191,0s-6.991-2.048-6.991-2.048L7.5,26z"/>
<path fill="none" stroke="#000000" stroke-miterlimit="10" d="M22.066,9.89c0.141-0.035,1.164,0.036,1.441,0.359
	S23.1,13.96,23.1,13.96l-2.023,2.737l-2.605,1.97c0,0-1.594,0.381-1.971,0.698s0,1.635,0,1.635"/>
<path fill="none" stroke="#000000" stroke-miterlimit="10" d="M21.878,21.166c0,0,0.036-2.083-0.423-2.719s-1.701-0.75-1.701-0.75"
	/>
<path fill="none" stroke="#000000" stroke-miterlimit="10" d="M19.124,13.61c0,0,0.448-1.061,0.63-1.378s1.629-0.247,2.124,0.212
	c0.495,0.459,1.011,1.8,1.011,1.8s1.355-0.883,1.92-1.006s1.554,0.16,1.554,0.16"/>
<g>
</g>
<g>
</g>
<g>
</g>
<g>
</g>
<g>
</g>
<g>
</g>
<g>
</g>
<g>
</g>
<g>
</g>
<g>
</g>
<g>
</g>
<g>
</g>
<g>
</g>
<g>
</g>
<g>
</g>
</svg>
