<?xml version="1.0" encoding="utf-8"?>
<!-- Generator: Adobe Illustrator 16.0.0, SVG Export Plug-In . SVG Version: 6.00 Build 0)  -->
<!DOCTYPE svg PUBLIC "-//W3C//DTD SVG 1.1//EN" "http://www.w3.org/Graphics/SVG/1.1/DTD/svg11.dtd">
<svg version="1.1" id="Слой_1" xmlns="http://www.w3.org/2000/svg" xmlns:xlink="http://www.w3.org/1999/xlink" x="0px" y="0px"
	 width="42px" height="42px" viewBox="0 0 42 42" enable-background="new 0 0 42 42" xml:space="preserve">
<path fill="#F2F2C2" stroke="#000000" stroke-miterlimit="10" d="M30.047,10.969c0,0-0.013-0.268-0.131-0.579
	c-0.119-0.312-2.736-3.385-3.255-3.822s-2.298-0.814-3.038-0.728c-0.739,0.087-2.21,1.018-2.886,1.134s-3.404-1.048-4.193-0.698
	s-3.928,4.481-4.191,5.528s-0.319,14.081-0.146,14.925s1.804,3.902,2.24,4.628s3.316,2.624,4.102,3.144s4.852,0.12,5.451,0
	s3.219-1.575,3.713-2.099c0.495-0.523,1.717-3.985,1.949-4.858C29.998,26.287,30.027,26.927,30.047,10.969z"/>
<path fill="none" stroke="#000000" stroke-miterlimit="10" d="M25,11.5c0,0-1.363,0.319-2,0s-0.99-1.485-1.025-2.085
	s-1.237-2.441-1.237-2.441"/>
<path fill="none" stroke="#000000" stroke-miterlimit="10" d="M22.61,13.229c0,0,0.03-1.959,0.333-1.844"/>
<g>
</g>
<g>
</g>
<g>
</g>
<g>
</g>
<g>
</g>
<g>
</g>
<g>
</g>
<g>
</g>
<g>
</g>
<g>
</g>
<g>
</g>
<g>
</g>
<g>
</g>
<g>
</g>
<g>
</g>
</svg>
