<?xml version="1.0" encoding="utf-8"?>
<!-- Generator: Adobe Illustrator 16.0.0, SVG Export Plug-In . SVG Version: 6.00 Build 0)  -->
<!DOCTYPE svg PUBLIC "-//W3C//DTD SVG 1.1//EN" "http://www.w3.org/Graphics/SVG/1.1/DTD/svg11.dtd">
<svg version="1.1" id="Слой_1" xmlns="http://www.w3.org/2000/svg" xmlns:xlink="http://www.w3.org/1999/xlink" x="0px" y="0px"
	 width="42px" height="42px" viewBox="0 0 42 42" enable-background="new 0 0 42 42" xml:space="preserve">
<path fill="#F2F2C2" stroke="#000000" stroke-miterlimit="10" d="M13.595,34.622c0,0-0.699,0.262-1.92-0.32
	s-5.091-8.351-5.499-9.514s-0.495-9.514-0.233-10.59s3.055-6.343,3.986-6.896s6.459,0,6.459,0s9.194-0.932,10.271-0.291
	s3.84,3.551,4.189,4.452c0.349,0.901-0.466,3.636-0.146,4.393c0.32,0.757,4.889,4.132,5.383,4.771s0.291,5.732,0,6.75
	s-2.996,4.451-3.782,4.888s-8.233,1.949-8.233,1.949L13.595,34.622z"/>
<path fill="none" stroke="#000000" stroke-miterlimit="10" d="M22.963,9.34c0,0-2.793,2.298-3.404,2.88s-0.931,3.579-0.931,3.579
	s3.521,1.396,4.103,1.832c0.581,0.437,1.949,3.104,1.949,3.104l5.673,2.163"/>
<line fill="none" stroke="#000000" stroke-miterlimit="10" x1="16.3" y1="10.184" x2="19.706" y2="12.096"/>
<path fill="none" stroke="#000000" stroke-miterlimit="10" d="M15.573,17.515c0,0-0.203-0.697,0.262-1.163s3.871-0.071,3.871-0.071"
	/>
<path fill="none" stroke="#000000" stroke-miterlimit="10" d="M25.552,14.751c0,0-0.232,1.08-0.437,1.529
	c-0.203,0.449-2.646,1.234-2.646,1.234"/>
<line fill="none" stroke="#000000" stroke-miterlimit="10" x1="22.47" y1="24.119" x2="24.824" y2="20.734"/>
<g>
</g>
<g>
</g>
<g>
</g>
<g>
</g>
<g>
</g>
<g>
</g>
<g>
</g>
<g>
</g>
<g>
</g>
<g>
</g>
<g>
</g>
<g>
</g>
<g>
</g>
<g>
</g>
<g>
</g>
</svg>
