<?xml version="1.0" encoding="utf-8"?>
<!-- Generator: Adobe Illustrator 16.0.0, SVG Export Plug-In . SVG Version: 6.00 Build 0)  -->
<!DOCTYPE svg PUBLIC "-//W3C//DTD SVG 1.1//EN" "http://www.w3.org/Graphics/SVG/1.1/DTD/svg11.dtd">
<svg version="1.1" id="Слой_1" xmlns="http://www.w3.org/2000/svg" xmlns:xlink="http://www.w3.org/1999/xlink" x="0px" y="0px"
	 width="288px" height="432px" viewBox="0 0 288 432" enable-background="new 0 0 288 432" xml:space="preserve">
<path fill="#BD7581" d="M5.781,199.49l1.567-6.668l2.303-5.82c0,0,2.531-5.809,2.531-6.637s1.68-5.251,1.68-6.08
	s0.841-5.801,1.116-6.629c0.277-0.829,1.662-8.561,1.662-8.561l3.869-18.5c0,0,2.486-13.53,2.486-14.359s3.59-16.567,3.59-16.567
	l4.419-16.567l4.142-13.806c0,0,9.112-17.396,9.389-18.224c0.275-0.828,9.111-16.566,9.111-16.566l11.32-12.978l10.769-10.492
	l10.216-6.903l11.045-4.12L111.354,7H121h13h13h16l18.486,1.31l7.18,2.912l10.768,3.803l9.389,5.215c0,0,8.283,5.783,8.836,7.164
	c0.552,1.38,9.387,8.828,9.387,8.828s6.904,7.451,7.18,8.556s9.111,15.736,9.111,16.841s6.903,16.014,7.455,17.395
	c0.553,1.38,8.283,20.708,8.836,21.536s2.762,11.044,2.762,11.044s3.313,19.604,3.313,20.708s4.143,20.708,4.694,21.813
	c1.603,3.208,0.981,3.465,2.761,13.253c0,0,3.037,13.806,3.59,14.91s4.97,9.665,4.97,10.493s1.657,10.768,2.209,12.425
	c0.552,1.656-1.104,13.529-1.104,14.357s-3.037,14.357-3.037,14.357l-4.971,16.291l-4.141,14.358c0,0-5.247,14.082-4.971,14.91
	s-3.59,19.88-3.59,19.88l-2.484,13.529c0,0-3.037,10.769-3.037,11.873s-3.037,14.91-3.037,14.91l-3.59,9.94l-7.455,15.462
	c0,0-7.455,9.94-7.73,10.769c-0.277,0.828-11.045,10.769-11.045,10.769l-9.94,6.074l-11.044,10.492l-16.016,10.492l-18.499,6.903
	l-15.462,3.313l-22.918-1.104l-17.395-3.59l-13.807-6.627l-10.492-7.179l-11.873-10.769l-15.186-11.597l-11.32-10.216l-9.94-20.709
	l-6.075-16.566l-2.761-16.015l-3.865-17.671l-3.59-16.844l-4.97-17.395L14.438,255.5L11.4,242.756L8.64,232.54l-2.858-12.701
	L4,209.967V205L5.781,199.49z"/>
<circle fill="#863341" stroke="#7C4946" stroke-miterlimit="10" cx="144.479" cy="224.509" r="30.529"/>
<path fill="#D8972B" stroke="#A45442" stroke-miterlimit="10" d="M198.096,201.451c-0.209,0.835-1.666,4.499-2.083,5.126
	c-0.417,0.626-1.042,2.433-1.251,3.333s0.629,4.48,0.002,5.316s0.976,2.521-0.034,4.192s-1.218,3.142-1.218,4.186
	s1.045,5.018,1.045,5.018l5.432,3.554l4.178,1.045l5.433-1.044c0,0,0.159-2.925,0.368-3.552s-0.467-5.432-0.467-5.432V217
	c0,0,2.313-2.791,1.5-3.417s-1.315-4.806-1.315-4.806l-1.088-3.76c-1.671-1.881-3.573-3.566-3.573-3.566l-1.932-1.03
	L198.096,201.451z"/>
<path fill="#D8972B" stroke="#A45442" stroke-miterlimit="10" d="M90.478,202.093c0.418,0.836,2.315,3.552,2.942,4.179
	s1.681,2.377,1.681,3.695s0.214,2.989,0.005,3.825s0.188,3.343,0.095,3.97s-0.021,3.76-0.021,3.76l1.32,2.987V228
	c0,0-3.688,6.057-4.732,6.893c-1.045,0.836-8.357,2.508-9.611,2.717c-1.253,0.209-7.521-7.521-8.147-9.193
	c-0.626-1.671,1.045-11.596,1.045-11.596l4.597-7.834l4.387-5.014L90.478,202.093z"/>
<path fill="none" stroke="#A45442" stroke-miterlimit="10" d="M89.804,214.75c0,0,0.204,0.716,0.341,1.091s0.852,1.67,0.852,1.67
	s0.682,0.647,0.784,0.749c0.103,0.103,0.784,0.375,0.886,0.375s0.716-0.067,0.852,0c0.137,0.068,0.307,0.035,0.478,0
	c0.171-0.033,1.169-0.311,1.169-0.311"/>
<path fill="none" stroke="#A45442" stroke-miterlimit="10" d="M87.203,221.057c0,0.102-0.097,1.498-0.063,1.601
	s0.074,1.142-0.047,1.245c-0.121,0.102-0.527,0.598-0.629,0.598c-0.104,0-0.465,0-0.465,0s-0.699-0.516-0.816-0.549
	c-0.116-0.034-0.764,0.204-0.764,0.204s-0.375,0.579-0.375,0.682s-0.205,0.92-0.205,0.92s-0.511,0.579-0.613,0.682
	c-0.102,0.103-0.477,0.546-0.682,0.478"/>
<path fill="none" stroke="#A45442" stroke-miterlimit="10" d="M90.724,212.672c0,0,0.987-0.238,1.091-0.238
	c0.102,0,0.816,0.033,0.953,0c0.137-0.034,0.852,0,0.955,0.119c0.102,0.119,0.682,0.392,0.783,0.527
	c0.103,0.137,0.621,0.601,0.621,0.601l0.037,0.388"/>
<path fill="none" stroke="#A45442" stroke-miterlimit="10" d="M91.644,224.803l0.841-0.477c0,0,0.33-0.342,0.46-0.546
	s0.403-0.749,0.438-0.852s0.307-0.853,0.409-0.886c0.102-0.034,0.511-0.342,0.511-0.342l0.478-0.17l0.4-0.01"/>
<path fill="none" stroke="#A45442" stroke-miterlimit="10" d="M85.34,214.068l0.341,1.227l0.545,0.955c0,0,0.341,0.579,0.409,0.715
	c0.068,0.137,0.568,0.818,0.568,0.818l0.557,0.341"/>
<path fill="none" stroke="#A45442" stroke-miterlimit="10" d="M206.657,226.813c0,0-0.749,0.102-0.886,0
	c-0.136-0.102-0.271-0.307-0.271-0.511s0-0.647,0-0.886s-0.001-0.546-0.239-0.648c-0.238-0.102-0.751-0.144-0.921-0.259
	s-0.443-0.252-0.647-0.184s-0.852,0.184-0.852,0.184c-0.442-0.048-0.784-0.354-0.784-0.354s0.171-0.271,0-0.613
	c-0.17-0.34-0.067-0.715,0-0.886c0.068-0.171,0.068-0.613,0.068-0.613l-0.161-0.647"/>
<path fill="none" stroke="#A45442" stroke-miterlimit="10" d="M198.744,221.686l0.14-1.116c0,0-0.1-0.269-0.134-0.405
	s-0.323-0.578-0.527-0.543c-0.205,0.033-0.566,0.291-0.566,0.291c-0.271-0.307-0.156-1.141-0.156-1.141V218l-0.861-0.5H196
	l-0.451,0.658c-0.205,0.203-0.617,0.828-0.617,0.828"/>
<path fill="none" stroke="#A45442" stroke-miterlimit="10" d="M194.932,210.389c0,0,0.105,0.812,0.174,0.913
	c0.068,0.103,0.613,0.198,0.613,0.198h0.682c0,0,0.307,0.654,0.272,0.756c-0.034,0.103-0.238,0.498-0.238,0.668
	s0.468,0.702,0.473,0.736c0.005,0.033,0.55,0,0.55,0l0.579,0.015"/>
<path fill="none" stroke="#A45442" stroke-miterlimit="10" d="M201.578,219.518l0.443-0.68l0.423-0.236l0.567-0.102H204l0,0h1
	c0,0,0.362,0.324,0.396,0.451s0.307,0.299,0.375,0.451s0.477,0.574,0.545,0.71c0.068,0.137,0.341,0.388,0.341,0.388H207h1"/>
<path fill="#CD7884" stroke="#7C4946" stroke-linecap="round" stroke-linejoin="round" stroke-miterlimit="10" d="M81.66,235.541
	c-0.603-0.904-2.16-6.934-2.16-6.934s-0.315-5.373,0-6.607s4.295-6.646,4.295-6.646l3.84-7.387l2.61-4.486l3.651-4.693l3.346-2.762
	l3.328-2.761l3.873-2.485l3.87-1.416l3.593-0.863c0,0,5.287-0.384,7.094,0s5.332,3.056,5.332,3.056l3.313,3.616l3.313,6.501
	l3.865,6.356c0,0,1.648,4.078,2.484,5.146c0.837,1.068,3.59,2.746,3.59,2.746s3.273,1.266,4.143,1.373s3.1-1.238,4.417-1.938
	s2.517-2.902,3.313-4.045s1.688-2.481,2.485-3.346s2.761-5.59,2.761-5.59l1.656-4.418c0,0,0.83-2.071,2.209-3.037
	c1.38-0.966,2.762-1.934,2.762-1.934c2.762-1.656,5.074-2.831,6.627-3.313c1.552-0.481,4.058-0.469,5.521-0.553
	c1.465-0.084,3.628,0.446,4.694,0.828s3.313,2.484,3.313,2.484l3.037,3.038l3.313,2.485l3.037,2.484c0,0,2.761,2.484,3.313,3.313
	s2.762,4.21,2.762,4.21s1.656,4.35,2.484,4.625c0.828,0.277,2.762,3.59,2.762,3.59l1.656,3.313c0.553,2.761-0.553,5.247,0,6.075
	s0.469,1.381-0.519,2.761s-0.165,2.995-0.147,4.418s-0.754,2.987,0,4.251s3.209,1.518,4.031,1.823s3.497-0.044,4.115,1.657
	c0.619,1.701,1.301,3.161,1.506,4.141c0.206,0.979,0.973,4.789,1.443,5.746s1.664,4.155,2.824,4.633c1.159,0.478,2.58,0.5,2.58,0.5
	h7h3c0,0,3.066,0.006,4-0.5s1.547-2.089,2-3.777S238.5,246,238.5,246v-3c0,0,0.924-3.624,1-4.453c0.076-0.828,0.637-0.939,0.5-4.142
	s-0.885-4.048-1.331-5.246s-0.151-3.037-0.151-3.037c-0.552-2.761-0.766-5.622-0.766-5.622s-0.535-6.797-0.521-10.945
	c0.016-4.148,3.287-17.119,3.287-17.119s2.195-12.151,2.812-14.357s3.317-11.873,3.317-11.873s1.578-3.872,1.935-7.455
	s-0.548-6.33-1.379-8.284c-0.832-1.954-2.862-9.973-3.865-12.977s-10.216-18.5-10.216-18.5s-6.352-10.493-6.627-11.321
	c-0.276-0.828-9.791-13.92-11.598-16.015c-1.806-2.094-28.28-17.804-29.82-18.619c-1.539-0.814-15.738-4.221-18.447-4.536
	s-21.091,0.313-22.629,0s-15.018-3.106-16.631-2.852s-15.599,2.417-17.395,2.787c-1.797,0.371-10.184,3.798-12.149,4.569
	s-9.843,5.512-11.045,6.564s-10.019,8.704-10.769,10.185c-0.749,1.481-5.799,10.476-6.627,11.857s-5.798,9.104-5.798,9.104
	l-5.522,10.212c0,0-6.074,8.557-6.351,9.938s-1.38,9.111-1.656,10.492s-4.45,5.82-4.97,6.902c-0.521,1.082-0.742,4.646-1.105,5.246
	s-1.485,2.393-1.932,3.589c-0.447,1.196,1.932,8.007,1.932,8.007l1.105,7.179l3.037,12.978l1.104,7.731l1.105,9.111l0.552,8.008
	c0,0,0.591,15.143,0.552,16.291c-0.037,1.148-2.761,7.73-2.761,7.73s-1.38,5.247-1.38,6.075s-0.829,5.246-0.829,5.246
	s-1.104,2.484-1.104,3.313c0,0.828,0,2.847,0.553,4.736c0.552,1.89,3.313,5.755,4.418,6.308c1.104,0.553,6.234,1.433,7.455,1.381
	c1.219-0.052,7.178-2.485,7.178-2.485s5.031-1.295,5.799-1.656s5.77-2.715,4.694-2.209s2.894-0.486,4.142-1.338
	c0.806-0.549,2.066-2.591,2.859-3.971c0.436-0.76,0.73-1.318,0.73-1.318s1.307-2.818,1.656-4.418s-0.281-3.31-1.078-4.693
	S82.262,236.445,81.66,235.541z"/>
<polyline fill="none" stroke="#7C4946" stroke-linecap="round" stroke-linejoin="round" stroke-miterlimit="10" points="
	77.277,248.278 72.616,244.408 69.24,240.07 67.553,235.917 66.213,231.124 65.5,224.509 65.5,219 65.5,213 67.955,206.693 
	70.044,200.426 71.389,196.456 73.178,193.113 75.685,189.979 77.277,187.682 "/>
<line fill="none" stroke="#7C4946" stroke-linecap="round" stroke-linejoin="round" stroke-miterlimit="10" x1="79.445" y1="184.965" x2="81.534" y2="182.876"/>
<line fill="none" stroke="#7C4946" stroke-linecap="round" stroke-linejoin="round" stroke-miterlimit="10" x1="84.041" y1="180.996" x2="85.922" y2="179.951"/>
<line fill="none" stroke="#7C4946" stroke-linecap="round" stroke-linejoin="round" stroke-miterlimit="10" x1="88.22" y1="178.071" x2="90.727" y2="176.817"/>
<line fill="none" stroke="#7C4946" stroke-linecap="round" stroke-linejoin="round" stroke-miterlimit="10" x1="92.607" y1="175.355" x2="95.323" y2="173.684"/>
<line fill="none" stroke="#7C4946" stroke-linecap="round" stroke-linejoin="round" stroke-miterlimit="10" x1="100.129" y1="172.012" x2="103.68" y2="170.759"/>
<line fill="none" stroke="#7C4946" stroke-linecap="round" stroke-linejoin="round" stroke-miterlimit="10" x1="107" y1="169.5" x2="110" y2="169.5"/>
<path fill="none" stroke="#7C4946" stroke-linecap="round" stroke-linejoin="round" stroke-miterlimit="10" d="M113.949,169.5
	c-0.032,0.005,2.893-1.04,2.893-1.04"/>
<line fill="none" stroke="#7C4946" stroke-linecap="round" stroke-linejoin="round" stroke-miterlimit="10" x1="121" y1="168.5" x2="124" y2="168.5"/>
<line fill="none" stroke="#7C4946" stroke-linecap="round" stroke-linejoin="round" stroke-miterlimit="10" x1="127.079" y1="168.98" x2="130.004" y2="169.5"/>
<line fill="none" stroke="#7C4946" stroke-linecap="round" stroke-linejoin="round" stroke-miterlimit="10" x1="133.347" y1="171.386" x2="135.854" y2="172.012"/>
<line fill="none" stroke="#7C4946" stroke-linecap="round" stroke-linejoin="round" stroke-miterlimit="10" x1="142.121" y1="174.52" x2="140.032" y2="173.684"/>
<line fill="none" stroke="#7C4946" stroke-linecap="round" stroke-linejoin="round" stroke-miterlimit="10" x1="144" y1="175.5" x2="148" y2="175.5"/>
<line fill="none" stroke="#7C4946" stroke-linecap="round" stroke-linejoin="round" stroke-miterlimit="10" x1="149.434" y1="173.684" x2="151.941" y2="172.012"/>
<line fill="none" stroke="#7C4946" stroke-linecap="round" stroke-linejoin="round" stroke-miterlimit="10" x1="154.656" y1="171.386" x2="156.746" y2="170.759"/>
<line fill="none" stroke="#7C4946" stroke-linecap="round" stroke-linejoin="round" stroke-miterlimit="10" x1="159" y1="169.5" x2="162" y2="169.5"/>
<line fill="none" stroke="#7C4946" stroke-linecap="round" stroke-linejoin="round" stroke-miterlimit="10" x1="165.312" y1="168.46" x2="168.654" y2="168.5"/>
<line fill="none" stroke="#7C4946" stroke-linecap="round" stroke-linejoin="round" stroke-miterlimit="10" x1="173" y1="168.5" x2="175" y2="168.5"/>
<line fill="none" stroke="#7C4946" stroke-linecap="round" stroke-linejoin="round" stroke-miterlimit="10" x1="179.727" y1="169.5" x2="182.234" y2="170.759"/>
<line fill="none" stroke="#7C4946" stroke-linecap="round" stroke-linejoin="round" stroke-miterlimit="10" x1="185.786" y1="170.759" x2="188.084" y2="172.012"/>
<line fill="none" stroke="#7C4946" stroke-linecap="round" stroke-linejoin="round" stroke-miterlimit="10" x1="192.263" y1="173.684" x2="195.188" y2="175.355"/>
<path fill="none" stroke="#7C4946" stroke-linecap="round" stroke-linejoin="round" stroke-miterlimit="10" d="M198.739,177.444
	c0.626,0.418,1.88-0.209,2.507,0.626"/>
<line fill="none" stroke="#7C4946" stroke-linecap="round" stroke-linejoin="round" stroke-miterlimit="10" x1="203.962" y1="180.996" x2="206.26" y2="182.876"/>
<line fill="none" stroke="#7C4946" stroke-linecap="round" stroke-linejoin="round" stroke-miterlimit="10" x1="207.514" y1="184.965" x2="209.604" y2="186.428"/>
<path fill="none" stroke="#7C4946" stroke-linecap="round" stroke-linejoin="round" stroke-miterlimit="10" d="M212.5,190.363
	l2.625,3.808l2.254,4.052l1.857,2.877l1.632,4.571c0,0,1.632,3.182,1.632,4.295s0,11.033,0,11.033v6l-1.197,7.688l-2.09,3.761
	l-3.133,3.343l-1.02,0.778"/>
<polyline fill="none" stroke="#7C4946" stroke-linecap="round" stroke-linejoin="round" stroke-miterlimit="10" points="
	81.655,169.064 84.041,167.5 87,167.5 89.474,168.46 92.607,168.5 93.965,167.5 "/>
<path fill="none" stroke="#7C4946" stroke-linecap="round" stroke-linejoin="round" stroke-miterlimit="10" d="M95.371,160.246
	c0.836,0,4.758,1.254,4.758,1.254H102"/>
<polyline fill="none" stroke="#7C4946" stroke-linecap="round" stroke-linejoin="round" stroke-miterlimit="10" points="
	90.775,153.563 93.989,152.342 96.38,152.921 98.686,153.5 102,153.5 "/>
<path fill="none" stroke="#7C4946" stroke-linecap="round" stroke-linejoin="round" stroke-miterlimit="10" d="M107,157.806
	c0.858-0.209,2.426,0,3,0s3.98-0.836,3.949,0c-0.032,0.836,1.446,0.836,1.446,0.836c2.491-0.836,3.954-2.298,3.954-2.298"/>
<path fill="none" stroke="#7C4946" stroke-linecap="round" stroke-linejoin="round" stroke-miterlimit="10" d="M107,144.435
	c-0.186,0,2.844-1.045,3,0s2.037,2.089,2.037,2.089c2.507-0.209,3.358-1.277,3.358-1.277"/>
<path fill="none" stroke="#7C4946" stroke-linecap="round" stroke-linejoin="round" stroke-miterlimit="10" d="M94,139.5h3
	l3.129-0.706c1.671-1.044,3.551,0,3.551,0l2.299,0.706l2.521-0.585l1.5-0.585"/>
<polyline fill="none" stroke="#7C4946" stroke-linecap="round" stroke-linejoin="round" stroke-miterlimit="10" points="
	98.596,130.418 100.129,129.5 104,129.5 105.77,130.5 108,130.5 "/>
<path fill="none" stroke="#7C4946" stroke-linecap="round" stroke-linejoin="round" stroke-miterlimit="10" d="M83.805,158.798
	c0.627-0.627,3.162-2.298,3.162-2.298H89"/>
<path fill="none" stroke="#7C4946" stroke-linecap="round" stroke-linejoin="round" stroke-miterlimit="10" d="M127,162.5h3
	c0,0,0.422-0.738,1.467,0s1.88,0,1.88,0l2.507-0.328"/>
<path fill="none" stroke="#7C4946" stroke-linecap="round" stroke-linejoin="round" stroke-miterlimit="10" d="M133.347,156.5
	l3.97,1.149c2.089-1.097,3.761-1.306,3.761-1.306s2.712-1.044,2.923-0.835"/>
<path fill="none" stroke="#7C4946" stroke-linecap="round" stroke-linejoin="round" stroke-miterlimit="10" d="M127.079,143.97
	c0,0,1.671-2.042,2.925-1.625s2.298,2.878,3.343,2.901s2.925,0.186,3.552,0s3.134-1.277,3.134-1.277"/>
<path fill="none" stroke="#7C4946" stroke-linecap="round" stroke-linejoin="round" stroke-miterlimit="10" d="M131,136.5h4
	c0,0,1.271,1.783,1.898,1.83s3.134,0,3.134,0l2.089-0.904"/>
<path fill="none" stroke="#7C4946" stroke-linecap="round" stroke-linejoin="round" stroke-miterlimit="10" d="M118.305,134.198
	c0.627,0.209,2.695,1.462,2.695,1.462l3-0.731"/>
<polyline fill="none" stroke="#7C4946" stroke-linecap="round" stroke-linejoin="round" stroke-miterlimit="10" points="
	124,125.214 125.826,126.05 128.541,127.512 "/>
<polyline fill="none" stroke="#7C4946" stroke-linecap="round" stroke-linejoin="round" stroke-miterlimit="10" points="
	109.848,118.656 111.117,120.391 115.396,121.5 118,121.5 "/>
<path fill="none" stroke="#7C4946" stroke-linecap="round" stroke-linejoin="round" stroke-miterlimit="10" d="M122,118.5h4
	c0,0,2.332-0.446,2.541,0s1.992,1.457,2.459,1.578s2.347,0,2.347,0"/>
<path fill="none" stroke="#7C4946" stroke-linecap="round" stroke-linejoin="round" stroke-miterlimit="10" d="M151.941,119.217
	c0.835,0.565,1.671,0.062,2.715,0c1.045-0.062,4.344-0.916,4.344-0.916l1.5-1.026c0,0,2.723,0.172,3.141,1.026"/>
<path fill="none" stroke="#7C4946" stroke-linecap="round" stroke-linejoin="round" stroke-miterlimit="10" d="M154,134.5h3
	c0,0,0.703,0.302,2,0s3-0.302,3-0.302"/>
<path fill="none" stroke="#7C4946" stroke-linecap="round" stroke-linejoin="round" stroke-miterlimit="10" d="M148,145.247
	l3.941,0.088c0,0,1.193,0.307,2.059-0.088s2.746,0,2.746,0"/>
<polyline fill="none" stroke="#7C4946" stroke-linecap="round" stroke-linejoin="round" stroke-miterlimit="10" points="
	157.791,152.342 160.5,152.953 163.641,153.563 166.629,152.953 "/>
<path fill="none" stroke="#7C4946" stroke-linecap="round" stroke-linejoin="round" stroke-miterlimit="10" d="M151.941,162.172
	l2.715,0.328c0,0,2.3-1.066,3.344-1s1.623-0.904,2.5,0"/>
<path fill="none" stroke="#7C4946" stroke-linecap="round" stroke-linejoin="round" stroke-miterlimit="10" d="M169.908,158.642
	c0,0,3.05,1.329,3.092,1.604s-1.797-0.826-0.042-0.275s3.427-0.504,3.427-0.504l2.507-0.668"/>
<path fill="none" stroke="#7C4946" stroke-linecap="round" stroke-linejoin="round" stroke-miterlimit="10" d="M174.399,146.524
	c0,0,1.149,1.253,1.776,1.671s2.716,0,2.716,0l2.089,0.186l1.254-0.928"/>
<path fill="none" stroke="#7C4946" stroke-linecap="round" stroke-linejoin="round" stroke-miterlimit="10" d="M184.115,135.66
	c0,0,2.567-0.349,2.82,0c1.357,1.88,2.101,2.786,2.82,2.669c2.298-0.372,5.432-0.904,5.432-0.904"/>
<path fill="none" stroke="#7C4946" stroke-linecap="round" stroke-linejoin="round" stroke-miterlimit="10" d="M168.654,120.078
	c0,0,2.09,1.468,2.717,1.422c0.626-0.046,2.629,0,2.629,0l2.594-0.71l2.298-0.657"/>
<path fill="none" stroke="#7C4946" stroke-linecap="round" stroke-linejoin="round" stroke-miterlimit="10" d="M169.908,135.66
	c3.092-0.155,3.092-0.155,3.092-0.155l2,0.155"/>
<path fill="none" stroke="#7C4946" stroke-linecap="round" stroke-linejoin="round" stroke-miterlimit="10" d="M173,135.505"/>
<path fill="none" stroke="#7C4946" stroke-linecap="round" stroke-linejoin="round" stroke-miterlimit="10" d="M158,127.512
	l2.5-1.149c2.305-0.313,4.603-0.209,4.812,0.574"/>
<path fill="none" stroke="#7C4946" stroke-linecap="round" stroke-linejoin="round" stroke-miterlimit="10" d="M115.396,111.216
	c0,0,1.882,1.044,2.604,1.462s3,0,3,0"/>
<path fill="none" stroke="#7C4946" stroke-linecap="round" stroke-linejoin="round" stroke-miterlimit="10" d="M193.744,165.745
	c0.627,0.836-0.219,1.212,1.453,1.755c1.671,0.543,3.129,1.021,3.547,0.782s2.502-0.782,2.502-0.782H204"/>
<path fill="none" stroke="#7C4946" stroke-linecap="round" stroke-linejoin="round" stroke-miterlimit="10" d="M188.084,152.342
	c0.627,0.241,1.881,0.949,2.508,1.222c0.626,0.273,2.925,0.354,3.133,0c0.209-0.354,1.672-0.659,2.299-0.611
	s3.134-0.647,2.716,0.118"/>
<path fill="none" stroke="#7C4946" stroke-linecap="round" stroke-linejoin="round" stroke-miterlimit="10" d="M199.992,157.649
	c0,0,2.299-1.49,3.135-1.084c0.835,0.405,3.133,0.927,3.133,0.927"/>
<path fill="none" stroke="#7C4946" stroke-linecap="round" stroke-linejoin="round" stroke-miterlimit="10" d="M186.936,160.291
	c0,0-0.105,1.546,1.148,1.515s2.298,0.045,2.925-0.306s2.735-1.209,2.735-1.209"/>
<path fill="#F9B4BA" stroke="#C88985" stroke-miterlimit="10" d="M64.5,250.296l2.092-4.661l2.902-4.334l3.38-4.469l4.363-3.719
	l4.333-3.121l4.912-2.377l5.648-1.93l6.09-1.391l6.387-0.795H113h9l9.179,1.496l4.453,1.977l3.414,1.211l4.453,0.383l4.603-0.477
	l3.859-0.758l5.195-1.883l6.383-1.949H170h6h6l8.259,1.348l8.907,2.125l6.234,2.844l7.273,4.836l4.156,4.274l4.156,5.477l1.93,4.742
	l1.188,6.358l-2.078,5.215l-1.781,4.748l-1.484,4.156l-1.336,2.82c0,0-1.93,3.266-2.078,3.711s-1.188,3.414-1.336,3.859
	s-2.523,5.344-2.523,5.344l-1.484,4.751l-3.266,6.68c0,0-1.633,4.305-1.781,4.75s-2.375,5.492-2.375,5.492l-2.078,5.642
	l-3.563,4.156l-3.117,3.414l-5.789,3.859l-5.345,2.523l-4.898,2.227c0,0-4.452,1.039-5.492,1.484
	c-1.039,0.445-6.383,1.633-7.125,1.633s-6.234,1.766-6.234,1.766l-6.234,1.766H145l-9.517-1.547l-11.579-0.992l-10.836-1.906
	l-8.016-4.219l-8.609-4.484l-7.126-6.102l-4.75-5.946l-4.156-6.535l-2.672-7.424l-2.079-6.829c0,0-2.82-6.088-2.969-6.682
	s-1.781-6.086-1.781-6.086l-1.93-5.047l-2.203-6.977l-2.277-6.829V250.296z"/>
<polyline fill="none" stroke="#C88985" stroke-miterlimit="10" points="140.5,245 140.5,241 140.5,237 140.5,235 139.046,232.363 
	137.562,229.988 135.632,226.723 "/>
<polyline fill="none" stroke="#C88985" stroke-miterlimit="10" points="147.5,245 147.5,240 147.5,236 148.992,232.363 
	150.328,229.691 151.961,227.316 "/>
<path fill="none" stroke="#C88985" stroke-width="5" stroke-miterlimit="10" d="M128.951,312.077"/>
<polyline fill="none" stroke="#C88985" stroke-width="3" stroke-miterlimit="10" points="129.74,311.34 128.854,312.273 
	130.649,310.406 "/>
<line fill="none" stroke="#C88985" stroke-width="3" stroke-miterlimit="10" x1="115" y1="311.5" x2="118" y2="311.5"/>
<line fill="none" stroke="#C88985" stroke-width="3" stroke-miterlimit="10" x1="120.979" y1="305.212" x2="123.588" y2="305.499"/>
<polyline fill="none" stroke="#C88985" stroke-width="3" stroke-miterlimit="10" points="127.567,302.284 129.907,302.5 130,302.5 
	131,302.5 "/>
<line fill="none" stroke="#C88985" stroke-width="3" stroke-miterlimit="10" x1="133" y1="301.5" x2="135" y2="301.5"/>
<line fill="none" stroke="#C88985" stroke-width="3" stroke-miterlimit="10" x1="123" y1="299.5" x2="126" y2="299.5"/>
<path fill="none" stroke="#C88985" stroke-width="3" stroke-miterlimit="10" d="M131.654,296.498c0.072,0,3.16,0.119,3.16,0.119"/>
<line fill="none" stroke="#C88985" stroke-width="3" stroke-miterlimit="10" x1="134.527" y1="291.686" x2="136.61" y2="291.446"/>
<line fill="none" stroke="#C88985" stroke-width="3" stroke-miterlimit="10" x1="128" y1="291.5" x2="131" y2="291.5"/>
<path fill="none" stroke="#C88985" stroke-width="3" stroke-miterlimit="10" d="M105.799,303.395c-0.047,0.071,2.777,0,2.777,0"/>
<polyline fill="none" stroke="#C88985" stroke-width="3" stroke-miterlimit="10" points="121.767,285.368 123.588,285.152 
	124.256,284.961 "/>
<line fill="none" stroke="#C88985" stroke-width="3" stroke-miterlimit="10" x1="131" y1="279.5" x2="134" y2="279.5"/>
<polyline fill="none" stroke="#C88985" stroke-width="3" stroke-miterlimit="10" points="121.6,277.761 124.09,277.426 
	124.545,277.114 "/>
<polyline fill="none" stroke="#C88985" stroke-width="3" stroke-miterlimit="10" points="113.987,270.627 115.447,269.071 
	117.314,267.419 "/>
<path fill="none" stroke="#C88985" stroke-width="3" stroke-miterlimit="10" d="M125.431,267.419c0,0,2.37,0.048,2.562,0"/>
<line fill="none" stroke="#C88985" stroke-width="3" stroke-miterlimit="10" x1="131.918" y1="267.419" x2="135.222" y2="267.658"/>
<path fill="none" stroke="#C88985" stroke-width="3" stroke-miterlimit="10" d="M120.428,263.589c0,0,2.201-0.263,2.297-0.287
	c0.097-0.024,1.82-1.029,1.82-1.029"/>
<polyline fill="none" stroke="#C88985" stroke-width="3" stroke-miterlimit="10" points="113.987,264.379 115.064,263.325 
	116.74,261.578 "/>
<polyline fill="none" stroke="#C88985" stroke-width="3" stroke-miterlimit="10" points="130.793,259.208 132.5,259.088 
	134.288,257.7 "/>
<path fill="none" stroke="#C88985" stroke-width="3" stroke-miterlimit="10" d="M123.229,259.088
	c0.096-0.048,1.676-0.766,1.676-0.766l1.316-0.79"/>
<path fill="none" stroke="#C88985" stroke-width="3" stroke-miterlimit="10" d="M115.651,254.731c0.155-0.071,1.4-0.646,1.4-0.646
	l1.867-1.054"/>
<path fill="none" stroke="#C88985" stroke-width="3" stroke-miterlimit="10" d="M107.619,255.736c0,0,1.077-0.838,1.174-0.885
	c0.096-0.049,1.986-1.629,1.986-1.629"/>
<path fill="none" stroke="#C88985" stroke-width="3" stroke-miterlimit="10" d="M125.551,252.48c0.071,0,1.34-0.238,1.412-0.238
	c0.071,0,2.178-1.221,2.178-1.221"/>
<path fill="none" stroke="#C88985" stroke-width="3" stroke-miterlimit="10" d="M119.518,250.326c0,0,1.316-0.383,1.412-0.383
	s2.143-0.789,2.143-0.789l0.658-0.527"/>
<path fill="none" stroke="#C88985" stroke-width="3" stroke-miterlimit="10" d="M124.018,245.225
	c0.072,0.049,1.509-0.383,1.533-0.358c0.023,0.024,1.795-1.125,1.795-1.125"/>
<path fill="none" stroke="#C88985" stroke-width="3" stroke-miterlimit="10" d="M130.793,243.478c0.023,0,0.91-0.144,0.91-0.144
	l1.053-0.526l0.981-0.909"/>
<path fill="none" stroke="#C88985" stroke-width="3" stroke-miterlimit="10" d="M118.919,240.652c0,0,0.886-0.574,0.958-0.598
	s0.67-0.455,0.766-0.503s0.766-0.671,0.766-0.671l0.504-0.574"/>
<path fill="none" stroke="#C88985" stroke-width="3" stroke-miterlimit="10" d="M127.801,235.123
	c0.144,0.023,0.957-0.359,1.053-0.359s0.646-0.287,0.646-0.287s0.719-0.455,0.79-0.502c0.071-0.049,0.813-0.551,0.813-0.551"/>
<path fill="none" stroke="#C88985" stroke-width="3" stroke-miterlimit="10" d="M118.057,231.867c0,0,1.055-0.525,1.15-0.574
	s0.813-0.407,0.813-0.407s0.718-0.575,0.79-0.599s0.813-0.622,0.813-0.622"/>
<path fill="none" stroke="#C88985" stroke-width="3" stroke-miterlimit="10" d="M152.724,238.906l1.245-0.767
	c0,0,0.598-0.335,0.67-0.407c0.072-0.071,0.957-1.102,0.957-1.102"/>
<path fill="none" stroke="#C88985" stroke-width="3" stroke-miterlimit="10" d="M153.969,247.955c0,0,0.934-0.503,1.029-0.503
	s1.076-0.622,1.076-0.622l0.742-0.791l0.551-0.574"/>
<path fill="none" stroke="#C88985" stroke-width="3" stroke-miterlimit="10" d="M153.969,255.5c0.238,0.188,1.627-0.723,1.627-0.723
	l1.245-1.269"/>
<path fill="none" stroke="#C88985" stroke-width="3" stroke-miterlimit="10" d="M170.151,246.039
	c0.048,0.096,1.101-0.383,1.101-0.383s0.934-1.102,1.029-1.102s1.054-1.077,1.054-1.077"/>
<path fill="none" stroke="#C88985" stroke-width="3" stroke-miterlimit="10" d="M165.028,251.282
	c0.096-0.071,1.005-0.694,1.149-0.767c0.143-0.071,1.005-0.598,1.005-0.598l0.813-0.623"/>
<path fill="none" stroke="#C88985" stroke-width="3" stroke-miterlimit="10" d="M171.492,253.892
	c0.119-0.024,0.766-0.431,0.885-0.503c0.12-0.071,0.671-0.622,0.767-0.693c0.096-0.072,0.742-1.006,0.742-1.006"/>
<path fill="none" stroke="#C88985" stroke-width="3" stroke-miterlimit="10" d="M169.074,259.926
	c0.096-0.048,1.365-0.862,1.365-0.862l1.053-0.694l0.67-0.454"/>
<polyline fill="none" stroke="#C88985" stroke-width="3" stroke-miterlimit="10" points="167.111,264.737 168.141,264.115 
	169.266,263.253 169.84,262.87 "/>
<path fill="none" stroke="#C88985" stroke-width="3" stroke-miterlimit="10" d="M159.811,264.33
	c0.071-0.096,1.029-0.766,1.029-0.766l0.789-0.694l0.479-0.551"/>
<path fill="none" stroke="#C88985" stroke-width="3" stroke-miterlimit="10" d="M160.049,270.507c0,0,0.575-0.599,0.646-0.646
	c0.072-0.048,0.646-0.622,0.646-0.622l0.574-0.551l0.479-0.335"/>
<path fill="none" stroke="#C88985" stroke-width="3" stroke-miterlimit="10" d="M160.245,280.562c0,0,0.811-0.599,0.812-0.646
	c0.001-0.049,0.602-0.419,0.674-0.491s0.77-0.587,0.77-0.587V278"/>
<path fill="none" stroke="#C88985" stroke-width="3" stroke-miterlimit="10" d="M190.094,282.716c0,0,0.527-0.479,0.623-0.526
	s0.598-0.599,0.598-0.599s0.695-0.814,0.742-0.886c0.049-0.071,0.623-0.526,0.623-0.526l0.526-0.144"/>
<path fill="none" stroke="#C88985" stroke-width="3" stroke-miterlimit="10" d="M196.424,275.722c0,0,0.786-0.167,0.882-0.142
	c0.096,0.023,0.812,0.079,0.884,0.044c0.071-0.035,0.859-0.124,0.859-0.124H200"/>
<path fill="none" stroke="#C88985" stroke-width="3" stroke-miterlimit="10" d="M184.253,302.41
	c0.048-0.096,0.742-0.503,0.862-0.574c0.119-0.071,0.383-0.288,0.574-0.359s0.719-0.335,0.719-0.335l0.574-0.119"/>
<polyline fill="none" stroke="#C88985" stroke-width="3" stroke-miterlimit="10" points="172.69,306.36 173.553,305.834 
	174.078,305.499 174.94,305.14 175.42,304.805 "/>
<path fill="none" stroke="#C88985" stroke-width="3" stroke-miterlimit="10" d="M178.076,312.465c0.072-0.023,0.6-0.599,0.6-0.599
	s0.478-0.358,0.646-0.526s0.407-0.479,0.551-0.551s0.79-0.406,0.79-0.406l0.479-0.12"/>
<path fill="none" stroke="#C88985" stroke-width="3" stroke-miterlimit="10" d="M168.859,311.363c0.072,0.049,1.03-0.001,1.126,0
	s0.838,0.023,0.909,0c0.072-0.023,0.838,0,0.838,0"/>
<path fill="none" stroke="#C88985" stroke-width="3" stroke-miterlimit="10" d="M161.224,310.263
	c0.096-0.096,0.718-0.287,0.838-0.287s0.694-0.167,0.79-0.191s0.502-0.145,0.622-0.216s0.455-0.215,0.526-0.287
	c0.072-0.072,0.551-0.406,0.6-0.479c0.047-0.072,0.191-0.384,0.191-0.384"/>
<path fill="none" stroke="#C88985" stroke-width="3" stroke-miterlimit="10" d="M165.401,317.809
	c0.144-0.023,0.532-0.237,0.604-0.213s0.623-0.096,0.623-0.096h0.508H168"/>
<path fill="none" stroke="#C88985" stroke-width="3" stroke-miterlimit="10" d="M84.946,272.063
	c0.072-0.096,0.575-0.431,0.694-0.431s0.383-0.287,0.599-0.383s0.575-0.789,0.694-0.622s0.79-0.026,0.79-0.026l0.407-0.405"/>
<path fill="none" stroke="#C88985" stroke-width="3" stroke-miterlimit="10" d="M81.355,263.564c0.096,0.023,0.359-0.12,0.551-0.216
	s0.479-0.31,0.574-0.37s0.527-0.396,0.527-0.396l0.455-0.407"/>
<path fill="none" stroke="#C88985" stroke-width="3" stroke-miterlimit="10" d="M80.35,256.933c0,0,0.6-0.287,0.695-0.287
	s0.455-0.216,0.526-0.239s0.55-0.431,0.55-0.431l1.102-0.239"/>
<path fill="none" stroke="#C88985" stroke-width="3" stroke-miterlimit="10" d="M76.473,249.99c0,0,0.573-0.502,0.646-0.574
	s0.431-0.359,0.503-0.406c0.072-0.049,0.432-0.455,0.599-0.479s0.767-0.167,0.767-0.167"/>
<path fill="none" stroke="#C88985" stroke-width="3" stroke-miterlimit="10" d="M81.786,248.938c0,0,0.599-0.096,0.719,0
	s0.718,0.144,0.718,0.144l0.455,0.096"/>
<path fill="none" stroke="#C88985" stroke-width="3" stroke-miterlimit="10" d="M76.62,244.998c0,0,0.692-0.353,0.788-0.4
	s0.418-0.32,0.514-0.367c0.096-0.049,0.531-0.401,0.604-0.401s0.58-0.329,0.58-0.329H80"/>
<path fill="#C7727D" stroke="#7C4946" stroke-miterlimit="10" d="M39.5,155.332l8.033,13.644l13.82,2.642l6.766-5.167l5.834-19.018
	l6.088-14.988l7.514-15.278l12.406-12.108l13.557-6.654l17.016-2.904H148h19l16.875,4.004l10.668,6.382l7.497,11.696l6.055,11.759
	l6.056,16.98l5.479,13.248l3.459,10.495l6.056,2.436H238l4.983-6.391l4.901-8.611l3.461-13.389l-1.73-12.172l-4.325-12.142
	l-4.325-14.432l-5.767-10.855l-6.055-14.53l-6.921-12.688c0,0-3.172-7.498-5.189-8.363s-8.65-8.074-8.65-8.074l-6.631-6.632
	l-9.804-7.497l-12.11-3.4L168.305,30.5H148h-15h-15h-15l-13.699,5.57l-11.821,9.553l-9.804,16.022l-5.479,13.777
	c0,0-5.478,11.502-5.478,12.367s-3.46,12.784-3.46,12.784l-4.325,10.836c0,0-6.069,10.664-6.357,11.529
	c-0.289,0.865-3.077,14.701-3.077,14.701V155.332z"/>
<path fill="#C7727D" stroke="#7C4946" stroke-miterlimit="10" d="M43.057,268.398c1.861-2.722,9.903-5.927,14.473-5.405
	s8.678,5.515,8.678,5.515l4.051,9.533l3.754,10.965l1.734,8.079l2.597,6.633l3.172,5.768l2.886,4.615l4.324,6.344l4.325,5.767
	c0,0,4.324,4.324,5.478,4.901c1.154,0.577,4.902,3.328,6.056,3.617s12.976,4.771,12.976,4.771H129h15h13l9.629-1.756l13.498-0.864
	l8.938-3.749l9.516-5.479l4.613-6.92l4.613-5.189l1.441-6.344l2.884-10.38l2.307-9.515l1.729-8.65l2.019-6.632l2.307-7.496
	l2.595-4.902c0,0,0.328-1.596,3.749-1.729s10.956,2.595,10.956,2.595s5.359,3.574,7.16,6.055c1.802,2.48,2.547,8.073,2.547,8.073
	s0.518,3.682,0,6.383s-2.787,5.728-2.787,5.728l-2.307,6.055l-1.441,4.915l-1.153,5.754l-1.153,4.901l-0.865,5.767l-0.865,4.325
	l-1.441,6.632l-2.307,4.613l-3.748,5.767l-2.018,5.767c0,0-2.02,4.324-2.885,6.055c-0.864,1.73-5.478,8.074-5.478,8.074
	l-6.056,8.649c0,0-7.848,9.974-9.515,12.11s-18.165,7.55-18.165,7.55l-25.373,7.839H143c0,0-20.457,0.475-22,0
	s-14.398-4.432-14.398-4.432L93.05,383.59l-12.11-11.533l-9.227-11.534c0,0-6.92-11.244-7.208-12.109s-6.056-11.245-6.056-11.245
	l-4.613-12.11l-5.189-10.957c0,0-2.307-9.515-2.307-10.668s-3.283-10.957-3.283-10.957s-1.557-7.496-1.557-8.361s0-9.114,0-9.114
	S41.195,271.12,43.057,268.398z"/>
<path fill="none" stroke="#7C4946" stroke-miterlimit="10" d="M80.91,347.526c-0.08,0.397,1.353,2.945,1.512,3.264
	s2.07,2.389,2.07,2.389s1.99,0.636,2.229,0.716s1.273,0.796,1.273,0.796"/>
<path fill="none" stroke="#7C4946" stroke-miterlimit="10" d="M91.418,354.69c-0.08,0.08,0.557,2.786,0.557,2.786l1.273,2.07
	l2.15,1.831l2.148,1.592"/>
<polyline fill="none" stroke="#7C4946" stroke-miterlimit="10" points="103.96,358.565 105.053,361.404 106.594,363.58 
	108.758,365.598 111.398,366.5 113,366.5 "/>
<path fill="none" stroke="#7C4946" stroke-miterlimit="10" d="M118.165,362.949c0.238,0.318,1.075,2.479,1.313,2.717
	s1.891,1.815,1.891,1.815l2.607,1.019H127"/>
<path fill="none" stroke="#7C4946" stroke-miterlimit="10" d="M131.698,362.949c0.079,0.26,0.717,2.346,1.114,2.775
	c0.398,0.43,2.229,2.261,2.229,2.261l1.99,1.114"/>
<path fill="none" stroke="#7C4946" stroke-miterlimit="10" d="M157.49,362.533c0,0.437-0.875,3.491-0.875,3.491l-1.752,1.483
	l-2.069,1.592l-1.671,0.637"/>
<polyline fill="none" stroke="#7C4946" stroke-miterlimit="10" points="170.229,363.368 168.795,366.135 166.629,367.667 
	164.019,368.5 161.392,369.1 "/>
<polyline fill="none" stroke="#7C4946" stroke-miterlimit="10" points="183.602,360.502 181.851,362.949 179.701,364.323 
	177.87,365.278 174.846,366.024 "/>
<path fill="none" stroke="#7C4946" stroke-miterlimit="10" d="M198.011,352.621c0,0-1.274,2.946-1.274,3.185
	s-2.388,3.024-2.388,3.024l-2.786,2.627l-2.547,1.076l-2.469,0.835"/>
<polyline fill="none" stroke="#7C4946" stroke-miterlimit="10" points="208.519,347.526 207.006,350.472 205.255,352.621 
	202.867,353.735 201.115,354.69 "/>
<path fill="#FF7BAC" stroke="#7C4946" stroke-miterlimit="10" d="M4.618,200.383c-0.288,0.865,4.259-10.032,4.259-10.032
	l3.715-12.081l3.731-14.689l3.163-17.004l2.881-16.143l2.304-15.28l3.747-12.108l4.901-16.723l6.343-15.57l8.073-16.436
	l8.073-12.398L66.189,29.52l11.244-9.803l12.398-6.92l12.11-4.302L116.647,6.5H133h14h16h18l19.553,7.374l14.416,8.688
	l13.264,14.003l10.092,14.643l10.38,18.135l9.515,26.799l6.056,19.888l4.325,21.621l3.172,25.948l4.324,16.723l4.613,11.023
	l4.325,9.156H266l-2.879-10.666l-2.307-8.938l-4.037-9.515l-5.189-10.957l-4.902-13.84l-7.496-19.896l-2.841-12.286l-5.767-15.281
	l-5.232-13.953l-6.055-12.109l-4.614-8.073l-8.649-8.65l-7.785-7.497l-10.381-6.343l-9.227-2.884l-9.227,0.289l-12.109,2.883
	l-7.209,2.307l-8.361,0.577l-10.38-2.307l-9.515-3.46l-12.398,0.576L100.5,43.36l-8.361,4.325l-7.496,6.631l-8.938,8.939
	L69.36,72.77l-4.901,12.976l-4.613,11.821l-7.209,19.318l-6.055,17.012l-7.785,22.49l-6.92,16.724l-4.613,12.11L23.516,200.5
	L4.618,200.383z"/>
<polyline fill="none" stroke="#7C4946" stroke-miterlimit="10" points="144.819,56.758 147.211,50.415 150.094,46.09 "/>
<polyline fill="none" stroke="#7C4946" stroke-miterlimit="10" points="141.732,56.758 140.002,51.424 136.254,46.09 "/>
<line fill="none" stroke="#7C4946" stroke-miterlimit="10" x1="52.061" y1="99.432" x2="53.214" y2="104.5"/>
<line fill="none" stroke="#7C4946" stroke-miterlimit="10" x1="52.637" y1="95.395" x2="55.809" y2="99.432"/>
<path fill="none" stroke="#7C4946" stroke-miterlimit="10" d="M54.223,89.34c1.586,0,3.316,3.46,3.316,3.46"/>
<line fill="none" stroke="#7C4946" stroke-miterlimit="10" x1="57.539" y1="83.862" x2="60.999" y2="85.88"/>
<path fill="none" stroke="#7C4946" stroke-miterlimit="10" d="M57.539,77.807c1.153,0,3.46,2.595,3.46,2.595"/>
<polyline fill="none" stroke="#7C4946" stroke-miterlimit="10" points="57.539,68.292 62.729,70.599 65.612,74.059 "/>
<path fill="none" stroke="#7C4946" stroke-miterlimit="10" d="M57.539,61.949c0.576,0,5.479,2.595,5.479,2.595l5.189,3.749"/>
<polyline fill="none" stroke="#7C4946" stroke-miterlimit="10" points="57.539,54.74 62.873,56.758 68.207,59.065 70.514,65.12 "/>
<polyline fill="none" stroke="#7C4946" stroke-miterlimit="10" points="68.207,51.424 73.397,54.74 74.551,59.93 "/>
<path fill="none" stroke="#7C4946" stroke-miterlimit="10" d="M74.551,47.532c0.288,0.865,4.037,5.19,4.037,5.19"/>
<line fill="none" stroke="#7C4946" stroke-miterlimit="10" x1="80.317" y1="47.532" x2="81.471" y2="51.424"/>
<line fill="none" stroke="#7C4946" stroke-miterlimit="10" x1="94.5" y1="30" x2="94.5" y2="36"/>
<polyline fill="none" stroke="#7C4946" stroke-miterlimit="10" points="100.5,27 100.5,33 97.617,36 "/>
<polyline fill="none" stroke="#7C4946" stroke-miterlimit="10" points="107.709,28.213 108.862,33 105.113,36 "/>
<path fill="none" stroke="#7C4946" stroke-miterlimit="10" d="M115.5,27c0,0.06,0,3,0,3l-1.736,4.845"/>
<polyline fill="none" stroke="#7C4946" stroke-miterlimit="10" points="122.414,25.042 123.855,28.213 122.414,34.845 "/>
<polyline fill="none" stroke="#7C4946" stroke-miterlimit="10" points="129.5,24 129.5,28 129.5,33 127.604,36 "/>
<path fill="none" stroke="#7C4946" stroke-miterlimit="10" d="M134.482,18.449c0,0.865,2.018,6.593,2.018,6.593V31l-1.009,3.845
	l-2.409,2.883"/>
<polyline fill="none" stroke="#7C4946" stroke-miterlimit="10" points="154.096,18.555 151.5,24 151.5,30 151.5,35 154.096,37.729 
	"/>
<path fill="none" stroke="#7C4946" stroke-miterlimit="10" d="M160.186,24l-1.153,5.943c0,0,0.577,0.866,0.577,2.163
	S160.186,36,160.186,36"/>
<path fill="none" stroke="#7C4946" stroke-miterlimit="10" d="M166.629,27c-0.389,0.637,0,3.923,0,3.923
	c1.631,2.48,2.495,5.077,2.495,5.077"/>
<path fill="none" stroke="#7C4946" stroke-miterlimit="10" d="M173.5,28v4c2.256,2.557,2.832,5.729,2.832,5.729"/>
<path fill="none" stroke="#7C4946" stroke-miterlimit="10" d="M181.522,27c0,0.349-1.153,5.106-1.153,5.106l2.596,2.739"/>
<line fill="none" stroke="#7C4946" stroke-miterlimit="10" x1="189.308" y1="28.213" x2="188.154" y2="34.845"/>
<line fill="none" stroke="#7C4946" stroke-miterlimit="10" x1="195.5" y1="32" x2="195.5" y2="36"/>
<line fill="none" stroke="#7C4946" stroke-miterlimit="10" x1="201.5" y1="35" x2="201.5" y2="39"/>
<line fill="none" stroke="#7C4946" stroke-miterlimit="10" x1="208.338" y1="47.532" x2="206.607" y2="50.127"/>
<line fill="none" stroke="#7C4946" stroke-miterlimit="10" x1="215.258" y1="47.532" x2="210.355" y2="52.722"/>
<polyline fill="none" stroke="#7C4946" stroke-miterlimit="10" points="222.178,50.127 218.43,52.722 215.258,56.758 "/>
<polyline fill="none" stroke="#7C4946" stroke-miterlimit="10" points="231.115,55.677 225.926,56.758 220.736,59.93 
	218.718,63.967 "/>
<path fill="none" stroke="#7C4946" stroke-miterlimit="10" d="M227.944,61.949c0,0-3.749,2.018-4.325,3.171
	s-1.441,3.172-1.441,3.172"/>
<polyline fill="none" stroke="#7C4946" stroke-miterlimit="10" points="232.846,68.292 227.944,69.733 224.917,72.329 "/>
<line fill="none" stroke="#7C4946" stroke-miterlimit="10" x1="232.846" y1="74.059" x2="227.944" y2="76.653"/>
<line fill="none" stroke="#7C4946" stroke-miterlimit="10" x1="232.846" y1="83.862" x2="230.395" y2="84.871"/>
<line fill="none" stroke="#7C4946" stroke-miterlimit="10" x1="234.864" y1="95.395" x2="232.846" y2="99.432"/>
<line fill="none" stroke="#7C4946" stroke-miterlimit="10" x1="237.459" y1="101.966" x2="236.018" y2="104.5"/>
<path fill="none" stroke="#7C4946" stroke-miterlimit="10" d="M261.391,178.147c1.154,1.73,2.884,6.055,2.884,6.055l2.307,4.613
	l2.595,6.632"/>
<polyline fill="none" stroke="#7C4946" stroke-miterlimit="10" points="25.246,178.147 23.804,184.779 20.344,191.411 
	17.461,195.447 "/>
<path fill="none" stroke="#7C4946" stroke-miterlimit="10" d="M86.66,47.532c0.865-0.288,4.037-1.441,4.037-1.441l5.189-1.442
	c2.904,0.596,4.613-0.288,4.613-0.288"/>
<path fill="none" stroke="#7C4946" stroke-miterlimit="10" d="M94,40.5h5c0,0,4.096-0.112,4.961,0s4.901-0.05,4.901-0.05
	l2.016,0.959"/>
<polyline fill="none" stroke="#7C4946" stroke-miterlimit="10" points="202.932,47.671 197.669,44.5 193,44.5 190,44.5 "/>
<path fill="none" stroke="#7C4946" stroke-miterlimit="10" d="M189.893,38.771l-5.775-1.271H179c0,0-3.193,1.042-4.084,1.5
	s-2.62,1.45-2.62,1.45"/>
<path fill="#FF7BAC" stroke="#7C4946" stroke-miterlimit="10" d="M6.532,195.979c0,0,15.858,1.44,17.786,3.193
	s-1.775,12.409-1.775,12.409l-0.6,10.963l0.854,7.211c0,0,4.319,9.805,3.742,8.652c-0.576-1.154,4.322,5.767,4.611,6.92
	c0.287,1.153,4.323,8.361,4.323,8.361l3.46,7.786c0,0,5.139,7.235,6.055,8.938c0.914,1.703,3.268,10.721,4.035,12.11
	c0.769,1.39,6.055,10.956,6.055,10.956l3.749,7.497l2.884,9.515c0,0,2.464,7.412,3.172,9.516c0.707,2.104,0.757,9.275,1.441,10.956
	c0.684,1.681,2.883,4.902,3.748,6.344s3.46,5.189,4.613,6.055s5.768,6.345,6.055,7.209c0.289,0.864,3.172,5.479,3.748,6.92
	c0.577,1.441,2.596,4.324,2.596,4.324l4.037,2.019c0,0,5.154,2.194,6.055,3.172s3.46,4.325,3.46,4.325l2.307,3.172
	c0,0,5.479,2.595,6.343,2.595c0.865,0,6.056,3.748,6.056,3.748s4.42,2.629,6.055,2.884s9.804-0.576,10.957,0s10.38,0,10.38,0
	l6.92,1.729c0,0,4.901-0.289,5.767,0s5.19,0,5.19,0l4.324,0.129l4.902-3.589l4.037-2.019l3.459-0.864l3.749-1.442l5.19-1.153
	c0,0,2.687-4.407,3.748-5.478c1.061-1.07,4.324-2.596,4.324-2.596l2.884-1.729c2.307-2.019,4.613-3.172,4.613-3.172l2.019-2.884
	l2.883-2.883l2.019-3.46l2.019-2.884l1.73-3.748l1.729-3.172c2.019-2.883,3.172-4.613,3.172-4.613l3.171-2.883
	c2.596-2.307,4.326-11.245,4.326-11.245l2.594-10.38l3.172-11.245l4.037-13.344l6.92-12.318l6.344-12.975l5.479-10.013l6.92-12.766
	l3.459-9.804l2.596-5.767c0,0,2.318-3.705,2.595-5.767s-2.019-11.431-2.019-11.431s-0.957-1.256-0.623-6.734
	c0.335-5.479,16.873-6.92,18.119-2.596c1.246,4.326,0,11.363,0,11.363s0.131,7.625,0,9s-2.214,5.299-2.214,5.299l-2.884,7.496
	l-2.018,8.939l-4.613,12.766l-2.884,11.166l-4.325,18.453l-2.883,11.245l-1.73,10.956l-1.73,9.516l-2.018,9.227l-2.884,13.264
	l-3.748,11.533l-4.901,9.803l-5.479,10.381l-9.227,9.803l-7.209,7.209l-8.361,5.767l-9.227,9.803l-19.607,10.957
	c0,0-12.975,6.055-14.128,6.055s-16.435,2.596-16.435,2.596l-15.282,2.735l-14.993-2.735l-14.705-4.902l-13.552-7.208l-9.515-5.767
	l-10.092-10.092l-11.533-7.497l-13.84-14.416c0,0-6.254-7.787-7.209-8.362s-6.632-16.146-6.632-16.146l-4.613-13.264l-2.307-12.109
	l-2.307-17.012l-3.46-17.301l-3.748-12.397l-2.884-10.669l-5.767-18.165l-3.748-10.668l-2.019-8.65l-1.26-10.092L4.5,209.967V204
	L6.532,195.979z"/>
<line fill="none" stroke="#7C4946" stroke-miterlimit="10" x1="29.859" y1="291.462" x2="26.554" y2="297.14"/>
<polyline fill="none" stroke="#7C4946" stroke-miterlimit="10" points="31.877,297.14 29.859,302.996 28.417,306.456 "/>
<path fill="none" stroke="#7C4946" stroke-miterlimit="10" d="M36.202,302.996c0,0-3.414,3.529-4.325,4.901s-1.73,6.632-1.73,6.632"
	/>
<polyline fill="none" stroke="#7C4946" stroke-miterlimit="10" points="38.797,310.973 34.76,314.529 31.877,318.854 
	30.724,323.468 "/>
<path fill="none" stroke="#7C4946" stroke-miterlimit="10" d="M41.393,317.221c0,0-4.127,1.493-5.19,2.787s-1.441,3.46-1.441,3.46
	l-1.586,4.901"/>
<polyline fill="none" stroke="#7C4946" stroke-miterlimit="10" points="43.52,326.273 38.96,329.771 37.5,333.271 37.5,336 "/>
<polyline fill="none" stroke="#7C4946" stroke-miterlimit="10" points="45.424,333.514 41.385,337.572 40.5,341.344 40.5,345 "/>
<path fill="none" stroke="#7C4946" stroke-miterlimit="10" d="M48.313,339.257l-2.889,4.683c-2.302,2.595-4.031,6.632-4.031,6.632"
	/>
<path fill="none" stroke="#7C4946" stroke-miterlimit="10" d="M62.34,341.096l-4.707,2.431l-4.372,3.954l-2.235,3.132
	c0,0-2.328,3.284-2.525,4.572s0,3.815,0,3.815v2.527V365"/>
<path fill="none" stroke="#7C4946" stroke-miterlimit="10" d="M60.354,348.068l-3.57,4.881c0,0-1.905,1.367-2.43,2.187
	s-1.854,2.732-1.854,3.797s0.105,1.992,0,3.067s-1.593,3-1.593,3"/>
<path fill="none" stroke="#7C4946" stroke-miterlimit="10" d="M60.354,361.527L57.25,365c-1.152,2.871-1.619,5.466-1.619,5.466"/>
<polyline fill="none" stroke="#7C4946" stroke-miterlimit="10" points="64.619,368.553 62.5,372.772 62.5,377 62.5,380 "/>
<polyline fill="none" stroke="#7C4946" stroke-miterlimit="10" points="71.5,376 71.5,380 71.5,384 71.5,387 "/>
<path fill="none" stroke="#7C4946" stroke-miterlimit="10" d="M80.807,370.883c0,0-1.842,3.33-2.307,5.117s0,6,0,6v3v5"/>
<polyline fill="none" stroke="#7C4946" stroke-miterlimit="10" points="86.653,381.387 85.5,387 85.5,391 86.076,395.263 
	86.653,400.453 "/>
<polyline fill="none" stroke="#7C4946" stroke-miterlimit="10" points="91.5,391 91.5,395 91.5,399 91.5,402 "/>
<polyline fill="none" stroke="#7C4946" stroke-miterlimit="10" points="96.5,395 96.5,400 96.5,403 97.906,407.084 "/>
<polyline fill="none" stroke="#7C4946" stroke-miterlimit="10" points="103.5,397 103.5,402 103.5,407 103.5,411 "/>
<polyline fill="none" stroke="#7C4946" stroke-miterlimit="10" points="112.5,398 112.5,402 112.5,409 114.053,412.851 
	115.782,416.022 "/>
<polyline fill="none" stroke="#7C4946" stroke-miterlimit="10" points="118.5,404 118.5,409 118.5,411 120.396,416.022 "/>
<line fill="none" stroke="#7C4946" stroke-miterlimit="10" x1="123.5" y1="409" x2="123.5" y2="415"/>
<polyline fill="none" stroke="#7C4946" stroke-miterlimit="10" points="129.5,404 129.5,409 128.5,412 128.5,416 "/>
<polyline fill="none" stroke="#7C4946" stroke-miterlimit="10" points="137.5,400 137.5,407 137.5,412 135.966,416.022 "/>
<polyline fill="none" stroke="#7C4946" stroke-miterlimit="10" points="143.5,401 143.5,407 143.5,411 143.5,415 "/>
<polyline fill="none" stroke="#7C4946" stroke-miterlimit="10" points="151.5,401 151.5,407 151.5,410 149.806,415 148.364,420.06 
	"/>
<path fill="none" stroke="#7C4946" stroke-miterlimit="10" d="M158.5,402c0,0-0.512,4.362,0,6s1.764,1.438,1.764,3
	s-0.764,5.022-0.764,5.022V420"/>
<polyline fill="none" stroke="#7C4946" stroke-miterlimit="10" points="166.5,413 166.5,416 166.5,420 "/>
<polyline fill="none" stroke="#7C4946" stroke-miterlimit="10" points="172.5,402 172.5,407 172.5,411 172.5,415 170.277,418.041 
	"/>
<path fill="none" stroke="#7C4946" stroke-miterlimit="10" d="M178.5,398v4c0,0,0.438,4.939,0,5.012s1.014,2.444,0,2.988
	s-1.879,2.572-2.168,3"/>
<path fill="none" stroke="#7C4946" stroke-miterlimit="10" d="M185.142,398c0,0-1.089,3.24,0.065,4c1.152,0.76-0.098,3.5-0.098,3.5
	L184.5,409v3"/>
<path fill="none" stroke="#7C4946" stroke-miterlimit="10" d="M191.183,392.623c0,0,0.793,3.795,1.081,3.999
	s0.195,2.985,0.195,3.438S191.5,404,191.5,404s0.161,3.104,0,3.5s-1.5,0-1.5,0"/>
<path fill="none" stroke="#7C4946" stroke-miterlimit="10" d="M197.347,390.25c0,0,1.153,1.752,1.153,2.373s0,4.377,0,4.377
	l-1.153,3.062L195.939,404"/>
<path fill="none" stroke="#7C4946" stroke-miterlimit="10" d="M204.301,380.441c0,1.27-0.289,3.864,0,5.018s-0.289,3.604,0,4.541
	s-0.128,5-0.128,5l-1.89,3"/>
<polyline fill="none" stroke="#7C4946" stroke-miterlimit="10" points="209.5,372 209.5,378 209.5,381 209.5,385 209.5,389 
	209.5,393 "/>
<path fill="none" stroke="#7C4946" stroke-miterlimit="10" d="M215.834,374.276c0,0,0.865,0.05,1.153,1.724s0,3.46,0,4.441
	s-0.513,4.441-0.513,4.441"/>
<path fill="none" stroke="#7C4946" stroke-miterlimit="10" d="M222.754,365.996c0,0,1.442,4.47,1.73,4.47s-0.865,3.296,0,3.811
	s0.095,2.244,0.047,3.109c-0.047,0.865-0.707,4.001-0.707,4.001"/>
<path fill="none" stroke="#7C4946" stroke-miterlimit="10" d="M228.232,361.527c0,0,1.441,3.747,1.73,4.469
	c0.288,0.722,0,2.557,0,2.557l0.128,5.139"/>
<path fill="none" stroke="#7C4946" stroke-miterlimit="10" d="M229.162,348.068l3.684,4.979l2.884,5.02c0,0-1.153,3.748,0,4.613
	s1.441,5.872,1.441,5.872"/>
<path fill="none" stroke="#7C4946" stroke-miterlimit="10" d="M226.215,339.257c0,0,3.139,1.302,3.876,1.839
	s3.075,2.555,3.075,2.555l4.005,2.884l3.46,4.037c0,0,1.154,3.171,1.441,4.036c0.289,0.865,0,3.703,0,3.703"/>
<path fill="none" stroke="#7C4946" stroke-miterlimit="10" d="M238.613,339.257c0,0,4.004,1.799,3.588,2.952
	c-0.417,1.153,1.602,2.791,1.602,2.791c1.73,3.841,2.307,5.571,2.307,5.571"/>
<polyline fill="none" stroke="#7C4946" stroke-miterlimit="10" points="242.26,333.621 245.956,336.054 248.5,339.257 248.5,343 "/>
<path fill="none" stroke="#7C4946" stroke-miterlimit="10" d="M246.109,326.273c1.441,0.654,3.46,4.863,3.46,4.863
	c1.729,1.846,2.595,4.863,2.595,4.863"/>
<path fill="none" stroke="#7C4946" stroke-miterlimit="10" d="M248.5,315.971l0.637,3.172c2.739,2.595,3.893,4.325,3.893,4.325
	c0.576,4.036-0.865,4.901-0.865,4.901"/>
<path fill="none" stroke="#7C4946" stroke-miterlimit="10" d="M250.833,308.763c0,0,1.604,3.171,2.333,4.036
	c0.729,0.865,2.459,3.172,2.459,3.172"/>
<polyline fill="none" stroke="#7C4946" stroke-miterlimit="10" points="252.164,301.798 253.229,305.014 255.625,308.763 "/>
<path fill="none" stroke="#7C4946" stroke-miterlimit="10" d="M255.5,297v3c2.432,3.284,3.296,5.28,3.296,5.28"/>
<path fill="none" stroke="#7C4946" stroke-miterlimit="10" d="M257.148,291.462c0.494,1.73,1.647,5.678,1.647,5.678"/>
<line fill="none" stroke="#7C4946" stroke-miterlimit="10" x1="39" y1="279.5" x2="43" y2="279.5"/>
<path fill="none" stroke="#7C4946" stroke-miterlimit="10" d="M42.962,283.678c0.448,0,1.015,0.288,2.462,1.441"/>
<path fill="none" stroke="#7C4946" stroke-miterlimit="10" d="M42.962,289.732c0.448,0,5.351,1.729,5.351,1.729"/>
<line fill="none" stroke="#7C4946" stroke-miterlimit="10" x1="45.637" y1="295.499" x2="50.907" y2="298.671"/>
<polyline fill="none" stroke="#7C4946" stroke-miterlimit="10" points="48.271,301.141 50.907,302.996 53.791,305.28 "/>
<path fill="none" stroke="#7C4946" stroke-miterlimit="10" d="M48.271,307.897c0.041,0,2.76,0.865,2.76,0.865l4.389,3.604"/>
<path fill="none" stroke="#7C4946" stroke-miterlimit="10" d="M48,314.5c0,0,4.646-0.604,6,0s1.631,2.721,1.631,2.721"/>
<path fill="none" stroke="#7C4946" stroke-miterlimit="10" d="M51.815,322.17c0.533-1.298,3.604,0.625,3.604,0.625l2.572,2.114"/>
<path fill="none" stroke="#7C4946" stroke-miterlimit="10" d="M50.907,328.369c0,0,3.092-3.038,3.997-2.096
	c0.904,0.942,3.088,2.096,3.088,2.096"/>
<line fill="none" stroke="#7C4946" stroke-miterlimit="10" x1="63.56" y1="346.534" x2="68.783" y2="344.914"/>
<line fill="none" stroke="#7C4946" stroke-miterlimit="10" x1="69" y1="350.5" x2="73" y2="350.5"/>
<line fill="none" stroke="#7C4946" stroke-miterlimit="10" x1="73" y1="356.534" x2="76.568" y2="354.896"/>
<path fill="none" stroke="#7C4946" stroke-miterlimit="10" d="M86.084,361.815l0.569,4.181c0,0-1.448,1.797,0,2.557"/>
<line fill="none" stroke="#7C4946" stroke-miterlimit="10" x1="101.942" y1="374.503" x2="106.556" y2="380.441"/>
<line fill="none" stroke="#7C4946" stroke-miterlimit="10" x1="118.5" y1="389" x2="118.5" y2="393"/>
<line fill="none" stroke="#7C4946" stroke-miterlimit="10" x1="123.5" y1="389" x2="123.5" y2="393"/>
<line fill="none" stroke="#7C4946" stroke-miterlimit="10" x1="129.5" y1="389.221" x2="130.775" y2="393"/>
<line fill="none" stroke="#7C4946" stroke-miterlimit="10" x1="135.966" y1="389.221" x2="136.732" y2="395"/>
<line fill="none" stroke="#7C4946" stroke-miterlimit="10" x1="143.5" y1="390" x2="143.777" y2="393"/>
<line fill="none" stroke="#7C4946" stroke-miterlimit="10" x1="151.5" y1="389" x2="152.689" y2="393"/>
<path fill="none" stroke="#7C4946" stroke-miterlimit="10" d="M156.438,389c0,0-1.153,1.332,0,2.5"/>
<line fill="none" stroke="#7C4946" stroke-miterlimit="10" x1="163.069" y1="387" x2="164.223" y2="390.92"/>
<line fill="none" stroke="#7C4946" stroke-miterlimit="10" x1="170.5" y1="389" x2="170.5" y2="392"/>
<line fill="none" stroke="#7C4946" stroke-miterlimit="10" x1="185.271" y1="376.521" x2="184.5" y2="383.441"/>
<line fill="none" stroke="#7C4946" stroke-miterlimit="10" x1="190" y1="380.441" x2="187.001" y2="384.883"/>
<path fill="none" stroke="#7C4946" stroke-miterlimit="10" d="M202.283,361.815c-1.442,1.73,0,5.794,0,5.794"/>
<line fill="none" stroke="#7C4946" stroke-miterlimit="10" x1="211.221" y1="354.896" x2="214.104" y2="356.534"/>
<line fill="none" stroke="#7C4946" stroke-miterlimit="10" x1="195.5" y1="374" x2="195.5" y2="376"/>
<line fill="none" stroke="#7C4946" stroke-miterlimit="10" x1="206.896" y1="359.509" x2="209.5" y2="363.258"/>
<path fill="none" stroke="#7C4946" stroke-miterlimit="10" d="M214.104,350.571c0,0,3.75,0.917,4.037,2.477"/>
<line fill="none" stroke="#7C4946" stroke-miterlimit="10" x1="218.141" y1="344.914" x2="222.754" y2="348.068"/>
<path fill="none" stroke="#7C4946" stroke-miterlimit="10" d="M226.215,329.522c1.441-0.288,7.992,0,7.992,0"/>
<line fill="none" stroke="#7C4946" stroke-miterlimit="10" x1="228.232" y1="324.909" x2="233.166" y2="322.795"/>
<path fill="none" stroke="#7C4946" stroke-miterlimit="10" d="M230.091,317.221c0.737-0.097,7.08-1.25,7.08-1.25l5.03-1.441"/>
<line fill="none" stroke="#7C4946" stroke-miterlimit="10" x1="233.166" y1="310.133" x2="236.146" y2="308.763"/>
<line fill="none" stroke="#7C4946" stroke-miterlimit="10" x1="233.166" y1="305.28" x2="236.146" y2="303.211"/>
<line fill="none" stroke="#7C4946" stroke-miterlimit="10" x1="240" y1="295.5" x2="242" y2="295.5"/>
<path fill="none" stroke="#7C4946" stroke-miterlimit="10" d="M236.146,297.14"/>
<path fill="none" stroke="#7C4946" stroke-miterlimit="10" d="M240,289.732c0.631-0.865,2.361-1.441,2.361-1.441"/>
<path fill="none" stroke="#7C4946" stroke-miterlimit="10" d="M242.361,285.119c1.152-0.288,3.748,0,3.748,0"/>
<path fill="none" stroke="#7C4946" stroke-miterlimit="10" d="M244.235,279.5c1.874-0.147,4.638-2.159,4.265,0"/>
<polyline fill="none" stroke="#7C4946" stroke-miterlimit="10" points="272.5,205 272.5,210 272.5,215 270.041,219.09 
	268.022,221.397 "/>
<path fill="none" stroke="#7C4946" stroke-miterlimit="10" d="M15.5,203v5l-0.105,4.691c0,0-0.131,1.838,0.105,3.309
	s1.384,3.955,1.384,3.955l1.729,2.884l2.906,4.577"/>
<path fill="none" stroke="#7C4946" stroke-miterlimit="10" d="M150.104,385.037l-1.654-2.298l-1.26-2.7c0,0-0.689-3.105-0.689-3.519
	s0-2.521,0-2.521"/>
<path fill="none" stroke="#7C4946" stroke-miterlimit="10" d="M138.954,383.441c0.515,0.451,2.128-1.941,2.128-1.941
	s1.474-1.354,1.474-1.981s-0.164-2.913,0-2.998s0.944-2.018,0.944-2.018"/>
<g>
</g>
<g>
</g>
<g>
</g>
<g>
</g>
<g>
</g>
<g>
</g>
<g>
</g>
<g>
</g>
<g>
</g>
<g>
</g>
<g>
</g>
<g>
</g>
<g>
</g>
<g>
</g>
<g>
</g>
</svg>
