<?xml version="1.0" encoding="utf-8"?>
<!-- Generator: Adobe Illustrator 16.0.0, SVG Export Plug-In . SVG Version: 6.00 Build 0)  -->
<!DOCTYPE svg PUBLIC "-//W3C//DTD SVG 1.1//EN" "http://www.w3.org/Graphics/SVG/1.1/DTD/svg11.dtd">
<svg version="1.1" id="Слой_1" xmlns="http://www.w3.org/2000/svg" xmlns:xlink="http://www.w3.org/1999/xlink" x="0px" y="0px"
	 width="42px" height="42px" viewBox="0 0 42 42" enable-background="new 0 0 42 42" xml:space="preserve">
<path fill="#F2F2C2" stroke="#000000" stroke-miterlimit="10" d="M12.5,34.583c0.354,0.731,2.265,1.473,3.334,1.917
	c1.068,0.444,9.19,0.148,10.166,0s4.025-2.111,4.5-2.834c0.475-0.721,0.562-16.81,0-18.666S26,8.167,26,8.167s-0.479-1.867-4.541-2
	S16.541,7.5,16.541,7.5s-3.653,4.368-4.041,6.167S12.146,33.852,12.5,34.583z"/>
<path fill="#FFFFFF" stroke="#999999" stroke-miterlimit="10" d="M16.416,35.858l-0.115-0.345l-0.054-0.16l-0.146-0.438
	l-0.299-0.933L15.5,32.635V32l0.054-2l0.139-1.109l0.353-1.006c0,0,0.249-0.98,0.249-1.119s0.646-1.244,0.831-1.478
	s1.063-0.933,1.063-0.933l1.155-1.104l0.925-0.548c0,0,0.832-0.105,1.017-0.151s1.294-0.053,1.294-0.053H24l1.306-0.449
	c0,0,0.785,0.323,1.063,0.416s0.971,0.647,1.109,0.879c0.139,0.23-0.416,1.01-0.416,1.01l-1.248,1.254c0,0,0.692,0.832,1.155,1.156
	c0.463,0.322,0.925,1.119,0.925,1.119l0.462,1.885c0,0,0.37,1.524,0.37,1.663s-0.509,1.341-0.509,1.341l-0.601,0.832l-0.739,0.498
	L25.768,34.5H24l-0.589-0.072c0,0-1.024,0.332-1.298,0.286s-1.244-0.555-1.244-0.555l-0.693-0.323l-0.647,0.23l-0.508,0.361
	c-0.462,0.471-0.786,0.748-0.786,0.748s-0.555,0.811-0.739,0.683s-0.832,0.014-0.832,0.014L16.416,35.858z"/>
<g>
</g>
<g>
</g>
<g>
</g>
<g>
</g>
<g>
</g>
<g>
</g>
<g>
</g>
<g>
</g>
<g>
</g>
<g>
</g>
<g>
</g>
<g>
</g>
<g>
</g>
<g>
</g>
<g>
</g>
</svg>
