<?xml version="1.0" encoding="utf-8"?>
<!-- Generator: Adobe Illustrator 16.0.0, SVG Export Plug-In . SVG Version: 6.00 Build 0)  -->
<!DOCTYPE svg PUBLIC "-//W3C//DTD SVG 1.1//EN" "http://www.w3.org/Graphics/SVG/1.1/DTD/svg11.dtd">
<svg version="1.1" id="Слой_1" xmlns="http://www.w3.org/2000/svg" xmlns:xlink="http://www.w3.org/1999/xlink" x="0px" y="0px"
	 width="42px" height="42px" viewBox="0 0 42 42" enable-background="new 0 0 42 42" xml:space="preserve">
<path fill="#F2F2C2" stroke="#000000" stroke-miterlimit="10" d="M15.088,31.616c0,0,0.247-16.938,0.334-18.217
	s3.154-5.98,3.154-5.98s1.623-2.44,2.414-2.919c0.789-0.479,2.168-0.41,3.01,0s2.668,2.73,2.668,2.73
	c0.532,0.475,3.295,3.559,3.605,4.444c0.346,0.987,0.987,18.897,0.197,19.941s-6.666,3.218-6.666,3.218l-5.629,0.641
	c0,0-2.469-0.443-2.864-1.185S15.088,31.616,15.088,31.616z"/>
<path fill="#FFFFFF" stroke="#999999" stroke-miterlimit="10" d="M24.586,5.889L24.131,6.23l-1.129,0.847l-0.898,0.849l-1.03,1.696
	c0,0,0.131,1.217-0.008,1.355s0.09,1.256-0.003,1.58s-0.048,1.852,0.229,2.129s0.924,0.927,0.924,0.927l1.154,1.249l0.833,1.664
	l-0.926,2.179l-0.53,1.651l0.716,1.254c0,0,0.785-0.092,1.34-0.092s0.924,0.281,1.479-0.229s1.248-1.343,1.248-1.343l0.555-0.924
	c0,0,0.37-0.784,0.555-1.201s-0.185-1.71,0-2.126s-0.066-1.849-0.066-1.849L28.5,14.182V13v-1l-0.653-0.591L26.5,10.623V9
	c0,0-0.589-1.658-0.681-1.52s-0.957-1.34-0.957-1.34L24.586,5.889z"/>
<path fill="#FFFFFF" stroke="#999999" stroke-miterlimit="10" d="M24.724,5.054"/>
<g>
</g>
<g>
</g>
<g>
</g>
<g>
</g>
<g>
</g>
<g>
</g>
<g>
</g>
<g>
</g>
<g>
</g>
<g>
</g>
<g>
</g>
<g>
</g>
<g>
</g>
<g>
</g>
<g>
</g>
</svg>
