<?xml version="1.0" encoding="utf-8"?>
<!-- Generator: Adobe Illustrator 16.0.0, SVG Export Plug-In . SVG Version: 6.00 Build 0)  -->
<!DOCTYPE svg PUBLIC "-//W3C//DTD SVG 1.1//EN" "http://www.w3.org/Graphics/SVG/1.1/DTD/svg11.dtd">
<svg version="1.1" id="Слой_1" xmlns="http://www.w3.org/2000/svg" xmlns:xlink="http://www.w3.org/1999/xlink" x="0px" y="0px"
	 width="42px" height="42px" viewBox="0 0 42 42" enable-background="new 0 0 42 42" xml:space="preserve">
<path fill="#F2F2C2" stroke="#000000" stroke-miterlimit="10" d="M19.688,39.566c0,0-5.333-6.321-5.922-7.317
	s-1.281-10.077-1.281-10.077l0.42-8.349c0,0,1.588-5.396,2.186-6.253s3.074-4.492,3.963-5.07s2.043-0.163,2.947,0
	s5.151,5.841,5.744,6.73c0.592,0.889,1.283,2.321,1.283,4.099s1.393,17.398,0.74,17.777c-0.65,0.379-3.11,1.826-4.246,2.469
	C24.386,34.216,19.688,39.566,19.688,39.566z"/>
<path fill="#FFFFFF" stroke="#999999" stroke-miterlimit="10" d="M19.678,37.42c-0.042-0.061-0.199-0.27-0.359-0.481
	c-0.2-0.265-0.407-0.535-0.407-0.535l-0.229-1.337c0,0-0.183-0.744-0.183-0.929s0-1.138,0-1.138l-0.494-1.312l0.463-1.214
	l0.227-0.912c0,0,0.776-1.063,0.621-1.34s-0.201-2.127-0.201-2.127l0.222-1.663l0.333-1.71l0.878-1.433l0.971-1.248
	c0,0,0.97-1.521,1.201-1.754s1.109-0.741,1.109-0.741s0.972-0.231,1.202-0.185s1.063,0.743,1.155,0.926s0.794,1.477,0.841,1.662
	s0.473,1.941,0.473,1.941V24l-0.39,0.849l-0.508,0.971c0,0,0.415,1.155,0.554,1.386c0.139,0.231,0.742,0.693,0.834,1.109
	s0.51,1.42,0.51,1.42V30l-1.481,0.959L25.4,31.734l-1.063,0.693l-0.601,0.139l-0.832,0.324c0,0-0.555,0.461-0.555,0.738
	s-0.278,0.648-0.231,1.109c0.047,0.463-0.092,0.463-0.23,0.879s-0.676,1.188-0.676,1.188L20.825,37.5H20
	c-0.322-0.08-0.521-0.35-0.521-0.35"/>
<g>
</g>
<g>
</g>
<g>
</g>
<g>
</g>
<g>
</g>
<g>
</g>
<g>
</g>
<g>
</g>
<g>
</g>
<g>
</g>
<g>
</g>
<g>
</g>
<g>
</g>
<g>
</g>
<g>
</g>
</svg>
