<?xml version="1.0" encoding="utf-8"?>
<!-- Generator: Adobe Illustrator 16.0.0, SVG Export Plug-In . SVG Version: 6.00 Build 0)  -->
<!DOCTYPE svg PUBLIC "-//W3C//DTD SVG 1.1//EN" "http://www.w3.org/Graphics/SVG/1.1/DTD/svg11.dtd">
<svg version="1.1" id="Слой_1" xmlns="http://www.w3.org/2000/svg" xmlns:xlink="http://www.w3.org/1999/xlink" x="0px" y="0px"
	 width="42px" height="42px" viewBox="0 0 42 42" enable-background="new 0 0 42 42" xml:space="preserve">
<path fill="#F2F2C2" stroke="#000000" stroke-miterlimit="10" d="M25.095,4.521c-0.892-0.44-4.888-0.198-5.976,0.249
	c-1.089,0.447-5.232,3.618-6.051,4.445s-2.521,4.896-2.753,5.778S9.391,27.898,9.729,28.77s0.951,3.133,1.436,3.704
	c0.482,0.571,1.336,1.918,1.877,2.222c0.362,0.203,2.246,0.242,3.707,0.305c0.728,0.031,1.35,0.068,1.627,0.135
	c0.834,0.199,2.862,2.115,3.557,2.365c0.693,0.25,2.401,0.166,3.068,0s6.634-5.891,7.004-6.508c0.371-0.617,0.691-5.333,0.691-5.333
	s-0.494-11.417-0.74-11.95s-2.124-4.696-2.519-5.432S25.986,4.96,25.095,4.521z"/>
<path fill="none" stroke="#000000" stroke-miterlimit="10" d="M26.834,27.584c0.041-0.125-3.032,1-4.125,1.958
	c-1.094,0.958-1.459,1.333-2.667,2.208s-2.13,2.626-3.294,3.25"/>
<path fill="#FFFFFF" stroke="#999999" stroke-miterlimit="10" d="M16.608,32.68l-0.204-0.127l-0.165-0.102l-0.304-0.189l-0.35-0.216
	c0,0-0.909-0.452-1.048-0.696s-0.588-1.385-0.588-1.385s-0.45-1.048-0.45-1.187s0-0.778,0-0.778s-0.299-1.672-0.253-1.855
	c0.046-0.186,0.14-0.924,0.231-1.063s0.322-0.971,0.369-1.109s0.093-1.063,0.093-1.248s-0.092-1.017-0.185-1.202
	s-0.514-1.156-0.514-1.156s0.421-0.878,0.56-1.017s0.878-1.155,0.878-1.155l1.017-0.719l1.052-0.806c0,0,0.936-0.113,1.213-0.195
	s1.387-0.267,1.571-0.267s1.063,0.303,1.34,0.267s0.451,0.38,0.919,0.519s1.114,0.832,1.346,0.971s0.647,1.479,0.786,1.525
	s0.646,1.017,0.785,1.155s0.602,1.248,0.647,1.571c0.046,0.323,0.185,1.663,0,1.849s-0.323,0.832-0.416,1.018
	c-0.093,0.184-0.37,1.108-0.37,1.108l-0.601,0.971l-0.673,0.413l-0.806,0.604l-0.699,0.092l-1.149-0.045l-1.296,0.139l-0.691,0.276
	l-0.37,0.555c0,0,0.094,0.416,0.186,0.555s0.045,0.323,0.092,0.509c0.047,0.185-0.046,0.693-0.046,0.693l-0.277,0.646
	c0,0-0.324,0.602-0.509,0.693s-0.508,0.389-0.508,0.389C16.806,32.568,16.608,32.68,16.608,32.68z"/>
<g>
</g>
<g>
</g>
<g>
</g>
<g>
</g>
<g>
</g>
<g>
</g>
<g>
</g>
<g>
</g>
<g>
</g>
<g>
</g>
<g>
</g>
<g>
</g>
<g>
</g>
<g>
</g>
<g>
</g>
</svg>
