<?xml version="1.0" encoding="utf-8"?>
<!-- Generator: Adobe Illustrator 16.0.0, SVG Export Plug-In . SVG Version: 6.00 Build 0)  -->
<!DOCTYPE svg PUBLIC "-//W3C//DTD SVG 1.1//EN" "http://www.w3.org/Graphics/SVG/1.1/DTD/svg11.dtd">
<svg version="1.1" id="Слой_1" xmlns="http://www.w3.org/2000/svg" xmlns:xlink="http://www.w3.org/1999/xlink" x="0px" y="0px"
	 width="42px" height="42px" viewBox="0 0 42 42" enable-background="new 0 0 42 42" xml:space="preserve">
<path fill="#F2F2C2" stroke="#000000" stroke-miterlimit="10" d="M18.479,3.771c-0.907-0.145-2.376-0.458-3.573-0.218
	S11.24,5.802,10.6,6.255s-2.816,3.833-3.071,4.747s-1.534,5.499-1.534,5.499s-0.418,4.041-0.581,5.124
	c-0.163,1.083,0.042,3.298,0.419,3.958s4.375,7.666,4.375,7.666s0.75,0.5,1.793,0.5c1.041,0,2.834-0.542,3.75-0.75
	s4.178-0.329,4.709,0.084c0.53,0.412,1.875,1.458,1.875,1.458l2.207,2.25c0,0,1.043,1.167,1.834,1.625s1.625-0.083,2.416-0.458
	c0.793-0.375,2.959-3.292,3.084-3.375c0.125-0.084,2.459-3.209,2.459-3.209s1.658-2.23,1.957-3.291
	c0.299-1.063,0.667-2.175,0.771-3.417s0.438-5.208,0.438-5.208s0-3.417,0-4.458s-0.752-3.417-0.752-3.417S36.02,8.954,35,8.25
	s-2.709-1.792-3.5-2.417s-3.826-1.465-4.584-1.667c-0.125,0-3.641-0.724-4.625-0.615C21.308,3.661,19.387,3.916,18.479,3.771z"/>
<path fill="none" stroke="#000000" stroke-miterlimit="10" d="M18.584,20.208c-0.125,0.125,3.332,4.583,3.332,4.583l0.918,1
	c0,0-0.77,2.958-1.406,3.25s-5.303-0.001-6.053,0.583s-2.797,4.082-2.797,4.082"/>
<path fill="none" stroke="#000000" stroke-miterlimit="10" d="M16.209,24.209c0,0-0.625-0.001-1.084,0.916s0.25,4.5,0.25,4.5"/>
<path fill="none" stroke="#000000" stroke-miterlimit="10" d="M28.291,24.209c0,0-0.582,0.958-1.791,1.333s-3.666,0.25-3.666,0.25"
	/>
<line fill="none" stroke="#000000" stroke-miterlimit="10" x1="24.5" y1="32" x2="21.498" y2="28.88"/>
<path fill="#FFFFFF" stroke="#999999" stroke-miterlimit="10" d="M11.436,27.51c0,0-0.925-1.456-1.017-1.698
	s-0.555-1.813-0.555-2.044c0-0.231-0.139-1.617,0-1.803c0.139-0.185,0.208-1.602,0.358-1.702s1.074-1.256,1.213-1.395
	s0.786-1.71,0.786-1.71s0.508-1.525,0.646-1.664s1.168-1.433,1.347-1.479S15.5,13.23,15.5,13.23s1.529-0.786,1.667-0.739
	s2.727-0.002,2.727-0.002l2.541,0.603l2.066,1.571l1.704,1.571l1.406,1.294l1.849,2.039l0.369,0.965l-0.191,1.895l-0.779,1.433
	l-0.992,0.857c0,0-1.118,0.735-1.155,0.75c-0.037,0.016-1.365,0.057-1.734,0.103s-0.97,0.093-1.386-0.046s-1.368-0.74-1.424-0.879
	s-0.24-0.831-0.24-0.831s0.046-0.832,0.046-0.971s-0.185-0.832-0.185-0.832l-0.36-0.982c-0.426-0.126-0.931-0.004-1.118,0
	c-0.509,0.012-0.879,0.335-0.879,0.335c-0.323,0.462-0.409,0.924-0.409,0.924l-0.191,0.555c0,0-0.362,0.601-0.481,0.601
	s-0.616-0.23-0.616-0.23l-0.474-0.416c-0.369-0.093-1.05,0.369-1.05,0.369c-0.013,0.324-0.334,1.043-0.334,1.043L15.5,24.583
	l-0.454,0.776l-0.074,0.904l0.061,1.025l0.109,0.92l-0.171,0.671l-0.438,0.941l-0.601,0.618c0,0-0.601-0.213-0.739,0
	s-0.65,0.26-0.65,0.26l-0.598-0.26l-0.462-0.572c-0.139-0.369-0.093-0.601-0.093-0.601c0.139-0.509,0.462-1.017,0.462-1.017
	l-0.185-0.463L11.436,27.51z"/>
<g>
</g>
<g>
</g>
<g>
</g>
<g>
</g>
<g>
</g>
<g>
</g>
<g>
</g>
<g>
</g>
<g>
</g>
<g>
</g>
<g>
</g>
<g>
</g>
<g>
</g>
<g>
</g>
<g>
</g>
</svg>
