<?xml version="1.0" encoding="utf-8"?>
<!-- Generator: Adobe Illustrator 16.0.0, SVG Export Plug-In . SVG Version: 6.00 Build 0)  -->
<!DOCTYPE svg PUBLIC "-//W3C//DTD SVG 1.1//EN" "http://www.w3.org/Graphics/SVG/1.1/DTD/svg11.dtd">
<svg version="1.1" id="Слой_1" xmlns="http://www.w3.org/2000/svg" xmlns:xlink="http://www.w3.org/1999/xlink" x="0px" y="0px"
	 width="42px" height="42px" viewBox="0 0 42 42" enable-background="new 0 0 42 42" xml:space="preserve">
<path fill="#F2F2C2" stroke="#000000" stroke-miterlimit="10" d="M15.827,7.25c-0.922-0.24-2.625-0.791-3.726-0.458
	C11,7.125,9.268,8.717,9.029,9.646C8.792,10.575,7.5,14.833,7.5,15.625S7.5,20,7.5,20s0.217,5.383,0.459,6.334
	C8.201,27.283,8.385,29.826,9,30.417s2.61,2.969,3.292,3.167c0.682,0.197,1.624,0.791,2.583,0.75C15.834,34.292,19,32.333,19.75,32
	s2.166-0.334,2.625,0.125s2.5,2.5,2.5,2.5s1.55,1.537,2.25,1.5s4.16,0.302,4.792-0.25s2.651-1.891,2.958-2.583
	s1.737-3.667,2.015-4.542s0.61-5.042,0.61-6s0-4.75,0-4.75s-0.323-3.838-0.583-4.583s-0.875-2.625-1.25-3.583s-1.167-1.5-2.25-1.958
	s-4.375-0.833-4.375-0.833s-6.708-0.25-5.833-0.417s-3.289,0.058-4.125,0.25C18.246,7.067,16.749,7.49,15.827,7.25z"/>
<path fill="none" stroke="#000000" stroke-miterlimit="10" d="M17.896,22.033c0,0-2.135,2.484-2.553,3.025s-1.417,1.792-1.943,2.513
	c-0.525,0.721-0.609,1.221-0.9,2.471s-0.292,3.291,0,3.958"/>
<path fill="none" stroke="#000000" stroke-miterlimit="10" d="M28.25,21.75c0,0,0,2.667-1.208,2.209
	c-1.208-0.459-2.958-0.209-3.583,0.666s-0.668,3-0.584,3.834c0.084,0.833-1.015,3.281-1.66,3.309"/>
<path fill="none" stroke="#000000" stroke-miterlimit="10" d="M29.167,26.25c-0.5-0.041-1.5,1.708-2.375,2.125
	s-3.917,0.084-3.917,0.084"/>
<path fill="#FFFFFF" stroke="#999999" stroke-miterlimit="10" d="M15.174,33.134l-1.695-0.415c0,0-0.362-1.387-0.362-1.525
	s0.258-1.872,0.258-1.872l0.659-1.536c0,0,1.115-1.111,1.347-1.021s1.113-0.374,1.252-0.513s1.263-0.372,1.263-0.372l1.646,0.138
	c0,0,1.16-0.277,1.299-0.139s1.241,0.22,1.66,0.37s1.622-0.409,1.622-0.409l1.617-0.608l1.479,0.185l2.45,1.343l2.634,2.331
	l0.903,2.936L32.302,34l-1.664,0.5l-1.471,0.917l-1.718-0.435l-1.201-1.34l-0.899-1.201l-0.903-0.971l-0.832-0.999L22.5,30.509
	L21.215,30.5H20l-0.916,0.186l-1.188,0.877l-0.674,0.509l-1.084,1.017L15.174,33.134z"/>
<g>
</g>
<g>
</g>
<g>
</g>
<g>
</g>
<g>
</g>
<g>
</g>
<g>
</g>
<g>
</g>
<g>
</g>
<g>
</g>
<g>
</g>
<g>
</g>
<g>
</g>
<g>
</g>
<g>
</g>
</svg>
