<?xml version="1.0" encoding="utf-8"?>
<!-- Generator: Adobe Illustrator 16.0.0, SVG Export Plug-In . SVG Version: 6.00 Build 0)  -->
<!DOCTYPE svg PUBLIC "-//W3C//DTD SVG 1.1//EN" "http://www.w3.org/Graphics/SVG/1.1/DTD/svg11.dtd">
<svg version="1.1" id="Слой_1" xmlns="http://www.w3.org/2000/svg" xmlns:xlink="http://www.w3.org/1999/xlink" x="0px" y="0px"
	 width="42px" height="42px" viewBox="0 0 42 42" enable-background="new 0 0 42 42" xml:space="preserve">
<path fill="#F2F2C2" stroke="#000000" stroke-miterlimit="10" d="M9.625,9C8.859,9.374,8,9.666,7.438,10.521
	s-0.489,5.844-0.489,5.844s0.441,5.369,0.63,6.172c0.188,0.803,1.023,4.355,1.023,4.355s1.332,7.084,1.532,7.763
	s1.2,1.511,1.7,1.845s2.541,0.291,3.166,0s1.625-2,2.167-2.416c0.542-0.417,3-0.459,3.625-0.459s1.541,0.584,2.083,0.834
	s1.417,1.749,1.959,2.041c0.541,0.292,4.457,0.333,5.166,0s4.625-5.375,5.042-6.541C35.459,28.792,35.5,24,35.5,24s-0.042-4.125,0-5
	s-1.458-6.708-1.666-7.375c-0.209-0.667-4.334-4.5-5.167-4.958s-8.458-0.458-8.458-0.458s-5.375,0.042-6.542,0.417
	S10.391,8.626,9.625,9z"/>
<path fill="none" stroke="#000000" stroke-miterlimit="10" d="M23.542,26.417c0,0-0.333,2.792-0.5,3.5s-2.909,3.688-3.7,3.754
	c-0.792,0.066-1.759-2.005-2.217-2.671s1.283-2.549,1.834-3.083s1.375-1.333,1.375-1.333"/>
<path fill="#FFFFFF" stroke="#999999" stroke-miterlimit="10" d="M12.43,35.5c-0.098,0-1.095-1.966-1.095-1.966l-0.405-2.771
	l0.448-3.393l1.75-1.871H15c0,0,1.493,1.16,1.493,1.287s0.952,1.588,0.952,1.683s1.206,1.048,1.206,1.048s1.556,0.19,1.571,0.19
	s1.794,0.127,1.794,0.127s1.746-0.413,1.841-0.413s1.732,0.286,1.732,0.286l1.601,0.698l1.111,1.238l0.793,1.492l0.254,0.951
	l-0.107,1.233c0,0-2.938,0.05-3.162,0.228s-1.108-0.571-1.108-0.571l-1.209-1.271l-2.381-1.27l-1.589,0.188l-2.22,0.447
	l-2.335,1.105l-0.782,0.791l-1.01,0.531H12.43z"/>
<g>
</g>
<g>
</g>
<g>
</g>
<g>
</g>
<g>
</g>
<g>
</g>
<g>
</g>
<g>
</g>
<g>
</g>
<g>
</g>
<g>
</g>
<g>
</g>
<g>
</g>
<g>
</g>
<g>
</g>
</svg>
