<?xml version="1.0" encoding="utf-8"?>
<!-- Generator: Adobe Illustrator 16.0.0, SVG Export Plug-In . SVG Version: 6.00 Build 0)  -->
<!DOCTYPE svg PUBLIC "-//W3C//DTD SVG 1.1//EN" "http://www.w3.org/Graphics/SVG/1.1/DTD/svg11.dtd">
<svg version="1.1" id="Слой_1" xmlns="http://www.w3.org/2000/svg" xmlns:xlink="http://www.w3.org/1999/xlink" x="0px" y="0px"
	 width="42px" height="42px" viewBox="0 0 42 42" enable-background="new 0 0 42 42" xml:space="preserve">
<path fill="#F2F2C2" stroke="#000000" stroke-miterlimit="10" d="M11.625,14.359c0,0-0.01-0.534,0.112-0.869
	s6.239-7.325,6.618-7.658s1.313-0.675,1.313-0.675s3.769-0.292,4.113-0.232s1.315,0.639,1.588,0.849
	c0.271,0.21,5.117,6.773,5.304,7.234s-0.586,20.954-0.849,21.378c-0.262,0.426-2.355,1.757-2.84,1.904
	c-0.484,0.146-9.838-0.065-10.349-0.146c-0.511-0.082-4.729-2.412-5.136-3.075S11.625,14.359,11.625,14.359z"/>
<path fill="#F2F2F2" stroke="#999999" stroke-miterlimit="10" d="M16.5,18v-0.474v-1.017c0,0,0.692-0.425,0.924-0.926
	c0.231-0.5,0.51-1.338,0.51-1.338s0.601-0.924,1.109-1.155s0.184-0.138,1.201-0.462S22,12.165,22.37,12.165s1.387,0.555,1.387,0.555
	l1.34,1.525c0,0,0.409,0.955,0.456,1.24S25.5,17.642,25.5,18s0,3,0,3l-0.403,2.488l-1.201,1.709l-0.693,1.572
	c0,0,0.786,0.971,0.647,1.432c-0.139,0.463-1.201,1.387-1.71,1.434c-0.509,0.046-1.526-0.232-1.896-0.277
	c-0.369-0.047-1.201-1.018-1.201-1.018l0.231-2.125l0.415-1.434l-0.831-1.201l-1.387-0.323L16.5,22.051l-0.6-1.148l0.185-1.158
	l0.462-1.017l0.139-1.294"/>
<g>
</g>
<g>
</g>
<g>
</g>
<g>
</g>
<g>
</g>
<g>
</g>
<g>
</g>
<g>
</g>
<g>
</g>
<g>
</g>
<g>
</g>
<g>
</g>
<g>
</g>
<g>
</g>
<g>
</g>
</svg>
