<?xml version="1.0" encoding="utf-8"?>
<!-- Generator: Adobe Illustrator 16.0.0, SVG Export Plug-In . SVG Version: 6.00 Build 0)  -->
<!DOCTYPE svg PUBLIC "-//W3C//DTD SVG 1.1//EN" "http://www.w3.org/Graphics/SVG/1.1/DTD/svg11.dtd">
<svg version="1.1" id="Слой_1" xmlns="http://www.w3.org/2000/svg" xmlns:xlink="http://www.w3.org/1999/xlink" x="0px" y="0px"
	 width="42px" height="42px" viewBox="0 0 42 42" enable-background="new 0 0 42 42" xml:space="preserve">
<path fill="#F2F2C2" stroke="#000000" stroke-miterlimit="10" d="M13.318,32.02c-0.316-0.453,0.41-19.035,0.705-19.701
	c0.297-0.666,4.043-4.992,4.043-4.992s2.021-2.209,2.666-2.544s1.845-0.439,2.402-0.211c0.557,0.228,2.782,3.043,2.899,3.131
	s2.009,3.602,2.308,4.098s1.158,3.864,1.158,4.216s0.227,16.759,0,16.984s-1.475,1.643-1.885,1.877s-9.313-0.117-9.371,0
	S14.76,33.5,14.76,33.5S13.635,32.473,13.318,32.02z"/>
<path fill="#F2F2F2" stroke="#999999" stroke-miterlimit="10" d="M22.078,7.312c0,0-0.575,0.441-0.807,0.534
	s-1.026,1.099-1.026,1.099s-0.536,1.058-0.491,1.612c0.047,0.554,0.218,1.522,0.218,1.522l0.595,1.016c0,0,1.15,0.831,1.289,0.923
	s0.554,0.878,0.554,0.878l0.276,1.709c0,0,0.368,0.786,0.646,0.971s1.248,0,1.248,0s0.786-0.416,0.832-0.555
	s0.591-0.693,0.683-0.878c0.094-0.185,0.406-0.739,0.406-0.739V14l-0.72-1.276l-0.693-1.155l-0.508-1.202
	c0,0-0.092-0.832-0.185-0.971s-0.324-0.97-0.324-0.97l-0.462-0.601l-0.491-0.32L22.314,7.5H22"/>
<g>
</g>
<g>
</g>
<g>
</g>
<g>
</g>
<g>
</g>
<g>
</g>
<g>
</g>
<g>
</g>
<g>
</g>
<g>
</g>
<g>
</g>
<g>
</g>
<g>
</g>
<g>
</g>
<g>
</g>
</svg>
