<?xml version="1.0" encoding="utf-8"?>
<!-- Generator: Adobe Illustrator 16.0.0, SVG Export Plug-In . SVG Version: 6.00 Build 0)  -->
<!DOCTYPE svg PUBLIC "-//W3C//DTD SVG 1.1//EN" "http://www.w3.org/Graphics/SVG/1.1/DTD/svg11.dtd">
<svg version="1.1" id="Слой_1" xmlns="http://www.w3.org/2000/svg" xmlns:xlink="http://www.w3.org/1999/xlink" x="0px" y="0px"
	 width="42px" height="42px" viewBox="0 0 42 42" enable-background="new 0 0 42 42" xml:space="preserve">
<path fill="#F2F2C2" stroke="#000000" stroke-miterlimit="10" d="M14.406,9.847c0,0,0.029-0.044,0.085-0.126
	c0.649-0.969,4.812-7.169,4.887-7.169c0.088,0,1.288-1.318,2.236-1.247s1.786,0.82,2.349,1.266c0.562,0.445,3.277,3.96,3.547,4.542
	s2.816,5.948,2.99,6.534s0.135,9.78,0,10.354s-1.545,6.943-1.7,7.276s-2.261,5.304-2.636,5.682s-3.711,3.632-3.711,3.632
	s-4.547-6.385-4.84-6.707s-1.787-0.439-2.227-0.615s-2.197-2.431-2.665-3.484c-0.468-1.055-0.059-16.664,0.322-17.806
	s1.392-2.175,1.392-2.175"/>
<path fill="#F2F2F2" stroke="#999999" stroke-miterlimit="10" d="M22.33,37.516l-0.396-0.63l-0.309-0.931l-0.336-0.652l-0.478-0.695
	c0,0-0.517-0.604-0.747-0.834s-0.512-0.51-0.512-0.51s-0.418-0.369-0.557-0.461c-0.139-0.094-0.371-0.463-0.371-0.463
	s-0.586-0.602-0.678-0.74c-0.094-0.139-0.447-0.832-0.447-0.832v-1.033l0.447-0.862l0.399-1.154l0.463-1.155l0.555-1.109
	l0.831-0.971l0.509-0.555l0.419-0.877l0.736-1.089l0.231-0.418l1.294-1.044H24l0.783-0.13c0,0,0.82,0.416,1.005,0.786
	s1.063,1.341,1.063,1.341l0.648,1.201V25l-0.141,1.887c0,0-0.417,1.636-0.324,2.065s-0.139,1.39-0.139,1.39s-0.277,0.797-0.323,0.98
	c-0.046,0.186-0.416,1.711-0.416,1.711l-0.739,1.072l-0.647,1.238l-0.508,0.646l-0.601,0.555L22.5,37.33"/>
<g>
</g>
<g>
</g>
<g>
</g>
<g>
</g>
<g>
</g>
<g>
</g>
<g>
</g>
<g>
</g>
<g>
</g>
<g>
</g>
<g>
</g>
<g>
</g>
<g>
</g>
<g>
</g>
<g>
</g>
</svg>
