<?xml version="1.0" encoding="utf-8"?>
<!-- Generator: Adobe Illustrator 16.0.0, SVG Export Plug-In . SVG Version: 6.00 Build 0)  -->
<!DOCTYPE svg PUBLIC "-//W3C//DTD SVG 1.1//EN" "http://www.w3.org/Graphics/SVG/1.1/DTD/svg11.dtd">
<svg version="1.1" id="Слой_1" xmlns="http://www.w3.org/2000/svg" xmlns:xlink="http://www.w3.org/1999/xlink" x="0px" y="0px"
	 width="42px" height="42px" viewBox="0 0 42 42" enable-background="new 0 0 42 42" xml:space="preserve">
<path fill="#F2F2C2" stroke="#000000" stroke-miterlimit="10" d="M19.024,4.833c0.644-0.205,4.246-0.41,4.803-0.293
	s3.134,1.699,3.661,2.05s2.869,3.69,2.869,3.69s2.344,3.865,2.549,4.51s0.645,14.908,0.527,15.698s-2.813,3.982-3.193,4.334
	c-0.38,0.352-1.275,0.489-1.902,0.352c-0.628-0.138-2.168-0.79-2.813-0.614c-0.645,0.175-1.99,1.463-2.547,1.961
	s-2.373,0.996-2.9,1.143s-1.434-0.088-2.313-0.469s-4.136-4.291-4.599-4.979s-2.606-3.631-2.899-4.305s-1.113-6.18-1.143-7.439
	s0.355-5.05,0.557-5.799s0.732-3.338,1.143-4.246s1.787-3.076,2.401-3.485S18.381,5.038,19.024,4.833z"/>
<path fill="none" stroke="#000000" stroke-miterlimit="10" d="M17.15,27.178c0,0-0.059,1.406,0.41,1.875
	c0.468,0.468,3.561,0.761,3.728,0.79c0.46,0.352,0.606,1.405,0.929,1.786s1.461,0.483,1.962,0.762s1.669,2.131,1.583,2.141"/>
<path fill="none" stroke="#000000" stroke-miterlimit="10" d="M27.313,27.646c0.117,0.059,1.084,3.045,0.908,3.338
	s-2.432,0.439-2.813,0.586s-0.826,1.34-0.826,1.34"/>
<path fill="#F2F2F2" stroke="#999999" stroke-miterlimit="10" d="M23.576,30.803l-0.975-1.541l-0.479-0.549l-0.85-0.32
	c0,0-0.561-0.367-0.791-0.459c-0.23-0.093-0.736-0.756-0.736-0.756l-0.414-0.723l-0.288-0.822l-0.265-0.934l0.186-1.294l0.646-0.509
	l0.739-0.461l0.938-0.416l0.542-0.462c0,0,0.324-0.509,0.416-0.74s0.139-1.155,0.139-1.155l0.277-1.155l0.646-0.74l0.509-0.277
	l1.386-0.509c0,0,1.698-0.092,1.797-0.046s1.531,0.406,1.531,0.406l1.008,0.618l0.961,1.703V21l0.064,1.574l-0.139,1.314
	l-0.37,0.857l-0.526,0.739l-0.49,0.046c0,0-0.97,0.139-1.34,0.139s-0.925,0.093-0.925,0.093l-0.555,0.185l-0.23,0.463
	c0,0,0.384,0.704,0.423,0.768s0.178,0.469,0.178,0.469l0.093,0.981c-0.231,0.647-0.555,0.925-0.555,0.925l-0.647,0.48L24.926,30.5
	H24l-0.46-0.222"/>
<g>
</g>
<g>
</g>
<g>
</g>
<g>
</g>
<g>
</g>
<g>
</g>
<g>
</g>
<g>
</g>
<g>
</g>
<g>
</g>
<g>
</g>
<g>
</g>
<g>
</g>
<g>
</g>
<g>
</g>
</svg>
