<?xml version="1.0" encoding="utf-8"?>
<!-- Generator: Adobe Illustrator 16.0.0, SVG Export Plug-In . SVG Version: 6.00 Build 0)  -->
<!DOCTYPE svg PUBLIC "-//W3C//DTD SVG 1.1//EN" "http://www.w3.org/Graphics/SVG/1.1/DTD/svg11.dtd">
<svg version="1.1" id="Слой_1" xmlns="http://www.w3.org/2000/svg" xmlns:xlink="http://www.w3.org/1999/xlink" x="0px" y="0px"
	 width="42px" height="42px" viewBox="0 0 42 42" enable-background="new 0 0 42 42" xml:space="preserve">
<path fill="#F2F2C2" stroke="#000000" stroke-miterlimit="10" d="M22.832,2.95l0.186,0.014c0,0,2.742,0.132,3.436,0.252
	c0.694,0.121,3.979,2.901,3.979,2.901s3.369,5.038,3.645,5.697s0.898,6.788,0.898,6.788s0.357,5.554,0.289,6.087
	c-0.067,0.533-0.705,5.738-1.086,6.325c-0.379,0.587-1.826,3.11-2.49,3.132s-2.986-0.586-3.515-0.264s-0.849,3.163-1.64,3.602
	c-0.791,0.439-5.154,0.82-5.975,0.791s-4.247-1.699-4.247-1.699s-3.632-2.254-3.72-2.313s-2.137-1.729-2.752-2.402
	s-1.354-4.177-1.241-3.631S8.5,23.311,8.5,23.311V17l0.549-4.936l0.996-2.431c0,0,0.818-1.904,1.492-2.665s1.816-1.435,1.904-1.464
	s2.226-1.318,2.226-1.318s2.255-0.82,2.343-0.85S22.832,2.95,22.832,2.95z"/>
<path fill="none" stroke="#000000" stroke-miterlimit="10" d="M18.127,24.599c-0.088,0.264,3.516,5.623,4.013,5.975
	s3.356,0.173,3.485,0s0.146-3.456,0.146-3.456l-2.021,0.146"/>
<path fill="none" stroke="#000000" stroke-miterlimit="10" d="M18.918,33.414c0.234,0.029,2.577-0.264,2.577,0
	s0.645-2.841,0.645-2.841"/>
<path fill="#F2F2F2" stroke="#999999" stroke-miterlimit="10" d="M10.594,26.077l0.356-0.149l1.28-0.428H14
	c0,0,0.771-0.396,0.91-0.258s0.693,0.416,0.971,0.647s0.818,0.441,0.825,0.775s0.7,1.351,0.7,1.351l0.719,0.508l0.575,0.602
	l0.785,0.739l0.324,0.709c0.185,0.4,0,0.771,0,0.771l-1.479,0.97c-0.462,0.509-0.555,1.032-0.555,1.116
	c0,0.086,0.35,0.844,0.35,0.844l0.793,0.227h0.974H21c0,0,0.73,0.102,0.948-0.072c0.218-0.173,0.541-0.357,0.772-0.496
	S23.5,33.43,23.5,33.43l0.33-0.746l0.555-0.682c0,0,0.508-0.267,0.739,0c0.231,0.266,0.851,0.82,0.851,0.82s0.525,1.02,0.525,1.295
	s0,0.883,0,0.883s-0.572,0.779-0.85,0.918s-0.711,0.277-1.127,0.37s-1.248,0.083-1.248,0.083L22.14,36.5H21l-1.283-0.027
	L18.918,36.5l-1.466-0.396c0,0-1.156-0.74-1.387-0.879s-0.601-0.797-0.601-0.797l-0.924-0.589L13.57,33.1l-0.832-0.879l-0.601-0.785
	l-0.693-0.66l-0.851-0.772L9.5,28.986V28l0.327-0.313c0,0,0.508-0.596,0.601-0.827S10.594,26.077,10.594,26.077z"/>
<g>
</g>
<g>
</g>
<g>
</g>
<g>
</g>
<g>
</g>
<g>
</g>
<g>
</g>
<g>
</g>
<g>
</g>
<g>
</g>
<g>
</g>
<g>
</g>
<g>
</g>
<g>
</g>
<g>
</g>
</svg>
