<?xml version="1.0" encoding="utf-8"?>
<!-- Generator: Adobe Illustrator 16.0.0, SVG Export Plug-In . SVG Version: 6.00 Build 0)  -->
<!DOCTYPE svg PUBLIC "-//W3C//DTD SVG 1.1//EN" "http://www.w3.org/Graphics/SVG/1.1/DTD/svg11.dtd">
<svg version="1.1" id="Слой_1" xmlns="http://www.w3.org/2000/svg" xmlns:xlink="http://www.w3.org/1999/xlink" x="0px" y="0px"
	 width="42px" height="42px" viewBox="0 0 42 42" enable-background="new 0 0 42 42" xml:space="preserve">
<path fill="#F2F2C2" stroke="#000000" stroke-miterlimit="10" d="M25.556,3.853c0.841,0.069,3.895,0.322,4.656,0.644
	s2.446,1.669,2.929,2.373s3.191,4.597,3.396,5.447s0.469,12.272,0.439,13.121s-3.455,6.618-4.041,7.438s-0.867,0.621-1.669,0.703
	c-0.06-0.029-6.707-0.586-6.707-0.586s-2.05-0.381-2.782,0.146s-3.163,4.246-3.836,4.744c-0.674,0.498-1.875,0.586-2.871,0.439
	c-0.995-0.146-8.756-10.426-9.195-11.686c-0.439-1.259,0.117-7.644,0.117-7.644s0.586-5.359,0.85-6.179s2.313-3.719,2.401-3.778
	s2.548-2.343,3.222-2.782s3.631-1.259,4.393-1.494S24.715,3.783,25.556,3.853z"/>
<path fill="none" stroke="#000000" stroke-miterlimit="10" d="M18.5,22c0,0-0.408,2.125,0,3s2.576-0.324,3,0.407
	s-0.57,2.852,0,3.593s6.545,0.068,6.896,0.215s1.054,4.193,1.054,4.193"/>
<path fill="#F2F2F2" stroke="#999999" stroke-miterlimit="10" d="M25.393,31.212c-0.147-0.021-0.307-0.018-0.464,0.001
	c-0.532,0.061-1.044,0.287-1.044,0.287H23h-1.343H21l-0.775,0.477l-0.509,0.462L19.3,32.993l-0.845,0.601
	c-0.079,0.463-0.727,1.295-0.727,1.295l-0.555,0.415c0,0-0.555,0.277-0.693,0.277s-1.34-0.323-1.34-0.323l-0.693-0.785
	c0,0-1.11-0.231-0.994-0.509s-0.365-1.109-0.365-1.109L12.5,31.977V31v-0.456V30l0.33-0.936l0.42-0.961l0.504-0.604H15l0.464,0.41
	l0.786,0.184c0,0,0.6,0.555,0.785,0.693s0.556,0.324,0.74,0.416c0.185,0.093,0.68,0.126,0.68,0.126L19.3,29.5H20l0.825,0.396
	l0.518-0.23l0.542-0.469c0.28-0.363,0.474-0.732,0.474-0.732l0.315-0.463c0,0,0.323-0.646,0.462-1.063s0.555-1.341,0.555-1.341
	l0.601-1.201l0.639-1.294L25.678,22l0.873-1.115l1.417-1.017l1.223-0.693l1.71-0.462c0,0,1.57-0.185,1.802,0
	s0.925,0.647,0.925,0.647s0.693,0.555,0.878,1.063s0,1.94,0,1.94l0.082,1.248l-0.591,0.693l-0.601,0.555l-0.739,0.277l-0.832,0.186
	l-0.971,0.138l-1.123,0.139l-0.864,0.093l-0.898,0.323l-1.042,0.139c0,0-0.556,0.14-0.74,0.323
	c-0.185,0.186-0.554,0.629-0.554,0.629c-0.277,0.25-0.702,0.599-0.702,0.599c0.239,0.39,0.378,0.944,0.378,0.944
	s0.234,0.269,0.277,0.463s0.139,0.508,0.139,0.508l-0.092,0.646l-0.139,0.602l-0.563,0.693"/>
<g>
</g>
<g>
</g>
<g>
</g>
<g>
</g>
<g>
</g>
<g>
</g>
<g>
</g>
<g>
</g>
<g>
</g>
<g>
</g>
<g>
</g>
<g>
</g>
<g>
</g>
<g>
</g>
<g>
</g>
</svg>
