<?xml version="1.0" encoding="utf-8"?>
<!-- Generator: Adobe Illustrator 16.0.0, SVG Export Plug-In . SVG Version: 6.00 Build 0)  -->
<!DOCTYPE svg PUBLIC "-//W3C//DTD SVG 1.1//EN" "http://www.w3.org/Graphics/SVG/1.1/DTD/svg11.dtd">
<svg version="1.1" id="Слой_1" xmlns="http://www.w3.org/2000/svg" xmlns:xlink="http://www.w3.org/1999/xlink" x="0px" y="0px"
	 width="42px" height="42px" viewBox="0 0 42 42" enable-background="new 0 0 42 42" xml:space="preserve">
<path fill="#F2F2C2" stroke="#000000" stroke-miterlimit="10" d="M31.654,6c0.811,0.246,2.078,1.376,2.411,1.558
	s1.759,2.342,1.909,2.858c0.152,0.516,0.293,15.992,0.164,16.806s-1.592,4.299-1.998,4.649c-0.406,0.35-2.523,2.416-3.051,2.629
	s-1.76,0.197-2.09,0s-2.83-1.721-3.357-2.014s-2.08-0.762-2.637-0.674s-1.996,1.699-2.431,1.992s-2.812,2.079-3.31,2.226
	s-3.293,0.352-3.901,0.146s-5.585-6.18-5.864-6.882c-0.279-0.703-0.265-7.205-0.265-7.205s-0.073-9.107,0.015-9.781
	s1.553-2.46,1.992-2.958s3.424-2.236,4.041-2.408s4.51-1.281,5.184-1.442S27,5.5,27,5.5S30.844,5.754,31.654,6z"/>
<path fill="none" stroke="#000000" stroke-miterlimit="10" d="M17.371,22.219c0,0,3.795,2.097,4.129,2.712s-0.393,2.479,0,3.069
	s1.564,2.349,1.564,2.349s0.832,1.151,0.636,1.513"/>
<path fill="none" stroke="#000000" stroke-miterlimit="10" d="M16.358,28.943c0.263-0.322,1.142-1.494,1.874-1.758S21.5,28,21.5,28"
	/>
<path fill="none" stroke="#000000" stroke-miterlimit="10" d="M23.475,22.219c0,0-2.4,2.111-2.299,2.5"/>
<path fill="#F2F2F2" stroke="#999999" stroke-miterlimit="10" d="M28.729,32.386l0.381,0.06l0.823,0.126c0,0,2.059-0.281,2.151-0.42
	s0.89-1.341,0.89-1.341l0.972-1.571c0,0,0.554-1.479,0.554-1.618s0-1.621,0-1.621v-1l-0.496-1.531l0.093-2.623l0.046-1.497
	l-0.462-1.756l-1.048-2.126l-0.339-1.202l-1.438,0.416l-0.919,0.971l-0.828,1.802l0.505,1.802l-0.093,1.34
	c0,0-0.362,0.601-0.412,0.647s-0.836,0.508-0.836,0.508l-0.601,0.093l-0.878,0.374c0,0-0.739,0.781-0.878,0.92
	s-0.879,0.555-0.879,0.555l-0.854,1.479c0,0,0.023,1.063,0,1.201s0.394,1.492,0.439,1.671s0.369,1.61,0.369,1.61
	s0.277,0.74,0.555,0.832c0.277,0.093,1.617,1.318,1.756,1.375c0.139,0.059,0.878,0.623,1.017,0.71s0.37-0.421,0.37-0.421"/>
<g>
</g>
<g>
</g>
<g>
</g>
<g>
</g>
<g>
</g>
<g>
</g>
<g>
</g>
<g>
</g>
<g>
</g>
<g>
</g>
<g>
</g>
<g>
</g>
<g>
</g>
<g>
</g>
<g>
</g>
</svg>
