<?xml version="1.0" encoding="utf-8"?>
<!-- Generator: Adobe Illustrator 16.0.0, SVG Export Plug-In . SVG Version: 6.00 Build 0)  -->
<!DOCTYPE svg PUBLIC "-//W3C//DTD SVG 1.1//EN" "http://www.w3.org/Graphics/SVG/1.1/DTD/svg11.dtd">
<svg version="1.1" id="Слой_1" xmlns="http://www.w3.org/2000/svg" xmlns:xlink="http://www.w3.org/1999/xlink" x="0px" y="0px"
	 width="42px" height="42px" viewBox="0 0 42 42" enable-background="new 0 0 42 42" xml:space="preserve">
<path fill="#F2F2C2" stroke="#000000" stroke-miterlimit="10" d="M32.59,8.188c0.331,0.169,0,0,0.657,0.344s1.483,1.854,1.688,2.435
	s-0.359,11.201-0.443,11.555c-0.084,0.353-1.082,4.545-1.139,4.631c-0.058,0.086-0.831,5.993-1.17,6.451
	c-0.34,0.459-1.959,0.947-1.801,0.896s-2.945,0.172-3.383,0s-1.413-0.834-1.801-1.183c-0.387-0.349-0.861-1.599-1.288-1.817
	s-1.536-0.078-1.911,0s-1.654,0.673-1.983,0.914c-0.329,0.242-1.44,1.773-1.689,2.086s-1.624,0.879-2.062,0.979
	c-1.462,0.333-0.599,0.186-2.291-0.172c-0.49-0.104-1.789-0.828-2.147-1.146s-1.563-2.592-1.775-2.921s-1.197-1.919-1.374-2.377
	c-0.178-0.457-0.172-2.662-0.172-2.662s-0.537-3.893-0.545-4.038c-0.007-0.146-0.143-2.892-0.143-2.892s-0.462-3.61-0.344-4.095
	s0.553-2.743,0.773-3.178s1.533-2.11,1.861-2.32s4.595-1.151,4.953-1.282c0.359-0.131,4.875-0.73,5.384-0.751
	s4.025-0.184,4.267-0.172s3.624,0.171,3.923,0.2S32.258,8.019,32.59,8.188z"/>
<path fill="none" stroke="#000000" stroke-miterlimit="10" d="M16.366,27.339c0,0,2.87,0.267,3.134,0.735s-0.41,1.391,0,1.926
	s1.873,0.887,1.873,0.887L22,31.5"/>
<path fill="none" stroke="#000000" stroke-miterlimit="10" d="M27.5,26c0,0,0.299,1.604,0,2s-3.11-0.452-3.373,0.367
	c-0.264,0.82,0.674,0.908,0.791,1.465S24.127,31.5,24.127,31.5"/>
<path fill="#FFFFFF" stroke="#999999" stroke-miterlimit="10" d="M14.057,34.109c-0.104-0.031-0.218-0.084-0.33-0.147
	c-0.383-0.218-0.759-0.555-0.759-0.555l-0.745-0.906l-0.436-0.964l-0.564-0.94l-0.376-1.168c0,0-0.445-1.018-0.501-1.156
	s0.146-0.658-0.002-0.931c-0.148-0.273-0.472-1.568-0.472-1.568L9.825,24.34l0.277-1.757l0.971-1.479l1.155-1.202l1.663-0.832
	l1.896-0.47l1.479-0.101h1.918c0,0,1.317,0.054,1.595,0.101c0.277,0.046,1.71,0.655,1.71,0.655l0.646,1.156l0.693,0.97l0.252,1.294
	c0,0,0.067,1.109,0,1.248s-0.206,0.785-0.206,0.785L23.273,26l-0.785,0.881L22,27.112l-1.176,0.227c0,0-0.277-0.134-0.555-0.227
	s-0.555-0.244-0.555-0.244L18.93,26.5H18.45l-0.676-0.078L17.312,26.5H17L16.366,26c-0.487,0.28-0.626,0.281-0.626,0.281
	l-0.046,0.646l0.185,0.411c0.416,0.56,1.089,0.883,1.089,0.883l0.437,0.278H18c0.375,0.045,0.236,0.507,0.236,0.507
	s-0.08,0.271,0.214,0.413c0.294,0.142,0.733,0.234,0.733,0.234s-0.104-0.285,0.19-0.234c0.295,0.049,0.803-0.32,0.803-0.32
	s0.509-0.19,0.647-0.35s0.601-0.298,0.601-0.298s0.041-0.277,0.575-0.093c0.534,0.186,0.719,0.134,0.812,0.391
	s0.277,0.67,0.277,0.67l0.23,0.558c-0.046,0.416-0.508,0.692-0.508,0.692S22.159,30.994,22,30.994s-0.991,0.186-0.991,0.186
	l-0.971,0.32l-0.554,0.188l-0.602,0.646l-0.433,0.555c-0.26,0.463-0.723,0.971-0.723,0.971c-0.462,0.186-1.108,0.25-1.108,0.25
	s-0.369,0.352-0.693,0.443s-0.879,0-0.879,0l-0.462,0.23c0,0-0.21,0.295-0.369-0.189s-0.951-0.871-0.872-0.85"/>
<g>
</g>
<g>
</g>
<g>
</g>
<g>
</g>
<g>
</g>
<g>
</g>
<g>
</g>
<g>
</g>
<g>
</g>
<g>
</g>
<g>
</g>
<g>
</g>
<g>
</g>
<g>
</g>
<g>
</g>
</svg>
