<?xml version="1.0" encoding="utf-8"?>
<!-- Generator: Adobe Illustrator 16.0.0, SVG Export Plug-In . SVG Version: 6.00 Build 0)  -->
<!DOCTYPE svg PUBLIC "-//W3C//DTD SVG 1.1//EN" "http://www.w3.org/Graphics/SVG/1.1/DTD/svg11.dtd">
<svg version="1.1" id="Слой_1" xmlns="http://www.w3.org/2000/svg" xmlns:xlink="http://www.w3.org/1999/xlink" x="0px" y="0px"
	 width="42px" height="42px" viewBox="0 0 42 42" enable-background="new 0 0 42 42" xml:space="preserve">
<path fill="#F2F2C2" stroke="#000000" stroke-miterlimit="10" d="M13.5,29c-0.353-0.692,0-17,0-17s1.58-3.85,2.604-4.5
	s9.271-0.374,9.896,0s2.107,1.928,2.426,2.951s-0.564,17.054-0.918,18.007s-3.777,4.816-4.131,5.215s-1.624,0.706-1.73,0.905
	c-0.105,0.199-3.318,0.153-3.989,0S13.853,29.692,13.5,29z"/>
<path fill="#F2F2F2" stroke="#999999" stroke-miterlimit="10" d="M25.021,26.067l-0.48,0.269c0,0-0.703,0.518-0.928,0.678
	S22.749,27.5,22.749,27.5h-1.088c-0.288,0-0.735,0.121-0.928,0.059c-0.192-0.064-0.864-0.23-0.864-0.23s-0.64-0.257-0.8-0.288
	s-0.896-0.607-0.896-0.607l-0.735-0.63l-0.416-0.811l-0.353-0.975c0,0-0.256-0.754-0.288-0.945s-0.191-0.864-0.224-1.12
	s0-1.216,0-1.216s0.097-0.704,0-0.832s-0.015-0.564-0.015-0.564s-0.113-0.449,0.271-0.742s0.736-0.356,0.832-0.581
	s0.128-0.448-0.032-0.704s-0.479-1.024-0.479-1.024l0.384-0.896l0.448-0.809l0.479-0.651l0.16-0.908l0.64-1.28l0.576-0.353
	l0.544-0.462l0.769-0.43h0.575l1.217,1.134l0.735,0.975l0.736,0.896c0,0,0.288,0.464,0.384,1.08s0.287,0.968,0.384,1.704
	s0.257,1.895,0.257,1.895s0.223,0.413,0.319,0.939s0.48,1.803,0.48,1.803l-0.225,1.699c0,0-0.287,0.544-0.319,0.832
	s-0.064,1.057-0.064,1.057l0.384,0.607c0,0,0.224,0.256,0,0.544s-0.384,0.448-0.544,0.608s-0.352,0.256-0.352,0.256"/>
<g>
</g>
<g>
</g>
<g>
</g>
<g>
</g>
<g>
</g>
<g>
</g>
<g>
</g>
<g>
</g>
<g>
</g>
<g>
</g>
<g>
</g>
<g>
</g>
<g>
</g>
<g>
</g>
<g>
</g>
</svg>
