<?xml version="1.0" encoding="utf-8"?>
<!-- Generator: Adobe Illustrator 16.0.0, SVG Export Plug-In . SVG Version: 6.00 Build 0)  -->
<!DOCTYPE svg PUBLIC "-//W3C//DTD SVG 1.1//EN" "http://www.w3.org/Graphics/SVG/1.1/DTD/svg11.dtd">
<svg version="1.1" id="Слой_1" xmlns="http://www.w3.org/2000/svg" xmlns:xlink="http://www.w3.org/1999/xlink" x="0px" y="0px"
	 width="42px" height="42px" viewBox="0 0 42 42" enable-background="new 0 0 42 42" xml:space="preserve">
<path fill="#F2F2C2" stroke="#000000" stroke-miterlimit="10" d="M13.5,28c-0.463-1.061,0-18,0-18s1.268-2.095,2.256-2.729
	s10.203-0.391,10.875,0c0.67,0.391,1.271,1.062,1.518,1.768c0.248,0.706-1.518,15.575-1.729,16.402s-4.802,7.558-5.438,8.059
	s-2.22,0.276-2.981,0S13.963,29.061,13.5,28z"/>
<path fill="#F2F2F2" stroke="#999999" stroke-miterlimit="10" d="M15,26.5h0.339h0.226l0.896-0.19l0.886-0.561l1.194-0.173
	l0.864-0.384l0.768-0.399l0.705-0.401l0.623-0.735V23c0,0,0.497,0.72-0.144-0.08s-0.641-0.8-0.641-0.8l0.018-0.48l-0.263-0.703
	l0.029-0.769V20l0.713-1.048l0.471-0.48c0,0,0.28-0.384,0.313-0.64s0.172-0.736,0.172-0.736l0.332-0.607V15.72
	c0,0-0.717-0.25-0.94-0.461s-0.826-0.915-0.826-0.915l-0.594-0.447c0,0-0.353-0.417-0.416-0.513s-0.768-0.416-0.768-0.416
	l-0.672-0.576l-0.928,0.16l-0.801,0.641l-0.352,0.416l-0.448,0.576c0,0-0.353,0.505-0.288,0.748s0.128,1.363,0.128,1.363
	l0.192,1.408c0,0,0.096,0.64,0.128,0.928s0.128,0.897,0.256,1.057s0.385,0.96,0.32,1.344s-0.448,1.088-0.448,1.088l-0.128,0.352
	l-0.032,0.641l0.032,1.376L15.5,25.256l-0.32,0.641c0,0,0.033,1.023,0.097,0.896"/>
<g>
</g>
<g>
</g>
<g>
</g>
<g>
</g>
<g>
</g>
<g>
</g>
<g>
</g>
<g>
</g>
<g>
</g>
<g>
</g>
<g>
</g>
<g>
</g>
<g>
</g>
<g>
</g>
<g>
</g>
</svg>
