<?xml version="1.0" encoding="utf-8"?>
<!-- Generator: Adobe Illustrator 16.0.0, SVG Export Plug-In . SVG Version: 6.00 Build 0)  -->
<!DOCTYPE svg PUBLIC "-//W3C//DTD SVG 1.1//EN" "http://www.w3.org/Graphics/SVG/1.1/DTD/svg11.dtd">
<svg version="1.1" id="Слой_1" xmlns="http://www.w3.org/2000/svg" xmlns:xlink="http://www.w3.org/1999/xlink" x="0px" y="0px"
	 width="42px" height="42px" viewBox="0 0 42 42" enable-background="new 0 0 42 42" xml:space="preserve">
<path fill="#F2F2C2" stroke="#000000" stroke-miterlimit="10" d="M14.415,31.527c0.475,0.846,2.754,2.612,3.433,3.018
	s7.313,0.248,7.897-0.009s4.478-7.213,4.755-8.024s0.075-12.548,0-13.512s-2.088-4.671-2.582-5.13s-3.143-1.413-3.143-1.413
	s-2.295,0.319-3.107,0.707c-0.812,0.388-1.553,1.448-2.295,1.589c-0.74,0.141-2.4-1.271-2.4-1.271L14.59,7.234
	c0,0-2.525,1.589-3.09,2.577S11.288,26.04,11.5,27S13.94,30.682,14.415,31.527z"/>
<path fill="none" stroke="#000000" stroke-miterlimit="10" d="M18.879,14.648c0-0.282-0.813-2.365-0.176-3.071
	c0.635-0.706,1.678,0.317,2.215-0.212c0.539-0.529-0.307-3.673,0.437-4.018"/>
<path fill="none" stroke="#000000" stroke-miterlimit="10" d="M15.984,12.213c0,0,0.776-1.413,1.588-1.483
	c0.813-0.07,2.456,0.741,2.456,0.741"/>
<path fill="#F2F2F2" stroke="#999999" stroke-miterlimit="10" d="M14.242,10.576c0.225-0.014,0.584,0.348,0.584,0.348
	s0.18,1.065,0.052,1.513s0.186,1.555,0.186,1.555l0.542,1.448l0.958,1.062l0.993,0.61l1.151,0.544l1.32,0.066l1.051-0.544
	l0.421-0.704V16v-1.03V14l0.599-0.15l0.48-0.604l0.8-0.333c0,0,0.031-0.407-0.064-0.888s-0.16-1.027-0.16-1.027
	s0.043-0.701,0.229-0.829s0.763-0.416,0.763-0.416s0.64-0.191,0.96-0.319s0.96,0,0.96,0l0.736,1.292l0.768,1.584l0.16,1.924
	c0,0,0.064,1.184,0.192,1.92s0.415,1.219,0.352,1.569s-0.257,0.862-0.288,1.278s-0.129,1.071-0.288,1.624s-0.287,1.033-0.607,1.385
	s-1.088,0.863-1.088,0.863l-0.929,0.801l-1.344,0.735l-1.567,0.32c0,0-0.32,0.064-0.608,0.16s-1.344,0-1.344,0l-1.752-0.769
	c0,0-0.418,0.064-0.453,0.032s-1.443-0.479-1.443-0.479c-0.224-0.32-0.832-1.088-1.12-1.376s-1.023-1.179-1.023-1.179l-0.672-0.646
	l-0.225-0.704c0,0-0.153-0.416-0.122-0.672c0.033-0.256,0.1-0.988,0.1-0.988V17l0.022-0.814l0.134-0.896l-0.156-0.8v-0.672
	l-0.357-0.904l-0.196-0.604c0,0-0.225-0.444,0-0.572s0.353-0.544,0.353-0.544l0.448-0.468c0,0,0.72-0.45,0.607-0.3"/>
<g>
</g>
<g>
</g>
<g>
</g>
<g>
</g>
<g>
</g>
<g>
</g>
<g>
</g>
<g>
</g>
<g>
</g>
<g>
</g>
<g>
</g>
<g>
</g>
<g>
</g>
<g>
</g>
<g>
</g>
</svg>
