<?xml version="1.0" encoding="utf-8"?>
<!-- Generator: Adobe Illustrator 16.0.0, SVG Export Plug-In . SVG Version: 6.00 Build 0)  -->
<!DOCTYPE svg PUBLIC "-//W3C//DTD SVG 1.1//EN" "http://www.w3.org/Graphics/SVG/1.1/DTD/svg11.dtd">
<svg version="1.1" id="Слой_1" xmlns="http://www.w3.org/2000/svg" xmlns:xlink="http://www.w3.org/1999/xlink" x="0px" y="0px"
	 width="42px" height="42px" viewBox="0 0 42 42" enable-background="new 0 0 42 42" xml:space="preserve">
<path fill="#F2F2C2" stroke="#000000" stroke-miterlimit="10" d="M20,33.5c0.943,0.271,5.231,0.153,6,0s2.287-1.953,2.887-2.73
	c0.601-0.777,1.413-4.309,1.942-5.579s-0.001-10.98-0.142-11.722s-1.906-3.196-1.906-3.196S27.121,7.78,26.697,7.5
	c-0.423-0.28-2.146-0.214-2.697,0s-1.102,1.696-1.68,1.449C21.74,8.702,20,7.961,20,7.961s-1.104-1.13-1.846-1.13
	c-0.742,0-2.296,1.201-2.473,1.236c-0.176,0.035-2.644,1.765-2.644,1.765s-2.282,2.684-2.538,3.602s-0.204,11.61,0,12.566
	s1.934,3.815,2.711,4.628C13.987,31.44,19.057,33.229,20,33.5z"/>
<path fill="none" stroke="#000000" stroke-miterlimit="10" d="M19.495,13.469c0.142-0.141,1.907-2.648,2.366-2.966
	s1.729-0.317,1.977-0.564S22.604,8.94,22.604,8.94l-3.531,0.645l-1.096-0.494"/>
<path fill="#F2F2F2" stroke="#999999" stroke-miterlimit="10" d="M25.77,10.956l-0.135,0.124l-0.705,0.647l-0.679,0.579
	l-0.391,0.271c0,0-0.864,0.475-0.911,0.635s-0.782,1.243-0.782,1.243l-0.462,1.021L21.5,16.383V17l0.157,1.548l-0.448,1.365
	l0.353,1.163c0,0,0.415,0.768,0.447,0.928s-0.095,1.152-0.159,1.408s0.257,1.28,0.416,1.632s0.701,0.672,0.687,0.96
	s0.337,0.225,0.241,0.896s0.034,0.895,0.673,1.119s1.343,0,1.343,0l1.216,0.1l0.736-0.131l0.64-0.32l0.32-0.288l0.512-0.479
	l0.064-0.769l-0.192-0.896c0,0,0.064-0.031,0.192-0.416s0.384-0.641,0.384-0.641s0.479-0.64,0.512-0.8s0-0.544,0-0.544
	s0.003-0.129-0.061-0.864S29.5,20.596,29.5,20.596V20v-1.1v-1.248l-0.12-1.12L29.177,15.7l-0.352-0.864l-0.096-0.8l-0.429-0.8
	l-0.147-0.769l-0.384-0.832l-0.544-0.84L26.841,10.5H26L25.77,10.956z"/>
<g>
</g>
<g>
</g>
<g>
</g>
<g>
</g>
<g>
</g>
<g>
</g>
<g>
</g>
<g>
</g>
<g>
</g>
<g>
</g>
<g>
</g>
<g>
</g>
<g>
</g>
<g>
</g>
<g>
</g>
</svg>
