<?xml version="1.0" encoding="utf-8"?>
<!-- Generator: Adobe Illustrator 16.0.0, SVG Export Plug-In . SVG Version: 6.00 Build 0)  -->
<!DOCTYPE svg PUBLIC "-//W3C//DTD SVG 1.1//EN" "http://www.w3.org/Graphics/SVG/1.1/DTD/svg11.dtd">
<svg version="1.1" id="Слой_1" xmlns="http://www.w3.org/2000/svg" xmlns:xlink="http://www.w3.org/1999/xlink" x="0px" y="0px"
	 width="42px" height="42px" viewBox="0 0 42 42" enable-background="new 0 0 42 42" xml:space="preserve">
<path fill="#F2F2C2" stroke="#000000" stroke-miterlimit="10" d="M18.789,38.791c0.141,0.035,4.59,0.212,5.209,0.063
	c0.618-0.148,5.896-5.19,6.398-5.794c0.504-0.604,1.683-5.174,1.683-5.174l2.394-6.383l0.598-2.15c0,0,0.211-8.086,0.174-8.684
	c-0.036-0.598-2.436-3.988-2.436-3.988s-2.543-2.506-2.648-2.506c-0.106,0-2.402-1.023-3.196-0.953s-3.337,1.906-3.337,1.906
	s-1.307,1.2-2.012,1.342c-0.707,0.142-2.931-0.706-2.931-0.706s-1.934-1.518-2.331-1.659c-0.396-0.142-1.695-0.636-2.365-0.636
	s-1.658,0.847-2.26,1.447c-0.6,0.601-1.447,4.413-1.447,4.413l-1.061,3.002c0,0-2.371,2.576-2.721,3.389S6.5,22,6.5,22
	s0.18,4.737,0.321,5.69s1.482,3.46,1.871,4.166s4.202,3.884,4.202,3.884L18.789,38.791z"/>
<path fill="none" stroke="#000000" stroke-miterlimit="10" d="M10.952,16.546c0.177-0.035,4.483-2.931,4.483-2.931l0.213-2.719
	c0,0,2.146,0.014,2.612-0.424s0.353-1.659,0.847-2.365c0.495-0.706,2.543-1.836,2.543-1.836"/>
<path fill="none" stroke="#000000" stroke-miterlimit="10" d="M24.651,10.332c0,0-2.718,0.529-3.672,0.494s-2.548-1.467-2.548-1.467
	l-4.797,0.671"/>
<path fill="none" stroke="#000000" stroke-miterlimit="10" d="M20.797,14.533c0,0-1.618,1.73-2.324,2.013s-1.166-0.389-1.871-0.813
	c-0.707-0.424-1.113-2.796-1.113-2.796"/>
<path fill="none" stroke="#000000" stroke-miterlimit="10" d="M26.84,8.602c0.106-0.035,1.13-1.129,1.66-1.659
	c0.529-0.53,0.953-1.729,1.059-2.507c0.106-0.777-0.918-2.613-0.918-2.613"/>
<path fill="#F2F2F2" stroke="#999999" stroke-miterlimit="10" d="M19.787,7.774c0.051-0.017,1.126-0.329,1.126-0.329l1.204,0.028
	l1.209,0.27c0,0,1.213-0.161,1.469-0.225s0.782-0.345,0.782-0.345s0.683-0.285,0.697-0.381s0.562-0.35,0.562-0.35l0.209-0.927
	l0.658-0.768l0.5-0.479c0,0,0.108-0.16,0.396-0.16s0.959,0.326,0.959,0.326s0.354,0.314,0.532,0.666s0.409,1.6,0.409,1.6v2.977
	l-0.863,1.926L28.728,12.5h-0.8l-1.088-0.063L25.655,12.5h-1.933H22l-0.729,1.113l-0.475,0.576l0.854,1.408
	c0,0-0.187,0.992-0.347,1.216s-0.438,0.607-0.507,0.8s-0.966,0.844-1.094,0.844S18.552,18.5,18.552,18.5H17l-0.24-0.503
	l-0.459-0.352l-0.661-0.353l-0.32-0.512c0,0-0.287-0.64-0.352-0.768s-0.256-0.192-0.416-0.32s-1.12-1.056-1.12-1.056
	s-0.704-0.641-0.832-0.896s-0.336-0.64-0.336-0.64l0.464-0.641l0.384-0.479l0.704-0.16c0,0,0.287,0.097,0.384-0.096
	s0.513-1.152,0.513-1.152s0.063-0.604,0.096-1.214s0.224-1.026,0.224-1.026s0.607-0.255,0.96-0.479s0.896-0.513,0.896-0.513
	l1.023-0.287l1.057,0.096l0.735,0.479l0.142-0.206"/>
<g>
</g>
<g>
</g>
<g>
</g>
<g>
</g>
<g>
</g>
<g>
</g>
<g>
</g>
<g>
</g>
<g>
</g>
<g>
</g>
<g>
</g>
<g>
</g>
<g>
</g>
<g>
</g>
<g>
</g>
</svg>
