<?xml version="1.0" encoding="utf-8"?>
<!-- Generator: Adobe Illustrator 16.0.0, SVG Export Plug-In . SVG Version: 6.00 Build 0)  -->
<!DOCTYPE svg PUBLIC "-//W3C//DTD SVG 1.1//EN" "http://www.w3.org/Graphics/SVG/1.1/DTD/svg11.dtd">
<svg version="1.1" id="Слой_1" xmlns="http://www.w3.org/2000/svg" xmlns:xlink="http://www.w3.org/1999/xlink" x="0px" y="0px"
	 width="42px" height="42px" viewBox="0 0 42 42" enable-background="new 0 0 42 42" xml:space="preserve">
<path fill="#F2F2C2" stroke="#000000" stroke-miterlimit="10" d="M8.603,32.532c-0.696-0.499-2.854-6.183-2.854-6.323
	c0,0-0.566-5.013-0.475-5.861c0.09-0.849,1.271-2.647,2.004-3.284c0.734-0.637,2.137-0.955,2.547-1.096
	c0.412-0.141,0.676-1.377,0.676-1.377s-0.16-2.875,0-3.591s2.031-3.116,2.666-3.435c0.636-0.318,2.613-0.459,2.613-0.459
	s2.472,0.177,3.178,0.459s2.789,2.612,2.895,2.647c0.106,0.035,0.742,0.778,1.412,0.742c0.672-0.036,1.836-0.918,1.836-0.918
	s1.766-2.049,2.26-2.331s2.225-0.353,2.33-0.353c0.106,0,2.684-0.001,3.143,0.388s2.297,4.361,2.366,5.155s0.706,7.98,0.671,8.121
	s-1.449,5.35-1.73,5.86s-2.426,4.77-2.895,5.084c-0.47,0.314-3.461,2.084-3.955,2.366s-6.99,0.493-7.097,0.6
	s-7.768-0.564-7.202-0.353C13.555,34.787,9.299,33.031,8.603,32.532z"/>
<path fill="none" stroke="#000000" stroke-miterlimit="10" d="M10.5,23c0,0-0.513-1.347,0-2s5.209-0.477,5.42-0.583
	c0.213-0.106,2.754-1.906,2.754-1.906s0.389-1.484,0.918-1.872c0.53-0.388,1.801-0.423,1.801-0.423s1.2-0.459,1.554-1.095
	s-0.671-2.896-0.671-2.896l-0.424-2.013"/>
<path fill="none" stroke="#000000" stroke-miterlimit="10" d="M19.486,23.171c0,0-1.377-0.177-1.836-0.424s0.389-1.554,0.177-2.083
	s-1.104-0.785-1.104-0.785"/>
<path fill="none" stroke="#000000" stroke-miterlimit="10" d="M15.92,13.885c0,0.106,0.193,1.377,0.803,1.554
	s1.493-0.494,2.129-0.317c0.635,0.177,0.379,2.256,0.379,2.256"/>
<path fill="#F2F2F2" stroke="#999999" stroke-miterlimit="10" d="M19.156,22.414c0,0-0.091,0.16-0.187,0.16
	s-0.237,0.192-0.302-0.096s0.106-0.287,0.042-0.543s-0.568-0.324-0.626-0.395s-0.494-0.008-0.494-0.008l-0.412,0.375l-0.253,0.646
	c0,0-0.542,0.552-0.64,0.447C16.189,22.896,15.678,23,15.678,23l-0.799-0.169c0,0-0.479-0.192-0.64-0.16s-0.576-0.063-0.576-0.063
	l-0.448-0.354c-0.256-0.351-0.64-0.76-0.64-0.76s-0.064-0.328,0.096-0.472s0.416-0.304,0.416-0.304s0.641-0.229,0.546-0.227
	s-0.642-0.445-0.642-0.445l-0.933-0.168l-0.284-0.567l-0.384-0.673l0.032-0.479l0.416-0.782l0.48-0.498l0.384-0.189l0.384-0.189H13
	l1.207-1H15l0.615,0.131c0,0,1.007,0.064,1.031,0.16s0.504,0.128,0.504,0.128c0.16-0.672,0.16-0.928,0.16-0.928l-0.191-0.832
	l-0.097-0.672l-0.063-0.641l0.448-0.544l0.193-0.447l0.504-0.227l0.454-0.129H19l1.095-0.188c0,0,0.192-0.191,0.288,0
	s0.576,0.735,0.576,0.735s0.8,0.48,0.64,0.736s-0.479,0.8-0.479,0.8l0.128,0.64l0.64,0.171l0.445,0.106h0.687l0.628-0.011
	l0.353-0.138c0,0,0.48-0.646,0.864-0.659s1.567-0.192,1.567-0.192h1.216c0,0,0.864,0.563,0.864,0.659s0.192,1.28,0.192,1.28
	l-0.192,1.681l-0.632,0.879l-1.063,0.32l-0.674,0.416l-0.96-0.097l-0.928-0.256l-0.96,0.256l-0.274,0.608l0.21,0.8l0.16,1.216
	l-0.37,1.12l-0.909,0.448c0,0-0.417,0.142-0.769,0.183s-0.369,0.118-0.776,0s-0.151-0.149-0.407-0.118s-0.673-0.097-0.673-0.097"/>
<g>
</g>
<g>
</g>
<g>
</g>
<g>
</g>
<g>
</g>
<g>
</g>
<g>
</g>
<g>
</g>
<g>
</g>
<g>
</g>
<g>
</g>
<g>
</g>
<g>
</g>
<g>
</g>
<g>
</g>
</svg>
