<?xml version="1.0" encoding="utf-8"?>
<!-- Generator: Adobe Illustrator 16.0.0, SVG Export Plug-In . SVG Version: 6.00 Build 0)  -->
<!DOCTYPE svg PUBLIC "-//W3C//DTD SVG 1.1//EN" "http://www.w3.org/Graphics/SVG/1.1/DTD/svg11.dtd">
<svg version="1.1" id="Слой_1" xmlns="http://www.w3.org/2000/svg" xmlns:xlink="http://www.w3.org/1999/xlink" x="0px" y="0px"
	 width="42px" height="42px" viewBox="0 0 42 42" enable-background="new 0 0 42 42" xml:space="preserve">
<path fill="#F2F2C2" stroke="#000000" stroke-miterlimit="10" d="M13.5,9.278c0.191-0.529,1.625-1.378,2.532-1.766
	s7.378-0.247,8.292,0c0.912,0.247,2.613,1.342,3.051,2.013c0.439,0.671,0.449,2.719,0.449,2.719s0.494,15.642,0.295,16.348
	s-3.213,5.154-3.912,5.543c-0.701,0.389-4.641,0.636-5.424,0.247c-0.785-0.389-4.768-5.508-5.283-6.179S13.309,9.808,13.5,9.278z"/>
<path fill="#F2F2F2" stroke="#999999" stroke-miterlimit="10" d="M18.694,32.923c0,0-0.022-0.405-0.151-0.437
	c-0.127-0.033-0.379-0.543-0.507-0.64s-0.237-0.433-0.365-0.656s-0.278-0.472-0.278-0.472s-0.219-0.66-0.252-0.756
	c-0.031-0.096,0.003-0.545,0.003-0.545s-0.353-0.514-0.319-0.674c0.031-0.16,0.226-0.737,0.226-0.737s0.031-0.319,0.031-0.479
	s0.256-0.801,0.256-0.801l0.192-0.544l0.415-0.352l0.321-0.224l0.224-0.513l0.096-0.768c0,0-0.031-0.366-0.063-0.567
	s0.064-0.424,0-0.521s-0.064-0.544-0.064-0.544l0.448-0.736l0.576-0.736c0,0,0.353-0.446,0.416-0.575s0.416-0.641,0.416-0.641
	l0.381-0.416l0.483-0.469l0.896-0.331l0.832-0.098l0.928-0.193H24l1.306-0.317l0.416,0.704c0,0,0.575,0.512,0.607,0.704
	s0.085,0.91,0.117,1.319s0.054,1.721,0.054,1.721V24v1.351v1.729l0.074,0.512l0.363,0.48l-0.16,1.279l-0.48,0.736l-0.352,0.624
	l-0.448,0.496l-0.576,0.64l-0.64,0.641l-0.607,0.311l-0.545,0.266l-0.832,0.538l-0.672,0.165l-0.704,0.129c0,0-0.576-0.096-0.672,0
	s-0.512,0-0.512,0s-0.512,0.129-0.64,0S18.694,32.923,18.694,32.923z"/>
<g>
</g>
<g>
</g>
<g>
</g>
<g>
</g>
<g>
</g>
<g>
</g>
<g>
</g>
<g>
</g>
<g>
</g>
<g>
</g>
<g>
</g>
<g>
</g>
<g>
</g>
<g>
</g>
<g>
</g>
</svg>
