<?xml version="1.0" encoding="utf-8"?>
<!-- Generator: Adobe Illustrator 16.0.0, SVG Export Plug-In . SVG Version: 6.00 Build 0)  -->
<!DOCTYPE svg PUBLIC "-//W3C//DTD SVG 1.1//EN" "http://www.w3.org/Graphics/SVG/1.1/DTD/svg11.dtd">
<svg version="1.1" id="Слой_1" xmlns="http://www.w3.org/2000/svg" xmlns:xlink="http://www.w3.org/1999/xlink" x="0px" y="0px"
	 width="42px" height="42px" viewBox="0 0 42 42" enable-background="new 0 0 42 42" xml:space="preserve">
<path fill="#F2F2C2" stroke="#000000" stroke-miterlimit="10" d="M13.927,7.584c0.253-0.494,1.557-0.688,1.557-0.688
	s7.202-0.601,8.44-0.168c1.236,0.433,3.176,1.695,3.584,2.37c0.406,0.675,1.129,17.866,0.998,18.892
	c-0.133,1.025-2.475,4.52-2.996,4.803S24.207,33.5,24.207,33.5s-2.424,0.39-3.207,0s-5.691-7.593-6.256-8.616
	S13.674,8.078,13.927,7.584z"/>
<path fill="#F2F2F2" stroke="#999999" stroke-miterlimit="10" d="M15.968,8.01L15.79,9.559c0,0-0.065,0.813-0.017,1.165
	c0.051,0.352-0.014,1.287-0.014,1.287s0.459,0.964,0.49,1.251s0.316,1.185,0.316,1.185l0.478,1.066l0.351,0.951l0.641,0.992
	c0,0,0.447,0.448,0.607,0.832s0.673,0.768,0.864,1.056s0.479,0.448,0.672,0.608s0.576,0.416,0.576,0.416s0.476,0.296,0.576,0.352
	c0.288,0.16,1.184,0.448,1.184,0.448s0.479,0,0.768-0.256s0.448-0.255,0.48-0.352s0.32-0.608,0.32-0.608l0.512-0.32
	c0,0,0.225-0.128,0.32-0.544s0.224-1.151,0.224-1.151l0.256-0.829c0,0,0.165-0.675,0.133-1.091s-0.027-0.77-0.027-1.089
	s0-0.928,0-0.928l-0.091-0.896c0,0,0.067-0.417,0.085-0.641s0.006-0.8,0.006-0.8v-0.672l-0.053-1.184L25.362,9.2l-0.319-0.576
	c0,0-0.288-0.289-0.288-0.353s-0.48-0.514-0.48-0.514L23.507,7.5H23h-0.773H22h-1h-1l0,0l-1.069,0.196l-0.736,0.032L17.267,7.76
	l-0.448,0.064L16.103,7.98L15.968,8.01z"/>
<g>
</g>
<g>
</g>
<g>
</g>
<g>
</g>
<g>
</g>
<g>
</g>
<g>
</g>
<g>
</g>
<g>
</g>
<g>
</g>
<g>
</g>
<g>
</g>
<g>
</g>
<g>
</g>
<g>
</g>
</svg>
