<?xml version="1.0" encoding="utf-8"?>
<!-- Generator: Adobe Illustrator 16.0.0, SVG Export Plug-In . SVG Version: 6.00 Build 0)  -->
<!DOCTYPE svg PUBLIC "-//W3C//DTD SVG 1.1//EN" "http://www.w3.org/Graphics/SVG/1.1/DTD/svg11.dtd">
<svg version="1.1" id="Слой_1" xmlns="http://www.w3.org/2000/svg" xmlns:xlink="http://www.w3.org/1999/xlink" x="0px" y="0px"
	 width="42px" height="42px" viewBox="0 0 42 42" enable-background="new 0 0 42 42" xml:space="preserve">
<path fill="#F2F2C2" stroke="#000000" stroke-miterlimit="10" d="M17.518,4.316l1.925,0.203c0,0,7.273,6.037,7.671,6.862
	s0.641,17.96,0.641,17.96s-0.919,3.286-1.287,3.968s-2.346,2.91-3.016,3.19c-0.672,0.28-0.536,0.284-1.451,0s-6.6-7.734-7.199-9.182
	c-0.601-1.447-0.919-11.511-0.883-13.452C13.953,11.925,17.518,4.316,17.518,4.316z"/>
<path fill="#F2F2F2" stroke="#999999" stroke-miterlimit="10" d="M19.686,7.041c0.128,0,0.461,0.043,0.59,0.283
	s0.296,0.766,0.456,0.914s0.676,0.943,0.676,0.943s0.755,1.182,1.073,1.31c0.32,0.128,1.337,0.606,1.337,0.606l0.925,1.128
	l0.396,1.335l0.362,1.408v1.439c0,0-0.429,1.184-0.429,1.536s-0.173,1.12-0.173,1.12l-0.128,1.06c0,0-0.127,0.444,0.192,1.309
	s0.537,1.504,0.537,1.504l0.519,1.984c0,0,0.128,0.447-0.384,0.768s-1.313,0.704-1.313,0.704l-1.576,0.532l-1.336-0.437
	l-1.259-2.208L19.5,22.553v-1.376c0,0-0.204-0.634-0.433-1.053s-0.855-1.22-1.112-1.443s-0.576-1.28-0.576-1.28s0-0.672,0.128-0.96
	s0.544-0.928,0.544-0.928l0.735-0.544c0,0,0.513-0.513,0.641-0.769s0.288-0.929,0.288-0.929l-0.192-1.279
	c0,0-0.245-1.055-0.249-1.279S19.5,9.881,19.5,9.881V9l-0.266-1.071l0.608-1.12l0.096,0.496"/>
<g>
</g>
<g>
</g>
<g>
</g>
<g>
</g>
<g>
</g>
<g>
</g>
<g>
</g>
<g>
</g>
<g>
</g>
<g>
</g>
<g>
</g>
<g>
</g>
<g>
</g>
<g>
</g>
<g>
</g>
</svg>
