<?xml version="1.0" encoding="utf-8"?>
<!-- Generator: Adobe Illustrator 16.0.0, SVG Export Plug-In . SVG Version: 6.00 Build 0)  -->
<!DOCTYPE svg PUBLIC "-//W3C//DTD SVG 1.1//EN" "http://www.w3.org/Graphics/SVG/1.1/DTD/svg11.dtd">
<svg version="1.1" id="Слой_1" xmlns="http://www.w3.org/2000/svg" xmlns:xlink="http://www.w3.org/1999/xlink" x="0px" y="0px"
	 width="42px" height="42px" viewBox="0 0 42 42" enable-background="new 0 0 42 42" xml:space="preserve">
<path fill="#F2F2C2" stroke="#000000" stroke-miterlimit="10" d="M30.047,10.969c0,0-0.013-0.268-0.131-0.579
	c-0.119-0.312-2.736-3.385-3.255-3.822s-2.298-0.814-3.038-0.728c-0.739,0.087-2.21,1.018-2.886,1.134s-3.404-1.048-4.192-0.698
	c-0.789,0.35-3.928,4.481-4.191,5.528s-0.319,14.081-0.146,14.925c0.174,0.844,1.805,3.902,2.24,4.628s3.316,2.624,4.102,3.144
	s4.852,0.12,5.451,0s3.219-1.575,3.713-2.099c0.495-0.523,1.717-3.985,1.949-4.858C29.998,26.287,30.027,26.927,30.047,10.969z"/>
<path fill="none" stroke="#000000" stroke-miterlimit="10" d="M25,11.5c0,0-1.363,0.319-2,0s-0.99-1.485-1.025-2.085
	s-1.237-2.441-1.237-2.441"/>
<path fill="none" stroke="#000000" stroke-miterlimit="10" d="M22.61,13.229c0,0,0.03-1.959,0.333-1.844"/>
<path fill="#F2F2F2" stroke="#999999" stroke-miterlimit="10" d="M16.544,7.577l0.497-0.235l1.229,0.202
	c0,0,0.911-0.171,1.039,0.183c0.128,0.352,0.695,0.842,0.791,1.098s0.253,1.029,0.349,1.222s0.295,1.027,0.29,1.331
	s-0.134,1.297-0.134,1.297l0.473,1.473l1.05,1.057l0.372,1.088V17l-1.575,1.499l-0.928,0.992l-0.16,1.12
	c0,0-0.421,0.929-0.307,1.152s0.146,1.056,0.146,1.056l0.416,0.992c0,0-0.646,1.473-0.563,1.664s-0.59,1.088-0.59,1.088l-0.64,0.544
	l-1.74-0.32l-0.979-1.663l-1.12-1.856c0,0-0.416-1.153-0.448-1.345s-0.479-1.504-0.479-1.504l0.207-1.504L13.5,17.22V16l0.033-1.789
	l0.352-1.376l0.32-1.455l0.64-0.465l0.512-1.151l0.608-0.832c0,0,0.224-0.416,0.256-0.576s0.192-0.608,0.192-0.608L16.544,7.577z"/>
<g>
</g>
<g>
</g>
<g>
</g>
<g>
</g>
<g>
</g>
<g>
</g>
<g>
</g>
<g>
</g>
<g>
</g>
<g>
</g>
<g>
</g>
<g>
</g>
<g>
</g>
<g>
</g>
<g>
</g>
</svg>
