<?xml version="1.0" encoding="utf-8"?>
<!-- Generator: Adobe Illustrator 16.0.0, SVG Export Plug-In . SVG Version: 6.00 Build 0)  -->
<!DOCTYPE svg PUBLIC "-//W3C//DTD SVG 1.1//EN" "http://www.w3.org/Graphics/SVG/1.1/DTD/svg11.dtd">
<svg version="1.1" id="Слой_1" xmlns="http://www.w3.org/2000/svg" xmlns:xlink="http://www.w3.org/1999/xlink" x="0px" y="0px"
	 width="42px" height="42px" viewBox="0 0 42 42" enable-background="new 0 0 42 42" xml:space="preserve">
<path fill="#F2F2C2" stroke="#000000" stroke-miterlimit="10" d="M30.975,12.676c-0.175-0.669-3.898-4.889-4.307-5.267
	c-0.406-0.378-2.443-0.901-3.112-0.756S21.52,8.516,21.52,8.516s-1.629,0.493-2.27,0.29s-1.367-1.744-2.066-1.978
	c-0.697-0.233-1.309-0.146-1.949,0.523c-0.64,0.669-2.647,6.11-2.822,6.866c-0.174,0.756-0.494,11.23-0.319,11.986
	s3.898,6.75,4.335,7.128s1.513,0.466,1.6,0.582c0.088,0.116,6.722,0.407,7.361,0s4.451-7.273,4.684-7.826s0.902-13.558,0.902-13.558
	"/>
<path fill="none" stroke="#000000" stroke-miterlimit="10" d="M24.719,10.668c-0.087,0-2.036,2.123-2.793,2.065
	c-0.756-0.058-2.734-1.135-3.199-1.658c-0.466-0.523-0.507-3.271-0.507-3.271"/>
<path fill="#F2F2F2" stroke="#999999" stroke-miterlimit="10" d="M21.469,11.563l-0.56-0.16l-0.399-0.32l-0.849-0.479
	c0,0-0.396-0.252-0.278-0.334s0-0.37,0-0.37s0.342-0.16,0.502-0.192s0.625,0,0.625,0s0.591,0.128,0.751,0.16
	s0.704-0.175,0.704-0.175l0.64-0.209l0.257-0.32c0,0,0.32-0.416,0.384-0.576s0.416-0.416,0.416-0.416s0.159-0.128,0.352-0.128
	s0.576,0.16,0.576,0.16l0.896,0.128l0.703,0.448l0.641,0.32l0.512,0.447l0.192,0.48l-0.353,0.448l-0.448,0.544l-0.672,0.544
	l-0.512,0.479l-0.672,0.691L24.461,13.1l-0.544,0.447l-0.47,0.32l-0.65,0.064l-0.64-0.192c0,0-0.737,0.257-0.929,0.192
	s-0.159-0.01-0.575,0.011s-0.8-0.171-0.96-0.299s-0.608-0.48-0.608-0.48l-0.128-0.429c0,0,0.147-0.34,0.426-0.403
	s0.341-0.031,0.726-0.096s0.641-0.096,0.641-0.096l0.72-0.353"/>
<g>
</g>
<g>
</g>
<g>
</g>
<g>
</g>
<g>
</g>
<g>
</g>
<g>
</g>
<g>
</g>
<g>
</g>
<g>
</g>
<g>
</g>
<g>
</g>
<g>
</g>
<g>
</g>
<g>
</g>
</svg>
