<?xml version="1.0" encoding="utf-8"?>
<!-- Generator: Adobe Illustrator 16.0.0, SVG Export Plug-In . SVG Version: 6.00 Build 0)  -->
<!DOCTYPE svg PUBLIC "-//W3C//DTD SVG 1.1//EN" "http://www.w3.org/Graphics/SVG/1.1/DTD/svg11.dtd">
<svg version="1.1" id="Слой_1" xmlns="http://www.w3.org/2000/svg" xmlns:xlink="http://www.w3.org/1999/xlink" x="0px" y="0px"
	 width="42px" height="42px" viewBox="0 0 42 42" enable-background="new 0 0 42 42" xml:space="preserve">
<path fill="#F2F2C2" stroke="#000000" stroke-miterlimit="10" d="M22.801,37.794c-0.117,0.029-3.783,0.36-4.394,0
	s-5.097-2.985-5.527-3.55s-2.794-3.637-3.259-4.451S7.322,19.756,7.322,19.756s-0.756-9.24-0.581-9.571s2.793-5.296,2.793-5.296
	s1.309-2.007,2.327-2.298s3.957,0.029,4.044,0s3.521,1.833,4.219,2.24s3.288-0.117,3.782-0.32s1.338-1.542,1.832-1.92
	c0.495-0.378,3.637,0.321,4.074,0.757c0.436,0.436,2.219,7.387,2.502,7.913c0.282,0.526,2.182,3.782,2.473,4.306
	s0.35,4.685,0.35,4.771s-1.164,7.069-1.164,7.069s-2.124,4.801-2.328,5.324c-0.203,0.523-3.666,3.549-4.276,3.898
	S22.801,37.794,22.801,37.794z"/>
<path fill="none" stroke="#000000" stroke-miterlimit="10" d="M15.004,9.515c0,0-2.27-1.716-2.502-2.298
	c-0.233-0.582,0.609-4.748,0.609-4.748"/>
<path fill="none" stroke="#000000" stroke-miterlimit="10" d="M17.418,10.097c-0.203,0.175,2.096,1.804,2.852,1.688
	s1.861-1.688,1.861-1.688s-0.029-1.192-0.232-1.804s-3.462-1.192-3.462-1.192"/>
<path fill="none" stroke="#000000" stroke-miterlimit="10" d="M22.131,10.097c0,0,3.113,1.077,3.259,1.455s-0.465,2.588-0.232,3.112
	s5.353,3.229,5.353,3.229"/>
<path fill="none" stroke="#000000" stroke-miterlimit="10" d="M29.085,12.86c0,0-0.116-1.367-0.582-1.6s-3.308,0.204-3.308,0.204"/>
<path fill="none" stroke="#000000" stroke-miterlimit="10" d="M20.152,15.362c0.117,0.029,1.862,2.153,2.444,2.299
	s1.483-0.286,1.601-0.582s0.96-2.415,0.96-2.415"/>
<path fill="#F2F2F2" stroke="#999999" stroke-miterlimit="10" d="M21.033,9.902c0,0-0.125,0.598-0.361,0.63
	s-0.877-0.056-0.877-0.056s-0.326-0.293-0.423-0.353s-0.423-0.233-0.423-0.233l-0.707-0.039l-0.75-0.403l-0.423-0.231l-0.782-0.235
	l-0.762-0.353l-0.359-0.48l-0.384-0.607L14.43,6.933c0,0-0.159-0.32-0.159-0.448s-0.182-0.492-0.182-0.492l0.245-0.659l0.32-0.448
	l0.35-0.384c0.13-0.225,0.521-0.353,0.521-0.353s0.379,0.097,0.538,0.32s0.948,0.479,0.948,0.479l0.651,0.288l0.736,0.544
	l0.672,0.385l0.697,0.096l0.851-0.032l0.916,0.032l0.597,0.032l0.907-0.097l0.704-0.204l0.416-0.18l0.416-0.16
	c0.256-0.191,0.621-0.416,0.621-0.416l0.435-0.144L26.878,4.5h0.864l0.512,0.24c0,0,0.67,0.271,0.831,0.752s0.481,1.217,0.481,1.217
	s0.224,1.28,0.352,1.632s0.448,1.174,0.448,1.174l0.144,0.921c0,0,0.081,0.44,0.177,0.757s0.735,1.021,0.735,1.021l0.544,0.8
	c0,0,0.288,0.216,0.32,0.503c0.032,0.289,0.127,0.984-0.192,0.984s-1.584,0-1.584,0H30l-1.426-0.144l-1.12-0.128l-0.438-0.233
	c-0.358-0.246-0.516-0.503-0.516-0.503V13l-0.326,0.108l-1.567,0.887L24.158,14.5c0,0-0.288,0.497-0.416,0.593
	s-0.692,0.599-0.864,0.672c-0.448,0.192-0.896,0.032-1.12,0s-0.607-0.416-0.607-0.416l-0.064-0.479l-0.468-0.874
	c0,0-0.491-0.343-0.716-0.438s-1.216-0.416-1.216-0.416l-0.862,0.032l-0.334-0.448l0.334-0.698l0.254-0.518
	c0.512-0.32,1.056-0.316,1.056-0.316l0.634,0.156l0.614,0.064l0.544-0.221l0.225-0.644l-0.032-0.452"/>
<g>
</g>
<g>
</g>
<g>
</g>
<g>
</g>
<g>
</g>
<g>
</g>
<g>
</g>
<g>
</g>
<g>
</g>
<g>
</g>
<g>
</g>
<g>
</g>
<g>
</g>
<g>
</g>
<g>
</g>
</svg>
