<?xml version="1.0" encoding="utf-8"?>
<!-- Generator: Adobe Illustrator 16.0.0, SVG Export Plug-In . SVG Version: 6.00 Build 0)  -->
<!DOCTYPE svg PUBLIC "-//W3C//DTD SVG 1.1//EN" "http://www.w3.org/Graphics/SVG/1.1/DTD/svg11.dtd">
<svg version="1.1" id="Слой_1" xmlns="http://www.w3.org/2000/svg" xmlns:xlink="http://www.w3.org/1999/xlink" x="0px" y="0px"
	 width="42px" height="42px" viewBox="0 0 42 42" enable-background="new 0 0 42 42" xml:space="preserve">
<path fill="#F2F2C2" stroke="#000000" stroke-miterlimit="10" d="M13.595,34.622c0,0-0.698,0.262-1.921-0.32
	c-1.221-0.582-5.091-8.351-5.498-9.514s-0.494-9.514-0.232-10.59s3.055-6.343,3.985-6.896s6.459,0,6.459,0s9.194-0.932,10.271-0.291
	s3.84,3.551,4.189,4.452c0.349,0.901-0.466,3.636-0.146,4.393c0.32,0.757,4.889,4.132,5.383,4.771s0.291,5.732,0,6.75
	s-2.996,4.451-3.782,4.888s-8.233,1.949-8.233,1.949L13.595,34.622z"/>
<path fill="none" stroke="#000000" stroke-miterlimit="10" d="M22.963,9.34c0,0-2.793,2.298-3.404,2.88s-0.931,3.579-0.931,3.579
	s3.521,1.396,4.103,1.832c0.581,0.437,1.949,3.104,1.949,3.104l5.673,2.163"/>
<line fill="none" stroke="#000000" stroke-miterlimit="10" x1="16.301" y1="10.184" x2="19.705" y2="12.096"/>
<path fill="none" stroke="#000000" stroke-miterlimit="10" d="M15.572,17.515c0,0-0.203-0.697,0.263-1.163s3.87-0.071,3.87-0.071"/>
<path fill="none" stroke="#000000" stroke-miterlimit="10" d="M25.552,14.751c0,0-0.232,1.08-0.437,1.529
	c-0.203,0.449-2.646,1.234-2.646,1.234"/>
<line fill="none" stroke="#000000" stroke-miterlimit="10" x1="22.47" y1="24.119" x2="24.824" y2="20.734"/>
<path fill="#F2F2F2" stroke="#999999" stroke-miterlimit="10" d="M21.484,22.605c0.018-0.035,0.405-0.629,0.405-0.629
	s0.378-0.492,0.41-0.652s0.156-0.567,0.156-0.567s0.149-0.235,0.007-0.491s-0.35-0.604-0.404-0.832s0.107-0.295-0.309-0.583
	s-0.662-0.546-0.662-0.546s-0.553-0.193-0.904-0.257c-0.354-0.063-0.32-0.16-0.736-0.16s-0.646-0.096-0.819-0.032
	s-0.572-0.139-0.612-0.021s-0.398,0.245-0.398,0.245c-0.058,0.288-0.057,0.353-0.281,0.448s-0.48,0.288-0.48,0.288l-0.555,0.191
	l-0.598,0.129l-0.8-0.225l-0.479-0.288l-0.275-0.512c0,0,0.077-0.297,0-0.597s0-0.695,0-0.695s-0.211-0.42,0-0.7
	s0.307-0.472,0.307-0.472s0.224-0.287,0.416-0.384s0.288-0.225,0.48-0.32s0.512-0.192,0.512-0.192l0.608-0.319l0.479-0.16
	l0.385-0.608c0,0,0.032-0.19-0.16-0.319s-0.064,0.095-0.192-0.129s-0.288-0.544-0.288-0.544l-0.395-0.319
	c0,0,0.17-0.225-0.182-0.448s-0.63-0.864-0.635-0.96s-0.037-0.097-0.165-0.32s-0.288-0.64-0.288-0.64S14.937,9.632,14.84,9.6
	S14.615,9.4,14.52,9.34s-0.704-0.271-0.704-0.271s-0.398,0.109-0.535,0s-0.169-0.301-0.457-0.333s-0.512,0-0.512,0l-0.768-0.015
	c0,0-0.167,0.329-0.468,0.348S10.52,9.567,10.52,9.567l-0.768,1.023l-0.129,0.385L9.481,11.52l-0.274,0.576l-0.479,0.672
	l-0.384,1.023l-0.128,0.353L7.92,14.751L7.8,15.574l0.12,0.905c0,0-0.313,0.854-0.21,1.035S7.5,18.367,7.5,18.367v0.672
	c0,0,0.25,0.193,0.346,0.641s0.367,1.055,0.367,1.055L7.92,21.375l0.231,0.832l0.16,0.544l0.416,0.832l0.416,0.536
	c0,0-0.064,0.056,0.8,0s1.133,0.178,1.133,0.178l0.739,0.203H12l0.996-0.381l0.724,1.96l1.567,1.248c0,0-0.885-0.064,1.014,0
	s2.327-0.191,2.327-0.191s0.276-0.192,0.34-0.32s0.447-0.512,0.447-0.512l0.29-0.608l0.158-0.64l0.097-0.544l0.384-0.393
	l0.607-0.504c0.16-0.224-0.258-0.426,0.138-0.718s0.413-0.327,0.413-0.327"/>
<g>
</g>
<g>
</g>
<g>
</g>
<g>
</g>
<g>
</g>
<g>
</g>
<g>
</g>
<g>
</g>
<g>
</g>
<g>
</g>
<g>
</g>
<g>
</g>
<g>
</g>
<g>
</g>
<g>
</g>
</svg>
