<?xml version="1.0" encoding="utf-8"?>
<!-- Generator: Adobe Illustrator 16.0.0, SVG Export Plug-In . SVG Version: 6.00 Build 0)  -->
<!DOCTYPE svg PUBLIC "-//W3C//DTD SVG 1.1//EN" "http://www.w3.org/Graphics/SVG/1.1/DTD/svg11.dtd">
<svg version="1.1" id="Слой_1" xmlns="http://www.w3.org/2000/svg" xmlns:xlink="http://www.w3.org/1999/xlink" x="0px" y="0px"
	 width="42px" height="42px" viewBox="0 0 42 42" enable-background="new 0 0 42 42" xml:space="preserve">
<path fill="#F2F2C2" stroke="#000000" stroke-miterlimit="10" d="M13.299,36.179c0,0-1.279-0.261-2.078-0.851
	s-3.259-5.092-3.527-5.735s-1.222-8.438-1.313-9.138s0.61-7.068,0.987-8.001s3.622-5.79,4.276-6.052s1.861-0.814,2.646-0.728
	s2.498,0.874,2.822,1.192c0.323,0.318,1.222,1.309,1.979,1.309c0.756,0,2.355-0.945,2.355-0.945s1.688-1.526,2.27-1.73
	s2.697-0.232,3.283,0s2.769,3.171,2.769,3.171s1.608,4.09,1.921,4.51c0.311,0.42,2.996,3.841,3.229,4.451s0.844,8.113,0.67,8.757
	s-1.542,5.905-1.862,6.487s-2.183,1.339-2.183,1.339s-6.1,1.268-6.691,1.338c-0.59,0.07-6.668,0.916-7.39,0.873
	S13.299,36.179,13.299,36.179z"/>
<path fill="none" stroke="#000000" stroke-miterlimit="10" d="M26.016,22.665l-3.753-4.161c0,0-2.27-3.345-2.27-3.229
	s-4.073-1.979-4.073-1.979"/>
<path fill="none" stroke="#000000" stroke-miterlimit="10" d="M12.836,12.977c0,0-0.582-2.328-0.814-2.938S9.797,8.611,9.797,8.611"
	/>
<path fill="none" stroke="#000000" stroke-miterlimit="10" d="M20.996,10.184c0,0-1.701,1.105-1.875,1.513
	c-0.176,0.407,0.174,3.551,0.872,3.579s1.222-1.6,1.542-1.833s1.949-0.146,1.949-0.146"/>
<path fill="none" stroke="#000000" stroke-miterlimit="10" d="M17.578,26.068c0.059-0.146-0.35-3.287,0.175-4.306
	s3.056-1.106,3.55-1.455s0.846-1.971,0.846-1.971"/>
<path fill="#F2F2F2" stroke="#999999" stroke-miterlimit="10" d="M13.879,12.556c0-0.044-0.012-0.142-0.029-0.261
	c-0.047-0.311-0.131-0.766-0.131-0.766s0.227-1.01-0.03-1.266s-0.304-0.423-0.399-0.583c-0.098-0.16-0.45-0.403-0.462-0.628
	s0.005-0.587,0.005-0.587s0.258-0.134,0.588-0.357s0.587-0.354,0.587-0.354s0.448-0.322,0.608-0.322s0.576-0.226,0.705-0.001
	c0.127,0.225,0.6,0.736,0.6,0.736l0.488,0.672c0,0,0.32,0.224,0.416,0.256s0.512,0.203,0.512,0.203L17.88,9.5H18l0.744-0.18
	l0.608,0.031l0.704-0.319l0.703-0.225l0.801-0.196l0.588-0.348l0.628-0.256l0.384-0.224l0.64-0.236L24.185,7.5h0.607H26
	c0,0,0.201-0.101,0.265,0.092s0.896,1.02,0.896,1.02s0.409,0.838,0.301,0.997s0.371,0.832,0.371,0.832s0.353,0.225,0.448,0.544
	s0.64,0.928,0.64,0.928l0.32,0.817l0.764,0.567c0.9,2.903,1.028,3.959,1.028,3.959s0.128,0.978,0.128,1.081s-0.32,0.245-0.32,0.245
	s0.096-0.082-1.216-0.082s-1.728,0-1.728,0s-1.057,0.082-1.152,0.146c-0.096,0.063-0.305,0.24-0.729,0.209s-1.16-0.032-1.224-0.256
	s-0.607-0.619-0.607-0.619l-0.257-0.885l0.225-0.576l0.256-0.544l0.48-0.479l0.159-0.448l0.032-0.352
	c0.032-0.32,0.064-0.992,0.064-0.992c-0.16-0.16-0.576-0.192-0.576-0.192s0.513,0.384-0.128-0.416s-0.641-0.8-0.641-0.8
	s0.224,0.032,0,0s-0.672,0-0.672,0L22.584,12.2l-0.869,0.063L20.996,12.2l-0.268-0.225l-0.385-0.256l0.097-0.576
	c0,0,0.063-0.511-0.32-0.575s-0.81-0.065-0.874,0.031S18.5,10.984,18.5,10.984v0.512l-0.277,0.32l-0.374,0.191l-0.576,0.096
	l-0.448,0.353l-0.384,0.273l-0.097,0.567l0.331,0.386l0.342,0.533c0,0,0.418,0.319,0.465,0.512s0.396,0.44,0.559,0.548
	c0.384,0.253-0.255-0.291,0.769,0.669s0.67,1.247,1.007,1.567s0.4,0.297,0.433,0.469s0.096,0.523,0.096,0.523
	s0.161,0.199,0.097,0.355s-0.384,0.412-0.384,0.412l-0.98,0.582L17.88,20.5H17l-0.56-0.139L15.097,20.5h-0.929
	c0,0-0.864,0.168-1.216,0.191c-0.352,0.021-0.736-0.244-0.992,0s0.057,0.009-0.644,0.19s-1.021,0-1.021,0s-0.294-0.33-0.499-0.426
	s-0.78-0.64-0.78-0.64l-0.32-0.769l0.128-0.711l-0.128-0.921c0,0-0.063-0.801,0-1.024s0.128-0.896,0.128-0.896
	s0.191-0.384,0.256-0.576s0.128-0.772,0.128-0.772l0.16-0.987c0,0,0.512-0.413,0.64-0.431s0.448-0.143,0.736,0
	s0.928,0.719,0.928,0.719l0.513,0.352l0.479-0.063l0.448,0.031l0.608-0.319C13.912,13.032,13.879,12.556,13.879,12.556z"/>
<g>
</g>
<g>
</g>
<g>
</g>
<g>
</g>
<g>
</g>
<g>
</g>
<g>
</g>
<g>
</g>
<g>
</g>
<g>
</g>
<g>
</g>
<g>
</g>
<g>
</g>
<g>
</g>
<g>
</g>
</svg>
