<?xml version="1.0" encoding="utf-8"?>
<!-- Generator: Adobe Illustrator 16.0.0, SVG Export Plug-In . SVG Version: 6.00 Build 0)  -->
<!DOCTYPE svg PUBLIC "-//W3C//DTD SVG 1.1//EN" "http://www.w3.org/Graphics/SVG/1.1/DTD/svg11.dtd">
<svg version="1.1" xmlns="http://www.w3.org/2000/svg" xmlns:xlink="http://www.w3.org/1999/xlink" x="0px" y="0px" width="655px"
	 height="1440px" viewBox="0 0 655 1440" enable-background="new 0 0 655 1440" xml:space="preserve">
<g id="горлишко">
	<path fill="none" stroke="#000000" stroke-width="4" stroke-miterlimit="10" d="M147,689.25"/>
	<path fill="none" stroke="#000000" stroke-width="4" stroke-miterlimit="10" d="M578,689.25c1.357-47.221-432.204-48.506-431,0"/>
	<path fill="none" stroke="#000000" stroke-width="4" stroke-miterlimit="10" d="M122,692c-3.151-69.882,476.259-61.071,476,0"/>
	<path fill="none" stroke="#000000" stroke-width="4" stroke-miterlimit="10" d="M245,1192c-3.587-36.756,268.406-37.063,267,0"/>
</g>
<g id="щітка1">
	<path fill="#00DE1B" stroke="#000000" stroke-width="2" stroke-miterlimit="10" d="M296.683,1172.556
		c0,3.438,39.208,17.196,39.208,17.196l28.89-17.196l244.188-911.405l-49.525-26.139l-16.509,5.503L296.683,1172.556z"/>
	<g id="щетина">
		<path fill="#FFFFFF" stroke="#000000" stroke-width="2" stroke-miterlimit="10" d="M550.847,413.655
			c-0.744,0.186-35.479,28.94-35.479,28.94s0.739-4.195,1.11-4.752c0.371-0.557-0.836-3.861-0.836-3.861l-2.184-4.438l-6.479,0.195
			l-6.674,3.348l-9.652,3.345l-6.148-0.556L483,431.977V429l3.017-1.667l3.157-1.256L481.188,428H474l-4,1.191V425l-6.084,4.934
			l-7.43,2.043l-2.972-1.671l0.929-2.306l2.786-2.151l2.414-2.786l0.929-2.6l-1.856-1.672l-2.601-0.928l-1.857-1.115
			c0-1.485,2.044-3.364,2.601-3.261s2.972-1.196,2.972-1.196l2.414-2.043l1.857-1.672l2.6-2.043
			c1.672-1.671,2.972-3.529,2.972-3.529l0.743-2.229l0.371-2.415c0,0-1.114-1.485-1.485-2.414s-0.928-1.671-1.485-2.415
			s-2.786-3.343-2.786-3.343c-1.301-1.486-1.672-2.786-1.672-2.786c1.3-1.114,2.972-2.229,2.972-2.229
			c1.857-1.114,3.529-2.414,3.529-2.414c1.485-1.672,2.414-2.786,2.414-2.786c0.929-2.043,1.485-3.158,1.485-3.9
			s0.187-2.6,0.187-3.157s-0.001-1.485-0.372-2.414s-0.187-2.043-0.929-2.601s-1.672-1.486-1.857-2.043s-0.37-1.671-0.928-2.229
			s-0.929-2.972-0.929-2.972l0.371-3.157c2.043-2.043,2.229-3.157,2.972-3.714s1.486-0.929,2.043-1.486s2.043-1.857,2.043-1.857
			l1.114-2.972l0.558-3.529c0-2.229,0.37-3.529,0.742-4.086s0.929-2.229,0.929-2.229l0.558-2.6c0,0,0.186-1.672,0.371-2.415
			s0.186-3.157,0.186-3.157s-0.558-1.207-0.929-2.135S475,325,475,325c0.616,0.928,2.846,1.487,4.331,0s3.714-2.973,3.714-2.973
			l2.043-2.043c0.187-1.3,1.301-3.529,1.301-3.529s0.557-2.786,0.371-3.529s0.186-0.929-0.186-2.043s-0.929-1.857-2.043-2.6
			s-1.857-1.642-2.786-2.013c-0.929-0.372-2.415-1.271-2.972-1.271S476,305,476,305h-2c0.131-0.802,1.06-1.359,1.06-1.359
			s1.671-0.743,2.6-1.114s1.874-0.907,2.415-1.3c2.043-1.486,3.343-6.129,3.343-6.129s0.001-1.3-0.186-2.043s0-1.485-1.672-2.229
			s-0.372,0.371-1.672-0.743s-1.671-2.042-2.6-2.414s-0.742-0.744-1.114-1.672s-0.929-1.857-0.929-2.6s-0.154-1.477,0-2.043
			c0.557-2.043,0.929-3.529,0.929-3.529c0.929-1.486,2.043-2.786,2.043-2.786c2.043-1.671,3.343-2.6,3.343-2.6
			c1.857-0.929,2.229-2.972,2.229-2.972l4.086-2.555c0,0,46.892-23.087,49.589-23.913s2.716-0.521,5.537,0
			s49.838,19.835,50.552,23.681S550.847,413.655,550.847,413.655z"/>
		<path fill="none" stroke="#000000" stroke-width="2" stroke-miterlimit="10" d="M482.83,271.276
			c2.025,0.701,3.163,1.861,3.163,1.861s1.126,1.879,0.013,2.437c-1.115,0.557-0.923-0.546-1.108,0.568s0.806,1.646,1.611,0.717
			s2.479-2.859,2.479-2.859H491c1.703,0.296,1.146,2.153,1.146,2.153l-0.928,2.043c0,0,0.371,1.3,0.186,2.229
			s-0.372,2.229-0.372,2.972s1.476,1.486,1.202,2.229s0.034,2.229,0.034,2.229c2.479,0.557,4.335,0.743,4.707,0
			s2.043-1.671,2.043-1.671s1.485-1.115,2.043-1.672s2.043-1.671,2.043-1.671c1.672-1.486,3.343-3.093,3.343-3.093
			c2.043-0.807,3.9-1.55,3.9-1.55l2.601-0.929l1.99,0.186c1.301,1.671,1.063,1.429,1.063,2.293s0,2.253,0,2.253
			s-2.31,1.768-3.238,1.954s-1.857,0.558-2.601,1.3s-1.3,0.929-1.114,2.043s1.3,1.857,1.3,1.857
			c1.857,0.743,3.715,0.928,3.715,0.928l1.956-0.743l2.13-1.857c1.672-2.043,2.414-2.972,2.414-2.972l2.043-1.671
			c1.672-1.486,3.529-2.294,3.529-2.294c1.857-0.677,4.086,0,4.086,0l1.857,1.18c0.557,2.043,2.229,3.9,2.229,3.9
			c2.043,0.928,4.086,1.114,4.271,0.371s1.857-1.486,1.857-1.486s-0.558,0.743-0.743,2.229s-0.557,2.042-0.186,3.343
			s0.743,2.229,0.929,2.972s0.929,1.672,1.114,2.786s-0.371,1.856,0,2.414s-0.293,1.672,0.039,2.229s1.122,2.414,0.077,2.786
			s-1.602,0.743-2.53,1.486s-1.673,1.486-2.415,2.229s-0.928,1.671-1.671,2.229s-1.114,1.3-0.929,1.857s0.929,2.6,0.929,2.6
			l1.485,2.043c2.786,2.415,3.715,5.036,3.715,5.036L538.763,323H537c-1.951,1.627-3.438,3.113-3.438,3.113l-0.743,2.786
			l-0.186,2.786c0,0,0.742,1.858,1.3,2.786s1.486,2.043,1.486,2.043c1.485,1.486,2.229,2.786,2.229,2.786
			c-0.743,2.043-1.857,3.498-1.857,3.498l-2.043,0.774c0,0-0.371,1.486-0.371,2.229s0.371,2.229,0.371,2.229l0.186,2.229
			c-2.414,2.043-3.899,3.157-3.899,3.157s-0.187,1.3-0.558,1.857s-0.371,1.671-0.186,2.229s0.557,1.3,0.557,2.043
			s0.875,1.406,0,2.043c-2.043,1.486-1.153,1.155-1.3,2.229c-0.557,4.086-1.485,4.829-1.485,4.829
			c-0.929,0.929-0.929,1.857-0.929,1.857s-0.558,1.114,0.186,2.229s1.485,1.857,2.043,2.415s2.043,2.043,2.043,2.043
			s1.486,1.114,0.558,1.857s-2.972,2.043-2.972,2.043l-1.486,2.229c0,0,0,1.671-0.186,2.229s-0.558,2.415-0.743,2.972
			s-0.409,1.701,0.186,2.415c1.857,2.229,2.229,2.972,2.786,3.529s-0.929,2.6-0.929,2.6c-2.229,1.114-3.924,3.343-3.924,3.343
			c-0.929,1.486-1.695,3.343-1.695,3.343V406l1.533,1.647l0.929,1.857l0.372,1.857l-1.301,2.229c-1.114,1.3-2.139,2.786-2.139,2.786
			s-1.651,1.121-1.651,1.678s-0.788,2.042-0.788,2.042l0.557,2.413c0,0,1.236,1.667,1.607,2.225s0.743,1.115,0.743,1.857
			s-0.187,1.857-0.187,1.857l-0.557,2.229l-0.68,1.994l-1.549,2.463l-1.114,3.157l-1.279,3.369"/>
		<path fill="none" stroke="#000000" stroke-width="2" stroke-miterlimit="10" d="M498.442,305.731
			c-0.558-1.857,0.009-4.203,0.009-4.203c-0.186-1.857,0.005-2.937,0.005-2.937c1.114-0.557,1.487-0.912,1.859,0.017
			s0.93,1.681,0.93,2.238s0.063,0.784,0.929,1.132c1.857,0.747,3.158,0.022,3.158,0.022H507l2.232-0.025l1.857-1.306
			c1.857-1.671,3.326-2.606,3.326-2.606c1.3-2.223,2.584-3.337,2.584-3.895s0-2.168,0-2.168"/>
		<path fill="none" stroke="#000000" stroke-width="2" stroke-miterlimit="10" d="M504.029,321.706c0,0,0.93,0.625,2.416-0.118
			c0.419-0.209,0.809-0.449,1.151-0.6c0.875-0.382,1.45-0.604,1.45-0.604c1.857-0.929,1.857-0.943,1.857-0.943s-0.186-0.007,0-0.564
			s-1.3-0.003-1.3-0.003l-3.344,4.084c0,0-1.113,1.113-0.742,2.228s1.131,1.671,1.958,2.229s1.014-0.929,2.313,0
			s2.719,0.365,2.719,0.365C514.805,328.764,517,329,517,329c1.705,0,3,0,3,0s1.861-0.642,2.419,0s2.415,1.199,2.415,1.199
			c1.3,2.043,1.857,2.971,1.3,3.157s-2.601,0-2.601,0l-4.086,0.083L517,331.685"/>
		<path fill="none" stroke="#000000" stroke-width="2" stroke-miterlimit="10" d="M509.418,354.715"/>
		<path fill="none" stroke="#000000" stroke-width="2" stroke-miterlimit="10" d="M506.09,335.059l-4.186,4.35l-3.657,3.444
			l-1.618,2.418l-1.313,2.401l-0.75,2.779c2.043,1.3,6.497,1.327,6.497,1.327l3.897,0.223H508c0,0,2.162-0.301,2.719,0
			s0.992,0.156,1.79,0.858c2.11,1.857,2.681,3.611,2.681,3.611c-1.686,0.661-2.681,1.218-2.681,1.218l-3.091,1.3l-1.819,1.857"/>
		<path fill="none" stroke="#000000" stroke-width="2" stroke-linecap="round" stroke-linejoin="round" stroke-miterlimit="10" d="
			M500.504,365.673c0,0-2.013,2.043-2.307,2.6s-1.593,2.229-1.779,3.157s0.372,1.486,0,2.415s0.185,1.857,0.742,2.229
			s-0.12,0.929,1.24,1.115s3.218,0,3.218,0l2.411-0.557c1.303-0.558,3.569-0.929,3.569-0.929c0.891-0.743,0.891-0.743,0.891-0.743"
			/>
		<path fill="none" stroke="#000000" stroke-width="2" stroke-linecap="round" stroke-linejoin="round" stroke-miterlimit="10" d="
			M494.341,385.113c0.551,0.742-1.08,1.887-1.08,1.887H491h-2l-1-1.021V384c0.246-2.355,0.803-3.469,0.803-3.469
			c2.043-0.929,1.081-0.82,3.343-0.929s4.582,1.608,4.582,1.608s1.15,2.08,1.067,2.924s-0.419,1.158-0.557,2.366
			c-0.085,0.743-1.184,1.472-1.749,1.832c-2.043,1.3-1.674,1.23-3.257,2.229s-2.687,1.114-2.687,1.114
			c-2.229-0.557-2.972-0.929-2.972-0.929"/>
		<path fill="none" stroke="#000000" stroke-width="2" stroke-linecap="round" stroke-linejoin="round" stroke-miterlimit="10" d="
			M507.599,393.532c0.891,0,0.519,0,1.819,0.743s3.091,0.743,3.091,0.743c1.182,0.557,1.924,1.486,1.182,0.557
			c-0.124-0.155,0.74,0.932,0.742,0.929c0.929-1.114-1.924,1.857-1.924,1.857c-2.162,1.672-3.091,2.415-3.091,2.415
			c-0.186,1.857-0.186,1.857-0.186,1.857s-0.186-1.114,0,0s1.978,0.928,1.978,0.928c0.994,0.186,1.299,0.929,1.299,0.929
			c-0.119,2.043,0.21,3.17-0.653,3.356s-0.976,0.835-1.718,1.392c-2.229,1.671-4.248,1.752-4.248,1.752s-0.673,1.569-1.86,0.929
			c-2.411-1.3-2.597-2.415-2.597-2.415"/>
		<path fill="none" stroke="#000000" stroke-width="2" stroke-linecap="round" stroke-linejoin="round" stroke-miterlimit="10" d="
			M479,417h-2c0,0-1.197,0.624-1.755,0s0.185,0.676-0.558-0.624s-1.28-2.43-1.114-3.343c0.372-2.043,0.997-2.839,1.3-3.343
			c1.115-1.857,1.115-1.857,1.115-1.857s-1.856,0.557,0,0s3.012,0,3.012,0c1.26,0.743,2.745,2.229,2.745,2.229
			c1.672,0.557,2.415-0.186,2.415-0.186c1.3-1.486,2.414-2.291,2.414-2.291c2.043,0.248,3.343,0,3.343,0s0.186,2.104,0,3.033
			s-0.206,2.229,0.083,3.158s0.521,2.6,1.52,2.229s1.555,1.273,1.555,1.273"/>
		<path fill="none" stroke="#000000" stroke-width="2" stroke-linecap="round" stroke-linejoin="round" stroke-miterlimit="10" d="
			M507.599,270.21c0.52-0.371,33.207-17.272,33.207-17.272"/>
		
			<line fill="none" stroke="#000000" stroke-width="2" stroke-linecap="round" stroke-linejoin="round" stroke-miterlimit="10" x1="531.334" y1="271.276" x2="554.921" y2="259.995"/>
		<path fill="none" stroke="#000000" stroke-width="2" stroke-linecap="round" stroke-linejoin="round" stroke-miterlimit="10" d="
			M544.892,276.525c1.301-0.557,11.329-3.529,11.329-3.529"/>
		
			<line fill="none" stroke="#000000" stroke-width="2" stroke-linecap="round" stroke-linejoin="round" stroke-miterlimit="10" x1="544.892" y1="286.368" x2="585.938" y2="267.796"/>
		<path fill="none" stroke="#000000" stroke-width="2" stroke-linecap="round" stroke-linejoin="round" stroke-miterlimit="10" d="
			M542.188,311.255C543.963,310.698,578.88,292,578.88,292"/>
		<path fill="none" stroke="#000000" stroke-width="2" stroke-linecap="round" stroke-linejoin="round" stroke-miterlimit="10" d="
			M543.127,330.385c1.022-0.186,27.395-10.772,27.395-10.772"/>
		<path fill="none" stroke="#000000" stroke-width="2" stroke-linecap="round" stroke-linejoin="round" stroke-miterlimit="10" d="
			M556.824,336.7c0,0-16.391,8.268-12.861,9.286s21.275-10.309,21.451-7.615s-10.493,6.872-10.493,6.872"/>
		<path fill="none" stroke="#000000" stroke-width="2" stroke-linecap="round" stroke-linejoin="round" stroke-miterlimit="10" d="
			M551.393,347.951c-0.929-0.293-10.052,7.321-9.205,6.764s19.844-12.294,17.563-4.271s-8.809,7.429-8.809,7.429"/>
		<path fill="none" stroke="#000000" stroke-width="2" stroke-linecap="round" stroke-linejoin="round" stroke-miterlimit="10" d="
			M549.225,361.823c-0.93,0.371-14.582,3.269-9.41,6.754s13.683-3.073,13.683-3.073s-18.915,6.779-13.806,11.496S553,377,553,377"/>
		<path fill="none" stroke="#000000" stroke-width="2" stroke-linecap="round" stroke-linejoin="round" stroke-miterlimit="10" d="
			M543.127,394.46c-0.835,0.371-12.959,3.858-8.45,8.341s16.265-8.092,16.265-8.092"/>
		<path fill="#FFFFFF" stroke="#000000" stroke-width="2" stroke-miterlimit="10" d="M335.891,1189.752
			c2.852-1.697,214.956-776.097,214.956-776.097"/>
		<path fill="#FFFFFF" stroke="#000000" stroke-width="2" stroke-miterlimit="10" d="M671.71,626.367"/>
		
			<line fill="#FFFFFF" stroke="#000000" stroke-width="2" stroke-miterlimit="10" x1="593.552" y1="266.681" x2="608.968" y2="261.151"/>
	</g>
</g>
<g id="шітка2">
	<path fill="#EB00DA" stroke="#000000" stroke-width="2" stroke-miterlimit="10" d="M356.233,493
		c2.307-3.979,68.705-7.224,70.283-4.505s-10.482,24.515-12.96,32.168s-2.729,44.132-2.729,44.132l2.729,76.387l17.128,121.272
		c0,0,18.904,181.69,18.904,183.329s15.286,120.647,15.286,120.647s10.179,104.802,7.098,109.731s-70.709,12.526-75.605,7.476
		S388,1074.229,388,1074.229V955.021l1.94-190.189l-1.907-119.328l-6.611-73.027c0,0-5.179-39.153-7.711-47.446
		S353.927,496.979,356.233,493z"/>
	<g id="шапка">
		<path fill="#FF7BAC" stroke="#000000" stroke-width="2" stroke-miterlimit="10" d="M391.868,506.925
			c6.748-0.643,19.037-4.995,23.457-8.354s9.962-6.427,13.335-14.459s2.248-117.442-1.286-126.439s-8.354-12.532-13.013-16.709
			s-19.466-7.069-26.361-6.908s-17.66,3.052-24.89,8.193s-10.925,9.318-13.656,17.191s0.482,125.797,4.98,132.545
			s11.512,9.142,16.388,11.085S385.12,507.568,391.868,506.925z"/>
		<circle fill="#FFFFFF" cx="389.94" cy="404.103" r="6.427"/>
		<circle fill="#FFFFFF" cx="389.94" cy="425.103" r="6.427"/>
		<circle fill="#FFFFFF" cx="389.94" cy="448.103" r="6.427"/>
		<circle fill="#FFFFFF" cx="389.94" cy="384.103" r="6.427"/>
		<circle fill="#FFFFFF" cx="389.94" cy="365.103" r="6.427"/>
		<circle fill="#FFFFFF" cx="389.94" cy="347.103" r="6.427"/>
		<circle fill="#FFFFFF" cx="389.94" cy="467.103" r="6.427"/>
		<circle fill="#FFFFFF" cx="389.94" cy="488.103" r="6.427"/>
		<circle fill="#FFFFFF" cx="402.94" cy="356.103" r="6.427"/>
		<circle fill="#FFFFFF" cx="402.94" cy="375.103" r="6.427"/>
		<circle fill="#FFFFFF" cx="402.94" cy="393.103" r="6.427"/>
		<circle fill="#FFFFFF" cx="402.94" cy="414.103" r="6.427"/>
		<circle fill="#FFFFFF" cx="402.94" cy="437.103" r="6.427"/>
		<circle fill="#FFFFFF" cx="402.94" cy="458.103" r="6.427"/>
		<circle fill="#FFFFFF" cx="402.94" cy="478.103" r="6.427"/>
		<circle fill="#FFFFFF" cx="376.94" cy="357.103" r="6.427"/>
		<circle fill="#FFFFFF" cx="376.94" cy="375.103" r="6.427"/>
		<circle fill="#FFFFFF" cx="376.94" cy="393.103" r="6.427"/>
		<circle fill="#FFFFFF" cx="376.94" cy="414.103" r="6.427"/>
		<circle fill="#FFFFFF" cx="376.94" cy="437.103" r="6.427"/>
		<circle fill="#FFFFFF" cx="376.94" cy="458.103" r="6.427"/>
		<circle fill="#FFFFFF" cx="376.94" cy="478.103" r="6.427"/>
		<circle fill="#FFFFFF" cx="415.94" cy="365.103" r="6.427"/>
		<circle fill="#FFFFFF" cx="363.94" cy="365.103" r="6.427"/>
		<circle fill="#FFFFFF" cx="363.94" cy="384.103" r="6.427"/>
		<circle fill="#FFFFFF" cx="415.94" cy="384.103" r="6.427"/>
		<circle fill="#FFFFFF" cx="363.94" cy="404.103" r="6.427"/>
		<circle fill="#FFFFFF" cx="415.94" cy="404.103" r="6.427"/>
		<circle fill="#FFFFFF" cx="363.94" cy="424.103" r="6.427"/>
		<circle fill="#FFFFFF" cx="415.94" cy="425.103" r="6.427"/>
		<circle fill="#FFFFFF" cx="364.94" cy="448.103" r="6.427"/>
		<circle fill="#FFFFFF" cx="415.94" cy="448.103" r="6.427"/>
		<circle fill="#FFFFFF" cx="363.94" cy="467.103" r="6.427"/>
		<circle fill="#FFFFFF" cx="415.94" cy="467.103" r="6.427"/>
	</g>
	<path fill="#EB00DA" stroke="#000000" stroke-width="2" stroke-miterlimit="10" d="M430.685,1178.874"/>
	<path fill="#EB00DA" stroke="#000000" stroke-width="2" stroke-miterlimit="10" d="M391.868,506.925"/>
</g>
<g id="щітка3">
	<path fill="#2E00D8" stroke="#000000" stroke-width="2" stroke-miterlimit="10" d="M29.904,304.139c0,0,12.564,5.043,20.708,14.008
		s20.708,35.934,21.317,37.761s54.206,130.946,54.206,132.773s292.082,701.065,302.089,693.708s7.918-82.222,7.918-82.222
		s2.419-63.522-8.527-95.012s-55.786-92.751-66.052-110.995S254.034,703.067,254.034,703.067L152.932,502.689l-83.44-188.197
		c0,0-6.125-14.951-10.963-19.489s-5.808-4.446-13.399-3.045S29.904,304.139,29.904,304.139z"/>
	<g id="щетина_1_">
		<path fill="#FFFFFF" stroke="#000000" stroke-width="2" stroke-miterlimit="10" d="M53.546,292.381
			c1.212,0.606,6.598-0.531,8.322-1.151s7.928-4.213,9.312-5.019s14.958-12.913,14.958-12.913s9.614-9.107,11.922-10.9
			s14.192-8.756,15.354-9.692s17.608-14.271,18.383-13.532s-4.001,3.563-3.433,4.648s7.272,5.453,7.272,5.453
			s7.422,4.938,8.485,6.061s3.11,6.126,2.827,7.878s-5.267,9.696-5.267,9.696s-6.115,5.836-6.681,7.474s-1.042,3.236,0,4.616
			s4.294,2.013,5.484,2.05s6.464,0.202,6.464,0.202s4.778-0.414,5.252,0.606s-1.414,4.264-1.414,4.657s-1.407,1.774-0.606,2.009
			s5.09-0.565,5.252,0.808s-2.216,1.917-2.424,3.232s0.202,2.221,0.404,2.828s2.663-0.604,4.242,0s3.03,3.838,3.232,4.848
			s0.506,2.945,1.818,3.434s3.398,0.049,3.434,1.01s-3.1,1.133-3.838,2.02s-1.904,2.964-2.02,4.444s-0.004,2.515,0.808,3.838
			s3.391,2.222,3.434,3.232s-2.61,2.341-2.828,3.03s0.188,3.644,1.212,4.685s5.324,2.854,6.666,3.069s7.429,0,7.429,0
			s2.142-0.807,3,0s2.594,8.705,2.297,10.426s-2.596,5.156-3.838,6.105s-7.026,1.492-6.06,2.469s3.061-0.85,3.601,0
			s-1.985,3.142-1.985,3.142l-4.04,5.05c0,0-0.606,1.01-0.202,1.616s6.464,3.03,6.464,3.03s4.61,1.312,4.848,3.232
			s-4.092,2.268-4.848,4.04s0.606,4.152,0.606,4.152s1.924,2.186,3.434,2.738s7.723,0,7.723,0s5.4-0.849,7,0
			s1.701,1.804,1.841,3.209s-1.01,8.888-1.01,8.888l-2.02,6.463c0,0-1.973,3.992-3.232,5.454s-3.786,2.424-3.03,3.636
			s5.858-2.424,5.858-2.424l5.858-2.626c0,0,2.547-2.038,3.03-0.808s-0.072,4.307-1.212,5.858s-2.744,2.132-3.838,2.828
			s-3.079,1.771-4.444,2.828s-2.714,3.563-3.838,5.251s-3.344,3.842-4.646,5.05s-5.251,3.232-5.251,3.232l-20.402,5.858
			l-27.471,12.12l-2.424,1.01c0,0-1.075,0.791-2.424,0.808S85.541,349.87,85.541,349.87l-16.766-36.359l-8.282-13.736
			L53.546,292.381z"/>
		<g id="ворс">
			<path fill="none" stroke="#000000" stroke-width="2" stroke-linecap="round" stroke-linejoin="round" stroke-miterlimit="10" d="
				M69.786,302.067c0.512,0.341,2.957,0.646,5.117,0c2.16-0.645,5.679-3.324,7.335-4.776c1.655-1.453,7.086-6.229,9.21-8.017
				c2.125-1.789,14.327-9.967,16.034-10.917c1.707-0.95,17.057-6.993,17.057-6.993s5.517-1.889,6.823-0.854
				c1.306,1.036,1.569,2.108,1.026,3.68c-0.542,1.573-8.361,5.189-8.361,5.189l-39.744,22.838"/>
			<path fill="none" stroke="#000000" stroke-width="2" stroke-linecap="round" stroke-linejoin="round" stroke-miterlimit="10" d="
				M82,332.601c0,0,5.911,1.227,8.304,0s6.678-4.441,7.438-5.215c0.76-0.774,9.784-9.329,11.195-10.726s10.598-8.286,11.928-9.132
				c1.33-0.847,9.891-6.576,11.928-7.269c2.037-0.693,8.681-2.097,10.064-1.863c1.384,0.233,4.658,2.029,4.659,3.354
				c0.002,1.325-2.049,5.056-3.541,6.336s-18.451,8.387-18.451,8.387s-13.806,5.243-16.028,6.709s-9.088,6.361-9.088,6.361
				l-13.091,10.226"/>
			<path fill="none" stroke="#000000" stroke-width="2" stroke-linecap="round" stroke-linejoin="round" stroke-miterlimit="10" d="
				M88.982,358.116c0.194,0.466,6.397,1.253,8.679,1.046s8.992-2.788,9.899-2.788s8.482-3.878,8.482-3.878l9.898-6.666l8.686-6.06
				c0,0,8.124-5.109,10.504-6.06s6.889-2.177,8.888-1.818s5.281,1.981,6.666,3.434s3.06,3.033,2.222,4.444
				s-14.746,5.753-14.746,5.753s-12.125,3.706-14.746,4.549s-9.09,4.242-9.09,4.242l-12.928,6.666l-8.282,3.434l-7.272,2.828
				l-2.498,1.327"/>
			<path fill="none" stroke="#000000" stroke-width="2" stroke-linecap="round" stroke-linejoin="round" stroke-miterlimit="10" d="
				M103,391c0,0,4.446,0.391,7,0s10.083-3.559,10.688-3.962s9.494-4.242,9.494-4.242l7.474-5.05l7.271-5.858
				c0,0,5.52-4.657,8.08-5.857s3.91-2.624,6.464-3.03s3.805-0.693,5.528,0s3.433,1.792,3.763,3.232s-2.424,5.05-2.424,5.05
				s-2.778,2.954-4.646,4.242s-11.917,4.646-11.917,4.646s-8.423,1.728-10.706,2.625s-8.686,3.434-9.494,3.636
				s-7.308,2.294-9.09,3.232s-6.241,3.083-7.676,4.04s-2.359,1.171-3.636,2.424s-2.321,3.03-2.321,3.03"/>
			<path fill="none" stroke="#000000" stroke-width="2" stroke-linecap="round" stroke-linejoin="round" stroke-miterlimit="10" d="
				M112.953,416.516c0,0,4.538,0.936,6.978,0.739s9.569-2.484,9.569-2.484l9.936-4.474l8.907-5.064l6.271-3.846l7.075-3.602
				c0,0,3.386-1.385,5.458-1.785s4.146-0.611,4.146-0.611s1.816-0.175,2.707,0.611s1.137,1.762,0.823,3.157
				s-1.703,3.196-2.828,4.242s-6.464,3.228-6.464,3.228s-6.642,2.943-8.282,4.044s-5.655,3.838-6.666,4.242s-5.072,3.64-6.696,4.646
				s-3.609,2.364-5.222,3.232s-5.252,2.828-5.252,2.828"/>
			<path fill="none" stroke="#000000" stroke-width="2" stroke-linecap="round" stroke-linejoin="round" stroke-miterlimit="10" d="
				M118.466,425.619c0,0,2.94-0.83,5.454-1.818s4.095-2.819,6.868-4.04s4.702-1.883,7.474-3.838s4.096-2.36,7.271-4.242
				s3.546-2.318,6.06-3.232s6.666-2.424,6.666-2.424l4.646-2.02"/>
			<path fill="none" stroke="#000000" stroke-width="2" stroke-linecap="round" stroke-linejoin="round" stroke-miterlimit="10" d="
				M148.564,436.526c0.404-0.606,1.694-3.196,2.626-4.646s2.104-2.482,3.434-3.434s2.976-2.219,4.444-2.828s2.928-1.208,3.838-1.616
				s4.724-2.115,5.857-2.626s1.92-1.387,2.626-1.818s2.521-1.519,3.434-2.222s2.02-2.525,2.02-2.525"/>
		</g>
	</g>
</g>
<g id="склянка">
	<path fill="none" stroke="#000000" stroke-width="4" stroke-miterlimit="10" d="M578,688c-0.935,65.801-430.933,70.385-431,0"/>
	<path fill="none" stroke="#000000" stroke-width="4" stroke-miterlimit="10" d="M512.001,1190.421
		c-0.58,40.785-267.103,43.626-267.145,0"/>
	
		<line fill="none" stroke="#000000" stroke-width="4" stroke-miterlimit="10" x1="121.925" y1="690.808" x2="244.856" y2="1190.421"/>
	<path fill="none" stroke="#000000" stroke-width="4" stroke-miterlimit="10" d="M121.925,690.808
		c0.074,84.843,475.043,79.318,476.075,0"/>
	<line fill="none" stroke="#000000" stroke-width="4" stroke-miterlimit="10" x1="598" y1="690.808" x2="512.001" y2="1190.421"/>
	<g id="бліки">
		<path fill="none" stroke="#000000" stroke-width="4" stroke-miterlimit="10" d="M224.135,980.137"/>
		<path fill="#FFFFFF" d="M259.62,754.762c-3.51,2.721,69.36,449.936,70.49,451.712s19.866,5.52,21.579,3.836
			S303.027,761.818,299.9,759.557S263.13,752.041,259.62,754.762z"/>
		<path fill="#FFFFFF" d="M248.278,772c1.07,1.165,54.016,339.688,52.102,342s-4.553,2.571-6.38,0s-54.487-339.315-53.561-342
			S247.208,770.835,248.278,772z"/>
		<path fill="#FFFFFF" d="M397.244,761c-1.204,0.803-13.849,448.66-11.988,449.552s16.438-1.896,17.742-2.756
			S439.545,762.921,437.044,761S398.448,760.197,397.244,761z"/>
		<path fill="#FFFFFF" d="M475.406,1180.1c-2.172-1.339,52.656-319.3,53.228-321.281s11.028-9.111,11.028-9.111
			s-51.449,324.659-53.706,326.077S477.578,1181.438,475.406,1180.1z"/>
		<path fill="#FFFFFF" d="M394.879,849.707"/>
	</g>
	<line fill="none" stroke="#000000" stroke-width="4" stroke-miterlimit="10" x1="577.69" y1="690.808" x2="597.828" y2="691.807"/>
	<line fill="none" stroke="#000000" stroke-width="4" stroke-miterlimit="10" x1="121.925" y1="691.807" x2="147" y2="689.25"/>
	<g>
	</g>
	<g>
	</g>
	<g>
	</g>
	<g>
	</g>
	<g>
	</g>
	<g>
	</g>
	<g>
	</g>
	<g>
	</g>
	<g>
	</g>
	<g>
	</g>
	<g>
	</g>
	<g>
	</g>
	<g>
	</g>
	<g>
	</g>
	<g>
	</g>
</g>
</svg>
