<svg width="1027" height="455" viewBox="0 0 1027 455" fill="none" xmlns="http://www.w3.org/2000/svg">
<path d="M58.2773 397.365C58.2773 397.365 68.0293 387.975 79.5457 384.224C91.062 380.473 120.811 380.075 122.727 380.268C124.643 380.462 264.385 384.533 266.052 385.283C267.718 386.032 1025.23 406.411 1022.63 394.267C1020.02 382.123 950.886 353.325 950.886 353.325C950.886 353.325 893.944 325.067 860.735 322.136C827.526 319.205 753.264 334.976 732.415 336.857C711.565 338.738 514.032 356.557 514.032 356.557L289.817 366.588L83.9552 365.506C83.9552 365.506 67.8074 364.96 61.6844 367.512C55.5615 370.063 55.2476 370.985 53.4122 378.483C51.5768 385.981 58.2773 397.365 58.2773 397.365Z" fill="#475EAD" stroke="black" stroke-width="2" stroke-miterlimit="10"/>
<path d="M57.2495 370.981C58.2993 370.124 59.4712 364.746 59.6128 362.919C59.7543 361.092 59.0217 353.961 58.8542 352.368C58.6867 350.775 53.2116 333.43 53.2116 333.43C53.2116 333.43 48.8486 320.927 48.1598 318.086C47.4711 315.246 45.9944 301.552 45.6173 300.108C45.2402 298.664 39.8229 278.196 40.8148 277.793C41.8066 277.389 42.4235 282.903 43.646 282.83C44.8685 282.757 51.6016 278.434 51.6016 278.434C51.6016 278.434 59.1491 273.69 60.6093 273.181C62.0695 272.672 67.4719 272.857 68.9537 273.833C70.4355 274.81 75.6367 282.614 75.6367 282.614C75.6367 282.614 78.4515 290.584 79.7133 291.772C80.9751 292.96 82.2373 294.05 83.9232 293.665C85.6092 293.281 87.5202 290.574 88.042 289.504C88.5637 288.434 90.8772 283.692 90.8772 283.692C90.8772 283.692 92.4591 279.164 93.5838 279.15C94.7085 279.136 96.8928 282.189 97.2512 282.35C97.6097 282.511 98.2921 284.361 98.835 283.726C99.3778 283.092 100.407 278.852 101.726 279.268C103.044 279.683 102.565 282.075 103.679 282.804C104.793 283.533 105.788 283.531 106.424 283.595C107.061 283.66 106.966 280.919 108.164 279.727C109.362 278.534 112.907 278.537 113.911 278.767C114.915 278.997 116.805 279.513 117.789 278.517C118.773 277.521 119.227 275.438 120.118 275.8C121.009 276.161 119.88 279.092 120.386 280.128C120.893 281.165 122.309 283.081 123.611 283.793C124.913 284.506 125.903 284.828 127.443 284.63C128.982 284.432 130.86 282.449 131.799 282.824C132.738 283.199 132.863 286.164 133.402 286.646C133.941 287.127 136.803 287.969 138.172 287.462C139.542 286.955 142.959 283.777 143.705 282.641C144.452 281.505 146.752 275.865 146.752 275.865C146.752 275.865 146.894 273.581 147.982 273.129C149.07 272.678 156.985 274.333 158.433 275.31C159.881 276.287 162.071 279.792 162.427 281.314C162.783 282.836 160.906 288.334 162.194 287.854C163.481 287.373 162.674 284.713 163.671 284.57C164.667 284.426 165.722 287.668 165.722 287.668L168.671 293.424C168.671 293.424 169.344 294.391 170.062 294.271C170.78 294.151 175.476 289.618 175.476 289.618C175.476 289.618 178.564 285.952 180.412 286.522C182.261 287.093 180.803 291.185 182.109 292.601C183.415 294.017 186.144 293.751 186.144 293.751C186.144 293.751 188.927 292.893 190.05 291.742C191.172 290.591 193.217 284.698 193.217 284.698C193.217 284.698 194.657 279.425 196.088 278.314C197.518 277.203 198.431 277.502 199.769 277.951C201.108 278.399 207.461 282.517 207.461 282.517L212.527 287.01C212.527 287.01 215.359 290.447 216.176 292.195C216.993 293.942 216.834 296.642 218.25 296.449C219.665 296.257 218.441 290.112 218.441 290.112L218.449 283.693C218.449 283.693 217.635 280.534 218.954 280.598C220.274 280.662 222.853 282.43 223.8 284.106C224.747 285.782 224.619 287.483 224.805 288.766C224.991 290.049 225.158 292.3 225.562 293.979C225.966 295.657 227.698 297.915 228.777 299.633C229.856 301.35 230.91 304.258 231.477 305.941C232.045 307.624 232.272 312.056 232.272 312.056L229.247 333.065L229.035 363.09L228.962 365.715C228.962 365.715 229.242 367.02 228.705 368.258C228.167 369.495 122.803 365.378 122.803 365.378L82.7664 365.757L66.8422 367.678L57.2495 370.981Z" fill="white" stroke="black" stroke-width="2" stroke-miterlimit="10"/>
<path d="M72.7438 360.142C73.2647 359.815 74.5456 357.71 74.8423 355.475C75.1399 353.241 74.1397 348.932 73.4946 346.827C72.8482 344.721 70.7196 337.809 69.96 335.139C69.1999 332.467 66.7455 317.985 66.5791 316.038C66.4127 314.092 67.1966 297.614 67.1966 297.614C67.1966 297.614 67.7363 291.807 69.2159 291.041C70.6964 290.274 71.7819 290.474 72.993 291.614C74.2053 292.753 74.2965 301.368 74.2965 301.368L78.826 346.982" stroke="black" stroke-width="2" stroke-miterlimit="10" stroke-linecap="round" stroke-linejoin="round"/>
<path d="M105.601 361.525C105.601 361.525 109.144 356.637 109.007 353.951C108.869 351.266 107.695 346.039 107.301 345.029C106.906 344.018 102.805 332.28 102.109 330.42C101.414 328.56 98.8987 317.356 98.6726 315.796C98.4456 314.235 96.7315 304.078 96.9349 301.936C97.1382 299.794 98.5825 293.159 99.3631 291.993C100.143 290.827 103.124 288.577 104.333 289.12C105.542 289.661 108.104 293.062 108.659 294.948C109.215 296.833 108.741 315.215 108.741 315.215C108.741 315.215 107.861 329.957 108.287 332.585C108.713 335.212 110.361 343.482 110.361 343.482L114.319 359.615" stroke="black" stroke-width="2" stroke-miterlimit="10" stroke-linecap="round" stroke-linejoin="round"/>
<path d="M131.735 365.621C132.24 365.635 135.501 360.301 136.248 358.134C136.995 355.968 137.393 348.79 137.765 347.963C138.137 347.136 137.707 338.637 137.707 338.637L135.687 326.875L133.722 316.468C133.722 316.468 132.394 306.964 132.503 304.403C132.612 301.842 133.343 297.227 134.49 295.551C135.637 293.875 138.462 291.547 140.356 290.88C142.249 290.213 144.377 289.333 145.32 290.676C146.263 292.019 144.519 306.484 144.519 306.484C144.519 306.484 142.927 319.062 142.621 321.799C142.315 324.535 142.762 331.829 142.762 331.829L143.539 346.353L143.275 355.315L142.872 363.107L143.057 365.93" stroke="black" stroke-width="2" stroke-miterlimit="10" stroke-linecap="round" stroke-linejoin="round"/>
<path d="M167.475 366.322C167.475 366.322 169.655 362.428 170.346 359.938C171.037 357.448 171.235 349.282 171.116 348.565C170.996 347.848 171.141 338.167 171.141 338.167L169.6 329.279L167.239 320.245C167.239 320.245 165.256 313.301 165.211 310.474C165.167 307.647 164.422 305.832 165.099 303.336C165.776 300.84 166.027 299.582 167.366 298.294C168.705 297.007 170.408 295.898 171.857 296.188C173.305 296.477 175.468 300.47 175.468 300.47C175.468 300.47 177.023 304.215 177.432 306.447C177.841 308.679 176.782 319.221 176.782 319.221C176.782 319.221 174.904 327.612 174.785 330.062C174.667 332.512 174.355 339.392 174.208 340.212C174.061 341.031 173.303 347.818 173.428 349.827C173.552 351.837 173.68 356.784 173.964 358.485C174.249 360.186 174.065 361.117 174.684 362.795C175.303 364.474 176.495 366.155 176.495 366.155" stroke="black" stroke-width="2" stroke-miterlimit="10" stroke-linecap="round" stroke-linejoin="round"/>
<path d="M194.829 367.709C194.829 367.709 197.543 363.954 198.364 361.648C199.185 359.342 200.023 351.902 200.023 351.902L200.018 341.005L199.052 330.805L198.116 323.509L197.733 315.579C197.733 315.579 197.858 311.922 198.343 309.869C198.828 307.815 199.486 305.837 199.486 305.837C199.486 305.837 200.071 304.109 201.154 303.619C202.236 303.128 203.227 303.304 204.37 304.163C205.514 305.021 206.587 307.027 207.079 308.482C207.572 309.937 207.373 315.701 207.373 315.701C207.373 315.701 207.333 322.966 207.664 324.913C207.996 326.86 208.845 331.644 208.799 332.732C208.753 333.82 210.039 338.851 210.29 340.744C210.542 342.638 210.966 345.006 211.096 346.833C211.227 348.66 211.522 352.782 211.522 352.782" stroke="black" stroke-width="2" stroke-miterlimit="10" stroke-linecap="round" stroke-linejoin="round"/>
<path d="M205.392 366.414C205.392 366.414 205.841 363.393 205.97 360.695C206.1 357.997 205.079 355.804 205.102 352.774C205.126 349.744 205.314 347.713 204.667 344.383C204.021 341.053 204.195 339.68 203.78 336.012C203.366 332.345 203.121 331.828 203.318 329.16C203.515 326.492 203.841 322.086 203.841 322.086L203.904 317.02" stroke="black" stroke-width="2" stroke-miterlimit="10" stroke-linecap="round" stroke-linejoin="round"/>
<path d="M227.683 343.437C227.296 342.82 225.463 340.582 224.523 339.137C223.582 337.692 223.122 336.2 222.799 334.597C222.476 332.993 221.996 330.972 222.042 329.384C222.089 327.795 222.141 326.218 222.143 325.221C222.144 324.223 222.151 320.045 222.15 318.802C222.148 317.559 221.672 316.482 221.568 315.661C221.465 314.841 221.217 312.739 220.95 311.618C220.684 310.497 219.476 308.74 219.476 308.74" stroke="black" stroke-width="2" stroke-miterlimit="10" stroke-linecap="round" stroke-linejoin="round"/>
</svg>
