<?xml version="1.0" encoding="utf-8"?>
<!-- Generator: Adobe Illustrator 16.0.0, SVG Export Plug-In . SVG Version: 6.00 Build 0)  -->
<!DOCTYPE svg PUBLIC "-//W3C//DTD SVG 1.1//EN" "http://www.w3.org/Graphics/SVG/1.1/DTD/svg11.dtd">
<svg version="1.1" id="Слой_3" xmlns="http://www.w3.org/2000/svg" xmlns:xlink="http://www.w3.org/1999/xlink" x="0px" y="0px"
	 width="1440px" height="655px" viewBox="0 0 1440 655" enable-background="new 0 0 1440 655" xml:space="preserve">
<path fill="#FFFFFF" d="M82.365,17.032c-0.275,1.1-6.499,32.457-6.82,36.214c-0.322,3.758-4.004,40.765-4.098,44.234
	c-0.094,3.469-0.684,34.671,0.013,38.204c0.697,3.534,2.444,31.776,3.032,34.917c0.588,3.141,6.055,29.146,6.055,29.146
	s6.439,23.284,8.252,26.948c1.812,3.665,11.054,23.47,13.202,26.676c2.146,3.206,9.281,14.517,11.551,17.051
	c2.269,2.533,15.401,14.849,15.401,14.849s-4.215-26.747-5.225-33.277c-1.01-6.53-3.026-33.826-3.026-33.826l-1.375-30.802
	l0.826-27.777l1.65-26.126l0.826-25.301l0.989-24.752l-0.385-21.726c0,0,0.599-13.255,0-15.325
	c-0.598-2.071-12.473-14.99-13.805-16.028c-1.332-1.038-13.774-8.119-16.226-9.075C90.749,20.3,82.365,17.032,82.365,17.032z"/>
<path fill="#FFFFFF" d="M130.36,41l14.56,7.317l17.318,6.41l14.846,5.265l15.95,5.522l16.499,5.51c0,0,10.209,4.923,12.926,6.606
	c2.716,1.684,10.451,12.379,10.451,12.379s6.04,11.634,7.149,14.026c1.108,2.392,1.375,16.501,1.375,16.501l-1.649,21.729
	l-0.205,15.675L238,176.917v14.296c0,0-0.423,20.63-0.423,21.456c0,0.825-0.586,14.575-0.586,14.575l0.375,16.226
	c0,0-0.604,14.057,0.069,18.56c0.673,4.502,2.315,14.992,2.315,16.642c0,1.651,0.231,13.715,0.292,17.327
	c0.061,3.611-1.641,13.751-1.641,13.751s-2.473,12.155-3.571,14.576c-1.099,2.421-5.419,10.992-7.148,13.476
	c-1.729,2.482-6.282,6.226-8.525,7.701c-2.243,1.475-6.759,2.554-9.625,2.749c-2.867,0.196-12.375-3.574-12.375-3.574l-12.926-6.051
	c0,0-7.529-3.412-10.451-5.226s-11.001-9.625-11.001-9.625s-7.283-6.437-9.075-8.525c-1.792-2.089-4.195-7.225-5.775-10.177
	c-1.58-2.951-2.973-8.574-4.399-12.1c-1.428-3.526-4.059-8.629-4.675-11.55c-0.617-2.921-1.954-9.402-3.026-13.477
	c-1.071-4.074-2.749-10.45-2.749-10.45s-2.298-9.01-2.988-11.826c-0.69-2.815-1.138-13.476-1.138-13.476l-1.526-17.325
	l-0.976-15.677c0,0-0.082-9.056,0-12.809c0.083-3.752-1.215-9.208-1.609-13.868c-0.394-4.658,0-16.712,0-16.712l1.361-28.116
	l1.1-15.401c0,0,0.048-38.035-0.275-42.39C126.705,65.541,128.953,41,128.953,41H130.36z"/>
<path fill="#FFFFFF" d="M255.356,95.084c3.881-2.495,12.84-2.261,12.84-2.261s14.22,1.033,16.046,1.758
	c1.826,0.724,15.723,6.24,15.723,6.24l13.5,5.183c0,0,12.481,5.92,14.587,6.856c2.105,0.937,11.459,7.832,13.208,9.89
	c1.748,2.057,11.279,13.195,11.279,14.021c0,0.825,11.551,17.598,11.551,17.598s9.901,21.451,9.901,22.276
	s5.273,17.306,6.051,19.249c0.779,1.943,3.26,16.542,3.026,19.526c-0.234,2.984-0.288,11.125-1.101,14.026
	c-0.813,2.901-3.433,11.415-3.851,13.751c-0.418,2.335-2.475,14.025-3.025,15.125s8.685-10.206,10.726-13.75
	c2.042-3.544,4.95-20.351,4.95-20.351l1.684-14.852c0,0,2.248-13.958,2.782-18.701s0-18.769,0-18.769l-1.715-35.41
	c0,0-0.419-10.111-0.825-15.401c-0.406-5.29-2.2-11.826-2.2-11.826s-1.867-9.632-3.575-13.476c-1.708-3.844-4.4-9.9-4.4-9.9
	s16.535,7.503,19.801,9.625c3.266,2.121,11.43,10.171,13.476,12.926c2.045,2.754,5.231,12.866,6.39,16.501
	c1.158,3.636,2.815,20.461,2.815,23.651c0,3.19,0,20.09,0,20.09v90.131v88.521c0,0-1.442,37.846-1.637,41.896
	c-0.193,4.05-1.509,11.209-3.096,13.844c-1.587,2.636-7.277,8.516-10.075,9.444c-2.796,0.927-14.151,0.665-17.423,0
	c-3.272-0.666-23.752-4.829-23.752-4.829s-22.645-3.784-26.114-4.708c-3.47-0.922-21.445-8.8-21.445-8.8l-20.347-7.977
	c0,0-18.217-7.167-20.625-9.351c-2.408-2.183-6.688-5.871-8.799-7.975c-2.111-2.105-6.325-11.001-6.325-11.001l-5.775-14.301
	c0,0-5.631-16.233-6.326-19.526c-0.694-3.292-2.475-16.501-2.475-16.501l-3.944-24.751c0,0-2.842-26.434-2.842-30.802
	s0-17.327,0-17.327V167.07l1.314-27.556c0,0,1.527-20.484,1.909-23.927C247.606,112.145,251.476,97.578,255.356,95.084z"/>
<path fill="#FFFFFF" d="M436.822,122.548c-0.549,1.1-6.822,23.845-6.822,23.845v30.334c0,0,8.009,208.38,7.197,209.205
	c-0.813,0.825,2.276,11.768,3.198,14.301c0.922,2.535,5.523,8.114,6.956,9.627c1.433,1.511,11.505,7.63,14.616,9.35
	c3.11,1.722,27.797,11.001,28.622,11.001s28.611,7.425,28.611,7.425l34.383,8.25l31.63,6.384L622.342,457h34.432l27.722-2.351
	c0,0,20.263-1.198,22.551-2.729c2.287-1.533,6.479-11.584,7.425-14.705c0.946-3.123,1.65-21.792,1.65-21.792l5.786-68.788
	l1.659-38.516c0,0,0.85-16.596,0-18.719s-4.572-6.816-6.071-7.97c-1.499-1.153-15.126-8.527-15.126-8.527l-23.926-11.552
	c0,0-23.46-10.762-26.401-12.149c-2.941-1.388-23.377-15.903-23.377-15.903l-23.376-14.576l-17.875-12.1l-13.476-11l5.775,21.451
	c0,0,9.962,28.854,11.551,32.128c1.588,3.274,14.301,29.475,14.301,29.475l15.675,26.678l13.476,17.875c0,0,8.451,7.306,9.128,9.345
	c0.677,2.038,1.597,5.781,1.597,5.781s-5.676-0.506-7.7-1.375c-2.024-0.869-23.697-15.387-26.127-17.602
	c-2.429-2.215-19.439-17.133-21.726-19.801c-2.287-2.668-24.751-28.876-24.751-28.876l-25.578-31.077l-17.6-21.176l-15.401-21.452
	l-12.926-18.976c0,0-9.18-12.061-13.201-17.326c-4.02-5.266-16.936-16.776-16.936-16.776L436.822,122.548z"/>
<path fill="#FFFFFF" d="M737.859,285.804l-1.516,27.786l0.892,27.782l-1.891,30.255l-2.734,28.328c0,0-1.917,26.952-1.917,27.778
	c0,0.824,0.279,17.326,0.006,18.15c-0.275,0.826,1.32,5.71,3.713,7.151s12.241,4.126,12.241,4.126l22.826,1.648l27.776,1.65
	l24.227,1.65c0,0,26.452-1.047,31.326-1.926c4.875-0.878,18.791-3.477,23.377-4.212c4.589-0.736,29.991-4.783,32.177-5.413
	c2.188-0.631,16.227-4.676,16.227-4.676s21.537-4.8,26.401-6.875c4.865-2.076,22.551-9.626,22.551-9.626s14.34-6.224,17.602-8.25
	c3.261-2.026,7.723-7.257,10.186-9.9c2.463-2.643,4.735-6.991,5.507-9.9c0.772-2.909,0-23.42,0-23.42s5.678-99.691,5.483-101.987
	c-0.192-2.296-2.749-7.426-2.749-7.426s-0.962-4.34-1.377-4.95c-0.412-0.61-13.475-1.926-13.475-1.926s-13.101-1.745-17.051-2.475
	c-3.951-0.729-13.586-4.565-15.95-6.325c-2.366-1.76-9.391-6.441-11.826-8.801c-2.436-2.359-5.929-5.061-8.802-8.526
	c-2.874-3.465-9.351-11.275-9.351-11.275s3.346,14.271,4.401,16.776c1.057,2.504,4.717,11.588,6.874,13.476
	c2.158,1.889,11.001,9.625,11.001,9.625s6.533,5.437,9.075,6.875c2.543,1.438,9.077,2.2,9.077,2.2s-12.015,6.055-17.052,8.251
	s-8.966,3.041-12.651,4.401c-3.686,1.359-22.406,5.317-26.126,5.225c-3.718-0.092-23.681-0.467-27.777-1.789
	c-4.095-1.322-20.457-6.586-24.75-8.111c-4.294-1.525-25.853-14.301-25.853-14.301l-22.001-11.001c0,0-17.168-7.395-20.352-8.8
	c-3.186-1.406-23.651-6.05-23.651-6.05l17.877,18.426c0,0,12.225,14.497,13.477,17.051c1.25,2.553,6.024,12.357,7.148,14.026
	c1.127,1.668,7.099,10.606,9.075,12.65c1.978,2.044,9.878,9.669,11.826,10.726c1.95,1.057,10.99,7.282,13.478,8.25
	c2.486,0.969,12.923,4.951,14.024,5.777c1.1,0.824,8.8,4.125,8.8,4.125l-27.226-6.326l-18.951-6.601l-14.326-7.149l-14.3-6.051
	l-12.926-4.125l-13.712-5.501c0,0-12.092-6.064-14.065-7.014C750.18,288.31,737.859,285.804,737.859,285.804z"/>
<path fill="#FFFFFF" d="M1023.525,262.043c0,0.825-3.607,122.113-2.025,124.727c1.581,2.616,4.347,4.159,7.049,4.822
	s12.89,0,12.89,0s20.146-1.544,23.817-2.627c3.67-1.082,18.694-4.467,22.697-6.596c4.004-2.127,12.868-6.727,16.501-9.37
	c3.632-2.645,6.289-6.004,9.351-9.626c3.06-3.622,6.463-12.048,9.075-16.226c2.612-4.179,6.877-11.001,6.877-11.001l9.899-14.301
	l9.351-14.027c0,0,3.877-7.499,7.15-11.825c3.271-4.326,4.872-7.308,7.699-10.177c2.828-2.869,7.049-7.149,7.049-7.149l8.145-8.251
	c0,0-0.729-8.466,0-13.217c0.728-4.751,1.094-8.018,2.134-11.535c1.041-3.516,2.11-7.203,3.575-11.826
	c1.463-4.623,2.247-12.101,2.247-12.101s1.318-9.021,1.7-14.026c0.383-5.004,0-11.673,0-11.673l-16.872,12.773
	c0,0-24.283,15.582-28.328,17.601c-4.044,2.021-15.004,5.39-18.15,6.6s-17.876,6.876-17.876,6.876s-8.251,2.469-9.901,3.575
	c-2.828,1.897-4.933,4.974-7.426,6.051c-2.492,1.076-16.859,1.179-18.976,2.475c-2.116,1.295-1.007,2.784-3.299,3.3
	c-2.294,0.516-9.015-1.152-11.551-0.275c-2.538,0.876-15.128,5.226-15.128,5.226L1023.525,262.043z"/>
<path fill="#FFFFFF" d="M1202.263,183.305c0,1.375-3.664,21.144-3.664,21.144l-3.067,19.649l-2.497,23.985l17.315-9.595
	c0,0,10.745-6.335,14.297-9.885c3.551-3.55,10.172-12.643,10.172-12.643s9.191-11.546,10.999-15.397
	c1.807-3.852,3.868-9.251,7.148-13.749s9.625-13.2,9.625-13.2l12.102-13.475c0,0,5.558-7.358,8.524-10.451
	c2.969-3.093,7.383-7.515,9.076-10.176c1.692-2.661,3.291-4.937,4.578-7.976c1.287-3.038,1.011-7.49,1.28-11.825
	c0.268-4.336-0.616-4.659,0-8.974c0.615-4.314,3.493-11.377,3.493-11.377s5.321-12.022,6.87-16.776
	c1.55-4.754,3.649-15.901,4.122-18.976c0.471-3.074,0-4.374,0-4.374s-22.692,12.135-23.518,12.685s-17.453,7.365-17.453,7.365
	l-6.324,25.026l-6.05,17.326l-6.456,12.942c0,0-7.383,12.608-9.496,15.384c-2.111,2.776-10.725,10.177-10.725,10.177l-15.676,12.65
	L1202.263,183.305z"/>
<path fill="#FFFFFF" d="M1318.145,53.158c0,1.101-0.697,14.142-1.65,20.627c-0.953,6.484-3.026,12.407-3.857,17.876
	c-0.832,5.469-1.366,22-1.366,22s11.455-12.697,14.85-17.326c3.396-4.628,9.431-12.879,12.376-16.776s7.977-14.851,7.977-14.851
	l7.976-15.401c0,0,4.273-10.477,6.323-14.026c2.052-3.549,4.083-6.526,5.501-11.276c1.417-4.75,2.476-12.925,2.476-12.925
	l-15.126,14.576c0,0-8.524,9.537-11.916,12.433c-3.393,2.896-14.517,10.37-14.517,10.37L1318.145,53.158z"/>
<path fill="#FFFFFF" d="M1057.43,393.08l-2.75,14.607l-4.4,18.394c0,0-2.531,11.047-3.207,17.818
	c-0.676,6.773-0.367,17.382,0,23.159c0.368,5.778,2.563,17.047,2.563,17.047s18.765-24.793,24.016-31.633
	s11.112-17.506,15.395-25.861c4.284-8.355,13.738-33.492,13.738-33.492s-18.043-1.501-26.698-1.609
	C1067.431,391.399,1057.43,393.08,1057.43,393.08L1057.43,393.08z"/>
<path fill="#FFFFFF" d="M918.241,460.822c-1.164,3.317-2.874,17.558-2.874,18.933c0,1.376-1.56,15.322-1.572,17.582
	c-0.012,2.261-0.363,14.855-0.363,14.855l-0.681,12.629l-0.622,8.753l-0.261,9.995c0,0-0.511,7.755-0.476,10.398
	c0.034,2.644,0.095,6.086,0.563,8.894c0.467,2.81,2.461,7.883,2.737,8.708c0.277,0.825,1.102,4.674,1.102,4.674
	s19.342-11.005,22.552-13.749c3.212-2.744,15.127-12.927,15.127-12.927l21.177-20.901l14.3-14.3c0,0,9.543-11.062,12.651-14.302
	c3.105-3.241,8.293-8.503,10.718-11.825c2.427-3.32,8.456-13.476,9.182-14.301s7.604-13.201,7.604-13.201s6.934-15.652,8.771-20.076
	c1.837-4.425,3.598-15.184,4.37-21.452c0.772-6.267,0-17.154,0-17.154s-6.89,1.622-11.491,3.954
	c-4.603,2.333-5.783,3.906-11.467,7.461c-5.687,3.556-11.908,7.126-11.908,7.126l-8.953,4.35c0,0-5.119,2.736-10.575,5.54
	c-5.455,2.804-14.481,8.024-18.713,10.883c-4.23,2.857-13.549,6.611-14.95,7.217c-1.401,0.604-19.689,5.553-19.689,5.553
	l-14.851,3.573C919.646,457.711,919.406,457.504,918.241,460.822z"/>
<path fill="#FFFFFF" d="M719,593.582v-16.095c0,0-0.577-17.153-0.13-22.533c0.444-5.38,1.451-18.311,1.451-18.311
	s1.619-11.827,1.619-12.651c0-0.823,0.807-7.036,1.645-13.199c0.838-6.162-0.01-13.78-0.01-13.78s-0.258-7.965,2.463-12.907
	c2.719-4.941,8.246-11.815,8.246-11.815l27.146,1.044l21.38-0.252l19.208-0.011l20.771-0.085l19.205-1.383l23.197-2.613
	l14.574-1.926l16.227-3.301l6.342-1.654L904,491.817v24.511c0,0-0.826,13.104-1.598,16.467c-0.771,3.361-3.004,12.714-3.617,16.775
	c-0.613,4.061-1.734,11.508-2.497,15.677c-0.761,4.167-2.046,10.34-1.936,13.748c0.11,3.409,0.27,8.526,0.27,8.526
	s-20.275,9.532-23.118,11.551c-2.843,2.018-16.763,8.803-16.763,8.803s-24.822,10.339-28.329,11.272
	c-3.506,0.934-16.168,4.257-18.426,5.227c-2.257,0.971-29.074,12.502-27.502,11.826c1.574-0.677-14.266,5.003-14.266,5.003
	s-9.488,2.628-12.135,3.077c-2.646,0.45-12.008,0-12.008,0s19.89-10.666,24.143-13.582c4.253-2.915,10.808-9.663,14.266-13.198
	c3.459-3.536,10.176-13.477,10.176-13.477s8.585-12.146,11.276-16.227c2.69-4.081,8.649-18.885,11.275-24.476
	c2.627-5.591,7.15-18.701,7.15-18.701l6.049-13.751l6.877-19.251l-20.625,17.601l-18.153,15.95l-25.852,18.977l-18.785,12.966
	l-20.962,13.71L719,597.148V593.582z"/>
<path fill="#FFFFFF" d="M583.977,489.678L530.43,502.82c0,0-1.313-28.939,0-33.168c1.313-4.228,2.586-8.055,5.561-9.186
	c2.975-1.132,13.538,1.724,18.879,2.693c3.302,0.598,9.907,2.278,17.423,3.906c5.252,1.137,27.226,2.912,27.226,2.912
	s16.871,1.604,22.827,2.088c5.956,0.483,18.333,0,18.333,0s18.744,0.615,21.075,0.835c2.33,0.218,11.812,0.658,16.42,0.766
	c4.609,0.11,23.988,0.503,26.676,1.1c2.689,0.597,7.425,1.649,7.425,1.649s1.098,6.543,1.101,10.727
	c0.003,4.185-13.751,107.807-13.751,107.807l-1.1,9.351c0,0-0.777,0.946-3.301,2.476c-2.524,1.529-22.119,8.96-25.121,10.222
	c-3.002,1.26-19.033,6.605-23.987,8.169c-4.954,1.564-34.751,6.55-37.797,7.188c-3.045,0.636-31.03,2.026-31.03,2.026
	s-20.838-1.362-23.422-2.302c-2.586-0.94-12.101-4.401-12.101-4.401s14.628-4.926,17.601-6.325
	c2.974-1.398,8.862-6.985,11.002-9.626c2.137-2.638,4.675-8.125,4.675-8.125l-17.052,2.052c0,0-14.572,0.7-17.1,0
	c-2.527-0.699-7.52-1.909-8.899-3.278s-3.116-6.202-3.583-10.999c-0.465-4.799-0.409-17.106-0.409-17.106v-17.704v-16.096v-14.485
	c0,0,16.018-8.372,20.021-10.326c4.004-1.955,12.277-6.821,16.365-9.537C568.474,503.403,583.977,489.678,583.977,489.678z"/>
<path fill="#FFFFFF" d="M517.784,505.322c1.104-1.141,2.902-44.868,2.09-46.904c-0.812-2.037-7.838-4.679-17.243-8.737
	c-9.405-4.061-12.434-5.381-19.376-8.336c-6.943-2.954-18.144-6.334-33.915-9.771c-15.771-3.436-23.873-4.328-35.191-7.665
	c-11.319-3.338-11.005-5.275-22.267-6.565c-11.261-1.29-11.938,0-11.938,0s-1.981,1.149-3.737,2.971
	c-1.756,1.822-1.375,18.701-1.375,18.701s0.783,59.369,2.2,63.528c1.417,4.159,7.288,11.813,10.175,14.026
	c2.888,2.214,19.587,6.613,23.101,7.15c3.513,0.537,26.282-2.129,29.977-2.751c3.695-0.622,9.697-3.511,14.301-4.675
	c4.604-1.163,27.546,0.844,30.802,0.275c3.256-0.569,14.552-6.044,17.876-6.877C506.588,508.863,516.679,506.462,517.784,505.322z"
	/>
<path fill="#FFFFFF" d="M385.961,569.537l36.1-5.856l27.952-8.702l30.337-6.016L510.414,538c0,0,2.586-2,2.586,0v57.191
	l-3.254,6.209l-6.207,2.6h-15.761l-19.992-1.372l-17.638-4.389l-20.864-5.495l-22.001-8.798L385.961,569.537z"/>
<path fill="#FFFFFF" d="M268.085,379.521c0,0-0.515,40.663,0,53.112c0.515,12.45,3.89,49.833,3.89,49.833
	s18.166,9.551,28.602,14.026c10.437,4.476,39.46,12.854,45.378,13.477c5.918,0.622,26.126,2.751,26.126,2.751
	s-5.352-28.294-6.05-34.928c-0.697-6.635-1.376-24.826-0.55-31.673c0.826-6.847,3.288-27.255,3.288-27.255l-25.576-6.422
	l-26.115-10.281l-25.576-11.551L268.085,379.521z"/>
<path fill="#FFFFFF" d="M198.242,436.01c-0.366-1.763-4.688-34.25-4.688-34.25s-0.707-15.492-1.114-22.238
	c-0.408-6.745,0-16.095,0-16.095s11.705-3.72,16.557-3.616c4.851,0.103,16.961,3.076,21.726,4.674
	c4.766,1.599,25.523,13.675,28.051,16.501c2.528,2.828,3.087,3.913,3.851,7.978c0.763,4.063-1.282,32.119-1.65,39.602
	c-0.368,7.483,1.65,28.876,1.65,28.876s2.45,19.683,1.649,21.177c-0.8,1.496-2.842,1.952-4.95,1.376
	c-2.107-0.577-16.776-9.46-16.776-9.46s-41.753-29.077-42.353-30.145C199.596,439.322,198.609,437.774,198.242,436.01z"/>
<path fill="#FFFFFF" d="M190.868,431.931l-0.296-1.763c0,0-3.084-12.006-3.962-17.619c-0.879-5.613-2.609-21.111-2.609-21.111
	v-23.183c0,0-4.478-1.898-7.631-1.294c-3.154,0.604-5.054,3.473-8.851,4.95c-3.798,1.478-14.601,0.824-14.601,0.824
	s-7.814-1.144-10.051-1.68s-3.686-2.208-6.276-3.196c-2.59-0.989-9.366-0.409-9.366-0.409s2.261,7.804,6.126,12.071
	c3.865,4.268,8.639,9.614,11.834,12.74c3.195,3.128,9.249,8.938,11.83,12.101c2.582,3.163,7.644,9.396,10.727,12.981
	c3.083,3.586,6.177,5.563,9.629,7.92C180.82,427.622,190.868,431.931,190.868,431.931z"/>
<path fill="#FFFFFF" d="M261.524,519.87"/>
<path fill="#FFFFFF" d="M1060.39,393.225"/>
<g>
</g>
<g>
</g>
<g>
</g>
<g>
</g>
<g>
</g>
<g>
</g>
<g>
</g>
<g>
</g>
<g>
</g>
<g>
</g>
<g>
</g>
<g>
</g>
<g>
</g>
<g>
</g>
<g>
</g>
</svg>
