<svg width="90" height="77" viewBox="0 0 90 77" fill="none" xmlns="http://www.w3.org/2000/svg">
<path d="M88.6657 3.72321C88.1583 2.60521 87.3374 1.65841 86.3026 0.997599C85.2678 0.336784 84.0635 -0.00967974 82.8358 0.000205789H6.42505C3.88461 0.000205789 1.65018 1.42821 0.591926 3.72321C0.0769693 4.82429 -0.107679 6.05107 0.0603444 7.25496C0.228368 8.45885 0.741855 9.58819 1.53861 10.5062L1.5418 10.5094L31.8804 45.8078V73.3127C31.8803 73.8898 32.0369 74.456 32.3335 74.9511C32.63 75.4462 33.0554 75.8514 33.5642 76.1237C34.073 76.3959 34.6462 76.5249 35.2226 76.4969C35.799 76.4689 36.357 76.285 36.837 75.9647L55.962 63.2147C56.8481 62.6218 57.3804 61.6273 57.3804 60.5627V45.8078L87.7222 10.5094C88.5191 9.59075 89.0324 8.46067 89.1999 7.25615C89.3673 6.05163 89.1818 4.82439 88.6657 3.72321Z" fill="#53C8ED"/>
</svg>
